<svg width="720" height="372" xmlns="http://www.w3.org/2000/svg"><rect width="720" height="372" fill="#ffffff"/><text x="64" y="20" font-size="15" font-weight="bold" fill="#333">action() — ops/sec (linear scale, last 50) by PR / release, c8g.medium</text><line x1="74.3" y1="34" x2="74.3" y2="324" stroke="#e8e8e8"/><line x1="84.7" y1="34" x2="84.7" y2="324" stroke="#e8e8e8"/><line x1="95.0" y1="34" x2="95.0" y2="324" stroke="#e8e8e8"/><line x1="105.3" y1="34" x2="105.3" y2="324" stroke="#e8e8e8"/><line x1="126.0" y1="34" x2="126.0" y2="324" stroke="#e8e8e8"/><line x1="136.3" y1="34" x2="136.3" y2="324" stroke="#e8e8e8"/><line x1="146.6" y1="34" x2="146.6" y2="324" stroke="#e8e8e8"/><line x1="156.9" y1="34" x2="156.9" y2="324" stroke="#e8e8e8"/><line x1="177.6" y1="34" x2="177.6" y2="324" stroke="#e8e8e8"/><line x1="187.9" y1="34" x2="187.9" y2="324" stroke="#e8e8e8"/><line x1="198.2" y1="34" x2="198.2" y2="324" stroke="#e8e8e8"/><line x1="208.6" y1="34" x2="208.6" y2="324" stroke="#e8e8e8"/><line x1="229.2" y1="34" x2="229.2" y2="324" stroke="#e8e8e8"/><line x1="239.6" y1="34" x2="239.6" y2="324" stroke="#e8e8e8"/><line x1="249.9" y1="34" x2="249.9" y2="324" stroke="#e8e8e8"/><line x1="260.2" y1="34" x2="260.2" y2="324" stroke="#e8e8e8"/><line x1="280.9" y1="34" x2="280.9" y2="324" stroke="#e8e8e8"/><line x1="291.2" y1="34" x2="291.2" y2="324" stroke="#e8e8e8"/><line x1="301.5" y1="34" x2="301.5" y2="324" stroke="#e8e8e8"/><line x1="311.8" y1="34" x2="311.8" y2="324" stroke="#e8e8e8"/><line x1="332.5" y1="34" x2="332.5" y2="324" stroke="#e8e8e8"/><line x1="342.8" y1="34" x2="342.8" y2="324" stroke="#e8e8e8"/><line x1="353.1" y1="34" x2="353.1" y2="324" stroke="#e8e8e8"/><line x1="363.5" y1="34" x2="363.5" y2="324" stroke="#e8e8e8"/><line x1="384.1" y1="34" x2="384.1" y2="324" stroke="#e8e8e8"/><line x1="394.4" y1="34" x2="394.4" y2="324" stroke="#e8e8e8"/><line x1="404.8" y1="34" x2="404.8" y2="324" stroke="#e8e8e8"/><line x1="415.1" y1="34" x2="415.1" y2="324" stroke="#e8e8e8"/><line x1="435.8" y1="34" x2="435.8" y2="324" stroke="#e8e8e8"/><line x1="446.1" y1="34" x2="446.1" y2="324" stroke="#e8e8e8"/><line x1="456.4" y1="34" x2="456.4" y2="324" stroke="#e8e8e8"/><line x1="466.7" y1="34" x2="466.7" y2="324" stroke="#e8e8e8"/><line x1="487.4" y1="34" x2="487.4" y2="324" stroke="#e8e8e8"/><line x1="497.7" y1="34" x2="497.7" y2="324" stroke="#e8e8e8"/><line x1="508.0" y1="34" x2="508.0" y2="324" stroke="#e8e8e8"/><line x1="518.4" y1="34" x2="518.4" y2="324" stroke="#e8e8e8"/><line x1="539.0" y1="34" x2="539.0" y2="324" stroke="#e8e8e8"/><line x1="549.3" y1="34" x2="549.3" y2="324" stroke="#e8e8e8"/><line x1="559.7" y1="34" x2="559.7" y2="324" stroke="#e8e8e8"/><line x1="570.0" y1="34" x2="570.0" y2="324" stroke="#e8e8e8"/><line x1="64.0" y1="34" x2="64.0" y2="324" stroke="#d0d0d0"/><line x1="115.6" y1="34" x2="115.6" y2="324" stroke="#d0d0d0"/><line x1="167.3" y1="34" x2="167.3" y2="324" stroke="#d0d0d0"/><line x1="218.9" y1="34" x2="218.9" y2="324" stroke="#d0d0d0"/><line x1="270.5" y1="34" x2="270.5" y2="324" stroke="#d0d0d0"/><line x1="322.2" y1="34" x2="322.2" y2="324" stroke="#d0d0d0"/><line x1="373.8" y1="34" x2="373.8" y2="324" stroke="#d0d0d0"/><line x1="425.4" y1="34" x2="425.4" y2="324" stroke="#d0d0d0"/><line x1="477.1" y1="34" x2="477.1" y2="324" stroke="#d0d0d0"/><line x1="528.7" y1="34" x2="528.7" y2="324" stroke="#d0d0d0"/><line x1="64" y1="324.0" x2="570" y2="324.0" stroke="#b0b0b0"/><text x="58" y="328.0" font-size="10" text-anchor="end" fill="#888">3.3M</text><line x1="64" y1="266.0" x2="570" y2="266.0" stroke="#b0b0b0"/><text x="58" y="270.0" font-size="10" text-anchor="end" fill="#888">6.9M</text><line x1="64" y1="208.0" x2="570" y2="208.0" stroke="#b0b0b0"/><text x="58" y="212.0" font-size="10" text-anchor="end" fill="#888">10.4M</text><line x1="64" y1="150.0" x2="570" y2="150.0" stroke="#b0b0b0"/><text x="58" y="154.0" font-size="10" text-anchor="end" fill="#888">14M</text><line x1="64" y1="92.0" x2="570" y2="92.0" stroke="#b0b0b0"/><text x="58" y="96.0" font-size="10" text-anchor="end" fill="#888">17.6M</text><line x1="64" y1="34.0" x2="570" y2="34.0" stroke="#b0b0b0"/><text x="58" y="38.0" font-size="10" text-anchor="end" fill="#888">21.1M</text><text x="64.0" y="327.2" font-size="4" text-anchor="end" fill="#aa4400" transform="rotate(-80 64.0 327.2)">v5.147.8</text><text x="74.3" y="327.2" font-size="4" text-anchor="end" fill="#d6a382" transform="rotate(-80 74.3 327.2)">v5.147.9</text><text x="84.7" y="327.2" font-size="4" text-anchor="end" fill="#d6a382" transform="rotate(-80 84.7 327.2)">v5.147.10</text><text x="95.0" y="327.2" font-size="4" text-anchor="end" fill="#aa4400" transform="rotate(-80 95.0 327.2)">v5.148.0</text><text x="105.3" y="327.2" font-size="4" text-anchor="end" fill="#d6a382" transform="rotate(-80 105.3 327.2)">v5.148.1</text><text x="115.6" y="327.2" font-size="4" text-anchor="end" fill="#d6a382" transform="rotate(-80 115.6 327.2)">v5.148.2</text><text x="126.0" y="327.2" font-size="4" text-anchor="end" fill="#aa4400" transform="rotate(-80 126.0 327.2)">v5.149.1</text><text x="136.3" y="327.2" font-size="4" text-anchor="end" fill="#d6a382" transform="rotate(-80 136.3 327.2)">v5.149.2</text><text x="146.6" y="327.2" font-size="4" text-anchor="end" fill="#aa4400" transform="rotate(-80 146.6 327.2)">v5.150.0</text><text x="156.9" y="327.2" font-size="4" text-anchor="end" fill="#d6a382" transform="rotate(-80 156.9 327.2)">v5.150.1</text><text x="167.3" y="327.2" font-size="4" text-anchor="end" fill="#aa4400" transform="rotate(-80 167.3 327.2)">v5.151.0</text><text x="177.6" y="327.2" font-size="4" text-anchor="end" fill="#d6a382" transform="rotate(-80 177.6 327.2)">v5.151.1</text><text x="187.9" y="327.2" font-size="4" text-anchor="end" fill="#d6a382" transform="rotate(-80 187.9 327.2)">v5.151.2</text><text x="198.2" y="327.2" font-size="4" text-anchor="end" fill="#aa4400" transform="rotate(-80 198.2 327.2)">v5.152.0</text><text x="208.6" y="327.2" font-size="4" text-anchor="end" fill="#aa4400" transform="rotate(-80 208.6 327.2)">v5.153.0</text><text x="218.9" y="327.2" font-size="4" text-anchor="end" fill="#aa4400" transform="rotate(-80 218.9 327.2)">v5.154.0</text><text x="229.2" y="327.2" font-size="4" text-anchor="end" fill="#aa4400" transform="rotate(-80 229.2 327.2)">v5.155.0</text><text x="239.6" y="327.2" font-size="4" text-anchor="end" fill="#d6a382" transform="rotate(-80 239.6 327.2)">v5.155.1</text><text x="249.9" y="327.2" font-size="4" text-anchor="end" fill="#aa4400" transform="rotate(-80 249.9 327.2)">v5.156.0</text><text x="260.2" y="327.2" font-size="4" text-anchor="end" fill="#d6a382" transform="rotate(-80 260.2 327.2)">v5.156.1</text><text x="270.5" y="327.2" font-size="4" text-anchor="end" fill="#aa4400" transform="rotate(-80 270.5 327.2)">v5.157.0</text><text x="280.9" y="327.2" font-size="4" text-anchor="end" fill="#d6a382" transform="rotate(-80 280.9 327.2)">v5.157.1</text><text x="291.2" y="327.2" font-size="4" text-anchor="end" fill="#d6a382" transform="rotate(-80 291.2 327.2)">v5.157.2</text><text x="301.5" y="327.2" font-size="4" text-anchor="end" fill="#d6a382" transform="rotate(-80 301.5 327.2)">v5.157.3</text><text x="311.8" y="327.2" font-size="4" text-anchor="end" fill="#d6a382" transform="rotate(-80 311.8 327.2)">v5.157.4</text><text x="322.2" y="327.2" font-size="4" text-anchor="end" fill="#d6a382" transform="rotate(-80 322.2 327.2)">v5.157.5</text><text x="332.5" y="327.2" font-size="4" text-anchor="end" fill="#d6a382" transform="rotate(-80 332.5 327.2)">v5.157.6</text><text x="342.8" y="327.2" font-size="4" text-anchor="end" fill="#d6a382" transform="rotate(-80 342.8 327.2)">v5.157.7</text><text x="353.1" y="327.2" font-size="4" text-anchor="end" fill="#d6a382" transform="rotate(-80 353.1 327.2)">v5.157.8</text><text x="363.5" y="327.2" font-size="4" text-anchor="end" fill="#d6a382" transform="rotate(-80 363.5 327.2)">v5.157.9</text><text x="373.8" y="327.2" font-size="4" text-anchor="end" fill="#d6a382" transform="rotate(-80 373.8 327.2)">v5.157.10</text><text x="384.1" y="327.2" font-size="4" text-anchor="end" fill="#d6a382" transform="rotate(-80 384.1 327.2)">v5.157.11</text><text x="394.4" y="327.2" font-size="4" text-anchor="end" fill="#d6a382" transform="rotate(-80 394.4 327.2)">v5.157.12</text><text x="404.8" y="327.2" font-size="4" text-anchor="end" fill="#d6a382" transform="rotate(-80 404.8 327.2)">v5.157.13</text><text x="415.1" y="327.2" font-size="4" text-anchor="end" fill="#d6a382" transform="rotate(-80 415.1 327.2)">v5.157.14</text><text x="425.4" y="327.2" font-size="4" text-anchor="end" fill="#d6a382" transform="rotate(-80 425.4 327.2)">v5.157.15</text><text x="435.8" y="327.2" font-size="4" text-anchor="end" fill="#d6a382" transform="rotate(-80 435.8 327.2)">v5.157.16</text><text x="446.1" y="327.2" font-size="4" text-anchor="end" fill="#d6a382" transform="rotate(-80 446.1 327.2)">v5.157.17</text><text x="456.4" y="327.2" font-size="4" text-anchor="end" fill="#d6a382" transform="rotate(-80 456.4 327.2)">v5.157.18</text><text x="466.7" y="327.2" font-size="4" text-anchor="end" fill="#aa4400" transform="rotate(-80 466.7 327.2)">v5.158.0</text><text x="477.1" y="327.2" font-size="4" text-anchor="end" fill="#d6a382" transform="rotate(-80 477.1 327.2)">v5.158.1</text><text x="487.4" y="327.2" font-size="4" text-anchor="end" fill="#d6a382" transform="rotate(-80 487.4 327.2)">v5.158.2</text><text x="497.7" y="327.2" font-size="4" text-anchor="end" fill="#aa4400" transform="rotate(-80 497.7 327.2)">v5.159.0</text><text x="508.0" y="327.2" font-size="4" text-anchor="end" fill="#d6a382" transform="rotate(-80 508.0 327.2)">v5.159.1</text><text x="518.4" y="327.2" font-size="4" text-anchor="end" fill="#d6a382" transform="rotate(-80 518.4 327.2)">v5.159.2</text><text x="528.7" y="327.2" font-size="4" text-anchor="end" fill="#aa4400" transform="rotate(-80 528.7 327.2)">v5.160.0</text><text x="539.0" y="327.2" font-size="4" text-anchor="end" fill="#aa4400" transform="rotate(-80 539.0 327.2)">v5.161.0</text><text x="549.3" y="327.2" font-size="4" text-anchor="end" fill="#aa4400" transform="rotate(-80 549.3 327.2)">v5.162.0</text><text x="559.7" y="327.2" font-size="4" text-anchor="end" fill="#d6a382" transform="rotate(-80 559.7 327.2)">v5.162.1</text><text x="570.0" y="327.2" font-size="4" text-anchor="end" fill="#d6a382" transform="rotate(-80 570.0 327.2)">v5.162.2</text><path d="M64.0,158.8 L74.3,158.5 L84.7,153.9 L95.0,155.0 L105.3,164.4 L115.6,154.8 L126.0,156.6 L136.3,158.2 L146.6,154.2 L156.9,152.4 L167.3,154.0 L177.6,160.2 L187.9,156.4 L198.2,154.4 L208.6,155.8 L218.9,156.8 L229.2,154.5 L239.6,158.0 L249.9,150.8 L260.2,155.1 L270.5,158.5 L280.9,141.3 L291.2,140.8 L301.5,137.5 L311.8,145.7 L322.2,83.2 L332.5,73.6 L342.8,72.3 L353.1,73.2 L363.5,72.0 L373.8,65.3 L384.1,69.7 L394.4,65.2 L404.8,71.1 L415.1,67.0 L425.4,64.1 L435.8,70.5 L446.1,71.4 L456.4,71.9 L466.7,70.8 L477.1,77.8 L487.4,81.5 L497.7,68.3 L508.0,71.7 L518.4,66.4 L528.7,70.6 L539.0,72.1 L549.3,78.4 L559.7,64.1 L570.0,64.7" fill="none" stroke="#4477AA" stroke-width="1.6"/><circle cx="64.0" cy="158.8" r="2" fill="#4477AA"/><circle cx="74.3" cy="158.5" r="2" fill="#4477AA"/><circle cx="84.7" cy="153.9" r="2" fill="#4477AA"/><circle cx="95.0" cy="155.0" r="2" fill="#4477AA"/><circle cx="105.3" cy="164.4" r="2" fill="#4477AA"/><circle cx="115.6" cy="154.8" r="2" fill="#4477AA"/><circle cx="126.0" cy="156.6" r="2" fill="#4477AA"/><circle cx="136.3" cy="158.2" r="2" fill="#4477AA"/><circle cx="146.6" cy="154.2" r="2" fill="#4477AA"/><circle cx="156.9" cy="152.4" r="2" fill="#4477AA"/><circle cx="167.3" cy="154.0" r="2" fill="#4477AA"/><circle cx="177.6" cy="160.2" r="2" fill="#4477AA"/><circle cx="187.9" cy="156.4" r="2" fill="#4477AA"/><circle cx="198.2" cy="154.4" r="2" fill="#4477AA"/><circle cx="208.6" cy="155.8" r="2" fill="#4477AA"/><circle cx="218.9" cy="156.8" r="2" fill="#4477AA"/><circle cx="229.2" cy="154.5" r="2" fill="#4477AA"/><circle cx="239.6" cy="158.0" r="2" fill="#4477AA"/><circle cx="249.9" cy="150.8" r="2" fill="#4477AA"/><circle cx="260.2" cy="155.1" r="2" fill="#4477AA"/><circle cx="270.5" cy="158.5" r="2" fill="#4477AA"/><circle cx="280.9" cy="141.3" r="2" fill="#4477AA"/><circle cx="291.2" cy="140.8" r="2" fill="#4477AA"/><circle cx="301.5" cy="137.5" r="2" fill="#4477AA"/><circle cx="311.8" cy="145.7" r="2" fill="#4477AA"/><circle cx="322.2" cy="83.2" r="2" fill="#4477AA"/><circle cx="332.5" cy="73.6" r="2" fill="#4477AA"/><circle cx="342.8" cy="72.3" r="2" fill="#4477AA"/><circle cx="353.1" cy="73.2" r="2" fill="#4477AA"/><circle cx="363.5" cy="72.0" r="2" fill="#4477AA"/><circle cx="373.8" cy="65.3" r="2" fill="#4477AA"/><circle cx="384.1" cy="69.7" r="2" fill="#4477AA"/><circle cx="394.4" cy="65.2" r="2" fill="#4477AA"/><circle cx="404.8" cy="71.1" r="2" fill="#4477AA"/><circle cx="415.1" cy="67.0" r="2" fill="#4477AA"/><circle cx="425.4" cy="64.1" r="2" fill="#4477AA"/><circle cx="435.8" cy="70.5" r="2" fill="#4477AA"/><circle cx="446.1" cy="71.4" r="2" fill="#4477AA"/><circle cx="456.4" cy="71.9" r="2" fill="#4477AA"/><circle cx="466.7" cy="70.8" r="2" fill="#4477AA"/><circle cx="477.1" cy="77.8" r="2" fill="#4477AA"/><circle cx="487.4" cy="81.5" r="2" fill="#4477AA"/><circle cx="497.7" cy="68.3" r="2" fill="#4477AA"/><circle cx="508.0" cy="71.7" r="2" fill="#4477AA"/><circle cx="518.4" cy="66.4" r="2" fill="#4477AA"/><circle cx="528.7" cy="70.6" r="2" fill="#4477AA"/><circle cx="539.0" cy="72.1" r="2" fill="#4477AA"/><circle cx="549.3" cy="78.4" r="2" fill="#4477AA"/><circle cx="559.7" cy="64.1" r="2" fill="#4477AA"/><circle cx="570.0" cy="64.7" r="2" fill="#4477AA"/><rect x="580" y="34" width="10" height="10" fill="#4477AA"/><text x="594" y="43" font-size="10" fill="#444">chain-10</text><path d="M64.0,160.9 L74.3,167.7 L84.7,163.2 L95.0,165.1 L105.3,176.4 L115.6,163.6 L126.0,163.2 L136.3,165.9 L146.6,164.0 L156.9,167.0 L167.3,170.1 L177.6,168.0 L187.9,169.2 L198.2,164.1 L208.6,167.0 L218.9,174.5 L229.2,167.1 L239.6,165.2 L249.9,166.5 L260.2,169.2 L270.5,163.0 L280.9,150.2 L291.2,151.3 L301.5,153.2 L311.8,152.0 L322.2,83.9 L332.5,87.2 L342.8,81.9 L353.1,81.9 L363.5,82.0 L373.8,86.7 L384.1,83.8 L394.4,85.0 L404.8,84.2 L415.1,81.9 L425.4,82.3 L435.8,86.9 L446.1,87.5 L456.4,87.4 L466.7,84.1 L477.1,83.9 L487.4,90.6 L497.7,88.7 L508.0,89.7 L518.4,78.7 L528.7,86.2 L539.0,82.4 L549.3,83.6 L559.7,81.8 L570.0,85.1" fill="none" stroke="#EE6677" stroke-width="1.6"/><circle cx="64.0" cy="160.9" r="2" fill="#EE6677"/><circle cx="74.3" cy="167.7" r="2" fill="#EE6677"/><circle cx="84.7" cy="163.2" r="2" fill="#EE6677"/><circle cx="95.0" cy="165.1" r="2" fill="#EE6677"/><circle cx="105.3" cy="176.4" r="2" fill="#EE6677"/><circle cx="115.6" cy="163.6" r="2" fill="#EE6677"/><circle cx="126.0" cy="163.2" r="2" fill="#EE6677"/><circle cx="136.3" cy="165.9" r="2" fill="#EE6677"/><circle cx="146.6" cy="164.0" r="2" fill="#EE6677"/><circle cx="156.9" cy="167.0" r="2" fill="#EE6677"/><circle cx="167.3" cy="170.1" r="2" fill="#EE6677"/><circle cx="177.6" cy="168.0" r="2" fill="#EE6677"/><circle cx="187.9" cy="169.2" r="2" fill="#EE6677"/><circle cx="198.2" cy="164.1" r="2" fill="#EE6677"/><circle cx="208.6" cy="167.0" r="2" fill="#EE6677"/><circle cx="218.9" cy="174.5" r="2" fill="#EE6677"/><circle cx="229.2" cy="167.1" r="2" fill="#EE6677"/><circle cx="239.6" cy="165.2" r="2" fill="#EE6677"/><circle cx="249.9" cy="166.5" r="2" fill="#EE6677"/><circle cx="260.2" cy="169.2" r="2" fill="#EE6677"/><circle cx="270.5" cy="163.0" r="2" fill="#EE6677"/><circle cx="280.9" cy="150.2" r="2" fill="#EE6677"/><circle cx="291.2" cy="151.3" r="2" fill="#EE6677"/><circle cx="301.5" cy="153.2" r="2" fill="#EE6677"/><circle cx="311.8" cy="152.0" r="2" fill="#EE6677"/><circle cx="322.2" cy="83.9" r="2" fill="#EE6677"/><circle cx="332.5" cy="87.2" r="2" fill="#EE6677"/><circle cx="342.8" cy="81.9" r="2" fill="#EE6677"/><circle cx="353.1" cy="81.9" r="2" fill="#EE6677"/><circle cx="363.5" cy="82.0" r="2" fill="#EE6677"/><circle cx="373.8" cy="86.7" r="2" fill="#EE6677"/><circle cx="384.1" cy="83.8" r="2" fill="#EE6677"/><circle cx="394.4" cy="85.0" r="2" fill="#EE6677"/><circle cx="404.8" cy="84.2" r="2" fill="#EE6677"/><circle cx="415.1" cy="81.9" r="2" fill="#EE6677"/><circle cx="425.4" cy="82.3" r="2" fill="#EE6677"/><circle cx="435.8" cy="86.9" r="2" fill="#EE6677"/><circle cx="446.1" cy="87.5" r="2" fill="#EE6677"/><circle cx="456.4" cy="87.4" r="2" fill="#EE6677"/><circle cx="466.7" cy="84.1" r="2" fill="#EE6677"/><circle cx="477.1" cy="83.9" r="2" fill="#EE6677"/><circle cx="487.4" cy="90.6" r="2" fill="#EE6677"/><circle cx="497.7" cy="88.7" r="2" fill="#EE6677"/><circle cx="508.0" cy="89.7" r="2" fill="#EE6677"/><circle cx="518.4" cy="78.7" r="2" fill="#EE6677"/><circle cx="528.7" cy="86.2" r="2" fill="#EE6677"/><circle cx="539.0" cy="82.4" r="2" fill="#EE6677"/><circle cx="549.3" cy="83.6" r="2" fill="#EE6677"/><circle cx="559.7" cy="81.8" r="2" fill="#EE6677"/><circle cx="570.0" cy="85.1" r="2" fill="#EE6677"/><rect x="580" y="49" width="10" height="10" fill="#EE6677"/><text x="594" y="58" font-size="10" fill="#444">chain-50</text><path d="M64.0,176.2 L74.3,175.8 L84.7,176.9 L95.0,175.9 L105.3,188.7 L115.6,175.5 L126.0,173.2 L136.3,175.2 L146.6,178.8 L156.9,175.9 L167.3,186.8 L177.6,176.3 L187.9,177.5 L198.2,175.7 L208.6,177.3 L218.9,178.0 L229.2,178.2 L239.6,173.6 L249.9,175.3 L260.2,177.9 L270.5,173.7 L280.9,158.8 L291.2,170.8 L301.5,163.3 L311.8,162.1 L322.2,102.5 L332.5,104.6 L342.8,102.2 L353.1,99.2 L363.5,100.9 L373.8,99.3 L384.1,98.4 L394.4,99.8 L404.8,98.0 L415.1,101.4 L425.4,98.9 L435.8,101.8 L446.1,102.7 L456.4,103.3 L466.7,98.9 L477.1,103.6 L487.4,99.1 L497.7,104.7 L508.0,108.2 L518.4,102.2 L528.7,100.9 L539.0,100.0 L549.3,100.7 L559.7,106.1 L570.0,96.7" fill="none" stroke="#228833" stroke-width="1.6"/><circle cx="64.0" cy="176.2" r="2" fill="#228833"/><circle cx="74.3" cy="175.8" r="2" fill="#228833"/><circle cx="84.7" cy="176.9" r="2" fill="#228833"/><circle cx="95.0" cy="175.9" r="2" fill="#228833"/><circle cx="105.3" cy="188.7" r="2" fill="#228833"/><circle cx="115.6" cy="175.5" r="2" fill="#228833"/><circle cx="126.0" cy="173.2" r="2" fill="#228833"/><circle cx="136.3" cy="175.2" r="2" fill="#228833"/><circle cx="146.6" cy="178.8" r="2" fill="#228833"/><circle cx="156.9" cy="175.9" r="2" fill="#228833"/><circle cx="167.3" cy="186.8" r="2" fill="#228833"/><circle cx="177.6" cy="176.3" r="2" fill="#228833"/><circle cx="187.9" cy="177.5" r="2" fill="#228833"/><circle cx="198.2" cy="175.7" r="2" fill="#228833"/><circle cx="208.6" cy="177.3" r="2" fill="#228833"/><circle cx="218.9" cy="178.0" r="2" fill="#228833"/><circle cx="229.2" cy="178.2" r="2" fill="#228833"/><circle cx="239.6" cy="173.6" r="2" fill="#228833"/><circle cx="249.9" cy="175.3" r="2" fill="#228833"/><circle cx="260.2" cy="177.9" r="2" fill="#228833"/><circle cx="270.5" cy="173.7" r="2" fill="#228833"/><circle cx="280.9" cy="158.8" r="2" fill="#228833"/><circle cx="291.2" cy="170.8" r="2" fill="#228833"/><circle cx="301.5" cy="163.3" r="2" fill="#228833"/><circle cx="311.8" cy="162.1" r="2" fill="#228833"/><circle cx="322.2" cy="102.5" r="2" fill="#228833"/><circle cx="332.5" cy="104.6" r="2" fill="#228833"/><circle cx="342.8" cy="102.2" r="2" fill="#228833"/><circle cx="353.1" cy="99.2" r="2" fill="#228833"/><circle cx="363.5" cy="100.9" r="2" fill="#228833"/><circle cx="373.8" cy="99.3" r="2" fill="#228833"/><circle cx="384.1" cy="98.4" r="2" fill="#228833"/><circle cx="394.4" cy="99.8" r="2" fill="#228833"/><circle cx="404.8" cy="98.0" r="2" fill="#228833"/><circle cx="415.1" cy="101.4" r="2" fill="#228833"/><circle cx="425.4" cy="98.9" r="2" fill="#228833"/><circle cx="435.8" cy="101.8" r="2" fill="#228833"/><circle cx="446.1" cy="102.7" r="2" fill="#228833"/><circle cx="456.4" cy="103.3" r="2" fill="#228833"/><circle cx="466.7" cy="98.9" r="2" fill="#228833"/><circle cx="477.1" cy="103.6" r="2" fill="#228833"/><circle cx="487.4" cy="99.1" r="2" fill="#228833"/><circle cx="497.7" cy="104.7" r="2" fill="#228833"/><circle cx="508.0" cy="108.2" r="2" fill="#228833"/><circle cx="518.4" cy="102.2" r="2" fill="#228833"/><circle cx="528.7" cy="100.9" r="2" fill="#228833"/><circle cx="539.0" cy="100.0" r="2" fill="#228833"/><circle cx="549.3" cy="100.7" r="2" fill="#228833"/><circle cx="559.7" cy="106.1" r="2" fill="#228833"/><circle cx="570.0" cy="96.7" r="2" fill="#228833"/><rect x="580" y="64" width="10" height="10" fill="#228833"/><text x="594" y="73" font-size="10" fill="#444">chain-200</text><path d="M64.0,196.8 L74.3,199.3 L84.7,194.9 L95.0,192.2 L105.3,206.3 L115.6,196.5 L126.0,192.7 L136.3,193.7 L146.6,193.3 L156.9,196.0 L167.3,201.1 L177.6,193.8 L187.9,192.0 L198.2,198.6 L208.6,199.4 L218.9,195.8 L229.2,196.2 L239.6,196.6 L249.9,195.8 L260.2,194.5 L270.5,194.2 L280.9,185.2 L291.2,186.5 L301.5,186.4 L311.8,182.8 L322.2,125.4 L332.5,123.5 L342.8,121.5 L353.1,126.9 L363.5,124.6 L373.8,121.7 L384.1,124.7 L394.4,128.2 L404.8,127.9 L415.1,119.2 L425.4,134.5 L435.8,122.5 L446.1,122.5 L456.4,124.0 L466.7,119.5 L477.1,127.4 L487.4,123.5 L497.7,122.8 L508.0,123.7 L518.4,128.6 L528.7,124.9 L539.0,120.0 L549.3,128.0 L559.7,120.9 L570.0,128.8" fill="none" stroke="#CCBB44" stroke-width="1.6"/><circle cx="64.0" cy="196.8" r="2" fill="#CCBB44"/><circle cx="74.3" cy="199.3" r="2" fill="#CCBB44"/><circle cx="84.7" cy="194.9" r="2" fill="#CCBB44"/><circle cx="95.0" cy="192.2" r="2" fill="#CCBB44"/><circle cx="105.3" cy="206.3" r="2" fill="#CCBB44"/><circle cx="115.6" cy="196.5" r="2" fill="#CCBB44"/><circle cx="126.0" cy="192.7" r="2" fill="#CCBB44"/><circle cx="136.3" cy="193.7" r="2" fill="#CCBB44"/><circle cx="146.6" cy="193.3" r="2" fill="#CCBB44"/><circle cx="156.9" cy="196.0" r="2" fill="#CCBB44"/><circle cx="167.3" cy="201.1" r="2" fill="#CCBB44"/><circle cx="177.6" cy="193.8" r="2" fill="#CCBB44"/><circle cx="187.9" cy="192.0" r="2" fill="#CCBB44"/><circle cx="198.2" cy="198.6" r="2" fill="#CCBB44"/><circle cx="208.6" cy="199.4" r="2" fill="#CCBB44"/><circle cx="218.9" cy="195.8" r="2" fill="#CCBB44"/><circle cx="229.2" cy="196.2" r="2" fill="#CCBB44"/><circle cx="239.6" cy="196.6" r="2" fill="#CCBB44"/><circle cx="249.9" cy="195.8" r="2" fill="#CCBB44"/><circle cx="260.2" cy="194.5" r="2" fill="#CCBB44"/><circle cx="270.5" cy="194.2" r="2" fill="#CCBB44"/><circle cx="280.9" cy="185.2" r="2" fill="#CCBB44"/><circle cx="291.2" cy="186.5" r="2" fill="#CCBB44"/><circle cx="301.5" cy="186.4" r="2" fill="#CCBB44"/><circle cx="311.8" cy="182.8" r="2" fill="#CCBB44"/><circle cx="322.2" cy="125.4" r="2" fill="#CCBB44"/><circle cx="332.5" cy="123.5" r="2" fill="#CCBB44"/><circle cx="342.8" cy="121.5" r="2" fill="#CCBB44"/><circle cx="353.1" cy="126.9" r="2" fill="#CCBB44"/><circle cx="363.5" cy="124.6" r="2" fill="#CCBB44"/><circle cx="373.8" cy="121.7" r="2" fill="#CCBB44"/><circle cx="384.1" cy="124.7" r="2" fill="#CCBB44"/><circle cx="394.4" cy="128.2" r="2" fill="#CCBB44"/><circle cx="404.8" cy="127.9" r="2" fill="#CCBB44"/><circle cx="415.1" cy="119.2" r="2" fill="#CCBB44"/><circle cx="425.4" cy="134.5" r="2" fill="#CCBB44"/><circle cx="435.8" cy="122.5" r="2" fill="#CCBB44"/><circle cx="446.1" cy="122.5" r="2" fill="#CCBB44"/><circle cx="456.4" cy="124.0" r="2" fill="#CCBB44"/><circle cx="466.7" cy="119.5" r="2" fill="#CCBB44"/><circle cx="477.1" cy="127.4" r="2" fill="#CCBB44"/><circle cx="487.4" cy="123.5" r="2" fill="#CCBB44"/><circle cx="497.7" cy="122.8" r="2" fill="#CCBB44"/><circle cx="508.0" cy="123.7" r="2" fill="#CCBB44"/><circle cx="518.4" cy="128.6" r="2" fill="#CCBB44"/><circle cx="528.7" cy="124.9" r="2" fill="#CCBB44"/><circle cx="539.0" cy="120.0" r="2" fill="#CCBB44"/><circle cx="549.3" cy="128.0" r="2" fill="#CCBB44"/><circle cx="559.7" cy="120.9" r="2" fill="#CCBB44"/><circle cx="570.0" cy="128.8" r="2" fill="#CCBB44"/><rect x="580" y="79" width="10" height="10" fill="#CCBB44"/><text x="594" y="88" font-size="10" fill="#444">chain-1000</text><path d="M64.0,161.8 L74.3,168.2 L84.7,168.5 L95.0,165.5 L105.3,177.3 L115.6,155.7 L126.0,159.9 L136.3,160.5 L146.6,162.5 L156.9,165.4 L167.3,160.5 L177.6,169.5 L187.9,165.9 L198.2,153.6 L208.6,165.4 L218.9,160.8 L229.2,167.8 L239.6,164.4 L249.9,156.7 L260.2,163.4 L270.5,171.8 L280.9,156.6 L291.2,156.0 L301.5,157.9 L311.8,152.5 L322.2,72.7 L332.5,81.8 L342.8,79.7 L353.1,78.0 L363.5,84.2 L373.8,74.9 L384.1,79.2 L394.4,81.9 L404.8,71.0 L415.1,79.4 L425.4,70.9 L435.8,90.9 L446.1,83.6 L456.4,81.2 L466.7,82.4 L477.1,71.0 L487.4,78.5 L497.7,81.8 L508.0,88.0 L518.4,82.1 L528.7,77.0 L539.0,86.1 L549.3,85.3 L559.7,75.8 L570.0,82.3" fill="none" stroke="#66CCEE" stroke-width="1.6"/><circle cx="64.0" cy="161.8" r="2" fill="#66CCEE"/><circle cx="74.3" cy="168.2" r="2" fill="#66CCEE"/><circle cx="84.7" cy="168.5" r="2" fill="#66CCEE"/><circle cx="95.0" cy="165.5" r="2" fill="#66CCEE"/><circle cx="105.3" cy="177.3" r="2" fill="#66CCEE"/><circle cx="115.6" cy="155.7" r="2" fill="#66CCEE"/><circle cx="126.0" cy="159.9" r="2" fill="#66CCEE"/><circle cx="136.3" cy="160.5" r="2" fill="#66CCEE"/><circle cx="146.6" cy="162.5" r="2" fill="#66CCEE"/><circle cx="156.9" cy="165.4" r="2" fill="#66CCEE"/><circle cx="167.3" cy="160.5" r="2" fill="#66CCEE"/><circle cx="177.6" cy="169.5" r="2" fill="#66CCEE"/><circle cx="187.9" cy="165.9" r="2" fill="#66CCEE"/><circle cx="198.2" cy="153.6" r="2" fill="#66CCEE"/><circle cx="208.6" cy="165.4" r="2" fill="#66CCEE"/><circle cx="218.9" cy="160.8" r="2" fill="#66CCEE"/><circle cx="229.2" cy="167.8" r="2" fill="#66CCEE"/><circle cx="239.6" cy="164.4" r="2" fill="#66CCEE"/><circle cx="249.9" cy="156.7" r="2" fill="#66CCEE"/><circle cx="260.2" cy="163.4" r="2" fill="#66CCEE"/><circle cx="270.5" cy="171.8" r="2" fill="#66CCEE"/><circle cx="280.9" cy="156.6" r="2" fill="#66CCEE"/><circle cx="291.2" cy="156.0" r="2" fill="#66CCEE"/><circle cx="301.5" cy="157.9" r="2" fill="#66CCEE"/><circle cx="311.8" cy="152.5" r="2" fill="#66CCEE"/><circle cx="322.2" cy="72.7" r="2" fill="#66CCEE"/><circle cx="332.5" cy="81.8" r="2" fill="#66CCEE"/><circle cx="342.8" cy="79.7" r="2" fill="#66CCEE"/><circle cx="353.1" cy="78.0" r="2" fill="#66CCEE"/><circle cx="363.5" cy="84.2" r="2" fill="#66CCEE"/><circle cx="373.8" cy="74.9" r="2" fill="#66CCEE"/><circle cx="384.1" cy="79.2" r="2" fill="#66CCEE"/><circle cx="394.4" cy="81.9" r="2" fill="#66CCEE"/><circle cx="404.8" cy="71.0" r="2" fill="#66CCEE"/><circle cx="415.1" cy="79.4" r="2" fill="#66CCEE"/><circle cx="425.4" cy="70.9" r="2" fill="#66CCEE"/><circle cx="435.8" cy="90.9" r="2" fill="#66CCEE"/><circle cx="446.1" cy="83.6" r="2" fill="#66CCEE"/><circle cx="456.4" cy="81.2" r="2" fill="#66CCEE"/><circle cx="466.7" cy="82.4" r="2" fill="#66CCEE"/><circle cx="477.1" cy="71.0" r="2" fill="#66CCEE"/><circle cx="487.4" cy="78.5" r="2" fill="#66CCEE"/><circle cx="497.7" cy="81.8" r="2" fill="#66CCEE"/><circle cx="508.0" cy="88.0" r="2" fill="#66CCEE"/><circle cx="518.4" cy="82.1" r="2" fill="#66CCEE"/><circle cx="528.7" cy="77.0" r="2" fill="#66CCEE"/><circle cx="539.0" cy="86.1" r="2" fill="#66CCEE"/><circle cx="549.3" cy="85.3" r="2" fill="#66CCEE"/><circle cx="559.7" cy="75.8" r="2" fill="#66CCEE"/><circle cx="570.0" cy="82.3" r="2" fill="#66CCEE"/><rect x="580" y="94" width="10" height="10" fill="#66CCEE"/><text x="594" y="103" font-size="10" fill="#444">dense-10</text><path d="M64.0,193.9 L74.3,200.1 L84.7,186.4 L95.0,188.1 L105.3,193.4 L115.6,193.1 L126.0,184.5 L136.3,189.1 L146.6,188.2 L156.9,190.3 L167.3,194.3 L177.6,187.9 L187.9,190.8 L198.2,185.9 L208.6,201.5 L218.9,188.1 L229.2,189.5 L239.6,186.8 L249.9,188.9 L260.2,192.1 L270.5,191.7 L280.9,179.3 L291.2,185.5 L301.5,185.6 L311.8,183.1 L322.2,110.9 L332.5,126.1 L342.8,115.1 L353.1,116.0 L363.5,122.0 L373.8,119.3 L384.1,118.5 L394.4,118.7 L404.8,115.4 L415.1,120.2 L425.4,117.7 L435.8,117.5 L446.1,122.8 L456.4,127.3 L466.7,119.3 L477.1,125.6 L487.4,117.2 L497.7,120.9 L508.0,118.3 L518.4,123.3 L528.7,123.2 L539.0,133.8 L549.3,137.8 L559.7,130.1 L570.0,124.7" fill="none" stroke="#AA3377" stroke-width="1.6"/><circle cx="64.0" cy="193.9" r="2" fill="#AA3377"/><circle cx="74.3" cy="200.1" r="2" fill="#AA3377"/><circle cx="84.7" cy="186.4" r="2" fill="#AA3377"/><circle cx="95.0" cy="188.1" r="2" fill="#AA3377"/><circle cx="105.3" cy="193.4" r="2" fill="#AA3377"/><circle cx="115.6" cy="193.1" r="2" fill="#AA3377"/><circle cx="126.0" cy="184.5" r="2" fill="#AA3377"/><circle cx="136.3" cy="189.1" r="2" fill="#AA3377"/><circle cx="146.6" cy="188.2" r="2" fill="#AA3377"/><circle cx="156.9" cy="190.3" r="2" fill="#AA3377"/><circle cx="167.3" cy="194.3" r="2" fill="#AA3377"/><circle cx="177.6" cy="187.9" r="2" fill="#AA3377"/><circle cx="187.9" cy="190.8" r="2" fill="#AA3377"/><circle cx="198.2" cy="185.9" r="2" fill="#AA3377"/><circle cx="208.6" cy="201.5" r="2" fill="#AA3377"/><circle cx="218.9" cy="188.1" r="2" fill="#AA3377"/><circle cx="229.2" cy="189.5" r="2" fill="#AA3377"/><circle cx="239.6" cy="186.8" r="2" fill="#AA3377"/><circle cx="249.9" cy="188.9" r="2" fill="#AA3377"/><circle cx="260.2" cy="192.1" r="2" fill="#AA3377"/><circle cx="270.5" cy="191.7" r="2" fill="#AA3377"/><circle cx="280.9" cy="179.3" r="2" fill="#AA3377"/><circle cx="291.2" cy="185.5" r="2" fill="#AA3377"/><circle cx="301.5" cy="185.6" r="2" fill="#AA3377"/><circle cx="311.8" cy="183.1" r="2" fill="#AA3377"/><circle cx="322.2" cy="110.9" r="2" fill="#AA3377"/><circle cx="332.5" cy="126.1" r="2" fill="#AA3377"/><circle cx="342.8" cy="115.1" r="2" fill="#AA3377"/><circle cx="353.1" cy="116.0" r="2" fill="#AA3377"/><circle cx="363.5" cy="122.0" r="2" fill="#AA3377"/><circle cx="373.8" cy="119.3" r="2" fill="#AA3377"/><circle cx="384.1" cy="118.5" r="2" fill="#AA3377"/><circle cx="394.4" cy="118.7" r="2" fill="#AA3377"/><circle cx="404.8" cy="115.4" r="2" fill="#AA3377"/><circle cx="415.1" cy="120.2" r="2" fill="#AA3377"/><circle cx="425.4" cy="117.7" r="2" fill="#AA3377"/><circle cx="435.8" cy="117.5" r="2" fill="#AA3377"/><circle cx="446.1" cy="122.8" r="2" fill="#AA3377"/><circle cx="456.4" cy="127.3" r="2" fill="#AA3377"/><circle cx="466.7" cy="119.3" r="2" fill="#AA3377"/><circle cx="477.1" cy="125.6" r="2" fill="#AA3377"/><circle cx="487.4" cy="117.2" r="2" fill="#AA3377"/><circle cx="497.7" cy="120.9" r="2" fill="#AA3377"/><circle cx="508.0" cy="118.3" r="2" fill="#AA3377"/><circle cx="518.4" cy="123.3" r="2" fill="#AA3377"/><circle cx="528.7" cy="123.2" r="2" fill="#AA3377"/><circle cx="539.0" cy="133.8" r="2" fill="#AA3377"/><circle cx="549.3" cy="137.8" r="2" fill="#AA3377"/><circle cx="559.7" cy="130.1" r="2" fill="#AA3377"/><circle cx="570.0" cy="124.7" r="2" fill="#AA3377"/><rect x="580" y="109" width="10" height="10" fill="#AA3377"/><text x="594" y="118" font-size="10" fill="#444">dense-50</text><path d="M64.0,241.4 L74.3,240.3 L84.7,240.6 L95.0,242.1 L105.3,239.8 L115.6,242.1 L126.0,238.1 L136.3,241.6 L146.6,238.2 L156.9,240.2 L167.3,241.5 L177.6,239.4 L187.9,238.4 L198.2,239.1 L208.6,242.2 L218.9,243.7 L229.2,240.5 L239.6,242.0 L249.9,241.9 L260.2,239.2 L270.5,241.5 L280.9,229.9 L291.2,233.2 L301.5,237.0 L311.8,235.9 L322.2,175.0 L332.5,173.9 L342.8,176.1 L353.1,174.9 L363.5,176.2 L373.8,173.9 L384.1,178.7 L394.4,177.2 L404.8,174.0 L415.1,174.5 L425.4,177.1 L435.8,178.3 L446.1,177.7 L456.4,175.8 L466.7,175.1 L477.1,177.7 L487.4,181.8 L497.7,178.5 L508.0,176.2 L518.4,180.5 L528.7,177.0 L539.0,179.4 L549.3,177.6 L559.7,177.8 L570.0,174.7" fill="none" stroke="#BBBBBB" stroke-width="1.6"/><circle cx="64.0" cy="241.4" r="2" fill="#BBBBBB"/><circle cx="74.3" cy="240.3" r="2" fill="#BBBBBB"/><circle cx="84.7" cy="240.6" r="2" fill="#BBBBBB"/><circle cx="95.0" cy="242.1" r="2" fill="#BBBBBB"/><circle cx="105.3" cy="239.8" r="2" fill="#BBBBBB"/><circle cx="115.6" cy="242.1" r="2" fill="#BBBBBB"/><circle cx="126.0" cy="238.1" r="2" fill="#BBBBBB"/><circle cx="136.3" cy="241.6" r="2" fill="#BBBBBB"/><circle cx="146.6" cy="238.2" r="2" fill="#BBBBBB"/><circle cx="156.9" cy="240.2" r="2" fill="#BBBBBB"/><circle cx="167.3" cy="241.5" r="2" fill="#BBBBBB"/><circle cx="177.6" cy="239.4" r="2" fill="#BBBBBB"/><circle cx="187.9" cy="238.4" r="2" fill="#BBBBBB"/><circle cx="198.2" cy="239.1" r="2" fill="#BBBBBB"/><circle cx="208.6" cy="242.2" r="2" fill="#BBBBBB"/><circle cx="218.9" cy="243.7" r="2" fill="#BBBBBB"/><circle cx="229.2" cy="240.5" r="2" fill="#BBBBBB"/><circle cx="239.6" cy="242.0" r="2" fill="#BBBBBB"/><circle cx="249.9" cy="241.9" r="2" fill="#BBBBBB"/><circle cx="260.2" cy="239.2" r="2" fill="#BBBBBB"/><circle cx="270.5" cy="241.5" r="2" fill="#BBBBBB"/><circle cx="280.9" cy="229.9" r="2" fill="#BBBBBB"/><circle cx="291.2" cy="233.2" r="2" fill="#BBBBBB"/><circle cx="301.5" cy="237.0" r="2" fill="#BBBBBB"/><circle cx="311.8" cy="235.9" r="2" fill="#BBBBBB"/><circle cx="322.2" cy="175.0" r="2" fill="#BBBBBB"/><circle cx="332.5" cy="173.9" r="2" fill="#BBBBBB"/><circle cx="342.8" cy="176.1" r="2" fill="#BBBBBB"/><circle cx="353.1" cy="174.9" r="2" fill="#BBBBBB"/><circle cx="363.5" cy="176.2" r="2" fill="#BBBBBB"/><circle cx="373.8" cy="173.9" r="2" fill="#BBBBBB"/><circle cx="384.1" cy="178.7" r="2" fill="#BBBBBB"/><circle cx="394.4" cy="177.2" r="2" fill="#BBBBBB"/><circle cx="404.8" cy="174.0" r="2" fill="#BBBBBB"/><circle cx="415.1" cy="174.5" r="2" fill="#BBBBBB"/><circle cx="425.4" cy="177.1" r="2" fill="#BBBBBB"/><circle cx="435.8" cy="178.3" r="2" fill="#BBBBBB"/><circle cx="446.1" cy="177.7" r="2" fill="#BBBBBB"/><circle cx="456.4" cy="175.8" r="2" fill="#BBBBBB"/><circle cx="466.7" cy="175.1" r="2" fill="#BBBBBB"/><circle cx="477.1" cy="177.7" r="2" fill="#BBBBBB"/><circle cx="487.4" cy="181.8" r="2" fill="#BBBBBB"/><circle cx="497.7" cy="178.5" r="2" fill="#BBBBBB"/><circle cx="508.0" cy="176.2" r="2" fill="#BBBBBB"/><circle cx="518.4" cy="180.5" r="2" fill="#BBBBBB"/><circle cx="528.7" cy="177.0" r="2" fill="#BBBBBB"/><circle cx="539.0" cy="179.4" r="2" fill="#BBBBBB"/><circle cx="549.3" cy="177.6" r="2" fill="#BBBBBB"/><circle cx="559.7" cy="177.8" r="2" fill="#BBBBBB"/><circle cx="570.0" cy="174.7" r="2" fill="#BBBBBB"/><rect x="580" y="124" width="10" height="10" fill="#BBBBBB"/><text x="594" y="133" font-size="10" fill="#444">dense-200</text><path d="M64.0,159.4 L74.3,165.3 L84.7,166.2 L95.0,166.3 L105.3,162.8 L115.6,162.2 L126.0,159.4 L136.3,163.3 L146.6,164.3 L156.9,166.6 L167.3,162.5 L177.6,163.1 L187.9,163.9 L198.2,161.4 L208.6,169.3 L218.9,162.0 L229.2,163.9 L239.6,162.2 L249.9,164.6 L260.2,163.7 L270.5,158.7 L280.9,143.8 L291.2,146.5 L301.5,148.3 L311.8,140.9 L322.2,63.1 L332.5,62.0 L342.8,66.5 L353.1,65.8 L363.5,69.9 L373.8,63.7 L384.1,65.9 L394.4,64.7 L404.8,64.6 L415.1,58.2 L425.4,71.7 L435.8,70.4 L446.1,68.5 L456.4,65.9 L466.7,64.6 L477.1,62.1 L487.4,68.6 L497.7,61.5 L508.0,68.6 L518.4,59.9 L528.7,63.5 L539.0,59.3 L549.3,59.0 L559.7,66.3 L570.0,60.7" fill="none" stroke="#222255" stroke-width="1.6"/><circle cx="64.0" cy="159.4" r="2" fill="#222255"/><circle cx="74.3" cy="165.3" r="2" fill="#222255"/><circle cx="84.7" cy="166.2" r="2" fill="#222255"/><circle cx="95.0" cy="166.3" r="2" fill="#222255"/><circle cx="105.3" cy="162.8" r="2" fill="#222255"/><circle cx="115.6" cy="162.2" r="2" fill="#222255"/><circle cx="126.0" cy="159.4" r="2" fill="#222255"/><circle cx="136.3" cy="163.3" r="2" fill="#222255"/><circle cx="146.6" cy="164.3" r="2" fill="#222255"/><circle cx="156.9" cy="166.6" r="2" fill="#222255"/><circle cx="167.3" cy="162.5" r="2" fill="#222255"/><circle cx="177.6" cy="163.1" r="2" fill="#222255"/><circle cx="187.9" cy="163.9" r="2" fill="#222255"/><circle cx="198.2" cy="161.4" r="2" fill="#222255"/><circle cx="208.6" cy="169.3" r="2" fill="#222255"/><circle cx="218.9" cy="162.0" r="2" fill="#222255"/><circle cx="229.2" cy="163.9" r="2" fill="#222255"/><circle cx="239.6" cy="162.2" r="2" fill="#222255"/><circle cx="249.9" cy="164.6" r="2" fill="#222255"/><circle cx="260.2" cy="163.7" r="2" fill="#222255"/><circle cx="270.5" cy="158.7" r="2" fill="#222255"/><circle cx="280.9" cy="143.8" r="2" fill="#222255"/><circle cx="291.2" cy="146.5" r="2" fill="#222255"/><circle cx="301.5" cy="148.3" r="2" fill="#222255"/><circle cx="311.8" cy="140.9" r="2" fill="#222255"/><circle cx="322.2" cy="63.1" r="2" fill="#222255"/><circle cx="332.5" cy="62.0" r="2" fill="#222255"/><circle cx="342.8" cy="66.5" r="2" fill="#222255"/><circle cx="353.1" cy="65.8" r="2" fill="#222255"/><circle cx="363.5" cy="69.9" r="2" fill="#222255"/><circle cx="373.8" cy="63.7" r="2" fill="#222255"/><circle cx="384.1" cy="65.9" r="2" fill="#222255"/><circle cx="394.4" cy="64.7" r="2" fill="#222255"/><circle cx="404.8" cy="64.6" r="2" fill="#222255"/><circle cx="415.1" cy="58.2" r="2" fill="#222255"/><circle cx="425.4" cy="71.7" r="2" fill="#222255"/><circle cx="435.8" cy="70.4" r="2" fill="#222255"/><circle cx="446.1" cy="68.5" r="2" fill="#222255"/><circle cx="456.4" cy="65.9" r="2" fill="#222255"/><circle cx="466.7" cy="64.6" r="2" fill="#222255"/><circle cx="477.1" cy="62.1" r="2" fill="#222255"/><circle cx="487.4" cy="68.6" r="2" fill="#222255"/><circle cx="497.7" cy="61.5" r="2" fill="#222255"/><circle cx="508.0" cy="68.6" r="2" fill="#222255"/><circle cx="518.4" cy="59.9" r="2" fill="#222255"/><circle cx="528.7" cy="63.5" r="2" fill="#222255"/><circle cx="539.0" cy="59.3" r="2" fill="#222255"/><circle cx="549.3" cy="59.0" r="2" fill="#222255"/><circle cx="559.7" cy="66.3" r="2" fill="#222255"/><circle cx="570.0" cy="60.7" r="2" fill="#222255"/><rect x="580" y="139" width="10" height="10" fill="#222255"/><text x="594" y="148" font-size="10" fill="#444">hub-50</text><path d="M64.0,171.9 L74.3,170.0 L84.7,170.2 L95.0,168.0 L105.3,170.6 L115.6,169.7 L126.0,167.7 L136.3,170.5 L146.6,169.8 L156.9,168.3 L167.3,168.7 L177.6,170.9 L187.9,168.8 L198.2,170.0 L208.6,173.0 L218.9,172.6 L229.2,171.2 L239.6,170.2 L249.9,171.8 L260.2,168.3 L270.5,172.8 L280.9,156.2 L291.2,152.4 L301.5,152.2 L311.8,150.1 L322.2,71.6 L332.5,66.5 L342.8,68.2 L353.1,70.1 L363.5,68.9 L373.8,74.1 L384.1,69.6 L394.4,66.6 L404.8,64.7 L415.1,68.3 L425.4,68.2 L435.8,67.4 L446.1,69.1 L456.4,64.8 L466.7,67.5 L477.1,70.2 L487.4,70.7 L497.7,65.7 L508.0,71.9 L518.4,66.6 L528.7,63.4 L539.0,64.5 L549.3,65.9 L559.7,68.1 L570.0,69.3" fill="none" stroke="#225555" stroke-width="1.6"/><circle cx="64.0" cy="171.9" r="2" fill="#225555"/><circle cx="74.3" cy="170.0" r="2" fill="#225555"/><circle cx="84.7" cy="170.2" r="2" fill="#225555"/><circle cx="95.0" cy="168.0" r="2" fill="#225555"/><circle cx="105.3" cy="170.6" r="2" fill="#225555"/><circle cx="115.6" cy="169.7" r="2" fill="#225555"/><circle cx="126.0" cy="167.7" r="2" fill="#225555"/><circle cx="136.3" cy="170.5" r="2" fill="#225555"/><circle cx="146.6" cy="169.8" r="2" fill="#225555"/><circle cx="156.9" cy="168.3" r="2" fill="#225555"/><circle cx="167.3" cy="168.7" r="2" fill="#225555"/><circle cx="177.6" cy="170.9" r="2" fill="#225555"/><circle cx="187.9" cy="168.8" r="2" fill="#225555"/><circle cx="198.2" cy="170.0" r="2" fill="#225555"/><circle cx="208.6" cy="173.0" r="2" fill="#225555"/><circle cx="218.9" cy="172.6" r="2" fill="#225555"/><circle cx="229.2" cy="171.2" r="2" fill="#225555"/><circle cx="239.6" cy="170.2" r="2" fill="#225555"/><circle cx="249.9" cy="171.8" r="2" fill="#225555"/><circle cx="260.2" cy="168.3" r="2" fill="#225555"/><circle cx="270.5" cy="172.8" r="2" fill="#225555"/><circle cx="280.9" cy="156.2" r="2" fill="#225555"/><circle cx="291.2" cy="152.4" r="2" fill="#225555"/><circle cx="301.5" cy="152.2" r="2" fill="#225555"/><circle cx="311.8" cy="150.1" r="2" fill="#225555"/><circle cx="322.2" cy="71.6" r="2" fill="#225555"/><circle cx="332.5" cy="66.5" r="2" fill="#225555"/><circle cx="342.8" cy="68.2" r="2" fill="#225555"/><circle cx="353.1" cy="70.1" r="2" fill="#225555"/><circle cx="363.5" cy="68.9" r="2" fill="#225555"/><circle cx="373.8" cy="74.1" r="2" fill="#225555"/><circle cx="384.1" cy="69.6" r="2" fill="#225555"/><circle cx="394.4" cy="66.6" r="2" fill="#225555"/><circle cx="404.8" cy="64.7" r="2" fill="#225555"/><circle cx="415.1" cy="68.3" r="2" fill="#225555"/><circle cx="425.4" cy="68.2" r="2" fill="#225555"/><circle cx="435.8" cy="67.4" r="2" fill="#225555"/><circle cx="446.1" cy="69.1" r="2" fill="#225555"/><circle cx="456.4" cy="64.8" r="2" fill="#225555"/><circle cx="466.7" cy="67.5" r="2" fill="#225555"/><circle cx="477.1" cy="70.2" r="2" fill="#225555"/><circle cx="487.4" cy="70.7" r="2" fill="#225555"/><circle cx="497.7" cy="65.7" r="2" fill="#225555"/><circle cx="508.0" cy="71.9" r="2" fill="#225555"/><circle cx="518.4" cy="66.6" r="2" fill="#225555"/><circle cx="528.7" cy="63.4" r="2" fill="#225555"/><circle cx="539.0" cy="64.5" r="2" fill="#225555"/><circle cx="549.3" cy="65.9" r="2" fill="#225555"/><circle cx="559.7" cy="68.1" r="2" fill="#225555"/><circle cx="570.0" cy="69.3" r="2" fill="#225555"/><rect x="580" y="154" width="10" height="10" fill="#225555"/><text x="594" y="163" font-size="10" fill="#444">hub-200</text><path d="M64.0,298.2 L74.3,299.8 L84.7,298.1 L95.0,298.2 L105.3,298.3 L115.6,298.0 L126.0,297.7 L136.3,298.7 L146.6,298.5 L156.9,296.8 L167.3,298.1 L177.6,299.0 L187.9,297.5 L198.2,298.5 L208.6,297.8 L218.9,299.6 L229.2,298.2 L239.6,297.6 L249.9,297.3 L260.2,298.3 L270.5,298.1 L280.9,283.8 L291.2,281.4 L301.5,279.9 L311.8,284.0 L322.2,258.3 L332.5,257.7 L342.8,257.0 L353.1,255.9 L363.5,256.0 L373.8,256.2 L384.1,257.4 L394.4,255.7 L404.8,259.1 L415.1,257.0 L425.4,257.3 L435.8,254.4 L446.1,257.1 L456.4,257.9 L466.7,257.3 L477.1,257.8 L487.4,259.9 L497.7,256.4 L508.0,257.2 L518.4,258.7 L528.7,257.4 L539.0,256.4 L549.3,255.9 L559.7,257.7 L570.0,254.5" fill="none" stroke="#552222" stroke-width="1.6"/><circle cx="64.0" cy="298.2" r="2" fill="#552222"/><circle cx="74.3" cy="299.8" r="2" fill="#552222"/><circle cx="84.7" cy="298.1" r="2" fill="#552222"/><circle cx="95.0" cy="298.2" r="2" fill="#552222"/><circle cx="105.3" cy="298.3" r="2" fill="#552222"/><circle cx="115.6" cy="298.0" r="2" fill="#552222"/><circle cx="126.0" cy="297.7" r="2" fill="#552222"/><circle cx="136.3" cy="298.7" r="2" fill="#552222"/><circle cx="146.6" cy="298.5" r="2" fill="#552222"/><circle cx="156.9" cy="296.8" r="2" fill="#552222"/><circle cx="167.3" cy="298.1" r="2" fill="#552222"/><circle cx="177.6" cy="299.0" r="2" fill="#552222"/><circle cx="187.9" cy="297.5" r="2" fill="#552222"/><circle cx="198.2" cy="298.5" r="2" fill="#552222"/><circle cx="208.6" cy="297.8" r="2" fill="#552222"/><circle cx="218.9" cy="299.6" r="2" fill="#552222"/><circle cx="229.2" cy="298.2" r="2" fill="#552222"/><circle cx="239.6" cy="297.6" r="2" fill="#552222"/><circle cx="249.9" cy="297.3" r="2" fill="#552222"/><circle cx="260.2" cy="298.3" r="2" fill="#552222"/><circle cx="270.5" cy="298.1" r="2" fill="#552222"/><circle cx="280.9" cy="283.8" r="2" fill="#552222"/><circle cx="291.2" cy="281.4" r="2" fill="#552222"/><circle cx="301.5" cy="279.9" r="2" fill="#552222"/><circle cx="311.8" cy="284.0" r="2" fill="#552222"/><circle cx="322.2" cy="258.3" r="2" fill="#552222"/><circle cx="332.5" cy="257.7" r="2" fill="#552222"/><circle cx="342.8" cy="257.0" r="2" fill="#552222"/><circle cx="353.1" cy="255.9" r="2" fill="#552222"/><circle cx="363.5" cy="256.0" r="2" fill="#552222"/><circle cx="373.8" cy="256.2" r="2" fill="#552222"/><circle cx="384.1" cy="257.4" r="2" fill="#552222"/><circle cx="394.4" cy="255.7" r="2" fill="#552222"/><circle cx="404.8" cy="259.1" r="2" fill="#552222"/><circle cx="415.1" cy="257.0" r="2" fill="#552222"/><circle cx="425.4" cy="257.3" r="2" fill="#552222"/><circle cx="435.8" cy="254.4" r="2" fill="#552222"/><circle cx="446.1" cy="257.1" r="2" fill="#552222"/><circle cx="456.4" cy="257.9" r="2" fill="#552222"/><circle cx="466.7" cy="257.3" r="2" fill="#552222"/><circle cx="477.1" cy="257.8" r="2" fill="#552222"/><circle cx="487.4" cy="259.9" r="2" fill="#552222"/><circle cx="497.7" cy="256.4" r="2" fill="#552222"/><circle cx="508.0" cy="257.2" r="2" fill="#552222"/><circle cx="518.4" cy="258.7" r="2" fill="#552222"/><circle cx="528.7" cy="257.4" r="2" fill="#552222"/><circle cx="539.0" cy="256.4" r="2" fill="#552222"/><circle cx="549.3" cy="255.9" r="2" fill="#552222"/><circle cx="559.7" cy="257.7" r="2" fill="#552222"/><circle cx="570.0" cy="254.5" r="2" fill="#552222"/><rect x="580" y="169" width="10" height="10" fill="#552222"/><text x="594" y="178" font-size="10" fill="#444">hooked-200</text></svg>