<svg width="720" height="372" xmlns="http://www.w3.org/2000/svg"><rect width="720" height="372" fill="#ffffff"/><text x="64" y="20" font-size="15" font-weight="bold" fill="#333">list_exit_actions() — ops/sec (linear scale, last 50) by PR / release, c8g.medium</text><line x1="74.3" y1="34" x2="74.3" y2="324" stroke="#e8e8e8"/><line x1="84.7" y1="34" x2="84.7" y2="324" stroke="#e8e8e8"/><line x1="95.0" y1="34" x2="95.0" y2="324" stroke="#e8e8e8"/><line x1="105.3" y1="34" x2="105.3" y2="324" stroke="#e8e8e8"/><line x1="126.0" y1="34" x2="126.0" y2="324" stroke="#e8e8e8"/><line x1="136.3" y1="34" x2="136.3" y2="324" stroke="#e8e8e8"/><line x1="146.6" y1="34" x2="146.6" y2="324" stroke="#e8e8e8"/><line x1="156.9" y1="34" x2="156.9" y2="324" stroke="#e8e8e8"/><line x1="177.6" y1="34" x2="177.6" y2="324" stroke="#e8e8e8"/><line x1="187.9" y1="34" x2="187.9" y2="324" stroke="#e8e8e8"/><line x1="198.2" y1="34" x2="198.2" y2="324" stroke="#e8e8e8"/><line x1="208.6" y1="34" x2="208.6" y2="324" stroke="#e8e8e8"/><line x1="229.2" y1="34" x2="229.2" y2="324" stroke="#e8e8e8"/><line x1="239.6" y1="34" x2="239.6" y2="324" stroke="#e8e8e8"/><line x1="249.9" y1="34" x2="249.9" y2="324" stroke="#e8e8e8"/><line x1="260.2" y1="34" x2="260.2" y2="324" stroke="#e8e8e8"/><line x1="280.9" y1="34" x2="280.9" y2="324" stroke="#e8e8e8"/><line x1="291.2" y1="34" x2="291.2" y2="324" stroke="#e8e8e8"/><line x1="301.5" y1="34" x2="301.5" y2="324" stroke="#e8e8e8"/><line x1="311.8" y1="34" x2="311.8" y2="324" stroke="#e8e8e8"/><line x1="332.5" y1="34" x2="332.5" y2="324" stroke="#e8e8e8"/><line x1="342.8" y1="34" x2="342.8" y2="324" stroke="#e8e8e8"/><line x1="353.1" y1="34" x2="353.1" y2="324" stroke="#e8e8e8"/><line x1="363.5" y1="34" x2="363.5" y2="324" stroke="#e8e8e8"/><line x1="384.1" y1="34" x2="384.1" y2="324" stroke="#e8e8e8"/><line x1="394.4" y1="34" x2="394.4" y2="324" stroke="#e8e8e8"/><line x1="404.8" y1="34" x2="404.8" y2="324" stroke="#e8e8e8"/><line x1="415.1" y1="34" x2="415.1" y2="324" stroke="#e8e8e8"/><line x1="435.8" y1="34" x2="435.8" y2="324" stroke="#e8e8e8"/><line x1="446.1" y1="34" x2="446.1" y2="324" stroke="#e8e8e8"/><line x1="456.4" y1="34" x2="456.4" y2="324" stroke="#e8e8e8"/><line x1="466.7" y1="34" x2="466.7" y2="324" stroke="#e8e8e8"/><line x1="487.4" y1="34" x2="487.4" y2="324" stroke="#e8e8e8"/><line x1="497.7" y1="34" x2="497.7" y2="324" stroke="#e8e8e8"/><line x1="508.0" y1="34" x2="508.0" y2="324" stroke="#e8e8e8"/><line x1="518.4" y1="34" x2="518.4" y2="324" stroke="#e8e8e8"/><line x1="539.0" y1="34" x2="539.0" y2="324" stroke="#e8e8e8"/><line x1="549.3" y1="34" x2="549.3" y2="324" stroke="#e8e8e8"/><line x1="559.7" y1="34" x2="559.7" y2="324" stroke="#e8e8e8"/><line x1="570.0" y1="34" x2="570.0" y2="324" stroke="#e8e8e8"/><line x1="64.0" y1="34" x2="64.0" y2="324" stroke="#d0d0d0"/><line x1="115.6" y1="34" x2="115.6" y2="324" stroke="#d0d0d0"/><line x1="167.3" y1="34" x2="167.3" y2="324" stroke="#d0d0d0"/><line x1="218.9" y1="34" x2="218.9" y2="324" stroke="#d0d0d0"/><line x1="270.5" y1="34" x2="270.5" y2="324" stroke="#d0d0d0"/><line x1="322.2" y1="34" x2="322.2" y2="324" stroke="#d0d0d0"/><line x1="373.8" y1="34" x2="373.8" y2="324" stroke="#d0d0d0"/><line x1="425.4" y1="34" x2="425.4" y2="324" stroke="#d0d0d0"/><line x1="477.1" y1="34" x2="477.1" y2="324" stroke="#d0d0d0"/><line x1="528.7" y1="34" x2="528.7" y2="324" stroke="#d0d0d0"/><line x1="64" y1="324.0" x2="570" y2="324.0" stroke="#b0b0b0"/><text x="58" y="328.0" font-size="10" text-anchor="end" fill="#888">-10.8k</text><line x1="64" y1="266.0" x2="570" y2="266.0" stroke="#b0b0b0"/><text x="58" y="270.0" font-size="10" text-anchor="end" fill="#888">60.3k</text><line x1="64" y1="208.0" x2="570" y2="208.0" stroke="#b0b0b0"/><text x="58" y="212.0" font-size="10" text-anchor="end" fill="#888">131.4k</text><line x1="64" y1="150.0" x2="570" y2="150.0" stroke="#b0b0b0"/><text x="58" y="154.0" font-size="10" text-anchor="end" fill="#888">202.6k</text><line x1="64" y1="92.0" x2="570" y2="92.0" stroke="#b0b0b0"/><text x="58" y="96.0" font-size="10" text-anchor="end" fill="#888">273.7k</text><line x1="64" y1="34.0" x2="570" y2="34.0" stroke="#b0b0b0"/><text x="58" y="38.0" font-size="10" text-anchor="end" fill="#888">344.8k</text><text x="64.0" y="327.2" font-size="4" text-anchor="end" fill="#aa4400" transform="rotate(-80 64.0 327.2)">v5.147.8</text><text x="74.3" y="327.2" font-size="4" text-anchor="end" fill="#d6a382" transform="rotate(-80 74.3 327.2)">v5.147.9</text><text x="84.7" y="327.2" font-size="4" text-anchor="end" fill="#d6a382" transform="rotate(-80 84.7 327.2)">v5.147.10</text><text x="95.0" y="327.2" font-size="4" text-anchor="end" fill="#aa4400" transform="rotate(-80 95.0 327.2)">v5.148.0</text><text x="105.3" y="327.2" font-size="4" text-anchor="end" fill="#d6a382" transform="rotate(-80 105.3 327.2)">v5.148.1</text><text x="115.6" y="327.2" font-size="4" text-anchor="end" fill="#d6a382" transform="rotate(-80 115.6 327.2)">v5.148.2</text><text x="126.0" y="327.2" font-size="4" text-anchor="end" fill="#aa4400" transform="rotate(-80 126.0 327.2)">v5.149.1</text><text x="136.3" y="327.2" font-size="4" text-anchor="end" fill="#d6a382" transform="rotate(-80 136.3 327.2)">v5.149.2</text><text x="146.6" y="327.2" font-size="4" text-anchor="end" fill="#aa4400" transform="rotate(-80 146.6 327.2)">v5.150.0</text><text x="156.9" y="327.2" font-size="4" text-anchor="end" fill="#d6a382" transform="rotate(-80 156.9 327.2)">v5.150.1</text><text x="167.3" y="327.2" font-size="4" text-anchor="end" fill="#aa4400" transform="rotate(-80 167.3 327.2)">v5.151.0</text><text x="177.6" y="327.2" font-size="4" text-anchor="end" fill="#d6a382" transform="rotate(-80 177.6 327.2)">v5.151.1</text><text x="187.9" y="327.2" font-size="4" text-anchor="end" fill="#d6a382" transform="rotate(-80 187.9 327.2)">v5.151.2</text><text x="198.2" y="327.2" font-size="4" text-anchor="end" fill="#aa4400" transform="rotate(-80 198.2 327.2)">v5.152.0</text><text x="208.6" y="327.2" font-size="4" text-anchor="end" fill="#aa4400" transform="rotate(-80 208.6 327.2)">v5.153.0</text><text x="218.9" y="327.2" font-size="4" text-anchor="end" fill="#aa4400" transform="rotate(-80 218.9 327.2)">v5.154.0</text><text x="229.2" y="327.2" font-size="4" text-anchor="end" fill="#aa4400" transform="rotate(-80 229.2 327.2)">v5.155.0</text><text x="239.6" y="327.2" font-size="4" text-anchor="end" fill="#d6a382" transform="rotate(-80 239.6 327.2)">v5.155.1</text><text x="249.9" y="327.2" font-size="4" text-anchor="end" fill="#aa4400" transform="rotate(-80 249.9 327.2)">v5.156.0</text><text x="260.2" y="327.2" font-size="4" text-anchor="end" fill="#d6a382" transform="rotate(-80 260.2 327.2)">v5.156.1</text><text x="270.5" y="327.2" font-size="4" text-anchor="end" fill="#aa4400" transform="rotate(-80 270.5 327.2)">v5.157.0</text><text x="280.9" y="327.2" font-size="4" text-anchor="end" fill="#d6a382" transform="rotate(-80 280.9 327.2)">v5.157.1</text><text x="291.2" y="327.2" font-size="4" text-anchor="end" fill="#d6a382" transform="rotate(-80 291.2 327.2)">v5.157.2</text><text x="301.5" y="327.2" font-size="4" text-anchor="end" fill="#d6a382" transform="rotate(-80 301.5 327.2)">v5.157.3</text><text x="311.8" y="327.2" font-size="4" text-anchor="end" fill="#d6a382" transform="rotate(-80 311.8 327.2)">v5.157.4</text><text x="322.2" y="327.2" font-size="4" text-anchor="end" fill="#d6a382" transform="rotate(-80 322.2 327.2)">v5.157.5</text><text x="332.5" y="327.2" font-size="4" text-anchor="end" fill="#d6a382" transform="rotate(-80 332.5 327.2)">v5.157.6</text><text x="342.8" y="327.2" font-size="4" text-anchor="end" fill="#d6a382" transform="rotate(-80 342.8 327.2)">v5.157.7</text><text x="353.1" y="327.2" font-size="4" text-anchor="end" fill="#d6a382" transform="rotate(-80 353.1 327.2)">v5.157.8</text><text x="363.5" y="327.2" font-size="4" text-anchor="end" fill="#d6a382" transform="rotate(-80 363.5 327.2)">v5.157.9</text><text x="373.8" y="327.2" font-size="4" text-anchor="end" fill="#d6a382" transform="rotate(-80 373.8 327.2)">v5.157.10</text><text x="384.1" y="327.2" font-size="4" text-anchor="end" fill="#d6a382" transform="rotate(-80 384.1 327.2)">v5.157.11</text><text x="394.4" y="327.2" font-size="4" text-anchor="end" fill="#d6a382" transform="rotate(-80 394.4 327.2)">v5.157.12</text><text x="404.8" y="327.2" font-size="4" text-anchor="end" fill="#d6a382" transform="rotate(-80 404.8 327.2)">v5.157.13</text><text x="415.1" y="327.2" font-size="4" text-anchor="end" fill="#d6a382" transform="rotate(-80 415.1 327.2)">v5.157.14</text><text x="425.4" y="327.2" font-size="4" text-anchor="end" fill="#d6a382" transform="rotate(-80 425.4 327.2)">v5.157.15</text><text x="435.8" y="327.2" font-size="4" text-anchor="end" fill="#d6a382" transform="rotate(-80 435.8 327.2)">v5.157.16</text><text x="446.1" y="327.2" font-size="4" text-anchor="end" fill="#d6a382" transform="rotate(-80 446.1 327.2)">v5.157.17</text><text x="456.4" y="327.2" font-size="4" text-anchor="end" fill="#d6a382" transform="rotate(-80 456.4 327.2)">v5.157.18</text><text x="466.7" y="327.2" font-size="4" text-anchor="end" fill="#aa4400" transform="rotate(-80 466.7 327.2)">v5.158.0</text><text x="477.1" y="327.2" font-size="4" text-anchor="end" fill="#d6a382" transform="rotate(-80 477.1 327.2)">v5.158.1</text><text x="487.4" y="327.2" font-size="4" text-anchor="end" fill="#d6a382" transform="rotate(-80 487.4 327.2)">v5.158.2</text><text x="497.7" y="327.2" font-size="4" text-anchor="end" fill="#aa4400" transform="rotate(-80 497.7 327.2)">v5.159.0</text><text x="508.0" y="327.2" font-size="4" text-anchor="end" fill="#d6a382" transform="rotate(-80 508.0 327.2)">v5.159.1</text><text x="518.4" y="327.2" font-size="4" text-anchor="end" fill="#d6a382" transform="rotate(-80 518.4 327.2)">v5.159.2</text><text x="528.7" y="327.2" font-size="4" text-anchor="end" fill="#aa4400" transform="rotate(-80 528.7 327.2)">v5.160.0</text><text x="539.0" y="327.2" font-size="4" text-anchor="end" fill="#aa4400" transform="rotate(-80 539.0 327.2)">v5.161.0</text><text x="549.3" y="327.2" font-size="4" text-anchor="end" fill="#aa4400" transform="rotate(-80 549.3 327.2)">v5.162.0</text><text x="559.7" y="327.2" font-size="4" text-anchor="end" fill="#d6a382" transform="rotate(-80 559.7 327.2)">v5.162.1</text><text x="570.0" y="327.2" font-size="4" text-anchor="end" fill="#d6a382" transform="rotate(-80 570.0 327.2)">v5.162.2</text><path d="M64.0,62.1 L74.3,76.9 L84.7,69.6 L95.0,73.5 L105.3,73.8 L115.6,69.6 L126.0,66.1 L136.3,77.1 L146.6,62.6 L156.9,69.9 L167.3,62.3 L177.6,70.6 L187.9,77.0 L198.2,67.1 L208.6,66.0 L218.9,60.0 L229.2,71.2 L239.6,69.0 L249.9,76.9 L260.2,66.8 L270.5,67.3 L280.9,64.8 L291.2,68.4 L301.5,63.1 L311.8,81.5 L322.2,73.7 L332.5,76.3 L342.8,72.0 L353.1,63.0 L363.5,67.1 L373.8,80.5 L384.1,64.9 L394.4,60.6 L404.8,75.0 L415.1,83.8 L425.4,67.1 L435.8,68.9 L446.1,58.9 L456.4,69.9 L466.7,69.3 L477.1,76.7 L487.4,76.1 L497.7,75.8 L508.0,65.1 L518.4,65.2 L528.7,58.2 L539.0,68.1 L549.3,69.1 L559.7,67.2 L570.0,60.8" fill="none" stroke="#4477AA" stroke-width="1.6"/><circle cx="64.0" cy="62.1" r="2" fill="#4477AA"/><circle cx="74.3" cy="76.9" r="2" fill="#4477AA"/><circle cx="84.7" cy="69.6" r="2" fill="#4477AA"/><circle cx="95.0" cy="73.5" r="2" fill="#4477AA"/><circle cx="105.3" cy="73.8" r="2" fill="#4477AA"/><circle cx="115.6" cy="69.6" r="2" fill="#4477AA"/><circle cx="126.0" cy="66.1" r="2" fill="#4477AA"/><circle cx="136.3" cy="77.1" r="2" fill="#4477AA"/><circle cx="146.6" cy="62.6" r="2" fill="#4477AA"/><circle cx="156.9" cy="69.9" r="2" fill="#4477AA"/><circle cx="167.3" cy="62.3" r="2" fill="#4477AA"/><circle cx="177.6" cy="70.6" r="2" fill="#4477AA"/><circle cx="187.9" cy="77.0" r="2" fill="#4477AA"/><circle cx="198.2" cy="67.1" r="2" fill="#4477AA"/><circle cx="208.6" cy="66.0" r="2" fill="#4477AA"/><circle cx="218.9" cy="60.0" r="2" fill="#4477AA"/><circle cx="229.2" cy="71.2" r="2" fill="#4477AA"/><circle cx="239.6" cy="69.0" r="2" fill="#4477AA"/><circle cx="249.9" cy="76.9" r="2" fill="#4477AA"/><circle cx="260.2" cy="66.8" r="2" fill="#4477AA"/><circle cx="270.5" cy="67.3" r="2" fill="#4477AA"/><circle cx="280.9" cy="64.8" r="2" fill="#4477AA"/><circle cx="291.2" cy="68.4" r="2" fill="#4477AA"/><circle cx="301.5" cy="63.1" r="2" fill="#4477AA"/><circle cx="311.8" cy="81.5" r="2" fill="#4477AA"/><circle cx="322.2" cy="73.7" r="2" fill="#4477AA"/><circle cx="332.5" cy="76.3" r="2" fill="#4477AA"/><circle cx="342.8" cy="72.0" r="2" fill="#4477AA"/><circle cx="353.1" cy="63.0" r="2" fill="#4477AA"/><circle cx="363.5" cy="67.1" r="2" fill="#4477AA"/><circle cx="373.8" cy="80.5" r="2" fill="#4477AA"/><circle cx="384.1" cy="64.9" r="2" fill="#4477AA"/><circle cx="394.4" cy="60.6" r="2" fill="#4477AA"/><circle cx="404.8" cy="75.0" r="2" fill="#4477AA"/><circle cx="415.1" cy="83.8" r="2" fill="#4477AA"/><circle cx="425.4" cy="67.1" r="2" fill="#4477AA"/><circle cx="435.8" cy="68.9" r="2" fill="#4477AA"/><circle cx="446.1" cy="58.9" r="2" fill="#4477AA"/><circle cx="456.4" cy="69.9" r="2" fill="#4477AA"/><circle cx="466.7" cy="69.3" r="2" fill="#4477AA"/><circle cx="477.1" cy="76.7" r="2" fill="#4477AA"/><circle cx="487.4" cy="76.1" r="2" fill="#4477AA"/><circle cx="497.7" cy="75.8" r="2" fill="#4477AA"/><circle cx="508.0" cy="65.1" r="2" fill="#4477AA"/><circle cx="518.4" cy="65.2" r="2" fill="#4477AA"/><circle cx="528.7" cy="58.2" r="2" fill="#4477AA"/><circle cx="539.0" cy="68.1" r="2" fill="#4477AA"/><circle cx="549.3" cy="69.1" r="2" fill="#4477AA"/><circle cx="559.7" cy="67.2" r="2" fill="#4477AA"/><circle cx="570.0" cy="60.8" r="2" fill="#4477AA"/><rect x="580" y="34" width="10" height="10" fill="#4477AA"/><text x="594" y="43" font-size="10" fill="#444">chain-10</text><path d="M64.0,71.8 L74.3,77.3 L84.7,83.6 L95.0,77.6 L105.3,84.8 L115.6,78.9 L126.0,75.9 L136.3,90.5 L146.6,84.4 L156.9,75.9 L167.3,76.2 L177.6,82.3 L187.9,75.1 L198.2,80.3 L208.6,78.9 L218.9,84.1 L229.2,79.6 L239.6,77.1 L249.9,79.0 L260.2,82.8 L270.5,78.5 L280.9,84.4 L291.2,72.1 L301.5,72.9 L311.8,84.7 L322.2,78.9 L332.5,81.8 L342.8,84.2 L353.1,83.7 L363.5,76.3 L373.8,80.6 L384.1,74.8 L394.4,76.3 L404.8,81.0 L415.1,78.4 L425.4,72.6 L435.8,75.0 L446.1,79.8 L456.4,74.9 L466.7,74.4 L477.1,76.5 L487.4,83.8 L497.7,75.0 L508.0,78.3 L518.4,73.7 L528.7,84.1 L539.0,72.7 L549.3,79.5 L559.7,74.7 L570.0,64.5" fill="none" stroke="#EE6677" stroke-width="1.6"/><circle cx="64.0" cy="71.8" r="2" fill="#EE6677"/><circle cx="74.3" cy="77.3" r="2" fill="#EE6677"/><circle cx="84.7" cy="83.6" r="2" fill="#EE6677"/><circle cx="95.0" cy="77.6" r="2" fill="#EE6677"/><circle cx="105.3" cy="84.8" r="2" fill="#EE6677"/><circle cx="115.6" cy="78.9" r="2" fill="#EE6677"/><circle cx="126.0" cy="75.9" r="2" fill="#EE6677"/><circle cx="136.3" cy="90.5" r="2" fill="#EE6677"/><circle cx="146.6" cy="84.4" r="2" fill="#EE6677"/><circle cx="156.9" cy="75.9" r="2" fill="#EE6677"/><circle cx="167.3" cy="76.2" r="2" fill="#EE6677"/><circle cx="177.6" cy="82.3" r="2" fill="#EE6677"/><circle cx="187.9" cy="75.1" r="2" fill="#EE6677"/><circle cx="198.2" cy="80.3" r="2" fill="#EE6677"/><circle cx="208.6" cy="78.9" r="2" fill="#EE6677"/><circle cx="218.9" cy="84.1" r="2" fill="#EE6677"/><circle cx="229.2" cy="79.6" r="2" fill="#EE6677"/><circle cx="239.6" cy="77.1" r="2" fill="#EE6677"/><circle cx="249.9" cy="79.0" r="2" fill="#EE6677"/><circle cx="260.2" cy="82.8" r="2" fill="#EE6677"/><circle cx="270.5" cy="78.5" r="2" fill="#EE6677"/><circle cx="280.9" cy="84.4" r="2" fill="#EE6677"/><circle cx="291.2" cy="72.1" r="2" fill="#EE6677"/><circle cx="301.5" cy="72.9" r="2" fill="#EE6677"/><circle cx="311.8" cy="84.7" r="2" fill="#EE6677"/><circle cx="322.2" cy="78.9" r="2" fill="#EE6677"/><circle cx="332.5" cy="81.8" r="2" fill="#EE6677"/><circle cx="342.8" cy="84.2" r="2" fill="#EE6677"/><circle cx="353.1" cy="83.7" r="2" fill="#EE6677"/><circle cx="363.5" cy="76.3" r="2" fill="#EE6677"/><circle cx="373.8" cy="80.6" r="2" fill="#EE6677"/><circle cx="384.1" cy="74.8" r="2" fill="#EE6677"/><circle cx="394.4" cy="76.3" r="2" fill="#EE6677"/><circle cx="404.8" cy="81.0" r="2" fill="#EE6677"/><circle cx="415.1" cy="78.4" r="2" fill="#EE6677"/><circle cx="425.4" cy="72.6" r="2" fill="#EE6677"/><circle cx="435.8" cy="75.0" r="2" fill="#EE6677"/><circle cx="446.1" cy="79.8" r="2" fill="#EE6677"/><circle cx="456.4" cy="74.9" r="2" fill="#EE6677"/><circle cx="466.7" cy="74.4" r="2" fill="#EE6677"/><circle cx="477.1" cy="76.5" r="2" fill="#EE6677"/><circle cx="487.4" cy="83.8" r="2" fill="#EE6677"/><circle cx="497.7" cy="75.0" r="2" fill="#EE6677"/><circle cx="508.0" cy="78.3" r="2" fill="#EE6677"/><circle cx="518.4" cy="73.7" r="2" fill="#EE6677"/><circle cx="528.7" cy="84.1" r="2" fill="#EE6677"/><circle cx="539.0" cy="72.7" r="2" fill="#EE6677"/><circle cx="549.3" cy="79.5" r="2" fill="#EE6677"/><circle cx="559.7" cy="74.7" r="2" fill="#EE6677"/><circle cx="570.0" cy="64.5" r="2" fill="#EE6677"/><rect x="580" y="49" width="10" height="10" fill="#EE6677"/><text x="594" y="58" font-size="10" fill="#444">chain-50</text><path d="M64.0,67.2 L74.3,82.9 L84.7,79.7 L95.0,77.2 L105.3,79.2 L115.6,73.2 L126.0,82.5 L136.3,76.8 L146.6,87.5 L156.9,85.8 L167.3,81.4 L177.6,83.7 L187.9,80.8 L198.2,81.3 L208.6,81.8 L218.9,85.1 L229.2,81.4 L239.6,75.5 L249.9,77.2 L260.2,89.3 L270.5,76.9 L280.9,79.1 L291.2,84.4 L301.5,79.7 L311.8,74.1 L322.2,83.8 L332.5,83.4 L342.8,76.0 L353.1,82.0 L363.5,73.2 L373.8,73.1 L384.1,77.7 L394.4,80.0 L404.8,81.5 L415.1,73.9 L425.4,78.8 L435.8,73.8 L446.1,76.9 L456.4,80.2 L466.7,79.9 L477.1,75.8 L487.4,79.7 L497.7,77.8 L508.0,75.7 L518.4,72.7 L528.7,75.6 L539.0,79.4 L549.3,78.1 L559.7,84.2 L570.0,73.5" fill="none" stroke="#228833" stroke-width="1.6"/><circle cx="64.0" cy="67.2" r="2" fill="#228833"/><circle cx="74.3" cy="82.9" r="2" fill="#228833"/><circle cx="84.7" cy="79.7" r="2" fill="#228833"/><circle cx="95.0" cy="77.2" r="2" fill="#228833"/><circle cx="105.3" cy="79.2" r="2" fill="#228833"/><circle cx="115.6" cy="73.2" r="2" fill="#228833"/><circle cx="126.0" cy="82.5" r="2" fill="#228833"/><circle cx="136.3" cy="76.8" r="2" fill="#228833"/><circle cx="146.6" cy="87.5" r="2" fill="#228833"/><circle cx="156.9" cy="85.8" r="2" fill="#228833"/><circle cx="167.3" cy="81.4" r="2" fill="#228833"/><circle cx="177.6" cy="83.7" r="2" fill="#228833"/><circle cx="187.9" cy="80.8" r="2" fill="#228833"/><circle cx="198.2" cy="81.3" r="2" fill="#228833"/><circle cx="208.6" cy="81.8" r="2" fill="#228833"/><circle cx="218.9" cy="85.1" r="2" fill="#228833"/><circle cx="229.2" cy="81.4" r="2" fill="#228833"/><circle cx="239.6" cy="75.5" r="2" fill="#228833"/><circle cx="249.9" cy="77.2" r="2" fill="#228833"/><circle cx="260.2" cy="89.3" r="2" fill="#228833"/><circle cx="270.5" cy="76.9" r="2" fill="#228833"/><circle cx="280.9" cy="79.1" r="2" fill="#228833"/><circle cx="291.2" cy="84.4" r="2" fill="#228833"/><circle cx="301.5" cy="79.7" r="2" fill="#228833"/><circle cx="311.8" cy="74.1" r="2" fill="#228833"/><circle cx="322.2" cy="83.8" r="2" fill="#228833"/><circle cx="332.5" cy="83.4" r="2" fill="#228833"/><circle cx="342.8" cy="76.0" r="2" fill="#228833"/><circle cx="353.1" cy="82.0" r="2" fill="#228833"/><circle cx="363.5" cy="73.2" r="2" fill="#228833"/><circle cx="373.8" cy="73.1" r="2" fill="#228833"/><circle cx="384.1" cy="77.7" r="2" fill="#228833"/><circle cx="394.4" cy="80.0" r="2" fill="#228833"/><circle cx="404.8" cy="81.5" r="2" fill="#228833"/><circle cx="415.1" cy="73.9" r="2" fill="#228833"/><circle cx="425.4" cy="78.8" r="2" fill="#228833"/><circle cx="435.8" cy="73.8" r="2" fill="#228833"/><circle cx="446.1" cy="76.9" r="2" fill="#228833"/><circle cx="456.4" cy="80.2" r="2" fill="#228833"/><circle cx="466.7" cy="79.9" r="2" fill="#228833"/><circle cx="477.1" cy="75.8" r="2" fill="#228833"/><circle cx="487.4" cy="79.7" r="2" fill="#228833"/><circle cx="497.7" cy="77.8" r="2" fill="#228833"/><circle cx="508.0" cy="75.7" r="2" fill="#228833"/><circle cx="518.4" cy="72.7" r="2" fill="#228833"/><circle cx="528.7" cy="75.6" r="2" fill="#228833"/><circle cx="539.0" cy="79.4" r="2" fill="#228833"/><circle cx="549.3" cy="78.1" r="2" fill="#228833"/><circle cx="559.7" cy="84.2" r="2" fill="#228833"/><circle cx="570.0" cy="73.5" r="2" fill="#228833"/><rect x="580" y="64" width="10" height="10" fill="#228833"/><text x="594" y="73" font-size="10" fill="#444">chain-200</text><path d="M64.0,95.0 L74.3,98.5 L84.7,93.9 L95.0,94.2 L105.3,95.6 L115.6,104.9 L126.0,96.5 L136.3,102.0 L146.6,105.2 L156.9,102.2 L167.3,103.5 L177.6,95.4 L187.9,98.4 L198.2,105.1 L208.6,100.6 L218.9,98.2 L229.2,106.4 L239.6,91.9 L249.9,103.0 L260.2,99.9 L270.5,106.3 L280.9,98.0 L291.2,106.6 L301.5,102.4 L311.8,98.1 L322.2,100.8 L332.5,102.3 L342.8,98.7 L353.1,101.1 L363.5,96.7 L373.8,102.2 L384.1,105.6 L394.4,101.3 L404.8,92.6 L415.1,96.3 L425.4,96.0 L435.8,91.3 L446.1,90.6 L456.4,91.1 L466.7,95.8 L477.1,102.6 L487.4,95.3 L497.7,93.3 L508.0,99.8 L518.4,101.0 L528.7,105.3 L539.0,100.7 L549.3,104.8 L559.7,106.0 L570.0,93.8" fill="none" stroke="#CCBB44" stroke-width="1.6"/><circle cx="64.0" cy="95.0" r="2" fill="#CCBB44"/><circle cx="74.3" cy="98.5" r="2" fill="#CCBB44"/><circle cx="84.7" cy="93.9" r="2" fill="#CCBB44"/><circle cx="95.0" cy="94.2" r="2" fill="#CCBB44"/><circle cx="105.3" cy="95.6" r="2" fill="#CCBB44"/><circle cx="115.6" cy="104.9" r="2" fill="#CCBB44"/><circle cx="126.0" cy="96.5" r="2" fill="#CCBB44"/><circle cx="136.3" cy="102.0" r="2" fill="#CCBB44"/><circle cx="146.6" cy="105.2" r="2" fill="#CCBB44"/><circle cx="156.9" cy="102.2" r="2" fill="#CCBB44"/><circle cx="167.3" cy="103.5" r="2" fill="#CCBB44"/><circle cx="177.6" cy="95.4" r="2" fill="#CCBB44"/><circle cx="187.9" cy="98.4" r="2" fill="#CCBB44"/><circle cx="198.2" cy="105.1" r="2" fill="#CCBB44"/><circle cx="208.6" cy="100.6" r="2" fill="#CCBB44"/><circle cx="218.9" cy="98.2" r="2" fill="#CCBB44"/><circle cx="229.2" cy="106.4" r="2" fill="#CCBB44"/><circle cx="239.6" cy="91.9" r="2" fill="#CCBB44"/><circle cx="249.9" cy="103.0" r="2" fill="#CCBB44"/><circle cx="260.2" cy="99.9" r="2" fill="#CCBB44"/><circle cx="270.5" cy="106.3" r="2" fill="#CCBB44"/><circle cx="280.9" cy="98.0" r="2" fill="#CCBB44"/><circle cx="291.2" cy="106.6" r="2" fill="#CCBB44"/><circle cx="301.5" cy="102.4" r="2" fill="#CCBB44"/><circle cx="311.8" cy="98.1" r="2" fill="#CCBB44"/><circle cx="322.2" cy="100.8" r="2" fill="#CCBB44"/><circle cx="332.5" cy="102.3" r="2" fill="#CCBB44"/><circle cx="342.8" cy="98.7" r="2" fill="#CCBB44"/><circle cx="353.1" cy="101.1" r="2" fill="#CCBB44"/><circle cx="363.5" cy="96.7" r="2" fill="#CCBB44"/><circle cx="373.8" cy="102.2" r="2" fill="#CCBB44"/><circle cx="384.1" cy="105.6" r="2" fill="#CCBB44"/><circle cx="394.4" cy="101.3" r="2" fill="#CCBB44"/><circle cx="404.8" cy="92.6" r="2" fill="#CCBB44"/><circle cx="415.1" cy="96.3" r="2" fill="#CCBB44"/><circle cx="425.4" cy="96.0" r="2" fill="#CCBB44"/><circle cx="435.8" cy="91.3" r="2" fill="#CCBB44"/><circle cx="446.1" cy="90.6" r="2" fill="#CCBB44"/><circle cx="456.4" cy="91.1" r="2" fill="#CCBB44"/><circle cx="466.7" cy="95.8" r="2" fill="#CCBB44"/><circle cx="477.1" cy="102.6" r="2" fill="#CCBB44"/><circle cx="487.4" cy="95.3" r="2" fill="#CCBB44"/><circle cx="497.7" cy="93.3" r="2" fill="#CCBB44"/><circle cx="508.0" cy="99.8" r="2" fill="#CCBB44"/><circle cx="518.4" cy="101.0" r="2" fill="#CCBB44"/><circle cx="528.7" cy="105.3" r="2" fill="#CCBB44"/><circle cx="539.0" cy="100.7" r="2" fill="#CCBB44"/><circle cx="549.3" cy="104.8" r="2" fill="#CCBB44"/><circle cx="559.7" cy="106.0" r="2" fill="#CCBB44"/><circle cx="570.0" cy="93.8" r="2" fill="#CCBB44"/><rect x="580" y="79" width="10" height="10" fill="#CCBB44"/><text x="594" y="88" font-size="10" fill="#444">chain-1000</text><path d="M64.0,145.9 L74.3,155.4 L84.7,152.2 L95.0,149.7 L105.3,151.4 L115.6,152.9 L126.0,148.0 L136.3,155.5 L146.6,155.1 L156.9,153.9 L167.3,149.6 L177.6,154.0 L187.9,154.9 L198.2,149.8 L208.6,151.6 L218.9,146.2 L229.2,159.3 L239.6,150.6 L249.9,153.2 L260.2,148.0 L270.5,155.5 L280.9,154.3 L291.2,150.7 L301.5,153.9 L311.8,156.4 L322.2,157.2 L332.5,150.0 L342.8,155.5 L353.1,155.9 L363.5,153.9 L373.8,157.7 L384.1,150.9 L394.4,154.5 L404.8,153.9 L415.1,155.6 L425.4,156.0 L435.8,154.0 L446.1,154.2 L456.4,153.5 L466.7,150.6 L477.1,152.3 L487.4,157.7 L497.7,157.3 L508.0,149.0 L518.4,145.8 L528.7,153.8 L539.0,149.0 L549.3,150.1 L559.7,148.9 L570.0,151.3" fill="none" stroke="#66CCEE" stroke-width="1.6"/><circle cx="64.0" cy="145.9" r="2" fill="#66CCEE"/><circle cx="74.3" cy="155.4" r="2" fill="#66CCEE"/><circle cx="84.7" cy="152.2" r="2" fill="#66CCEE"/><circle cx="95.0" cy="149.7" r="2" fill="#66CCEE"/><circle cx="105.3" cy="151.4" r="2" fill="#66CCEE"/><circle cx="115.6" cy="152.9" r="2" fill="#66CCEE"/><circle cx="126.0" cy="148.0" r="2" fill="#66CCEE"/><circle cx="136.3" cy="155.5" r="2" fill="#66CCEE"/><circle cx="146.6" cy="155.1" r="2" fill="#66CCEE"/><circle cx="156.9" cy="153.9" r="2" fill="#66CCEE"/><circle cx="167.3" cy="149.6" r="2" fill="#66CCEE"/><circle cx="177.6" cy="154.0" r="2" fill="#66CCEE"/><circle cx="187.9" cy="154.9" r="2" fill="#66CCEE"/><circle cx="198.2" cy="149.8" r="2" fill="#66CCEE"/><circle cx="208.6" cy="151.6" r="2" fill="#66CCEE"/><circle cx="218.9" cy="146.2" r="2" fill="#66CCEE"/><circle cx="229.2" cy="159.3" r="2" fill="#66CCEE"/><circle cx="239.6" cy="150.6" r="2" fill="#66CCEE"/><circle cx="249.9" cy="153.2" r="2" fill="#66CCEE"/><circle cx="260.2" cy="148.0" r="2" fill="#66CCEE"/><circle cx="270.5" cy="155.5" r="2" fill="#66CCEE"/><circle cx="280.9" cy="154.3" r="2" fill="#66CCEE"/><circle cx="291.2" cy="150.7" r="2" fill="#66CCEE"/><circle cx="301.5" cy="153.9" r="2" fill="#66CCEE"/><circle cx="311.8" cy="156.4" r="2" fill="#66CCEE"/><circle cx="322.2" cy="157.2" r="2" fill="#66CCEE"/><circle cx="332.5" cy="150.0" r="2" fill="#66CCEE"/><circle cx="342.8" cy="155.5" r="2" fill="#66CCEE"/><circle cx="353.1" cy="155.9" r="2" fill="#66CCEE"/><circle cx="363.5" cy="153.9" r="2" fill="#66CCEE"/><circle cx="373.8" cy="157.7" r="2" fill="#66CCEE"/><circle cx="384.1" cy="150.9" r="2" fill="#66CCEE"/><circle cx="394.4" cy="154.5" r="2" fill="#66CCEE"/><circle cx="404.8" cy="153.9" r="2" fill="#66CCEE"/><circle cx="415.1" cy="155.6" r="2" fill="#66CCEE"/><circle cx="425.4" cy="156.0" r="2" fill="#66CCEE"/><circle cx="435.8" cy="154.0" r="2" fill="#66CCEE"/><circle cx="446.1" cy="154.2" r="2" fill="#66CCEE"/><circle cx="456.4" cy="153.5" r="2" fill="#66CCEE"/><circle cx="466.7" cy="150.6" r="2" fill="#66CCEE"/><circle cx="477.1" cy="152.3" r="2" fill="#66CCEE"/><circle cx="487.4" cy="157.7" r="2" fill="#66CCEE"/><circle cx="497.7" cy="157.3" r="2" fill="#66CCEE"/><circle cx="508.0" cy="149.0" r="2" fill="#66CCEE"/><circle cx="518.4" cy="145.8" r="2" fill="#66CCEE"/><circle cx="528.7" cy="153.8" r="2" fill="#66CCEE"/><circle cx="539.0" cy="149.0" r="2" fill="#66CCEE"/><circle cx="549.3" cy="150.1" r="2" fill="#66CCEE"/><circle cx="559.7" cy="148.9" r="2" fill="#66CCEE"/><circle cx="570.0" cy="151.3" r="2" fill="#66CCEE"/><rect x="580" y="94" width="10" height="10" fill="#66CCEE"/><text x="594" y="103" font-size="10" fill="#444">dense-10</text><path d="M64.0,258.3 L74.3,259.2 L84.7,259.7 L95.0,259.8 L105.3,259.9 L115.6,259.3 L126.0,260.5 L136.3,259.4 L146.6,259.7 L156.9,258.8 L167.3,258.9 L177.6,260.2 L187.9,259.2 L198.2,258.9 L208.6,259.3 L218.9,259.0 L229.2,259.6 L239.6,259.4 L249.9,259.4 L260.2,260.1 L270.5,260.3 L280.9,259.5 L291.2,259.5 L301.5,259.1 L311.8,260.2 L322.2,259.6 L332.5,259.8 L342.8,259.5 L353.1,259.8 L363.5,260.2 L373.8,259.9 L384.1,261.0 L394.4,259.8 L404.8,260.9 L415.1,259.9 L425.4,257.9 L435.8,259.1 L446.1,259.1 L456.4,260.0 L466.7,259.4 L477.1,258.6 L487.4,259.1 L497.7,258.7 L508.0,259.2 L518.4,259.6 L528.7,259.0 L539.0,259.4 L549.3,259.2 L559.7,260.4 L570.0,256.7" fill="none" stroke="#AA3377" stroke-width="1.6"/><circle cx="64.0" cy="258.3" r="2" fill="#AA3377"/><circle cx="74.3" cy="259.2" r="2" fill="#AA3377"/><circle cx="84.7" cy="259.7" r="2" fill="#AA3377"/><circle cx="95.0" cy="259.8" r="2" fill="#AA3377"/><circle cx="105.3" cy="259.9" r="2" fill="#AA3377"/><circle cx="115.6" cy="259.3" r="2" fill="#AA3377"/><circle cx="126.0" cy="260.5" r="2" fill="#AA3377"/><circle cx="136.3" cy="259.4" r="2" fill="#AA3377"/><circle cx="146.6" cy="259.7" r="2" fill="#AA3377"/><circle cx="156.9" cy="258.8" r="2" fill="#AA3377"/><circle cx="167.3" cy="258.9" r="2" fill="#AA3377"/><circle cx="177.6" cy="260.2" r="2" fill="#AA3377"/><circle cx="187.9" cy="259.2" r="2" fill="#AA3377"/><circle cx="198.2" cy="258.9" r="2" fill="#AA3377"/><circle cx="208.6" cy="259.3" r="2" fill="#AA3377"/><circle cx="218.9" cy="259.0" r="2" fill="#AA3377"/><circle cx="229.2" cy="259.6" r="2" fill="#AA3377"/><circle cx="239.6" cy="259.4" r="2" fill="#AA3377"/><circle cx="249.9" cy="259.4" r="2" fill="#AA3377"/><circle cx="260.2" cy="260.1" r="2" fill="#AA3377"/><circle cx="270.5" cy="260.3" r="2" fill="#AA3377"/><circle cx="280.9" cy="259.5" r="2" fill="#AA3377"/><circle cx="291.2" cy="259.5" r="2" fill="#AA3377"/><circle cx="301.5" cy="259.1" r="2" fill="#AA3377"/><circle cx="311.8" cy="260.2" r="2" fill="#AA3377"/><circle cx="322.2" cy="259.6" r="2" fill="#AA3377"/><circle cx="332.5" cy="259.8" r="2" fill="#AA3377"/><circle cx="342.8" cy="259.5" r="2" fill="#AA3377"/><circle cx="353.1" cy="259.8" r="2" fill="#AA3377"/><circle cx="363.5" cy="260.2" r="2" fill="#AA3377"/><circle cx="373.8" cy="259.9" r="2" fill="#AA3377"/><circle cx="384.1" cy="261.0" r="2" fill="#AA3377"/><circle cx="394.4" cy="259.8" r="2" fill="#AA3377"/><circle cx="404.8" cy="260.9" r="2" fill="#AA3377"/><circle cx="415.1" cy="259.9" r="2" fill="#AA3377"/><circle cx="425.4" cy="257.9" r="2" fill="#AA3377"/><circle cx="435.8" cy="259.1" r="2" fill="#AA3377"/><circle cx="446.1" cy="259.1" r="2" fill="#AA3377"/><circle cx="456.4" cy="260.0" r="2" fill="#AA3377"/><circle cx="466.7" cy="259.4" r="2" fill="#AA3377"/><circle cx="477.1" cy="258.6" r="2" fill="#AA3377"/><circle cx="487.4" cy="259.1" r="2" fill="#AA3377"/><circle cx="497.7" cy="258.7" r="2" fill="#AA3377"/><circle cx="508.0" cy="259.2" r="2" fill="#AA3377"/><circle cx="518.4" cy="259.6" r="2" fill="#AA3377"/><circle cx="528.7" cy="259.0" r="2" fill="#AA3377"/><circle cx="539.0" cy="259.4" r="2" fill="#AA3377"/><circle cx="549.3" cy="259.2" r="2" fill="#AA3377"/><circle cx="559.7" cy="260.4" r="2" fill="#AA3377"/><circle cx="570.0" cy="256.7" r="2" fill="#AA3377"/><rect x="580" y="109" width="10" height="10" fill="#AA3377"/><text x="594" y="118" font-size="10" fill="#444">dense-50</text><path d="M64.0,299.1 L74.3,299.6 L84.7,299.5 L95.0,299.5 L105.3,299.6 L115.6,299.4 L126.0,299.7 L136.3,299.0 L146.6,299.5 L156.9,299.5 L167.3,299.4 L177.6,299.4 L187.9,299.6 L198.2,299.6 L208.6,299.5 L218.9,299.7 L229.2,299.6 L239.6,299.6 L249.9,298.8 L260.2,299.5 L270.5,299.6 L280.9,299.4 L291.2,299.2 L301.5,299.6 L311.8,299.8 L322.2,299.8 L332.5,299.6 L342.8,299.7 L353.1,299.8 L363.5,299.1 L373.8,299.5 L384.1,299.6 L394.4,299.5 L404.8,299.7 L415.1,299.3 L425.4,299.6 L435.8,299.5 L446.1,299.8 L456.4,299.6 L466.7,299.5 L477.1,299.6 L487.4,299.5 L497.7,299.4 L508.0,299.5 L518.4,299.5 L528.7,299.5 L539.0,299.6 L549.3,299.7 L559.7,299.7 L570.0,298.7" fill="none" stroke="#BBBBBB" stroke-width="1.6"/><circle cx="64.0" cy="299.1" r="2" fill="#BBBBBB"/><circle cx="74.3" cy="299.6" r="2" fill="#BBBBBB"/><circle cx="84.7" cy="299.5" r="2" fill="#BBBBBB"/><circle cx="95.0" cy="299.5" r="2" fill="#BBBBBB"/><circle cx="105.3" cy="299.6" r="2" fill="#BBBBBB"/><circle cx="115.6" cy="299.4" r="2" fill="#BBBBBB"/><circle cx="126.0" cy="299.7" r="2" fill="#BBBBBB"/><circle cx="136.3" cy="299.0" r="2" fill="#BBBBBB"/><circle cx="146.6" cy="299.5" r="2" fill="#BBBBBB"/><circle cx="156.9" cy="299.5" r="2" fill="#BBBBBB"/><circle cx="167.3" cy="299.4" r="2" fill="#BBBBBB"/><circle cx="177.6" cy="299.4" r="2" fill="#BBBBBB"/><circle cx="187.9" cy="299.6" r="2" fill="#BBBBBB"/><circle cx="198.2" cy="299.6" r="2" fill="#BBBBBB"/><circle cx="208.6" cy="299.5" r="2" fill="#BBBBBB"/><circle cx="218.9" cy="299.7" r="2" fill="#BBBBBB"/><circle cx="229.2" cy="299.6" r="2" fill="#BBBBBB"/><circle cx="239.6" cy="299.6" r="2" fill="#BBBBBB"/><circle cx="249.9" cy="298.8" r="2" fill="#BBBBBB"/><circle cx="260.2" cy="299.5" r="2" fill="#BBBBBB"/><circle cx="270.5" cy="299.6" r="2" fill="#BBBBBB"/><circle cx="280.9" cy="299.4" r="2" fill="#BBBBBB"/><circle cx="291.2" cy="299.2" r="2" fill="#BBBBBB"/><circle cx="301.5" cy="299.6" r="2" fill="#BBBBBB"/><circle cx="311.8" cy="299.8" r="2" fill="#BBBBBB"/><circle cx="322.2" cy="299.8" r="2" fill="#BBBBBB"/><circle cx="332.5" cy="299.6" r="2" fill="#BBBBBB"/><circle cx="342.8" cy="299.7" r="2" fill="#BBBBBB"/><circle cx="353.1" cy="299.8" r="2" fill="#BBBBBB"/><circle cx="363.5" cy="299.1" r="2" fill="#BBBBBB"/><circle cx="373.8" cy="299.5" r="2" fill="#BBBBBB"/><circle cx="384.1" cy="299.6" r="2" fill="#BBBBBB"/><circle cx="394.4" cy="299.5" r="2" fill="#BBBBBB"/><circle cx="404.8" cy="299.7" r="2" fill="#BBBBBB"/><circle cx="415.1" cy="299.3" r="2" fill="#BBBBBB"/><circle cx="425.4" cy="299.6" r="2" fill="#BBBBBB"/><circle cx="435.8" cy="299.5" r="2" fill="#BBBBBB"/><circle cx="446.1" cy="299.8" r="2" fill="#BBBBBB"/><circle cx="456.4" cy="299.6" r="2" fill="#BBBBBB"/><circle cx="466.7" cy="299.5" r="2" fill="#BBBBBB"/><circle cx="477.1" cy="299.6" r="2" fill="#BBBBBB"/><circle cx="487.4" cy="299.5" r="2" fill="#BBBBBB"/><circle cx="497.7" cy="299.4" r="2" fill="#BBBBBB"/><circle cx="508.0" cy="299.5" r="2" fill="#BBBBBB"/><circle cx="518.4" cy="299.5" r="2" fill="#BBBBBB"/><circle cx="528.7" cy="299.5" r="2" fill="#BBBBBB"/><circle cx="539.0" cy="299.6" r="2" fill="#BBBBBB"/><circle cx="549.3" cy="299.7" r="2" fill="#BBBBBB"/><circle cx="559.7" cy="299.7" r="2" fill="#BBBBBB"/><circle cx="570.0" cy="298.7" r="2" fill="#BBBBBB"/><rect x="580" y="124" width="10" height="10" fill="#BBBBBB"/><text x="594" y="133" font-size="10" fill="#444">dense-200</text><path d="M64.0,227.0 L74.3,225.3 L84.7,228.8 L95.0,226.5 L105.3,228.2 L115.6,228.2 L126.0,224.9 L136.3,234.5 L146.6,232.7 L156.9,224.7 L167.3,220.8 L177.6,228.7 L187.9,223.8 L198.2,226.4 L208.6,223.7 L218.9,224.8 L229.2,223.9 L239.6,223.2 L249.9,224.6 L260.2,227.1 L270.5,225.4 L280.9,228.2 L291.2,226.5 L301.5,225.3 L311.8,225.3 L322.2,225.2 L332.5,223.5 L342.8,225.1 L353.1,229.0 L363.5,228.9 L373.8,223.3 L384.1,228.3 L394.4,222.0 L404.8,225.7 L415.1,225.1 L425.4,223.8 L435.8,228.1 L446.1,226.2 L456.4,228.1 L466.7,223.4 L477.1,225.2 L487.4,225.9 L497.7,224.7 L508.0,224.8 L518.4,225.3 L528.7,224.1 L539.0,225.2 L549.3,224.8 L559.7,224.0 L570.0,222.0" fill="none" stroke="#222255" stroke-width="1.6"/><circle cx="64.0" cy="227.0" r="2" fill="#222255"/><circle cx="74.3" cy="225.3" r="2" fill="#222255"/><circle cx="84.7" cy="228.8" r="2" fill="#222255"/><circle cx="95.0" cy="226.5" r="2" fill="#222255"/><circle cx="105.3" cy="228.2" r="2" fill="#222255"/><circle cx="115.6" cy="228.2" r="2" fill="#222255"/><circle cx="126.0" cy="224.9" r="2" fill="#222255"/><circle cx="136.3" cy="234.5" r="2" fill="#222255"/><circle cx="146.6" cy="232.7" r="2" fill="#222255"/><circle cx="156.9" cy="224.7" r="2" fill="#222255"/><circle cx="167.3" cy="220.8" r="2" fill="#222255"/><circle cx="177.6" cy="228.7" r="2" fill="#222255"/><circle cx="187.9" cy="223.8" r="2" fill="#222255"/><circle cx="198.2" cy="226.4" r="2" fill="#222255"/><circle cx="208.6" cy="223.7" r="2" fill="#222255"/><circle cx="218.9" cy="224.8" r="2" fill="#222255"/><circle cx="229.2" cy="223.9" r="2" fill="#222255"/><circle cx="239.6" cy="223.2" r="2" fill="#222255"/><circle cx="249.9" cy="224.6" r="2" fill="#222255"/><circle cx="260.2" cy="227.1" r="2" fill="#222255"/><circle cx="270.5" cy="225.4" r="2" fill="#222255"/><circle cx="280.9" cy="228.2" r="2" fill="#222255"/><circle cx="291.2" cy="226.5" r="2" fill="#222255"/><circle cx="301.5" cy="225.3" r="2" fill="#222255"/><circle cx="311.8" cy="225.3" r="2" fill="#222255"/><circle cx="322.2" cy="225.2" r="2" fill="#222255"/><circle cx="332.5" cy="223.5" r="2" fill="#222255"/><circle cx="342.8" cy="225.1" r="2" fill="#222255"/><circle cx="353.1" cy="229.0" r="2" fill="#222255"/><circle cx="363.5" cy="228.9" r="2" fill="#222255"/><circle cx="373.8" cy="223.3" r="2" fill="#222255"/><circle cx="384.1" cy="228.3" r="2" fill="#222255"/><circle cx="394.4" cy="222.0" r="2" fill="#222255"/><circle cx="404.8" cy="225.7" r="2" fill="#222255"/><circle cx="415.1" cy="225.1" r="2" fill="#222255"/><circle cx="425.4" cy="223.8" r="2" fill="#222255"/><circle cx="435.8" cy="228.1" r="2" fill="#222255"/><circle cx="446.1" cy="226.2" r="2" fill="#222255"/><circle cx="456.4" cy="228.1" r="2" fill="#222255"/><circle cx="466.7" cy="223.4" r="2" fill="#222255"/><circle cx="477.1" cy="225.2" r="2" fill="#222255"/><circle cx="487.4" cy="225.9" r="2" fill="#222255"/><circle cx="497.7" cy="224.7" r="2" fill="#222255"/><circle cx="508.0" cy="224.8" r="2" fill="#222255"/><circle cx="518.4" cy="225.3" r="2" fill="#222255"/><circle cx="528.7" cy="224.1" r="2" fill="#222255"/><circle cx="539.0" cy="225.2" r="2" fill="#222255"/><circle cx="549.3" cy="224.8" r="2" fill="#222255"/><circle cx="559.7" cy="224.0" r="2" fill="#222255"/><circle cx="570.0" cy="222.0" r="2" fill="#222255"/><rect x="580" y="139" width="10" height="10" fill="#222255"/><text x="594" y="148" font-size="10" fill="#444">hub-50</text><path d="M64.0,283.2 L74.3,284.3 L84.7,284.9 L95.0,284.3 L105.3,285.4 L115.6,284.7 L126.0,284.7 L136.3,284.8 L146.6,285.4 L156.9,285.1 L167.3,285.3 L177.6,285.2 L187.9,284.3 L198.2,284.6 L208.6,285.1 L218.9,284.6 L229.2,284.4 L239.6,284.4 L249.9,284.2 L260.2,284.4 L270.5,284.4 L280.9,284.5 L291.2,285.4 L301.5,285.5 L311.8,285.2 L322.2,285.6 L332.5,284.8 L342.8,284.7 L353.1,284.9 L363.5,284.8 L373.8,284.7 L384.1,284.7 L394.4,284.8 L404.8,285.1 L415.1,284.9 L425.4,284.2 L435.8,285.3 L446.1,284.8 L456.4,285.3 L466.7,284.7 L477.1,284.4 L487.4,284.8 L497.7,284.6 L508.0,284.3 L518.4,284.8 L528.7,284.3 L539.0,284.7 L549.3,285.2 L559.7,284.7 L570.0,283.3" fill="none" stroke="#225555" stroke-width="1.6"/><circle cx="64.0" cy="283.2" r="2" fill="#225555"/><circle cx="74.3" cy="284.3" r="2" fill="#225555"/><circle cx="84.7" cy="284.9" r="2" fill="#225555"/><circle cx="95.0" cy="284.3" r="2" fill="#225555"/><circle cx="105.3" cy="285.4" r="2" fill="#225555"/><circle cx="115.6" cy="284.7" r="2" fill="#225555"/><circle cx="126.0" cy="284.7" r="2" fill="#225555"/><circle cx="136.3" cy="284.8" r="2" fill="#225555"/><circle cx="146.6" cy="285.4" r="2" fill="#225555"/><circle cx="156.9" cy="285.1" r="2" fill="#225555"/><circle cx="167.3" cy="285.3" r="2" fill="#225555"/><circle cx="177.6" cy="285.2" r="2" fill="#225555"/><circle cx="187.9" cy="284.3" r="2" fill="#225555"/><circle cx="198.2" cy="284.6" r="2" fill="#225555"/><circle cx="208.6" cy="285.1" r="2" fill="#225555"/><circle cx="218.9" cy="284.6" r="2" fill="#225555"/><circle cx="229.2" cy="284.4" r="2" fill="#225555"/><circle cx="239.6" cy="284.4" r="2" fill="#225555"/><circle cx="249.9" cy="284.2" r="2" fill="#225555"/><circle cx="260.2" cy="284.4" r="2" fill="#225555"/><circle cx="270.5" cy="284.4" r="2" fill="#225555"/><circle cx="280.9" cy="284.5" r="2" fill="#225555"/><circle cx="291.2" cy="285.4" r="2" fill="#225555"/><circle cx="301.5" cy="285.5" r="2" fill="#225555"/><circle cx="311.8" cy="285.2" r="2" fill="#225555"/><circle cx="322.2" cy="285.6" r="2" fill="#225555"/><circle cx="332.5" cy="284.8" r="2" fill="#225555"/><circle cx="342.8" cy="284.7" r="2" fill="#225555"/><circle cx="353.1" cy="284.9" r="2" fill="#225555"/><circle cx="363.5" cy="284.8" r="2" fill="#225555"/><circle cx="373.8" cy="284.7" r="2" fill="#225555"/><circle cx="384.1" cy="284.7" r="2" fill="#225555"/><circle cx="394.4" cy="284.8" r="2" fill="#225555"/><circle cx="404.8" cy="285.1" r="2" fill="#225555"/><circle cx="415.1" cy="284.9" r="2" fill="#225555"/><circle cx="425.4" cy="284.2" r="2" fill="#225555"/><circle cx="435.8" cy="285.3" r="2" fill="#225555"/><circle cx="446.1" cy="284.8" r="2" fill="#225555"/><circle cx="456.4" cy="285.3" r="2" fill="#225555"/><circle cx="466.7" cy="284.7" r="2" fill="#225555"/><circle cx="477.1" cy="284.4" r="2" fill="#225555"/><circle cx="487.4" cy="284.8" r="2" fill="#225555"/><circle cx="497.7" cy="284.6" r="2" fill="#225555"/><circle cx="508.0" cy="284.3" r="2" fill="#225555"/><circle cx="518.4" cy="284.8" r="2" fill="#225555"/><circle cx="528.7" cy="284.3" r="2" fill="#225555"/><circle cx="539.0" cy="284.7" r="2" fill="#225555"/><circle cx="549.3" cy="285.2" r="2" fill="#225555"/><circle cx="559.7" cy="284.7" r="2" fill="#225555"/><circle cx="570.0" cy="283.3" r="2" fill="#225555"/><rect x="580" y="154" width="10" height="10" fill="#225555"/><text x="594" y="163" font-size="10" fill="#444">hub-200</text><path d="M64.0,283.4 L74.3,284.7 L84.7,284.9 L95.0,284.3 L105.3,285.0 L115.6,284.5 L126.0,284.6 L136.3,284.5 L146.6,285.5 L156.9,284.9 L167.3,285.2 L177.6,285.0 L187.9,284.5 L198.2,284.9 L208.6,284.6 L218.9,285.0 L229.2,284.5 L239.6,284.4 L249.9,284.1 L260.2,284.4 L270.5,284.3 L280.9,284.5 L291.2,284.8 L301.5,285.2 L311.8,285.3 L322.2,285.2 L332.5,284.8 L342.8,285.2 L353.1,284.8 L363.5,285.1 L373.8,284.7 L384.1,284.7 L394.4,284.9 L404.8,285.4 L415.1,284.4 L425.4,284.5 L435.8,285.6 L446.1,284.7 L456.4,285.3 L466.7,284.8 L477.1,284.4 L487.4,284.7 L497.7,284.7 L508.0,284.3 L518.4,284.7 L528.7,284.2 L539.0,284.8 L549.3,285.0 L559.7,284.6 L570.0,283.1" fill="none" stroke="#552222" stroke-width="1.6"/><circle cx="64.0" cy="283.4" r="2" fill="#552222"/><circle cx="74.3" cy="284.7" r="2" fill="#552222"/><circle cx="84.7" cy="284.9" r="2" fill="#552222"/><circle cx="95.0" cy="284.3" r="2" fill="#552222"/><circle cx="105.3" cy="285.0" r="2" fill="#552222"/><circle cx="115.6" cy="284.5" r="2" fill="#552222"/><circle cx="126.0" cy="284.6" r="2" fill="#552222"/><circle cx="136.3" cy="284.5" r="2" fill="#552222"/><circle cx="146.6" cy="285.5" r="2" fill="#552222"/><circle cx="156.9" cy="284.9" r="2" fill="#552222"/><circle cx="167.3" cy="285.2" r="2" fill="#552222"/><circle cx="177.6" cy="285.0" r="2" fill="#552222"/><circle cx="187.9" cy="284.5" r="2" fill="#552222"/><circle cx="198.2" cy="284.9" r="2" fill="#552222"/><circle cx="208.6" cy="284.6" r="2" fill="#552222"/><circle cx="218.9" cy="285.0" r="2" fill="#552222"/><circle cx="229.2" cy="284.5" r="2" fill="#552222"/><circle cx="239.6" cy="284.4" r="2" fill="#552222"/><circle cx="249.9" cy="284.1" r="2" fill="#552222"/><circle cx="260.2" cy="284.4" r="2" fill="#552222"/><circle cx="270.5" cy="284.3" r="2" fill="#552222"/><circle cx="280.9" cy="284.5" r="2" fill="#552222"/><circle cx="291.2" cy="284.8" r="2" fill="#552222"/><circle cx="301.5" cy="285.2" r="2" fill="#552222"/><circle cx="311.8" cy="285.3" r="2" fill="#552222"/><circle cx="322.2" cy="285.2" r="2" fill="#552222"/><circle cx="332.5" cy="284.8" r="2" fill="#552222"/><circle cx="342.8" cy="285.2" r="2" fill="#552222"/><circle cx="353.1" cy="284.8" r="2" fill="#552222"/><circle cx="363.5" cy="285.1" r="2" fill="#552222"/><circle cx="373.8" cy="284.7" r="2" fill="#552222"/><circle cx="384.1" cy="284.7" r="2" fill="#552222"/><circle cx="394.4" cy="284.9" r="2" fill="#552222"/><circle cx="404.8" cy="285.4" r="2" fill="#552222"/><circle cx="415.1" cy="284.4" r="2" fill="#552222"/><circle cx="425.4" cy="284.5" r="2" fill="#552222"/><circle cx="435.8" cy="285.6" r="2" fill="#552222"/><circle cx="446.1" cy="284.7" r="2" fill="#552222"/><circle cx="456.4" cy="285.3" r="2" fill="#552222"/><circle cx="466.7" cy="284.8" r="2" fill="#552222"/><circle cx="477.1" cy="284.4" r="2" fill="#552222"/><circle cx="487.4" cy="284.7" r="2" fill="#552222"/><circle cx="497.7" cy="284.7" r="2" fill="#552222"/><circle cx="508.0" cy="284.3" r="2" fill="#552222"/><circle cx="518.4" cy="284.7" r="2" fill="#552222"/><circle cx="528.7" cy="284.2" r="2" fill="#552222"/><circle cx="539.0" cy="284.8" r="2" fill="#552222"/><circle cx="549.3" cy="285.0" r="2" fill="#552222"/><circle cx="559.7" cy="284.6" r="2" fill="#552222"/><circle cx="570.0" cy="283.1" r="2" fill="#552222"/><rect x="580" y="169" width="10" height="10" fill="#552222"/><text x="594" y="178" font-size="10" fill="#444">hooked-200</text></svg>