<svg width="720" height="372" xmlns="http://www.w3.org/2000/svg"><rect width="720" height="372" fill="#ffffff"/><text x="64" y="20" font-size="15" font-weight="bold" fill="#333">probable_action_exits() — ops/sec (linear scale, last 50) by PR / release, c8g.medium</text><line x1="74.3" y1="34" x2="74.3" y2="324" stroke="#e8e8e8"/><line x1="84.7" y1="34" x2="84.7" y2="324" stroke="#e8e8e8"/><line x1="95.0" y1="34" x2="95.0" y2="324" stroke="#e8e8e8"/><line x1="105.3" y1="34" x2="105.3" y2="324" stroke="#e8e8e8"/><line x1="126.0" y1="34" x2="126.0" y2="324" stroke="#e8e8e8"/><line x1="136.3" y1="34" x2="136.3" y2="324" stroke="#e8e8e8"/><line x1="146.6" y1="34" x2="146.6" y2="324" stroke="#e8e8e8"/><line x1="156.9" y1="34" x2="156.9" y2="324" stroke="#e8e8e8"/><line x1="177.6" y1="34" x2="177.6" y2="324" stroke="#e8e8e8"/><line x1="187.9" y1="34" x2="187.9" y2="324" stroke="#e8e8e8"/><line x1="198.2" y1="34" x2="198.2" y2="324" stroke="#e8e8e8"/><line x1="208.6" y1="34" x2="208.6" y2="324" stroke="#e8e8e8"/><line x1="229.2" y1="34" x2="229.2" y2="324" stroke="#e8e8e8"/><line x1="239.6" y1="34" x2="239.6" y2="324" stroke="#e8e8e8"/><line x1="249.9" y1="34" x2="249.9" y2="324" stroke="#e8e8e8"/><line x1="260.2" y1="34" x2="260.2" y2="324" stroke="#e8e8e8"/><line x1="280.9" y1="34" x2="280.9" y2="324" stroke="#e8e8e8"/><line x1="291.2" y1="34" x2="291.2" y2="324" stroke="#e8e8e8"/><line x1="301.5" y1="34" x2="301.5" y2="324" stroke="#e8e8e8"/><line x1="311.8" y1="34" x2="311.8" y2="324" stroke="#e8e8e8"/><line x1="332.5" y1="34" x2="332.5" y2="324" stroke="#e8e8e8"/><line x1="342.8" y1="34" x2="342.8" y2="324" stroke="#e8e8e8"/><line x1="353.1" y1="34" x2="353.1" y2="324" stroke="#e8e8e8"/><line x1="363.5" y1="34" x2="363.5" y2="324" stroke="#e8e8e8"/><line x1="384.1" y1="34" x2="384.1" y2="324" stroke="#e8e8e8"/><line x1="394.4" y1="34" x2="394.4" y2="324" stroke="#e8e8e8"/><line x1="404.8" y1="34" x2="404.8" y2="324" stroke="#e8e8e8"/><line x1="415.1" y1="34" x2="415.1" y2="324" stroke="#e8e8e8"/><line x1="435.8" y1="34" x2="435.8" y2="324" stroke="#e8e8e8"/><line x1="446.1" y1="34" x2="446.1" y2="324" stroke="#e8e8e8"/><line x1="456.4" y1="34" x2="456.4" y2="324" stroke="#e8e8e8"/><line x1="466.7" y1="34" x2="466.7" y2="324" stroke="#e8e8e8"/><line x1="487.4" y1="34" x2="487.4" y2="324" stroke="#e8e8e8"/><line x1="497.7" y1="34" x2="497.7" y2="324" stroke="#e8e8e8"/><line x1="508.0" y1="34" x2="508.0" y2="324" stroke="#e8e8e8"/><line x1="518.4" y1="34" x2="518.4" y2="324" stroke="#e8e8e8"/><line x1="539.0" y1="34" x2="539.0" y2="324" stroke="#e8e8e8"/><line x1="549.3" y1="34" x2="549.3" y2="324" stroke="#e8e8e8"/><line x1="559.7" y1="34" x2="559.7" y2="324" stroke="#e8e8e8"/><line x1="570.0" y1="34" x2="570.0" y2="324" stroke="#e8e8e8"/><line x1="64.0" y1="34" x2="64.0" y2="324" stroke="#d0d0d0"/><line x1="115.6" y1="34" x2="115.6" y2="324" stroke="#d0d0d0"/><line x1="167.3" y1="34" x2="167.3" y2="324" stroke="#d0d0d0"/><line x1="218.9" y1="34" x2="218.9" y2="324" stroke="#d0d0d0"/><line x1="270.5" y1="34" x2="270.5" y2="324" stroke="#d0d0d0"/><line x1="322.2" y1="34" x2="322.2" y2="324" stroke="#d0d0d0"/><line x1="373.8" y1="34" x2="373.8" y2="324" stroke="#d0d0d0"/><line x1="425.4" y1="34" x2="425.4" y2="324" stroke="#d0d0d0"/><line x1="477.1" y1="34" x2="477.1" y2="324" stroke="#d0d0d0"/><line x1="528.7" y1="34" x2="528.7" y2="324" stroke="#d0d0d0"/><line x1="64" y1="324.0" x2="570" y2="324.0" stroke="#b0b0b0"/><text x="58" y="328.0" font-size="10" text-anchor="end" fill="#888">-17k</text><line x1="64" y1="266.0" x2="570" y2="266.0" stroke="#b0b0b0"/><text x="58" y="270.0" font-size="10" text-anchor="end" fill="#888">26.9k</text><line x1="64" y1="208.0" x2="570" y2="208.0" stroke="#b0b0b0"/><text x="58" y="212.0" font-size="10" text-anchor="end" fill="#888">70.7k</text><line x1="64" y1="150.0" x2="570" y2="150.0" stroke="#b0b0b0"/><text x="58" y="154.0" font-size="10" text-anchor="end" fill="#888">114.6k</text><line x1="64" y1="92.0" x2="570" y2="92.0" stroke="#b0b0b0"/><text x="58" y="96.0" font-size="10" text-anchor="end" fill="#888">158.5k</text><line x1="64" y1="34.0" x2="570" y2="34.0" stroke="#b0b0b0"/><text x="58" y="38.0" font-size="10" text-anchor="end" fill="#888">202.3k</text><text x="64.0" y="327.2" font-size="4" text-anchor="end" fill="#aa4400" transform="rotate(-80 64.0 327.2)">v5.147.8</text><text x="74.3" y="327.2" font-size="4" text-anchor="end" fill="#d6a382" transform="rotate(-80 74.3 327.2)">v5.147.9</text><text x="84.7" y="327.2" font-size="4" text-anchor="end" fill="#d6a382" transform="rotate(-80 84.7 327.2)">v5.147.10</text><text x="95.0" y="327.2" font-size="4" text-anchor="end" fill="#aa4400" transform="rotate(-80 95.0 327.2)">v5.148.0</text><text x="105.3" y="327.2" font-size="4" text-anchor="end" fill="#d6a382" transform="rotate(-80 105.3 327.2)">v5.148.1</text><text x="115.6" y="327.2" font-size="4" text-anchor="end" fill="#d6a382" transform="rotate(-80 115.6 327.2)">v5.148.2</text><text x="126.0" y="327.2" font-size="4" text-anchor="end" fill="#aa4400" transform="rotate(-80 126.0 327.2)">v5.149.1</text><text x="136.3" y="327.2" font-size="4" text-anchor="end" fill="#d6a382" transform="rotate(-80 136.3 327.2)">v5.149.2</text><text x="146.6" y="327.2" font-size="4" text-anchor="end" fill="#aa4400" transform="rotate(-80 146.6 327.2)">v5.150.0</text><text x="156.9" y="327.2" font-size="4" text-anchor="end" fill="#d6a382" transform="rotate(-80 156.9 327.2)">v5.150.1</text><text x="167.3" y="327.2" font-size="4" text-anchor="end" fill="#aa4400" transform="rotate(-80 167.3 327.2)">v5.151.0</text><text x="177.6" y="327.2" font-size="4" text-anchor="end" fill="#d6a382" transform="rotate(-80 177.6 327.2)">v5.151.1</text><text x="187.9" y="327.2" font-size="4" text-anchor="end" fill="#d6a382" transform="rotate(-80 187.9 327.2)">v5.151.2</text><text x="198.2" y="327.2" font-size="4" text-anchor="end" fill="#aa4400" transform="rotate(-80 198.2 327.2)">v5.152.0</text><text x="208.6" y="327.2" font-size="4" text-anchor="end" fill="#aa4400" transform="rotate(-80 208.6 327.2)">v5.153.0</text><text x="218.9" y="327.2" font-size="4" text-anchor="end" fill="#aa4400" transform="rotate(-80 218.9 327.2)">v5.154.0</text><text x="229.2" y="327.2" font-size="4" text-anchor="end" fill="#aa4400" transform="rotate(-80 229.2 327.2)">v5.155.0</text><text x="239.6" y="327.2" font-size="4" text-anchor="end" fill="#d6a382" transform="rotate(-80 239.6 327.2)">v5.155.1</text><text x="249.9" y="327.2" font-size="4" text-anchor="end" fill="#aa4400" transform="rotate(-80 249.9 327.2)">v5.156.0</text><text x="260.2" y="327.2" font-size="4" text-anchor="end" fill="#d6a382" transform="rotate(-80 260.2 327.2)">v5.156.1</text><text x="270.5" y="327.2" font-size="4" text-anchor="end" fill="#aa4400" transform="rotate(-80 270.5 327.2)">v5.157.0</text><text x="280.9" y="327.2" font-size="4" text-anchor="end" fill="#d6a382" transform="rotate(-80 280.9 327.2)">v5.157.1</text><text x="291.2" y="327.2" font-size="4" text-anchor="end" fill="#d6a382" transform="rotate(-80 291.2 327.2)">v5.157.2</text><text x="301.5" y="327.2" font-size="4" text-anchor="end" fill="#d6a382" transform="rotate(-80 301.5 327.2)">v5.157.3</text><text x="311.8" y="327.2" font-size="4" text-anchor="end" fill="#d6a382" transform="rotate(-80 311.8 327.2)">v5.157.4</text><text x="322.2" y="327.2" font-size="4" text-anchor="end" fill="#d6a382" transform="rotate(-80 322.2 327.2)">v5.157.5</text><text x="332.5" y="327.2" font-size="4" text-anchor="end" fill="#d6a382" transform="rotate(-80 332.5 327.2)">v5.157.6</text><text x="342.8" y="327.2" font-size="4" text-anchor="end" fill="#d6a382" transform="rotate(-80 342.8 327.2)">v5.157.7</text><text x="353.1" y="327.2" font-size="4" text-anchor="end" fill="#d6a382" transform="rotate(-80 353.1 327.2)">v5.157.8</text><text x="363.5" y="327.2" font-size="4" text-anchor="end" fill="#d6a382" transform="rotate(-80 363.5 327.2)">v5.157.9</text><text x="373.8" y="327.2" font-size="4" text-anchor="end" fill="#d6a382" transform="rotate(-80 373.8 327.2)">v5.157.10</text><text x="384.1" y="327.2" font-size="4" text-anchor="end" fill="#d6a382" transform="rotate(-80 384.1 327.2)">v5.157.11</text><text x="394.4" y="327.2" font-size="4" text-anchor="end" fill="#d6a382" transform="rotate(-80 394.4 327.2)">v5.157.12</text><text x="404.8" y="327.2" font-size="4" text-anchor="end" fill="#d6a382" transform="rotate(-80 404.8 327.2)">v5.157.13</text><text x="415.1" y="327.2" font-size="4" text-anchor="end" fill="#d6a382" transform="rotate(-80 415.1 327.2)">v5.157.14</text><text x="425.4" y="327.2" font-size="4" text-anchor="end" fill="#d6a382" transform="rotate(-80 425.4 327.2)">v5.157.15</text><text x="435.8" y="327.2" font-size="4" text-anchor="end" fill="#d6a382" transform="rotate(-80 435.8 327.2)">v5.157.16</text><text x="446.1" y="327.2" font-size="4" text-anchor="end" fill="#d6a382" transform="rotate(-80 446.1 327.2)">v5.157.17</text><text x="456.4" y="327.2" font-size="4" text-anchor="end" fill="#d6a382" transform="rotate(-80 456.4 327.2)">v5.157.18</text><text x="466.7" y="327.2" font-size="4" text-anchor="end" fill="#aa4400" transform="rotate(-80 466.7 327.2)">v5.158.0</text><text x="477.1" y="327.2" font-size="4" text-anchor="end" fill="#d6a382" transform="rotate(-80 477.1 327.2)">v5.158.1</text><text x="487.4" y="327.2" font-size="4" text-anchor="end" fill="#d6a382" transform="rotate(-80 487.4 327.2)">v5.158.2</text><text x="497.7" y="327.2" font-size="4" text-anchor="end" fill="#aa4400" transform="rotate(-80 497.7 327.2)">v5.159.0</text><text x="508.0" y="327.2" font-size="4" text-anchor="end" fill="#d6a382" transform="rotate(-80 508.0 327.2)">v5.159.1</text><text x="518.4" y="327.2" font-size="4" text-anchor="end" fill="#d6a382" transform="rotate(-80 518.4 327.2)">v5.159.2</text><text x="528.7" y="327.2" font-size="4" text-anchor="end" fill="#aa4400" transform="rotate(-80 528.7 327.2)">v5.160.0</text><text x="539.0" y="327.2" font-size="4" text-anchor="end" fill="#aa4400" transform="rotate(-80 539.0 327.2)">v5.161.0</text><text x="549.3" y="327.2" font-size="4" text-anchor="end" fill="#aa4400" transform="rotate(-80 549.3 327.2)">v5.162.0</text><text x="559.7" y="327.2" font-size="4" text-anchor="end" fill="#d6a382" transform="rotate(-80 559.7 327.2)">v5.162.1</text><text x="570.0" y="327.2" font-size="4" text-anchor="end" fill="#d6a382" transform="rotate(-80 570.0 327.2)">v5.162.2</text><path d="M64.0,84.4 L74.3,100.1 L84.7,94.2 L95.0,98.0 L105.3,97.7 L115.6,106.8 L126.0,95.0 L136.3,98.1 L146.6,106.4 L156.9,97.6 L167.3,94.2 L177.6,106.9 L187.9,98.6 L198.2,101.9 L208.6,96.2 L218.9,99.6 L229.2,98.4 L239.6,96.5 L249.9,96.9 L260.2,93.1 L270.5,98.0 L280.9,100.0 L291.2,101.7 L301.5,94.9 L311.8,110.1 L322.2,73.8 L332.5,70.2 L342.8,72.3 L353.1,76.0 L363.5,77.2 L373.8,75.6 L384.1,70.9 L394.4,71.4 L404.8,76.7 L415.1,76.3 L425.4,75.9 L435.8,74.6 L446.1,74.6 L456.4,78.1 L466.7,69.1 L477.1,75.4 L487.4,74.2 L497.7,71.6 L508.0,74.0 L518.4,70.3 L528.7,65.3 L539.0,75.5 L549.3,71.8 L559.7,69.7 L570.0,58.2" fill="none" stroke="#4477AA" stroke-width="1.6"/><circle cx="64.0" cy="84.4" r="2" fill="#4477AA"/><circle cx="74.3" cy="100.1" r="2" fill="#4477AA"/><circle cx="84.7" cy="94.2" r="2" fill="#4477AA"/><circle cx="95.0" cy="98.0" r="2" fill="#4477AA"/><circle cx="105.3" cy="97.7" r="2" fill="#4477AA"/><circle cx="115.6" cy="106.8" r="2" fill="#4477AA"/><circle cx="126.0" cy="95.0" r="2" fill="#4477AA"/><circle cx="136.3" cy="98.1" r="2" fill="#4477AA"/><circle cx="146.6" cy="106.4" r="2" fill="#4477AA"/><circle cx="156.9" cy="97.6" r="2" fill="#4477AA"/><circle cx="167.3" cy="94.2" r="2" fill="#4477AA"/><circle cx="177.6" cy="106.9" r="2" fill="#4477AA"/><circle cx="187.9" cy="98.6" r="2" fill="#4477AA"/><circle cx="198.2" cy="101.9" r="2" fill="#4477AA"/><circle cx="208.6" cy="96.2" r="2" fill="#4477AA"/><circle cx="218.9" cy="99.6" r="2" fill="#4477AA"/><circle cx="229.2" cy="98.4" r="2" fill="#4477AA"/><circle cx="239.6" cy="96.5" r="2" fill="#4477AA"/><circle cx="249.9" cy="96.9" r="2" fill="#4477AA"/><circle cx="260.2" cy="93.1" r="2" fill="#4477AA"/><circle cx="270.5" cy="98.0" r="2" fill="#4477AA"/><circle cx="280.9" cy="100.0" r="2" fill="#4477AA"/><circle cx="291.2" cy="101.7" r="2" fill="#4477AA"/><circle cx="301.5" cy="94.9" r="2" fill="#4477AA"/><circle cx="311.8" cy="110.1" r="2" fill="#4477AA"/><circle cx="322.2" cy="73.8" r="2" fill="#4477AA"/><circle cx="332.5" cy="70.2" r="2" fill="#4477AA"/><circle cx="342.8" cy="72.3" r="2" fill="#4477AA"/><circle cx="353.1" cy="76.0" r="2" fill="#4477AA"/><circle cx="363.5" cy="77.2" r="2" fill="#4477AA"/><circle cx="373.8" cy="75.6" r="2" fill="#4477AA"/><circle cx="384.1" cy="70.9" r="2" fill="#4477AA"/><circle cx="394.4" cy="71.4" r="2" fill="#4477AA"/><circle cx="404.8" cy="76.7" r="2" fill="#4477AA"/><circle cx="415.1" cy="76.3" r="2" fill="#4477AA"/><circle cx="425.4" cy="75.9" r="2" fill="#4477AA"/><circle cx="435.8" cy="74.6" r="2" fill="#4477AA"/><circle cx="446.1" cy="74.6" r="2" fill="#4477AA"/><circle cx="456.4" cy="78.1" r="2" fill="#4477AA"/><circle cx="466.7" cy="69.1" r="2" fill="#4477AA"/><circle cx="477.1" cy="75.4" r="2" fill="#4477AA"/><circle cx="487.4" cy="74.2" r="2" fill="#4477AA"/><circle cx="497.7" cy="71.6" r="2" fill="#4477AA"/><circle cx="508.0" cy="74.0" r="2" fill="#4477AA"/><circle cx="518.4" cy="70.3" r="2" fill="#4477AA"/><circle cx="528.7" cy="65.3" r="2" fill="#4477AA"/><circle cx="539.0" cy="75.5" r="2" fill="#4477AA"/><circle cx="549.3" cy="71.8" r="2" fill="#4477AA"/><circle cx="559.7" cy="69.7" r="2" fill="#4477AA"/><circle cx="570.0" cy="58.2" r="2" fill="#4477AA"/><rect x="580" y="34" width="10" height="10" fill="#4477AA"/><text x="594" y="43" font-size="10" fill="#444">chain-10</text><path d="M64.0,97.4 L74.3,105.1 L84.7,105.5 L95.0,103.9 L105.3,105.4 L115.6,113.6 L126.0,100.7 L136.3,106.6 L146.6,113.3 L156.9,99.9 L167.3,101.3 L177.6,108.7 L187.9,97.6 L198.2,109.5 L208.6,106.8 L218.9,114.8 L229.2,102.1 L239.6,108.4 L249.9,97.9 L260.2,106.1 L270.5,103.9 L280.9,104.1 L291.2,108.0 L301.5,102.0 L311.8,120.6 L322.2,79.0 L332.5,78.9 L342.8,80.4 L353.1,80.2 L363.5,78.4 L373.8,78.4 L384.1,73.8 L394.4,73.7 L404.8,79.0 L415.1,77.4 L425.4,75.1 L435.8,78.0 L446.1,78.8 L456.4,77.2 L466.7,72.5 L477.1,77.4 L487.4,77.9 L497.7,72.2 L508.0,76.9 L518.4,75.1 L528.7,76.6 L539.0,78.9 L549.3,81.1 L559.7,78.8 L570.0,60.1" fill="none" stroke="#EE6677" stroke-width="1.6"/><circle cx="64.0" cy="97.4" r="2" fill="#EE6677"/><circle cx="74.3" cy="105.1" r="2" fill="#EE6677"/><circle cx="84.7" cy="105.5" r="2" fill="#EE6677"/><circle cx="95.0" cy="103.9" r="2" fill="#EE6677"/><circle cx="105.3" cy="105.4" r="2" fill="#EE6677"/><circle cx="115.6" cy="113.6" r="2" fill="#EE6677"/><circle cx="126.0" cy="100.7" r="2" fill="#EE6677"/><circle cx="136.3" cy="106.6" r="2" fill="#EE6677"/><circle cx="146.6" cy="113.3" r="2" fill="#EE6677"/><circle cx="156.9" cy="99.9" r="2" fill="#EE6677"/><circle cx="167.3" cy="101.3" r="2" fill="#EE6677"/><circle cx="177.6" cy="108.7" r="2" fill="#EE6677"/><circle cx="187.9" cy="97.6" r="2" fill="#EE6677"/><circle cx="198.2" cy="109.5" r="2" fill="#EE6677"/><circle cx="208.6" cy="106.8" r="2" fill="#EE6677"/><circle cx="218.9" cy="114.8" r="2" fill="#EE6677"/><circle cx="229.2" cy="102.1" r="2" fill="#EE6677"/><circle cx="239.6" cy="108.4" r="2" fill="#EE6677"/><circle cx="249.9" cy="97.9" r="2" fill="#EE6677"/><circle cx="260.2" cy="106.1" r="2" fill="#EE6677"/><circle cx="270.5" cy="103.9" r="2" fill="#EE6677"/><circle cx="280.9" cy="104.1" r="2" fill="#EE6677"/><circle cx="291.2" cy="108.0" r="2" fill="#EE6677"/><circle cx="301.5" cy="102.0" r="2" fill="#EE6677"/><circle cx="311.8" cy="120.6" r="2" fill="#EE6677"/><circle cx="322.2" cy="79.0" r="2" fill="#EE6677"/><circle cx="332.5" cy="78.9" r="2" fill="#EE6677"/><circle cx="342.8" cy="80.4" r="2" fill="#EE6677"/><circle cx="353.1" cy="80.2" r="2" fill="#EE6677"/><circle cx="363.5" cy="78.4" r="2" fill="#EE6677"/><circle cx="373.8" cy="78.4" r="2" fill="#EE6677"/><circle cx="384.1" cy="73.8" r="2" fill="#EE6677"/><circle cx="394.4" cy="73.7" r="2" fill="#EE6677"/><circle cx="404.8" cy="79.0" r="2" fill="#EE6677"/><circle cx="415.1" cy="77.4" r="2" fill="#EE6677"/><circle cx="425.4" cy="75.1" r="2" fill="#EE6677"/><circle cx="435.8" cy="78.0" r="2" fill="#EE6677"/><circle cx="446.1" cy="78.8" r="2" fill="#EE6677"/><circle cx="456.4" cy="77.2" r="2" fill="#EE6677"/><circle cx="466.7" cy="72.5" r="2" fill="#EE6677"/><circle cx="477.1" cy="77.4" r="2" fill="#EE6677"/><circle cx="487.4" cy="77.9" r="2" fill="#EE6677"/><circle cx="497.7" cy="72.2" r="2" fill="#EE6677"/><circle cx="508.0" cy="76.9" r="2" fill="#EE6677"/><circle cx="518.4" cy="75.1" r="2" fill="#EE6677"/><circle cx="528.7" cy="76.6" r="2" fill="#EE6677"/><circle cx="539.0" cy="78.9" r="2" fill="#EE6677"/><circle cx="549.3" cy="81.1" r="2" fill="#EE6677"/><circle cx="559.7" cy="78.8" r="2" fill="#EE6677"/><circle cx="570.0" cy="60.1" r="2" fill="#EE6677"/><rect x="580" y="49" width="10" height="10" fill="#EE6677"/><text x="594" y="58" font-size="10" fill="#444">chain-50</text><path d="M64.0,99.5 L74.3,109.1 L84.7,106.0 L95.0,105.2 L105.3,105.1 L115.6,116.0 L126.0,104.0 L136.3,106.0 L146.6,117.3 L156.9,107.5 L167.3,106.5 L177.6,113.9 L187.9,106.5 L198.2,115.7 L208.6,115.2 L218.9,117.1 L229.2,105.2 L239.6,108.3 L249.9,105.0 L260.2,108.1 L270.5,106.8 L280.9,106.5 L291.2,112.5 L301.5,107.1 L311.8,118.3 L322.2,85.9 L332.5,80.7 L342.8,79.0 L353.1,84.0 L363.5,80.7 L373.8,78.4 L384.1,84.3 L394.4,80.4 L404.8,82.7 L415.1,79.2 L425.4,83.2 L435.8,78.1 L446.1,78.4 L456.4,81.5 L466.7,80.2 L477.1,79.6 L487.4,80.6 L497.7,73.0 L508.0,81.9 L518.4,78.6 L528.7,79.8 L539.0,86.6 L549.3,84.2 L559.7,84.9 L570.0,66.3" fill="none" stroke="#228833" stroke-width="1.6"/><circle cx="64.0" cy="99.5" r="2" fill="#228833"/><circle cx="74.3" cy="109.1" r="2" fill="#228833"/><circle cx="84.7" cy="106.0" r="2" fill="#228833"/><circle cx="95.0" cy="105.2" r="2" fill="#228833"/><circle cx="105.3" cy="105.1" r="2" fill="#228833"/><circle cx="115.6" cy="116.0" r="2" fill="#228833"/><circle cx="126.0" cy="104.0" r="2" fill="#228833"/><circle cx="136.3" cy="106.0" r="2" fill="#228833"/><circle cx="146.6" cy="117.3" r="2" fill="#228833"/><circle cx="156.9" cy="107.5" r="2" fill="#228833"/><circle cx="167.3" cy="106.5" r="2" fill="#228833"/><circle cx="177.6" cy="113.9" r="2" fill="#228833"/><circle cx="187.9" cy="106.5" r="2" fill="#228833"/><circle cx="198.2" cy="115.7" r="2" fill="#228833"/><circle cx="208.6" cy="115.2" r="2" fill="#228833"/><circle cx="218.9" cy="117.1" r="2" fill="#228833"/><circle cx="229.2" cy="105.2" r="2" fill="#228833"/><circle cx="239.6" cy="108.3" r="2" fill="#228833"/><circle cx="249.9" cy="105.0" r="2" fill="#228833"/><circle cx="260.2" cy="108.1" r="2" fill="#228833"/><circle cx="270.5" cy="106.8" r="2" fill="#228833"/><circle cx="280.9" cy="106.5" r="2" fill="#228833"/><circle cx="291.2" cy="112.5" r="2" fill="#228833"/><circle cx="301.5" cy="107.1" r="2" fill="#228833"/><circle cx="311.8" cy="118.3" r="2" fill="#228833"/><circle cx="322.2" cy="85.9" r="2" fill="#228833"/><circle cx="332.5" cy="80.7" r="2" fill="#228833"/><circle cx="342.8" cy="79.0" r="2" fill="#228833"/><circle cx="353.1" cy="84.0" r="2" fill="#228833"/><circle cx="363.5" cy="80.7" r="2" fill="#228833"/><circle cx="373.8" cy="78.4" r="2" fill="#228833"/><circle cx="384.1" cy="84.3" r="2" fill="#228833"/><circle cx="394.4" cy="80.4" r="2" fill="#228833"/><circle cx="404.8" cy="82.7" r="2" fill="#228833"/><circle cx="415.1" cy="79.2" r="2" fill="#228833"/><circle cx="425.4" cy="83.2" r="2" fill="#228833"/><circle cx="435.8" cy="78.1" r="2" fill="#228833"/><circle cx="446.1" cy="78.4" r="2" fill="#228833"/><circle cx="456.4" cy="81.5" r="2" fill="#228833"/><circle cx="466.7" cy="80.2" r="2" fill="#228833"/><circle cx="477.1" cy="79.6" r="2" fill="#228833"/><circle cx="487.4" cy="80.6" r="2" fill="#228833"/><circle cx="497.7" cy="73.0" r="2" fill="#228833"/><circle cx="508.0" cy="81.9" r="2" fill="#228833"/><circle cx="518.4" cy="78.6" r="2" fill="#228833"/><circle cx="528.7" cy="79.8" r="2" fill="#228833"/><circle cx="539.0" cy="86.6" r="2" fill="#228833"/><circle cx="549.3" cy="84.2" r="2" fill="#228833"/><circle cx="559.7" cy="84.9" r="2" fill="#228833"/><circle cx="570.0" cy="66.3" r="2" fill="#228833"/><rect x="580" y="64" width="10" height="10" fill="#228833"/><text x="594" y="73" font-size="10" fill="#444">chain-200</text><path d="M64.0,108.4 L74.3,116.6 L84.7,118.4 L95.0,111.8 L105.3,114.8 L115.6,126.1 L126.0,113.3 L136.3,113.5 L146.6,129.6 L156.9,114.0 L167.3,115.0 L177.6,120.2 L187.9,114.6 L198.2,120.6 L208.6,119.0 L218.9,126.2 L229.2,116.2 L239.6,116.2 L249.9,112.6 L260.2,118.5 L270.5,123.5 L280.9,115.6 L291.2,124.2 L301.5,119.9 L311.8,129.2 L322.2,93.5 L332.5,94.0 L342.8,89.6 L353.1,92.7 L363.5,94.3 L373.8,96.3 L384.1,90.4 L394.4,89.1 L404.8,88.6 L415.1,88.5 L425.4,88.9 L435.8,86.1 L446.1,84.4 L456.4,88.7 L466.7,86.2 L477.1,88.5 L487.4,86.1 L497.7,83.7 L508.0,91.1 L518.4,92.2 L528.7,95.4 L539.0,93.6 L549.3,89.2 L559.7,93.8 L570.0,79.5" fill="none" stroke="#CCBB44" stroke-width="1.6"/><circle cx="64.0" cy="108.4" r="2" fill="#CCBB44"/><circle cx="74.3" cy="116.6" r="2" fill="#CCBB44"/><circle cx="84.7" cy="118.4" r="2" fill="#CCBB44"/><circle cx="95.0" cy="111.8" r="2" fill="#CCBB44"/><circle cx="105.3" cy="114.8" r="2" fill="#CCBB44"/><circle cx="115.6" cy="126.1" r="2" fill="#CCBB44"/><circle cx="126.0" cy="113.3" r="2" fill="#CCBB44"/><circle cx="136.3" cy="113.5" r="2" fill="#CCBB44"/><circle cx="146.6" cy="129.6" r="2" fill="#CCBB44"/><circle cx="156.9" cy="114.0" r="2" fill="#CCBB44"/><circle cx="167.3" cy="115.0" r="2" fill="#CCBB44"/><circle cx="177.6" cy="120.2" r="2" fill="#CCBB44"/><circle cx="187.9" cy="114.6" r="2" fill="#CCBB44"/><circle cx="198.2" cy="120.6" r="2" fill="#CCBB44"/><circle cx="208.6" cy="119.0" r="2" fill="#CCBB44"/><circle cx="218.9" cy="126.2" r="2" fill="#CCBB44"/><circle cx="229.2" cy="116.2" r="2" fill="#CCBB44"/><circle cx="239.6" cy="116.2" r="2" fill="#CCBB44"/><circle cx="249.9" cy="112.6" r="2" fill="#CCBB44"/><circle cx="260.2" cy="118.5" r="2" fill="#CCBB44"/><circle cx="270.5" cy="123.5" r="2" fill="#CCBB44"/><circle cx="280.9" cy="115.6" r="2" fill="#CCBB44"/><circle cx="291.2" cy="124.2" r="2" fill="#CCBB44"/><circle cx="301.5" cy="119.9" r="2" fill="#CCBB44"/><circle cx="311.8" cy="129.2" r="2" fill="#CCBB44"/><circle cx="322.2" cy="93.5" r="2" fill="#CCBB44"/><circle cx="332.5" cy="94.0" r="2" fill="#CCBB44"/><circle cx="342.8" cy="89.6" r="2" fill="#CCBB44"/><circle cx="353.1" cy="92.7" r="2" fill="#CCBB44"/><circle cx="363.5" cy="94.3" r="2" fill="#CCBB44"/><circle cx="373.8" cy="96.3" r="2" fill="#CCBB44"/><circle cx="384.1" cy="90.4" r="2" fill="#CCBB44"/><circle cx="394.4" cy="89.1" r="2" fill="#CCBB44"/><circle cx="404.8" cy="88.6" r="2" fill="#CCBB44"/><circle cx="415.1" cy="88.5" r="2" fill="#CCBB44"/><circle cx="425.4" cy="88.9" r="2" fill="#CCBB44"/><circle cx="435.8" cy="86.1" r="2" fill="#CCBB44"/><circle cx="446.1" cy="84.4" r="2" fill="#CCBB44"/><circle cx="456.4" cy="88.7" r="2" fill="#CCBB44"/><circle cx="466.7" cy="86.2" r="2" fill="#CCBB44"/><circle cx="477.1" cy="88.5" r="2" fill="#CCBB44"/><circle cx="487.4" cy="86.1" r="2" fill="#CCBB44"/><circle cx="497.7" cy="83.7" r="2" fill="#CCBB44"/><circle cx="508.0" cy="91.1" r="2" fill="#CCBB44"/><circle cx="518.4" cy="92.2" r="2" fill="#CCBB44"/><circle cx="528.7" cy="95.4" r="2" fill="#CCBB44"/><circle cx="539.0" cy="93.6" r="2" fill="#CCBB44"/><circle cx="549.3" cy="89.2" r="2" fill="#CCBB44"/><circle cx="559.7" cy="93.8" r="2" fill="#CCBB44"/><circle cx="570.0" cy="79.5" r="2" fill="#CCBB44"/><rect x="580" y="79" width="10" height="10" fill="#CCBB44"/><text x="594" y="88" font-size="10" fill="#444">chain-1000</text><path d="M64.0,239.9 L74.3,242.6 L84.7,242.9 L95.0,241.2 L105.3,241.3 L115.6,246.0 L126.0,240.1 L136.3,241.6 L146.6,246.1 L156.9,242.3 L167.3,241.0 L177.6,244.3 L187.9,242.1 L198.2,245.4 L208.6,242.6 L218.9,245.7 L229.2,241.2 L239.6,244.3 L249.9,241.1 L260.2,243.7 L270.5,241.1 L280.9,243.2 L291.2,246.3 L301.5,241.7 L311.8,252.4 L322.2,218.5 L332.5,219.6 L342.8,219.2 L353.1,218.7 L363.5,219.6 L373.8,220.5 L384.1,219.7 L394.4,219.0 L404.8,220.8 L415.1,219.6 L425.4,218.6 L435.8,218.7 L446.1,218.3 L456.4,219.8 L466.7,220.9 L477.1,219.8 L487.4,221.0 L497.7,219.5 L508.0,221.2 L518.4,219.6 L528.7,218.9 L539.0,220.8 L549.3,220.3 L559.7,220.7 L570.0,217.1" fill="none" stroke="#66CCEE" stroke-width="1.6"/><circle cx="64.0" cy="239.9" r="2" fill="#66CCEE"/><circle cx="74.3" cy="242.6" r="2" fill="#66CCEE"/><circle cx="84.7" cy="242.9" r="2" fill="#66CCEE"/><circle cx="95.0" cy="241.2" r="2" fill="#66CCEE"/><circle cx="105.3" cy="241.3" r="2" fill="#66CCEE"/><circle cx="115.6" cy="246.0" r="2" fill="#66CCEE"/><circle cx="126.0" cy="240.1" r="2" fill="#66CCEE"/><circle cx="136.3" cy="241.6" r="2" fill="#66CCEE"/><circle cx="146.6" cy="246.1" r="2" fill="#66CCEE"/><circle cx="156.9" cy="242.3" r="2" fill="#66CCEE"/><circle cx="167.3" cy="241.0" r="2" fill="#66CCEE"/><circle cx="177.6" cy="244.3" r="2" fill="#66CCEE"/><circle cx="187.9" cy="242.1" r="2" fill="#66CCEE"/><circle cx="198.2" cy="245.4" r="2" fill="#66CCEE"/><circle cx="208.6" cy="242.6" r="2" fill="#66CCEE"/><circle cx="218.9" cy="245.7" r="2" fill="#66CCEE"/><circle cx="229.2" cy="241.2" r="2" fill="#66CCEE"/><circle cx="239.6" cy="244.3" r="2" fill="#66CCEE"/><circle cx="249.9" cy="241.1" r="2" fill="#66CCEE"/><circle cx="260.2" cy="243.7" r="2" fill="#66CCEE"/><circle cx="270.5" cy="241.1" r="2" fill="#66CCEE"/><circle cx="280.9" cy="243.2" r="2" fill="#66CCEE"/><circle cx="291.2" cy="246.3" r="2" fill="#66CCEE"/><circle cx="301.5" cy="241.7" r="2" fill="#66CCEE"/><circle cx="311.8" cy="252.4" r="2" fill="#66CCEE"/><circle cx="322.2" cy="218.5" r="2" fill="#66CCEE"/><circle cx="332.5" cy="219.6" r="2" fill="#66CCEE"/><circle cx="342.8" cy="219.2" r="2" fill="#66CCEE"/><circle cx="353.1" cy="218.7" r="2" fill="#66CCEE"/><circle cx="363.5" cy="219.6" r="2" fill="#66CCEE"/><circle cx="373.8" cy="220.5" r="2" fill="#66CCEE"/><circle cx="384.1" cy="219.7" r="2" fill="#66CCEE"/><circle cx="394.4" cy="219.0" r="2" fill="#66CCEE"/><circle cx="404.8" cy="220.8" r="2" fill="#66CCEE"/><circle cx="415.1" cy="219.6" r="2" fill="#66CCEE"/><circle cx="425.4" cy="218.6" r="2" fill="#66CCEE"/><circle cx="435.8" cy="218.7" r="2" fill="#66CCEE"/><circle cx="446.1" cy="218.3" r="2" fill="#66CCEE"/><circle cx="456.4" cy="219.8" r="2" fill="#66CCEE"/><circle cx="466.7" cy="220.9" r="2" fill="#66CCEE"/><circle cx="477.1" cy="219.8" r="2" fill="#66CCEE"/><circle cx="487.4" cy="221.0" r="2" fill="#66CCEE"/><circle cx="497.7" cy="219.5" r="2" fill="#66CCEE"/><circle cx="508.0" cy="221.2" r="2" fill="#66CCEE"/><circle cx="518.4" cy="219.6" r="2" fill="#66CCEE"/><circle cx="528.7" cy="218.9" r="2" fill="#66CCEE"/><circle cx="539.0" cy="220.8" r="2" fill="#66CCEE"/><circle cx="549.3" cy="220.3" r="2" fill="#66CCEE"/><circle cx="559.7" cy="220.7" r="2" fill="#66CCEE"/><circle cx="570.0" cy="217.1" r="2" fill="#66CCEE"/><rect x="580" y="94" width="10" height="10" fill="#66CCEE"/><text x="594" y="103" font-size="10" fill="#444">dense-10</text><path d="M64.0,289.9 L74.3,290.6 L84.7,290.4 L95.0,290.2 L105.3,290.2 L115.6,291.6 L126.0,290.2 L136.3,290.2 L146.6,291.6 L156.9,290.1 L167.3,290.1 L177.6,291.1 L187.9,290.2 L198.2,290.9 L208.6,290.8 L218.9,291.3 L229.2,290.1 L239.6,290.9 L249.9,290.1 L260.2,290.7 L270.5,290.3 L280.9,290.9 L291.2,291.6 L301.5,290.3 L311.8,292.8 L322.2,285.4 L332.5,285.3 L342.8,285.8 L353.1,285.8 L363.5,285.6 L373.8,286.0 L384.1,285.5 L394.4,285.7 L404.8,285.7 L415.1,285.5 L425.4,285.7 L435.8,285.5 L446.1,285.6 L456.4,285.5 L466.7,285.4 L477.1,285.8 L487.4,285.5 L497.7,285.4 L508.0,285.5 L518.4,285.7 L528.7,285.8 L539.0,285.9 L549.3,286.1 L559.7,285.8 L570.0,285.0" fill="none" stroke="#AA3377" stroke-width="1.6"/><circle cx="64.0" cy="289.9" r="2" fill="#AA3377"/><circle cx="74.3" cy="290.6" r="2" fill="#AA3377"/><circle cx="84.7" cy="290.4" r="2" fill="#AA3377"/><circle cx="95.0" cy="290.2" r="2" fill="#AA3377"/><circle cx="105.3" cy="290.2" r="2" fill="#AA3377"/><circle cx="115.6" cy="291.6" r="2" fill="#AA3377"/><circle cx="126.0" cy="290.2" r="2" fill="#AA3377"/><circle cx="136.3" cy="290.2" r="2" fill="#AA3377"/><circle cx="146.6" cy="291.6" r="2" fill="#AA3377"/><circle cx="156.9" cy="290.1" r="2" fill="#AA3377"/><circle cx="167.3" cy="290.1" r="2" fill="#AA3377"/><circle cx="177.6" cy="291.1" r="2" fill="#AA3377"/><circle cx="187.9" cy="290.2" r="2" fill="#AA3377"/><circle cx="198.2" cy="290.9" r="2" fill="#AA3377"/><circle cx="208.6" cy="290.8" r="2" fill="#AA3377"/><circle cx="218.9" cy="291.3" r="2" fill="#AA3377"/><circle cx="229.2" cy="290.1" r="2" fill="#AA3377"/><circle cx="239.6" cy="290.9" r="2" fill="#AA3377"/><circle cx="249.9" cy="290.1" r="2" fill="#AA3377"/><circle cx="260.2" cy="290.7" r="2" fill="#AA3377"/><circle cx="270.5" cy="290.3" r="2" fill="#AA3377"/><circle cx="280.9" cy="290.9" r="2" fill="#AA3377"/><circle cx="291.2" cy="291.6" r="2" fill="#AA3377"/><circle cx="301.5" cy="290.3" r="2" fill="#AA3377"/><circle cx="311.8" cy="292.8" r="2" fill="#AA3377"/><circle cx="322.2" cy="285.4" r="2" fill="#AA3377"/><circle cx="332.5" cy="285.3" r="2" fill="#AA3377"/><circle cx="342.8" cy="285.8" r="2" fill="#AA3377"/><circle cx="353.1" cy="285.8" r="2" fill="#AA3377"/><circle cx="363.5" cy="285.6" r="2" fill="#AA3377"/><circle cx="373.8" cy="286.0" r="2" fill="#AA3377"/><circle cx="384.1" cy="285.5" r="2" fill="#AA3377"/><circle cx="394.4" cy="285.7" r="2" fill="#AA3377"/><circle cx="404.8" cy="285.7" r="2" fill="#AA3377"/><circle cx="415.1" cy="285.5" r="2" fill="#AA3377"/><circle cx="425.4" cy="285.7" r="2" fill="#AA3377"/><circle cx="435.8" cy="285.5" r="2" fill="#AA3377"/><circle cx="446.1" cy="285.6" r="2" fill="#AA3377"/><circle cx="456.4" cy="285.5" r="2" fill="#AA3377"/><circle cx="466.7" cy="285.4" r="2" fill="#AA3377"/><circle cx="477.1" cy="285.8" r="2" fill="#AA3377"/><circle cx="487.4" cy="285.5" r="2" fill="#AA3377"/><circle cx="497.7" cy="285.4" r="2" fill="#AA3377"/><circle cx="508.0" cy="285.5" r="2" fill="#AA3377"/><circle cx="518.4" cy="285.7" r="2" fill="#AA3377"/><circle cx="528.7" cy="285.8" r="2" fill="#AA3377"/><circle cx="539.0" cy="285.9" r="2" fill="#AA3377"/><circle cx="549.3" cy="286.1" r="2" fill="#AA3377"/><circle cx="559.7" cy="285.8" r="2" fill="#AA3377"/><circle cx="570.0" cy="285.0" r="2" fill="#AA3377"/><rect x="580" y="109" width="10" height="10" fill="#AA3377"/><text x="594" y="118" font-size="10" fill="#444">dense-50</text><path d="M64.0,299.1 L74.3,299.2 L84.7,299.3 L95.0,299.2 L105.3,299.2 L115.6,299.5 L126.0,299.7 L136.3,299.5 L146.6,299.7 L156.9,299.4 L167.3,299.2 L177.6,299.6 L187.9,299.4 L198.2,299.8 L208.6,299.6 L218.9,299.6 L229.2,299.5 L239.6,299.3 L249.9,299.3 L260.2,299.3 L270.5,299.4 L280.9,299.1 L291.2,299.8 L301.5,299.7 L311.8,299.8 L322.2,297.6 L332.5,297.5 L342.8,297.6 L353.1,297.6 L363.5,297.6 L373.8,297.7 L384.1,297.7 L394.4,297.6 L404.8,297.6 L415.1,297.6 L425.4,297.7 L435.8,297.6 L446.1,297.6 L456.4,297.7 L466.7,297.5 L477.1,297.6 L487.4,297.6 L497.7,297.6 L508.0,297.6 L518.4,297.6 L528.7,297.6 L539.0,297.6 L549.3,297.6 L559.7,297.6 L570.0,297.4" fill="none" stroke="#BBBBBB" stroke-width="1.6"/><circle cx="64.0" cy="299.1" r="2" fill="#BBBBBB"/><circle cx="74.3" cy="299.2" r="2" fill="#BBBBBB"/><circle cx="84.7" cy="299.3" r="2" fill="#BBBBBB"/><circle cx="95.0" cy="299.2" r="2" fill="#BBBBBB"/><circle cx="105.3" cy="299.2" r="2" fill="#BBBBBB"/><circle cx="115.6" cy="299.5" r="2" fill="#BBBBBB"/><circle cx="126.0" cy="299.7" r="2" fill="#BBBBBB"/><circle cx="136.3" cy="299.5" r="2" fill="#BBBBBB"/><circle cx="146.6" cy="299.7" r="2" fill="#BBBBBB"/><circle cx="156.9" cy="299.4" r="2" fill="#BBBBBB"/><circle cx="167.3" cy="299.2" r="2" fill="#BBBBBB"/><circle cx="177.6" cy="299.6" r="2" fill="#BBBBBB"/><circle cx="187.9" cy="299.4" r="2" fill="#BBBBBB"/><circle cx="198.2" cy="299.8" r="2" fill="#BBBBBB"/><circle cx="208.6" cy="299.6" r="2" fill="#BBBBBB"/><circle cx="218.9" cy="299.6" r="2" fill="#BBBBBB"/><circle cx="229.2" cy="299.5" r="2" fill="#BBBBBB"/><circle cx="239.6" cy="299.3" r="2" fill="#BBBBBB"/><circle cx="249.9" cy="299.3" r="2" fill="#BBBBBB"/><circle cx="260.2" cy="299.3" r="2" fill="#BBBBBB"/><circle cx="270.5" cy="299.4" r="2" fill="#BBBBBB"/><circle cx="280.9" cy="299.1" r="2" fill="#BBBBBB"/><circle cx="291.2" cy="299.8" r="2" fill="#BBBBBB"/><circle cx="301.5" cy="299.7" r="2" fill="#BBBBBB"/><circle cx="311.8" cy="299.8" r="2" fill="#BBBBBB"/><circle cx="322.2" cy="297.6" r="2" fill="#BBBBBB"/><circle cx="332.5" cy="297.5" r="2" fill="#BBBBBB"/><circle cx="342.8" cy="297.6" r="2" fill="#BBBBBB"/><circle cx="353.1" cy="297.6" r="2" fill="#BBBBBB"/><circle cx="363.5" cy="297.6" r="2" fill="#BBBBBB"/><circle cx="373.8" cy="297.7" r="2" fill="#BBBBBB"/><circle cx="384.1" cy="297.7" r="2" fill="#BBBBBB"/><circle cx="394.4" cy="297.6" r="2" fill="#BBBBBB"/><circle cx="404.8" cy="297.6" r="2" fill="#BBBBBB"/><circle cx="415.1" cy="297.6" r="2" fill="#BBBBBB"/><circle cx="425.4" cy="297.7" r="2" fill="#BBBBBB"/><circle cx="435.8" cy="297.6" r="2" fill="#BBBBBB"/><circle cx="446.1" cy="297.6" r="2" fill="#BBBBBB"/><circle cx="456.4" cy="297.7" r="2" fill="#BBBBBB"/><circle cx="466.7" cy="297.5" r="2" fill="#BBBBBB"/><circle cx="477.1" cy="297.6" r="2" fill="#BBBBBB"/><circle cx="487.4" cy="297.6" r="2" fill="#BBBBBB"/><circle cx="497.7" cy="297.6" r="2" fill="#BBBBBB"/><circle cx="508.0" cy="297.6" r="2" fill="#BBBBBB"/><circle cx="518.4" cy="297.6" r="2" fill="#BBBBBB"/><circle cx="528.7" cy="297.6" r="2" fill="#BBBBBB"/><circle cx="539.0" cy="297.6" r="2" fill="#BBBBBB"/><circle cx="549.3" cy="297.6" r="2" fill="#BBBBBB"/><circle cx="559.7" cy="297.6" r="2" fill="#BBBBBB"/><circle cx="570.0" cy="297.4" r="2" fill="#BBBBBB"/><rect x="580" y="124" width="10" height="10" fill="#BBBBBB"/><text x="594" y="133" font-size="10" fill="#444">dense-200</text><path d="M64.0,278.6 L74.3,279.7 L84.7,279.5 L95.0,279.4 L105.3,279.3 L115.6,280.7 L126.0,278.7 L136.3,279.1 L146.6,280.8 L156.9,278.9 L167.3,278.5 L177.6,280.1 L187.9,278.8 L198.2,279.9 L208.6,279.3 L218.9,280.7 L229.2,278.6 L239.6,279.9 L249.9,278.7 L260.2,279.4 L270.5,278.8 L280.9,279.4 L291.2,279.9 L301.5,278.7 L311.8,281.5 L322.2,270.0 L332.5,269.7 L342.8,270.4 L353.1,270.5 L363.5,271.2 L373.8,270.7 L384.1,270.4 L394.4,270.2 L404.8,271.0 L415.1,270.2 L425.4,270.0 L435.8,270.4 L446.1,270.2 L456.4,270.5 L466.7,269.9 L477.1,270.4 L487.4,270.5 L497.7,270.0 L508.0,270.5 L518.4,270.6 L528.7,270.1 L539.0,270.7 L549.3,270.3 L559.7,270.2 L570.0,268.7" fill="none" stroke="#222255" stroke-width="1.6"/><circle cx="64.0" cy="278.6" r="2" fill="#222255"/><circle cx="74.3" cy="279.7" r="2" fill="#222255"/><circle cx="84.7" cy="279.5" r="2" fill="#222255"/><circle cx="95.0" cy="279.4" r="2" fill="#222255"/><circle cx="105.3" cy="279.3" r="2" fill="#222255"/><circle cx="115.6" cy="280.7" r="2" fill="#222255"/><circle cx="126.0" cy="278.7" r="2" fill="#222255"/><circle cx="136.3" cy="279.1" r="2" fill="#222255"/><circle cx="146.6" cy="280.8" r="2" fill="#222255"/><circle cx="156.9" cy="278.9" r="2" fill="#222255"/><circle cx="167.3" cy="278.5" r="2" fill="#222255"/><circle cx="177.6" cy="280.1" r="2" fill="#222255"/><circle cx="187.9" cy="278.8" r="2" fill="#222255"/><circle cx="198.2" cy="279.9" r="2" fill="#222255"/><circle cx="208.6" cy="279.3" r="2" fill="#222255"/><circle cx="218.9" cy="280.7" r="2" fill="#222255"/><circle cx="229.2" cy="278.6" r="2" fill="#222255"/><circle cx="239.6" cy="279.9" r="2" fill="#222255"/><circle cx="249.9" cy="278.7" r="2" fill="#222255"/><circle cx="260.2" cy="279.4" r="2" fill="#222255"/><circle cx="270.5" cy="278.8" r="2" fill="#222255"/><circle cx="280.9" cy="279.4" r="2" fill="#222255"/><circle cx="291.2" cy="279.9" r="2" fill="#222255"/><circle cx="301.5" cy="278.7" r="2" fill="#222255"/><circle cx="311.8" cy="281.5" r="2" fill="#222255"/><circle cx="322.2" cy="270.0" r="2" fill="#222255"/><circle cx="332.5" cy="269.7" r="2" fill="#222255"/><circle cx="342.8" cy="270.4" r="2" fill="#222255"/><circle cx="353.1" cy="270.5" r="2" fill="#222255"/><circle cx="363.5" cy="271.2" r="2" fill="#222255"/><circle cx="373.8" cy="270.7" r="2" fill="#222255"/><circle cx="384.1" cy="270.4" r="2" fill="#222255"/><circle cx="394.4" cy="270.2" r="2" fill="#222255"/><circle cx="404.8" cy="271.0" r="2" fill="#222255"/><circle cx="415.1" cy="270.2" r="2" fill="#222255"/><circle cx="425.4" cy="270.0" r="2" fill="#222255"/><circle cx="435.8" cy="270.4" r="2" fill="#222255"/><circle cx="446.1" cy="270.2" r="2" fill="#222255"/><circle cx="456.4" cy="270.5" r="2" fill="#222255"/><circle cx="466.7" cy="269.9" r="2" fill="#222255"/><circle cx="477.1" cy="270.4" r="2" fill="#222255"/><circle cx="487.4" cy="270.5" r="2" fill="#222255"/><circle cx="497.7" cy="270.0" r="2" fill="#222255"/><circle cx="508.0" cy="270.5" r="2" fill="#222255"/><circle cx="518.4" cy="270.6" r="2" fill="#222255"/><circle cx="528.7" cy="270.1" r="2" fill="#222255"/><circle cx="539.0" cy="270.7" r="2" fill="#222255"/><circle cx="549.3" cy="270.3" r="2" fill="#222255"/><circle cx="559.7" cy="270.2" r="2" fill="#222255"/><circle cx="570.0" cy="268.7" r="2" fill="#222255"/><rect x="580" y="139" width="10" height="10" fill="#222255"/><text x="594" y="148" font-size="10" fill="#444">hub-50</text><path d="M64.0,295.5 L74.3,295.8 L84.7,295.9 L95.0,295.7 L105.3,295.7 L115.6,296.5 L126.0,295.6 L136.3,295.7 L146.6,296.4 L156.9,295.8 L167.3,295.7 L177.6,296.0 L187.9,295.7 L198.2,296.1 L208.6,295.9 L218.9,296.3 L229.2,295.6 L239.6,296.1 L249.9,295.6 L260.2,295.8 L270.5,295.6 L280.9,295.8 L291.2,296.1 L301.5,295.7 L311.8,296.7 L322.2,293.2 L332.5,293.0 L342.8,293.3 L353.1,293.3 L363.5,293.3 L373.8,293.5 L384.1,293.3 L394.4,293.2 L404.8,293.3 L415.1,293.3 L425.4,293.2 L435.8,293.2 L446.1,293.3 L456.4,293.3 L466.7,293.2 L477.1,293.2 L487.4,293.2 L497.7,293.1 L508.0,293.2 L518.4,293.2 L528.7,293.2 L539.0,293.3 L549.3,293.3 L559.7,293.3 L570.0,292.7" fill="none" stroke="#225555" stroke-width="1.6"/><circle cx="64.0" cy="295.5" r="2" fill="#225555"/><circle cx="74.3" cy="295.8" r="2" fill="#225555"/><circle cx="84.7" cy="295.9" r="2" fill="#225555"/><circle cx="95.0" cy="295.7" r="2" fill="#225555"/><circle cx="105.3" cy="295.7" r="2" fill="#225555"/><circle cx="115.6" cy="296.5" r="2" fill="#225555"/><circle cx="126.0" cy="295.6" r="2" fill="#225555"/><circle cx="136.3" cy="295.7" r="2" fill="#225555"/><circle cx="146.6" cy="296.4" r="2" fill="#225555"/><circle cx="156.9" cy="295.8" r="2" fill="#225555"/><circle cx="167.3" cy="295.7" r="2" fill="#225555"/><circle cx="177.6" cy="296.0" r="2" fill="#225555"/><circle cx="187.9" cy="295.7" r="2" fill="#225555"/><circle cx="198.2" cy="296.1" r="2" fill="#225555"/><circle cx="208.6" cy="295.9" r="2" fill="#225555"/><circle cx="218.9" cy="296.3" r="2" fill="#225555"/><circle cx="229.2" cy="295.6" r="2" fill="#225555"/><circle cx="239.6" cy="296.1" r="2" fill="#225555"/><circle cx="249.9" cy="295.6" r="2" fill="#225555"/><circle cx="260.2" cy="295.8" r="2" fill="#225555"/><circle cx="270.5" cy="295.6" r="2" fill="#225555"/><circle cx="280.9" cy="295.8" r="2" fill="#225555"/><circle cx="291.2" cy="296.1" r="2" fill="#225555"/><circle cx="301.5" cy="295.7" r="2" fill="#225555"/><circle cx="311.8" cy="296.7" r="2" fill="#225555"/><circle cx="322.2" cy="293.2" r="2" fill="#225555"/><circle cx="332.5" cy="293.0" r="2" fill="#225555"/><circle cx="342.8" cy="293.3" r="2" fill="#225555"/><circle cx="353.1" cy="293.3" r="2" fill="#225555"/><circle cx="363.5" cy="293.3" r="2" fill="#225555"/><circle cx="373.8" cy="293.5" r="2" fill="#225555"/><circle cx="384.1" cy="293.3" r="2" fill="#225555"/><circle cx="394.4" cy="293.2" r="2" fill="#225555"/><circle cx="404.8" cy="293.3" r="2" fill="#225555"/><circle cx="415.1" cy="293.3" r="2" fill="#225555"/><circle cx="425.4" cy="293.2" r="2" fill="#225555"/><circle cx="435.8" cy="293.2" r="2" fill="#225555"/><circle cx="446.1" cy="293.3" r="2" fill="#225555"/><circle cx="456.4" cy="293.3" r="2" fill="#225555"/><circle cx="466.7" cy="293.2" r="2" fill="#225555"/><circle cx="477.1" cy="293.2" r="2" fill="#225555"/><circle cx="487.4" cy="293.2" r="2" fill="#225555"/><circle cx="497.7" cy="293.1" r="2" fill="#225555"/><circle cx="508.0" cy="293.2" r="2" fill="#225555"/><circle cx="518.4" cy="293.2" r="2" fill="#225555"/><circle cx="528.7" cy="293.2" r="2" fill="#225555"/><circle cx="539.0" cy="293.3" r="2" fill="#225555"/><circle cx="549.3" cy="293.3" r="2" fill="#225555"/><circle cx="559.7" cy="293.3" r="2" fill="#225555"/><circle cx="570.0" cy="292.7" r="2" fill="#225555"/><rect x="580" y="154" width="10" height="10" fill="#225555"/><text x="594" y="163" font-size="10" fill="#444">hub-200</text><path d="M64.0,295.5 L74.3,295.9 L84.7,295.8 L95.0,295.6 L105.3,295.7 L115.6,296.3 L126.0,295.6 L136.3,295.6 L146.6,296.3 L156.9,295.7 L167.3,295.7 L177.6,296.0 L187.9,295.6 L198.2,296.1 L208.6,295.8 L218.9,296.3 L229.2,295.7 L239.6,296.0 L249.9,295.6 L260.2,295.9 L270.5,295.6 L280.9,295.8 L291.2,296.1 L301.5,295.6 L311.8,296.7 L322.2,293.1 L332.5,293.0 L342.8,293.2 L353.1,293.2 L363.5,293.3 L373.8,293.3 L384.1,293.3 L394.4,293.2 L404.8,293.4 L415.1,293.2 L425.4,293.2 L435.8,293.2 L446.1,293.2 L456.4,293.3 L466.7,293.2 L477.1,293.2 L487.4,293.2 L497.7,293.2 L508.0,293.3 L518.4,293.2 L528.7,293.2 L539.0,293.2 L549.3,293.3 L559.7,293.2 L570.0,292.7" fill="none" stroke="#552222" stroke-width="1.6"/><circle cx="64.0" cy="295.5" r="2" fill="#552222"/><circle cx="74.3" cy="295.9" r="2" fill="#552222"/><circle cx="84.7" cy="295.8" r="2" fill="#552222"/><circle cx="95.0" cy="295.6" r="2" fill="#552222"/><circle cx="105.3" cy="295.7" r="2" fill="#552222"/><circle cx="115.6" cy="296.3" r="2" fill="#552222"/><circle cx="126.0" cy="295.6" r="2" fill="#552222"/><circle cx="136.3" cy="295.6" r="2" fill="#552222"/><circle cx="146.6" cy="296.3" r="2" fill="#552222"/><circle cx="156.9" cy="295.7" r="2" fill="#552222"/><circle cx="167.3" cy="295.7" r="2" fill="#552222"/><circle cx="177.6" cy="296.0" r="2" fill="#552222"/><circle cx="187.9" cy="295.6" r="2" fill="#552222"/><circle cx="198.2" cy="296.1" r="2" fill="#552222"/><circle cx="208.6" cy="295.8" r="2" fill="#552222"/><circle cx="218.9" cy="296.3" r="2" fill="#552222"/><circle cx="229.2" cy="295.7" r="2" fill="#552222"/><circle cx="239.6" cy="296.0" r="2" fill="#552222"/><circle cx="249.9" cy="295.6" r="2" fill="#552222"/><circle cx="260.2" cy="295.9" r="2" fill="#552222"/><circle cx="270.5" cy="295.6" r="2" fill="#552222"/><circle cx="280.9" cy="295.8" r="2" fill="#552222"/><circle cx="291.2" cy="296.1" r="2" fill="#552222"/><circle cx="301.5" cy="295.6" r="2" fill="#552222"/><circle cx="311.8" cy="296.7" r="2" fill="#552222"/><circle cx="322.2" cy="293.1" r="2" fill="#552222"/><circle cx="332.5" cy="293.0" r="2" fill="#552222"/><circle cx="342.8" cy="293.2" r="2" fill="#552222"/><circle cx="353.1" cy="293.2" r="2" fill="#552222"/><circle cx="363.5" cy="293.3" r="2" fill="#552222"/><circle cx="373.8" cy="293.3" r="2" fill="#552222"/><circle cx="384.1" cy="293.3" r="2" fill="#552222"/><circle cx="394.4" cy="293.2" r="2" fill="#552222"/><circle cx="404.8" cy="293.4" r="2" fill="#552222"/><circle cx="415.1" cy="293.2" r="2" fill="#552222"/><circle cx="425.4" cy="293.2" r="2" fill="#552222"/><circle cx="435.8" cy="293.2" r="2" fill="#552222"/><circle cx="446.1" cy="293.2" r="2" fill="#552222"/><circle cx="456.4" cy="293.3" r="2" fill="#552222"/><circle cx="466.7" cy="293.2" r="2" fill="#552222"/><circle cx="477.1" cy="293.2" r="2" fill="#552222"/><circle cx="487.4" cy="293.2" r="2" fill="#552222"/><circle cx="497.7" cy="293.2" r="2" fill="#552222"/><circle cx="508.0" cy="293.3" r="2" fill="#552222"/><circle cx="518.4" cy="293.2" r="2" fill="#552222"/><circle cx="528.7" cy="293.2" r="2" fill="#552222"/><circle cx="539.0" cy="293.2" r="2" fill="#552222"/><circle cx="549.3" cy="293.3" r="2" fill="#552222"/><circle cx="559.7" cy="293.2" r="2" fill="#552222"/><circle cx="570.0" cy="292.7" r="2" fill="#552222"/><rect x="580" y="169" width="10" height="10" fill="#552222"/><text x="594" y="178" font-size="10" fill="#444">hooked-200</text></svg>