<svg width="960" height="372" xmlns="http://www.w3.org/2000/svg"><rect width="960" height="372" fill="#ffffff"/><text x="64" y="20" font-size="15" font-weight="bold" fill="#333">construct() — ops/sec (log scale) by PR / release, c7g.medium</text><line x1="64" y1="297.6490137843651" x2="810" y2="297.6490137843651" stroke="#eee"/><text x="58" y="301.6490137843651" font-size="10" text-anchor="end" fill="#888">1e0</text><line x1="64" y1="231.4305244608849" x2="810" y2="231.4305244608849" stroke="#eee"/><text x="58" y="235.4305244608849" font-size="10" text-anchor="end" fill="#888">1e1</text><line x1="64" y1="165.21203513740477" x2="810" y2="165.21203513740477" stroke="#eee"/><text x="58" y="169.21203513740477" font-size="10" text-anchor="end" fill="#888">1e2</text><line x1="64" y1="98.99354581392458" x2="810" y2="98.99354581392458" stroke="#eee"/><text x="58" y="102.99354581392458" font-size="10" text-anchor="end" fill="#888">1e3</text><text x="64.0" y="340" font-size="9" text-anchor="middle" fill="#888">598</text><text x="117.3" y="340" font-size="9" text-anchor="middle" fill="#888">600</text><text x="170.6" y="340" font-size="9" text-anchor="middle" fill="#888">602</text><text x="223.9" y="340" font-size="9" text-anchor="middle" fill="#888">604</text><text x="277.1" y="340" font-size="9" text-anchor="middle" fill="#888">611</text><text x="330.4" y="340" font-size="9" text-anchor="middle" fill="#888">616</text><text x="383.7" y="340" font-size="9" text-anchor="middle" fill="#888">618</text><text x="437.0" y="340" font-size="9" text-anchor="middle" fill="#888">634</text><text x="490.3" y="340" font-size="9" text-anchor="middle" fill="#888">649</text><text x="543.6" y="340" font-size="9" text-anchor="middle" fill="#888">674</text><text x="596.9" y="340" font-size="9" text-anchor="middle" fill="#888">679</text><text x="650.1" y="340" font-size="9" text-anchor="middle" fill="#888">681</text><text x="703.4" y="340" font-size="9" text-anchor="end" fill="#a40" transform="rotate(-35 703.4 340)">v5.143.30</text><text x="756.7" y="340" font-size="9" text-anchor="end" fill="#a40" transform="rotate(-35 756.7 340)">v5.143.33</text><text x="810.0" y="340" font-size="9" text-anchor="end" fill="#a40" transform="rotate(-35 810.0 340)">v5.143.35</text><path d="M64.0,44.7 L90.6,42.8 L117.3,43.2 L143.9,42.9 L170.6,44.0 L197.2,42.5 L223.9,43.0 L250.5,44.1 L277.1,44.2 L303.8,44.0 L330.4,41.8 L357.1,42.5 L383.7,42.4 L410.4,44.1 L437.0,43.2 L463.6,38.3 L490.3,36.9 L516.9,36.8 L543.6,36.8 L570.2,36.1 L596.9,36.6 L623.5,36.1 L650.1,37.2 L676.8,75.5 L703.4,36.3 L730.1,35.7 L756.7,36.4 L783.4,34.5 L810.0,34.0" fill="none" stroke="#4477AA" stroke-width="1.6"/><circle cx="64.0" cy="44.7" r="2" fill="#4477AA"/><circle cx="90.6" cy="42.8" r="2" fill="#4477AA"/><circle cx="117.3" cy="43.2" r="2" fill="#4477AA"/><circle cx="143.9" cy="42.9" r="2" fill="#4477AA"/><circle cx="170.6" cy="44.0" r="2" fill="#4477AA"/><circle cx="197.2" cy="42.5" r="2" fill="#4477AA"/><circle cx="223.9" cy="43.0" r="2" fill="#4477AA"/><circle cx="250.5" cy="44.1" r="2" fill="#4477AA"/><circle cx="277.1" cy="44.2" r="2" fill="#4477AA"/><circle cx="303.8" cy="44.0" r="2" fill="#4477AA"/><circle cx="330.4" cy="41.8" r="2" fill="#4477AA"/><circle cx="357.1" cy="42.5" r="2" fill="#4477AA"/><circle cx="383.7" cy="42.4" r="2" fill="#4477AA"/><circle cx="410.4" cy="44.1" r="2" fill="#4477AA"/><circle cx="437.0" cy="43.2" r="2" fill="#4477AA"/><circle cx="463.6" cy="38.3" r="2" fill="#4477AA"/><circle cx="490.3" cy="36.9" r="2" fill="#4477AA"/><circle cx="516.9" cy="36.8" r="2" fill="#4477AA"/><circle cx="543.6" cy="36.8" r="2" fill="#4477AA"/><circle cx="570.2" cy="36.1" r="2" fill="#4477AA"/><circle cx="596.9" cy="36.6" r="2" fill="#4477AA"/><circle cx="623.5" cy="36.1" r="2" fill="#4477AA"/><circle cx="650.1" cy="37.2" r="2" fill="#4477AA"/><circle cx="676.8" cy="75.5" r="2" fill="#4477AA"/><circle cx="703.4" cy="36.3" r="2" fill="#4477AA"/><circle cx="730.1" cy="35.7" r="2" fill="#4477AA"/><circle cx="756.7" cy="36.4" r="2" fill="#4477AA"/><circle cx="783.4" cy="34.5" r="2" fill="#4477AA"/><circle cx="810.0" cy="34.0" r="2" fill="#4477AA"/><rect x="820" y="34" width="10" height="10" fill="#4477AA"/><text x="834" y="43" font-size="10" fill="#444">chain-10</text><path d="M64.0,75.2 L90.6,69.3 L117.3,72.6 L143.9,71.1 L170.6,71.9 L197.2,68.5 L223.9,75.3 L250.5,72.7 L277.1,69.6 L303.8,70.3 L330.4,70.7 L357.1,71.8 L383.7,71.9 L410.4,75.0 L437.0,73.0 L463.6,71.8 L490.3,72.7 L516.9,73.5 L543.6,74.5 L570.2,69.2 L596.9,71.8 L623.5,71.6 L650.1,71.8 L676.8,114.5 L703.4,66.3 L730.1,66.4 L756.7,68.2 L783.4,69.4 L810.0,67.9" fill="none" stroke="#EE6677" stroke-width="1.6"/><circle cx="64.0" cy="75.2" r="2" fill="#EE6677"/><circle cx="90.6" cy="69.3" r="2" fill="#EE6677"/><circle cx="117.3" cy="72.6" r="2" fill="#EE6677"/><circle cx="143.9" cy="71.1" r="2" fill="#EE6677"/><circle cx="170.6" cy="71.9" r="2" fill="#EE6677"/><circle cx="197.2" cy="68.5" r="2" fill="#EE6677"/><circle cx="223.9" cy="75.3" r="2" fill="#EE6677"/><circle cx="250.5" cy="72.7" r="2" fill="#EE6677"/><circle cx="277.1" cy="69.6" r="2" fill="#EE6677"/><circle cx="303.8" cy="70.3" r="2" fill="#EE6677"/><circle cx="330.4" cy="70.7" r="2" fill="#EE6677"/><circle cx="357.1" cy="71.8" r="2" fill="#EE6677"/><circle cx="383.7" cy="71.9" r="2" fill="#EE6677"/><circle cx="410.4" cy="75.0" r="2" fill="#EE6677"/><circle cx="437.0" cy="73.0" r="2" fill="#EE6677"/><circle cx="463.6" cy="71.8" r="2" fill="#EE6677"/><circle cx="490.3" cy="72.7" r="2" fill="#EE6677"/><circle cx="516.9" cy="73.5" r="2" fill="#EE6677"/><circle cx="543.6" cy="74.5" r="2" fill="#EE6677"/><circle cx="570.2" cy="69.2" r="2" fill="#EE6677"/><circle cx="596.9" cy="71.8" r="2" fill="#EE6677"/><circle cx="623.5" cy="71.6" r="2" fill="#EE6677"/><circle cx="650.1" cy="71.8" r="2" fill="#EE6677"/><circle cx="676.8" cy="114.5" r="2" fill="#EE6677"/><circle cx="703.4" cy="66.3" r="2" fill="#EE6677"/><circle cx="730.1" cy="66.4" r="2" fill="#EE6677"/><circle cx="756.7" cy="68.2" r="2" fill="#EE6677"/><circle cx="783.4" cy="69.4" r="2" fill="#EE6677"/><circle cx="810.0" cy="67.9" r="2" fill="#EE6677"/><rect x="820" y="49" width="10" height="10" fill="#EE6677"/><text x="834" y="58" font-size="10" fill="#444">chain-50</text><path d="M64.0,110.9 L90.6,106.2 L117.3,106.7 L143.9,108.1 L170.6,107.4 L197.2,107.8 L223.9,106.8 L250.5,106.8 L277.1,110.0 L303.8,111.1 L330.4,111.2 L357.1,111.1 L383.7,107.0 L410.4,110.6 L437.0,111.7 L463.6,109.9 L490.3,110.5 L516.9,110.7 L543.6,110.7 L570.2,111.3 L596.9,109.8 L623.5,109.7 L650.1,110.7 L676.8,157.2 L703.4,104.1 L730.1,106.3 L756.7,105.1 L783.4,103.5 L810.0,103.7" fill="none" stroke="#228833" stroke-width="1.6"/><circle cx="64.0" cy="110.9" r="2" fill="#228833"/><circle cx="90.6" cy="106.2" r="2" fill="#228833"/><circle cx="117.3" cy="106.7" r="2" fill="#228833"/><circle cx="143.9" cy="108.1" r="2" fill="#228833"/><circle cx="170.6" cy="107.4" r="2" fill="#228833"/><circle cx="197.2" cy="107.8" r="2" fill="#228833"/><circle cx="223.9" cy="106.8" r="2" fill="#228833"/><circle cx="250.5" cy="106.8" r="2" fill="#228833"/><circle cx="277.1" cy="110.0" r="2" fill="#228833"/><circle cx="303.8" cy="111.1" r="2" fill="#228833"/><circle cx="330.4" cy="111.2" r="2" fill="#228833"/><circle cx="357.1" cy="111.1" r="2" fill="#228833"/><circle cx="383.7" cy="107.0" r="2" fill="#228833"/><circle cx="410.4" cy="110.6" r="2" fill="#228833"/><circle cx="437.0" cy="111.7" r="2" fill="#228833"/><circle cx="463.6" cy="109.9" r="2" fill="#228833"/><circle cx="490.3" cy="110.5" r="2" fill="#228833"/><circle cx="516.9" cy="110.7" r="2" fill="#228833"/><circle cx="543.6" cy="110.7" r="2" fill="#228833"/><circle cx="570.2" cy="111.3" r="2" fill="#228833"/><circle cx="596.9" cy="109.8" r="2" fill="#228833"/><circle cx="623.5" cy="109.7" r="2" fill="#228833"/><circle cx="650.1" cy="110.7" r="2" fill="#228833"/><circle cx="676.8" cy="157.2" r="2" fill="#228833"/><circle cx="703.4" cy="104.1" r="2" fill="#228833"/><circle cx="730.1" cy="106.3" r="2" fill="#228833"/><circle cx="756.7" cy="105.1" r="2" fill="#228833"/><circle cx="783.4" cy="103.5" r="2" fill="#228833"/><circle cx="810.0" cy="103.7" r="2" fill="#228833"/><rect x="820" y="64" width="10" height="10" fill="#228833"/><text x="834" y="73" font-size="10" fill="#444">chain-200</text><path d="M64.0,157.7 L90.6,156.8 L117.3,154.6 L143.9,156.6 L170.6,156.8 L197.2,156.2 L223.9,155.1 L250.5,158.1 L277.1,157.7 L303.8,156.8 L330.4,156.2 L357.1,157.0 L383.7,153.6 L410.4,157.7 L437.0,156.2 L463.6,159.5 L490.3,157.4 L516.9,159.5 L543.6,158.8 L570.2,158.9 L596.9,159.3 L623.5,157.9 L650.1,159.0 L676.8,213.0 L703.4,151.0 L730.1,152.1 L756.7,152.1 L783.4,151.7 L810.0,152.1" fill="none" stroke="#CCBB44" stroke-width="1.6"/><circle cx="64.0" cy="157.7" r="2" fill="#CCBB44"/><circle cx="90.6" cy="156.8" r="2" fill="#CCBB44"/><circle cx="117.3" cy="154.6" r="2" fill="#CCBB44"/><circle cx="143.9" cy="156.6" r="2" fill="#CCBB44"/><circle cx="170.6" cy="156.8" r="2" fill="#CCBB44"/><circle cx="197.2" cy="156.2" r="2" fill="#CCBB44"/><circle cx="223.9" cy="155.1" r="2" fill="#CCBB44"/><circle cx="250.5" cy="158.1" r="2" fill="#CCBB44"/><circle cx="277.1" cy="157.7" r="2" fill="#CCBB44"/><circle cx="303.8" cy="156.8" r="2" fill="#CCBB44"/><circle cx="330.4" cy="156.2" r="2" fill="#CCBB44"/><circle cx="357.1" cy="157.0" r="2" fill="#CCBB44"/><circle cx="383.7" cy="153.6" r="2" fill="#CCBB44"/><circle cx="410.4" cy="157.7" r="2" fill="#CCBB44"/><circle cx="437.0" cy="156.2" r="2" fill="#CCBB44"/><circle cx="463.6" cy="159.5" r="2" fill="#CCBB44"/><circle cx="490.3" cy="157.4" r="2" fill="#CCBB44"/><circle cx="516.9" cy="159.5" r="2" fill="#CCBB44"/><circle cx="543.6" cy="158.8" r="2" fill="#CCBB44"/><circle cx="570.2" cy="158.9" r="2" fill="#CCBB44"/><circle cx="596.9" cy="159.3" r="2" fill="#CCBB44"/><circle cx="623.5" cy="157.9" r="2" fill="#CCBB44"/><circle cx="650.1" cy="159.0" r="2" fill="#CCBB44"/><circle cx="676.8" cy="213.0" r="2" fill="#CCBB44"/><circle cx="703.4" cy="151.0" r="2" fill="#CCBB44"/><circle cx="730.1" cy="152.1" r="2" fill="#CCBB44"/><circle cx="756.7" cy="152.1" r="2" fill="#CCBB44"/><circle cx="783.4" cy="151.7" r="2" fill="#CCBB44"/><circle cx="810.0" cy="152.1" r="2" fill="#CCBB44"/><rect x="820" y="79" width="10" height="10" fill="#CCBB44"/><text x="834" y="88" font-size="10" fill="#444">chain-1000</text><path d="M64.0,81.4 L90.6,82.6 L117.3,81.8 L143.9,81.7 L170.6,80.8 L197.2,80.0 L223.9,82.0 L250.5,83.3 L277.1,82.2 L303.8,81.4 L330.4,80.6 L357.1,81.3 L383.7,84.9 L410.4,82.2 L437.0,82.3 L463.6,82.2 L490.3,80.5 L516.9,82.7 L543.6,81.0 L570.2,79.5 L596.9,80.6 L623.5,81.3 L650.1,81.2 L676.8,162.0 L703.4,77.6 L730.1,77.7 L756.7,77.8 L783.4,78.5 L810.0,76.5" fill="none" stroke="#66CCEE" stroke-width="1.6"/><circle cx="64.0" cy="81.4" r="2" fill="#66CCEE"/><circle cx="90.6" cy="82.6" r="2" fill="#66CCEE"/><circle cx="117.3" cy="81.8" r="2" fill="#66CCEE"/><circle cx="143.9" cy="81.7" r="2" fill="#66CCEE"/><circle cx="170.6" cy="80.8" r="2" fill="#66CCEE"/><circle cx="197.2" cy="80.0" r="2" fill="#66CCEE"/><circle cx="223.9" cy="82.0" r="2" fill="#66CCEE"/><circle cx="250.5" cy="83.3" r="2" fill="#66CCEE"/><circle cx="277.1" cy="82.2" r="2" fill="#66CCEE"/><circle cx="303.8" cy="81.4" r="2" fill="#66CCEE"/><circle cx="330.4" cy="80.6" r="2" fill="#66CCEE"/><circle cx="357.1" cy="81.3" r="2" fill="#66CCEE"/><circle cx="383.7" cy="84.9" r="2" fill="#66CCEE"/><circle cx="410.4" cy="82.2" r="2" fill="#66CCEE"/><circle cx="437.0" cy="82.3" r="2" fill="#66CCEE"/><circle cx="463.6" cy="82.2" r="2" fill="#66CCEE"/><circle cx="490.3" cy="80.5" r="2" fill="#66CCEE"/><circle cx="516.9" cy="82.7" r="2" fill="#66CCEE"/><circle cx="543.6" cy="81.0" r="2" fill="#66CCEE"/><circle cx="570.2" cy="79.5" r="2" fill="#66CCEE"/><circle cx="596.9" cy="80.6" r="2" fill="#66CCEE"/><circle cx="623.5" cy="81.3" r="2" fill="#66CCEE"/><circle cx="650.1" cy="81.2" r="2" fill="#66CCEE"/><circle cx="676.8" cy="162.0" r="2" fill="#66CCEE"/><circle cx="703.4" cy="77.6" r="2" fill="#66CCEE"/><circle cx="730.1" cy="77.7" r="2" fill="#66CCEE"/><circle cx="756.7" cy="77.8" r="2" fill="#66CCEE"/><circle cx="783.4" cy="78.5" r="2" fill="#66CCEE"/><circle cx="810.0" cy="76.5" r="2" fill="#66CCEE"/><rect x="820" y="94" width="10" height="10" fill="#66CCEE"/><text x="834" y="103" font-size="10" fill="#444">dense-10</text><path d="M64.0,180.4 L90.6,181.4 L117.3,177.4 L143.9,179.0 L170.6,179.8 L197.2,177.6 L223.9,179.9 L250.5,180.9 L277.1,180.4 L303.8,179.9 L330.4,179.4 L357.1,179.4 L383.7,177.6 L410.4,179.9 L437.0,180.4 L463.6,181.4 L490.3,179.4 L516.9,179.9 L543.6,179.0 L570.2,179.7 L596.9,180.4 L623.5,179.4 L650.1,179.9 L676.8,266.1 L703.4,169.9 L730.1,171.6 L756.7,170.6 L783.4,170.2 L810.0,173.1" fill="none" stroke="#AA3377" stroke-width="1.6"/><circle cx="64.0" cy="180.4" r="2" fill="#AA3377"/><circle cx="90.6" cy="181.4" r="2" fill="#AA3377"/><circle cx="117.3" cy="177.4" r="2" fill="#AA3377"/><circle cx="143.9" cy="179.0" r="2" fill="#AA3377"/><circle cx="170.6" cy="179.8" r="2" fill="#AA3377"/><circle cx="197.2" cy="177.6" r="2" fill="#AA3377"/><circle cx="223.9" cy="179.9" r="2" fill="#AA3377"/><circle cx="250.5" cy="180.9" r="2" fill="#AA3377"/><circle cx="277.1" cy="180.4" r="2" fill="#AA3377"/><circle cx="303.8" cy="179.9" r="2" fill="#AA3377"/><circle cx="330.4" cy="179.4" r="2" fill="#AA3377"/><circle cx="357.1" cy="179.4" r="2" fill="#AA3377"/><circle cx="383.7" cy="177.6" r="2" fill="#AA3377"/><circle cx="410.4" cy="179.9" r="2" fill="#AA3377"/><circle cx="437.0" cy="180.4" r="2" fill="#AA3377"/><circle cx="463.6" cy="181.4" r="2" fill="#AA3377"/><circle cx="490.3" cy="179.4" r="2" fill="#AA3377"/><circle cx="516.9" cy="179.9" r="2" fill="#AA3377"/><circle cx="543.6" cy="179.0" r="2" fill="#AA3377"/><circle cx="570.2" cy="179.7" r="2" fill="#AA3377"/><circle cx="596.9" cy="180.4" r="2" fill="#AA3377"/><circle cx="623.5" cy="179.4" r="2" fill="#AA3377"/><circle cx="650.1" cy="179.9" r="2" fill="#AA3377"/><circle cx="676.8" cy="266.1" r="2" fill="#AA3377"/><circle cx="703.4" cy="169.9" r="2" fill="#AA3377"/><circle cx="730.1" cy="171.6" r="2" fill="#AA3377"/><circle cx="756.7" cy="170.6" r="2" fill="#AA3377"/><circle cx="783.4" cy="170.2" r="2" fill="#AA3377"/><circle cx="810.0" cy="173.1" r="2" fill="#AA3377"/><rect x="820" y="109" width="10" height="10" fill="#AA3377"/><text x="834" y="118" font-size="10" fill="#444">dense-50</text><path d="M117.3,324.0 L170.6,324.0 L250.5,324.0 L570.2,324.0 L703.4,251.4 L730.1,251.4 L756.7,251.4 L783.4,251.4 L810.0,251.4" fill="none" stroke="#BBBBBB" stroke-width="1.6"/><circle cx="117.3" cy="324.0" r="2" fill="#BBBBBB"/><circle cx="170.6" cy="324.0" r="2" fill="#BBBBBB"/><circle cx="250.5" cy="324.0" r="2" fill="#BBBBBB"/><circle cx="570.2" cy="324.0" r="2" fill="#BBBBBB"/><circle cx="703.4" cy="251.4" r="2" fill="#BBBBBB"/><circle cx="730.1" cy="251.4" r="2" fill="#BBBBBB"/><circle cx="756.7" cy="251.4" r="2" fill="#BBBBBB"/><circle cx="783.4" cy="251.4" r="2" fill="#BBBBBB"/><circle cx="810.0" cy="251.4" r="2" fill="#BBBBBB"/><rect x="820" y="124" width="10" height="10" fill="#BBBBBB"/><text x="834" y="133" font-size="10" fill="#444">dense-200</text><path d="M64.0,90.1 L90.6,93.3 L117.3,91.1 L143.9,88.4 L170.6,91.2 L197.2,92.5 L223.9,88.9 L250.5,90.4 L277.1,89.7 L303.8,90.0 L330.4,90.8 L357.1,89.6 L383.7,88.5 L410.4,91.3 L437.0,91.4 L463.6,95.3 L490.3,89.7 L516.9,87.7 L543.6,91.1 L570.2,91.3 L596.9,93.1 L623.5,91.8 L650.1,88.8 L676.8,163.3 L703.4,82.9 L730.1,81.7 L756.7,82.3 L783.4,82.7 L810.0,84.1" fill="none" stroke="#222255" stroke-width="1.6"/><circle cx="64.0" cy="90.1" r="2" fill="#222255"/><circle cx="90.6" cy="93.3" r="2" fill="#222255"/><circle cx="117.3" cy="91.1" r="2" fill="#222255"/><circle cx="143.9" cy="88.4" r="2" fill="#222255"/><circle cx="170.6" cy="91.2" r="2" fill="#222255"/><circle cx="197.2" cy="92.5" r="2" fill="#222255"/><circle cx="223.9" cy="88.9" r="2" fill="#222255"/><circle cx="250.5" cy="90.4" r="2" fill="#222255"/><circle cx="277.1" cy="89.7" r="2" fill="#222255"/><circle cx="303.8" cy="90.0" r="2" fill="#222255"/><circle cx="330.4" cy="90.8" r="2" fill="#222255"/><circle cx="357.1" cy="89.6" r="2" fill="#222255"/><circle cx="383.7" cy="88.5" r="2" fill="#222255"/><circle cx="410.4" cy="91.3" r="2" fill="#222255"/><circle cx="437.0" cy="91.4" r="2" fill="#222255"/><circle cx="463.6" cy="95.3" r="2" fill="#222255"/><circle cx="490.3" cy="89.7" r="2" fill="#222255"/><circle cx="516.9" cy="87.7" r="2" fill="#222255"/><circle cx="543.6" cy="91.1" r="2" fill="#222255"/><circle cx="570.2" cy="91.3" r="2" fill="#222255"/><circle cx="596.9" cy="93.1" r="2" fill="#222255"/><circle cx="623.5" cy="91.8" r="2" fill="#222255"/><circle cx="650.1" cy="88.8" r="2" fill="#222255"/><circle cx="676.8" cy="163.3" r="2" fill="#222255"/><circle cx="703.4" cy="82.9" r="2" fill="#222255"/><circle cx="730.1" cy="81.7" r="2" fill="#222255"/><circle cx="756.7" cy="82.3" r="2" fill="#222255"/><circle cx="783.4" cy="82.7" r="2" fill="#222255"/><circle cx="810.0" cy="84.1" r="2" fill="#222255"/><rect x="820" y="139" width="10" height="10" fill="#222255"/><text x="834" y="148" font-size="10" fill="#444">hub-50</text><path d="M64.0,131.1 L90.6,129.0 L117.3,128.9 L143.9,128.8 L170.6,129.8 L197.2,128.6 L223.9,128.2 L250.5,129.4 L277.1,127.8 L303.8,129.9 L330.4,128.3 L357.1,130.1 L383.7,129.6 L410.4,130.5 L437.0,130.7 L463.6,132.2 L490.3,128.4 L516.9,130.1 L543.6,129.9 L570.2,130.1 L596.9,129.8 L623.5,129.3 L650.1,128.9 L676.8,208.8 L703.4,120.8 L730.1,121.5 L756.7,121.8 L783.4,121.5 L810.0,119.7" fill="none" stroke="#225555" stroke-width="1.6"/><circle cx="64.0" cy="131.1" r="2" fill="#225555"/><circle cx="90.6" cy="129.0" r="2" fill="#225555"/><circle cx="117.3" cy="128.9" r="2" fill="#225555"/><circle cx="143.9" cy="128.8" r="2" fill="#225555"/><circle cx="170.6" cy="129.8" r="2" fill="#225555"/><circle cx="197.2" cy="128.6" r="2" fill="#225555"/><circle cx="223.9" cy="128.2" r="2" fill="#225555"/><circle cx="250.5" cy="129.4" r="2" fill="#225555"/><circle cx="277.1" cy="127.8" r="2" fill="#225555"/><circle cx="303.8" cy="129.9" r="2" fill="#225555"/><circle cx="330.4" cy="128.3" r="2" fill="#225555"/><circle cx="357.1" cy="130.1" r="2" fill="#225555"/><circle cx="383.7" cy="129.6" r="2" fill="#225555"/><circle cx="410.4" cy="130.5" r="2" fill="#225555"/><circle cx="437.0" cy="130.7" r="2" fill="#225555"/><circle cx="463.6" cy="132.2" r="2" fill="#225555"/><circle cx="490.3" cy="128.4" r="2" fill="#225555"/><circle cx="516.9" cy="130.1" r="2" fill="#225555"/><circle cx="543.6" cy="129.9" r="2" fill="#225555"/><circle cx="570.2" cy="130.1" r="2" fill="#225555"/><circle cx="596.9" cy="129.8" r="2" fill="#225555"/><circle cx="623.5" cy="129.3" r="2" fill="#225555"/><circle cx="650.1" cy="128.9" r="2" fill="#225555"/><circle cx="676.8" cy="208.8" r="2" fill="#225555"/><circle cx="703.4" cy="120.8" r="2" fill="#225555"/><circle cx="730.1" cy="121.5" r="2" fill="#225555"/><circle cx="756.7" cy="121.8" r="2" fill="#225555"/><circle cx="783.4" cy="121.5" r="2" fill="#225555"/><circle cx="810.0" cy="119.7" r="2" fill="#225555"/><rect x="820" y="154" width="10" height="10" fill="#225555"/><text x="834" y="163" font-size="10" fill="#444">hub-200</text><path d="M64.0,131.2 L90.6,130.8 L117.3,128.8 L143.9,129.1 L170.6,128.7 L197.2,130.4 L223.9,128.5 L250.5,129.4 L277.1,131.1 L303.8,130.3 L330.4,128.1 L357.1,129.3 L383.7,127.7 L410.4,130.4 L437.0,128.9 L463.6,132.6 L490.3,131.1 L516.9,128.2 L543.6,130.7 L570.2,129.4 L596.9,130.5 L623.5,132.3 L650.1,129.2 L676.8,210.1 L703.4,120.9 L730.1,121.3 L756.7,121.3 L783.4,121.6 L810.0,121.1" fill="none" stroke="#552222" stroke-width="1.6"/><circle cx="64.0" cy="131.2" r="2" fill="#552222"/><circle cx="90.6" cy="130.8" r="2" fill="#552222"/><circle cx="117.3" cy="128.8" r="2" fill="#552222"/><circle cx="143.9" cy="129.1" r="2" fill="#552222"/><circle cx="170.6" cy="128.7" r="2" fill="#552222"/><circle cx="197.2" cy="130.4" r="2" fill="#552222"/><circle cx="223.9" cy="128.5" r="2" fill="#552222"/><circle cx="250.5" cy="129.4" r="2" fill="#552222"/><circle cx="277.1" cy="131.1" r="2" fill="#552222"/><circle cx="303.8" cy="130.3" r="2" fill="#552222"/><circle cx="330.4" cy="128.1" r="2" fill="#552222"/><circle cx="357.1" cy="129.3" r="2" fill="#552222"/><circle cx="383.7" cy="127.7" r="2" fill="#552222"/><circle cx="410.4" cy="130.4" r="2" fill="#552222"/><circle cx="437.0" cy="128.9" r="2" fill="#552222"/><circle cx="463.6" cy="132.6" r="2" fill="#552222"/><circle cx="490.3" cy="131.1" r="2" fill="#552222"/><circle cx="516.9" cy="128.2" r="2" fill="#552222"/><circle cx="543.6" cy="130.7" r="2" fill="#552222"/><circle cx="570.2" cy="129.4" r="2" fill="#552222"/><circle cx="596.9" cy="130.5" r="2" fill="#552222"/><circle cx="623.5" cy="132.3" r="2" fill="#552222"/><circle cx="650.1" cy="129.2" r="2" fill="#552222"/><circle cx="676.8" cy="210.1" r="2" fill="#552222"/><circle cx="703.4" cy="120.9" r="2" fill="#552222"/><circle cx="730.1" cy="121.3" r="2" fill="#552222"/><circle cx="756.7" cy="121.3" r="2" fill="#552222"/><circle cx="783.4" cy="121.6" r="2" fill="#552222"/><circle cx="810.0" cy="121.1" r="2" fill="#552222"/><rect x="820" y="169" width="10" height="10" fill="#552222"/><text x="834" y="178" font-size="10" fill="#444">hooked-200</text><path d="M64.0,190.2 L90.6,188.2 L117.3,188.6 L143.9,190.2 L170.6,186.7 L197.2,192.3 L223.9,189.5 L250.5,189.0 L277.1,190.2 L303.8,188.8 L330.4,188.8 L357.1,190.2 L383.7,188.8 L410.4,191.6 L437.0,189.5 L463.6,190.9 L490.3,190.9 L516.9,190.2 L543.6,190.9 L570.2,189.2 L596.9,192.3 L623.5,192.3 L650.1,190.2 L676.8,246.1 L703.4,181.9 L730.1,180.4 L756.7,180.4 L783.4,181.4 L810.0,179.4" fill="none" stroke="#555522" stroke-width="1.6"/><circle cx="64.0" cy="190.2" r="2" fill="#555522"/><circle cx="90.6" cy="188.2" r="2" fill="#555522"/><circle cx="117.3" cy="188.6" r="2" fill="#555522"/><circle cx="143.9" cy="190.2" r="2" fill="#555522"/><circle cx="170.6" cy="186.7" r="2" fill="#555522"/><circle cx="197.2" cy="192.3" r="2" fill="#555522"/><circle cx="223.9" cy="189.5" r="2" fill="#555522"/><circle cx="250.5" cy="189.0" r="2" fill="#555522"/><circle cx="277.1" cy="190.2" r="2" fill="#555522"/><circle cx="303.8" cy="188.8" r="2" fill="#555522"/><circle cx="330.4" cy="188.8" r="2" fill="#555522"/><circle cx="357.1" cy="190.2" r="2" fill="#555522"/><circle cx="383.7" cy="188.8" r="2" fill="#555522"/><circle cx="410.4" cy="191.6" r="2" fill="#555522"/><circle cx="437.0" cy="189.5" r="2" fill="#555522"/><circle cx="463.6" cy="190.9" r="2" fill="#555522"/><circle cx="490.3" cy="190.9" r="2" fill="#555522"/><circle cx="516.9" cy="190.2" r="2" fill="#555522"/><circle cx="543.6" cy="190.9" r="2" fill="#555522"/><circle cx="570.2" cy="189.2" r="2" fill="#555522"/><circle cx="596.9" cy="192.3" r="2" fill="#555522"/><circle cx="623.5" cy="192.3" r="2" fill="#555522"/><circle cx="650.1" cy="190.2" r="2" fill="#555522"/><circle cx="676.8" cy="246.1" r="2" fill="#555522"/><circle cx="703.4" cy="181.9" r="2" fill="#555522"/><circle cx="730.1" cy="180.4" r="2" fill="#555522"/><circle cx="756.7" cy="180.4" r="2" fill="#555522"/><circle cx="783.4" cy="181.4" r="2" fill="#555522"/><circle cx="810.0" cy="179.4" r="2" fill="#555522"/><rect x="820" y="184" width="10" height="10" fill="#555522"/><text x="834" y="193" font-size="10" fill="#444">messy-1000</text><path d="M64.0,246.1 L90.6,246.1 L117.3,246.6 L143.9,246.1 L170.6,244.7 L197.2,246.1 L223.9,246.1 L250.5,244.7 L277.1,246.1 L303.8,246.1 L330.4,246.1 L357.1,246.1 L383.7,246.1 L410.4,246.1 L437.0,246.1 L463.6,246.1 L490.3,246.1 L516.9,246.1 L543.6,246.1 L570.2,246.1 L596.9,246.1 L623.5,246.1 L650.1,246.1 L676.8,297.6 L703.4,228.7 L730.1,228.7 L756.7,228.7 L783.4,228.7 L810.0,228.7" fill="none" stroke="#8855AA" stroke-width="1.6"/><circle cx="64.0" cy="246.1" r="2" fill="#8855AA"/><circle cx="90.6" cy="246.1" r="2" fill="#8855AA"/><circle cx="117.3" cy="246.6" r="2" fill="#8855AA"/><circle cx="143.9" cy="246.1" r="2" fill="#8855AA"/><circle cx="170.6" cy="244.7" r="2" fill="#8855AA"/><circle cx="197.2" cy="246.1" r="2" fill="#8855AA"/><circle cx="223.9" cy="246.1" r="2" fill="#8855AA"/><circle cx="250.5" cy="244.7" r="2" fill="#8855AA"/><circle cx="277.1" cy="246.1" r="2" fill="#8855AA"/><circle cx="303.8" cy="246.1" r="2" fill="#8855AA"/><circle cx="330.4" cy="246.1" r="2" fill="#8855AA"/><circle cx="357.1" cy="246.1" r="2" fill="#8855AA"/><circle cx="383.7" cy="246.1" r="2" fill="#8855AA"/><circle cx="410.4" cy="246.1" r="2" fill="#8855AA"/><circle cx="437.0" cy="246.1" r="2" fill="#8855AA"/><circle cx="463.6" cy="246.1" r="2" fill="#8855AA"/><circle cx="490.3" cy="246.1" r="2" fill="#8855AA"/><circle cx="516.9" cy="246.1" r="2" fill="#8855AA"/><circle cx="543.6" cy="246.1" r="2" fill="#8855AA"/><circle cx="570.2" cy="246.1" r="2" fill="#8855AA"/><circle cx="596.9" cy="246.1" r="2" fill="#8855AA"/><circle cx="623.5" cy="246.1" r="2" fill="#8855AA"/><circle cx="650.1" cy="246.1" r="2" fill="#8855AA"/><circle cx="676.8" cy="297.6" r="2" fill="#8855AA"/><circle cx="703.4" cy="228.7" r="2" fill="#8855AA"/><circle cx="730.1" cy="228.7" r="2" fill="#8855AA"/><circle cx="756.7" cy="228.7" r="2" fill="#8855AA"/><circle cx="783.4" cy="228.7" r="2" fill="#8855AA"/><circle cx="810.0" cy="228.7" r="2" fill="#8855AA"/><rect x="820" y="199" width="10" height="10" fill="#8855AA"/><text x="834" y="208" font-size="10" fill="#444">messy-5000</text></svg>