<svg width="960" height="372" xmlns="http://www.w3.org/2000/svg"><rect width="960" height="372" fill="#ffffff"/><text x="64" y="20" font-size="15" font-weight="bold" fill="#333">edges_between() — ops/sec (log scale) by PR / release, c7g.medium</text><line x1="64" y1="297.3805218920668" x2="810" y2="297.3805218920668" stroke="#eee"/><text x="58" y="301.3805218920668" font-size="10" text-anchor="end" fill="#888">1e2</text><line x1="64" y1="218.44769376839338" x2="810" y2="218.44769376839338" stroke="#eee"/><text x="58" y="222.44769376839338" font-size="10" text-anchor="end" fill="#888">1e3</text><line x1="64" y1="139.51486564472" x2="810" y2="139.51486564472" stroke="#eee"/><text x="58" y="143.51486564472" font-size="10" text-anchor="end" fill="#888">1e4</text><line x1="64" y1="60.58203752104663" x2="810" y2="60.58203752104663" stroke="#eee"/><text x="58" y="64.58203752104663" font-size="10" text-anchor="end" fill="#888">1e5</text><text x="64.0" y="340" font-size="9" text-anchor="middle" fill="#888">598</text><text x="117.3" y="340" font-size="9" text-anchor="middle" fill="#888">600</text><text x="170.6" y="340" font-size="9" text-anchor="middle" fill="#888">602</text><text x="223.9" y="340" font-size="9" text-anchor="middle" fill="#888">604</text><text x="277.1" y="340" font-size="9" text-anchor="middle" fill="#888">611</text><text x="330.4" y="340" font-size="9" text-anchor="middle" fill="#888">616</text><text x="383.7" y="340" font-size="9" text-anchor="middle" fill="#888">618</text><text x="437.0" y="340" font-size="9" text-anchor="middle" fill="#888">634</text><text x="490.3" y="340" font-size="9" text-anchor="middle" fill="#888">649</text><text x="543.6" y="340" font-size="9" text-anchor="middle" fill="#888">674</text><text x="596.9" y="340" font-size="9" text-anchor="middle" fill="#888">679</text><text x="650.1" y="340" font-size="9" text-anchor="middle" fill="#888">681</text><text x="703.4" y="340" font-size="9" text-anchor="end" fill="#a40" transform="rotate(-35 703.4 340)">v5.143.30</text><text x="756.7" y="340" font-size="9" text-anchor="end" fill="#a40" transform="rotate(-35 756.7 340)">v5.143.33</text><text x="810.0" y="340" font-size="9" text-anchor="end" fill="#a40" transform="rotate(-35 810.0 340)">v5.143.35</text><path d="M64.0,62.0 L90.6,61.9 L117.3,61.5 L143.9,61.9 L170.6,62.4 L197.2,63.0 L223.9,61.7 L250.5,61.8 L277.1,62.4 L303.8,62.3 L330.4,62.1 L357.1,62.2 L383.7,61.6 L410.4,62.0 L437.0,62.4 L463.6,38.2 L490.3,34.0 L516.9,36.4 L543.6,37.8 L570.2,34.8 L596.9,37.2 L623.5,35.3 L650.1,36.1 L676.8,42.4 L703.4,43.9 L730.1,46.8 L756.7,42.3 L783.4,45.6 L810.0,44.7" fill="none" stroke="#4477AA" stroke-width="1.6"/><circle cx="64.0" cy="62.0" r="2" fill="#4477AA"/><circle cx="90.6" cy="61.9" r="2" fill="#4477AA"/><circle cx="117.3" cy="61.5" r="2" fill="#4477AA"/><circle cx="143.9" cy="61.9" r="2" fill="#4477AA"/><circle cx="170.6" cy="62.4" r="2" fill="#4477AA"/><circle cx="197.2" cy="63.0" r="2" fill="#4477AA"/><circle cx="223.9" cy="61.7" r="2" fill="#4477AA"/><circle cx="250.5" cy="61.8" r="2" fill="#4477AA"/><circle cx="277.1" cy="62.4" r="2" fill="#4477AA"/><circle cx="303.8" cy="62.3" r="2" fill="#4477AA"/><circle cx="330.4" cy="62.1" r="2" fill="#4477AA"/><circle cx="357.1" cy="62.2" r="2" fill="#4477AA"/><circle cx="383.7" cy="61.6" r="2" fill="#4477AA"/><circle cx="410.4" cy="62.0" r="2" fill="#4477AA"/><circle cx="437.0" cy="62.4" r="2" fill="#4477AA"/><circle cx="463.6" cy="38.2" r="2" fill="#4477AA"/><circle cx="490.3" cy="34.0" r="2" fill="#4477AA"/><circle cx="516.9" cy="36.4" r="2" fill="#4477AA"/><circle cx="543.6" cy="37.8" r="2" fill="#4477AA"/><circle cx="570.2" cy="34.8" r="2" fill="#4477AA"/><circle cx="596.9" cy="37.2" r="2" fill="#4477AA"/><circle cx="623.5" cy="35.3" r="2" fill="#4477AA"/><circle cx="650.1" cy="36.1" r="2" fill="#4477AA"/><circle cx="676.8" cy="42.4" r="2" fill="#4477AA"/><circle cx="703.4" cy="43.9" r="2" fill="#4477AA"/><circle cx="730.1" cy="46.8" r="2" fill="#4477AA"/><circle cx="756.7" cy="42.3" r="2" fill="#4477AA"/><circle cx="783.4" cy="45.6" r="2" fill="#4477AA"/><circle cx="810.0" cy="44.7" r="2" fill="#4477AA"/><rect x="820" y="34" width="10" height="10" fill="#4477AA"/><text x="834" y="43" font-size="10" fill="#444">chain-10</text><path d="M64.0,95.2 L90.6,95.3 L117.3,95.3 L143.9,95.3 L170.6,94.9 L197.2,95.1 L223.9,95.1 L250.5,95.2 L277.1,95.3 L303.8,95.4 L330.4,95.7 L357.1,95.2 L383.7,95.0 L410.4,95.1 L437.0,95.1 L463.6,38.9 L490.3,41.1 L516.9,41.3 L543.6,41.4 L570.2,40.1 L596.9,39.3 L623.5,40.2 L650.1,38.8 L676.8,40.2 L703.4,47.0 L730.1,46.7 L756.7,46.1 L783.4,45.1 L810.0,46.5" fill="none" stroke="#EE6677" stroke-width="1.6"/><circle cx="64.0" cy="95.2" r="2" fill="#EE6677"/><circle cx="90.6" cy="95.3" r="2" fill="#EE6677"/><circle cx="117.3" cy="95.3" r="2" fill="#EE6677"/><circle cx="143.9" cy="95.3" r="2" fill="#EE6677"/><circle cx="170.6" cy="94.9" r="2" fill="#EE6677"/><circle cx="197.2" cy="95.1" r="2" fill="#EE6677"/><circle cx="223.9" cy="95.1" r="2" fill="#EE6677"/><circle cx="250.5" cy="95.2" r="2" fill="#EE6677"/><circle cx="277.1" cy="95.3" r="2" fill="#EE6677"/><circle cx="303.8" cy="95.4" r="2" fill="#EE6677"/><circle cx="330.4" cy="95.7" r="2" fill="#EE6677"/><circle cx="357.1" cy="95.2" r="2" fill="#EE6677"/><circle cx="383.7" cy="95.0" r="2" fill="#EE6677"/><circle cx="410.4" cy="95.1" r="2" fill="#EE6677"/><circle cx="437.0" cy="95.1" r="2" fill="#EE6677"/><circle cx="463.6" cy="38.9" r="2" fill="#EE6677"/><circle cx="490.3" cy="41.1" r="2" fill="#EE6677"/><circle cx="516.9" cy="41.3" r="2" fill="#EE6677"/><circle cx="543.6" cy="41.4" r="2" fill="#EE6677"/><circle cx="570.2" cy="40.1" r="2" fill="#EE6677"/><circle cx="596.9" cy="39.3" r="2" fill="#EE6677"/><circle cx="623.5" cy="40.2" r="2" fill="#EE6677"/><circle cx="650.1" cy="38.8" r="2" fill="#EE6677"/><circle cx="676.8" cy="40.2" r="2" fill="#EE6677"/><circle cx="703.4" cy="47.0" r="2" fill="#EE6677"/><circle cx="730.1" cy="46.7" r="2" fill="#EE6677"/><circle cx="756.7" cy="46.1" r="2" fill="#EE6677"/><circle cx="783.4" cy="45.1" r="2" fill="#EE6677"/><circle cx="810.0" cy="46.5" r="2" fill="#EE6677"/><rect x="820" y="49" width="10" height="10" fill="#EE6677"/><text x="834" y="58" font-size="10" fill="#444">chain-50</text><path d="M64.0,132.3 L90.6,132.3 L117.3,132.2 L143.9,132.3 L170.6,132.6 L197.2,132.2 L223.9,132.2 L250.5,132.2 L277.1,132.7 L303.8,132.2 L330.4,132.2 L357.1,132.2 L383.7,132.1 L410.4,132.7 L437.0,132.2 L463.6,44.7 L490.3,43.2 L516.9,44.9 L543.6,43.8 L570.2,43.5 L596.9,44.0 L623.5,44.0 L650.1,44.5 L676.8,44.3 L703.4,52.7 L730.1,51.8 L756.7,51.9 L783.4,51.6 L810.0,51.3" fill="none" stroke="#228833" stroke-width="1.6"/><circle cx="64.0" cy="132.3" r="2" fill="#228833"/><circle cx="90.6" cy="132.3" r="2" fill="#228833"/><circle cx="117.3" cy="132.2" r="2" fill="#228833"/><circle cx="143.9" cy="132.3" r="2" fill="#228833"/><circle cx="170.6" cy="132.6" r="2" fill="#228833"/><circle cx="197.2" cy="132.2" r="2" fill="#228833"/><circle cx="223.9" cy="132.2" r="2" fill="#228833"/><circle cx="250.5" cy="132.2" r="2" fill="#228833"/><circle cx="277.1" cy="132.7" r="2" fill="#228833"/><circle cx="303.8" cy="132.2" r="2" fill="#228833"/><circle cx="330.4" cy="132.2" r="2" fill="#228833"/><circle cx="357.1" cy="132.2" r="2" fill="#228833"/><circle cx="383.7" cy="132.1" r="2" fill="#228833"/><circle cx="410.4" cy="132.7" r="2" fill="#228833"/><circle cx="437.0" cy="132.2" r="2" fill="#228833"/><circle cx="463.6" cy="44.7" r="2" fill="#228833"/><circle cx="490.3" cy="43.2" r="2" fill="#228833"/><circle cx="516.9" cy="44.9" r="2" fill="#228833"/><circle cx="543.6" cy="43.8" r="2" fill="#228833"/><circle cx="570.2" cy="43.5" r="2" fill="#228833"/><circle cx="596.9" cy="44.0" r="2" fill="#228833"/><circle cx="623.5" cy="44.0" r="2" fill="#228833"/><circle cx="650.1" cy="44.5" r="2" fill="#228833"/><circle cx="676.8" cy="44.3" r="2" fill="#228833"/><circle cx="703.4" cy="52.7" r="2" fill="#228833"/><circle cx="730.1" cy="51.8" r="2" fill="#228833"/><circle cx="756.7" cy="51.9" r="2" fill="#228833"/><circle cx="783.4" cy="51.6" r="2" fill="#228833"/><circle cx="810.0" cy="51.3" r="2" fill="#228833"/><rect x="820" y="64" width="10" height="10" fill="#228833"/><text x="834" y="73" font-size="10" fill="#444">chain-200</text><path d="M64.0,178.4 L90.6,178.3 L117.3,178.4 L143.9,178.5 L170.6,178.1 L197.2,178.3 L223.9,179.2 L250.5,178.6 L277.1,178.3 L303.8,178.5 L330.4,178.4 L357.1,178.5 L383.7,178.3 L410.4,178.1 L437.0,179.1 L463.6,49.8 L490.3,49.7 L516.9,50.2 L543.6,49.5 L570.2,47.4 L596.9,48.3 L623.5,49.3 L650.1,50.2 L676.8,49.3 L703.4,55.9 L730.1,54.2 L756.7,53.6 L783.4,54.9 L810.0,55.6" fill="none" stroke="#CCBB44" stroke-width="1.6"/><circle cx="64.0" cy="178.4" r="2" fill="#CCBB44"/><circle cx="90.6" cy="178.3" r="2" fill="#CCBB44"/><circle cx="117.3" cy="178.4" r="2" fill="#CCBB44"/><circle cx="143.9" cy="178.5" r="2" fill="#CCBB44"/><circle cx="170.6" cy="178.1" r="2" fill="#CCBB44"/><circle cx="197.2" cy="178.3" r="2" fill="#CCBB44"/><circle cx="223.9" cy="179.2" r="2" fill="#CCBB44"/><circle cx="250.5" cy="178.6" r="2" fill="#CCBB44"/><circle cx="277.1" cy="178.3" r="2" fill="#CCBB44"/><circle cx="303.8" cy="178.5" r="2" fill="#CCBB44"/><circle cx="330.4" cy="178.4" r="2" fill="#CCBB44"/><circle cx="357.1" cy="178.5" r="2" fill="#CCBB44"/><circle cx="383.7" cy="178.3" r="2" fill="#CCBB44"/><circle cx="410.4" cy="178.1" r="2" fill="#CCBB44"/><circle cx="437.0" cy="179.1" r="2" fill="#CCBB44"/><circle cx="463.6" cy="49.8" r="2" fill="#CCBB44"/><circle cx="490.3" cy="49.7" r="2" fill="#CCBB44"/><circle cx="516.9" cy="50.2" r="2" fill="#CCBB44"/><circle cx="543.6" cy="49.5" r="2" fill="#CCBB44"/><circle cx="570.2" cy="47.4" r="2" fill="#CCBB44"/><circle cx="596.9" cy="48.3" r="2" fill="#CCBB44"/><circle cx="623.5" cy="49.3" r="2" fill="#CCBB44"/><circle cx="650.1" cy="50.2" r="2" fill="#CCBB44"/><circle cx="676.8" cy="49.3" r="2" fill="#CCBB44"/><circle cx="703.4" cy="55.9" r="2" fill="#CCBB44"/><circle cx="730.1" cy="54.2" r="2" fill="#CCBB44"/><circle cx="756.7" cy="53.6" r="2" fill="#CCBB44"/><circle cx="783.4" cy="54.9" r="2" fill="#CCBB44"/><circle cx="810.0" cy="55.6" r="2" fill="#CCBB44"/><rect x="820" y="79" width="10" height="10" fill="#CCBB44"/><text x="834" y="88" font-size="10" fill="#444">chain-1000</text><path d="M64.0,122.6 L90.6,122.7 L117.3,122.6 L143.9,122.8 L170.6,122.6 L197.2,122.6 L223.9,122.7 L250.5,122.8 L277.1,122.7 L303.8,122.7 L330.4,122.7 L357.1,122.7 L383.7,123.1 L410.4,122.7 L437.0,122.6 L463.6,70.0 L490.3,68.4 L516.9,69.6 L543.6,70.0 L570.2,68.5 L596.9,69.5 L623.5,70.3 L650.1,69.5 L676.8,69.4 L703.4,81.8 L730.1,82.6 L756.7,81.1 L783.4,82.0 L810.0,81.9" fill="none" stroke="#66CCEE" stroke-width="1.6"/><circle cx="64.0" cy="122.6" r="2" fill="#66CCEE"/><circle cx="90.6" cy="122.7" r="2" fill="#66CCEE"/><circle cx="117.3" cy="122.6" r="2" fill="#66CCEE"/><circle cx="143.9" cy="122.8" r="2" fill="#66CCEE"/><circle cx="170.6" cy="122.6" r="2" fill="#66CCEE"/><circle cx="197.2" cy="122.6" r="2" fill="#66CCEE"/><circle cx="223.9" cy="122.7" r="2" fill="#66CCEE"/><circle cx="250.5" cy="122.8" r="2" fill="#66CCEE"/><circle cx="277.1" cy="122.7" r="2" fill="#66CCEE"/><circle cx="303.8" cy="122.7" r="2" fill="#66CCEE"/><circle cx="330.4" cy="122.7" r="2" fill="#66CCEE"/><circle cx="357.1" cy="122.7" r="2" fill="#66CCEE"/><circle cx="383.7" cy="123.1" r="2" fill="#66CCEE"/><circle cx="410.4" cy="122.7" r="2" fill="#66CCEE"/><circle cx="437.0" cy="122.6" r="2" fill="#66CCEE"/><circle cx="463.6" cy="70.0" r="2" fill="#66CCEE"/><circle cx="490.3" cy="68.4" r="2" fill="#66CCEE"/><circle cx="516.9" cy="69.6" r="2" fill="#66CCEE"/><circle cx="543.6" cy="70.0" r="2" fill="#66CCEE"/><circle cx="570.2" cy="68.5" r="2" fill="#66CCEE"/><circle cx="596.9" cy="69.5" r="2" fill="#66CCEE"/><circle cx="623.5" cy="70.3" r="2" fill="#66CCEE"/><circle cx="650.1" cy="69.5" r="2" fill="#66CCEE"/><circle cx="676.8" cy="69.4" r="2" fill="#66CCEE"/><circle cx="703.4" cy="81.8" r="2" fill="#66CCEE"/><circle cx="730.1" cy="82.6" r="2" fill="#66CCEE"/><circle cx="756.7" cy="81.1" r="2" fill="#66CCEE"/><circle cx="783.4" cy="82.0" r="2" fill="#66CCEE"/><circle cx="810.0" cy="81.9" r="2" fill="#66CCEE"/><rect x="820" y="94" width="10" height="10" fill="#66CCEE"/><text x="834" y="103" font-size="10" fill="#444">dense-10</text><path d="M64.0,227.6 L90.6,227.1 L117.3,227.3 L143.9,227.4 L170.6,227.2 L197.2,227.2 L223.9,227.3 L250.5,227.2 L277.1,227.4 L303.8,227.6 L330.4,227.1 L357.1,227.2 L383.7,227.4 L410.4,227.1 L437.0,227.3 L463.6,108.9 L490.3,108.7 L516.9,108.6 L543.6,108.7 L570.2,108.2 L596.9,108.6 L623.5,110.8 L650.1,109.9 L676.8,112.1 L703.4,129.9 L730.1,129.6 L756.7,130.1 L783.4,129.3 L810.0,129.6" fill="none" stroke="#AA3377" stroke-width="1.6"/><circle cx="64.0" cy="227.6" r="2" fill="#AA3377"/><circle cx="90.6" cy="227.1" r="2" fill="#AA3377"/><circle cx="117.3" cy="227.3" r="2" fill="#AA3377"/><circle cx="143.9" cy="227.4" r="2" fill="#AA3377"/><circle cx="170.6" cy="227.2" r="2" fill="#AA3377"/><circle cx="197.2" cy="227.2" r="2" fill="#AA3377"/><circle cx="223.9" cy="227.3" r="2" fill="#AA3377"/><circle cx="250.5" cy="227.2" r="2" fill="#AA3377"/><circle cx="277.1" cy="227.4" r="2" fill="#AA3377"/><circle cx="303.8" cy="227.6" r="2" fill="#AA3377"/><circle cx="330.4" cy="227.1" r="2" fill="#AA3377"/><circle cx="357.1" cy="227.2" r="2" fill="#AA3377"/><circle cx="383.7" cy="227.4" r="2" fill="#AA3377"/><circle cx="410.4" cy="227.1" r="2" fill="#AA3377"/><circle cx="437.0" cy="227.3" r="2" fill="#AA3377"/><circle cx="463.6" cy="108.9" r="2" fill="#AA3377"/><circle cx="490.3" cy="108.7" r="2" fill="#AA3377"/><circle cx="516.9" cy="108.6" r="2" fill="#AA3377"/><circle cx="543.6" cy="108.7" r="2" fill="#AA3377"/><circle cx="570.2" cy="108.2" r="2" fill="#AA3377"/><circle cx="596.9" cy="108.6" r="2" fill="#AA3377"/><circle cx="623.5" cy="110.8" r="2" fill="#AA3377"/><circle cx="650.1" cy="109.9" r="2" fill="#AA3377"/><circle cx="676.8" cy="112.1" r="2" fill="#AA3377"/><circle cx="703.4" cy="129.9" r="2" fill="#AA3377"/><circle cx="730.1" cy="129.6" r="2" fill="#AA3377"/><circle cx="756.7" cy="130.1" r="2" fill="#AA3377"/><circle cx="783.4" cy="129.3" r="2" fill="#AA3377"/><circle cx="810.0" cy="129.6" r="2" fill="#AA3377"/><rect x="820" y="109" width="10" height="10" fill="#AA3377"/><text x="834" y="118" font-size="10" fill="#444">dense-50</text><path d="M64.0,323.3 L90.6,322.5 L117.3,322.2 L143.9,322.5 L170.6,323.4 L197.2,321.8 L223.9,322.5 L250.5,322.8 L277.1,324.0 L303.8,324.0 L330.4,322.5 L357.1,323.3 L383.7,321.8 L410.4,322.5 L437.0,322.5 L463.6,147.8 L490.3,150.3 L516.9,150.3 L543.6,151.4 L570.2,151.6 L596.9,150.2 L623.5,150.8 L650.1,150.6 L676.8,163.9 L703.4,181.7 L730.1,180.1 L756.7,181.6 L783.4,180.7 L810.0,181.2" fill="none" stroke="#BBBBBB" stroke-width="1.6"/><circle cx="64.0" cy="323.3" r="2" fill="#BBBBBB"/><circle cx="90.6" cy="322.5" r="2" fill="#BBBBBB"/><circle cx="117.3" cy="322.2" r="2" fill="#BBBBBB"/><circle cx="143.9" cy="322.5" r="2" fill="#BBBBBB"/><circle cx="170.6" cy="323.4" r="2" fill="#BBBBBB"/><circle cx="197.2" cy="321.8" r="2" fill="#BBBBBB"/><circle cx="223.9" cy="322.5" r="2" fill="#BBBBBB"/><circle cx="250.5" cy="322.8" r="2" fill="#BBBBBB"/><circle cx="277.1" cy="324.0" r="2" fill="#BBBBBB"/><circle cx="303.8" cy="324.0" r="2" fill="#BBBBBB"/><circle cx="330.4" cy="322.5" r="2" fill="#BBBBBB"/><circle cx="357.1" cy="323.3" r="2" fill="#BBBBBB"/><circle cx="383.7" cy="321.8" r="2" fill="#BBBBBB"/><circle cx="410.4" cy="322.5" r="2" fill="#BBBBBB"/><circle cx="437.0" cy="322.5" r="2" fill="#BBBBBB"/><circle cx="463.6" cy="147.8" r="2" fill="#BBBBBB"/><circle cx="490.3" cy="150.3" r="2" fill="#BBBBBB"/><circle cx="516.9" cy="150.3" r="2" fill="#BBBBBB"/><circle cx="543.6" cy="151.4" r="2" fill="#BBBBBB"/><circle cx="570.2" cy="151.6" r="2" fill="#BBBBBB"/><circle cx="596.9" cy="150.2" r="2" fill="#BBBBBB"/><circle cx="623.5" cy="150.8" r="2" fill="#BBBBBB"/><circle cx="650.1" cy="150.6" r="2" fill="#BBBBBB"/><circle cx="676.8" cy="163.9" r="2" fill="#BBBBBB"/><circle cx="703.4" cy="181.7" r="2" fill="#BBBBBB"/><circle cx="730.1" cy="180.1" r="2" fill="#BBBBBB"/><circle cx="756.7" cy="181.6" r="2" fill="#BBBBBB"/><circle cx="783.4" cy="180.7" r="2" fill="#BBBBBB"/><circle cx="810.0" cy="181.2" r="2" fill="#BBBBBB"/><rect x="820" y="124" width="10" height="10" fill="#BBBBBB"/><text x="834" y="133" font-size="10" fill="#444">dense-200</text><path d="M64.0,119.8 L90.6,119.7 L117.3,119.7 L143.9,119.7 L170.6,119.7 L197.2,119.8 L223.9,120.0 L250.5,120.4 L277.1,119.9 L303.8,119.8 L330.4,119.9 L357.1,119.8 L383.7,119.5 L410.4,119.7 L437.0,119.8 L463.6,83.8 L490.3,85.6 L516.9,85.1 L543.6,85.7 L570.2,85.4 L596.9,87.0 L623.5,86.0 L650.1,85.6 L676.8,84.9 L703.4,105.8 L730.1,106.4 L756.7,105.5 L783.4,106.7 L810.0,105.8" fill="none" stroke="#222255" stroke-width="1.6"/><circle cx="64.0" cy="119.8" r="2" fill="#222255"/><circle cx="90.6" cy="119.7" r="2" fill="#222255"/><circle cx="117.3" cy="119.7" r="2" fill="#222255"/><circle cx="143.9" cy="119.7" r="2" fill="#222255"/><circle cx="170.6" cy="119.7" r="2" fill="#222255"/><circle cx="197.2" cy="119.8" r="2" fill="#222255"/><circle cx="223.9" cy="120.0" r="2" fill="#222255"/><circle cx="250.5" cy="120.4" r="2" fill="#222255"/><circle cx="277.1" cy="119.9" r="2" fill="#222255"/><circle cx="303.8" cy="119.8" r="2" fill="#222255"/><circle cx="330.4" cy="119.9" r="2" fill="#222255"/><circle cx="357.1" cy="119.8" r="2" fill="#222255"/><circle cx="383.7" cy="119.5" r="2" fill="#222255"/><circle cx="410.4" cy="119.7" r="2" fill="#222255"/><circle cx="437.0" cy="119.8" r="2" fill="#222255"/><circle cx="463.6" cy="83.8" r="2" fill="#222255"/><circle cx="490.3" cy="85.6" r="2" fill="#222255"/><circle cx="516.9" cy="85.1" r="2" fill="#222255"/><circle cx="543.6" cy="85.7" r="2" fill="#222255"/><circle cx="570.2" cy="85.4" r="2" fill="#222255"/><circle cx="596.9" cy="87.0" r="2" fill="#222255"/><circle cx="623.5" cy="86.0" r="2" fill="#222255"/><circle cx="650.1" cy="85.6" r="2" fill="#222255"/><circle cx="676.8" cy="84.9" r="2" fill="#222255"/><circle cx="703.4" cy="105.8" r="2" fill="#222255"/><circle cx="730.1" cy="106.4" r="2" fill="#222255"/><circle cx="756.7" cy="105.5" r="2" fill="#222255"/><circle cx="783.4" cy="106.7" r="2" fill="#222255"/><circle cx="810.0" cy="105.8" r="2" fill="#222255"/><rect x="820" y="139" width="10" height="10" fill="#222255"/><text x="834" y="148" font-size="10" fill="#444">hub-50</text><path d="M64.0,163.1 L90.6,163.0 L117.3,163.6 L143.9,163.4 L170.6,163.8 L197.2,163.0 L223.9,163.2 L250.5,163.1 L277.1,163.1 L303.8,162.4 L330.4,163.0 L357.1,163.2 L383.7,163.0 L410.4,163.4 L437.0,163.5 L463.6,118.4 L490.3,118.7 L516.9,118.3 L543.6,118.8 L570.2,118.2 L596.9,118.2 L623.5,117.8 L650.1,118.9 L676.8,119.9 L703.4,149.7 L730.1,149.3 L756.7,147.9 L783.4,148.2 L810.0,148.3" fill="none" stroke="#225555" stroke-width="1.6"/><circle cx="64.0" cy="163.1" r="2" fill="#225555"/><circle cx="90.6" cy="163.0" r="2" fill="#225555"/><circle cx="117.3" cy="163.6" r="2" fill="#225555"/><circle cx="143.9" cy="163.4" r="2" fill="#225555"/><circle cx="170.6" cy="163.8" r="2" fill="#225555"/><circle cx="197.2" cy="163.0" r="2" fill="#225555"/><circle cx="223.9" cy="163.2" r="2" fill="#225555"/><circle cx="250.5" cy="163.1" r="2" fill="#225555"/><circle cx="277.1" cy="163.1" r="2" fill="#225555"/><circle cx="303.8" cy="162.4" r="2" fill="#225555"/><circle cx="330.4" cy="163.0" r="2" fill="#225555"/><circle cx="357.1" cy="163.2" r="2" fill="#225555"/><circle cx="383.7" cy="163.0" r="2" fill="#225555"/><circle cx="410.4" cy="163.4" r="2" fill="#225555"/><circle cx="437.0" cy="163.5" r="2" fill="#225555"/><circle cx="463.6" cy="118.4" r="2" fill="#225555"/><circle cx="490.3" cy="118.7" r="2" fill="#225555"/><circle cx="516.9" cy="118.3" r="2" fill="#225555"/><circle cx="543.6" cy="118.8" r="2" fill="#225555"/><circle cx="570.2" cy="118.2" r="2" fill="#225555"/><circle cx="596.9" cy="118.2" r="2" fill="#225555"/><circle cx="623.5" cy="117.8" r="2" fill="#225555"/><circle cx="650.1" cy="118.9" r="2" fill="#225555"/><circle cx="676.8" cy="119.9" r="2" fill="#225555"/><circle cx="703.4" cy="149.7" r="2" fill="#225555"/><circle cx="730.1" cy="149.3" r="2" fill="#225555"/><circle cx="756.7" cy="147.9" r="2" fill="#225555"/><circle cx="783.4" cy="148.2" r="2" fill="#225555"/><circle cx="810.0" cy="148.3" r="2" fill="#225555"/><rect x="820" y="154" width="10" height="10" fill="#225555"/><text x="834" y="163" font-size="10" fill="#444">hub-200</text><path d="M64.0,161.9 L90.6,162.0 L117.3,161.9 L143.9,161.9 L170.6,162.1 L197.2,162.1 L223.9,162.0 L250.5,162.5 L277.1,162.1 L303.8,162.4 L330.4,162.0 L357.1,162.0 L383.7,162.3 L410.4,162.2 L437.0,162.3 L463.6,119.1 L490.3,118.9 L516.9,118.2 L543.6,118.5 L570.2,117.7 L596.9,118.5 L623.5,117.7 L650.1,119.2 L676.8,118.3 L703.4,151.7 L730.1,151.3 L756.7,150.2 L783.4,154.3 L810.0,154.4" fill="none" stroke="#552222" stroke-width="1.6"/><circle cx="64.0" cy="161.9" r="2" fill="#552222"/><circle cx="90.6" cy="162.0" r="2" fill="#552222"/><circle cx="117.3" cy="161.9" r="2" fill="#552222"/><circle cx="143.9" cy="161.9" r="2" fill="#552222"/><circle cx="170.6" cy="162.1" r="2" fill="#552222"/><circle cx="197.2" cy="162.1" r="2" fill="#552222"/><circle cx="223.9" cy="162.0" r="2" fill="#552222"/><circle cx="250.5" cy="162.5" r="2" fill="#552222"/><circle cx="277.1" cy="162.1" r="2" fill="#552222"/><circle cx="303.8" cy="162.4" r="2" fill="#552222"/><circle cx="330.4" cy="162.0" r="2" fill="#552222"/><circle cx="357.1" cy="162.0" r="2" fill="#552222"/><circle cx="383.7" cy="162.3" r="2" fill="#552222"/><circle cx="410.4" cy="162.2" r="2" fill="#552222"/><circle cx="437.0" cy="162.3" r="2" fill="#552222"/><circle cx="463.6" cy="119.1" r="2" fill="#552222"/><circle cx="490.3" cy="118.9" r="2" fill="#552222"/><circle cx="516.9" cy="118.2" r="2" fill="#552222"/><circle cx="543.6" cy="118.5" r="2" fill="#552222"/><circle cx="570.2" cy="117.7" r="2" fill="#552222"/><circle cx="596.9" cy="118.5" r="2" fill="#552222"/><circle cx="623.5" cy="117.7" r="2" fill="#552222"/><circle cx="650.1" cy="119.2" r="2" fill="#552222"/><circle cx="676.8" cy="118.3" r="2" fill="#552222"/><circle cx="703.4" cy="151.7" r="2" fill="#552222"/><circle cx="730.1" cy="151.3" r="2" fill="#552222"/><circle cx="756.7" cy="150.2" r="2" fill="#552222"/><circle cx="783.4" cy="154.3" r="2" fill="#552222"/><circle cx="810.0" cy="154.4" r="2" fill="#552222"/><rect x="820" y="169" width="10" height="10" fill="#552222"/><text x="834" y="178" font-size="10" fill="#444">hooked-200</text><path d="M64.0,221.9 L90.6,222.0 L117.3,221.9 L143.9,222.1 L170.6,222.2 L197.2,222.0 L223.9,221.9 L250.5,222.0 L277.1,222.1 L303.8,223.0 L330.4,221.9 L357.1,221.9 L383.7,222.3 L410.4,221.9 L437.0,221.9 L463.6,49.7 L490.3,44.8 L516.9,46.1 L543.6,43.9 L570.2,47.5 L596.9,44.4 L623.5,46.5 L650.1,46.9 L676.8,49.1 L703.4,62.7 L730.1,60.3 L756.7,65.4 L783.4,62.7 L810.0,60.5" fill="none" stroke="#555522" stroke-width="1.6"/><circle cx="64.0" cy="221.9" r="2" fill="#555522"/><circle cx="90.6" cy="222.0" r="2" fill="#555522"/><circle cx="117.3" cy="221.9" r="2" fill="#555522"/><circle cx="143.9" cy="222.1" r="2" fill="#555522"/><circle cx="170.6" cy="222.2" r="2" fill="#555522"/><circle cx="197.2" cy="222.0" r="2" fill="#555522"/><circle cx="223.9" cy="221.9" r="2" fill="#555522"/><circle cx="250.5" cy="222.0" r="2" fill="#555522"/><circle cx="277.1" cy="222.1" r="2" fill="#555522"/><circle cx="303.8" cy="223.0" r="2" fill="#555522"/><circle cx="330.4" cy="221.9" r="2" fill="#555522"/><circle cx="357.1" cy="221.9" r="2" fill="#555522"/><circle cx="383.7" cy="222.3" r="2" fill="#555522"/><circle cx="410.4" cy="221.9" r="2" fill="#555522"/><circle cx="437.0" cy="221.9" r="2" fill="#555522"/><circle cx="463.6" cy="49.7" r="2" fill="#555522"/><circle cx="490.3" cy="44.8" r="2" fill="#555522"/><circle cx="516.9" cy="46.1" r="2" fill="#555522"/><circle cx="543.6" cy="43.9" r="2" fill="#555522"/><circle cx="570.2" cy="47.5" r="2" fill="#555522"/><circle cx="596.9" cy="44.4" r="2" fill="#555522"/><circle cx="623.5" cy="46.5" r="2" fill="#555522"/><circle cx="650.1" cy="46.9" r="2" fill="#555522"/><circle cx="676.8" cy="49.1" r="2" fill="#555522"/><circle cx="703.4" cy="62.7" r="2" fill="#555522"/><circle cx="730.1" cy="60.3" r="2" fill="#555522"/><circle cx="756.7" cy="65.4" r="2" fill="#555522"/><circle cx="783.4" cy="62.7" r="2" fill="#555522"/><circle cx="810.0" cy="60.5" r="2" fill="#555522"/><rect x="820" y="184" width="10" height="10" fill="#555522"/><text x="834" y="193" font-size="10" fill="#444">messy-1000</text><path d="M64.0,290.8 L90.6,290.6 L117.3,290.5 L143.9,290.6 L170.6,290.5 L197.2,290.6 L223.9,290.3 L250.5,290.4 L277.1,290.8 L303.8,290.6 L330.4,290.6 L357.1,290.8 L383.7,290.3 L410.4,290.6 L437.0,290.3 L463.6,44.2 L490.3,43.0 L516.9,43.6 L543.6,41.8 L570.2,41.1 L596.9,45.8 L623.5,44.6 L650.1,41.6 L676.8,44.1 L703.4,55.3 L730.1,58.9 L756.7,55.9 L783.4,56.5 L810.0,55.1" fill="none" stroke="#8855AA" stroke-width="1.6"/><circle cx="64.0" cy="290.8" r="2" fill="#8855AA"/><circle cx="90.6" cy="290.6" r="2" fill="#8855AA"/><circle cx="117.3" cy="290.5" r="2" fill="#8855AA"/><circle cx="143.9" cy="290.6" r="2" fill="#8855AA"/><circle cx="170.6" cy="290.5" r="2" fill="#8855AA"/><circle cx="197.2" cy="290.6" r="2" fill="#8855AA"/><circle cx="223.9" cy="290.3" r="2" fill="#8855AA"/><circle cx="250.5" cy="290.4" r="2" fill="#8855AA"/><circle cx="277.1" cy="290.8" r="2" fill="#8855AA"/><circle cx="303.8" cy="290.6" r="2" fill="#8855AA"/><circle cx="330.4" cy="290.6" r="2" fill="#8855AA"/><circle cx="357.1" cy="290.8" r="2" fill="#8855AA"/><circle cx="383.7" cy="290.3" r="2" fill="#8855AA"/><circle cx="410.4" cy="290.6" r="2" fill="#8855AA"/><circle cx="437.0" cy="290.3" r="2" fill="#8855AA"/><circle cx="463.6" cy="44.2" r="2" fill="#8855AA"/><circle cx="490.3" cy="43.0" r="2" fill="#8855AA"/><circle cx="516.9" cy="43.6" r="2" fill="#8855AA"/><circle cx="543.6" cy="41.8" r="2" fill="#8855AA"/><circle cx="570.2" cy="41.1" r="2" fill="#8855AA"/><circle cx="596.9" cy="45.8" r="2" fill="#8855AA"/><circle cx="623.5" cy="44.6" r="2" fill="#8855AA"/><circle cx="650.1" cy="41.6" r="2" fill="#8855AA"/><circle cx="676.8" cy="44.1" r="2" fill="#8855AA"/><circle cx="703.4" cy="55.3" r="2" fill="#8855AA"/><circle cx="730.1" cy="58.9" r="2" fill="#8855AA"/><circle cx="756.7" cy="55.9" r="2" fill="#8855AA"/><circle cx="783.4" cy="56.5" r="2" fill="#8855AA"/><circle cx="810.0" cy="55.1" r="2" fill="#8855AA"/><rect x="820" y="199" width="10" height="10" fill="#8855AA"/><text x="834" y="208" font-size="10" fill="#444">messy-5000</text></svg>