<svg width="960" height="372" xmlns="http://www.w3.org/2000/svg"><rect width="960" height="372" fill="#ffffff"/><text x="64" y="20" font-size="15" font-weight="bold" fill="#333">has_state() — ops/sec (log scale) by PR / release, c7g.medium</text><text x="64.0" y="340" font-size="9" text-anchor="middle" fill="#888">598</text><text x="117.3" y="340" font-size="9" text-anchor="middle" fill="#888">600</text><text x="170.6" y="340" font-size="9" text-anchor="middle" fill="#888">602</text><text x="223.9" y="340" font-size="9" text-anchor="middle" fill="#888">604</text><text x="277.1" y="340" font-size="9" text-anchor="middle" fill="#888">611</text><text x="330.4" y="340" font-size="9" text-anchor="middle" fill="#888">616</text><text x="383.7" y="340" font-size="9" text-anchor="middle" fill="#888">618</text><text x="437.0" y="340" font-size="9" text-anchor="middle" fill="#888">634</text><text x="490.3" y="340" font-size="9" text-anchor="middle" fill="#888">649</text><text x="543.6" y="340" font-size="9" text-anchor="middle" fill="#888">674</text><text x="596.9" y="340" font-size="9" text-anchor="middle" fill="#888">679</text><text x="650.1" y="340" font-size="9" text-anchor="middle" fill="#888">681</text><text x="703.4" y="340" font-size="9" text-anchor="end" fill="#a40" transform="rotate(-35 703.4 340)">v5.143.30</text><text x="756.7" y="340" font-size="9" text-anchor="end" fill="#a40" transform="rotate(-35 756.7 340)">v5.143.33</text><text x="810.0" y="340" font-size="9" text-anchor="end" fill="#a40" transform="rotate(-35 810.0 340)">v5.143.35</text><path d="M64.0,48.6 L90.6,52.0 L117.3,44.7 L143.9,42.7 L170.6,37.7 L197.2,51.3 L223.9,48.8 L250.5,48.0 L277.1,50.8 L303.8,44.3 L330.4,44.4 L357.1,56.8 L383.7,47.2 L410.4,44.0 L437.0,47.2 L463.6,52.8 L490.3,37.8 L516.9,55.3 L543.6,47.2 L570.2,43.4 L596.9,47.1 L623.5,48.4 L650.1,49.4 L676.8,46.1 L703.4,40.1 L730.1,57.5 L756.7,55.4 L783.4,48.3 L810.0,48.3" fill="none" stroke="#4477AA" stroke-width="1.6"/><circle cx="64.0" cy="48.6" r="2" fill="#4477AA"/><circle cx="90.6" cy="52.0" r="2" fill="#4477AA"/><circle cx="117.3" cy="44.7" r="2" fill="#4477AA"/><circle cx="143.9" cy="42.7" r="2" fill="#4477AA"/><circle cx="170.6" cy="37.7" r="2" fill="#4477AA"/><circle cx="197.2" cy="51.3" r="2" fill="#4477AA"/><circle cx="223.9" cy="48.8" r="2" fill="#4477AA"/><circle cx="250.5" cy="48.0" r="2" fill="#4477AA"/><circle cx="277.1" cy="50.8" r="2" fill="#4477AA"/><circle cx="303.8" cy="44.3" r="2" fill="#4477AA"/><circle cx="330.4" cy="44.4" r="2" fill="#4477AA"/><circle cx="357.1" cy="56.8" r="2" fill="#4477AA"/><circle cx="383.7" cy="47.2" r="2" fill="#4477AA"/><circle cx="410.4" cy="44.0" r="2" fill="#4477AA"/><circle cx="437.0" cy="47.2" r="2" fill="#4477AA"/><circle cx="463.6" cy="52.8" r="2" fill="#4477AA"/><circle cx="490.3" cy="37.8" r="2" fill="#4477AA"/><circle cx="516.9" cy="55.3" r="2" fill="#4477AA"/><circle cx="543.6" cy="47.2" r="2" fill="#4477AA"/><circle cx="570.2" cy="43.4" r="2" fill="#4477AA"/><circle cx="596.9" cy="47.1" r="2" fill="#4477AA"/><circle cx="623.5" cy="48.4" r="2" fill="#4477AA"/><circle cx="650.1" cy="49.4" r="2" fill="#4477AA"/><circle cx="676.8" cy="46.1" r="2" fill="#4477AA"/><circle cx="703.4" cy="40.1" r="2" fill="#4477AA"/><circle cx="730.1" cy="57.5" r="2" fill="#4477AA"/><circle cx="756.7" cy="55.4" r="2" fill="#4477AA"/><circle cx="783.4" cy="48.3" r="2" fill="#4477AA"/><circle cx="810.0" cy="48.3" r="2" fill="#4477AA"/><rect x="820" y="34" width="10" height="10" fill="#4477AA"/><text x="834" y="43" font-size="10" fill="#444">chain-10</text><path d="M64.0,52.2 L90.6,51.5 L117.3,46.2 L143.9,49.7 L170.6,36.5 L197.2,53.3 L223.9,51.4 L250.5,52.8 L277.1,60.2 L303.8,46.7 L330.4,54.9 L357.1,58.2 L383.7,52.4 L410.4,51.9 L437.0,50.7 L463.6,57.0 L490.3,59.5 L516.9,69.9 L543.6,53.6 L570.2,51.6 L596.9,52.8 L623.5,48.4 L650.1,54.2 L676.8,47.1 L703.4,324.0 L730.1,64.4 L756.7,59.6 L783.4,62.2 L810.0,50.1" fill="none" stroke="#EE6677" stroke-width="1.6"/><circle cx="64.0" cy="52.2" r="2" fill="#EE6677"/><circle cx="90.6" cy="51.5" r="2" fill="#EE6677"/><circle cx="117.3" cy="46.2" r="2" fill="#EE6677"/><circle cx="143.9" cy="49.7" r="2" fill="#EE6677"/><circle cx="170.6" cy="36.5" r="2" fill="#EE6677"/><circle cx="197.2" cy="53.3" r="2" fill="#EE6677"/><circle cx="223.9" cy="51.4" r="2" fill="#EE6677"/><circle cx="250.5" cy="52.8" r="2" fill="#EE6677"/><circle cx="277.1" cy="60.2" r="2" fill="#EE6677"/><circle cx="303.8" cy="46.7" r="2" fill="#EE6677"/><circle cx="330.4" cy="54.9" r="2" fill="#EE6677"/><circle cx="357.1" cy="58.2" r="2" fill="#EE6677"/><circle cx="383.7" cy="52.4" r="2" fill="#EE6677"/><circle cx="410.4" cy="51.9" r="2" fill="#EE6677"/><circle cx="437.0" cy="50.7" r="2" fill="#EE6677"/><circle cx="463.6" cy="57.0" r="2" fill="#EE6677"/><circle cx="490.3" cy="59.5" r="2" fill="#EE6677"/><circle cx="516.9" cy="69.9" r="2" fill="#EE6677"/><circle cx="543.6" cy="53.6" r="2" fill="#EE6677"/><circle cx="570.2" cy="51.6" r="2" fill="#EE6677"/><circle cx="596.9" cy="52.8" r="2" fill="#EE6677"/><circle cx="623.5" cy="48.4" r="2" fill="#EE6677"/><circle cx="650.1" cy="54.2" r="2" fill="#EE6677"/><circle cx="676.8" cy="47.1" r="2" fill="#EE6677"/><circle cx="703.4" cy="324.0" r="2" fill="#EE6677"/><circle cx="730.1" cy="64.4" r="2" fill="#EE6677"/><circle cx="756.7" cy="59.6" r="2" fill="#EE6677"/><circle cx="783.4" cy="62.2" r="2" fill="#EE6677"/><circle cx="810.0" cy="50.1" r="2" fill="#EE6677"/><rect x="820" y="49" width="10" height="10" fill="#EE6677"/><text x="834" y="58" font-size="10" fill="#444">chain-50</text><path d="M64.0,59.0 L90.6,53.5 L117.3,56.7 L143.9,56.3 L170.6,43.8 L197.2,55.6 L223.9,54.5 L250.5,59.0 L277.1,60.9 L303.8,51.8 L330.4,59.6 L357.1,61.4 L383.7,63.0 L410.4,56.6 L437.0,56.3 L463.6,62.9 L490.3,61.2 L516.9,66.5 L543.6,56.2 L570.2,52.5 L596.9,56.9 L623.5,68.7 L650.1,57.4 L676.8,53.6 L703.4,59.7 L730.1,54.3 L756.7,70.3 L783.4,55.6 L810.0,53.3" fill="none" stroke="#228833" stroke-width="1.6"/><circle cx="64.0" cy="59.0" r="2" fill="#228833"/><circle cx="90.6" cy="53.5" r="2" fill="#228833"/><circle cx="117.3" cy="56.7" r="2" fill="#228833"/><circle cx="143.9" cy="56.3" r="2" fill="#228833"/><circle cx="170.6" cy="43.8" r="2" fill="#228833"/><circle cx="197.2" cy="55.6" r="2" fill="#228833"/><circle cx="223.9" cy="54.5" r="2" fill="#228833"/><circle cx="250.5" cy="59.0" r="2" fill="#228833"/><circle cx="277.1" cy="60.9" r="2" fill="#228833"/><circle cx="303.8" cy="51.8" r="2" fill="#228833"/><circle cx="330.4" cy="59.6" r="2" fill="#228833"/><circle cx="357.1" cy="61.4" r="2" fill="#228833"/><circle cx="383.7" cy="63.0" r="2" fill="#228833"/><circle cx="410.4" cy="56.6" r="2" fill="#228833"/><circle cx="437.0" cy="56.3" r="2" fill="#228833"/><circle cx="463.6" cy="62.9" r="2" fill="#228833"/><circle cx="490.3" cy="61.2" r="2" fill="#228833"/><circle cx="516.9" cy="66.5" r="2" fill="#228833"/><circle cx="543.6" cy="56.2" r="2" fill="#228833"/><circle cx="570.2" cy="52.5" r="2" fill="#228833"/><circle cx="596.9" cy="56.9" r="2" fill="#228833"/><circle cx="623.5" cy="68.7" r="2" fill="#228833"/><circle cx="650.1" cy="57.4" r="2" fill="#228833"/><circle cx="676.8" cy="53.6" r="2" fill="#228833"/><circle cx="703.4" cy="59.7" r="2" fill="#228833"/><circle cx="730.1" cy="54.3" r="2" fill="#228833"/><circle cx="756.7" cy="70.3" r="2" fill="#228833"/><circle cx="783.4" cy="55.6" r="2" fill="#228833"/><circle cx="810.0" cy="53.3" r="2" fill="#228833"/><rect x="820" y="64" width="10" height="10" fill="#228833"/><text x="834" y="73" font-size="10" fill="#444">chain-200</text><path d="M64.0,61.3 L90.6,57.3 L117.3,50.0 L143.9,57.7 L170.6,46.0 L197.2,65.2 L223.9,53.4 L250.5,67.2 L277.1,60.2 L303.8,60.4 L330.4,61.8 L357.1,60.6 L383.7,56.3 L410.4,56.8 L437.0,54.3 L463.6,64.2 L490.3,59.3 L516.9,66.0 L543.6,65.1 L570.2,57.9 L596.9,58.8 L623.5,60.1 L650.1,66.8 L676.8,60.4 L703.4,68.2 L730.1,64.9 L756.7,69.3 L783.4,57.0 L810.0,65.0" fill="none" stroke="#CCBB44" stroke-width="1.6"/><circle cx="64.0" cy="61.3" r="2" fill="#CCBB44"/><circle cx="90.6" cy="57.3" r="2" fill="#CCBB44"/><circle cx="117.3" cy="50.0" r="2" fill="#CCBB44"/><circle cx="143.9" cy="57.7" r="2" fill="#CCBB44"/><circle cx="170.6" cy="46.0" r="2" fill="#CCBB44"/><circle cx="197.2" cy="65.2" r="2" fill="#CCBB44"/><circle cx="223.9" cy="53.4" r="2" fill="#CCBB44"/><circle cx="250.5" cy="67.2" r="2" fill="#CCBB44"/><circle cx="277.1" cy="60.2" r="2" fill="#CCBB44"/><circle cx="303.8" cy="60.4" r="2" fill="#CCBB44"/><circle cx="330.4" cy="61.8" r="2" fill="#CCBB44"/><circle cx="357.1" cy="60.6" r="2" fill="#CCBB44"/><circle cx="383.7" cy="56.3" r="2" fill="#CCBB44"/><circle cx="410.4" cy="56.8" r="2" fill="#CCBB44"/><circle cx="437.0" cy="54.3" r="2" fill="#CCBB44"/><circle cx="463.6" cy="64.2" r="2" fill="#CCBB44"/><circle cx="490.3" cy="59.3" r="2" fill="#CCBB44"/><circle cx="516.9" cy="66.0" r="2" fill="#CCBB44"/><circle cx="543.6" cy="65.1" r="2" fill="#CCBB44"/><circle cx="570.2" cy="57.9" r="2" fill="#CCBB44"/><circle cx="596.9" cy="58.8" r="2" fill="#CCBB44"/><circle cx="623.5" cy="60.1" r="2" fill="#CCBB44"/><circle cx="650.1" cy="66.8" r="2" fill="#CCBB44"/><circle cx="676.8" cy="60.4" r="2" fill="#CCBB44"/><circle cx="703.4" cy="68.2" r="2" fill="#CCBB44"/><circle cx="730.1" cy="64.9" r="2" fill="#CCBB44"/><circle cx="756.7" cy="69.3" r="2" fill="#CCBB44"/><circle cx="783.4" cy="57.0" r="2" fill="#CCBB44"/><circle cx="810.0" cy="65.0" r="2" fill="#CCBB44"/><rect x="820" y="79" width="10" height="10" fill="#CCBB44"/><text x="834" y="88" font-size="10" fill="#444">chain-1000</text><path d="M64.0,48.2 L90.6,46.2 L117.3,43.9 L143.9,41.6 L170.6,37.0 L197.2,50.2 L223.9,43.5 L250.5,49.8 L277.1,44.7 L303.8,44.0 L330.4,45.6 L357.1,43.4 L383.7,51.9 L410.4,47.4 L437.0,50.1 L463.6,57.9 L490.3,45.9 L516.9,57.2 L543.6,53.8 L570.2,48.4 L596.9,54.6 L623.5,53.4 L650.1,47.5 L676.8,47.5 L703.4,46.6 L730.1,68.5 L756.7,49.2 L783.4,56.8 L810.0,65.5" fill="none" stroke="#66CCEE" stroke-width="1.6"/><circle cx="64.0" cy="48.2" r="2" fill="#66CCEE"/><circle cx="90.6" cy="46.2" r="2" fill="#66CCEE"/><circle cx="117.3" cy="43.9" r="2" fill="#66CCEE"/><circle cx="143.9" cy="41.6" r="2" fill="#66CCEE"/><circle cx="170.6" cy="37.0" r="2" fill="#66CCEE"/><circle cx="197.2" cy="50.2" r="2" fill="#66CCEE"/><circle cx="223.9" cy="43.5" r="2" fill="#66CCEE"/><circle cx="250.5" cy="49.8" r="2" fill="#66CCEE"/><circle cx="277.1" cy="44.7" r="2" fill="#66CCEE"/><circle cx="303.8" cy="44.0" r="2" fill="#66CCEE"/><circle cx="330.4" cy="45.6" r="2" fill="#66CCEE"/><circle cx="357.1" cy="43.4" r="2" fill="#66CCEE"/><circle cx="383.7" cy="51.9" r="2" fill="#66CCEE"/><circle cx="410.4" cy="47.4" r="2" fill="#66CCEE"/><circle cx="437.0" cy="50.1" r="2" fill="#66CCEE"/><circle cx="463.6" cy="57.9" r="2" fill="#66CCEE"/><circle cx="490.3" cy="45.9" r="2" fill="#66CCEE"/><circle cx="516.9" cy="57.2" r="2" fill="#66CCEE"/><circle cx="543.6" cy="53.8" r="2" fill="#66CCEE"/><circle cx="570.2" cy="48.4" r="2" fill="#66CCEE"/><circle cx="596.9" cy="54.6" r="2" fill="#66CCEE"/><circle cx="623.5" cy="53.4" r="2" fill="#66CCEE"/><circle cx="650.1" cy="47.5" r="2" fill="#66CCEE"/><circle cx="676.8" cy="47.5" r="2" fill="#66CCEE"/><circle cx="703.4" cy="46.6" r="2" fill="#66CCEE"/><circle cx="730.1" cy="68.5" r="2" fill="#66CCEE"/><circle cx="756.7" cy="49.2" r="2" fill="#66CCEE"/><circle cx="783.4" cy="56.8" r="2" fill="#66CCEE"/><circle cx="810.0" cy="65.5" r="2" fill="#66CCEE"/><rect x="820" y="94" width="10" height="10" fill="#66CCEE"/><text x="834" y="103" font-size="10" fill="#444">dense-10</text><path d="M64.0,52.9 L90.6,46.3 L117.3,38.9 L143.9,45.9 L170.6,39.0 L197.2,48.7 L223.9,48.8 L250.5,53.6 L277.1,55.2 L303.8,52.9 L330.4,49.6 L357.1,58.6 L383.7,55.1 L410.4,52.7 L437.0,46.9 L463.6,52.7 L490.3,53.8 L516.9,57.6 L543.6,54.3 L570.2,54.2 L596.9,49.4 L623.5,49.8 L650.1,59.6 L676.8,45.6 L703.4,46.3 L730.1,53.5 L756.7,67.6 L783.4,48.3 L810.0,54.0" fill="none" stroke="#AA3377" stroke-width="1.6"/><circle cx="64.0" cy="52.9" r="2" fill="#AA3377"/><circle cx="90.6" cy="46.3" r="2" fill="#AA3377"/><circle cx="117.3" cy="38.9" r="2" fill="#AA3377"/><circle cx="143.9" cy="45.9" r="2" fill="#AA3377"/><circle cx="170.6" cy="39.0" r="2" fill="#AA3377"/><circle cx="197.2" cy="48.7" r="2" fill="#AA3377"/><circle cx="223.9" cy="48.8" r="2" fill="#AA3377"/><circle cx="250.5" cy="53.6" r="2" fill="#AA3377"/><circle cx="277.1" cy="55.2" r="2" fill="#AA3377"/><circle cx="303.8" cy="52.9" r="2" fill="#AA3377"/><circle cx="330.4" cy="49.6" r="2" fill="#AA3377"/><circle cx="357.1" cy="58.6" r="2" fill="#AA3377"/><circle cx="383.7" cy="55.1" r="2" fill="#AA3377"/><circle cx="410.4" cy="52.7" r="2" fill="#AA3377"/><circle cx="437.0" cy="46.9" r="2" fill="#AA3377"/><circle cx="463.6" cy="52.7" r="2" fill="#AA3377"/><circle cx="490.3" cy="53.8" r="2" fill="#AA3377"/><circle cx="516.9" cy="57.6" r="2" fill="#AA3377"/><circle cx="543.6" cy="54.3" r="2" fill="#AA3377"/><circle cx="570.2" cy="54.2" r="2" fill="#AA3377"/><circle cx="596.9" cy="49.4" r="2" fill="#AA3377"/><circle cx="623.5" cy="49.8" r="2" fill="#AA3377"/><circle cx="650.1" cy="59.6" r="2" fill="#AA3377"/><circle cx="676.8" cy="45.6" r="2" fill="#AA3377"/><circle cx="703.4" cy="46.3" r="2" fill="#AA3377"/><circle cx="730.1" cy="53.5" r="2" fill="#AA3377"/><circle cx="756.7" cy="67.6" r="2" fill="#AA3377"/><circle cx="783.4" cy="48.3" r="2" fill="#AA3377"/><circle cx="810.0" cy="54.0" r="2" fill="#AA3377"/><rect x="820" y="109" width="10" height="10" fill="#AA3377"/><text x="834" y="118" font-size="10" fill="#444">dense-50</text><path d="M64.0,60.4 L90.6,56.6 L117.3,49.1 L143.9,55.9 L170.6,45.6 L197.2,59.1 L223.9,55.2 L250.5,58.0 L277.1,59.1 L303.8,56.3 L330.4,58.5 L357.1,77.6 L383.7,56.2 L410.4,58.0 L437.0,48.9 L463.6,62.4 L490.3,52.8 L516.9,73.0 L543.6,58.7 L570.2,60.0 L596.9,59.8 L623.5,56.7 L650.1,55.6 L676.8,52.7 L703.4,60.4 L730.1,62.6 L756.7,62.0 L783.4,55.1 L810.0,67.1" fill="none" stroke="#BBBBBB" stroke-width="1.6"/><circle cx="64.0" cy="60.4" r="2" fill="#BBBBBB"/><circle cx="90.6" cy="56.6" r="2" fill="#BBBBBB"/><circle cx="117.3" cy="49.1" r="2" fill="#BBBBBB"/><circle cx="143.9" cy="55.9" r="2" fill="#BBBBBB"/><circle cx="170.6" cy="45.6" r="2" fill="#BBBBBB"/><circle cx="197.2" cy="59.1" r="2" fill="#BBBBBB"/><circle cx="223.9" cy="55.2" r="2" fill="#BBBBBB"/><circle cx="250.5" cy="58.0" r="2" fill="#BBBBBB"/><circle cx="277.1" cy="59.1" r="2" fill="#BBBBBB"/><circle cx="303.8" cy="56.3" r="2" fill="#BBBBBB"/><circle cx="330.4" cy="58.5" r="2" fill="#BBBBBB"/><circle cx="357.1" cy="77.6" r="2" fill="#BBBBBB"/><circle cx="383.7" cy="56.2" r="2" fill="#BBBBBB"/><circle cx="410.4" cy="58.0" r="2" fill="#BBBBBB"/><circle cx="437.0" cy="48.9" r="2" fill="#BBBBBB"/><circle cx="463.6" cy="62.4" r="2" fill="#BBBBBB"/><circle cx="490.3" cy="52.8" r="2" fill="#BBBBBB"/><circle cx="516.9" cy="73.0" r="2" fill="#BBBBBB"/><circle cx="543.6" cy="58.7" r="2" fill="#BBBBBB"/><circle cx="570.2" cy="60.0" r="2" fill="#BBBBBB"/><circle cx="596.9" cy="59.8" r="2" fill="#BBBBBB"/><circle cx="623.5" cy="56.7" r="2" fill="#BBBBBB"/><circle cx="650.1" cy="55.6" r="2" fill="#BBBBBB"/><circle cx="676.8" cy="52.7" r="2" fill="#BBBBBB"/><circle cx="703.4" cy="60.4" r="2" fill="#BBBBBB"/><circle cx="730.1" cy="62.6" r="2" fill="#BBBBBB"/><circle cx="756.7" cy="62.0" r="2" fill="#BBBBBB"/><circle cx="783.4" cy="55.1" r="2" fill="#BBBBBB"/><circle cx="810.0" cy="67.1" r="2" fill="#BBBBBB"/><rect x="820" y="124" width="10" height="10" fill="#BBBBBB"/><text x="834" y="133" font-size="10" fill="#444">dense-200</text><path d="M64.0,49.5 L90.6,42.5 L117.3,44.6 L143.9,43.9 L170.6,55.2 L197.2,57.6 L223.9,42.0 L250.5,49.5 L277.1,56.4 L303.8,36.8 L330.4,51.0 L357.1,59.7 L383.7,70.2 L410.4,52.3 L437.0,43.7 L463.6,53.5 L490.3,61.6 L516.9,62.6 L543.6,55.2 L570.2,51.4 L596.9,59.4 L623.5,56.9 L650.1,56.0 L676.8,46.3 L703.4,46.0 L730.1,54.7 L756.7,56.3 L783.4,41.6 L810.0,48.6" fill="none" stroke="#222255" stroke-width="1.6"/><circle cx="64.0" cy="49.5" r="2" fill="#222255"/><circle cx="90.6" cy="42.5" r="2" fill="#222255"/><circle cx="117.3" cy="44.6" r="2" fill="#222255"/><circle cx="143.9" cy="43.9" r="2" fill="#222255"/><circle cx="170.6" cy="55.2" r="2" fill="#222255"/><circle cx="197.2" cy="57.6" r="2" fill="#222255"/><circle cx="223.9" cy="42.0" r="2" fill="#222255"/><circle cx="250.5" cy="49.5" r="2" fill="#222255"/><circle cx="277.1" cy="56.4" r="2" fill="#222255"/><circle cx="303.8" cy="36.8" r="2" fill="#222255"/><circle cx="330.4" cy="51.0" r="2" fill="#222255"/><circle cx="357.1" cy="59.7" r="2" fill="#222255"/><circle cx="383.7" cy="70.2" r="2" fill="#222255"/><circle cx="410.4" cy="52.3" r="2" fill="#222255"/><circle cx="437.0" cy="43.7" r="2" fill="#222255"/><circle cx="463.6" cy="53.5" r="2" fill="#222255"/><circle cx="490.3" cy="61.6" r="2" fill="#222255"/><circle cx="516.9" cy="62.6" r="2" fill="#222255"/><circle cx="543.6" cy="55.2" r="2" fill="#222255"/><circle cx="570.2" cy="51.4" r="2" fill="#222255"/><circle cx="596.9" cy="59.4" r="2" fill="#222255"/><circle cx="623.5" cy="56.9" r="2" fill="#222255"/><circle cx="650.1" cy="56.0" r="2" fill="#222255"/><circle cx="676.8" cy="46.3" r="2" fill="#222255"/><circle cx="703.4" cy="46.0" r="2" fill="#222255"/><circle cx="730.1" cy="54.7" r="2" fill="#222255"/><circle cx="756.7" cy="56.3" r="2" fill="#222255"/><circle cx="783.4" cy="41.6" r="2" fill="#222255"/><circle cx="810.0" cy="48.6" r="2" fill="#222255"/><rect x="820" y="139" width="10" height="10" fill="#222255"/><text x="834" y="148" font-size="10" fill="#444">hub-50</text><path d="M64.0,58.5 L90.6,67.2 L117.3,53.6 L143.9,60.0 L170.6,43.1 L197.2,61.8 L223.9,56.4 L250.5,58.3 L277.1,57.8 L303.8,51.7 L330.4,54.7 L357.1,50.0 L383.7,47.0 L410.4,61.5 L437.0,45.9 L463.6,55.5 L490.3,60.1 L516.9,58.3 L543.6,64.5 L570.2,45.8 L596.9,65.2 L623.5,50.9 L650.1,65.7 L676.8,58.0 L703.4,53.3 L730.1,59.5 L756.7,55.2 L783.4,47.0 L810.0,52.5" fill="none" stroke="#225555" stroke-width="1.6"/><circle cx="64.0" cy="58.5" r="2" fill="#225555"/><circle cx="90.6" cy="67.2" r="2" fill="#225555"/><circle cx="117.3" cy="53.6" r="2" fill="#225555"/><circle cx="143.9" cy="60.0" r="2" fill="#225555"/><circle cx="170.6" cy="43.1" r="2" fill="#225555"/><circle cx="197.2" cy="61.8" r="2" fill="#225555"/><circle cx="223.9" cy="56.4" r="2" fill="#225555"/><circle cx="250.5" cy="58.3" r="2" fill="#225555"/><circle cx="277.1" cy="57.8" r="2" fill="#225555"/><circle cx="303.8" cy="51.7" r="2" fill="#225555"/><circle cx="330.4" cy="54.7" r="2" fill="#225555"/><circle cx="357.1" cy="50.0" r="2" fill="#225555"/><circle cx="383.7" cy="47.0" r="2" fill="#225555"/><circle cx="410.4" cy="61.5" r="2" fill="#225555"/><circle cx="437.0" cy="45.9" r="2" fill="#225555"/><circle cx="463.6" cy="55.5" r="2" fill="#225555"/><circle cx="490.3" cy="60.1" r="2" fill="#225555"/><circle cx="516.9" cy="58.3" r="2" fill="#225555"/><circle cx="543.6" cy="64.5" r="2" fill="#225555"/><circle cx="570.2" cy="45.8" r="2" fill="#225555"/><circle cx="596.9" cy="65.2" r="2" fill="#225555"/><circle cx="623.5" cy="50.9" r="2" fill="#225555"/><circle cx="650.1" cy="65.7" r="2" fill="#225555"/><circle cx="676.8" cy="58.0" r="2" fill="#225555"/><circle cx="703.4" cy="53.3" r="2" fill="#225555"/><circle cx="730.1" cy="59.5" r="2" fill="#225555"/><circle cx="756.7" cy="55.2" r="2" fill="#225555"/><circle cx="783.4" cy="47.0" r="2" fill="#225555"/><circle cx="810.0" cy="52.5" r="2" fill="#225555"/><rect x="820" y="154" width="10" height="10" fill="#225555"/><text x="834" y="163" font-size="10" fill="#444">hub-200</text><path d="M64.0,54.7 L90.6,52.6 L117.3,57.1 L143.9,50.5 L170.6,48.1 L197.2,58.6 L223.9,56.7 L250.5,53.5 L277.1,68.9 L303.8,44.9 L330.4,51.2 L357.1,52.9 L383.7,50.8 L410.4,56.1 L437.0,48.0 L463.6,58.4 L490.3,64.0 L516.9,59.3 L543.6,61.5 L570.2,50.2 L596.9,61.6 L623.5,49.0 L650.1,63.8 L676.8,53.4 L703.4,47.8 L730.1,61.3 L756.7,47.5 L783.4,57.6 L810.0,48.8" fill="none" stroke="#552222" stroke-width="1.6"/><circle cx="64.0" cy="54.7" r="2" fill="#552222"/><circle cx="90.6" cy="52.6" r="2" fill="#552222"/><circle cx="117.3" cy="57.1" r="2" fill="#552222"/><circle cx="143.9" cy="50.5" r="2" fill="#552222"/><circle cx="170.6" cy="48.1" r="2" fill="#552222"/><circle cx="197.2" cy="58.6" r="2" fill="#552222"/><circle cx="223.9" cy="56.7" r="2" fill="#552222"/><circle cx="250.5" cy="53.5" r="2" fill="#552222"/><circle cx="277.1" cy="68.9" r="2" fill="#552222"/><circle cx="303.8" cy="44.9" r="2" fill="#552222"/><circle cx="330.4" cy="51.2" r="2" fill="#552222"/><circle cx="357.1" cy="52.9" r="2" fill="#552222"/><circle cx="383.7" cy="50.8" r="2" fill="#552222"/><circle cx="410.4" cy="56.1" r="2" fill="#552222"/><circle cx="437.0" cy="48.0" r="2" fill="#552222"/><circle cx="463.6" cy="58.4" r="2" fill="#552222"/><circle cx="490.3" cy="64.0" r="2" fill="#552222"/><circle cx="516.9" cy="59.3" r="2" fill="#552222"/><circle cx="543.6" cy="61.5" r="2" fill="#552222"/><circle cx="570.2" cy="50.2" r="2" fill="#552222"/><circle cx="596.9" cy="61.6" r="2" fill="#552222"/><circle cx="623.5" cy="49.0" r="2" fill="#552222"/><circle cx="650.1" cy="63.8" r="2" fill="#552222"/><circle cx="676.8" cy="53.4" r="2" fill="#552222"/><circle cx="703.4" cy="47.8" r="2" fill="#552222"/><circle cx="730.1" cy="61.3" r="2" fill="#552222"/><circle cx="756.7" cy="47.5" r="2" fill="#552222"/><circle cx="783.4" cy="57.6" r="2" fill="#552222"/><circle cx="810.0" cy="48.8" r="2" fill="#552222"/><rect x="820" y="169" width="10" height="10" fill="#552222"/><text x="834" y="178" font-size="10" fill="#444">hooked-200</text><path d="M64.0,57.0 L90.6,48.5 L117.3,35.9 L143.9,45.5 L170.6,39.5 L197.2,69.6 L223.9,44.9 L250.5,51.5 L277.1,46.9 L303.8,52.4 L330.4,46.8 L357.1,48.5 L383.7,45.6 L410.4,41.0 L437.0,40.1 L463.6,58.3 L490.3,50.5 L516.9,46.2 L543.6,43.7 L570.2,48.8 L596.9,46.2 L623.5,47.6 L650.1,69.5 L676.8,46.7 L703.4,46.8 L730.1,54.0 L756.7,56.9 L783.4,52.5 L810.0,51.7" fill="none" stroke="#555522" stroke-width="1.6"/><circle cx="64.0" cy="57.0" r="2" fill="#555522"/><circle cx="90.6" cy="48.5" r="2" fill="#555522"/><circle cx="117.3" cy="35.9" r="2" fill="#555522"/><circle cx="143.9" cy="45.5" r="2" fill="#555522"/><circle cx="170.6" cy="39.5" r="2" fill="#555522"/><circle cx="197.2" cy="69.6" r="2" fill="#555522"/><circle cx="223.9" cy="44.9" r="2" fill="#555522"/><circle cx="250.5" cy="51.5" r="2" fill="#555522"/><circle cx="277.1" cy="46.9" r="2" fill="#555522"/><circle cx="303.8" cy="52.4" r="2" fill="#555522"/><circle cx="330.4" cy="46.8" r="2" fill="#555522"/><circle cx="357.1" cy="48.5" r="2" fill="#555522"/><circle cx="383.7" cy="45.6" r="2" fill="#555522"/><circle cx="410.4" cy="41.0" r="2" fill="#555522"/><circle cx="437.0" cy="40.1" r="2" fill="#555522"/><circle cx="463.6" cy="58.3" r="2" fill="#555522"/><circle cx="490.3" cy="50.5" r="2" fill="#555522"/><circle cx="516.9" cy="46.2" r="2" fill="#555522"/><circle cx="543.6" cy="43.7" r="2" fill="#555522"/><circle cx="570.2" cy="48.8" r="2" fill="#555522"/><circle cx="596.9" cy="46.2" r="2" fill="#555522"/><circle cx="623.5" cy="47.6" r="2" fill="#555522"/><circle cx="650.1" cy="69.5" r="2" fill="#555522"/><circle cx="676.8" cy="46.7" r="2" fill="#555522"/><circle cx="703.4" cy="46.8" r="2" fill="#555522"/><circle cx="730.1" cy="54.0" r="2" fill="#555522"/><circle cx="756.7" cy="56.9" r="2" fill="#555522"/><circle cx="783.4" cy="52.5" r="2" fill="#555522"/><circle cx="810.0" cy="51.7" r="2" fill="#555522"/><rect x="820" y="184" width="10" height="10" fill="#555522"/><text x="834" y="193" font-size="10" fill="#444">messy-1000</text><path d="M64.0,50.8 L90.6,42.5 L117.3,41.3 L143.9,40.9 L170.6,40.5 L197.2,51.4 L223.9,37.5 L250.5,47.9 L277.1,48.0 L303.8,37.5 L330.4,58.3 L357.1,44.1 L383.7,37.1 L410.4,47.9 L437.0,42.2 L463.6,72.9 L490.3,48.7 L516.9,54.5 L543.6,34.0 L570.2,40.9 L596.9,56.6 L623.5,44.0 L650.1,51.7 L676.8,43.9 L703.4,51.9 L730.1,54.5 L756.7,44.3 L783.4,42.9 L810.0,44.3" fill="none" stroke="#8855AA" stroke-width="1.6"/><circle cx="64.0" cy="50.8" r="2" fill="#8855AA"/><circle cx="90.6" cy="42.5" r="2" fill="#8855AA"/><circle cx="117.3" cy="41.3" r="2" fill="#8855AA"/><circle cx="143.9" cy="40.9" r="2" fill="#8855AA"/><circle cx="170.6" cy="40.5" r="2" fill="#8855AA"/><circle cx="197.2" cy="51.4" r="2" fill="#8855AA"/><circle cx="223.9" cy="37.5" r="2" fill="#8855AA"/><circle cx="250.5" cy="47.9" r="2" fill="#8855AA"/><circle cx="277.1" cy="48.0" r="2" fill="#8855AA"/><circle cx="303.8" cy="37.5" r="2" fill="#8855AA"/><circle cx="330.4" cy="58.3" r="2" fill="#8855AA"/><circle cx="357.1" cy="44.1" r="2" fill="#8855AA"/><circle cx="383.7" cy="37.1" r="2" fill="#8855AA"/><circle cx="410.4" cy="47.9" r="2" fill="#8855AA"/><circle cx="437.0" cy="42.2" r="2" fill="#8855AA"/><circle cx="463.6" cy="72.9" r="2" fill="#8855AA"/><circle cx="490.3" cy="48.7" r="2" fill="#8855AA"/><circle cx="516.9" cy="54.5" r="2" fill="#8855AA"/><circle cx="543.6" cy="34.0" r="2" fill="#8855AA"/><circle cx="570.2" cy="40.9" r="2" fill="#8855AA"/><circle cx="596.9" cy="56.6" r="2" fill="#8855AA"/><circle cx="623.5" cy="44.0" r="2" fill="#8855AA"/><circle cx="650.1" cy="51.7" r="2" fill="#8855AA"/><circle cx="676.8" cy="43.9" r="2" fill="#8855AA"/><circle cx="703.4" cy="51.9" r="2" fill="#8855AA"/><circle cx="730.1" cy="54.5" r="2" fill="#8855AA"/><circle cx="756.7" cy="44.3" r="2" fill="#8855AA"/><circle cx="783.4" cy="42.9" r="2" fill="#8855AA"/><circle cx="810.0" cy="44.3" r="2" fill="#8855AA"/><rect x="820" y="199" width="10" height="10" fill="#8855AA"/><text x="834" y="208" font-size="10" fill="#444">messy-5000</text></svg>