<svg width="960" height="372" xmlns="http://www.w3.org/2000/svg"><rect width="960" height="372" fill="#ffffff"/><text x="64" y="20" font-size="15" font-weight="bold" fill="#333">transition() — ops/sec (log scale) by PR / release, c7g.medium</text><line x1="64" y1="124.25384085364578" x2="810" y2="124.25384085364578" stroke="#eee"/><text x="58" y="128.25384085364578" font-size="10" text-anchor="end" fill="#888">1e5</text><text x="64.0" y="340" font-size="9" text-anchor="middle" fill="#888">598</text><text x="117.3" y="340" font-size="9" text-anchor="middle" fill="#888">600</text><text x="170.6" y="340" font-size="9" text-anchor="middle" fill="#888">602</text><text x="223.9" y="340" font-size="9" text-anchor="middle" fill="#888">604</text><text x="277.1" y="340" font-size="9" text-anchor="middle" fill="#888">611</text><text x="330.4" y="340" font-size="9" text-anchor="middle" fill="#888">616</text><text x="383.7" y="340" font-size="9" text-anchor="middle" fill="#888">618</text><text x="437.0" y="340" font-size="9" text-anchor="middle" fill="#888">634</text><text x="490.3" y="340" font-size="9" text-anchor="middle" fill="#888">649</text><text x="543.6" y="340" font-size="9" text-anchor="middle" fill="#888">674</text><text x="596.9" y="340" font-size="9" text-anchor="middle" fill="#888">679</text><text x="650.1" y="340" font-size="9" text-anchor="middle" fill="#888">681</text><text x="703.4" y="340" font-size="9" text-anchor="end" fill="#a40" transform="rotate(-35 703.4 340)">v5.143.30</text><text x="756.7" y="340" font-size="9" text-anchor="end" fill="#a40" transform="rotate(-35 756.7 340)">v5.143.33</text><text x="810.0" y="340" font-size="9" text-anchor="end" fill="#a40" transform="rotate(-35 810.0 340)">v5.143.35</text><path d="M64.0,47.0 L90.6,58.7 L117.3,52.6 L143.9,41.7 L170.6,50.9 L197.2,42.5 L223.9,53.1 L250.5,44.7 L277.1,48.1 L303.8,46.8 L330.4,41.5 L357.1,43.1 L383.7,49.2 L410.4,43.1 L437.0,51.4 L463.6,56.2 L490.3,43.7 L516.9,51.6 L543.6,55.5 L570.2,51.2 L596.9,55.0 L623.5,34.0 L650.1,47.8 L676.8,73.3 L703.4,102.4 L730.1,106.2 L756.7,98.1 L783.4,103.3 L810.0,104.0" fill="none" stroke="#4477AA" stroke-width="1.6"/><circle cx="64.0" cy="47.0" r="2" fill="#4477AA"/><circle cx="90.6" cy="58.7" r="2" fill="#4477AA"/><circle cx="117.3" cy="52.6" r="2" fill="#4477AA"/><circle cx="143.9" cy="41.7" r="2" fill="#4477AA"/><circle cx="170.6" cy="50.9" r="2" fill="#4477AA"/><circle cx="197.2" cy="42.5" r="2" fill="#4477AA"/><circle cx="223.9" cy="53.1" r="2" fill="#4477AA"/><circle cx="250.5" cy="44.7" r="2" fill="#4477AA"/><circle cx="277.1" cy="48.1" r="2" fill="#4477AA"/><circle cx="303.8" cy="46.8" r="2" fill="#4477AA"/><circle cx="330.4" cy="41.5" r="2" fill="#4477AA"/><circle cx="357.1" cy="43.1" r="2" fill="#4477AA"/><circle cx="383.7" cy="49.2" r="2" fill="#4477AA"/><circle cx="410.4" cy="43.1" r="2" fill="#4477AA"/><circle cx="437.0" cy="51.4" r="2" fill="#4477AA"/><circle cx="463.6" cy="56.2" r="2" fill="#4477AA"/><circle cx="490.3" cy="43.7" r="2" fill="#4477AA"/><circle cx="516.9" cy="51.6" r="2" fill="#4477AA"/><circle cx="543.6" cy="55.5" r="2" fill="#4477AA"/><circle cx="570.2" cy="51.2" r="2" fill="#4477AA"/><circle cx="596.9" cy="55.0" r="2" fill="#4477AA"/><circle cx="623.5" cy="34.0" r="2" fill="#4477AA"/><circle cx="650.1" cy="47.8" r="2" fill="#4477AA"/><circle cx="676.8" cy="73.3" r="2" fill="#4477AA"/><circle cx="703.4" cy="102.4" r="2" fill="#4477AA"/><circle cx="730.1" cy="106.2" r="2" fill="#4477AA"/><circle cx="756.7" cy="98.1" r="2" fill="#4477AA"/><circle cx="783.4" cy="103.3" r="2" fill="#4477AA"/><circle cx="810.0" cy="104.0" r="2" fill="#4477AA"/><rect x="820" y="34" width="10" height="10" fill="#4477AA"/><text x="834" y="43" font-size="10" fill="#444">chain-10</text><path d="M64.0,69.8 L90.6,64.8 L117.3,54.5 L143.9,58.5 L170.6,55.1 L197.2,62.7 L223.9,61.6 L250.5,54.8 L277.1,64.9 L303.8,62.4 L330.4,60.7 L357.1,67.6 L383.7,62.4 L410.4,60.2 L437.0,67.3 L463.6,58.4 L490.3,68.9 L516.9,69.9 L543.6,66.6 L570.2,64.7 L596.9,59.7 L623.5,56.1 L650.1,61.2 L676.8,62.5 L703.4,106.6 L730.1,107.2 L756.7,104.8 L783.4,101.3 L810.0,105.0" fill="none" stroke="#EE6677" stroke-width="1.6"/><circle cx="64.0" cy="69.8" r="2" fill="#EE6677"/><circle cx="90.6" cy="64.8" r="2" fill="#EE6677"/><circle cx="117.3" cy="54.5" r="2" fill="#EE6677"/><circle cx="143.9" cy="58.5" r="2" fill="#EE6677"/><circle cx="170.6" cy="55.1" r="2" fill="#EE6677"/><circle cx="197.2" cy="62.7" r="2" fill="#EE6677"/><circle cx="223.9" cy="61.6" r="2" fill="#EE6677"/><circle cx="250.5" cy="54.8" r="2" fill="#EE6677"/><circle cx="277.1" cy="64.9" r="2" fill="#EE6677"/><circle cx="303.8" cy="62.4" r="2" fill="#EE6677"/><circle cx="330.4" cy="60.7" r="2" fill="#EE6677"/><circle cx="357.1" cy="67.6" r="2" fill="#EE6677"/><circle cx="383.7" cy="62.4" r="2" fill="#EE6677"/><circle cx="410.4" cy="60.2" r="2" fill="#EE6677"/><circle cx="437.0" cy="67.3" r="2" fill="#EE6677"/><circle cx="463.6" cy="58.4" r="2" fill="#EE6677"/><circle cx="490.3" cy="68.9" r="2" fill="#EE6677"/><circle cx="516.9" cy="69.9" r="2" fill="#EE6677"/><circle cx="543.6" cy="66.6" r="2" fill="#EE6677"/><circle cx="570.2" cy="64.7" r="2" fill="#EE6677"/><circle cx="596.9" cy="59.7" r="2" fill="#EE6677"/><circle cx="623.5" cy="56.1" r="2" fill="#EE6677"/><circle cx="650.1" cy="61.2" r="2" fill="#EE6677"/><circle cx="676.8" cy="62.5" r="2" fill="#EE6677"/><circle cx="703.4" cy="106.6" r="2" fill="#EE6677"/><circle cx="730.1" cy="107.2" r="2" fill="#EE6677"/><circle cx="756.7" cy="104.8" r="2" fill="#EE6677"/><circle cx="783.4" cy="101.3" r="2" fill="#EE6677"/><circle cx="810.0" cy="105.0" r="2" fill="#EE6677"/><rect x="820" y="49" width="10" height="10" fill="#EE6677"/><text x="834" y="58" font-size="10" fill="#444">chain-50</text><path d="M64.0,78.9 L90.6,78.1 L117.3,77.0 L143.9,77.3 L170.6,74.1 L197.2,74.4 L223.9,84.4 L250.5,79.2 L277.1,78.5 L303.8,77.8 L330.4,80.6 L357.1,82.6 L383.7,75.3 L410.4,82.7 L437.0,82.3 L463.6,79.6 L490.3,81.1 L516.9,82.7 L543.6,79.8 L570.2,78.1 L596.9,80.3 L623.5,60.9 L650.1,78.9 L676.8,76.3 L703.4,128.1 L730.1,126.4 L756.7,127.5 L783.4,128.2 L810.0,125.3" fill="none" stroke="#228833" stroke-width="1.6"/><circle cx="64.0" cy="78.9" r="2" fill="#228833"/><circle cx="90.6" cy="78.1" r="2" fill="#228833"/><circle cx="117.3" cy="77.0" r="2" fill="#228833"/><circle cx="143.9" cy="77.3" r="2" fill="#228833"/><circle cx="170.6" cy="74.1" r="2" fill="#228833"/><circle cx="197.2" cy="74.4" r="2" fill="#228833"/><circle cx="223.9" cy="84.4" r="2" fill="#228833"/><circle cx="250.5" cy="79.2" r="2" fill="#228833"/><circle cx="277.1" cy="78.5" r="2" fill="#228833"/><circle cx="303.8" cy="77.8" r="2" fill="#228833"/><circle cx="330.4" cy="80.6" r="2" fill="#228833"/><circle cx="357.1" cy="82.6" r="2" fill="#228833"/><circle cx="383.7" cy="75.3" r="2" fill="#228833"/><circle cx="410.4" cy="82.7" r="2" fill="#228833"/><circle cx="437.0" cy="82.3" r="2" fill="#228833"/><circle cx="463.6" cy="79.6" r="2" fill="#228833"/><circle cx="490.3" cy="81.1" r="2" fill="#228833"/><circle cx="516.9" cy="82.7" r="2" fill="#228833"/><circle cx="543.6" cy="79.8" r="2" fill="#228833"/><circle cx="570.2" cy="78.1" r="2" fill="#228833"/><circle cx="596.9" cy="80.3" r="2" fill="#228833"/><circle cx="623.5" cy="60.9" r="2" fill="#228833"/><circle cx="650.1" cy="78.9" r="2" fill="#228833"/><circle cx="676.8" cy="76.3" r="2" fill="#228833"/><circle cx="703.4" cy="128.1" r="2" fill="#228833"/><circle cx="730.1" cy="126.4" r="2" fill="#228833"/><circle cx="756.7" cy="127.5" r="2" fill="#228833"/><circle cx="783.4" cy="128.2" r="2" fill="#228833"/><circle cx="810.0" cy="125.3" r="2" fill="#228833"/><rect x="820" y="64" width="10" height="10" fill="#228833"/><text x="834" y="73" font-size="10" fill="#444">chain-200</text><path d="M64.0,95.0 L90.6,96.2 L117.3,92.5 L143.9,95.8 L170.6,93.7 L197.2,93.9 L223.9,90.7 L250.5,94.8 L277.1,97.8 L303.8,93.6 L330.4,93.8 L357.1,93.5 L383.7,93.8 L410.4,97.3 L437.0,94.4 L463.6,96.3 L490.3,96.4 L516.9,97.6 L543.6,93.9 L570.2,92.6 L596.9,91.8 L623.5,81.7 L650.1,104.4 L676.8,97.0 L703.4,150.2 L730.1,145.7 L756.7,144.9 L783.4,152.0 L810.0,151.0" fill="none" stroke="#CCBB44" stroke-width="1.6"/><circle cx="64.0" cy="95.0" r="2" fill="#CCBB44"/><circle cx="90.6" cy="96.2" r="2" fill="#CCBB44"/><circle cx="117.3" cy="92.5" r="2" fill="#CCBB44"/><circle cx="143.9" cy="95.8" r="2" fill="#CCBB44"/><circle cx="170.6" cy="93.7" r="2" fill="#CCBB44"/><circle cx="197.2" cy="93.9" r="2" fill="#CCBB44"/><circle cx="223.9" cy="90.7" r="2" fill="#CCBB44"/><circle cx="250.5" cy="94.8" r="2" fill="#CCBB44"/><circle cx="277.1" cy="97.8" r="2" fill="#CCBB44"/><circle cx="303.8" cy="93.6" r="2" fill="#CCBB44"/><circle cx="330.4" cy="93.8" r="2" fill="#CCBB44"/><circle cx="357.1" cy="93.5" r="2" fill="#CCBB44"/><circle cx="383.7" cy="93.8" r="2" fill="#CCBB44"/><circle cx="410.4" cy="97.3" r="2" fill="#CCBB44"/><circle cx="437.0" cy="94.4" r="2" fill="#CCBB44"/><circle cx="463.6" cy="96.3" r="2" fill="#CCBB44"/><circle cx="490.3" cy="96.4" r="2" fill="#CCBB44"/><circle cx="516.9" cy="97.6" r="2" fill="#CCBB44"/><circle cx="543.6" cy="93.9" r="2" fill="#CCBB44"/><circle cx="570.2" cy="92.6" r="2" fill="#CCBB44"/><circle cx="596.9" cy="91.8" r="2" fill="#CCBB44"/><circle cx="623.5" cy="81.7" r="2" fill="#CCBB44"/><circle cx="650.1" cy="104.4" r="2" fill="#CCBB44"/><circle cx="676.8" cy="97.0" r="2" fill="#CCBB44"/><circle cx="703.4" cy="150.2" r="2" fill="#CCBB44"/><circle cx="730.1" cy="145.7" r="2" fill="#CCBB44"/><circle cx="756.7" cy="144.9" r="2" fill="#CCBB44"/><circle cx="783.4" cy="152.0" r="2" fill="#CCBB44"/><circle cx="810.0" cy="151.0" r="2" fill="#CCBB44"/><rect x="820" y="79" width="10" height="10" fill="#CCBB44"/><text x="834" y="88" font-size="10" fill="#444">chain-1000</text><path d="M64.0,54.3 L90.6,70.5 L117.3,65.9 L143.9,46.8 L170.6,54.2 L197.2,47.4 L223.9,65.9 L250.5,50.0 L277.1,56.3 L303.8,54.9 L330.4,43.6 L357.1,48.0 L383.7,61.0 L410.4,47.8 L437.0,59.2 L463.6,63.9 L490.3,47.9 L516.9,60.6 L543.6,67.2 L570.2,56.2 L596.9,65.5 L623.5,43.1 L650.1,55.5 L676.8,84.5 L703.4,94.9 L730.1,105.2 L756.7,92.0 L783.4,98.9 L810.0,100.7" fill="none" stroke="#66CCEE" stroke-width="1.6"/><circle cx="64.0" cy="54.3" r="2" fill="#66CCEE"/><circle cx="90.6" cy="70.5" r="2" fill="#66CCEE"/><circle cx="117.3" cy="65.9" r="2" fill="#66CCEE"/><circle cx="143.9" cy="46.8" r="2" fill="#66CCEE"/><circle cx="170.6" cy="54.2" r="2" fill="#66CCEE"/><circle cx="197.2" cy="47.4" r="2" fill="#66CCEE"/><circle cx="223.9" cy="65.9" r="2" fill="#66CCEE"/><circle cx="250.5" cy="50.0" r="2" fill="#66CCEE"/><circle cx="277.1" cy="56.3" r="2" fill="#66CCEE"/><circle cx="303.8" cy="54.9" r="2" fill="#66CCEE"/><circle cx="330.4" cy="43.6" r="2" fill="#66CCEE"/><circle cx="357.1" cy="48.0" r="2" fill="#66CCEE"/><circle cx="383.7" cy="61.0" r="2" fill="#66CCEE"/><circle cx="410.4" cy="47.8" r="2" fill="#66CCEE"/><circle cx="437.0" cy="59.2" r="2" fill="#66CCEE"/><circle cx="463.6" cy="63.9" r="2" fill="#66CCEE"/><circle cx="490.3" cy="47.9" r="2" fill="#66CCEE"/><circle cx="516.9" cy="60.6" r="2" fill="#66CCEE"/><circle cx="543.6" cy="67.2" r="2" fill="#66CCEE"/><circle cx="570.2" cy="56.2" r="2" fill="#66CCEE"/><circle cx="596.9" cy="65.5" r="2" fill="#66CCEE"/><circle cx="623.5" cy="43.1" r="2" fill="#66CCEE"/><circle cx="650.1" cy="55.5" r="2" fill="#66CCEE"/><circle cx="676.8" cy="84.5" r="2" fill="#66CCEE"/><circle cx="703.4" cy="94.9" r="2" fill="#66CCEE"/><circle cx="730.1" cy="105.2" r="2" fill="#66CCEE"/><circle cx="756.7" cy="92.0" r="2" fill="#66CCEE"/><circle cx="783.4" cy="98.9" r="2" fill="#66CCEE"/><circle cx="810.0" cy="100.7" r="2" fill="#66CCEE"/><rect x="820" y="94" width="10" height="10" fill="#66CCEE"/><text x="834" y="103" font-size="10" fill="#444">dense-10</text><path d="M64.0,91.8 L90.6,91.0 L117.3,74.9 L143.9,78.1 L170.6,77.8 L197.2,82.8 L223.9,86.2 L250.5,74.4 L277.1,89.1 L303.8,80.3 L330.4,85.1 L357.1,91.0 L383.7,92.3 L410.4,88.2 L437.0,91.5 L463.6,78.3 L490.3,100.1 L516.9,101.6 L543.6,98.1 L570.2,98.3 L596.9,84.6 L623.5,82.7 L650.1,83.0 L676.8,89.2 L703.4,116.3 L730.1,117.0 L756.7,117.7 L783.4,110.6 L810.0,114.1" fill="none" stroke="#AA3377" stroke-width="1.6"/><circle cx="64.0" cy="91.8" r="2" fill="#AA3377"/><circle cx="90.6" cy="91.0" r="2" fill="#AA3377"/><circle cx="117.3" cy="74.9" r="2" fill="#AA3377"/><circle cx="143.9" cy="78.1" r="2" fill="#AA3377"/><circle cx="170.6" cy="77.8" r="2" fill="#AA3377"/><circle cx="197.2" cy="82.8" r="2" fill="#AA3377"/><circle cx="223.9" cy="86.2" r="2" fill="#AA3377"/><circle cx="250.5" cy="74.4" r="2" fill="#AA3377"/><circle cx="277.1" cy="89.1" r="2" fill="#AA3377"/><circle cx="303.8" cy="80.3" r="2" fill="#AA3377"/><circle cx="330.4" cy="85.1" r="2" fill="#AA3377"/><circle cx="357.1" cy="91.0" r="2" fill="#AA3377"/><circle cx="383.7" cy="92.3" r="2" fill="#AA3377"/><circle cx="410.4" cy="88.2" r="2" fill="#AA3377"/><circle cx="437.0" cy="91.5" r="2" fill="#AA3377"/><circle cx="463.6" cy="78.3" r="2" fill="#AA3377"/><circle cx="490.3" cy="100.1" r="2" fill="#AA3377"/><circle cx="516.9" cy="101.6" r="2" fill="#AA3377"/><circle cx="543.6" cy="98.1" r="2" fill="#AA3377"/><circle cx="570.2" cy="98.3" r="2" fill="#AA3377"/><circle cx="596.9" cy="84.6" r="2" fill="#AA3377"/><circle cx="623.5" cy="82.7" r="2" fill="#AA3377"/><circle cx="650.1" cy="83.0" r="2" fill="#AA3377"/><circle cx="676.8" cy="89.2" r="2" fill="#AA3377"/><circle cx="703.4" cy="116.3" r="2" fill="#AA3377"/><circle cx="730.1" cy="117.0" r="2" fill="#AA3377"/><circle cx="756.7" cy="117.7" r="2" fill="#AA3377"/><circle cx="783.4" cy="110.6" r="2" fill="#AA3377"/><circle cx="810.0" cy="114.1" r="2" fill="#AA3377"/><rect x="820" y="109" width="10" height="10" fill="#AA3377"/><text x="834" y="118" font-size="10" fill="#444">dense-50</text><path d="M64.0,124.9 L90.6,121.8 L117.3,121.5 L143.9,123.5 L170.6,118.7 L197.2,120.7 L223.9,126.0 L250.5,125.2 L277.1,124.2 L303.8,120.1 L330.4,125.2 L357.1,127.1 L383.7,122.9 L410.4,129.6 L437.0,123.1 L463.6,126.4 L490.3,123.8 L516.9,128.9 L543.6,122.7 L570.2,124.4 L596.9,125.9 L623.5,111.5 L650.1,124.5 L676.8,120.1 L703.4,153.8 L730.1,154.6 L756.7,153.3 L783.4,155.7 L810.0,153.1" fill="none" stroke="#BBBBBB" stroke-width="1.6"/><circle cx="64.0" cy="124.9" r="2" fill="#BBBBBB"/><circle cx="90.6" cy="121.8" r="2" fill="#BBBBBB"/><circle cx="117.3" cy="121.5" r="2" fill="#BBBBBB"/><circle cx="143.9" cy="123.5" r="2" fill="#BBBBBB"/><circle cx="170.6" cy="118.7" r="2" fill="#BBBBBB"/><circle cx="197.2" cy="120.7" r="2" fill="#BBBBBB"/><circle cx="223.9" cy="126.0" r="2" fill="#BBBBBB"/><circle cx="250.5" cy="125.2" r="2" fill="#BBBBBB"/><circle cx="277.1" cy="124.2" r="2" fill="#BBBBBB"/><circle cx="303.8" cy="120.1" r="2" fill="#BBBBBB"/><circle cx="330.4" cy="125.2" r="2" fill="#BBBBBB"/><circle cx="357.1" cy="127.1" r="2" fill="#BBBBBB"/><circle cx="383.7" cy="122.9" r="2" fill="#BBBBBB"/><circle cx="410.4" cy="129.6" r="2" fill="#BBBBBB"/><circle cx="437.0" cy="123.1" r="2" fill="#BBBBBB"/><circle cx="463.6" cy="126.4" r="2" fill="#BBBBBB"/><circle cx="490.3" cy="123.8" r="2" fill="#BBBBBB"/><circle cx="516.9" cy="128.9" r="2" fill="#BBBBBB"/><circle cx="543.6" cy="122.7" r="2" fill="#BBBBBB"/><circle cx="570.2" cy="124.4" r="2" fill="#BBBBBB"/><circle cx="596.9" cy="125.9" r="2" fill="#BBBBBB"/><circle cx="623.5" cy="111.5" r="2" fill="#BBBBBB"/><circle cx="650.1" cy="124.5" r="2" fill="#BBBBBB"/><circle cx="676.8" cy="120.1" r="2" fill="#BBBBBB"/><circle cx="703.4" cy="153.8" r="2" fill="#BBBBBB"/><circle cx="730.1" cy="154.6" r="2" fill="#BBBBBB"/><circle cx="756.7" cy="153.3" r="2" fill="#BBBBBB"/><circle cx="783.4" cy="155.7" r="2" fill="#BBBBBB"/><circle cx="810.0" cy="153.1" r="2" fill="#BBBBBB"/><rect x="820" y="124" width="10" height="10" fill="#BBBBBB"/><text x="834" y="133" font-size="10" fill="#444">dense-200</text><path d="M64.0,82.6 L90.6,76.8 L117.3,74.4 L143.9,69.2 L170.6,68.2 L197.2,79.6 L223.9,70.6 L250.5,64.7 L277.1,88.6 L303.8,72.5 L330.4,73.1 L357.1,80.3 L383.7,82.7 L410.4,74.6 L437.0,79.2 L463.6,62.3 L490.3,88.4 L516.9,82.2 L543.6,82.3 L570.2,78.1 L596.9,79.5 L623.5,73.9 L650.1,70.5 L676.8,75.4 L703.4,100.2 L730.1,107.2 L756.7,100.2 L783.4,100.9 L810.0,100.8" fill="none" stroke="#222255" stroke-width="1.6"/><circle cx="64.0" cy="82.6" r="2" fill="#222255"/><circle cx="90.6" cy="76.8" r="2" fill="#222255"/><circle cx="117.3" cy="74.4" r="2" fill="#222255"/><circle cx="143.9" cy="69.2" r="2" fill="#222255"/><circle cx="170.6" cy="68.2" r="2" fill="#222255"/><circle cx="197.2" cy="79.6" r="2" fill="#222255"/><circle cx="223.9" cy="70.6" r="2" fill="#222255"/><circle cx="250.5" cy="64.7" r="2" fill="#222255"/><circle cx="277.1" cy="88.6" r="2" fill="#222255"/><circle cx="303.8" cy="72.5" r="2" fill="#222255"/><circle cx="330.4" cy="73.1" r="2" fill="#222255"/><circle cx="357.1" cy="80.3" r="2" fill="#222255"/><circle cx="383.7" cy="82.7" r="2" fill="#222255"/><circle cx="410.4" cy="74.6" r="2" fill="#222255"/><circle cx="437.0" cy="79.2" r="2" fill="#222255"/><circle cx="463.6" cy="62.3" r="2" fill="#222255"/><circle cx="490.3" cy="88.4" r="2" fill="#222255"/><circle cx="516.9" cy="82.2" r="2" fill="#222255"/><circle cx="543.6" cy="82.3" r="2" fill="#222255"/><circle cx="570.2" cy="78.1" r="2" fill="#222255"/><circle cx="596.9" cy="79.5" r="2" fill="#222255"/><circle cx="623.5" cy="73.9" r="2" fill="#222255"/><circle cx="650.1" cy="70.5" r="2" fill="#222255"/><circle cx="676.8" cy="75.4" r="2" fill="#222255"/><circle cx="703.4" cy="100.2" r="2" fill="#222255"/><circle cx="730.1" cy="107.2" r="2" fill="#222255"/><circle cx="756.7" cy="100.2" r="2" fill="#222255"/><circle cx="783.4" cy="100.9" r="2" fill="#222255"/><circle cx="810.0" cy="100.8" r="2" fill="#222255"/><rect x="820" y="139" width="10" height="10" fill="#222255"/><text x="834" y="148" font-size="10" fill="#444">hub-50</text><path d="M64.0,80.8 L90.6,91.2 L117.3,83.7 L143.9,79.8 L170.6,88.3 L197.2,83.2 L223.9,97.6 L250.5,86.4 L277.1,85.9 L303.8,84.8 L330.4,85.8 L357.1,91.8 L383.7,80.7 L410.4,93.3 L437.0,82.2 L463.6,91.9 L490.3,98.6 L516.9,92.5 L543.6,95.4 L570.2,79.6 L596.9,94.3 L623.5,64.6 L650.1,91.8 L676.8,80.8 L703.4,123.0 L730.1,122.1 L756.7,118.1 L783.4,119.4 L810.0,118.7" fill="none" stroke="#225555" stroke-width="1.6"/><circle cx="64.0" cy="80.8" r="2" fill="#225555"/><circle cx="90.6" cy="91.2" r="2" fill="#225555"/><circle cx="117.3" cy="83.7" r="2" fill="#225555"/><circle cx="143.9" cy="79.8" r="2" fill="#225555"/><circle cx="170.6" cy="88.3" r="2" fill="#225555"/><circle cx="197.2" cy="83.2" r="2" fill="#225555"/><circle cx="223.9" cy="97.6" r="2" fill="#225555"/><circle cx="250.5" cy="86.4" r="2" fill="#225555"/><circle cx="277.1" cy="85.9" r="2" fill="#225555"/><circle cx="303.8" cy="84.8" r="2" fill="#225555"/><circle cx="330.4" cy="85.8" r="2" fill="#225555"/><circle cx="357.1" cy="91.8" r="2" fill="#225555"/><circle cx="383.7" cy="80.7" r="2" fill="#225555"/><circle cx="410.4" cy="93.3" r="2" fill="#225555"/><circle cx="437.0" cy="82.2" r="2" fill="#225555"/><circle cx="463.6" cy="91.9" r="2" fill="#225555"/><circle cx="490.3" cy="98.6" r="2" fill="#225555"/><circle cx="516.9" cy="92.5" r="2" fill="#225555"/><circle cx="543.6" cy="95.4" r="2" fill="#225555"/><circle cx="570.2" cy="79.6" r="2" fill="#225555"/><circle cx="596.9" cy="94.3" r="2" fill="#225555"/><circle cx="623.5" cy="64.6" r="2" fill="#225555"/><circle cx="650.1" cy="91.8" r="2" fill="#225555"/><circle cx="676.8" cy="80.8" r="2" fill="#225555"/><circle cx="703.4" cy="123.0" r="2" fill="#225555"/><circle cx="730.1" cy="122.1" r="2" fill="#225555"/><circle cx="756.7" cy="118.1" r="2" fill="#225555"/><circle cx="783.4" cy="119.4" r="2" fill="#225555"/><circle cx="810.0" cy="118.7" r="2" fill="#225555"/><rect x="820" y="154" width="10" height="10" fill="#225555"/><text x="834" y="163" font-size="10" fill="#444">hub-200</text><path d="M64.0,319.1 L90.6,321.7 L117.3,321.3 L143.9,324.0 L170.6,321.9 L197.2,320.9 L223.9,322.8 L250.5,321.8 L277.1,321.4 L303.8,321.1 L330.4,320.9 L357.1,322.1 L383.7,320.1 L410.4,322.6 L437.0,320.1 L463.6,321.1 L490.3,250.8 L516.9,249.2 L543.6,251.1 L570.2,243.3 L596.9,250.0 L623.5,230.1 L650.1,249.7 L676.8,242.2 L703.4,232.2 L730.1,231.5 L756.7,227.8 L783.4,229.5 L810.0,228.5" fill="none" stroke="#552222" stroke-width="1.6"/><circle cx="64.0" cy="319.1" r="2" fill="#552222"/><circle cx="90.6" cy="321.7" r="2" fill="#552222"/><circle cx="117.3" cy="321.3" r="2" fill="#552222"/><circle cx="143.9" cy="324.0" r="2" fill="#552222"/><circle cx="170.6" cy="321.9" r="2" fill="#552222"/><circle cx="197.2" cy="320.9" r="2" fill="#552222"/><circle cx="223.9" cy="322.8" r="2" fill="#552222"/><circle cx="250.5" cy="321.8" r="2" fill="#552222"/><circle cx="277.1" cy="321.4" r="2" fill="#552222"/><circle cx="303.8" cy="321.1" r="2" fill="#552222"/><circle cx="330.4" cy="320.9" r="2" fill="#552222"/><circle cx="357.1" cy="322.1" r="2" fill="#552222"/><circle cx="383.7" cy="320.1" r="2" fill="#552222"/><circle cx="410.4" cy="322.6" r="2" fill="#552222"/><circle cx="437.0" cy="320.1" r="2" fill="#552222"/><circle cx="463.6" cy="321.1" r="2" fill="#552222"/><circle cx="490.3" cy="250.8" r="2" fill="#552222"/><circle cx="516.9" cy="249.2" r="2" fill="#552222"/><circle cx="543.6" cy="251.1" r="2" fill="#552222"/><circle cx="570.2" cy="243.3" r="2" fill="#552222"/><circle cx="596.9" cy="250.0" r="2" fill="#552222"/><circle cx="623.5" cy="230.1" r="2" fill="#552222"/><circle cx="650.1" cy="249.7" r="2" fill="#552222"/><circle cx="676.8" cy="242.2" r="2" fill="#552222"/><circle cx="703.4" cy="232.2" r="2" fill="#552222"/><circle cx="730.1" cy="231.5" r="2" fill="#552222"/><circle cx="756.7" cy="227.8" r="2" fill="#552222"/><circle cx="783.4" cy="229.5" r="2" fill="#552222"/><circle cx="810.0" cy="228.5" r="2" fill="#552222"/><rect x="820" y="169" width="10" height="10" fill="#552222"/><text x="834" y="178" font-size="10" fill="#444">hooked-200</text><path d="M64.0,79.8 L90.6,80.7 L117.3,84.9 L143.9,68.6 L170.6,81.2 L197.2,91.9 L223.9,58.7 L250.5,72.3 L277.1,82.2 L303.8,64.3 L330.4,80.1 L357.1,72.5 L383.7,85.1 L410.4,71.0 L437.0,85.5 L463.6,95.3 L490.3,70.5 L516.9,66.3 L543.6,65.5 L570.2,75.8 L596.9,69.2 L623.5,82.1 L650.1,81.7 L676.8,85.4 L703.4,139.4 L730.1,118.2 L756.7,137.1 L783.4,129.3 L810.0,122.5" fill="none" stroke="#555522" stroke-width="1.6"/><circle cx="64.0" cy="79.8" r="2" fill="#555522"/><circle cx="90.6" cy="80.7" r="2" fill="#555522"/><circle cx="117.3" cy="84.9" r="2" fill="#555522"/><circle cx="143.9" cy="68.6" r="2" fill="#555522"/><circle cx="170.6" cy="81.2" r="2" fill="#555522"/><circle cx="197.2" cy="91.9" r="2" fill="#555522"/><circle cx="223.9" cy="58.7" r="2" fill="#555522"/><circle cx="250.5" cy="72.3" r="2" fill="#555522"/><circle cx="277.1" cy="82.2" r="2" fill="#555522"/><circle cx="303.8" cy="64.3" r="2" fill="#555522"/><circle cx="330.4" cy="80.1" r="2" fill="#555522"/><circle cx="357.1" cy="72.5" r="2" fill="#555522"/><circle cx="383.7" cy="85.1" r="2" fill="#555522"/><circle cx="410.4" cy="71.0" r="2" fill="#555522"/><circle cx="437.0" cy="85.5" r="2" fill="#555522"/><circle cx="463.6" cy="95.3" r="2" fill="#555522"/><circle cx="490.3" cy="70.5" r="2" fill="#555522"/><circle cx="516.9" cy="66.3" r="2" fill="#555522"/><circle cx="543.6" cy="65.5" r="2" fill="#555522"/><circle cx="570.2" cy="75.8" r="2" fill="#555522"/><circle cx="596.9" cy="69.2" r="2" fill="#555522"/><circle cx="623.5" cy="82.1" r="2" fill="#555522"/><circle cx="650.1" cy="81.7" r="2" fill="#555522"/><circle cx="676.8" cy="85.4" r="2" fill="#555522"/><circle cx="703.4" cy="139.4" r="2" fill="#555522"/><circle cx="730.1" cy="118.2" r="2" fill="#555522"/><circle cx="756.7" cy="137.1" r="2" fill="#555522"/><circle cx="783.4" cy="129.3" r="2" fill="#555522"/><circle cx="810.0" cy="122.5" r="2" fill="#555522"/><rect x="820" y="184" width="10" height="10" fill="#555522"/><text x="834" y="193" font-size="10" fill="#444">messy-1000</text><path d="M64.0,84.2 L90.6,79.7 L117.3,71.5 L143.9,63.5 L170.6,56.8 L197.2,56.0 L223.9,62.9 L250.5,78.4 L277.1,65.7 L303.8,88.0 L330.4,79.1 L357.1,81.1 L383.7,76.5 L410.4,91.4 L437.0,74.5 L463.6,76.5 L490.3,67.4 L516.9,75.7 L543.6,80.6 L570.2,75.9 L596.9,92.5 L623.5,66.2 L650.1,45.8 L676.8,79.7 L703.4,129.9 L730.1,111.3 L756.7,107.6 L783.4,106.5 L810.0,104.8" fill="none" stroke="#8855AA" stroke-width="1.6"/><circle cx="64.0" cy="84.2" r="2" fill="#8855AA"/><circle cx="90.6" cy="79.7" r="2" fill="#8855AA"/><circle cx="117.3" cy="71.5" r="2" fill="#8855AA"/><circle cx="143.9" cy="63.5" r="2" fill="#8855AA"/><circle cx="170.6" cy="56.8" r="2" fill="#8855AA"/><circle cx="197.2" cy="56.0" r="2" fill="#8855AA"/><circle cx="223.9" cy="62.9" r="2" fill="#8855AA"/><circle cx="250.5" cy="78.4" r="2" fill="#8855AA"/><circle cx="277.1" cy="65.7" r="2" fill="#8855AA"/><circle cx="303.8" cy="88.0" r="2" fill="#8855AA"/><circle cx="330.4" cy="79.1" r="2" fill="#8855AA"/><circle cx="357.1" cy="81.1" r="2" fill="#8855AA"/><circle cx="383.7" cy="76.5" r="2" fill="#8855AA"/><circle cx="410.4" cy="91.4" r="2" fill="#8855AA"/><circle cx="437.0" cy="74.5" r="2" fill="#8855AA"/><circle cx="463.6" cy="76.5" r="2" fill="#8855AA"/><circle cx="490.3" cy="67.4" r="2" fill="#8855AA"/><circle cx="516.9" cy="75.7" r="2" fill="#8855AA"/><circle cx="543.6" cy="80.6" r="2" fill="#8855AA"/><circle cx="570.2" cy="75.9" r="2" fill="#8855AA"/><circle cx="596.9" cy="92.5" r="2" fill="#8855AA"/><circle cx="623.5" cy="66.2" r="2" fill="#8855AA"/><circle cx="650.1" cy="45.8" r="2" fill="#8855AA"/><circle cx="676.8" cy="79.7" r="2" fill="#8855AA"/><circle cx="703.4" cy="129.9" r="2" fill="#8855AA"/><circle cx="730.1" cy="111.3" r="2" fill="#8855AA"/><circle cx="756.7" cy="107.6" r="2" fill="#8855AA"/><circle cx="783.4" cy="106.5" r="2" fill="#8855AA"/><circle cx="810.0" cy="104.8" r="2" fill="#8855AA"/><rect x="820" y="199" width="10" height="10" fill="#8855AA"/><text x="834" y="208" font-size="10" fill="#444">messy-5000</text></svg>