<svg width="960" height="372" xmlns="http://www.w3.org/2000/svg"><rect width="960" height="372" fill="#ffffff"/><text x="64" y="20" font-size="15" font-weight="bold" fill="#333">action() — ops/sec (log scale) by PR / release, c7g.medium</text><line x1="64" y1="55.25308394974627" x2="810" y2="55.25308394974627" stroke="#eee"/><text x="58" y="59.25308394974627" font-size="10" text-anchor="end" fill="#888">1e5</text><line x1="64.0" y1="34" x2="64.0" y2="324" stroke="#f4f4f4"/><line x1="82.7" y1="34" x2="82.7" y2="324" stroke="#f4f4f4"/><line x1="101.3" y1="34" x2="101.3" y2="324" stroke="#f4f4f4"/><line x1="119.9" y1="34" x2="119.9" y2="324" stroke="#f4f4f4"/><line x1="138.6" y1="34" x2="138.6" y2="324" stroke="#f4f4f4"/><line x1="157.3" y1="34" x2="157.3" y2="324" stroke="#f4f4f4"/><line x1="175.9" y1="34" x2="175.9" y2="324" stroke="#f4f4f4"/><line x1="194.5" y1="34" x2="194.5" y2="324" stroke="#f4f4f4"/><line x1="213.2" y1="34" x2="213.2" y2="324" stroke="#f4f4f4"/><line x1="231.8" y1="34" x2="231.8" y2="324" stroke="#f4f4f4"/><line x1="250.5" y1="34" x2="250.5" y2="324" stroke="#f4f4f4"/><line x1="269.1" y1="34" x2="269.1" y2="324" stroke="#f4f4f4"/><line x1="287.8" y1="34" x2="287.8" y2="324" stroke="#f4f4f4"/><line x1="306.5" y1="34" x2="306.5" y2="324" stroke="#f4f4f4"/><line x1="325.1" y1="34" x2="325.1" y2="324" stroke="#f4f4f4"/><line x1="343.8" y1="34" x2="343.8" y2="324" stroke="#f4f4f4"/><line x1="362.4" y1="34" x2="362.4" y2="324" stroke="#f4f4f4"/><line x1="381.1" y1="34" x2="381.1" y2="324" stroke="#f4f4f4"/><line x1="399.7" y1="34" x2="399.7" y2="324" stroke="#f4f4f4"/><line x1="418.3" y1="34" x2="418.3" y2="324" stroke="#f4f4f4"/><line x1="437.0" y1="34" x2="437.0" y2="324" stroke="#f4f4f4"/><line x1="455.7" y1="34" x2="455.7" y2="324" stroke="#f4f4f4"/><line x1="474.3" y1="34" x2="474.3" y2="324" stroke="#f4f4f4"/><line x1="492.9" y1="34" x2="492.9" y2="324" stroke="#f4f4f4"/><line x1="511.6" y1="34" x2="511.6" y2="324" stroke="#f4f4f4"/><line x1="530.3" y1="34" x2="530.3" y2="324" stroke="#f4f4f4"/><line x1="548.9" y1="34" x2="548.9" y2="324" stroke="#f4f4f4"/><line x1="567.5" y1="34" x2="567.5" y2="324" stroke="#f4f4f4"/><line x1="586.2" y1="34" x2="586.2" y2="324" stroke="#f4f4f4"/><line x1="604.9" y1="34" x2="604.9" y2="324" stroke="#f4f4f4"/><line x1="623.5" y1="34" x2="623.5" y2="324" stroke="#f4f4f4"/><line x1="642.1" y1="34" x2="642.1" y2="324" stroke="#f4f4f4"/><line x1="660.8" y1="34" x2="660.8" y2="324" stroke="#f4f4f4"/><line x1="679.4" y1="34" x2="679.4" y2="324" stroke="#f4f4f4"/><line x1="698.1" y1="34" x2="698.1" y2="324" stroke="#f4f4f4"/><line x1="716.8" y1="34" x2="716.8" y2="324" stroke="#f4f4f4"/><line x1="735.4" y1="34" x2="735.4" y2="324" stroke="#f4f4f4"/><line x1="754.1" y1="34" x2="754.1" y2="324" stroke="#f4f4f4"/><line x1="772.7" y1="34" x2="772.7" y2="324" stroke="#f4f4f4"/><line x1="791.4" y1="34" x2="791.4" y2="324" stroke="#f4f4f4"/><line x1="810.0" y1="34" x2="810.0" y2="324" stroke="#f4f4f4"/><text x="64.0" y="340" font-size="9" text-anchor="middle" fill="#888">598</text><text x="101.3" y="340" font-size="9" text-anchor="middle" fill="#888">600</text><text x="138.6" y="340" font-size="9" text-anchor="middle" fill="#888">602</text><text x="175.9" y="340" font-size="9" text-anchor="middle" fill="#888">604</text><text x="213.2" y="340" font-size="9" text-anchor="middle" fill="#888">611</text><text x="250.5" y="340" font-size="9" text-anchor="middle" fill="#888">616</text><text x="287.8" y="340" font-size="9" text-anchor="middle" fill="#888">618</text><text x="325.1" y="340" font-size="9" text-anchor="middle" fill="#888">634</text><text x="362.4" y="340" font-size="9" text-anchor="middle" fill="#888">649</text><text x="399.7" y="340" font-size="9" text-anchor="middle" fill="#888">674</text><text x="437.0" y="340" font-size="9" text-anchor="middle" fill="#888">679</text><text x="474.3" y="340" font-size="9" text-anchor="middle" fill="#888">681</text><text x="511.6" y="340" font-size="9" text-anchor="end" fill="#a40" transform="rotate(-35 511.6 340)">v5.143.30</text><text x="548.9" y="340" font-size="9" text-anchor="end" fill="#a40" transform="rotate(-35 548.9 340)">v5.143.33</text><text x="586.2" y="340" font-size="9" text-anchor="end" fill="#a40" transform="rotate(-35 586.2 340)">v5.143.35</text><text x="623.5" y="340" font-size="9" text-anchor="end" fill="#a40" transform="rotate(-35 623.5 340)">v5.144.1</text><text x="660.8" y="340" font-size="9" text-anchor="end" fill="#a40" transform="rotate(-35 660.8 340)">v5.144.3</text><text x="698.1" y="340" font-size="9" text-anchor="end" fill="#a40" transform="rotate(-35 698.1 340)">v5.144.5</text><text x="735.4" y="340" font-size="9" text-anchor="end" fill="#a40" transform="rotate(-35 735.4 340)">v5.144.8</text><text x="772.7" y="340" font-size="9" text-anchor="end" fill="#a40" transform="rotate(-35 772.7 340)">v5.145.1</text><text x="810.0" y="340" font-size="9" text-anchor="end" fill="#a40" transform="rotate(-35 810.0 340)">v5.145.3</text><path d="M660.8,39.1 L679.4,49.1 L698.1,37.9 L716.8,34.0 L735.4,48.2 L754.1,35.0 L772.7,46.7 L791.4,42.9 L810.0,38.6" fill="none" stroke="#4477AA" stroke-width="1.6"/><circle cx="660.8" cy="39.1" r="2" fill="#4477AA"/><circle cx="679.4" cy="49.1" r="2" fill="#4477AA"/><circle cx="698.1" cy="37.9" r="2" fill="#4477AA"/><circle cx="716.8" cy="34.0" r="2" fill="#4477AA"/><circle cx="735.4" cy="48.2" r="2" fill="#4477AA"/><circle cx="754.1" cy="35.0" r="2" fill="#4477AA"/><circle cx="772.7" cy="46.7" r="2" fill="#4477AA"/><circle cx="791.4" cy="42.9" r="2" fill="#4477AA"/><circle cx="810.0" cy="38.6" r="2" fill="#4477AA"/><rect x="820" y="34" width="10" height="10" fill="#4477AA"/><text x="834" y="43" font-size="10" fill="#444">chain-10</text><path d="M660.8,70.8 L679.4,55.5 L698.1,69.8 L716.8,59.5 L735.4,67.3 L754.1,64.8 L772.7,61.0 L791.4,60.8 L810.0,59.7" fill="none" stroke="#EE6677" stroke-width="1.6"/><circle cx="660.8" cy="70.8" r="2" fill="#EE6677"/><circle cx="679.4" cy="55.5" r="2" fill="#EE6677"/><circle cx="698.1" cy="69.8" r="2" fill="#EE6677"/><circle cx="716.8" cy="59.5" r="2" fill="#EE6677"/><circle cx="735.4" cy="67.3" r="2" fill="#EE6677"/><circle cx="754.1" cy="64.8" r="2" fill="#EE6677"/><circle cx="772.7" cy="61.0" r="2" fill="#EE6677"/><circle cx="791.4" cy="60.8" r="2" fill="#EE6677"/><circle cx="810.0" cy="59.7" r="2" fill="#EE6677"/><rect x="820" y="49" width="10" height="10" fill="#EE6677"/><text x="834" y="58" font-size="10" fill="#444">chain-50</text><path d="M660.8,87.8 L679.4,94.0 L698.1,96.6 L716.8,99.3 L735.4,104.6 L754.1,106.1 L772.7,99.5 L791.4,93.2 L810.0,93.6" fill="none" stroke="#228833" stroke-width="1.6"/><circle cx="660.8" cy="87.8" r="2" fill="#228833"/><circle cx="679.4" cy="94.0" r="2" fill="#228833"/><circle cx="698.1" cy="96.6" r="2" fill="#228833"/><circle cx="716.8" cy="99.3" r="2" fill="#228833"/><circle cx="735.4" cy="104.6" r="2" fill="#228833"/><circle cx="754.1" cy="106.1" r="2" fill="#228833"/><circle cx="772.7" cy="99.5" r="2" fill="#228833"/><circle cx="791.4" cy="93.2" r="2" fill="#228833"/><circle cx="810.0" cy="93.6" r="2" fill="#228833"/><rect x="820" y="64" width="10" height="10" fill="#228833"/><text x="834" y="73" font-size="10" fill="#444">chain-200</text><path d="M660.8,131.8 L679.4,130.1 L698.1,134.2 L716.8,126.4 L735.4,144.0 L754.1,124.0 L772.7,125.0 L791.4,125.0 L810.0,125.1" fill="none" stroke="#CCBB44" stroke-width="1.6"/><circle cx="660.8" cy="131.8" r="2" fill="#CCBB44"/><circle cx="679.4" cy="130.1" r="2" fill="#CCBB44"/><circle cx="698.1" cy="134.2" r="2" fill="#CCBB44"/><circle cx="716.8" cy="126.4" r="2" fill="#CCBB44"/><circle cx="735.4" cy="144.0" r="2" fill="#CCBB44"/><circle cx="754.1" cy="124.0" r="2" fill="#CCBB44"/><circle cx="772.7" cy="125.0" r="2" fill="#CCBB44"/><circle cx="791.4" cy="125.0" r="2" fill="#CCBB44"/><circle cx="810.0" cy="125.1" r="2" fill="#CCBB44"/><rect x="820" y="79" width="10" height="10" fill="#CCBB44"/><text x="834" y="88" font-size="10" fill="#444">chain-1000</text><path d="M660.8,55.8 L679.4,48.2 L698.1,53.2 L716.8,49.7 L735.4,74.5 L754.1,55.2 L772.7,52.4 L791.4,59.4 L810.0,56.9" fill="none" stroke="#66CCEE" stroke-width="1.6"/><circle cx="660.8" cy="55.8" r="2" fill="#66CCEE"/><circle cx="679.4" cy="48.2" r="2" fill="#66CCEE"/><circle cx="698.1" cy="53.2" r="2" fill="#66CCEE"/><circle cx="716.8" cy="49.7" r="2" fill="#66CCEE"/><circle cx="735.4" cy="74.5" r="2" fill="#66CCEE"/><circle cx="754.1" cy="55.2" r="2" fill="#66CCEE"/><circle cx="772.7" cy="52.4" r="2" fill="#66CCEE"/><circle cx="791.4" cy="59.4" r="2" fill="#66CCEE"/><circle cx="810.0" cy="56.9" r="2" fill="#66CCEE"/><rect x="820" y="94" width="10" height="10" fill="#66CCEE"/><text x="834" y="103" font-size="10" fill="#444">dense-10</text><path d="M660.8,102.8 L679.4,98.9 L698.1,105.9 L716.8,110.4 L735.4,115.1 L754.1,109.1 L772.7,101.9 L791.4,115.0 L810.0,118.6" fill="none" stroke="#AA3377" stroke-width="1.6"/><circle cx="660.8" cy="102.8" r="2" fill="#AA3377"/><circle cx="679.4" cy="98.9" r="2" fill="#AA3377"/><circle cx="698.1" cy="105.9" r="2" fill="#AA3377"/><circle cx="716.8" cy="110.4" r="2" fill="#AA3377"/><circle cx="735.4" cy="115.1" r="2" fill="#AA3377"/><circle cx="754.1" cy="109.1" r="2" fill="#AA3377"/><circle cx="772.7" cy="101.9" r="2" fill="#AA3377"/><circle cx="791.4" cy="115.0" r="2" fill="#AA3377"/><circle cx="810.0" cy="118.6" r="2" fill="#AA3377"/><rect x="820" y="109" width="10" height="10" fill="#AA3377"/><text x="834" y="118" font-size="10" fill="#444">dense-50</text><path d="M660.8,175.7 L679.4,170.5 L698.1,169.2 L716.8,167.2 L735.4,167.6 L754.1,153.2 L772.7,165.4 L791.4,160.5 L810.0,163.3" fill="none" stroke="#BBBBBB" stroke-width="1.6"/><circle cx="660.8" cy="175.7" r="2" fill="#BBBBBB"/><circle cx="679.4" cy="170.5" r="2" fill="#BBBBBB"/><circle cx="698.1" cy="169.2" r="2" fill="#BBBBBB"/><circle cx="716.8" cy="167.2" r="2" fill="#BBBBBB"/><circle cx="735.4" cy="167.6" r="2" fill="#BBBBBB"/><circle cx="754.1" cy="153.2" r="2" fill="#BBBBBB"/><circle cx="772.7" cy="165.4" r="2" fill="#BBBBBB"/><circle cx="791.4" cy="160.5" r="2" fill="#BBBBBB"/><circle cx="810.0" cy="163.3" r="2" fill="#BBBBBB"/><rect x="820" y="124" width="10" height="10" fill="#BBBBBB"/><text x="834" y="133" font-size="10" fill="#444">dense-200</text><path d="M660.8,65.1 L679.4,62.2 L698.1,63.4 L716.8,61.1 L735.4,70.1 L754.1,78.5 L772.7,62.0 L791.4,66.3 L810.0,58.6" fill="none" stroke="#222255" stroke-width="1.6"/><circle cx="660.8" cy="65.1" r="2" fill="#222255"/><circle cx="679.4" cy="62.2" r="2" fill="#222255"/><circle cx="698.1" cy="63.4" r="2" fill="#222255"/><circle cx="716.8" cy="61.1" r="2" fill="#222255"/><circle cx="735.4" cy="70.1" r="2" fill="#222255"/><circle cx="754.1" cy="78.5" r="2" fill="#222255"/><circle cx="772.7" cy="62.0" r="2" fill="#222255"/><circle cx="791.4" cy="66.3" r="2" fill="#222255"/><circle cx="810.0" cy="58.6" r="2" fill="#222255"/><rect x="820" y="139" width="10" height="10" fill="#222255"/><text x="834" y="148" font-size="10" fill="#444">hub-50</text><path d="M660.8,118.8 L679.4,100.8 L698.1,105.6 L716.8,103.8 L735.4,117.6 L754.1,112.7 L772.7,114.2 L791.4,103.8 L810.0,105.7" fill="none" stroke="#225555" stroke-width="1.6"/><circle cx="660.8" cy="118.8" r="2" fill="#225555"/><circle cx="679.4" cy="100.8" r="2" fill="#225555"/><circle cx="698.1" cy="105.6" r="2" fill="#225555"/><circle cx="716.8" cy="103.8" r="2" fill="#225555"/><circle cx="735.4" cy="117.6" r="2" fill="#225555"/><circle cx="754.1" cy="112.7" r="2" fill="#225555"/><circle cx="772.7" cy="114.2" r="2" fill="#225555"/><circle cx="791.4" cy="103.8" r="2" fill="#225555"/><circle cx="810.0" cy="105.7" r="2" fill="#225555"/><rect x="820" y="154" width="10" height="10" fill="#225555"/><text x="834" y="163" font-size="10" fill="#444">hub-200</text><path d="M660.8,324.0 L679.4,317.8 L698.1,322.3 L716.8,321.0 L735.4,323.7 L754.1,317.4 L772.7,322.2 L791.4,323.4 L810.0,320.9" fill="none" stroke="#552222" stroke-width="1.6"/><circle cx="660.8" cy="324.0" r="2" fill="#552222"/><circle cx="679.4" cy="317.8" r="2" fill="#552222"/><circle cx="698.1" cy="322.3" r="2" fill="#552222"/><circle cx="716.8" cy="321.0" r="2" fill="#552222"/><circle cx="735.4" cy="323.7" r="2" fill="#552222"/><circle cx="754.1" cy="317.4" r="2" fill="#552222"/><circle cx="772.7" cy="322.2" r="2" fill="#552222"/><circle cx="791.4" cy="323.4" r="2" fill="#552222"/><circle cx="810.0" cy="320.9" r="2" fill="#552222"/><rect x="820" y="169" width="10" height="10" fill="#552222"/><text x="834" y="178" font-size="10" fill="#444">hooked-200</text></svg>