<svg width="960" height="372" xmlns="http://www.w3.org/2000/svg"><rect width="960" height="372" fill="#ffffff"/><text x="64" y="20" font-size="15" font-weight="bold" fill="#333">construct() — ops/sec (log scale) by PR / release, c7g.medium</text><line x1="64" y1="298.045274556733" x2="810" y2="298.045274556733" stroke="#eee"/><text x="58" y="302.045274556733" font-size="10" text-anchor="end" fill="#888">1e0</text><line x1="64" y1="232.82256541049674" x2="810" y2="232.82256541049674" stroke="#eee"/><text x="58" y="236.82256541049674" font-size="10" text-anchor="end" fill="#888">1e1</text><line x1="64" y1="167.59985626426047" x2="810" y2="167.59985626426047" stroke="#eee"/><text x="58" y="171.59985626426047" font-size="10" text-anchor="end" fill="#888">1e2</text><line x1="64" y1="102.37714711802423" x2="810" y2="102.37714711802423" stroke="#eee"/><text x="58" y="106.37714711802423" font-size="10" text-anchor="end" fill="#888">1e3</text><line x1="64" y1="37.15443797178801" x2="810" y2="37.15443797178801" stroke="#eee"/><text x="58" y="41.15443797178801" font-size="10" text-anchor="end" fill="#888">1e4</text><line x1="64.0" y1="34" x2="64.0" y2="324" stroke="#f4f4f4"/><line x1="82.7" y1="34" x2="82.7" y2="324" stroke="#f4f4f4"/><line x1="101.3" y1="34" x2="101.3" y2="324" stroke="#f4f4f4"/><line x1="119.9" y1="34" x2="119.9" y2="324" stroke="#f4f4f4"/><line x1="138.6" y1="34" x2="138.6" y2="324" stroke="#f4f4f4"/><line x1="157.3" y1="34" x2="157.3" y2="324" stroke="#f4f4f4"/><line x1="175.9" y1="34" x2="175.9" y2="324" stroke="#f4f4f4"/><line x1="194.5" y1="34" x2="194.5" y2="324" stroke="#f4f4f4"/><line x1="213.2" y1="34" x2="213.2" y2="324" stroke="#f4f4f4"/><line x1="231.8" y1="34" x2="231.8" y2="324" stroke="#f4f4f4"/><line x1="250.5" y1="34" x2="250.5" y2="324" stroke="#f4f4f4"/><line x1="269.1" y1="34" x2="269.1" y2="324" stroke="#f4f4f4"/><line x1="287.8" y1="34" x2="287.8" y2="324" stroke="#f4f4f4"/><line x1="306.5" y1="34" x2="306.5" y2="324" stroke="#f4f4f4"/><line x1="325.1" y1="34" x2="325.1" y2="324" stroke="#f4f4f4"/><line x1="343.8" y1="34" x2="343.8" y2="324" stroke="#f4f4f4"/><line x1="362.4" y1="34" x2="362.4" y2="324" stroke="#f4f4f4"/><line x1="381.1" y1="34" x2="381.1" y2="324" stroke="#f4f4f4"/><line x1="399.7" y1="34" x2="399.7" y2="324" stroke="#f4f4f4"/><line x1="418.3" y1="34" x2="418.3" y2="324" stroke="#f4f4f4"/><line x1="437.0" y1="34" x2="437.0" y2="324" stroke="#f4f4f4"/><line x1="455.7" y1="34" x2="455.7" y2="324" stroke="#f4f4f4"/><line x1="474.3" y1="34" x2="474.3" y2="324" stroke="#f4f4f4"/><line x1="492.9" y1="34" x2="492.9" y2="324" stroke="#f4f4f4"/><line x1="511.6" y1="34" x2="511.6" y2="324" stroke="#f4f4f4"/><line x1="530.3" y1="34" x2="530.3" y2="324" stroke="#f4f4f4"/><line x1="548.9" y1="34" x2="548.9" y2="324" stroke="#f4f4f4"/><line x1="567.5" y1="34" x2="567.5" y2="324" stroke="#f4f4f4"/><line x1="586.2" y1="34" x2="586.2" y2="324" stroke="#f4f4f4"/><line x1="604.9" y1="34" x2="604.9" y2="324" stroke="#f4f4f4"/><line x1="623.5" y1="34" x2="623.5" y2="324" stroke="#f4f4f4"/><line x1="642.1" y1="34" x2="642.1" y2="324" stroke="#f4f4f4"/><line x1="660.8" y1="34" x2="660.8" y2="324" stroke="#f4f4f4"/><line x1="679.4" y1="34" x2="679.4" y2="324" stroke="#f4f4f4"/><line x1="698.1" y1="34" x2="698.1" y2="324" stroke="#f4f4f4"/><line x1="716.8" y1="34" x2="716.8" y2="324" stroke="#f4f4f4"/><line x1="735.4" y1="34" x2="735.4" y2="324" stroke="#f4f4f4"/><line x1="754.1" y1="34" x2="754.1" y2="324" stroke="#f4f4f4"/><line x1="772.7" y1="34" x2="772.7" y2="324" stroke="#f4f4f4"/><line x1="791.4" y1="34" x2="791.4" y2="324" stroke="#f4f4f4"/><line x1="810.0" y1="34" x2="810.0" y2="324" stroke="#f4f4f4"/><text x="64.0" y="340" font-size="9" text-anchor="middle" fill="#888">598</text><text x="101.3" y="340" font-size="9" text-anchor="middle" fill="#888">600</text><text x="138.6" y="340" font-size="9" text-anchor="middle" fill="#888">602</text><text x="175.9" y="340" font-size="9" text-anchor="middle" fill="#888">604</text><text x="213.2" y="340" font-size="9" text-anchor="middle" fill="#888">611</text><text x="250.5" y="340" font-size="9" text-anchor="middle" fill="#888">616</text><text x="287.8" y="340" font-size="9" text-anchor="middle" fill="#888">618</text><text x="325.1" y="340" font-size="9" text-anchor="middle" fill="#888">634</text><text x="362.4" y="340" font-size="9" text-anchor="middle" fill="#888">649</text><text x="399.7" y="340" font-size="9" text-anchor="middle" fill="#888">674</text><text x="437.0" y="340" font-size="9" text-anchor="middle" fill="#888">679</text><text x="474.3" y="340" font-size="9" text-anchor="middle" fill="#888">681</text><text x="511.6" y="340" font-size="9" text-anchor="end" fill="#a40" transform="rotate(-35 511.6 340)">v5.143.30</text><text x="548.9" y="340" font-size="9" text-anchor="end" fill="#a40" transform="rotate(-35 548.9 340)">v5.143.33</text><text x="586.2" y="340" font-size="9" text-anchor="end" fill="#a40" transform="rotate(-35 586.2 340)">v5.143.35</text><text x="623.5" y="340" font-size="9" text-anchor="end" fill="#a40" transform="rotate(-35 623.5 340)">v5.144.1</text><text x="660.8" y="340" font-size="9" text-anchor="end" fill="#a40" transform="rotate(-35 660.8 340)">v5.144.3</text><text x="698.1" y="340" font-size="9" text-anchor="end" fill="#a40" transform="rotate(-35 698.1 340)">v5.144.5</text><text x="735.4" y="340" font-size="9" text-anchor="end" fill="#a40" transform="rotate(-35 735.4 340)">v5.144.8</text><text x="772.7" y="340" font-size="9" text-anchor="end" fill="#a40" transform="rotate(-35 772.7 340)">v5.145.1</text><text x="810.0" y="340" font-size="9" text-anchor="end" fill="#a40" transform="rotate(-35 810.0 340)">v5.145.3</text><path d="M64.0,48.9 L82.7,47.1 L101.3,47.4 L119.9,47.1 L138.6,48.2 L157.3,46.8 L175.9,47.3 L194.5,48.3 L213.2,48.4 L231.8,48.3 L250.5,46.1 L269.1,46.7 L287.8,46.6 L306.5,48.4 L325.1,47.4 L343.8,42.6 L362.4,41.2 L381.1,41.1 L399.7,41.1 L418.3,40.4 L437.0,40.9 L455.7,40.4 L474.3,41.5 L492.9,79.2 L511.6,40.6 L530.3,40.1 L548.9,40.7 L567.5,38.8 L586.2,38.4 L604.9,41.2 L623.5,39.5 L642.1,34.0 L660.8,37.3 L679.4,36.3 L698.1,37.8 L716.8,37.3 L735.4,35.0 L754.1,34.7 L772.7,40.6 L791.4,35.1 L810.0,36.2" fill="none" stroke="#4477AA" stroke-width="1.6"/><circle cx="64.0" cy="48.9" r="2" fill="#4477AA"/><circle cx="82.7" cy="47.1" r="2" fill="#4477AA"/><circle cx="101.3" cy="47.4" r="2" fill="#4477AA"/><circle cx="119.9" cy="47.1" r="2" fill="#4477AA"/><circle cx="138.6" cy="48.2" r="2" fill="#4477AA"/><circle cx="157.3" cy="46.8" r="2" fill="#4477AA"/><circle cx="175.9" cy="47.3" r="2" fill="#4477AA"/><circle cx="194.5" cy="48.3" r="2" fill="#4477AA"/><circle cx="213.2" cy="48.4" r="2" fill="#4477AA"/><circle cx="231.8" cy="48.3" r="2" fill="#4477AA"/><circle cx="250.5" cy="46.1" r="2" fill="#4477AA"/><circle cx="269.1" cy="46.7" r="2" fill="#4477AA"/><circle cx="287.8" cy="46.6" r="2" fill="#4477AA"/><circle cx="306.5" cy="48.4" r="2" fill="#4477AA"/><circle cx="325.1" cy="47.4" r="2" fill="#4477AA"/><circle cx="343.8" cy="42.6" r="2" fill="#4477AA"/><circle cx="362.4" cy="41.2" r="2" fill="#4477AA"/><circle cx="381.1" cy="41.1" r="2" fill="#4477AA"/><circle cx="399.7" cy="41.1" r="2" fill="#4477AA"/><circle cx="418.3" cy="40.4" r="2" fill="#4477AA"/><circle cx="437.0" cy="40.9" r="2" fill="#4477AA"/><circle cx="455.7" cy="40.4" r="2" fill="#4477AA"/><circle cx="474.3" cy="41.5" r="2" fill="#4477AA"/><circle cx="492.9" cy="79.2" r="2" fill="#4477AA"/><circle cx="511.6" cy="40.6" r="2" fill="#4477AA"/><circle cx="530.3" cy="40.1" r="2" fill="#4477AA"/><circle cx="548.9" cy="40.7" r="2" fill="#4477AA"/><circle cx="567.5" cy="38.8" r="2" fill="#4477AA"/><circle cx="586.2" cy="38.4" r="2" fill="#4477AA"/><circle cx="604.9" cy="41.2" r="2" fill="#4477AA"/><circle cx="623.5" cy="39.5" r="2" fill="#4477AA"/><circle cx="642.1" cy="34.0" r="2" fill="#4477AA"/><circle cx="660.8" cy="37.3" r="2" fill="#4477AA"/><circle cx="679.4" cy="36.3" r="2" fill="#4477AA"/><circle cx="698.1" cy="37.8" r="2" fill="#4477AA"/><circle cx="716.8" cy="37.3" r="2" fill="#4477AA"/><circle cx="735.4" cy="35.0" r="2" fill="#4477AA"/><circle cx="754.1" cy="34.7" r="2" fill="#4477AA"/><circle cx="772.7" cy="40.6" r="2" fill="#4477AA"/><circle cx="791.4" cy="35.1" r="2" fill="#4477AA"/><circle cx="810.0" cy="36.2" r="2" fill="#4477AA"/><rect x="820" y="34" width="10" height="10" fill="#4477AA"/><text x="834" y="43" font-size="10" fill="#444">chain-10</text><path d="M64.0,79.0 L82.7,73.2 L101.3,76.4 L119.9,74.9 L138.6,75.7 L157.3,72.4 L175.9,79.0 L194.5,76.5 L213.2,73.4 L231.8,74.1 L250.5,74.5 L269.1,75.6 L287.8,75.7 L306.5,78.7 L325.1,76.8 L343.8,75.6 L362.4,76.5 L381.1,77.3 L399.7,78.2 L418.3,73.0 L437.0,75.6 L455.7,75.4 L474.3,75.6 L492.9,117.7 L511.6,70.2 L530.3,70.2 L548.9,72.0 L567.5,73.2 L586.2,71.8 L604.9,71.3 L623.5,70.2 L642.1,71.1 L660.8,66.4 L679.4,66.4 L698.1,66.3 L716.8,67.0 L735.4,66.3 L754.1,67.1 L772.7,71.4 L791.4,66.2 L810.0,66.3" fill="none" stroke="#EE6677" stroke-width="1.6"/><circle cx="64.0" cy="79.0" r="2" fill="#EE6677"/><circle cx="82.7" cy="73.2" r="2" fill="#EE6677"/><circle cx="101.3" cy="76.4" r="2" fill="#EE6677"/><circle cx="119.9" cy="74.9" r="2" fill="#EE6677"/><circle cx="138.6" cy="75.7" r="2" fill="#EE6677"/><circle cx="157.3" cy="72.4" r="2" fill="#EE6677"/><circle cx="175.9" cy="79.0" r="2" fill="#EE6677"/><circle cx="194.5" cy="76.5" r="2" fill="#EE6677"/><circle cx="213.2" cy="73.4" r="2" fill="#EE6677"/><circle cx="231.8" cy="74.1" r="2" fill="#EE6677"/><circle cx="250.5" cy="74.5" r="2" fill="#EE6677"/><circle cx="269.1" cy="75.6" r="2" fill="#EE6677"/><circle cx="287.8" cy="75.7" r="2" fill="#EE6677"/><circle cx="306.5" cy="78.7" r="2" fill="#EE6677"/><circle cx="325.1" cy="76.8" r="2" fill="#EE6677"/><circle cx="343.8" cy="75.6" r="2" fill="#EE6677"/><circle cx="362.4" cy="76.5" r="2" fill="#EE6677"/><circle cx="381.1" cy="77.3" r="2" fill="#EE6677"/><circle cx="399.7" cy="78.2" r="2" fill="#EE6677"/><circle cx="418.3" cy="73.0" r="2" fill="#EE6677"/><circle cx="437.0" cy="75.6" r="2" fill="#EE6677"/><circle cx="455.7" cy="75.4" r="2" fill="#EE6677"/><circle cx="474.3" cy="75.6" r="2" fill="#EE6677"/><circle cx="492.9" cy="117.7" r="2" fill="#EE6677"/><circle cx="511.6" cy="70.2" r="2" fill="#EE6677"/><circle cx="530.3" cy="70.2" r="2" fill="#EE6677"/><circle cx="548.9" cy="72.0" r="2" fill="#EE6677"/><circle cx="567.5" cy="73.2" r="2" fill="#EE6677"/><circle cx="586.2" cy="71.8" r="2" fill="#EE6677"/><circle cx="604.9" cy="71.3" r="2" fill="#EE6677"/><circle cx="623.5" cy="70.2" r="2" fill="#EE6677"/><circle cx="642.1" cy="71.1" r="2" fill="#EE6677"/><circle cx="660.8" cy="66.4" r="2" fill="#EE6677"/><circle cx="679.4" cy="66.4" r="2" fill="#EE6677"/><circle cx="698.1" cy="66.3" r="2" fill="#EE6677"/><circle cx="716.8" cy="67.0" r="2" fill="#EE6677"/><circle cx="735.4" cy="66.3" r="2" fill="#EE6677"/><circle cx="754.1" cy="67.1" r="2" fill="#EE6677"/><circle cx="772.7" cy="71.4" r="2" fill="#EE6677"/><circle cx="791.4" cy="66.2" r="2" fill="#EE6677"/><circle cx="810.0" cy="66.3" r="2" fill="#EE6677"/><rect x="820" y="49" width="10" height="10" fill="#EE6677"/><text x="834" y="58" font-size="10" fill="#444">chain-50</text><path d="M64.0,114.1 L82.7,109.5 L101.3,110.0 L119.9,111.3 L138.6,110.7 L157.3,111.1 L175.9,110.1 L194.5,110.1 L213.2,113.2 L231.8,114.3 L250.5,114.4 L269.1,114.3 L287.8,110.3 L306.5,113.8 L325.1,114.9 L343.8,113.1 L362.4,113.7 L381.1,113.9 L399.7,113.9 L418.3,114.5 L437.0,113.1 L455.7,112.9 L474.3,113.9 L492.9,159.7 L511.6,107.5 L530.3,109.6 L548.9,108.3 L567.5,106.8 L586.2,107.0 L604.9,108.0 L623.5,108.5 L642.1,104.8 L660.8,103.6 L679.4,104.2 L698.1,102.8 L716.8,103.0 L735.4,103.3 L754.1,103.7 L772.7,108.6 L791.4,104.3 L810.0,102.8" fill="none" stroke="#228833" stroke-width="1.6"/><circle cx="64.0" cy="114.1" r="2" fill="#228833"/><circle cx="82.7" cy="109.5" r="2" fill="#228833"/><circle cx="101.3" cy="110.0" r="2" fill="#228833"/><circle cx="119.9" cy="111.3" r="2" fill="#228833"/><circle cx="138.6" cy="110.7" r="2" fill="#228833"/><circle cx="157.3" cy="111.1" r="2" fill="#228833"/><circle cx="175.9" cy="110.1" r="2" fill="#228833"/><circle cx="194.5" cy="110.1" r="2" fill="#228833"/><circle cx="213.2" cy="113.2" r="2" fill="#228833"/><circle cx="231.8" cy="114.3" r="2" fill="#228833"/><circle cx="250.5" cy="114.4" r="2" fill="#228833"/><circle cx="269.1" cy="114.3" r="2" fill="#228833"/><circle cx="287.8" cy="110.3" r="2" fill="#228833"/><circle cx="306.5" cy="113.8" r="2" fill="#228833"/><circle cx="325.1" cy="114.9" r="2" fill="#228833"/><circle cx="343.8" cy="113.1" r="2" fill="#228833"/><circle cx="362.4" cy="113.7" r="2" fill="#228833"/><circle cx="381.1" cy="113.9" r="2" fill="#228833"/><circle cx="399.7" cy="113.9" r="2" fill="#228833"/><circle cx="418.3" cy="114.5" r="2" fill="#228833"/><circle cx="437.0" cy="113.1" r="2" fill="#228833"/><circle cx="455.7" cy="112.9" r="2" fill="#228833"/><circle cx="474.3" cy="113.9" r="2" fill="#228833"/><circle cx="492.9" cy="159.7" r="2" fill="#228833"/><circle cx="511.6" cy="107.5" r="2" fill="#228833"/><circle cx="530.3" cy="109.6" r="2" fill="#228833"/><circle cx="548.9" cy="108.3" r="2" fill="#228833"/><circle cx="567.5" cy="106.8" r="2" fill="#228833"/><circle cx="586.2" cy="107.0" r="2" fill="#228833"/><circle cx="604.9" cy="108.0" r="2" fill="#228833"/><circle cx="623.5" cy="108.5" r="2" fill="#228833"/><circle cx="642.1" cy="104.8" r="2" fill="#228833"/><circle cx="660.8" cy="103.6" r="2" fill="#228833"/><circle cx="679.4" cy="104.2" r="2" fill="#228833"/><circle cx="698.1" cy="102.8" r="2" fill="#228833"/><circle cx="716.8" cy="103.0" r="2" fill="#228833"/><circle cx="735.4" cy="103.3" r="2" fill="#228833"/><circle cx="754.1" cy="103.7" r="2" fill="#228833"/><circle cx="772.7" cy="108.6" r="2" fill="#228833"/><circle cx="791.4" cy="104.3" r="2" fill="#228833"/><circle cx="810.0" cy="102.8" r="2" fill="#228833"/><rect x="820" y="64" width="10" height="10" fill="#228833"/><text x="834" y="73" font-size="10" fill="#444">chain-200</text><path d="M64.0,160.2 L82.7,159.3 L101.3,157.2 L119.9,159.1 L138.6,159.3 L157.3,158.7 L175.9,157.7 L194.5,160.6 L213.2,160.2 L231.8,159.3 L250.5,158.7 L269.1,159.5 L287.8,156.1 L306.5,160.2 L325.1,158.7 L343.8,162.0 L362.4,160.0 L381.1,162.0 L399.7,161.3 L418.3,161.4 L437.0,161.7 L455.7,160.4 L474.3,161.5 L492.9,214.6 L511.6,153.6 L530.3,154.6 L548.9,154.6 L567.5,154.3 L586.2,154.6 L604.9,153.1 L623.5,154.1 L642.1,151.0 L660.8,148.0 L679.4,148.8 L698.1,148.3 L716.8,148.1 L735.4,148.8 L754.1,149.7 L772.7,153.4 L791.4,147.8 L810.0,148.3" fill="none" stroke="#CCBB44" stroke-width="1.6"/><circle cx="64.0" cy="160.2" r="2" fill="#CCBB44"/><circle cx="82.7" cy="159.3" r="2" fill="#CCBB44"/><circle cx="101.3" cy="157.2" r="2" fill="#CCBB44"/><circle cx="119.9" cy="159.1" r="2" fill="#CCBB44"/><circle cx="138.6" cy="159.3" r="2" fill="#CCBB44"/><circle cx="157.3" cy="158.7" r="2" fill="#CCBB44"/><circle cx="175.9" cy="157.7" r="2" fill="#CCBB44"/><circle cx="194.5" cy="160.6" r="2" fill="#CCBB44"/><circle cx="213.2" cy="160.2" r="2" fill="#CCBB44"/><circle cx="231.8" cy="159.3" r="2" fill="#CCBB44"/><circle cx="250.5" cy="158.7" r="2" fill="#CCBB44"/><circle cx="269.1" cy="159.5" r="2" fill="#CCBB44"/><circle cx="287.8" cy="156.1" r="2" fill="#CCBB44"/><circle cx="306.5" cy="160.2" r="2" fill="#CCBB44"/><circle cx="325.1" cy="158.7" r="2" fill="#CCBB44"/><circle cx="343.8" cy="162.0" r="2" fill="#CCBB44"/><circle cx="362.4" cy="160.0" r="2" fill="#CCBB44"/><circle cx="381.1" cy="162.0" r="2" fill="#CCBB44"/><circle cx="399.7" cy="161.3" r="2" fill="#CCBB44"/><circle cx="418.3" cy="161.4" r="2" fill="#CCBB44"/><circle cx="437.0" cy="161.7" r="2" fill="#CCBB44"/><circle cx="455.7" cy="160.4" r="2" fill="#CCBB44"/><circle cx="474.3" cy="161.5" r="2" fill="#CCBB44"/><circle cx="492.9" cy="214.6" r="2" fill="#CCBB44"/><circle cx="511.6" cy="153.6" r="2" fill="#CCBB44"/><circle cx="530.3" cy="154.6" r="2" fill="#CCBB44"/><circle cx="548.9" cy="154.6" r="2" fill="#CCBB44"/><circle cx="567.5" cy="154.3" r="2" fill="#CCBB44"/><circle cx="586.2" cy="154.6" r="2" fill="#CCBB44"/><circle cx="604.9" cy="153.1" r="2" fill="#CCBB44"/><circle cx="623.5" cy="154.1" r="2" fill="#CCBB44"/><circle cx="642.1" cy="151.0" r="2" fill="#CCBB44"/><circle cx="660.8" cy="148.0" r="2" fill="#CCBB44"/><circle cx="679.4" cy="148.8" r="2" fill="#CCBB44"/><circle cx="698.1" cy="148.3" r="2" fill="#CCBB44"/><circle cx="716.8" cy="148.1" r="2" fill="#CCBB44"/><circle cx="735.4" cy="148.8" r="2" fill="#CCBB44"/><circle cx="754.1" cy="149.7" r="2" fill="#CCBB44"/><circle cx="772.7" cy="153.4" r="2" fill="#CCBB44"/><circle cx="791.4" cy="147.8" r="2" fill="#CCBB44"/><circle cx="810.0" cy="148.3" r="2" fill="#CCBB44"/><rect x="820" y="79" width="10" height="10" fill="#CCBB44"/><text x="834" y="88" font-size="10" fill="#444">chain-1000</text><path d="M64.0,85.0 L82.7,86.3 L101.3,85.4 L119.9,85.3 L138.6,84.5 L157.3,83.7 L175.9,85.6 L194.5,87.0 L213.2,85.8 L231.8,85.0 L250.5,84.3 L269.1,85.0 L287.8,88.5 L306.5,85.8 L325.1,85.9 L343.8,85.8 L362.4,84.1 L381.1,86.3 L399.7,84.7 L418.3,83.1 L437.0,84.2 L455.7,85.0 L474.3,84.8 L492.9,164.4 L511.6,81.3 L530.3,81.4 L548.9,81.5 L567.5,82.2 L586.2,80.3 L604.9,82.7 L623.5,81.2 L642.1,76.4 L660.8,75.0 L679.4,76.2 L698.1,74.0 L716.8,74.4 L735.4,74.4 L754.1,75.2 L772.7,81.6 L791.4,75.7 L810.0,74.7" fill="none" stroke="#66CCEE" stroke-width="1.6"/><circle cx="64.0" cy="85.0" r="2" fill="#66CCEE"/><circle cx="82.7" cy="86.3" r="2" fill="#66CCEE"/><circle cx="101.3" cy="85.4" r="2" fill="#66CCEE"/><circle cx="119.9" cy="85.3" r="2" fill="#66CCEE"/><circle cx="138.6" cy="84.5" r="2" fill="#66CCEE"/><circle cx="157.3" cy="83.7" r="2" fill="#66CCEE"/><circle cx="175.9" cy="85.6" r="2" fill="#66CCEE"/><circle cx="194.5" cy="87.0" r="2" fill="#66CCEE"/><circle cx="213.2" cy="85.8" r="2" fill="#66CCEE"/><circle cx="231.8" cy="85.0" r="2" fill="#66CCEE"/><circle cx="250.5" cy="84.3" r="2" fill="#66CCEE"/><circle cx="269.1" cy="85.0" r="2" fill="#66CCEE"/><circle cx="287.8" cy="88.5" r="2" fill="#66CCEE"/><circle cx="306.5" cy="85.8" r="2" fill="#66CCEE"/><circle cx="325.1" cy="85.9" r="2" fill="#66CCEE"/><circle cx="343.8" cy="85.8" r="2" fill="#66CCEE"/><circle cx="362.4" cy="84.1" r="2" fill="#66CCEE"/><circle cx="381.1" cy="86.3" r="2" fill="#66CCEE"/><circle cx="399.7" cy="84.7" r="2" fill="#66CCEE"/><circle cx="418.3" cy="83.1" r="2" fill="#66CCEE"/><circle cx="437.0" cy="84.2" r="2" fill="#66CCEE"/><circle cx="455.7" cy="85.0" r="2" fill="#66CCEE"/><circle cx="474.3" cy="84.8" r="2" fill="#66CCEE"/><circle cx="492.9" cy="164.4" r="2" fill="#66CCEE"/><circle cx="511.6" cy="81.3" r="2" fill="#66CCEE"/><circle cx="530.3" cy="81.4" r="2" fill="#66CCEE"/><circle cx="548.9" cy="81.5" r="2" fill="#66CCEE"/><circle cx="567.5" cy="82.2" r="2" fill="#66CCEE"/><circle cx="586.2" cy="80.3" r="2" fill="#66CCEE"/><circle cx="604.9" cy="82.7" r="2" fill="#66CCEE"/><circle cx="623.5" cy="81.2" r="2" fill="#66CCEE"/><circle cx="642.1" cy="76.4" r="2" fill="#66CCEE"/><circle cx="660.8" cy="75.0" r="2" fill="#66CCEE"/><circle cx="679.4" cy="76.2" r="2" fill="#66CCEE"/><circle cx="698.1" cy="74.0" r="2" fill="#66CCEE"/><circle cx="716.8" cy="74.4" r="2" fill="#66CCEE"/><circle cx="735.4" cy="74.4" r="2" fill="#66CCEE"/><circle cx="754.1" cy="75.2" r="2" fill="#66CCEE"/><circle cx="772.7" cy="81.6" r="2" fill="#66CCEE"/><circle cx="791.4" cy="75.7" r="2" fill="#66CCEE"/><circle cx="810.0" cy="74.7" r="2" fill="#66CCEE"/><rect x="820" y="94" width="10" height="10" fill="#66CCEE"/><text x="834" y="103" font-size="10" fill="#444">dense-10</text><path d="M64.0,182.5 L82.7,183.5 L101.3,179.6 L119.9,181.1 L138.6,181.9 L157.3,179.8 L175.9,182.1 L194.5,183.1 L213.2,182.5 L231.8,182.1 L250.5,181.6 L269.1,181.6 L287.8,179.8 L306.5,182.1 L325.1,182.5 L343.8,183.5 L362.4,181.6 L381.1,182.1 L399.7,181.1 L418.3,181.8 L437.0,182.5 L455.7,181.6 L474.3,182.1 L492.9,266.9 L511.6,172.2 L530.3,173.9 L548.9,172.9 L567.5,172.5 L586.2,175.4 L604.9,175.7 L623.5,172.5 L642.1,167.0 L660.8,166.5 L679.4,167.5 L698.1,166.8 L716.8,166.2 L735.4,166.5 L754.1,166.8 L772.7,172.5 L791.4,165.7 L810.0,166.2" fill="none" stroke="#AA3377" stroke-width="1.6"/><circle cx="64.0" cy="182.5" r="2" fill="#AA3377"/><circle cx="82.7" cy="183.5" r="2" fill="#AA3377"/><circle cx="101.3" cy="179.6" r="2" fill="#AA3377"/><circle cx="119.9" cy="181.1" r="2" fill="#AA3377"/><circle cx="138.6" cy="181.9" r="2" fill="#AA3377"/><circle cx="157.3" cy="179.8" r="2" fill="#AA3377"/><circle cx="175.9" cy="182.1" r="2" fill="#AA3377"/><circle cx="194.5" cy="183.1" r="2" fill="#AA3377"/><circle cx="213.2" cy="182.5" r="2" fill="#AA3377"/><circle cx="231.8" cy="182.1" r="2" fill="#AA3377"/><circle cx="250.5" cy="181.6" r="2" fill="#AA3377"/><circle cx="269.1" cy="181.6" r="2" fill="#AA3377"/><circle cx="287.8" cy="179.8" r="2" fill="#AA3377"/><circle cx="306.5" cy="182.1" r="2" fill="#AA3377"/><circle cx="325.1" cy="182.5" r="2" fill="#AA3377"/><circle cx="343.8" cy="183.5" r="2" fill="#AA3377"/><circle cx="362.4" cy="181.6" r="2" fill="#AA3377"/><circle cx="381.1" cy="182.1" r="2" fill="#AA3377"/><circle cx="399.7" cy="181.1" r="2" fill="#AA3377"/><circle cx="418.3" cy="181.8" r="2" fill="#AA3377"/><circle cx="437.0" cy="182.5" r="2" fill="#AA3377"/><circle cx="455.7" cy="181.6" r="2" fill="#AA3377"/><circle cx="474.3" cy="182.1" r="2" fill="#AA3377"/><circle cx="492.9" cy="266.9" r="2" fill="#AA3377"/><circle cx="511.6" cy="172.2" r="2" fill="#AA3377"/><circle cx="530.3" cy="173.9" r="2" fill="#AA3377"/><circle cx="548.9" cy="172.9" r="2" fill="#AA3377"/><circle cx="567.5" cy="172.5" r="2" fill="#AA3377"/><circle cx="586.2" cy="175.4" r="2" fill="#AA3377"/><circle cx="604.9" cy="175.7" r="2" fill="#AA3377"/><circle cx="623.5" cy="172.5" r="2" fill="#AA3377"/><circle cx="642.1" cy="167.0" r="2" fill="#AA3377"/><circle cx="660.8" cy="166.5" r="2" fill="#AA3377"/><circle cx="679.4" cy="167.5" r="2" fill="#AA3377"/><circle cx="698.1" cy="166.8" r="2" fill="#AA3377"/><circle cx="716.8" cy="166.2" r="2" fill="#AA3377"/><circle cx="735.4" cy="166.5" r="2" fill="#AA3377"/><circle cx="754.1" cy="166.8" r="2" fill="#AA3377"/><circle cx="772.7" cy="172.5" r="2" fill="#AA3377"/><circle cx="791.4" cy="165.7" r="2" fill="#AA3377"/><circle cx="810.0" cy="166.2" r="2" fill="#AA3377"/><rect x="820" y="109" width="10" height="10" fill="#AA3377"/><text x="834" y="118" font-size="10" fill="#444">dense-50</text><path d="M101.3,324.0 L138.6,324.0 L194.5,324.0 L418.3,324.0 L511.6,252.5 L530.3,252.5 L548.9,252.5 L567.5,252.5 L586.2,252.5 L604.9,252.5 L623.5,252.5 L642.1,252.5 L660.8,252.5 L679.4,255.4 L698.1,252.5 L716.8,252.5 L735.4,252.5 L754.1,252.5 L772.7,252.5 L791.4,252.5 L810.0,252.5" fill="none" stroke="#BBBBBB" stroke-width="1.6"/><circle cx="101.3" cy="324.0" r="2" fill="#BBBBBB"/><circle cx="138.6" cy="324.0" r="2" fill="#BBBBBB"/><circle cx="194.5" cy="324.0" r="2" fill="#BBBBBB"/><circle cx="418.3" cy="324.0" r="2" fill="#BBBBBB"/><circle cx="511.6" cy="252.5" r="2" fill="#BBBBBB"/><circle cx="530.3" cy="252.5" r="2" fill="#BBBBBB"/><circle cx="548.9" cy="252.5" r="2" fill="#BBBBBB"/><circle cx="567.5" cy="252.5" r="2" fill="#BBBBBB"/><circle cx="586.2" cy="252.5" r="2" fill="#BBBBBB"/><circle cx="604.9" cy="252.5" r="2" fill="#BBBBBB"/><circle cx="623.5" cy="252.5" r="2" fill="#BBBBBB"/><circle cx="642.1" cy="252.5" r="2" fill="#BBBBBB"/><circle cx="660.8" cy="252.5" r="2" fill="#BBBBBB"/><circle cx="679.4" cy="255.4" r="2" fill="#BBBBBB"/><circle cx="698.1" cy="252.5" r="2" fill="#BBBBBB"/><circle cx="716.8" cy="252.5" r="2" fill="#BBBBBB"/><circle cx="735.4" cy="252.5" r="2" fill="#BBBBBB"/><circle cx="754.1" cy="252.5" r="2" fill="#BBBBBB"/><circle cx="772.7" cy="252.5" r="2" fill="#BBBBBB"/><circle cx="791.4" cy="252.5" r="2" fill="#BBBBBB"/><circle cx="810.0" cy="252.5" r="2" fill="#BBBBBB"/><rect x="820" y="124" width="10" height="10" fill="#BBBBBB"/><text x="834" y="133" font-size="10" fill="#444">dense-200</text><path d="M64.0,93.6 L82.7,96.7 L101.3,94.6 L119.9,92.0 L138.6,94.7 L157.3,96.0 L175.9,92.5 L194.5,93.9 L213.2,93.2 L231.8,93.5 L250.5,94.3 L269.1,93.2 L287.8,92.0 L306.5,94.8 L325.1,94.9 L343.8,98.7 L362.4,93.2 L381.1,91.2 L399.7,94.6 L418.3,94.8 L437.0,96.5 L455.7,95.3 L474.3,92.3 L492.9,165.7 L511.6,86.5 L530.3,85.3 L548.9,85.9 L567.5,86.3 L586.2,87.7 L604.9,86.0 L623.5,87.4 L642.1,82.6 L660.8,81.5 L679.4,82.6 L698.1,81.5 L716.8,82.2 L735.4,82.6 L754.1,83.0 L772.7,86.8 L791.4,81.3 L810.0,81.3" fill="none" stroke="#222255" stroke-width="1.6"/><circle cx="64.0" cy="93.6" r="2" fill="#222255"/><circle cx="82.7" cy="96.7" r="2" fill="#222255"/><circle cx="101.3" cy="94.6" r="2" fill="#222255"/><circle cx="119.9" cy="92.0" r="2" fill="#222255"/><circle cx="138.6" cy="94.7" r="2" fill="#222255"/><circle cx="157.3" cy="96.0" r="2" fill="#222255"/><circle cx="175.9" cy="92.5" r="2" fill="#222255"/><circle cx="194.5" cy="93.9" r="2" fill="#222255"/><circle cx="213.2" cy="93.2" r="2" fill="#222255"/><circle cx="231.8" cy="93.5" r="2" fill="#222255"/><circle cx="250.5" cy="94.3" r="2" fill="#222255"/><circle cx="269.1" cy="93.2" r="2" fill="#222255"/><circle cx="287.8" cy="92.0" r="2" fill="#222255"/><circle cx="306.5" cy="94.8" r="2" fill="#222255"/><circle cx="325.1" cy="94.9" r="2" fill="#222255"/><circle cx="343.8" cy="98.7" r="2" fill="#222255"/><circle cx="362.4" cy="93.2" r="2" fill="#222255"/><circle cx="381.1" cy="91.2" r="2" fill="#222255"/><circle cx="399.7" cy="94.6" r="2" fill="#222255"/><circle cx="418.3" cy="94.8" r="2" fill="#222255"/><circle cx="437.0" cy="96.5" r="2" fill="#222255"/><circle cx="455.7" cy="95.3" r="2" fill="#222255"/><circle cx="474.3" cy="92.3" r="2" fill="#222255"/><circle cx="492.9" cy="165.7" r="2" fill="#222255"/><circle cx="511.6" cy="86.5" r="2" fill="#222255"/><circle cx="530.3" cy="85.3" r="2" fill="#222255"/><circle cx="548.9" cy="85.9" r="2" fill="#222255"/><circle cx="567.5" cy="86.3" r="2" fill="#222255"/><circle cx="586.2" cy="87.7" r="2" fill="#222255"/><circle cx="604.9" cy="86.0" r="2" fill="#222255"/><circle cx="623.5" cy="87.4" r="2" fill="#222255"/><circle cx="642.1" cy="82.6" r="2" fill="#222255"/><circle cx="660.8" cy="81.5" r="2" fill="#222255"/><circle cx="679.4" cy="82.6" r="2" fill="#222255"/><circle cx="698.1" cy="81.5" r="2" fill="#222255"/><circle cx="716.8" cy="82.2" r="2" fill="#222255"/><circle cx="735.4" cy="82.6" r="2" fill="#222255"/><circle cx="754.1" cy="83.0" r="2" fill="#222255"/><circle cx="772.7" cy="86.8" r="2" fill="#222255"/><circle cx="791.4" cy="81.3" r="2" fill="#222255"/><circle cx="810.0" cy="81.3" r="2" fill="#222255"/><rect x="820" y="139" width="10" height="10" fill="#222255"/><text x="834" y="148" font-size="10" fill="#444">hub-50</text><path d="M64.0,134.0 L82.7,132.0 L101.3,131.8 L119.9,131.7 L138.6,132.7 L157.3,131.6 L175.9,131.2 L194.5,132.4 L213.2,130.8 L231.8,132.9 L250.5,131.2 L269.1,133.0 L287.8,132.5 L306.5,133.4 L325.1,133.6 L343.8,135.1 L362.4,131.3 L381.1,133.0 L399.7,132.9 L418.3,133.1 L437.0,132.7 L455.7,132.2 L474.3,131.9 L492.9,210.5 L511.6,123.8 L530.3,124.5 L548.9,124.9 L567.5,124.5 L586.2,122.8 L604.9,124.3 L623.5,123.9 L642.1,120.4 L660.8,119.2 L679.4,119.6 L698.1,118.9 L716.8,119.2 L735.4,119.7 L754.1,120.7 L772.7,124.4 L791.4,119.9 L810.0,120.1" fill="none" stroke="#225555" stroke-width="1.6"/><circle cx="64.0" cy="134.0" r="2" fill="#225555"/><circle cx="82.7" cy="132.0" r="2" fill="#225555"/><circle cx="101.3" cy="131.8" r="2" fill="#225555"/><circle cx="119.9" cy="131.7" r="2" fill="#225555"/><circle cx="138.6" cy="132.7" r="2" fill="#225555"/><circle cx="157.3" cy="131.6" r="2" fill="#225555"/><circle cx="175.9" cy="131.2" r="2" fill="#225555"/><circle cx="194.5" cy="132.4" r="2" fill="#225555"/><circle cx="213.2" cy="130.8" r="2" fill="#225555"/><circle cx="231.8" cy="132.9" r="2" fill="#225555"/><circle cx="250.5" cy="131.2" r="2" fill="#225555"/><circle cx="269.1" cy="133.0" r="2" fill="#225555"/><circle cx="287.8" cy="132.5" r="2" fill="#225555"/><circle cx="306.5" cy="133.4" r="2" fill="#225555"/><circle cx="325.1" cy="133.6" r="2" fill="#225555"/><circle cx="343.8" cy="135.1" r="2" fill="#225555"/><circle cx="362.4" cy="131.3" r="2" fill="#225555"/><circle cx="381.1" cy="133.0" r="2" fill="#225555"/><circle cx="399.7" cy="132.9" r="2" fill="#225555"/><circle cx="418.3" cy="133.1" r="2" fill="#225555"/><circle cx="437.0" cy="132.7" r="2" fill="#225555"/><circle cx="455.7" cy="132.2" r="2" fill="#225555"/><circle cx="474.3" cy="131.9" r="2" fill="#225555"/><circle cx="492.9" cy="210.5" r="2" fill="#225555"/><circle cx="511.6" cy="123.8" r="2" fill="#225555"/><circle cx="530.3" cy="124.5" r="2" fill="#225555"/><circle cx="548.9" cy="124.9" r="2" fill="#225555"/><circle cx="567.5" cy="124.5" r="2" fill="#225555"/><circle cx="586.2" cy="122.8" r="2" fill="#225555"/><circle cx="604.9" cy="124.3" r="2" fill="#225555"/><circle cx="623.5" cy="123.9" r="2" fill="#225555"/><circle cx="642.1" cy="120.4" r="2" fill="#225555"/><circle cx="660.8" cy="119.2" r="2" fill="#225555"/><circle cx="679.4" cy="119.6" r="2" fill="#225555"/><circle cx="698.1" cy="118.9" r="2" fill="#225555"/><circle cx="716.8" cy="119.2" r="2" fill="#225555"/><circle cx="735.4" cy="119.7" r="2" fill="#225555"/><circle cx="754.1" cy="120.7" r="2" fill="#225555"/><circle cx="772.7" cy="124.4" r="2" fill="#225555"/><circle cx="791.4" cy="119.9" r="2" fill="#225555"/><circle cx="810.0" cy="120.1" r="2" fill="#225555"/><rect x="820" y="154" width="10" height="10" fill="#225555"/><text x="834" y="163" font-size="10" fill="#444">hub-200</text><path d="M64.0,134.1 L82.7,133.7 L101.3,131.8 L119.9,132.0 L138.6,131.6 L157.3,133.3 L175.9,131.4 L194.5,132.3 L213.2,134.0 L231.8,133.2 L250.5,131.1 L269.1,132.2 L287.8,130.7 L306.5,133.4 L325.1,131.9 L343.8,135.5 L362.4,134.0 L381.1,131.2 L399.7,133.6 L418.3,132.4 L437.0,133.4 L455.7,135.2 L474.3,132.1 L492.9,211.8 L511.6,123.9 L530.3,124.4 L548.9,124.4 L567.5,124.7 L586.2,124.1 L604.9,124.4 L623.5,125.3 L642.1,120.5 L660.8,119.7 L679.4,119.5 L698.1,119.2 L716.8,119.1 L735.4,119.1 L754.1,120.4 L772.7,124.3 L791.4,119.7 L810.0,119.1" fill="none" stroke="#552222" stroke-width="1.6"/><circle cx="64.0" cy="134.1" r="2" fill="#552222"/><circle cx="82.7" cy="133.7" r="2" fill="#552222"/><circle cx="101.3" cy="131.8" r="2" fill="#552222"/><circle cx="119.9" cy="132.0" r="2" fill="#552222"/><circle cx="138.6" cy="131.6" r="2" fill="#552222"/><circle cx="157.3" cy="133.3" r="2" fill="#552222"/><circle cx="175.9" cy="131.4" r="2" fill="#552222"/><circle cx="194.5" cy="132.3" r="2" fill="#552222"/><circle cx="213.2" cy="134.0" r="2" fill="#552222"/><circle cx="231.8" cy="133.2" r="2" fill="#552222"/><circle cx="250.5" cy="131.1" r="2" fill="#552222"/><circle cx="269.1" cy="132.2" r="2" fill="#552222"/><circle cx="287.8" cy="130.7" r="2" fill="#552222"/><circle cx="306.5" cy="133.4" r="2" fill="#552222"/><circle cx="325.1" cy="131.9" r="2" fill="#552222"/><circle cx="343.8" cy="135.5" r="2" fill="#552222"/><circle cx="362.4" cy="134.0" r="2" fill="#552222"/><circle cx="381.1" cy="131.2" r="2" fill="#552222"/><circle cx="399.7" cy="133.6" r="2" fill="#552222"/><circle cx="418.3" cy="132.4" r="2" fill="#552222"/><circle cx="437.0" cy="133.4" r="2" fill="#552222"/><circle cx="455.7" cy="135.2" r="2" fill="#552222"/><circle cx="474.3" cy="132.1" r="2" fill="#552222"/><circle cx="492.9" cy="211.8" r="2" fill="#552222"/><circle cx="511.6" cy="123.9" r="2" fill="#552222"/><circle cx="530.3" cy="124.4" r="2" fill="#552222"/><circle cx="548.9" cy="124.4" r="2" fill="#552222"/><circle cx="567.5" cy="124.7" r="2" fill="#552222"/><circle cx="586.2" cy="124.1" r="2" fill="#552222"/><circle cx="604.9" cy="124.4" r="2" fill="#552222"/><circle cx="623.5" cy="125.3" r="2" fill="#552222"/><circle cx="642.1" cy="120.5" r="2" fill="#552222"/><circle cx="660.8" cy="119.7" r="2" fill="#552222"/><circle cx="679.4" cy="119.5" r="2" fill="#552222"/><circle cx="698.1" cy="119.2" r="2" fill="#552222"/><circle cx="716.8" cy="119.1" r="2" fill="#552222"/><circle cx="735.4" cy="119.1" r="2" fill="#552222"/><circle cx="754.1" cy="120.4" r="2" fill="#552222"/><circle cx="772.7" cy="124.3" r="2" fill="#552222"/><circle cx="791.4" cy="119.7" r="2" fill="#552222"/><circle cx="810.0" cy="119.1" r="2" fill="#552222"/><rect x="820" y="169" width="10" height="10" fill="#552222"/><text x="834" y="178" font-size="10" fill="#444">hooked-200</text><path d="M64.0,192.2 L82.7,190.2 L101.3,190.6 L119.9,192.2 L138.6,188.8 L157.3,194.3 L175.9,191.5 L194.5,191.0 L213.2,192.2 L231.8,190.9 L250.5,190.9 L269.1,192.2 L287.8,190.9 L306.5,193.6 L325.1,191.5 L343.8,192.9 L362.4,192.9 L381.1,192.2 L399.7,192.9 L418.3,191.2 L437.0,194.3 L455.7,194.3 L474.3,192.2 L492.9,247.3 L511.6,184.0 L530.3,182.5 L548.9,182.5 L567.5,183.5 L586.2,181.6 L604.9,183.0 L623.5,184.5 L642.1,176.1 L660.8,176.9 L679.4,177.1 L698.1,176.5 L716.8,176.5 L735.4,176.1 L754.1,178.1 L772.7,184.0 L791.4,176.9 L810.0,176.1" fill="none" stroke="#555522" stroke-width="1.6"/><circle cx="64.0" cy="192.2" r="2" fill="#555522"/><circle cx="82.7" cy="190.2" r="2" fill="#555522"/><circle cx="101.3" cy="190.6" r="2" fill="#555522"/><circle cx="119.9" cy="192.2" r="2" fill="#555522"/><circle cx="138.6" cy="188.8" r="2" fill="#555522"/><circle cx="157.3" cy="194.3" r="2" fill="#555522"/><circle cx="175.9" cy="191.5" r="2" fill="#555522"/><circle cx="194.5" cy="191.0" r="2" fill="#555522"/><circle cx="213.2" cy="192.2" r="2" fill="#555522"/><circle cx="231.8" cy="190.9" r="2" fill="#555522"/><circle cx="250.5" cy="190.9" r="2" fill="#555522"/><circle cx="269.1" cy="192.2" r="2" fill="#555522"/><circle cx="287.8" cy="190.9" r="2" fill="#555522"/><circle cx="306.5" cy="193.6" r="2" fill="#555522"/><circle cx="325.1" cy="191.5" r="2" fill="#555522"/><circle cx="343.8" cy="192.9" r="2" fill="#555522"/><circle cx="362.4" cy="192.9" r="2" fill="#555522"/><circle cx="381.1" cy="192.2" r="2" fill="#555522"/><circle cx="399.7" cy="192.9" r="2" fill="#555522"/><circle cx="418.3" cy="191.2" r="2" fill="#555522"/><circle cx="437.0" cy="194.3" r="2" fill="#555522"/><circle cx="455.7" cy="194.3" r="2" fill="#555522"/><circle cx="474.3" cy="192.2" r="2" fill="#555522"/><circle cx="492.9" cy="247.3" r="2" fill="#555522"/><circle cx="511.6" cy="184.0" r="2" fill="#555522"/><circle cx="530.3" cy="182.5" r="2" fill="#555522"/><circle cx="548.9" cy="182.5" r="2" fill="#555522"/><circle cx="567.5" cy="183.5" r="2" fill="#555522"/><circle cx="586.2" cy="181.6" r="2" fill="#555522"/><circle cx="604.9" cy="183.0" r="2" fill="#555522"/><circle cx="623.5" cy="184.5" r="2" fill="#555522"/><circle cx="642.1" cy="176.1" r="2" fill="#555522"/><circle cx="660.8" cy="176.9" r="2" fill="#555522"/><circle cx="679.4" cy="177.1" r="2" fill="#555522"/><circle cx="698.1" cy="176.5" r="2" fill="#555522"/><circle cx="716.8" cy="176.5" r="2" fill="#555522"/><circle cx="735.4" cy="176.1" r="2" fill="#555522"/><circle cx="754.1" cy="178.1" r="2" fill="#555522"/><circle cx="772.7" cy="184.0" r="2" fill="#555522"/><circle cx="791.4" cy="176.9" r="2" fill="#555522"/><circle cx="810.0" cy="176.1" r="2" fill="#555522"/><rect x="820" y="184" width="10" height="10" fill="#555522"/><text x="834" y="193" font-size="10" fill="#444">messy-1000</text><path d="M64.0,247.3 L82.7,247.3 L101.3,247.8 L119.9,247.3 L138.6,245.9 L157.3,247.3 L175.9,247.3 L194.5,245.9 L213.2,247.3 L231.8,247.3 L250.5,247.3 L269.1,247.3 L287.8,247.3 L306.5,247.3 L325.1,247.3 L343.8,247.3 L362.4,247.3 L381.1,247.3 L399.7,247.3 L418.3,247.3 L437.0,247.3 L455.7,247.3 L474.3,247.3 L492.9,298.0 L511.6,230.1 L530.3,230.1 L548.9,230.1 L567.5,230.1 L586.2,230.1 L604.9,230.1 L623.5,230.1 L642.1,227.7 L660.8,227.7 L679.4,227.0 L698.1,225.4 L716.8,227.7 L735.4,225.4 L754.1,227.7 L772.7,232.8 L791.4,227.7 L810.0,227.7" fill="none" stroke="#8855AA" stroke-width="1.6"/><circle cx="64.0" cy="247.3" r="2" fill="#8855AA"/><circle cx="82.7" cy="247.3" r="2" fill="#8855AA"/><circle cx="101.3" cy="247.8" r="2" fill="#8855AA"/><circle cx="119.9" cy="247.3" r="2" fill="#8855AA"/><circle cx="138.6" cy="245.9" r="2" fill="#8855AA"/><circle cx="157.3" cy="247.3" r="2" fill="#8855AA"/><circle cx="175.9" cy="247.3" r="2" fill="#8855AA"/><circle cx="194.5" cy="245.9" r="2" fill="#8855AA"/><circle cx="213.2" cy="247.3" r="2" fill="#8855AA"/><circle cx="231.8" cy="247.3" r="2" fill="#8855AA"/><circle cx="250.5" cy="247.3" r="2" fill="#8855AA"/><circle cx="269.1" cy="247.3" r="2" fill="#8855AA"/><circle cx="287.8" cy="247.3" r="2" fill="#8855AA"/><circle cx="306.5" cy="247.3" r="2" fill="#8855AA"/><circle cx="325.1" cy="247.3" r="2" fill="#8855AA"/><circle cx="343.8" cy="247.3" r="2" fill="#8855AA"/><circle cx="362.4" cy="247.3" r="2" fill="#8855AA"/><circle cx="381.1" cy="247.3" r="2" fill="#8855AA"/><circle cx="399.7" cy="247.3" r="2" fill="#8855AA"/><circle cx="418.3" cy="247.3" r="2" fill="#8855AA"/><circle cx="437.0" cy="247.3" r="2" fill="#8855AA"/><circle cx="455.7" cy="247.3" r="2" fill="#8855AA"/><circle cx="474.3" cy="247.3" r="2" fill="#8855AA"/><circle cx="492.9" cy="298.0" r="2" fill="#8855AA"/><circle cx="511.6" cy="230.1" r="2" fill="#8855AA"/><circle cx="530.3" cy="230.1" r="2" fill="#8855AA"/><circle cx="548.9" cy="230.1" r="2" fill="#8855AA"/><circle cx="567.5" cy="230.1" r="2" fill="#8855AA"/><circle cx="586.2" cy="230.1" r="2" fill="#8855AA"/><circle cx="604.9" cy="230.1" r="2" fill="#8855AA"/><circle cx="623.5" cy="230.1" r="2" fill="#8855AA"/><circle cx="642.1" cy="227.7" r="2" fill="#8855AA"/><circle cx="660.8" cy="227.7" r="2" fill="#8855AA"/><circle cx="679.4" cy="227.0" r="2" fill="#8855AA"/><circle cx="698.1" cy="225.4" r="2" fill="#8855AA"/><circle cx="716.8" cy="227.7" r="2" fill="#8855AA"/><circle cx="735.4" cy="225.4" r="2" fill="#8855AA"/><circle cx="754.1" cy="227.7" r="2" fill="#8855AA"/><circle cx="772.7" cy="232.8" r="2" fill="#8855AA"/><circle cx="791.4" cy="227.7" r="2" fill="#8855AA"/><circle cx="810.0" cy="227.7" r="2" fill="#8855AA"/><rect x="820" y="199" width="10" height="10" fill="#8855AA"/><text x="834" y="208" font-size="10" fill="#444">messy-5000</text></svg>