<svg width="960" height="372" xmlns="http://www.w3.org/2000/svg"><rect width="960" height="372" fill="#ffffff"/><text x="64" y="20" font-size="15" font-weight="bold" fill="#333">edges_between() — ops/sec (log scale) by PR / release, c7g.medium</text><line x1="64" y1="297.3805218920668" x2="810" y2="297.3805218920668" stroke="#eee"/><text x="58" y="301.3805218920668" font-size="10" text-anchor="end" fill="#888">1e2</text><line x1="64" y1="218.44769376839338" x2="810" y2="218.44769376839338" stroke="#eee"/><text x="58" y="222.44769376839338" font-size="10" text-anchor="end" fill="#888">1e3</text><line x1="64" y1="139.51486564472" x2="810" y2="139.51486564472" stroke="#eee"/><text x="58" y="143.51486564472" font-size="10" text-anchor="end" fill="#888">1e4</text><line x1="64" y1="60.58203752104663" x2="810" y2="60.58203752104663" stroke="#eee"/><text x="58" y="64.58203752104663" font-size="10" text-anchor="end" fill="#888">1e5</text><line x1="64.0" y1="34" x2="64.0" y2="324" stroke="#f4f4f4"/><line x1="82.7" y1="34" x2="82.7" y2="324" stroke="#f4f4f4"/><line x1="101.3" y1="34" x2="101.3" y2="324" stroke="#f4f4f4"/><line x1="119.9" y1="34" x2="119.9" y2="324" stroke="#f4f4f4"/><line x1="138.6" y1="34" x2="138.6" y2="324" stroke="#f4f4f4"/><line x1="157.3" y1="34" x2="157.3" y2="324" stroke="#f4f4f4"/><line x1="175.9" y1="34" x2="175.9" y2="324" stroke="#f4f4f4"/><line x1="194.5" y1="34" x2="194.5" y2="324" stroke="#f4f4f4"/><line x1="213.2" y1="34" x2="213.2" y2="324" stroke="#f4f4f4"/><line x1="231.8" y1="34" x2="231.8" y2="324" stroke="#f4f4f4"/><line x1="250.5" y1="34" x2="250.5" y2="324" stroke="#f4f4f4"/><line x1="269.1" y1="34" x2="269.1" y2="324" stroke="#f4f4f4"/><line x1="287.8" y1="34" x2="287.8" y2="324" stroke="#f4f4f4"/><line x1="306.5" y1="34" x2="306.5" y2="324" stroke="#f4f4f4"/><line x1="325.1" y1="34" x2="325.1" y2="324" stroke="#f4f4f4"/><line x1="343.8" y1="34" x2="343.8" y2="324" stroke="#f4f4f4"/><line x1="362.4" y1="34" x2="362.4" y2="324" stroke="#f4f4f4"/><line x1="381.1" y1="34" x2="381.1" y2="324" stroke="#f4f4f4"/><line x1="399.7" y1="34" x2="399.7" y2="324" stroke="#f4f4f4"/><line x1="418.3" y1="34" x2="418.3" y2="324" stroke="#f4f4f4"/><line x1="437.0" y1="34" x2="437.0" y2="324" stroke="#f4f4f4"/><line x1="455.7" y1="34" x2="455.7" y2="324" stroke="#f4f4f4"/><line x1="474.3" y1="34" x2="474.3" y2="324" stroke="#f4f4f4"/><line x1="492.9" y1="34" x2="492.9" y2="324" stroke="#f4f4f4"/><line x1="511.6" y1="34" x2="511.6" y2="324" stroke="#f4f4f4"/><line x1="530.3" y1="34" x2="530.3" y2="324" stroke="#f4f4f4"/><line x1="548.9" y1="34" x2="548.9" y2="324" stroke="#f4f4f4"/><line x1="567.5" y1="34" x2="567.5" y2="324" stroke="#f4f4f4"/><line x1="586.2" y1="34" x2="586.2" y2="324" stroke="#f4f4f4"/><line x1="604.9" y1="34" x2="604.9" y2="324" stroke="#f4f4f4"/><line x1="623.5" y1="34" x2="623.5" y2="324" stroke="#f4f4f4"/><line x1="642.1" y1="34" x2="642.1" y2="324" stroke="#f4f4f4"/><line x1="660.8" y1="34" x2="660.8" y2="324" stroke="#f4f4f4"/><line x1="679.4" y1="34" x2="679.4" y2="324" stroke="#f4f4f4"/><line x1="698.1" y1="34" x2="698.1" y2="324" stroke="#f4f4f4"/><line x1="716.8" y1="34" x2="716.8" y2="324" stroke="#f4f4f4"/><line x1="735.4" y1="34" x2="735.4" y2="324" stroke="#f4f4f4"/><line x1="754.1" y1="34" x2="754.1" y2="324" stroke="#f4f4f4"/><line x1="772.7" y1="34" x2="772.7" y2="324" stroke="#f4f4f4"/><line x1="791.4" y1="34" x2="791.4" y2="324" stroke="#f4f4f4"/><line x1="810.0" y1="34" x2="810.0" y2="324" stroke="#f4f4f4"/><text x="64.0" y="340" font-size="9" text-anchor="middle" fill="#888">598</text><text x="101.3" y="340" font-size="9" text-anchor="middle" fill="#888">600</text><text x="138.6" y="340" font-size="9" text-anchor="middle" fill="#888">602</text><text x="175.9" y="340" font-size="9" text-anchor="middle" fill="#888">604</text><text x="213.2" y="340" font-size="9" text-anchor="middle" fill="#888">611</text><text x="250.5" y="340" font-size="9" text-anchor="middle" fill="#888">616</text><text x="287.8" y="340" font-size="9" text-anchor="middle" fill="#888">618</text><text x="325.1" y="340" font-size="9" text-anchor="middle" fill="#888">634</text><text x="362.4" y="340" font-size="9" text-anchor="middle" fill="#888">649</text><text x="399.7" y="340" font-size="9" text-anchor="middle" fill="#888">674</text><text x="437.0" y="340" font-size="9" text-anchor="middle" fill="#888">679</text><text x="474.3" y="340" font-size="9" text-anchor="middle" fill="#888">681</text><text x="511.6" y="340" font-size="9" text-anchor="end" fill="#a40" transform="rotate(-35 511.6 340)">v5.143.30</text><text x="548.9" y="340" font-size="9" text-anchor="end" fill="#a40" transform="rotate(-35 548.9 340)">v5.143.33</text><text x="586.2" y="340" font-size="9" text-anchor="end" fill="#a40" transform="rotate(-35 586.2 340)">v5.143.35</text><text x="623.5" y="340" font-size="9" text-anchor="end" fill="#a40" transform="rotate(-35 623.5 340)">v5.144.1</text><text x="660.8" y="340" font-size="9" text-anchor="end" fill="#a40" transform="rotate(-35 660.8 340)">v5.144.3</text><text x="698.1" y="340" font-size="9" text-anchor="end" fill="#a40" transform="rotate(-35 698.1 340)">v5.144.5</text><text x="735.4" y="340" font-size="9" text-anchor="end" fill="#a40" transform="rotate(-35 735.4 340)">v5.144.8</text><text x="772.7" y="340" font-size="9" text-anchor="end" fill="#a40" transform="rotate(-35 772.7 340)">v5.145.1</text><text x="810.0" y="340" font-size="9" text-anchor="end" fill="#a40" transform="rotate(-35 810.0 340)">v5.145.3</text><path d="M64.0,62.0 L82.7,61.9 L101.3,61.5 L119.9,61.9 L138.6,62.4 L157.3,63.0 L175.9,61.7 L194.5,61.8 L213.2,62.4 L231.8,62.3 L250.5,62.1 L269.1,62.2 L287.8,61.6 L306.5,62.0 L325.1,62.4 L343.8,38.2 L362.4,34.0 L381.1,36.4 L399.7,37.8 L418.3,34.8 L437.0,37.2 L455.7,35.3 L474.3,36.1 L492.9,42.4 L511.6,43.9 L530.3,46.8 L548.9,42.3 L567.5,45.6 L586.2,44.7 L604.9,42.7 L623.5,42.8 L642.1,43.4 L660.8,42.3 L679.4,42.2 L698.1,41.6 L716.8,44.4 L735.4,40.9 L754.1,44.1 L772.7,41.7 L791.4,41.6 L810.0,41.3" fill="none" stroke="#4477AA" stroke-width="1.6"/><circle cx="64.0" cy="62.0" r="2" fill="#4477AA"/><circle cx="82.7" cy="61.9" r="2" fill="#4477AA"/><circle cx="101.3" cy="61.5" r="2" fill="#4477AA"/><circle cx="119.9" cy="61.9" r="2" fill="#4477AA"/><circle cx="138.6" cy="62.4" r="2" fill="#4477AA"/><circle cx="157.3" cy="63.0" r="2" fill="#4477AA"/><circle cx="175.9" cy="61.7" r="2" fill="#4477AA"/><circle cx="194.5" cy="61.8" r="2" fill="#4477AA"/><circle cx="213.2" cy="62.4" r="2" fill="#4477AA"/><circle cx="231.8" cy="62.3" r="2" fill="#4477AA"/><circle cx="250.5" cy="62.1" r="2" fill="#4477AA"/><circle cx="269.1" cy="62.2" r="2" fill="#4477AA"/><circle cx="287.8" cy="61.6" r="2" fill="#4477AA"/><circle cx="306.5" cy="62.0" r="2" fill="#4477AA"/><circle cx="325.1" cy="62.4" r="2" fill="#4477AA"/><circle cx="343.8" cy="38.2" r="2" fill="#4477AA"/><circle cx="362.4" cy="34.0" r="2" fill="#4477AA"/><circle cx="381.1" cy="36.4" r="2" fill="#4477AA"/><circle cx="399.7" cy="37.8" r="2" fill="#4477AA"/><circle cx="418.3" cy="34.8" r="2" fill="#4477AA"/><circle cx="437.0" cy="37.2" r="2" fill="#4477AA"/><circle cx="455.7" cy="35.3" r="2" fill="#4477AA"/><circle cx="474.3" cy="36.1" r="2" fill="#4477AA"/><circle cx="492.9" cy="42.4" r="2" fill="#4477AA"/><circle cx="511.6" cy="43.9" r="2" fill="#4477AA"/><circle cx="530.3" cy="46.8" r="2" fill="#4477AA"/><circle cx="548.9" cy="42.3" r="2" fill="#4477AA"/><circle cx="567.5" cy="45.6" r="2" fill="#4477AA"/><circle cx="586.2" cy="44.7" r="2" fill="#4477AA"/><circle cx="604.9" cy="42.7" r="2" fill="#4477AA"/><circle cx="623.5" cy="42.8" r="2" fill="#4477AA"/><circle cx="642.1" cy="43.4" r="2" fill="#4477AA"/><circle cx="660.8" cy="42.3" r="2" fill="#4477AA"/><circle cx="679.4" cy="42.2" r="2" fill="#4477AA"/><circle cx="698.1" cy="41.6" r="2" fill="#4477AA"/><circle cx="716.8" cy="44.4" r="2" fill="#4477AA"/><circle cx="735.4" cy="40.9" r="2" fill="#4477AA"/><circle cx="754.1" cy="44.1" r="2" fill="#4477AA"/><circle cx="772.7" cy="41.7" r="2" fill="#4477AA"/><circle cx="791.4" cy="41.6" r="2" fill="#4477AA"/><circle cx="810.0" cy="41.3" r="2" fill="#4477AA"/><rect x="820" y="34" width="10" height="10" fill="#4477AA"/><text x="834" y="43" font-size="10" fill="#444">chain-10</text><path d="M64.0,95.2 L82.7,95.3 L101.3,95.3 L119.9,95.3 L138.6,94.9 L157.3,95.1 L175.9,95.1 L194.5,95.2 L213.2,95.3 L231.8,95.4 L250.5,95.7 L269.1,95.2 L287.8,95.0 L306.5,95.1 L325.1,95.1 L343.8,38.9 L362.4,41.1 L381.1,41.3 L399.7,41.4 L418.3,40.1 L437.0,39.3 L455.7,40.2 L474.3,38.8 L492.9,40.2 L511.6,47.0 L530.3,46.7 L548.9,46.1 L567.5,45.1 L586.2,46.5 L604.9,46.2 L623.5,45.4 L642.1,47.7 L660.8,47.7 L679.4,45.4 L698.1,46.5 L716.8,47.5 L735.4,45.5 L754.1,47.0 L772.7,46.2 L791.4,46.7 L810.0,46.6" fill="none" stroke="#EE6677" stroke-width="1.6"/><circle cx="64.0" cy="95.2" r="2" fill="#EE6677"/><circle cx="82.7" cy="95.3" r="2" fill="#EE6677"/><circle cx="101.3" cy="95.3" r="2" fill="#EE6677"/><circle cx="119.9" cy="95.3" r="2" fill="#EE6677"/><circle cx="138.6" cy="94.9" r="2" fill="#EE6677"/><circle cx="157.3" cy="95.1" r="2" fill="#EE6677"/><circle cx="175.9" cy="95.1" r="2" fill="#EE6677"/><circle cx="194.5" cy="95.2" r="2" fill="#EE6677"/><circle cx="213.2" cy="95.3" r="2" fill="#EE6677"/><circle cx="231.8" cy="95.4" r="2" fill="#EE6677"/><circle cx="250.5" cy="95.7" r="2" fill="#EE6677"/><circle cx="269.1" cy="95.2" r="2" fill="#EE6677"/><circle cx="287.8" cy="95.0" r="2" fill="#EE6677"/><circle cx="306.5" cy="95.1" r="2" fill="#EE6677"/><circle cx="325.1" cy="95.1" r="2" fill="#EE6677"/><circle cx="343.8" cy="38.9" r="2" fill="#EE6677"/><circle cx="362.4" cy="41.1" r="2" fill="#EE6677"/><circle cx="381.1" cy="41.3" r="2" fill="#EE6677"/><circle cx="399.7" cy="41.4" r="2" fill="#EE6677"/><circle cx="418.3" cy="40.1" r="2" fill="#EE6677"/><circle cx="437.0" cy="39.3" r="2" fill="#EE6677"/><circle cx="455.7" cy="40.2" r="2" fill="#EE6677"/><circle cx="474.3" cy="38.8" r="2" fill="#EE6677"/><circle cx="492.9" cy="40.2" r="2" fill="#EE6677"/><circle cx="511.6" cy="47.0" r="2" fill="#EE6677"/><circle cx="530.3" cy="46.7" r="2" fill="#EE6677"/><circle cx="548.9" cy="46.1" r="2" fill="#EE6677"/><circle cx="567.5" cy="45.1" r="2" fill="#EE6677"/><circle cx="586.2" cy="46.5" r="2" fill="#EE6677"/><circle cx="604.9" cy="46.2" r="2" fill="#EE6677"/><circle cx="623.5" cy="45.4" r="2" fill="#EE6677"/><circle cx="642.1" cy="47.7" r="2" fill="#EE6677"/><circle cx="660.8" cy="47.7" r="2" fill="#EE6677"/><circle cx="679.4" cy="45.4" r="2" fill="#EE6677"/><circle cx="698.1" cy="46.5" r="2" fill="#EE6677"/><circle cx="716.8" cy="47.5" r="2" fill="#EE6677"/><circle cx="735.4" cy="45.5" r="2" fill="#EE6677"/><circle cx="754.1" cy="47.0" r="2" fill="#EE6677"/><circle cx="772.7" cy="46.2" r="2" fill="#EE6677"/><circle cx="791.4" cy="46.7" r="2" fill="#EE6677"/><circle cx="810.0" cy="46.6" r="2" fill="#EE6677"/><rect x="820" y="49" width="10" height="10" fill="#EE6677"/><text x="834" y="58" font-size="10" fill="#444">chain-50</text><path d="M64.0,132.3 L82.7,132.3 L101.3,132.2 L119.9,132.3 L138.6,132.6 L157.3,132.2 L175.9,132.2 L194.5,132.2 L213.2,132.7 L231.8,132.2 L250.5,132.2 L269.1,132.2 L287.8,132.1 L306.5,132.7 L325.1,132.2 L343.8,44.7 L362.4,43.2 L381.1,44.9 L399.7,43.8 L418.3,43.5 L437.0,44.0 L455.7,44.0 L474.3,44.5 L492.9,44.3 L511.6,52.7 L530.3,51.8 L548.9,51.9 L567.5,51.6 L586.2,51.3 L604.9,51.2 L623.5,51.4 L642.1,52.7 L660.8,51.2 L679.4,52.7 L698.1,51.4 L716.8,51.5 L735.4,51.8 L754.1,51.8 L772.7,53.9 L791.4,52.3 L810.0,51.3" fill="none" stroke="#228833" stroke-width="1.6"/><circle cx="64.0" cy="132.3" r="2" fill="#228833"/><circle cx="82.7" cy="132.3" r="2" fill="#228833"/><circle cx="101.3" cy="132.2" r="2" fill="#228833"/><circle cx="119.9" cy="132.3" r="2" fill="#228833"/><circle cx="138.6" cy="132.6" r="2" fill="#228833"/><circle cx="157.3" cy="132.2" r="2" fill="#228833"/><circle cx="175.9" cy="132.2" r="2" fill="#228833"/><circle cx="194.5" cy="132.2" r="2" fill="#228833"/><circle cx="213.2" cy="132.7" r="2" fill="#228833"/><circle cx="231.8" cy="132.2" r="2" fill="#228833"/><circle cx="250.5" cy="132.2" r="2" fill="#228833"/><circle cx="269.1" cy="132.2" r="2" fill="#228833"/><circle cx="287.8" cy="132.1" r="2" fill="#228833"/><circle cx="306.5" cy="132.7" r="2" fill="#228833"/><circle cx="325.1" cy="132.2" r="2" fill="#228833"/><circle cx="343.8" cy="44.7" r="2" fill="#228833"/><circle cx="362.4" cy="43.2" r="2" fill="#228833"/><circle cx="381.1" cy="44.9" r="2" fill="#228833"/><circle cx="399.7" cy="43.8" r="2" fill="#228833"/><circle cx="418.3" cy="43.5" r="2" fill="#228833"/><circle cx="437.0" cy="44.0" r="2" fill="#228833"/><circle cx="455.7" cy="44.0" r="2" fill="#228833"/><circle cx="474.3" cy="44.5" r="2" fill="#228833"/><circle cx="492.9" cy="44.3" r="2" fill="#228833"/><circle cx="511.6" cy="52.7" r="2" fill="#228833"/><circle cx="530.3" cy="51.8" r="2" fill="#228833"/><circle cx="548.9" cy="51.9" r="2" fill="#228833"/><circle cx="567.5" cy="51.6" r="2" fill="#228833"/><circle cx="586.2" cy="51.3" r="2" fill="#228833"/><circle cx="604.9" cy="51.2" r="2" fill="#228833"/><circle cx="623.5" cy="51.4" r="2" fill="#228833"/><circle cx="642.1" cy="52.7" r="2" fill="#228833"/><circle cx="660.8" cy="51.2" r="2" fill="#228833"/><circle cx="679.4" cy="52.7" r="2" fill="#228833"/><circle cx="698.1" cy="51.4" r="2" fill="#228833"/><circle cx="716.8" cy="51.5" r="2" fill="#228833"/><circle cx="735.4" cy="51.8" r="2" fill="#228833"/><circle cx="754.1" cy="51.8" r="2" fill="#228833"/><circle cx="772.7" cy="53.9" r="2" fill="#228833"/><circle cx="791.4" cy="52.3" r="2" fill="#228833"/><circle cx="810.0" cy="51.3" r="2" fill="#228833"/><rect x="820" y="64" width="10" height="10" fill="#228833"/><text x="834" y="73" font-size="10" fill="#444">chain-200</text><path d="M64.0,178.4 L82.7,178.3 L101.3,178.4 L119.9,178.5 L138.6,178.1 L157.3,178.3 L175.9,179.2 L194.5,178.6 L213.2,178.3 L231.8,178.5 L250.5,178.4 L269.1,178.5 L287.8,178.3 L306.5,178.1 L325.1,179.1 L343.8,49.8 L362.4,49.7 L381.1,50.2 L399.7,49.5 L418.3,47.4 L437.0,48.3 L455.7,49.3 L474.3,50.2 L492.9,49.3 L511.6,55.9 L530.3,54.2 L548.9,53.6 L567.5,54.9 L586.2,55.6 L604.9,54.8 L623.5,56.0 L642.1,55.5 L660.8,56.9 L679.4,57.3 L698.1,55.7 L716.8,56.0 L735.4,55.7 L754.1,56.5 L772.7,57.4 L791.4,56.2 L810.0,55.4" fill="none" stroke="#CCBB44" stroke-width="1.6"/><circle cx="64.0" cy="178.4" r="2" fill="#CCBB44"/><circle cx="82.7" cy="178.3" r="2" fill="#CCBB44"/><circle cx="101.3" cy="178.4" r="2" fill="#CCBB44"/><circle cx="119.9" cy="178.5" r="2" fill="#CCBB44"/><circle cx="138.6" cy="178.1" r="2" fill="#CCBB44"/><circle cx="157.3" cy="178.3" r="2" fill="#CCBB44"/><circle cx="175.9" cy="179.2" r="2" fill="#CCBB44"/><circle cx="194.5" cy="178.6" r="2" fill="#CCBB44"/><circle cx="213.2" cy="178.3" r="2" fill="#CCBB44"/><circle cx="231.8" cy="178.5" r="2" fill="#CCBB44"/><circle cx="250.5" cy="178.4" r="2" fill="#CCBB44"/><circle cx="269.1" cy="178.5" r="2" fill="#CCBB44"/><circle cx="287.8" cy="178.3" r="2" fill="#CCBB44"/><circle cx="306.5" cy="178.1" r="2" fill="#CCBB44"/><circle cx="325.1" cy="179.1" r="2" fill="#CCBB44"/><circle cx="343.8" cy="49.8" r="2" fill="#CCBB44"/><circle cx="362.4" cy="49.7" r="2" fill="#CCBB44"/><circle cx="381.1" cy="50.2" r="2" fill="#CCBB44"/><circle cx="399.7" cy="49.5" r="2" fill="#CCBB44"/><circle cx="418.3" cy="47.4" r="2" fill="#CCBB44"/><circle cx="437.0" cy="48.3" r="2" fill="#CCBB44"/><circle cx="455.7" cy="49.3" r="2" fill="#CCBB44"/><circle cx="474.3" cy="50.2" r="2" fill="#CCBB44"/><circle cx="492.9" cy="49.3" r="2" fill="#CCBB44"/><circle cx="511.6" cy="55.9" r="2" fill="#CCBB44"/><circle cx="530.3" cy="54.2" r="2" fill="#CCBB44"/><circle cx="548.9" cy="53.6" r="2" fill="#CCBB44"/><circle cx="567.5" cy="54.9" r="2" fill="#CCBB44"/><circle cx="586.2" cy="55.6" r="2" fill="#CCBB44"/><circle cx="604.9" cy="54.8" r="2" fill="#CCBB44"/><circle cx="623.5" cy="56.0" r="2" fill="#CCBB44"/><circle cx="642.1" cy="55.5" r="2" fill="#CCBB44"/><circle cx="660.8" cy="56.9" r="2" fill="#CCBB44"/><circle cx="679.4" cy="57.3" r="2" fill="#CCBB44"/><circle cx="698.1" cy="55.7" r="2" fill="#CCBB44"/><circle cx="716.8" cy="56.0" r="2" fill="#CCBB44"/><circle cx="735.4" cy="55.7" r="2" fill="#CCBB44"/><circle cx="754.1" cy="56.5" r="2" fill="#CCBB44"/><circle cx="772.7" cy="57.4" r="2" fill="#CCBB44"/><circle cx="791.4" cy="56.2" r="2" fill="#CCBB44"/><circle cx="810.0" cy="55.4" r="2" fill="#CCBB44"/><rect x="820" y="79" width="10" height="10" fill="#CCBB44"/><text x="834" y="88" font-size="10" fill="#444">chain-1000</text><path d="M64.0,122.6 L82.7,122.7 L101.3,122.6 L119.9,122.8 L138.6,122.6 L157.3,122.6 L175.9,122.7 L194.5,122.8 L213.2,122.7 L231.8,122.7 L250.5,122.7 L269.1,122.7 L287.8,123.1 L306.5,122.7 L325.1,122.6 L343.8,70.0 L362.4,68.4 L381.1,69.6 L399.7,70.0 L418.3,68.5 L437.0,69.5 L455.7,70.3 L474.3,69.5 L492.9,69.4 L511.6,81.8 L530.3,82.6 L548.9,81.1 L567.5,82.0 L586.2,81.9 L604.9,81.8 L623.5,81.4 L642.1,82.3 L660.8,83.5 L679.4,83.7 L698.1,83.9 L716.8,84.4 L735.4,84.0 L754.1,85.6 L772.7,81.5 L791.4,81.7 L810.0,81.2" fill="none" stroke="#66CCEE" stroke-width="1.6"/><circle cx="64.0" cy="122.6" r="2" fill="#66CCEE"/><circle cx="82.7" cy="122.7" r="2" fill="#66CCEE"/><circle cx="101.3" cy="122.6" r="2" fill="#66CCEE"/><circle cx="119.9" cy="122.8" r="2" fill="#66CCEE"/><circle cx="138.6" cy="122.6" r="2" fill="#66CCEE"/><circle cx="157.3" cy="122.6" r="2" fill="#66CCEE"/><circle cx="175.9" cy="122.7" r="2" fill="#66CCEE"/><circle cx="194.5" cy="122.8" r="2" fill="#66CCEE"/><circle cx="213.2" cy="122.7" r="2" fill="#66CCEE"/><circle cx="231.8" cy="122.7" r="2" fill="#66CCEE"/><circle cx="250.5" cy="122.7" r="2" fill="#66CCEE"/><circle cx="269.1" cy="122.7" r="2" fill="#66CCEE"/><circle cx="287.8" cy="123.1" r="2" fill="#66CCEE"/><circle cx="306.5" cy="122.7" r="2" fill="#66CCEE"/><circle cx="325.1" cy="122.6" r="2" fill="#66CCEE"/><circle cx="343.8" cy="70.0" r="2" fill="#66CCEE"/><circle cx="362.4" cy="68.4" r="2" fill="#66CCEE"/><circle cx="381.1" cy="69.6" r="2" fill="#66CCEE"/><circle cx="399.7" cy="70.0" r="2" fill="#66CCEE"/><circle cx="418.3" cy="68.5" r="2" fill="#66CCEE"/><circle cx="437.0" cy="69.5" r="2" fill="#66CCEE"/><circle cx="455.7" cy="70.3" r="2" fill="#66CCEE"/><circle cx="474.3" cy="69.5" r="2" fill="#66CCEE"/><circle cx="492.9" cy="69.4" r="2" fill="#66CCEE"/><circle cx="511.6" cy="81.8" r="2" fill="#66CCEE"/><circle cx="530.3" cy="82.6" r="2" fill="#66CCEE"/><circle cx="548.9" cy="81.1" r="2" fill="#66CCEE"/><circle cx="567.5" cy="82.0" r="2" fill="#66CCEE"/><circle cx="586.2" cy="81.9" r="2" fill="#66CCEE"/><circle cx="604.9" cy="81.8" r="2" fill="#66CCEE"/><circle cx="623.5" cy="81.4" r="2" fill="#66CCEE"/><circle cx="642.1" cy="82.3" r="2" fill="#66CCEE"/><circle cx="660.8" cy="83.5" r="2" fill="#66CCEE"/><circle cx="679.4" cy="83.7" r="2" fill="#66CCEE"/><circle cx="698.1" cy="83.9" r="2" fill="#66CCEE"/><circle cx="716.8" cy="84.4" r="2" fill="#66CCEE"/><circle cx="735.4" cy="84.0" r="2" fill="#66CCEE"/><circle cx="754.1" cy="85.6" r="2" fill="#66CCEE"/><circle cx="772.7" cy="81.5" r="2" fill="#66CCEE"/><circle cx="791.4" cy="81.7" r="2" fill="#66CCEE"/><circle cx="810.0" cy="81.2" r="2" fill="#66CCEE"/><rect x="820" y="94" width="10" height="10" fill="#66CCEE"/><text x="834" y="103" font-size="10" fill="#444">dense-10</text><path d="M64.0,227.6 L82.7,227.1 L101.3,227.3 L119.9,227.4 L138.6,227.2 L157.3,227.2 L175.9,227.3 L194.5,227.2 L213.2,227.4 L231.8,227.6 L250.5,227.1 L269.1,227.2 L287.8,227.4 L306.5,227.1 L325.1,227.3 L343.8,108.9 L362.4,108.7 L381.1,108.6 L399.7,108.7 L418.3,108.2 L437.0,108.6 L455.7,110.8 L474.3,109.9 L492.9,112.1 L511.6,129.9 L530.3,129.6 L548.9,130.1 L567.5,129.3 L586.2,129.6 L604.9,129.4 L623.5,129.5 L642.1,129.9 L660.8,141.2 L679.4,140.4 L698.1,142.0 L716.8,140.5 L735.4,132.4 L754.1,136.1 L772.7,140.8 L791.4,140.8 L810.0,139.8" fill="none" stroke="#AA3377" stroke-width="1.6"/><circle cx="64.0" cy="227.6" r="2" fill="#AA3377"/><circle cx="82.7" cy="227.1" r="2" fill="#AA3377"/><circle cx="101.3" cy="227.3" r="2" fill="#AA3377"/><circle cx="119.9" cy="227.4" r="2" fill="#AA3377"/><circle cx="138.6" cy="227.2" r="2" fill="#AA3377"/><circle cx="157.3" cy="227.2" r="2" fill="#AA3377"/><circle cx="175.9" cy="227.3" r="2" fill="#AA3377"/><circle cx="194.5" cy="227.2" r="2" fill="#AA3377"/><circle cx="213.2" cy="227.4" r="2" fill="#AA3377"/><circle cx="231.8" cy="227.6" r="2" fill="#AA3377"/><circle cx="250.5" cy="227.1" r="2" fill="#AA3377"/><circle cx="269.1" cy="227.2" r="2" fill="#AA3377"/><circle cx="287.8" cy="227.4" r="2" fill="#AA3377"/><circle cx="306.5" cy="227.1" r="2" fill="#AA3377"/><circle cx="325.1" cy="227.3" r="2" fill="#AA3377"/><circle cx="343.8" cy="108.9" r="2" fill="#AA3377"/><circle cx="362.4" cy="108.7" r="2" fill="#AA3377"/><circle cx="381.1" cy="108.6" r="2" fill="#AA3377"/><circle cx="399.7" cy="108.7" r="2" fill="#AA3377"/><circle cx="418.3" cy="108.2" r="2" fill="#AA3377"/><circle cx="437.0" cy="108.6" r="2" fill="#AA3377"/><circle cx="455.7" cy="110.8" r="2" fill="#AA3377"/><circle cx="474.3" cy="109.9" r="2" fill="#AA3377"/><circle cx="492.9" cy="112.1" r="2" fill="#AA3377"/><circle cx="511.6" cy="129.9" r="2" fill="#AA3377"/><circle cx="530.3" cy="129.6" r="2" fill="#AA3377"/><circle cx="548.9" cy="130.1" r="2" fill="#AA3377"/><circle cx="567.5" cy="129.3" r="2" fill="#AA3377"/><circle cx="586.2" cy="129.6" r="2" fill="#AA3377"/><circle cx="604.9" cy="129.4" r="2" fill="#AA3377"/><circle cx="623.5" cy="129.5" r="2" fill="#AA3377"/><circle cx="642.1" cy="129.9" r="2" fill="#AA3377"/><circle cx="660.8" cy="141.2" r="2" fill="#AA3377"/><circle cx="679.4" cy="140.4" r="2" fill="#AA3377"/><circle cx="698.1" cy="142.0" r="2" fill="#AA3377"/><circle cx="716.8" cy="140.5" r="2" fill="#AA3377"/><circle cx="735.4" cy="132.4" r="2" fill="#AA3377"/><circle cx="754.1" cy="136.1" r="2" fill="#AA3377"/><circle cx="772.7" cy="140.8" r="2" fill="#AA3377"/><circle cx="791.4" cy="140.8" r="2" fill="#AA3377"/><circle cx="810.0" cy="139.8" r="2" fill="#AA3377"/><rect x="820" y="109" width="10" height="10" fill="#AA3377"/><text x="834" y="118" font-size="10" fill="#444">dense-50</text><path d="M64.0,323.3 L82.7,322.5 L101.3,322.2 L119.9,322.5 L138.6,323.4 L157.3,321.8 L175.9,322.5 L194.5,322.8 L213.2,324.0 L231.8,324.0 L250.5,322.5 L269.1,323.3 L287.8,321.8 L306.5,322.5 L325.1,322.5 L343.8,147.8 L362.4,150.3 L381.1,150.3 L399.7,151.4 L418.3,151.6 L437.0,150.2 L455.7,150.8 L474.3,150.6 L492.9,163.9 L511.6,181.7 L530.3,180.1 L548.9,181.6 L567.5,180.7 L586.2,181.2 L604.9,180.3 L623.5,180.8 L642.1,181.5 L660.8,177.3 L679.4,179.0 L698.1,175.9 L716.8,178.0 L735.4,179.0 L754.1,178.5 L772.7,179.1 L791.4,177.7 L810.0,177.3" fill="none" stroke="#BBBBBB" stroke-width="1.6"/><circle cx="64.0" cy="323.3" r="2" fill="#BBBBBB"/><circle cx="82.7" cy="322.5" r="2" fill="#BBBBBB"/><circle cx="101.3" cy="322.2" r="2" fill="#BBBBBB"/><circle cx="119.9" cy="322.5" r="2" fill="#BBBBBB"/><circle cx="138.6" cy="323.4" r="2" fill="#BBBBBB"/><circle cx="157.3" cy="321.8" r="2" fill="#BBBBBB"/><circle cx="175.9" cy="322.5" r="2" fill="#BBBBBB"/><circle cx="194.5" cy="322.8" r="2" fill="#BBBBBB"/><circle cx="213.2" cy="324.0" r="2" fill="#BBBBBB"/><circle cx="231.8" cy="324.0" r="2" fill="#BBBBBB"/><circle cx="250.5" cy="322.5" r="2" fill="#BBBBBB"/><circle cx="269.1" cy="323.3" r="2" fill="#BBBBBB"/><circle cx="287.8" cy="321.8" r="2" fill="#BBBBBB"/><circle cx="306.5" cy="322.5" r="2" fill="#BBBBBB"/><circle cx="325.1" cy="322.5" r="2" fill="#BBBBBB"/><circle cx="343.8" cy="147.8" r="2" fill="#BBBBBB"/><circle cx="362.4" cy="150.3" r="2" fill="#BBBBBB"/><circle cx="381.1" cy="150.3" r="2" fill="#BBBBBB"/><circle cx="399.7" cy="151.4" r="2" fill="#BBBBBB"/><circle cx="418.3" cy="151.6" r="2" fill="#BBBBBB"/><circle cx="437.0" cy="150.2" r="2" fill="#BBBBBB"/><circle cx="455.7" cy="150.8" r="2" fill="#BBBBBB"/><circle cx="474.3" cy="150.6" r="2" fill="#BBBBBB"/><circle cx="492.9" cy="163.9" r="2" fill="#BBBBBB"/><circle cx="511.6" cy="181.7" r="2" fill="#BBBBBB"/><circle cx="530.3" cy="180.1" r="2" fill="#BBBBBB"/><circle cx="548.9" cy="181.6" r="2" fill="#BBBBBB"/><circle cx="567.5" cy="180.7" r="2" fill="#BBBBBB"/><circle cx="586.2" cy="181.2" r="2" fill="#BBBBBB"/><circle cx="604.9" cy="180.3" r="2" fill="#BBBBBB"/><circle cx="623.5" cy="180.8" r="2" fill="#BBBBBB"/><circle cx="642.1" cy="181.5" r="2" fill="#BBBBBB"/><circle cx="660.8" cy="177.3" r="2" fill="#BBBBBB"/><circle cx="679.4" cy="179.0" r="2" fill="#BBBBBB"/><circle cx="698.1" cy="175.9" r="2" fill="#BBBBBB"/><circle cx="716.8" cy="178.0" r="2" fill="#BBBBBB"/><circle cx="735.4" cy="179.0" r="2" fill="#BBBBBB"/><circle cx="754.1" cy="178.5" r="2" fill="#BBBBBB"/><circle cx="772.7" cy="179.1" r="2" fill="#BBBBBB"/><circle cx="791.4" cy="177.7" r="2" fill="#BBBBBB"/><circle cx="810.0" cy="177.3" r="2" fill="#BBBBBB"/><rect x="820" y="124" width="10" height="10" fill="#BBBBBB"/><text x="834" y="133" font-size="10" fill="#444">dense-200</text><path d="M64.0,119.8 L82.7,119.7 L101.3,119.7 L119.9,119.7 L138.6,119.7 L157.3,119.8 L175.9,120.0 L194.5,120.4 L213.2,119.9 L231.8,119.8 L250.5,119.9 L269.1,119.8 L287.8,119.5 L306.5,119.7 L325.1,119.8 L343.8,83.8 L362.4,85.6 L381.1,85.1 L399.7,85.7 L418.3,85.4 L437.0,87.0 L455.7,86.0 L474.3,85.6 L492.9,84.9 L511.6,105.8 L530.3,106.4 L548.9,105.5 L567.5,106.7 L586.2,105.8 L604.9,106.1 L623.5,105.9 L642.1,106.4 L660.8,107.9 L679.4,106.1 L698.1,106.0 L716.8,107.7 L735.4,107.0 L754.1,108.4 L772.7,106.0 L791.4,106.6 L810.0,105.9" fill="none" stroke="#222255" stroke-width="1.6"/><circle cx="64.0" cy="119.8" r="2" fill="#222255"/><circle cx="82.7" cy="119.7" r="2" fill="#222255"/><circle cx="101.3" cy="119.7" r="2" fill="#222255"/><circle cx="119.9" cy="119.7" r="2" fill="#222255"/><circle cx="138.6" cy="119.7" r="2" fill="#222255"/><circle cx="157.3" cy="119.8" r="2" fill="#222255"/><circle cx="175.9" cy="120.0" r="2" fill="#222255"/><circle cx="194.5" cy="120.4" r="2" fill="#222255"/><circle cx="213.2" cy="119.9" r="2" fill="#222255"/><circle cx="231.8" cy="119.8" r="2" fill="#222255"/><circle cx="250.5" cy="119.9" r="2" fill="#222255"/><circle cx="269.1" cy="119.8" r="2" fill="#222255"/><circle cx="287.8" cy="119.5" r="2" fill="#222255"/><circle cx="306.5" cy="119.7" r="2" fill="#222255"/><circle cx="325.1" cy="119.8" r="2" fill="#222255"/><circle cx="343.8" cy="83.8" r="2" fill="#222255"/><circle cx="362.4" cy="85.6" r="2" fill="#222255"/><circle cx="381.1" cy="85.1" r="2" fill="#222255"/><circle cx="399.7" cy="85.7" r="2" fill="#222255"/><circle cx="418.3" cy="85.4" r="2" fill="#222255"/><circle cx="437.0" cy="87.0" r="2" fill="#222255"/><circle cx="455.7" cy="86.0" r="2" fill="#222255"/><circle cx="474.3" cy="85.6" r="2" fill="#222255"/><circle cx="492.9" cy="84.9" r="2" fill="#222255"/><circle cx="511.6" cy="105.8" r="2" fill="#222255"/><circle cx="530.3" cy="106.4" r="2" fill="#222255"/><circle cx="548.9" cy="105.5" r="2" fill="#222255"/><circle cx="567.5" cy="106.7" r="2" fill="#222255"/><circle cx="586.2" cy="105.8" r="2" fill="#222255"/><circle cx="604.9" cy="106.1" r="2" fill="#222255"/><circle cx="623.5" cy="105.9" r="2" fill="#222255"/><circle cx="642.1" cy="106.4" r="2" fill="#222255"/><circle cx="660.8" cy="107.9" r="2" fill="#222255"/><circle cx="679.4" cy="106.1" r="2" fill="#222255"/><circle cx="698.1" cy="106.0" r="2" fill="#222255"/><circle cx="716.8" cy="107.7" r="2" fill="#222255"/><circle cx="735.4" cy="107.0" r="2" fill="#222255"/><circle cx="754.1" cy="108.4" r="2" fill="#222255"/><circle cx="772.7" cy="106.0" r="2" fill="#222255"/><circle cx="791.4" cy="106.6" r="2" fill="#222255"/><circle cx="810.0" cy="105.9" r="2" fill="#222255"/><rect x="820" y="139" width="10" height="10" fill="#222255"/><text x="834" y="148" font-size="10" fill="#444">hub-50</text><path d="M64.0,163.1 L82.7,163.0 L101.3,163.6 L119.9,163.4 L138.6,163.8 L157.3,163.0 L175.9,163.2 L194.5,163.1 L213.2,163.1 L231.8,162.4 L250.5,163.0 L269.1,163.2 L287.8,163.0 L306.5,163.4 L325.1,163.5 L343.8,118.4 L362.4,118.7 L381.1,118.3 L399.7,118.8 L418.3,118.2 L437.0,118.2 L455.7,117.8 L474.3,118.9 L492.9,119.9 L511.6,149.7 L530.3,149.3 L548.9,147.9 L567.5,148.2 L586.2,148.3 L604.9,148.7 L623.5,148.3 L642.1,149.5 L660.8,148.1 L679.4,148.7 L698.1,148.8 L716.8,149.4 L735.4,149.0 L754.1,151.7 L772.7,152.0 L791.4,149.5 L810.0,148.6" fill="none" stroke="#225555" stroke-width="1.6"/><circle cx="64.0" cy="163.1" r="2" fill="#225555"/><circle cx="82.7" cy="163.0" r="2" fill="#225555"/><circle cx="101.3" cy="163.6" r="2" fill="#225555"/><circle cx="119.9" cy="163.4" r="2" fill="#225555"/><circle cx="138.6" cy="163.8" r="2" fill="#225555"/><circle cx="157.3" cy="163.0" r="2" fill="#225555"/><circle cx="175.9" cy="163.2" r="2" fill="#225555"/><circle cx="194.5" cy="163.1" r="2" fill="#225555"/><circle cx="213.2" cy="163.1" r="2" fill="#225555"/><circle cx="231.8" cy="162.4" r="2" fill="#225555"/><circle cx="250.5" cy="163.0" r="2" fill="#225555"/><circle cx="269.1" cy="163.2" r="2" fill="#225555"/><circle cx="287.8" cy="163.0" r="2" fill="#225555"/><circle cx="306.5" cy="163.4" r="2" fill="#225555"/><circle cx="325.1" cy="163.5" r="2" fill="#225555"/><circle cx="343.8" cy="118.4" r="2" fill="#225555"/><circle cx="362.4" cy="118.7" r="2" fill="#225555"/><circle cx="381.1" cy="118.3" r="2" fill="#225555"/><circle cx="399.7" cy="118.8" r="2" fill="#225555"/><circle cx="418.3" cy="118.2" r="2" fill="#225555"/><circle cx="437.0" cy="118.2" r="2" fill="#225555"/><circle cx="455.7" cy="117.8" r="2" fill="#225555"/><circle cx="474.3" cy="118.9" r="2" fill="#225555"/><circle cx="492.9" cy="119.9" r="2" fill="#225555"/><circle cx="511.6" cy="149.7" r="2" fill="#225555"/><circle cx="530.3" cy="149.3" r="2" fill="#225555"/><circle cx="548.9" cy="147.9" r="2" fill="#225555"/><circle cx="567.5" cy="148.2" r="2" fill="#225555"/><circle cx="586.2" cy="148.3" r="2" fill="#225555"/><circle cx="604.9" cy="148.7" r="2" fill="#225555"/><circle cx="623.5" cy="148.3" r="2" fill="#225555"/><circle cx="642.1" cy="149.5" r="2" fill="#225555"/><circle cx="660.8" cy="148.1" r="2" fill="#225555"/><circle cx="679.4" cy="148.7" r="2" fill="#225555"/><circle cx="698.1" cy="148.8" r="2" fill="#225555"/><circle cx="716.8" cy="149.4" r="2" fill="#225555"/><circle cx="735.4" cy="149.0" r="2" fill="#225555"/><circle cx="754.1" cy="151.7" r="2" fill="#225555"/><circle cx="772.7" cy="152.0" r="2" fill="#225555"/><circle cx="791.4" cy="149.5" r="2" fill="#225555"/><circle cx="810.0" cy="148.6" r="2" fill="#225555"/><rect x="820" y="154" width="10" height="10" fill="#225555"/><text x="834" y="163" font-size="10" fill="#444">hub-200</text><path d="M64.0,161.9 L82.7,162.0 L101.3,161.9 L119.9,161.9 L138.6,162.1 L157.3,162.1 L175.9,162.0 L194.5,162.5 L213.2,162.1 L231.8,162.4 L250.5,162.0 L269.1,162.0 L287.8,162.3 L306.5,162.2 L325.1,162.3 L343.8,119.1 L362.4,118.9 L381.1,118.2 L399.7,118.5 L418.3,117.7 L437.0,118.5 L455.7,117.7 L474.3,119.2 L492.9,118.3 L511.6,151.7 L530.3,151.3 L548.9,150.2 L567.5,154.3 L586.2,154.4 L604.9,151.6 L623.5,150.6 L642.1,152.0 L660.8,148.5 L679.4,149.2 L698.1,150.3 L716.8,148.1 L735.4,149.0 L754.1,150.9 L772.7,149.3 L791.4,149.5 L810.0,148.9" fill="none" stroke="#552222" stroke-width="1.6"/><circle cx="64.0" cy="161.9" r="2" fill="#552222"/><circle cx="82.7" cy="162.0" r="2" fill="#552222"/><circle cx="101.3" cy="161.9" r="2" fill="#552222"/><circle cx="119.9" cy="161.9" r="2" fill="#552222"/><circle cx="138.6" cy="162.1" r="2" fill="#552222"/><circle cx="157.3" cy="162.1" r="2" fill="#552222"/><circle cx="175.9" cy="162.0" r="2" fill="#552222"/><circle cx="194.5" cy="162.5" r="2" fill="#552222"/><circle cx="213.2" cy="162.1" r="2" fill="#552222"/><circle cx="231.8" cy="162.4" r="2" fill="#552222"/><circle cx="250.5" cy="162.0" r="2" fill="#552222"/><circle cx="269.1" cy="162.0" r="2" fill="#552222"/><circle cx="287.8" cy="162.3" r="2" fill="#552222"/><circle cx="306.5" cy="162.2" r="2" fill="#552222"/><circle cx="325.1" cy="162.3" r="2" fill="#552222"/><circle cx="343.8" cy="119.1" r="2" fill="#552222"/><circle cx="362.4" cy="118.9" r="2" fill="#552222"/><circle cx="381.1" cy="118.2" r="2" fill="#552222"/><circle cx="399.7" cy="118.5" r="2" fill="#552222"/><circle cx="418.3" cy="117.7" r="2" fill="#552222"/><circle cx="437.0" cy="118.5" r="2" fill="#552222"/><circle cx="455.7" cy="117.7" r="2" fill="#552222"/><circle cx="474.3" cy="119.2" r="2" fill="#552222"/><circle cx="492.9" cy="118.3" r="2" fill="#552222"/><circle cx="511.6" cy="151.7" r="2" fill="#552222"/><circle cx="530.3" cy="151.3" r="2" fill="#552222"/><circle cx="548.9" cy="150.2" r="2" fill="#552222"/><circle cx="567.5" cy="154.3" r="2" fill="#552222"/><circle cx="586.2" cy="154.4" r="2" fill="#552222"/><circle cx="604.9" cy="151.6" r="2" fill="#552222"/><circle cx="623.5" cy="150.6" r="2" fill="#552222"/><circle cx="642.1" cy="152.0" r="2" fill="#552222"/><circle cx="660.8" cy="148.5" r="2" fill="#552222"/><circle cx="679.4" cy="149.2" r="2" fill="#552222"/><circle cx="698.1" cy="150.3" r="2" fill="#552222"/><circle cx="716.8" cy="148.1" r="2" fill="#552222"/><circle cx="735.4" cy="149.0" r="2" fill="#552222"/><circle cx="754.1" cy="150.9" r="2" fill="#552222"/><circle cx="772.7" cy="149.3" r="2" fill="#552222"/><circle cx="791.4" cy="149.5" r="2" fill="#552222"/><circle cx="810.0" cy="148.9" r="2" fill="#552222"/><rect x="820" y="169" width="10" height="10" fill="#552222"/><text x="834" y="178" font-size="10" fill="#444">hooked-200</text><path d="M64.0,221.9 L82.7,222.0 L101.3,221.9 L119.9,222.1 L138.6,222.2 L157.3,222.0 L175.9,221.9 L194.5,222.0 L213.2,222.1 L231.8,223.0 L250.5,221.9 L269.1,221.9 L287.8,222.3 L306.5,221.9 L325.1,221.9 L343.8,49.7 L362.4,44.8 L381.1,46.1 L399.7,43.9 L418.3,47.5 L437.0,44.4 L455.7,46.5 L474.3,46.9 L492.9,49.1 L511.6,62.7 L530.3,60.3 L548.9,65.4 L567.5,62.7 L586.2,60.5 L604.9,59.6 L623.5,61.3 L642.1,61.7 L660.8,62.6 L679.4,61.0 L698.1,59.7 L716.8,61.6 L735.4,58.5 L754.1,61.3 L772.7,62.7 L791.4,59.8 L810.0,60.5" fill="none" stroke="#555522" stroke-width="1.6"/><circle cx="64.0" cy="221.9" r="2" fill="#555522"/><circle cx="82.7" cy="222.0" r="2" fill="#555522"/><circle cx="101.3" cy="221.9" r="2" fill="#555522"/><circle cx="119.9" cy="222.1" r="2" fill="#555522"/><circle cx="138.6" cy="222.2" r="2" fill="#555522"/><circle cx="157.3" cy="222.0" r="2" fill="#555522"/><circle cx="175.9" cy="221.9" r="2" fill="#555522"/><circle cx="194.5" cy="222.0" r="2" fill="#555522"/><circle cx="213.2" cy="222.1" r="2" fill="#555522"/><circle cx="231.8" cy="223.0" r="2" fill="#555522"/><circle cx="250.5" cy="221.9" r="2" fill="#555522"/><circle cx="269.1" cy="221.9" r="2" fill="#555522"/><circle cx="287.8" cy="222.3" r="2" fill="#555522"/><circle cx="306.5" cy="221.9" r="2" fill="#555522"/><circle cx="325.1" cy="221.9" r="2" fill="#555522"/><circle cx="343.8" cy="49.7" r="2" fill="#555522"/><circle cx="362.4" cy="44.8" r="2" fill="#555522"/><circle cx="381.1" cy="46.1" r="2" fill="#555522"/><circle cx="399.7" cy="43.9" r="2" fill="#555522"/><circle cx="418.3" cy="47.5" r="2" fill="#555522"/><circle cx="437.0" cy="44.4" r="2" fill="#555522"/><circle cx="455.7" cy="46.5" r="2" fill="#555522"/><circle cx="474.3" cy="46.9" r="2" fill="#555522"/><circle cx="492.9" cy="49.1" r="2" fill="#555522"/><circle cx="511.6" cy="62.7" r="2" fill="#555522"/><circle cx="530.3" cy="60.3" r="2" fill="#555522"/><circle cx="548.9" cy="65.4" r="2" fill="#555522"/><circle cx="567.5" cy="62.7" r="2" fill="#555522"/><circle cx="586.2" cy="60.5" r="2" fill="#555522"/><circle cx="604.9" cy="59.6" r="2" fill="#555522"/><circle cx="623.5" cy="61.3" r="2" fill="#555522"/><circle cx="642.1" cy="61.7" r="2" fill="#555522"/><circle cx="660.8" cy="62.6" r="2" fill="#555522"/><circle cx="679.4" cy="61.0" r="2" fill="#555522"/><circle cx="698.1" cy="59.7" r="2" fill="#555522"/><circle cx="716.8" cy="61.6" r="2" fill="#555522"/><circle cx="735.4" cy="58.5" r="2" fill="#555522"/><circle cx="754.1" cy="61.3" r="2" fill="#555522"/><circle cx="772.7" cy="62.7" r="2" fill="#555522"/><circle cx="791.4" cy="59.8" r="2" fill="#555522"/><circle cx="810.0" cy="60.5" r="2" fill="#555522"/><rect x="820" y="184" width="10" height="10" fill="#555522"/><text x="834" y="193" font-size="10" fill="#444">messy-1000</text><path d="M64.0,290.8 L82.7,290.6 L101.3,290.5 L119.9,290.6 L138.6,290.5 L157.3,290.6 L175.9,290.3 L194.5,290.4 L213.2,290.8 L231.8,290.6 L250.5,290.6 L269.1,290.8 L287.8,290.3 L306.5,290.6 L325.1,290.3 L343.8,44.2 L362.4,43.0 L381.1,43.6 L399.7,41.8 L418.3,41.1 L437.0,45.8 L455.7,44.6 L474.3,41.6 L492.9,44.1 L511.6,55.3 L530.3,58.9 L548.9,55.9 L567.5,56.5 L586.2,55.1 L604.9,58.8 L623.5,55.5 L642.1,56.7 L660.8,59.6 L679.4,57.2 L698.1,58.8 L716.8,55.6 L735.4,55.4 L754.1,56.1 L772.7,58.9 L791.4,60.2 L810.0,58.5" fill="none" stroke="#8855AA" stroke-width="1.6"/><circle cx="64.0" cy="290.8" r="2" fill="#8855AA"/><circle cx="82.7" cy="290.6" r="2" fill="#8855AA"/><circle cx="101.3" cy="290.5" r="2" fill="#8855AA"/><circle cx="119.9" cy="290.6" r="2" fill="#8855AA"/><circle cx="138.6" cy="290.5" r="2" fill="#8855AA"/><circle cx="157.3" cy="290.6" r="2" fill="#8855AA"/><circle cx="175.9" cy="290.3" r="2" fill="#8855AA"/><circle cx="194.5" cy="290.4" r="2" fill="#8855AA"/><circle cx="213.2" cy="290.8" r="2" fill="#8855AA"/><circle cx="231.8" cy="290.6" r="2" fill="#8855AA"/><circle cx="250.5" cy="290.6" r="2" fill="#8855AA"/><circle cx="269.1" cy="290.8" r="2" fill="#8855AA"/><circle cx="287.8" cy="290.3" r="2" fill="#8855AA"/><circle cx="306.5" cy="290.6" r="2" fill="#8855AA"/><circle cx="325.1" cy="290.3" r="2" fill="#8855AA"/><circle cx="343.8" cy="44.2" r="2" fill="#8855AA"/><circle cx="362.4" cy="43.0" r="2" fill="#8855AA"/><circle cx="381.1" cy="43.6" r="2" fill="#8855AA"/><circle cx="399.7" cy="41.8" r="2" fill="#8855AA"/><circle cx="418.3" cy="41.1" r="2" fill="#8855AA"/><circle cx="437.0" cy="45.8" r="2" fill="#8855AA"/><circle cx="455.7" cy="44.6" r="2" fill="#8855AA"/><circle cx="474.3" cy="41.6" r="2" fill="#8855AA"/><circle cx="492.9" cy="44.1" r="2" fill="#8855AA"/><circle cx="511.6" cy="55.3" r="2" fill="#8855AA"/><circle cx="530.3" cy="58.9" r="2" fill="#8855AA"/><circle cx="548.9" cy="55.9" r="2" fill="#8855AA"/><circle cx="567.5" cy="56.5" r="2" fill="#8855AA"/><circle cx="586.2" cy="55.1" r="2" fill="#8855AA"/><circle cx="604.9" cy="58.8" r="2" fill="#8855AA"/><circle cx="623.5" cy="55.5" r="2" fill="#8855AA"/><circle cx="642.1" cy="56.7" r="2" fill="#8855AA"/><circle cx="660.8" cy="59.6" r="2" fill="#8855AA"/><circle cx="679.4" cy="57.2" r="2" fill="#8855AA"/><circle cx="698.1" cy="58.8" r="2" fill="#8855AA"/><circle cx="716.8" cy="55.6" r="2" fill="#8855AA"/><circle cx="735.4" cy="55.4" r="2" fill="#8855AA"/><circle cx="754.1" cy="56.1" r="2" fill="#8855AA"/><circle cx="772.7" cy="58.9" r="2" fill="#8855AA"/><circle cx="791.4" cy="60.2" r="2" fill="#8855AA"/><circle cx="810.0" cy="58.5" r="2" fill="#8855AA"/><rect x="820" y="199" width="10" height="10" fill="#8855AA"/><text x="834" y="208" font-size="10" fill="#444">messy-5000</text></svg>