<svg width="960" height="372" xmlns="http://www.w3.org/2000/svg"><rect width="960" height="372" fill="#ffffff"/><text x="64" y="20" font-size="15" font-weight="bold" fill="#333">has_state() — ops/sec (log scale) by PR / release, c7g.medium</text><line x1="64.0" y1="34" x2="64.0" y2="324" stroke="#f4f4f4"/><line x1="82.7" y1="34" x2="82.7" y2="324" stroke="#f4f4f4"/><line x1="101.3" y1="34" x2="101.3" y2="324" stroke="#f4f4f4"/><line x1="119.9" y1="34" x2="119.9" y2="324" stroke="#f4f4f4"/><line x1="138.6" y1="34" x2="138.6" y2="324" stroke="#f4f4f4"/><line x1="157.3" y1="34" x2="157.3" y2="324" stroke="#f4f4f4"/><line x1="175.9" y1="34" x2="175.9" y2="324" stroke="#f4f4f4"/><line x1="194.5" y1="34" x2="194.5" y2="324" stroke="#f4f4f4"/><line x1="213.2" y1="34" x2="213.2" y2="324" stroke="#f4f4f4"/><line x1="231.8" y1="34" x2="231.8" y2="324" stroke="#f4f4f4"/><line x1="250.5" y1="34" x2="250.5" y2="324" stroke="#f4f4f4"/><line x1="269.1" y1="34" x2="269.1" y2="324" stroke="#f4f4f4"/><line x1="287.8" y1="34" x2="287.8" y2="324" stroke="#f4f4f4"/><line x1="306.5" y1="34" x2="306.5" y2="324" stroke="#f4f4f4"/><line x1="325.1" y1="34" x2="325.1" y2="324" stroke="#f4f4f4"/><line x1="343.8" y1="34" x2="343.8" y2="324" stroke="#f4f4f4"/><line x1="362.4" y1="34" x2="362.4" y2="324" stroke="#f4f4f4"/><line x1="381.1" y1="34" x2="381.1" y2="324" stroke="#f4f4f4"/><line x1="399.7" y1="34" x2="399.7" y2="324" stroke="#f4f4f4"/><line x1="418.3" y1="34" x2="418.3" y2="324" stroke="#f4f4f4"/><line x1="437.0" y1="34" x2="437.0" y2="324" stroke="#f4f4f4"/><line x1="455.7" y1="34" x2="455.7" y2="324" stroke="#f4f4f4"/><line x1="474.3" y1="34" x2="474.3" y2="324" stroke="#f4f4f4"/><line x1="492.9" y1="34" x2="492.9" y2="324" stroke="#f4f4f4"/><line x1="511.6" y1="34" x2="511.6" y2="324" stroke="#f4f4f4"/><line x1="530.3" y1="34" x2="530.3" y2="324" stroke="#f4f4f4"/><line x1="548.9" y1="34" x2="548.9" y2="324" stroke="#f4f4f4"/><line x1="567.5" y1="34" x2="567.5" y2="324" stroke="#f4f4f4"/><line x1="586.2" y1="34" x2="586.2" y2="324" stroke="#f4f4f4"/><line x1="604.9" y1="34" x2="604.9" y2="324" stroke="#f4f4f4"/><line x1="623.5" y1="34" x2="623.5" y2="324" stroke="#f4f4f4"/><line x1="642.1" y1="34" x2="642.1" y2="324" stroke="#f4f4f4"/><line x1="660.8" y1="34" x2="660.8" y2="324" stroke="#f4f4f4"/><line x1="679.4" y1="34" x2="679.4" y2="324" stroke="#f4f4f4"/><line x1="698.1" y1="34" x2="698.1" y2="324" stroke="#f4f4f4"/><line x1="716.8" y1="34" x2="716.8" y2="324" stroke="#f4f4f4"/><line x1="735.4" y1="34" x2="735.4" y2="324" stroke="#f4f4f4"/><line x1="754.1" y1="34" x2="754.1" y2="324" stroke="#f4f4f4"/><line x1="772.7" y1="34" x2="772.7" y2="324" stroke="#f4f4f4"/><line x1="791.4" y1="34" x2="791.4" y2="324" stroke="#f4f4f4"/><line x1="810.0" y1="34" x2="810.0" y2="324" stroke="#f4f4f4"/><text x="64.0" y="340" font-size="9" text-anchor="middle" fill="#888">598</text><text x="101.3" y="340" font-size="9" text-anchor="middle" fill="#888">600</text><text x="138.6" y="340" font-size="9" text-anchor="middle" fill="#888">602</text><text x="175.9" y="340" font-size="9" text-anchor="middle" fill="#888">604</text><text x="213.2" y="340" font-size="9" text-anchor="middle" fill="#888">611</text><text x="250.5" y="340" font-size="9" text-anchor="middle" fill="#888">616</text><text x="287.8" y="340" font-size="9" text-anchor="middle" fill="#888">618</text><text x="325.1" y="340" font-size="9" text-anchor="middle" fill="#888">634</text><text x="362.4" y="340" font-size="9" text-anchor="middle" fill="#888">649</text><text x="399.7" y="340" font-size="9" text-anchor="middle" fill="#888">674</text><text x="437.0" y="340" font-size="9" text-anchor="middle" fill="#888">679</text><text x="474.3" y="340" font-size="9" text-anchor="middle" fill="#888">681</text><text x="511.6" y="340" font-size="9" text-anchor="end" fill="#a40" transform="rotate(-35 511.6 340)">v5.143.30</text><text x="548.9" y="340" font-size="9" text-anchor="end" fill="#a40" transform="rotate(-35 548.9 340)">v5.143.33</text><text x="586.2" y="340" font-size="9" text-anchor="end" fill="#a40" transform="rotate(-35 586.2 340)">v5.143.35</text><text x="623.5" y="340" font-size="9" text-anchor="end" fill="#a40" transform="rotate(-35 623.5 340)">v5.144.1</text><text x="660.8" y="340" font-size="9" text-anchor="end" fill="#a40" transform="rotate(-35 660.8 340)">v5.144.3</text><text x="698.1" y="340" font-size="9" text-anchor="end" fill="#a40" transform="rotate(-35 698.1 340)">v5.144.5</text><text x="735.4" y="340" font-size="9" text-anchor="end" fill="#a40" transform="rotate(-35 735.4 340)">v5.144.8</text><text x="772.7" y="340" font-size="9" text-anchor="end" fill="#a40" transform="rotate(-35 772.7 340)">v5.145.1</text><text x="810.0" y="340" font-size="9" text-anchor="end" fill="#a40" transform="rotate(-35 810.0 340)">v5.145.3</text><path d="M64.0,48.6 L82.7,52.0 L101.3,44.7 L119.9,42.7 L138.6,37.7 L157.3,51.3 L175.9,48.8 L194.5,48.0 L213.2,50.8 L231.8,44.3 L250.5,44.4 L269.1,56.8 L287.8,47.2 L306.5,44.0 L325.1,47.2 L343.8,52.8 L362.4,37.8 L381.1,55.3 L399.7,47.2 L418.3,43.4 L437.0,47.1 L455.7,48.4 L474.3,49.4 L492.9,46.1 L511.6,40.1 L530.3,57.5 L548.9,55.4 L567.5,48.3 L586.2,48.3 L604.9,60.0 L623.5,49.7 L642.1,41.2 L660.8,55.1 L679.4,48.2 L698.1,46.6 L716.8,49.4 L735.4,52.4 L754.1,46.4 L772.7,48.2 L791.4,46.5 L810.0,38.5" fill="none" stroke="#4477AA" stroke-width="1.6"/><circle cx="64.0" cy="48.6" r="2" fill="#4477AA"/><circle cx="82.7" cy="52.0" r="2" fill="#4477AA"/><circle cx="101.3" cy="44.7" r="2" fill="#4477AA"/><circle cx="119.9" cy="42.7" r="2" fill="#4477AA"/><circle cx="138.6" cy="37.7" r="2" fill="#4477AA"/><circle cx="157.3" cy="51.3" r="2" fill="#4477AA"/><circle cx="175.9" cy="48.8" r="2" fill="#4477AA"/><circle cx="194.5" cy="48.0" r="2" fill="#4477AA"/><circle cx="213.2" cy="50.8" r="2" fill="#4477AA"/><circle cx="231.8" cy="44.3" r="2" fill="#4477AA"/><circle cx="250.5" cy="44.4" r="2" fill="#4477AA"/><circle cx="269.1" cy="56.8" r="2" fill="#4477AA"/><circle cx="287.8" cy="47.2" r="2" fill="#4477AA"/><circle cx="306.5" cy="44.0" r="2" fill="#4477AA"/><circle cx="325.1" cy="47.2" r="2" fill="#4477AA"/><circle cx="343.8" cy="52.8" r="2" fill="#4477AA"/><circle cx="362.4" cy="37.8" r="2" fill="#4477AA"/><circle cx="381.1" cy="55.3" r="2" fill="#4477AA"/><circle cx="399.7" cy="47.2" r="2" fill="#4477AA"/><circle cx="418.3" cy="43.4" r="2" fill="#4477AA"/><circle cx="437.0" cy="47.1" r="2" fill="#4477AA"/><circle cx="455.7" cy="48.4" r="2" fill="#4477AA"/><circle cx="474.3" cy="49.4" r="2" fill="#4477AA"/><circle cx="492.9" cy="46.1" r="2" fill="#4477AA"/><circle cx="511.6" cy="40.1" r="2" fill="#4477AA"/><circle cx="530.3" cy="57.5" r="2" fill="#4477AA"/><circle cx="548.9" cy="55.4" r="2" fill="#4477AA"/><circle cx="567.5" cy="48.3" r="2" fill="#4477AA"/><circle cx="586.2" cy="48.3" r="2" fill="#4477AA"/><circle cx="604.9" cy="60.0" r="2" fill="#4477AA"/><circle cx="623.5" cy="49.7" r="2" fill="#4477AA"/><circle cx="642.1" cy="41.2" r="2" fill="#4477AA"/><circle cx="660.8" cy="55.1" r="2" fill="#4477AA"/><circle cx="679.4" cy="48.2" r="2" fill="#4477AA"/><circle cx="698.1" cy="46.6" r="2" fill="#4477AA"/><circle cx="716.8" cy="49.4" r="2" fill="#4477AA"/><circle cx="735.4" cy="52.4" r="2" fill="#4477AA"/><circle cx="754.1" cy="46.4" r="2" fill="#4477AA"/><circle cx="772.7" cy="48.2" r="2" fill="#4477AA"/><circle cx="791.4" cy="46.5" r="2" fill="#4477AA"/><circle cx="810.0" cy="38.5" r="2" fill="#4477AA"/><rect x="820" y="34" width="10" height="10" fill="#4477AA"/><text x="834" y="43" font-size="10" fill="#444">chain-10</text><path d="M64.0,52.2 L82.7,51.5 L101.3,46.2 L119.9,49.7 L138.6,36.5 L157.3,53.3 L175.9,51.4 L194.5,52.8 L213.2,60.2 L231.8,46.7 L250.5,54.9 L269.1,58.2 L287.8,52.4 L306.5,51.9 L325.1,50.7 L343.8,57.0 L362.4,59.5 L381.1,69.9 L399.7,53.6 L418.3,51.6 L437.0,52.8 L455.7,48.4 L474.3,54.2 L492.9,47.1 L511.6,324.0 L530.3,64.4 L548.9,59.6 L567.5,62.2 L586.2,50.1 L604.9,73.8 L623.5,58.1 L642.1,54.6 L660.8,54.8 L679.4,45.2 L698.1,50.7 L716.8,52.0 L735.4,42.5 L754.1,61.9 L772.7,44.4 L791.4,48.3 L810.0,51.0" fill="none" stroke="#EE6677" stroke-width="1.6"/><circle cx="64.0" cy="52.2" r="2" fill="#EE6677"/><circle cx="82.7" cy="51.5" r="2" fill="#EE6677"/><circle cx="101.3" cy="46.2" r="2" fill="#EE6677"/><circle cx="119.9" cy="49.7" r="2" fill="#EE6677"/><circle cx="138.6" cy="36.5" r="2" fill="#EE6677"/><circle cx="157.3" cy="53.3" r="2" fill="#EE6677"/><circle cx="175.9" cy="51.4" r="2" fill="#EE6677"/><circle cx="194.5" cy="52.8" r="2" fill="#EE6677"/><circle cx="213.2" cy="60.2" r="2" fill="#EE6677"/><circle cx="231.8" cy="46.7" r="2" fill="#EE6677"/><circle cx="250.5" cy="54.9" r="2" fill="#EE6677"/><circle cx="269.1" cy="58.2" r="2" fill="#EE6677"/><circle cx="287.8" cy="52.4" r="2" fill="#EE6677"/><circle cx="306.5" cy="51.9" r="2" fill="#EE6677"/><circle cx="325.1" cy="50.7" r="2" fill="#EE6677"/><circle cx="343.8" cy="57.0" r="2" fill="#EE6677"/><circle cx="362.4" cy="59.5" r="2" fill="#EE6677"/><circle cx="381.1" cy="69.9" r="2" fill="#EE6677"/><circle cx="399.7" cy="53.6" r="2" fill="#EE6677"/><circle cx="418.3" cy="51.6" r="2" fill="#EE6677"/><circle cx="437.0" cy="52.8" r="2" fill="#EE6677"/><circle cx="455.7" cy="48.4" r="2" fill="#EE6677"/><circle cx="474.3" cy="54.2" r="2" fill="#EE6677"/><circle cx="492.9" cy="47.1" r="2" fill="#EE6677"/><circle cx="511.6" cy="324.0" r="2" fill="#EE6677"/><circle cx="530.3" cy="64.4" r="2" fill="#EE6677"/><circle cx="548.9" cy="59.6" r="2" fill="#EE6677"/><circle cx="567.5" cy="62.2" r="2" fill="#EE6677"/><circle cx="586.2" cy="50.1" r="2" fill="#EE6677"/><circle cx="604.9" cy="73.8" r="2" fill="#EE6677"/><circle cx="623.5" cy="58.1" r="2" fill="#EE6677"/><circle cx="642.1" cy="54.6" r="2" fill="#EE6677"/><circle cx="660.8" cy="54.8" r="2" fill="#EE6677"/><circle cx="679.4" cy="45.2" r="2" fill="#EE6677"/><circle cx="698.1" cy="50.7" r="2" fill="#EE6677"/><circle cx="716.8" cy="52.0" r="2" fill="#EE6677"/><circle cx="735.4" cy="42.5" r="2" fill="#EE6677"/><circle cx="754.1" cy="61.9" r="2" fill="#EE6677"/><circle cx="772.7" cy="44.4" r="2" fill="#EE6677"/><circle cx="791.4" cy="48.3" r="2" fill="#EE6677"/><circle cx="810.0" cy="51.0" r="2" fill="#EE6677"/><rect x="820" y="49" width="10" height="10" fill="#EE6677"/><text x="834" y="58" font-size="10" fill="#444">chain-50</text><path d="M64.0,59.0 L82.7,53.5 L101.3,56.7 L119.9,56.3 L138.6,43.8 L157.3,55.6 L175.9,54.5 L194.5,59.0 L213.2,60.9 L231.8,51.8 L250.5,59.6 L269.1,61.4 L287.8,63.0 L306.5,56.6 L325.1,56.3 L343.8,62.9 L362.4,61.2 L381.1,66.5 L399.7,56.2 L418.3,52.5 L437.0,56.9 L455.7,68.7 L474.3,57.4 L492.9,53.6 L511.6,59.7 L530.3,54.3 L548.9,70.3 L567.5,55.6 L586.2,53.3 L604.9,66.4 L623.5,57.0 L642.1,54.2 L660.8,73.1 L679.4,76.8 L698.1,54.1 L716.8,55.1 L735.4,49.9 L754.1,50.5 L772.7,75.2 L791.4,62.8 L810.0,54.7" fill="none" stroke="#228833" stroke-width="1.6"/><circle cx="64.0" cy="59.0" r="2" fill="#228833"/><circle cx="82.7" cy="53.5" r="2" fill="#228833"/><circle cx="101.3" cy="56.7" r="2" fill="#228833"/><circle cx="119.9" cy="56.3" r="2" fill="#228833"/><circle cx="138.6" cy="43.8" r="2" fill="#228833"/><circle cx="157.3" cy="55.6" r="2" fill="#228833"/><circle cx="175.9" cy="54.5" r="2" fill="#228833"/><circle cx="194.5" cy="59.0" r="2" fill="#228833"/><circle cx="213.2" cy="60.9" r="2" fill="#228833"/><circle cx="231.8" cy="51.8" r="2" fill="#228833"/><circle cx="250.5" cy="59.6" r="2" fill="#228833"/><circle cx="269.1" cy="61.4" r="2" fill="#228833"/><circle cx="287.8" cy="63.0" r="2" fill="#228833"/><circle cx="306.5" cy="56.6" r="2" fill="#228833"/><circle cx="325.1" cy="56.3" r="2" fill="#228833"/><circle cx="343.8" cy="62.9" r="2" fill="#228833"/><circle cx="362.4" cy="61.2" r="2" fill="#228833"/><circle cx="381.1" cy="66.5" r="2" fill="#228833"/><circle cx="399.7" cy="56.2" r="2" fill="#228833"/><circle cx="418.3" cy="52.5" r="2" fill="#228833"/><circle cx="437.0" cy="56.9" r="2" fill="#228833"/><circle cx="455.7" cy="68.7" r="2" fill="#228833"/><circle cx="474.3" cy="57.4" r="2" fill="#228833"/><circle cx="492.9" cy="53.6" r="2" fill="#228833"/><circle cx="511.6" cy="59.7" r="2" fill="#228833"/><circle cx="530.3" cy="54.3" r="2" fill="#228833"/><circle cx="548.9" cy="70.3" r="2" fill="#228833"/><circle cx="567.5" cy="55.6" r="2" fill="#228833"/><circle cx="586.2" cy="53.3" r="2" fill="#228833"/><circle cx="604.9" cy="66.4" r="2" fill="#228833"/><circle cx="623.5" cy="57.0" r="2" fill="#228833"/><circle cx="642.1" cy="54.2" r="2" fill="#228833"/><circle cx="660.8" cy="73.1" r="2" fill="#228833"/><circle cx="679.4" cy="76.8" r="2" fill="#228833"/><circle cx="698.1" cy="54.1" r="2" fill="#228833"/><circle cx="716.8" cy="55.1" r="2" fill="#228833"/><circle cx="735.4" cy="49.9" r="2" fill="#228833"/><circle cx="754.1" cy="50.5" r="2" fill="#228833"/><circle cx="772.7" cy="75.2" r="2" fill="#228833"/><circle cx="791.4" cy="62.8" r="2" fill="#228833"/><circle cx="810.0" cy="54.7" r="2" fill="#228833"/><rect x="820" y="64" width="10" height="10" fill="#228833"/><text x="834" y="73" font-size="10" fill="#444">chain-200</text><path d="M64.0,61.3 L82.7,57.3 L101.3,50.0 L119.9,57.7 L138.6,46.0 L157.3,65.2 L175.9,53.4 L194.5,67.2 L213.2,60.2 L231.8,60.4 L250.5,61.8 L269.1,60.6 L287.8,56.3 L306.5,56.8 L325.1,54.3 L343.8,64.2 L362.4,59.3 L381.1,66.0 L399.7,65.1 L418.3,57.9 L437.0,58.8 L455.7,60.1 L474.3,66.8 L492.9,60.4 L511.6,68.2 L530.3,64.9 L548.9,69.3 L567.5,57.0 L586.2,65.0 L604.9,77.2 L623.5,73.9 L642.1,71.9 L660.8,66.5 L679.4,59.8 L698.1,64.5 L716.8,59.5 L735.4,73.9 L754.1,59.7 L772.7,63.4 L791.4,56.3 L810.0,54.4" fill="none" stroke="#CCBB44" stroke-width="1.6"/><circle cx="64.0" cy="61.3" r="2" fill="#CCBB44"/><circle cx="82.7" cy="57.3" r="2" fill="#CCBB44"/><circle cx="101.3" cy="50.0" r="2" fill="#CCBB44"/><circle cx="119.9" cy="57.7" r="2" fill="#CCBB44"/><circle cx="138.6" cy="46.0" r="2" fill="#CCBB44"/><circle cx="157.3" cy="65.2" r="2" fill="#CCBB44"/><circle cx="175.9" cy="53.4" r="2" fill="#CCBB44"/><circle cx="194.5" cy="67.2" r="2" fill="#CCBB44"/><circle cx="213.2" cy="60.2" r="2" fill="#CCBB44"/><circle cx="231.8" cy="60.4" r="2" fill="#CCBB44"/><circle cx="250.5" cy="61.8" r="2" fill="#CCBB44"/><circle cx="269.1" cy="60.6" r="2" fill="#CCBB44"/><circle cx="287.8" cy="56.3" r="2" fill="#CCBB44"/><circle cx="306.5" cy="56.8" r="2" fill="#CCBB44"/><circle cx="325.1" cy="54.3" r="2" fill="#CCBB44"/><circle cx="343.8" cy="64.2" r="2" fill="#CCBB44"/><circle cx="362.4" cy="59.3" r="2" fill="#CCBB44"/><circle cx="381.1" cy="66.0" r="2" fill="#CCBB44"/><circle cx="399.7" cy="65.1" r="2" fill="#CCBB44"/><circle cx="418.3" cy="57.9" r="2" fill="#CCBB44"/><circle cx="437.0" cy="58.8" r="2" fill="#CCBB44"/><circle cx="455.7" cy="60.1" r="2" fill="#CCBB44"/><circle cx="474.3" cy="66.8" r="2" fill="#CCBB44"/><circle cx="492.9" cy="60.4" r="2" fill="#CCBB44"/><circle cx="511.6" cy="68.2" r="2" fill="#CCBB44"/><circle cx="530.3" cy="64.9" r="2" fill="#CCBB44"/><circle cx="548.9" cy="69.3" r="2" fill="#CCBB44"/><circle cx="567.5" cy="57.0" r="2" fill="#CCBB44"/><circle cx="586.2" cy="65.0" r="2" fill="#CCBB44"/><circle cx="604.9" cy="77.2" r="2" fill="#CCBB44"/><circle cx="623.5" cy="73.9" r="2" fill="#CCBB44"/><circle cx="642.1" cy="71.9" r="2" fill="#CCBB44"/><circle cx="660.8" cy="66.5" r="2" fill="#CCBB44"/><circle cx="679.4" cy="59.8" r="2" fill="#CCBB44"/><circle cx="698.1" cy="64.5" r="2" fill="#CCBB44"/><circle cx="716.8" cy="59.5" r="2" fill="#CCBB44"/><circle cx="735.4" cy="73.9" r="2" fill="#CCBB44"/><circle cx="754.1" cy="59.7" r="2" fill="#CCBB44"/><circle cx="772.7" cy="63.4" r="2" fill="#CCBB44"/><circle cx="791.4" cy="56.3" r="2" fill="#CCBB44"/><circle cx="810.0" cy="54.4" r="2" fill="#CCBB44"/><rect x="820" y="79" width="10" height="10" fill="#CCBB44"/><text x="834" y="88" font-size="10" fill="#444">chain-1000</text><path d="M64.0,48.2 L82.7,46.2 L101.3,43.9 L119.9,41.6 L138.6,37.0 L157.3,50.2 L175.9,43.5 L194.5,49.8 L213.2,44.7 L231.8,44.0 L250.5,45.6 L269.1,43.4 L287.8,51.9 L306.5,47.4 L325.1,50.1 L343.8,57.9 L362.4,45.9 L381.1,57.2 L399.7,53.8 L418.3,48.4 L437.0,54.6 L455.7,53.4 L474.3,47.5 L492.9,47.5 L511.6,46.6 L530.3,68.5 L548.9,49.2 L567.5,56.8 L586.2,65.5 L604.9,58.2 L623.5,55.3 L642.1,49.4 L660.8,54.8 L679.4,44.5 L698.1,53.8 L716.8,58.9 L735.4,50.8 L754.1,46.4 L772.7,43.0 L791.4,47.0 L810.0,51.6" fill="none" stroke="#66CCEE" stroke-width="1.6"/><circle cx="64.0" cy="48.2" r="2" fill="#66CCEE"/><circle cx="82.7" cy="46.2" r="2" fill="#66CCEE"/><circle cx="101.3" cy="43.9" r="2" fill="#66CCEE"/><circle cx="119.9" cy="41.6" r="2" fill="#66CCEE"/><circle cx="138.6" cy="37.0" r="2" fill="#66CCEE"/><circle cx="157.3" cy="50.2" r="2" fill="#66CCEE"/><circle cx="175.9" cy="43.5" r="2" fill="#66CCEE"/><circle cx="194.5" cy="49.8" r="2" fill="#66CCEE"/><circle cx="213.2" cy="44.7" r="2" fill="#66CCEE"/><circle cx="231.8" cy="44.0" r="2" fill="#66CCEE"/><circle cx="250.5" cy="45.6" r="2" fill="#66CCEE"/><circle cx="269.1" cy="43.4" r="2" fill="#66CCEE"/><circle cx="287.8" cy="51.9" r="2" fill="#66CCEE"/><circle cx="306.5" cy="47.4" r="2" fill="#66CCEE"/><circle cx="325.1" cy="50.1" r="2" fill="#66CCEE"/><circle cx="343.8" cy="57.9" r="2" fill="#66CCEE"/><circle cx="362.4" cy="45.9" r="2" fill="#66CCEE"/><circle cx="381.1" cy="57.2" r="2" fill="#66CCEE"/><circle cx="399.7" cy="53.8" r="2" fill="#66CCEE"/><circle cx="418.3" cy="48.4" r="2" fill="#66CCEE"/><circle cx="437.0" cy="54.6" r="2" fill="#66CCEE"/><circle cx="455.7" cy="53.4" r="2" fill="#66CCEE"/><circle cx="474.3" cy="47.5" r="2" fill="#66CCEE"/><circle cx="492.9" cy="47.5" r="2" fill="#66CCEE"/><circle cx="511.6" cy="46.6" r="2" fill="#66CCEE"/><circle cx="530.3" cy="68.5" r="2" fill="#66CCEE"/><circle cx="548.9" cy="49.2" r="2" fill="#66CCEE"/><circle cx="567.5" cy="56.8" r="2" fill="#66CCEE"/><circle cx="586.2" cy="65.5" r="2" fill="#66CCEE"/><circle cx="604.9" cy="58.2" r="2" fill="#66CCEE"/><circle cx="623.5" cy="55.3" r="2" fill="#66CCEE"/><circle cx="642.1" cy="49.4" r="2" fill="#66CCEE"/><circle cx="660.8" cy="54.8" r="2" fill="#66CCEE"/><circle cx="679.4" cy="44.5" r="2" fill="#66CCEE"/><circle cx="698.1" cy="53.8" r="2" fill="#66CCEE"/><circle cx="716.8" cy="58.9" r="2" fill="#66CCEE"/><circle cx="735.4" cy="50.8" r="2" fill="#66CCEE"/><circle cx="754.1" cy="46.4" r="2" fill="#66CCEE"/><circle cx="772.7" cy="43.0" r="2" fill="#66CCEE"/><circle cx="791.4" cy="47.0" r="2" fill="#66CCEE"/><circle cx="810.0" cy="51.6" r="2" fill="#66CCEE"/><rect x="820" y="94" width="10" height="10" fill="#66CCEE"/><text x="834" y="103" font-size="10" fill="#444">dense-10</text><path d="M64.0,52.9 L82.7,46.3 L101.3,38.9 L119.9,45.9 L138.6,39.0 L157.3,48.7 L175.9,48.8 L194.5,53.6 L213.2,55.2 L231.8,52.9 L250.5,49.6 L269.1,58.6 L287.8,55.1 L306.5,52.7 L325.1,46.9 L343.8,52.7 L362.4,53.8 L381.1,57.6 L399.7,54.3 L418.3,54.2 L437.0,49.4 L455.7,49.8 L474.3,59.6 L492.9,45.6 L511.6,46.3 L530.3,53.5 L548.9,67.6 L567.5,48.3 L586.2,54.0 L604.9,56.1 L623.5,47.7 L642.1,56.0 L660.8,55.4 L679.4,50.5 L698.1,50.8 L716.8,60.2 L735.4,53.7 L754.1,52.4 L772.7,47.9 L791.4,43.7 L810.0,49.8" fill="none" stroke="#AA3377" stroke-width="1.6"/><circle cx="64.0" cy="52.9" r="2" fill="#AA3377"/><circle cx="82.7" cy="46.3" r="2" fill="#AA3377"/><circle cx="101.3" cy="38.9" r="2" fill="#AA3377"/><circle cx="119.9" cy="45.9" r="2" fill="#AA3377"/><circle cx="138.6" cy="39.0" r="2" fill="#AA3377"/><circle cx="157.3" cy="48.7" r="2" fill="#AA3377"/><circle cx="175.9" cy="48.8" r="2" fill="#AA3377"/><circle cx="194.5" cy="53.6" r="2" fill="#AA3377"/><circle cx="213.2" cy="55.2" r="2" fill="#AA3377"/><circle cx="231.8" cy="52.9" r="2" fill="#AA3377"/><circle cx="250.5" cy="49.6" r="2" fill="#AA3377"/><circle cx="269.1" cy="58.6" r="2" fill="#AA3377"/><circle cx="287.8" cy="55.1" r="2" fill="#AA3377"/><circle cx="306.5" cy="52.7" r="2" fill="#AA3377"/><circle cx="325.1" cy="46.9" r="2" fill="#AA3377"/><circle cx="343.8" cy="52.7" r="2" fill="#AA3377"/><circle cx="362.4" cy="53.8" r="2" fill="#AA3377"/><circle cx="381.1" cy="57.6" r="2" fill="#AA3377"/><circle cx="399.7" cy="54.3" r="2" fill="#AA3377"/><circle cx="418.3" cy="54.2" r="2" fill="#AA3377"/><circle cx="437.0" cy="49.4" r="2" fill="#AA3377"/><circle cx="455.7" cy="49.8" r="2" fill="#AA3377"/><circle cx="474.3" cy="59.6" r="2" fill="#AA3377"/><circle cx="492.9" cy="45.6" r="2" fill="#AA3377"/><circle cx="511.6" cy="46.3" r="2" fill="#AA3377"/><circle cx="530.3" cy="53.5" r="2" fill="#AA3377"/><circle cx="548.9" cy="67.6" r="2" fill="#AA3377"/><circle cx="567.5" cy="48.3" r="2" fill="#AA3377"/><circle cx="586.2" cy="54.0" r="2" fill="#AA3377"/><circle cx="604.9" cy="56.1" r="2" fill="#AA3377"/><circle cx="623.5" cy="47.7" r="2" fill="#AA3377"/><circle cx="642.1" cy="56.0" r="2" fill="#AA3377"/><circle cx="660.8" cy="55.4" r="2" fill="#AA3377"/><circle cx="679.4" cy="50.5" r="2" fill="#AA3377"/><circle cx="698.1" cy="50.8" r="2" fill="#AA3377"/><circle cx="716.8" cy="60.2" r="2" fill="#AA3377"/><circle cx="735.4" cy="53.7" r="2" fill="#AA3377"/><circle cx="754.1" cy="52.4" r="2" fill="#AA3377"/><circle cx="772.7" cy="47.9" r="2" fill="#AA3377"/><circle cx="791.4" cy="43.7" r="2" fill="#AA3377"/><circle cx="810.0" cy="49.8" r="2" fill="#AA3377"/><rect x="820" y="109" width="10" height="10" fill="#AA3377"/><text x="834" y="118" font-size="10" fill="#444">dense-50</text><path d="M64.0,60.4 L82.7,56.6 L101.3,49.1 L119.9,55.9 L138.6,45.6 L157.3,59.1 L175.9,55.2 L194.5,58.0 L213.2,59.1 L231.8,56.3 L250.5,58.5 L269.1,77.6 L287.8,56.2 L306.5,58.0 L325.1,48.9 L343.8,62.4 L362.4,52.8 L381.1,73.0 L399.7,58.7 L418.3,60.0 L437.0,59.8 L455.7,56.7 L474.3,55.6 L492.9,52.7 L511.6,60.4 L530.3,62.6 L548.9,62.0 L567.5,55.1 L586.2,67.1 L604.9,65.6 L623.5,67.6 L642.1,53.9 L660.8,63.5 L679.4,56.5 L698.1,57.6 L716.8,58.4 L735.4,64.0 L754.1,75.5 L772.7,62.1 L791.4,60.1 L810.0,50.8" fill="none" stroke="#BBBBBB" stroke-width="1.6"/><circle cx="64.0" cy="60.4" r="2" fill="#BBBBBB"/><circle cx="82.7" cy="56.6" r="2" fill="#BBBBBB"/><circle cx="101.3" cy="49.1" r="2" fill="#BBBBBB"/><circle cx="119.9" cy="55.9" r="2" fill="#BBBBBB"/><circle cx="138.6" cy="45.6" r="2" fill="#BBBBBB"/><circle cx="157.3" cy="59.1" r="2" fill="#BBBBBB"/><circle cx="175.9" cy="55.2" r="2" fill="#BBBBBB"/><circle cx="194.5" cy="58.0" r="2" fill="#BBBBBB"/><circle cx="213.2" cy="59.1" r="2" fill="#BBBBBB"/><circle cx="231.8" cy="56.3" r="2" fill="#BBBBBB"/><circle cx="250.5" cy="58.5" r="2" fill="#BBBBBB"/><circle cx="269.1" cy="77.6" r="2" fill="#BBBBBB"/><circle cx="287.8" cy="56.2" r="2" fill="#BBBBBB"/><circle cx="306.5" cy="58.0" r="2" fill="#BBBBBB"/><circle cx="325.1" cy="48.9" r="2" fill="#BBBBBB"/><circle cx="343.8" cy="62.4" r="2" fill="#BBBBBB"/><circle cx="362.4" cy="52.8" r="2" fill="#BBBBBB"/><circle cx="381.1" cy="73.0" r="2" fill="#BBBBBB"/><circle cx="399.7" cy="58.7" r="2" fill="#BBBBBB"/><circle cx="418.3" cy="60.0" r="2" fill="#BBBBBB"/><circle cx="437.0" cy="59.8" r="2" fill="#BBBBBB"/><circle cx="455.7" cy="56.7" r="2" fill="#BBBBBB"/><circle cx="474.3" cy="55.6" r="2" fill="#BBBBBB"/><circle cx="492.9" cy="52.7" r="2" fill="#BBBBBB"/><circle cx="511.6" cy="60.4" r="2" fill="#BBBBBB"/><circle cx="530.3" cy="62.6" r="2" fill="#BBBBBB"/><circle cx="548.9" cy="62.0" r="2" fill="#BBBBBB"/><circle cx="567.5" cy="55.1" r="2" fill="#BBBBBB"/><circle cx="586.2" cy="67.1" r="2" fill="#BBBBBB"/><circle cx="604.9" cy="65.6" r="2" fill="#BBBBBB"/><circle cx="623.5" cy="67.6" r="2" fill="#BBBBBB"/><circle cx="642.1" cy="53.9" r="2" fill="#BBBBBB"/><circle cx="660.8" cy="63.5" r="2" fill="#BBBBBB"/><circle cx="679.4" cy="56.5" r="2" fill="#BBBBBB"/><circle cx="698.1" cy="57.6" r="2" fill="#BBBBBB"/><circle cx="716.8" cy="58.4" r="2" fill="#BBBBBB"/><circle cx="735.4" cy="64.0" r="2" fill="#BBBBBB"/><circle cx="754.1" cy="75.5" r="2" fill="#BBBBBB"/><circle cx="772.7" cy="62.1" r="2" fill="#BBBBBB"/><circle cx="791.4" cy="60.1" r="2" fill="#BBBBBB"/><circle cx="810.0" cy="50.8" r="2" fill="#BBBBBB"/><rect x="820" y="124" width="10" height="10" fill="#BBBBBB"/><text x="834" y="133" font-size="10" fill="#444">dense-200</text><path d="M64.0,49.5 L82.7,42.5 L101.3,44.6 L119.9,43.9 L138.6,55.2 L157.3,57.6 L175.9,42.0 L194.5,49.5 L213.2,56.4 L231.8,36.8 L250.5,51.0 L269.1,59.7 L287.8,70.2 L306.5,52.3 L325.1,43.7 L343.8,53.5 L362.4,61.6 L381.1,62.6 L399.7,55.2 L418.3,51.4 L437.0,59.4 L455.7,56.9 L474.3,56.0 L492.9,46.3 L511.6,46.0 L530.3,54.7 L548.9,56.3 L567.5,41.6 L586.2,48.6 L604.9,58.2 L623.5,49.6 L642.1,49.4 L660.8,44.5 L679.4,46.8 L698.1,51.1 L716.8,43.6 L735.4,45.8 L754.1,62.2 L772.7,45.8 L791.4,51.5 L810.0,42.4" fill="none" stroke="#222255" stroke-width="1.6"/><circle cx="64.0" cy="49.5" r="2" fill="#222255"/><circle cx="82.7" cy="42.5" r="2" fill="#222255"/><circle cx="101.3" cy="44.6" r="2" fill="#222255"/><circle cx="119.9" cy="43.9" r="2" fill="#222255"/><circle cx="138.6" cy="55.2" r="2" fill="#222255"/><circle cx="157.3" cy="57.6" r="2" fill="#222255"/><circle cx="175.9" cy="42.0" r="2" fill="#222255"/><circle cx="194.5" cy="49.5" r="2" fill="#222255"/><circle cx="213.2" cy="56.4" r="2" fill="#222255"/><circle cx="231.8" cy="36.8" r="2" fill="#222255"/><circle cx="250.5" cy="51.0" r="2" fill="#222255"/><circle cx="269.1" cy="59.7" r="2" fill="#222255"/><circle cx="287.8" cy="70.2" r="2" fill="#222255"/><circle cx="306.5" cy="52.3" r="2" fill="#222255"/><circle cx="325.1" cy="43.7" r="2" fill="#222255"/><circle cx="343.8" cy="53.5" r="2" fill="#222255"/><circle cx="362.4" cy="61.6" r="2" fill="#222255"/><circle cx="381.1" cy="62.6" r="2" fill="#222255"/><circle cx="399.7" cy="55.2" r="2" fill="#222255"/><circle cx="418.3" cy="51.4" r="2" fill="#222255"/><circle cx="437.0" cy="59.4" r="2" fill="#222255"/><circle cx="455.7" cy="56.9" r="2" fill="#222255"/><circle cx="474.3" cy="56.0" r="2" fill="#222255"/><circle cx="492.9" cy="46.3" r="2" fill="#222255"/><circle cx="511.6" cy="46.0" r="2" fill="#222255"/><circle cx="530.3" cy="54.7" r="2" fill="#222255"/><circle cx="548.9" cy="56.3" r="2" fill="#222255"/><circle cx="567.5" cy="41.6" r="2" fill="#222255"/><circle cx="586.2" cy="48.6" r="2" fill="#222255"/><circle cx="604.9" cy="58.2" r="2" fill="#222255"/><circle cx="623.5" cy="49.6" r="2" fill="#222255"/><circle cx="642.1" cy="49.4" r="2" fill="#222255"/><circle cx="660.8" cy="44.5" r="2" fill="#222255"/><circle cx="679.4" cy="46.8" r="2" fill="#222255"/><circle cx="698.1" cy="51.1" r="2" fill="#222255"/><circle cx="716.8" cy="43.6" r="2" fill="#222255"/><circle cx="735.4" cy="45.8" r="2" fill="#222255"/><circle cx="754.1" cy="62.2" r="2" fill="#222255"/><circle cx="772.7" cy="45.8" r="2" fill="#222255"/><circle cx="791.4" cy="51.5" r="2" fill="#222255"/><circle cx="810.0" cy="42.4" r="2" fill="#222255"/><rect x="820" y="139" width="10" height="10" fill="#222255"/><text x="834" y="148" font-size="10" fill="#444">hub-50</text><path d="M64.0,58.5 L82.7,67.2 L101.3,53.6 L119.9,60.0 L138.6,43.1 L157.3,61.8 L175.9,56.4 L194.5,58.3 L213.2,57.8 L231.8,51.7 L250.5,54.7 L269.1,50.0 L287.8,47.0 L306.5,61.5 L325.1,45.9 L343.8,55.5 L362.4,60.1 L381.1,58.3 L399.7,64.5 L418.3,45.8 L437.0,65.2 L455.7,50.9 L474.3,65.7 L492.9,58.0 L511.6,53.3 L530.3,59.5 L548.9,55.2 L567.5,47.0 L586.2,52.5 L604.9,65.3 L623.5,58.1 L642.1,55.2 L660.8,58.9 L679.4,49.6 L698.1,48.1 L716.8,61.4 L735.4,54.2 L754.1,55.1 L772.7,46.4 L791.4,59.9 L810.0,46.9" fill="none" stroke="#225555" stroke-width="1.6"/><circle cx="64.0" cy="58.5" r="2" fill="#225555"/><circle cx="82.7" cy="67.2" r="2" fill="#225555"/><circle cx="101.3" cy="53.6" r="2" fill="#225555"/><circle cx="119.9" cy="60.0" r="2" fill="#225555"/><circle cx="138.6" cy="43.1" r="2" fill="#225555"/><circle cx="157.3" cy="61.8" r="2" fill="#225555"/><circle cx="175.9" cy="56.4" r="2" fill="#225555"/><circle cx="194.5" cy="58.3" r="2" fill="#225555"/><circle cx="213.2" cy="57.8" r="2" fill="#225555"/><circle cx="231.8" cy="51.7" r="2" fill="#225555"/><circle cx="250.5" cy="54.7" r="2" fill="#225555"/><circle cx="269.1" cy="50.0" r="2" fill="#225555"/><circle cx="287.8" cy="47.0" r="2" fill="#225555"/><circle cx="306.5" cy="61.5" r="2" fill="#225555"/><circle cx="325.1" cy="45.9" r="2" fill="#225555"/><circle cx="343.8" cy="55.5" r="2" fill="#225555"/><circle cx="362.4" cy="60.1" r="2" fill="#225555"/><circle cx="381.1" cy="58.3" r="2" fill="#225555"/><circle cx="399.7" cy="64.5" r="2" fill="#225555"/><circle cx="418.3" cy="45.8" r="2" fill="#225555"/><circle cx="437.0" cy="65.2" r="2" fill="#225555"/><circle cx="455.7" cy="50.9" r="2" fill="#225555"/><circle cx="474.3" cy="65.7" r="2" fill="#225555"/><circle cx="492.9" cy="58.0" r="2" fill="#225555"/><circle cx="511.6" cy="53.3" r="2" fill="#225555"/><circle cx="530.3" cy="59.5" r="2" fill="#225555"/><circle cx="548.9" cy="55.2" r="2" fill="#225555"/><circle cx="567.5" cy="47.0" r="2" fill="#225555"/><circle cx="586.2" cy="52.5" r="2" fill="#225555"/><circle cx="604.9" cy="65.3" r="2" fill="#225555"/><circle cx="623.5" cy="58.1" r="2" fill="#225555"/><circle cx="642.1" cy="55.2" r="2" fill="#225555"/><circle cx="660.8" cy="58.9" r="2" fill="#225555"/><circle cx="679.4" cy="49.6" r="2" fill="#225555"/><circle cx="698.1" cy="48.1" r="2" fill="#225555"/><circle cx="716.8" cy="61.4" r="2" fill="#225555"/><circle cx="735.4" cy="54.2" r="2" fill="#225555"/><circle cx="754.1" cy="55.1" r="2" fill="#225555"/><circle cx="772.7" cy="46.4" r="2" fill="#225555"/><circle cx="791.4" cy="59.9" r="2" fill="#225555"/><circle cx="810.0" cy="46.9" r="2" fill="#225555"/><rect x="820" y="154" width="10" height="10" fill="#225555"/><text x="834" y="163" font-size="10" fill="#444">hub-200</text><path d="M64.0,54.7 L82.7,52.6 L101.3,57.1 L119.9,50.5 L138.6,48.1 L157.3,58.6 L175.9,56.7 L194.5,53.5 L213.2,68.9 L231.8,44.9 L250.5,51.2 L269.1,52.9 L287.8,50.8 L306.5,56.1 L325.1,48.0 L343.8,58.4 L362.4,64.0 L381.1,59.3 L399.7,61.5 L418.3,50.2 L437.0,61.6 L455.7,49.0 L474.3,63.8 L492.9,53.4 L511.6,47.8 L530.3,61.3 L548.9,47.5 L567.5,57.6 L586.2,48.8 L604.9,64.7 L623.5,53.3 L642.1,58.8 L660.8,56.5 L679.4,50.4 L698.1,53.2 L716.8,76.7 L735.4,53.7 L754.1,52.0 L772.7,50.0 L791.4,63.4 L810.0,46.9" fill="none" stroke="#552222" stroke-width="1.6"/><circle cx="64.0" cy="54.7" r="2" fill="#552222"/><circle cx="82.7" cy="52.6" r="2" fill="#552222"/><circle cx="101.3" cy="57.1" r="2" fill="#552222"/><circle cx="119.9" cy="50.5" r="2" fill="#552222"/><circle cx="138.6" cy="48.1" r="2" fill="#552222"/><circle cx="157.3" cy="58.6" r="2" fill="#552222"/><circle cx="175.9" cy="56.7" r="2" fill="#552222"/><circle cx="194.5" cy="53.5" r="2" fill="#552222"/><circle cx="213.2" cy="68.9" r="2" fill="#552222"/><circle cx="231.8" cy="44.9" r="2" fill="#552222"/><circle cx="250.5" cy="51.2" r="2" fill="#552222"/><circle cx="269.1" cy="52.9" r="2" fill="#552222"/><circle cx="287.8" cy="50.8" r="2" fill="#552222"/><circle cx="306.5" cy="56.1" r="2" fill="#552222"/><circle cx="325.1" cy="48.0" r="2" fill="#552222"/><circle cx="343.8" cy="58.4" r="2" fill="#552222"/><circle cx="362.4" cy="64.0" r="2" fill="#552222"/><circle cx="381.1" cy="59.3" r="2" fill="#552222"/><circle cx="399.7" cy="61.5" r="2" fill="#552222"/><circle cx="418.3" cy="50.2" r="2" fill="#552222"/><circle cx="437.0" cy="61.6" r="2" fill="#552222"/><circle cx="455.7" cy="49.0" r="2" fill="#552222"/><circle cx="474.3" cy="63.8" r="2" fill="#552222"/><circle cx="492.9" cy="53.4" r="2" fill="#552222"/><circle cx="511.6" cy="47.8" r="2" fill="#552222"/><circle cx="530.3" cy="61.3" r="2" fill="#552222"/><circle cx="548.9" cy="47.5" r="2" fill="#552222"/><circle cx="567.5" cy="57.6" r="2" fill="#552222"/><circle cx="586.2" cy="48.8" r="2" fill="#552222"/><circle cx="604.9" cy="64.7" r="2" fill="#552222"/><circle cx="623.5" cy="53.3" r="2" fill="#552222"/><circle cx="642.1" cy="58.8" r="2" fill="#552222"/><circle cx="660.8" cy="56.5" r="2" fill="#552222"/><circle cx="679.4" cy="50.4" r="2" fill="#552222"/><circle cx="698.1" cy="53.2" r="2" fill="#552222"/><circle cx="716.8" cy="76.7" r="2" fill="#552222"/><circle cx="735.4" cy="53.7" r="2" fill="#552222"/><circle cx="754.1" cy="52.0" r="2" fill="#552222"/><circle cx="772.7" cy="50.0" r="2" fill="#552222"/><circle cx="791.4" cy="63.4" r="2" fill="#552222"/><circle cx="810.0" cy="46.9" r="2" fill="#552222"/><rect x="820" y="169" width="10" height="10" fill="#552222"/><text x="834" y="178" font-size="10" fill="#444">hooked-200</text><path d="M64.0,57.0 L82.7,48.5 L101.3,35.9 L119.9,45.5 L138.6,39.5 L157.3,69.6 L175.9,44.9 L194.5,51.5 L213.2,46.9 L231.8,52.4 L250.5,46.8 L269.1,48.5 L287.8,45.6 L306.5,41.0 L325.1,40.1 L343.8,58.3 L362.4,50.5 L381.1,46.2 L399.7,43.7 L418.3,48.8 L437.0,46.2 L455.7,47.6 L474.3,69.5 L492.9,46.7 L511.6,46.8 L530.3,54.0 L548.9,56.9 L567.5,52.5 L586.2,51.7 L604.9,54.6 L623.5,45.7 L642.1,43.2 L660.8,60.6 L679.4,51.4 L698.1,49.6 L716.8,58.1 L735.4,49.8 L754.1,51.0 L772.7,53.7 L791.4,53.4 L810.0,46.9" fill="none" stroke="#555522" stroke-width="1.6"/><circle cx="64.0" cy="57.0" r="2" fill="#555522"/><circle cx="82.7" cy="48.5" r="2" fill="#555522"/><circle cx="101.3" cy="35.9" r="2" fill="#555522"/><circle cx="119.9" cy="45.5" r="2" fill="#555522"/><circle cx="138.6" cy="39.5" r="2" fill="#555522"/><circle cx="157.3" cy="69.6" r="2" fill="#555522"/><circle cx="175.9" cy="44.9" r="2" fill="#555522"/><circle cx="194.5" cy="51.5" r="2" fill="#555522"/><circle cx="213.2" cy="46.9" r="2" fill="#555522"/><circle cx="231.8" cy="52.4" r="2" fill="#555522"/><circle cx="250.5" cy="46.8" r="2" fill="#555522"/><circle cx="269.1" cy="48.5" r="2" fill="#555522"/><circle cx="287.8" cy="45.6" r="2" fill="#555522"/><circle cx="306.5" cy="41.0" r="2" fill="#555522"/><circle cx="325.1" cy="40.1" r="2" fill="#555522"/><circle cx="343.8" cy="58.3" r="2" fill="#555522"/><circle cx="362.4" cy="50.5" r="2" fill="#555522"/><circle cx="381.1" cy="46.2" r="2" fill="#555522"/><circle cx="399.7" cy="43.7" r="2" fill="#555522"/><circle cx="418.3" cy="48.8" r="2" fill="#555522"/><circle cx="437.0" cy="46.2" r="2" fill="#555522"/><circle cx="455.7" cy="47.6" r="2" fill="#555522"/><circle cx="474.3" cy="69.5" r="2" fill="#555522"/><circle cx="492.9" cy="46.7" r="2" fill="#555522"/><circle cx="511.6" cy="46.8" r="2" fill="#555522"/><circle cx="530.3" cy="54.0" r="2" fill="#555522"/><circle cx="548.9" cy="56.9" r="2" fill="#555522"/><circle cx="567.5" cy="52.5" r="2" fill="#555522"/><circle cx="586.2" cy="51.7" r="2" fill="#555522"/><circle cx="604.9" cy="54.6" r="2" fill="#555522"/><circle cx="623.5" cy="45.7" r="2" fill="#555522"/><circle cx="642.1" cy="43.2" r="2" fill="#555522"/><circle cx="660.8" cy="60.6" r="2" fill="#555522"/><circle cx="679.4" cy="51.4" r="2" fill="#555522"/><circle cx="698.1" cy="49.6" r="2" fill="#555522"/><circle cx="716.8" cy="58.1" r="2" fill="#555522"/><circle cx="735.4" cy="49.8" r="2" fill="#555522"/><circle cx="754.1" cy="51.0" r="2" fill="#555522"/><circle cx="772.7" cy="53.7" r="2" fill="#555522"/><circle cx="791.4" cy="53.4" r="2" fill="#555522"/><circle cx="810.0" cy="46.9" r="2" fill="#555522"/><rect x="820" y="184" width="10" height="10" fill="#555522"/><text x="834" y="193" font-size="10" fill="#444">messy-1000</text><path d="M64.0,50.8 L82.7,42.5 L101.3,41.3 L119.9,40.9 L138.6,40.5 L157.3,51.4 L175.9,37.5 L194.5,47.9 L213.2,48.0 L231.8,37.5 L250.5,58.3 L269.1,44.1 L287.8,37.1 L306.5,47.9 L325.1,42.2 L343.8,72.9 L362.4,48.7 L381.1,54.5 L399.7,34.0 L418.3,40.9 L437.0,56.6 L455.7,44.0 L474.3,51.7 L492.9,43.9 L511.6,51.9 L530.3,54.5 L548.9,44.3 L567.5,42.9 L586.2,44.3 L604.9,61.3 L623.5,50.4 L642.1,50.0 L660.8,61.7 L679.4,54.7 L698.1,49.3 L716.8,50.4 L735.4,52.7 L754.1,51.1 L772.7,59.9 L791.4,65.7 L810.0,46.0" fill="none" stroke="#8855AA" stroke-width="1.6"/><circle cx="64.0" cy="50.8" r="2" fill="#8855AA"/><circle cx="82.7" cy="42.5" r="2" fill="#8855AA"/><circle cx="101.3" cy="41.3" r="2" fill="#8855AA"/><circle cx="119.9" cy="40.9" r="2" fill="#8855AA"/><circle cx="138.6" cy="40.5" r="2" fill="#8855AA"/><circle cx="157.3" cy="51.4" r="2" fill="#8855AA"/><circle cx="175.9" cy="37.5" r="2" fill="#8855AA"/><circle cx="194.5" cy="47.9" r="2" fill="#8855AA"/><circle cx="213.2" cy="48.0" r="2" fill="#8855AA"/><circle cx="231.8" cy="37.5" r="2" fill="#8855AA"/><circle cx="250.5" cy="58.3" r="2" fill="#8855AA"/><circle cx="269.1" cy="44.1" r="2" fill="#8855AA"/><circle cx="287.8" cy="37.1" r="2" fill="#8855AA"/><circle cx="306.5" cy="47.9" r="2" fill="#8855AA"/><circle cx="325.1" cy="42.2" r="2" fill="#8855AA"/><circle cx="343.8" cy="72.9" r="2" fill="#8855AA"/><circle cx="362.4" cy="48.7" r="2" fill="#8855AA"/><circle cx="381.1" cy="54.5" r="2" fill="#8855AA"/><circle cx="399.7" cy="34.0" r="2" fill="#8855AA"/><circle cx="418.3" cy="40.9" r="2" fill="#8855AA"/><circle cx="437.0" cy="56.6" r="2" fill="#8855AA"/><circle cx="455.7" cy="44.0" r="2" fill="#8855AA"/><circle cx="474.3" cy="51.7" r="2" fill="#8855AA"/><circle cx="492.9" cy="43.9" r="2" fill="#8855AA"/><circle cx="511.6" cy="51.9" r="2" fill="#8855AA"/><circle cx="530.3" cy="54.5" r="2" fill="#8855AA"/><circle cx="548.9" cy="44.3" r="2" fill="#8855AA"/><circle cx="567.5" cy="42.9" r="2" fill="#8855AA"/><circle cx="586.2" cy="44.3" r="2" fill="#8855AA"/><circle cx="604.9" cy="61.3" r="2" fill="#8855AA"/><circle cx="623.5" cy="50.4" r="2" fill="#8855AA"/><circle cx="642.1" cy="50.0" r="2" fill="#8855AA"/><circle cx="660.8" cy="61.7" r="2" fill="#8855AA"/><circle cx="679.4" cy="54.7" r="2" fill="#8855AA"/><circle cx="698.1" cy="49.3" r="2" fill="#8855AA"/><circle cx="716.8" cy="50.4" r="2" fill="#8855AA"/><circle cx="735.4" cy="52.7" r="2" fill="#8855AA"/><circle cx="754.1" cy="51.1" r="2" fill="#8855AA"/><circle cx="772.7" cy="59.9" r="2" fill="#8855AA"/><circle cx="791.4" cy="65.7" r="2" fill="#8855AA"/><circle cx="810.0" cy="46.0" r="2" fill="#8855AA"/><rect x="820" y="199" width="10" height="10" fill="#8855AA"/><text x="834" y="208" font-size="10" fill="#444">messy-5000</text></svg>