<svg width="960" height="372" xmlns="http://www.w3.org/2000/svg"><rect width="960" height="372" fill="#ffffff"/><text x="64" y="20" font-size="15" font-weight="bold" fill="#333">list_exit_actions() — ops/sec (log scale) by PR / release, c7g.medium</text><line x1="64" y1="131.99794377201022" x2="810" y2="131.99794377201022" stroke="#eee"/><text x="58" y="135.99794377201022" font-size="10" text-anchor="end" fill="#888">1e5</text><line x1="64.0" y1="34" x2="64.0" y2="324" stroke="#f4f4f4"/><line x1="82.7" y1="34" x2="82.7" y2="324" stroke="#f4f4f4"/><line x1="101.3" y1="34" x2="101.3" y2="324" stroke="#f4f4f4"/><line x1="119.9" y1="34" x2="119.9" y2="324" stroke="#f4f4f4"/><line x1="138.6" y1="34" x2="138.6" y2="324" stroke="#f4f4f4"/><line x1="157.3" y1="34" x2="157.3" y2="324" stroke="#f4f4f4"/><line x1="175.9" y1="34" x2="175.9" y2="324" stroke="#f4f4f4"/><line x1="194.5" y1="34" x2="194.5" y2="324" stroke="#f4f4f4"/><line x1="213.2" y1="34" x2="213.2" y2="324" stroke="#f4f4f4"/><line x1="231.8" y1="34" x2="231.8" y2="324" stroke="#f4f4f4"/><line x1="250.5" y1="34" x2="250.5" y2="324" stroke="#f4f4f4"/><line x1="269.1" y1="34" x2="269.1" y2="324" stroke="#f4f4f4"/><line x1="287.8" y1="34" x2="287.8" y2="324" stroke="#f4f4f4"/><line x1="306.5" y1="34" x2="306.5" y2="324" stroke="#f4f4f4"/><line x1="325.1" y1="34" x2="325.1" y2="324" stroke="#f4f4f4"/><line x1="343.8" y1="34" x2="343.8" y2="324" stroke="#f4f4f4"/><line x1="362.4" y1="34" x2="362.4" y2="324" stroke="#f4f4f4"/><line x1="381.1" y1="34" x2="381.1" y2="324" stroke="#f4f4f4"/><line x1="399.7" y1="34" x2="399.7" y2="324" stroke="#f4f4f4"/><line x1="418.3" y1="34" x2="418.3" y2="324" stroke="#f4f4f4"/><line x1="437.0" y1="34" x2="437.0" y2="324" stroke="#f4f4f4"/><line x1="455.7" y1="34" x2="455.7" y2="324" stroke="#f4f4f4"/><line x1="474.3" y1="34" x2="474.3" y2="324" stroke="#f4f4f4"/><line x1="492.9" y1="34" x2="492.9" y2="324" stroke="#f4f4f4"/><line x1="511.6" y1="34" x2="511.6" y2="324" stroke="#f4f4f4"/><line x1="530.3" y1="34" x2="530.3" y2="324" stroke="#f4f4f4"/><line x1="548.9" y1="34" x2="548.9" y2="324" stroke="#f4f4f4"/><line x1="567.5" y1="34" x2="567.5" y2="324" stroke="#f4f4f4"/><line x1="586.2" y1="34" x2="586.2" y2="324" stroke="#f4f4f4"/><line x1="604.9" y1="34" x2="604.9" y2="324" stroke="#f4f4f4"/><line x1="623.5" y1="34" x2="623.5" y2="324" stroke="#f4f4f4"/><line x1="642.1" y1="34" x2="642.1" y2="324" stroke="#f4f4f4"/><line x1="660.8" y1="34" x2="660.8" y2="324" stroke="#f4f4f4"/><line x1="679.4" y1="34" x2="679.4" y2="324" stroke="#f4f4f4"/><line x1="698.1" y1="34" x2="698.1" y2="324" stroke="#f4f4f4"/><line x1="716.8" y1="34" x2="716.8" y2="324" stroke="#f4f4f4"/><line x1="735.4" y1="34" x2="735.4" y2="324" stroke="#f4f4f4"/><line x1="754.1" y1="34" x2="754.1" y2="324" stroke="#f4f4f4"/><line x1="772.7" y1="34" x2="772.7" y2="324" stroke="#f4f4f4"/><line x1="791.4" y1="34" x2="791.4" y2="324" stroke="#f4f4f4"/><line x1="810.0" y1="34" x2="810.0" y2="324" stroke="#f4f4f4"/><text x="64.0" y="340" font-size="9" text-anchor="middle" fill="#888">598</text><text x="101.3" y="340" font-size="9" text-anchor="middle" fill="#888">600</text><text x="138.6" y="340" font-size="9" text-anchor="middle" fill="#888">602</text><text x="175.9" y="340" font-size="9" text-anchor="middle" fill="#888">604</text><text x="213.2" y="340" font-size="9" text-anchor="middle" fill="#888">611</text><text x="250.5" y="340" font-size="9" text-anchor="middle" fill="#888">616</text><text x="287.8" y="340" font-size="9" text-anchor="middle" fill="#888">618</text><text x="325.1" y="340" font-size="9" text-anchor="middle" fill="#888">634</text><text x="362.4" y="340" font-size="9" text-anchor="middle" fill="#888">649</text><text x="399.7" y="340" font-size="9" text-anchor="middle" fill="#888">674</text><text x="437.0" y="340" font-size="9" text-anchor="middle" fill="#888">679</text><text x="474.3" y="340" font-size="9" text-anchor="middle" fill="#888">681</text><text x="511.6" y="340" font-size="9" text-anchor="end" fill="#a40" transform="rotate(-35 511.6 340)">v5.143.30</text><text x="548.9" y="340" font-size="9" text-anchor="end" fill="#a40" transform="rotate(-35 548.9 340)">v5.143.33</text><text x="586.2" y="340" font-size="9" text-anchor="end" fill="#a40" transform="rotate(-35 586.2 340)">v5.143.35</text><text x="623.5" y="340" font-size="9" text-anchor="end" fill="#a40" transform="rotate(-35 623.5 340)">v5.144.1</text><text x="660.8" y="340" font-size="9" text-anchor="end" fill="#a40" transform="rotate(-35 660.8 340)">v5.144.3</text><text x="698.1" y="340" font-size="9" text-anchor="end" fill="#a40" transform="rotate(-35 698.1 340)">v5.144.5</text><text x="735.4" y="340" font-size="9" text-anchor="end" fill="#a40" transform="rotate(-35 735.4 340)">v5.144.8</text><text x="772.7" y="340" font-size="9" text-anchor="end" fill="#a40" transform="rotate(-35 772.7 340)">v5.145.1</text><text x="810.0" y="340" font-size="9" text-anchor="end" fill="#a40" transform="rotate(-35 810.0 340)">v5.145.3</text><path d="M660.8,34.0 L679.4,36.7 L698.1,42.2 L716.8,42.5 L735.4,34.5 L754.1,42.7 L772.7,35.7 L791.4,34.7 L810.0,35.0" fill="none" stroke="#4477AA" stroke-width="1.6"/><circle cx="660.8" cy="34.0" r="2" fill="#4477AA"/><circle cx="679.4" cy="36.7" r="2" fill="#4477AA"/><circle cx="698.1" cy="42.2" r="2" fill="#4477AA"/><circle cx="716.8" cy="42.5" r="2" fill="#4477AA"/><circle cx="735.4" cy="34.5" r="2" fill="#4477AA"/><circle cx="754.1" cy="42.7" r="2" fill="#4477AA"/><circle cx="772.7" cy="35.7" r="2" fill="#4477AA"/><circle cx="791.4" cy="34.7" r="2" fill="#4477AA"/><circle cx="810.0" cy="35.0" r="2" fill="#4477AA"/><rect x="820" y="34" width="10" height="10" fill="#4477AA"/><text x="834" y="43" font-size="10" fill="#444">chain-10</text><path d="M660.8,54.1 L679.4,46.3 L698.1,50.2 L716.8,56.0 L735.4,42.4 L754.1,51.7 L772.7,46.4 L791.4,48.4 L810.0,43.7" fill="none" stroke="#EE6677" stroke-width="1.6"/><circle cx="660.8" cy="54.1" r="2" fill="#EE6677"/><circle cx="679.4" cy="46.3" r="2" fill="#EE6677"/><circle cx="698.1" cy="50.2" r="2" fill="#EE6677"/><circle cx="716.8" cy="56.0" r="2" fill="#EE6677"/><circle cx="735.4" cy="42.4" r="2" fill="#EE6677"/><circle cx="754.1" cy="51.7" r="2" fill="#EE6677"/><circle cx="772.7" cy="46.4" r="2" fill="#EE6677"/><circle cx="791.4" cy="48.4" r="2" fill="#EE6677"/><circle cx="810.0" cy="43.7" r="2" fill="#EE6677"/><rect x="820" y="49" width="10" height="10" fill="#EE6677"/><text x="834" y="58" font-size="10" fill="#444">chain-50</text><path d="M660.8,67.9 L679.4,65.6 L698.1,67.4 L716.8,68.7 L735.4,63.4 L754.1,68.3 L772.7,69.6 L791.4,64.1 L810.0,60.2" fill="none" stroke="#228833" stroke-width="1.6"/><circle cx="660.8" cy="67.9" r="2" fill="#228833"/><circle cx="679.4" cy="65.6" r="2" fill="#228833"/><circle cx="698.1" cy="67.4" r="2" fill="#228833"/><circle cx="716.8" cy="68.7" r="2" fill="#228833"/><circle cx="735.4" cy="63.4" r="2" fill="#228833"/><circle cx="754.1" cy="68.3" r="2" fill="#228833"/><circle cx="772.7" cy="69.6" r="2" fill="#228833"/><circle cx="791.4" cy="64.1" r="2" fill="#228833"/><circle cx="810.0" cy="60.2" r="2" fill="#228833"/><rect x="820" y="64" width="10" height="10" fill="#228833"/><text x="834" y="73" font-size="10" fill="#444">chain-200</text><path d="M660.8,80.1 L679.4,81.6 L698.1,80.2 L716.8,76.7 L735.4,75.5 L754.1,82.3 L772.7,83.5 L791.4,77.0 L810.0,79.6" fill="none" stroke="#CCBB44" stroke-width="1.6"/><circle cx="660.8" cy="80.1" r="2" fill="#CCBB44"/><circle cx="679.4" cy="81.6" r="2" fill="#CCBB44"/><circle cx="698.1" cy="80.2" r="2" fill="#CCBB44"/><circle cx="716.8" cy="76.7" r="2" fill="#CCBB44"/><circle cx="735.4" cy="75.5" r="2" fill="#CCBB44"/><circle cx="754.1" cy="82.3" r="2" fill="#CCBB44"/><circle cx="772.7" cy="83.5" r="2" fill="#CCBB44"/><circle cx="791.4" cy="77.0" r="2" fill="#CCBB44"/><circle cx="810.0" cy="79.6" r="2" fill="#CCBB44"/><rect x="820" y="79" width="10" height="10" fill="#CCBB44"/><text x="834" y="88" font-size="10" fill="#444">chain-1000</text><path d="M660.8,75.1 L679.4,73.4 L698.1,74.5 L716.8,80.0 L735.4,71.1 L754.1,81.6 L772.7,73.9 L791.4,76.9 L810.0,73.7" fill="none" stroke="#66CCEE" stroke-width="1.6"/><circle cx="660.8" cy="75.1" r="2" fill="#66CCEE"/><circle cx="679.4" cy="73.4" r="2" fill="#66CCEE"/><circle cx="698.1" cy="74.5" r="2" fill="#66CCEE"/><circle cx="716.8" cy="80.0" r="2" fill="#66CCEE"/><circle cx="735.4" cy="71.1" r="2" fill="#66CCEE"/><circle cx="754.1" cy="81.6" r="2" fill="#66CCEE"/><circle cx="772.7" cy="73.9" r="2" fill="#66CCEE"/><circle cx="791.4" cy="76.9" r="2" fill="#66CCEE"/><circle cx="810.0" cy="73.7" r="2" fill="#66CCEE"/><rect x="820" y="94" width="10" height="10" fill="#66CCEE"/><text x="834" y="103" font-size="10" fill="#444">dense-10</text><path d="M660.8,190.4 L679.4,187.6 L698.1,189.1 L716.8,192.4 L735.4,187.9 L754.1,190.4 L772.7,189.5 L791.4,187.7 L810.0,186.7" fill="none" stroke="#AA3377" stroke-width="1.6"/><circle cx="660.8" cy="190.4" r="2" fill="#AA3377"/><circle cx="679.4" cy="187.6" r="2" fill="#AA3377"/><circle cx="698.1" cy="189.1" r="2" fill="#AA3377"/><circle cx="716.8" cy="192.4" r="2" fill="#AA3377"/><circle cx="735.4" cy="187.9" r="2" fill="#AA3377"/><circle cx="754.1" cy="190.4" r="2" fill="#AA3377"/><circle cx="772.7" cy="189.5" r="2" fill="#AA3377"/><circle cx="791.4" cy="187.7" r="2" fill="#AA3377"/><circle cx="810.0" cy="186.7" r="2" fill="#AA3377"/><rect x="820" y="109" width="10" height="10" fill="#AA3377"/><text x="834" y="118" font-size="10" fill="#444">dense-50</text><path d="M660.8,319.1 L679.4,324.0 L698.1,321.9 L716.8,321.1 L735.4,322.2 L754.1,322.4 L772.7,324.0 L791.4,319.9 L810.0,320.7" fill="none" stroke="#BBBBBB" stroke-width="1.6"/><circle cx="660.8" cy="319.1" r="2" fill="#BBBBBB"/><circle cx="679.4" cy="324.0" r="2" fill="#BBBBBB"/><circle cx="698.1" cy="321.9" r="2" fill="#BBBBBB"/><circle cx="716.8" cy="321.1" r="2" fill="#BBBBBB"/><circle cx="735.4" cy="322.2" r="2" fill="#BBBBBB"/><circle cx="754.1" cy="322.4" r="2" fill="#BBBBBB"/><circle cx="772.7" cy="324.0" r="2" fill="#BBBBBB"/><circle cx="791.4" cy="319.9" r="2" fill="#BBBBBB"/><circle cx="810.0" cy="320.7" r="2" fill="#BBBBBB"/><rect x="820" y="124" width="10" height="10" fill="#BBBBBB"/><text x="834" y="133" font-size="10" fill="#444">dense-200</text><path d="M660.8,137.1 L679.4,136.6 L698.1,141.5 L716.8,142.6 L735.4,142.6 L754.1,151.0 L772.7,138.5 L791.4,139.8 L810.0,139.0" fill="none" stroke="#222255" stroke-width="1.6"/><circle cx="660.8" cy="137.1" r="2" fill="#222255"/><circle cx="679.4" cy="136.6" r="2" fill="#222255"/><circle cx="698.1" cy="141.5" r="2" fill="#222255"/><circle cx="716.8" cy="142.6" r="2" fill="#222255"/><circle cx="735.4" cy="142.6" r="2" fill="#222255"/><circle cx="754.1" cy="151.0" r="2" fill="#222255"/><circle cx="772.7" cy="138.5" r="2" fill="#222255"/><circle cx="791.4" cy="139.8" r="2" fill="#222255"/><circle cx="810.0" cy="139.0" r="2" fill="#222255"/><rect x="820" y="139" width="10" height="10" fill="#222255"/><text x="834" y="148" font-size="10" fill="#444">hub-50</text><path d="M660.8,251.7 L679.4,253.2 L698.1,252.5 L716.8,255.1 L735.4,254.1 L754.1,252.4 L772.7,254.7 L791.4,254.0 L810.0,250.5" fill="none" stroke="#225555" stroke-width="1.6"/><circle cx="660.8" cy="251.7" r="2" fill="#225555"/><circle cx="679.4" cy="253.2" r="2" fill="#225555"/><circle cx="698.1" cy="252.5" r="2" fill="#225555"/><circle cx="716.8" cy="255.1" r="2" fill="#225555"/><circle cx="735.4" cy="254.1" r="2" fill="#225555"/><circle cx="754.1" cy="252.4" r="2" fill="#225555"/><circle cx="772.7" cy="254.7" r="2" fill="#225555"/><circle cx="791.4" cy="254.0" r="2" fill="#225555"/><circle cx="810.0" cy="250.5" r="2" fill="#225555"/><rect x="820" y="154" width="10" height="10" fill="#225555"/><text x="834" y="163" font-size="10" fill="#444">hub-200</text><path d="M660.8,256.1 L679.4,253.3 L698.1,252.6 L716.8,253.3 L735.4,254.1 L754.1,252.1 L772.7,253.6 L791.4,251.1 L810.0,250.7" fill="none" stroke="#552222" stroke-width="1.6"/><circle cx="660.8" cy="256.1" r="2" fill="#552222"/><circle cx="679.4" cy="253.3" r="2" fill="#552222"/><circle cx="698.1" cy="252.6" r="2" fill="#552222"/><circle cx="716.8" cy="253.3" r="2" fill="#552222"/><circle cx="735.4" cy="254.1" r="2" fill="#552222"/><circle cx="754.1" cy="252.1" r="2" fill="#552222"/><circle cx="772.7" cy="253.6" r="2" fill="#552222"/><circle cx="791.4" cy="251.1" r="2" fill="#552222"/><circle cx="810.0" cy="250.7" r="2" fill="#552222"/><rect x="820" y="169" width="10" height="10" fill="#552222"/><text x="834" y="178" font-size="10" fill="#444">hooked-200</text></svg>