<svg width="960" height="372" xmlns="http://www.w3.org/2000/svg"><rect width="960" height="372" fill="#ffffff"/><text x="64" y="20" font-size="15" font-weight="bold" fill="#333">probable_action_exits() — ops/sec (log scale) by PR / release, c7g.medium</text><line x1="64" y1="201.08254394723647" x2="810" y2="201.08254394723647" stroke="#eee"/><text x="58" y="205.08254394723647" font-size="10" text-anchor="end" fill="#888">1e4</text><line x1="64" y1="55.29859898103899" x2="810" y2="55.29859898103899" stroke="#eee"/><text x="58" y="59.29859898103899" font-size="10" text-anchor="end" fill="#888">1e5</text><line x1="64.0" y1="34" x2="64.0" y2="324" stroke="#f4f4f4"/><line x1="82.7" y1="34" x2="82.7" y2="324" stroke="#f4f4f4"/><line x1="101.3" y1="34" x2="101.3" y2="324" stroke="#f4f4f4"/><line x1="119.9" y1="34" x2="119.9" y2="324" stroke="#f4f4f4"/><line x1="138.6" y1="34" x2="138.6" y2="324" stroke="#f4f4f4"/><line x1="157.3" y1="34" x2="157.3" y2="324" stroke="#f4f4f4"/><line x1="175.9" y1="34" x2="175.9" y2="324" stroke="#f4f4f4"/><line x1="194.5" y1="34" x2="194.5" y2="324" stroke="#f4f4f4"/><line x1="213.2" y1="34" x2="213.2" y2="324" stroke="#f4f4f4"/><line x1="231.8" y1="34" x2="231.8" y2="324" stroke="#f4f4f4"/><line x1="250.5" y1="34" x2="250.5" y2="324" stroke="#f4f4f4"/><line x1="269.1" y1="34" x2="269.1" y2="324" stroke="#f4f4f4"/><line x1="287.8" y1="34" x2="287.8" y2="324" stroke="#f4f4f4"/><line x1="306.5" y1="34" x2="306.5" y2="324" stroke="#f4f4f4"/><line x1="325.1" y1="34" x2="325.1" y2="324" stroke="#f4f4f4"/><line x1="343.8" y1="34" x2="343.8" y2="324" stroke="#f4f4f4"/><line x1="362.4" y1="34" x2="362.4" y2="324" stroke="#f4f4f4"/><line x1="381.1" y1="34" x2="381.1" y2="324" stroke="#f4f4f4"/><line x1="399.7" y1="34" x2="399.7" y2="324" stroke="#f4f4f4"/><line x1="418.3" y1="34" x2="418.3" y2="324" stroke="#f4f4f4"/><line x1="437.0" y1="34" x2="437.0" y2="324" stroke="#f4f4f4"/><line x1="455.7" y1="34" x2="455.7" y2="324" stroke="#f4f4f4"/><line x1="474.3" y1="34" x2="474.3" y2="324" stroke="#f4f4f4"/><line x1="492.9" y1="34" x2="492.9" y2="324" stroke="#f4f4f4"/><line x1="511.6" y1="34" x2="511.6" y2="324" stroke="#f4f4f4"/><line x1="530.3" y1="34" x2="530.3" y2="324" stroke="#f4f4f4"/><line x1="548.9" y1="34" x2="548.9" y2="324" stroke="#f4f4f4"/><line x1="567.5" y1="34" x2="567.5" y2="324" stroke="#f4f4f4"/><line x1="586.2" y1="34" x2="586.2" y2="324" stroke="#f4f4f4"/><line x1="604.9" y1="34" x2="604.9" y2="324" stroke="#f4f4f4"/><line x1="623.5" y1="34" x2="623.5" y2="324" stroke="#f4f4f4"/><line x1="642.1" y1="34" x2="642.1" y2="324" stroke="#f4f4f4"/><line x1="660.8" y1="34" x2="660.8" y2="324" stroke="#f4f4f4"/><line x1="679.4" y1="34" x2="679.4" y2="324" stroke="#f4f4f4"/><line x1="698.1" y1="34" x2="698.1" y2="324" stroke="#f4f4f4"/><line x1="716.8" y1="34" x2="716.8" y2="324" stroke="#f4f4f4"/><line x1="735.4" y1="34" x2="735.4" y2="324" stroke="#f4f4f4"/><line x1="754.1" y1="34" x2="754.1" y2="324" stroke="#f4f4f4"/><line x1="772.7" y1="34" x2="772.7" y2="324" stroke="#f4f4f4"/><line x1="791.4" y1="34" x2="791.4" y2="324" stroke="#f4f4f4"/><line x1="810.0" y1="34" x2="810.0" y2="324" stroke="#f4f4f4"/><text x="64.0" y="340" font-size="9" text-anchor="middle" fill="#888">598</text><text x="101.3" y="340" font-size="9" text-anchor="middle" fill="#888">600</text><text x="138.6" y="340" font-size="9" text-anchor="middle" fill="#888">602</text><text x="175.9" y="340" font-size="9" text-anchor="middle" fill="#888">604</text><text x="213.2" y="340" font-size="9" text-anchor="middle" fill="#888">611</text><text x="250.5" y="340" font-size="9" text-anchor="middle" fill="#888">616</text><text x="287.8" y="340" font-size="9" text-anchor="middle" fill="#888">618</text><text x="325.1" y="340" font-size="9" text-anchor="middle" fill="#888">634</text><text x="362.4" y="340" font-size="9" text-anchor="middle" fill="#888">649</text><text x="399.7" y="340" font-size="9" text-anchor="middle" fill="#888">674</text><text x="437.0" y="340" font-size="9" text-anchor="middle" fill="#888">679</text><text x="474.3" y="340" font-size="9" text-anchor="middle" fill="#888">681</text><text x="511.6" y="340" font-size="9" text-anchor="end" fill="#a40" transform="rotate(-35 511.6 340)">v5.143.30</text><text x="548.9" y="340" font-size="9" text-anchor="end" fill="#a40" transform="rotate(-35 548.9 340)">v5.143.33</text><text x="586.2" y="340" font-size="9" text-anchor="end" fill="#a40" transform="rotate(-35 586.2 340)">v5.143.35</text><text x="623.5" y="340" font-size="9" text-anchor="end" fill="#a40" transform="rotate(-35 623.5 340)">v5.144.1</text><text x="660.8" y="340" font-size="9" text-anchor="end" fill="#a40" transform="rotate(-35 660.8 340)">v5.144.3</text><text x="698.1" y="340" font-size="9" text-anchor="end" fill="#a40" transform="rotate(-35 698.1 340)">v5.144.5</text><text x="735.4" y="340" font-size="9" text-anchor="end" fill="#a40" transform="rotate(-35 735.4 340)">v5.144.8</text><text x="772.7" y="340" font-size="9" text-anchor="end" fill="#a40" transform="rotate(-35 772.7 340)">v5.145.1</text><text x="810.0" y="340" font-size="9" text-anchor="end" fill="#a40" transform="rotate(-35 810.0 340)">v5.145.3</text><path d="M660.8,36.5 L679.4,38.6 L698.1,39.2 L716.8,40.9 L735.4,38.7 L754.1,39.8 L772.7,41.2 L791.4,35.0 L810.0,34.0" fill="none" stroke="#4477AA" stroke-width="1.6"/><circle cx="660.8" cy="36.5" r="2" fill="#4477AA"/><circle cx="679.4" cy="38.6" r="2" fill="#4477AA"/><circle cx="698.1" cy="39.2" r="2" fill="#4477AA"/><circle cx="716.8" cy="40.9" r="2" fill="#4477AA"/><circle cx="735.4" cy="38.7" r="2" fill="#4477AA"/><circle cx="754.1" cy="39.8" r="2" fill="#4477AA"/><circle cx="772.7" cy="41.2" r="2" fill="#4477AA"/><circle cx="791.4" cy="35.0" r="2" fill="#4477AA"/><circle cx="810.0" cy="34.0" r="2" fill="#4477AA"/><rect x="820" y="34" width="10" height="10" fill="#4477AA"/><text x="834" y="43" font-size="10" fill="#444">chain-10</text><path d="M660.8,44.4 L679.4,42.2 L698.1,45.0 L716.8,45.2 L735.4,44.2 L754.1,42.9 L772.7,43.9 L791.4,39.9 L810.0,39.0" fill="none" stroke="#EE6677" stroke-width="1.6"/><circle cx="660.8" cy="44.4" r="2" fill="#EE6677"/><circle cx="679.4" cy="42.2" r="2" fill="#EE6677"/><circle cx="698.1" cy="45.0" r="2" fill="#EE6677"/><circle cx="716.8" cy="45.2" r="2" fill="#EE6677"/><circle cx="735.4" cy="44.2" r="2" fill="#EE6677"/><circle cx="754.1" cy="42.9" r="2" fill="#EE6677"/><circle cx="772.7" cy="43.9" r="2" fill="#EE6677"/><circle cx="791.4" cy="39.9" r="2" fill="#EE6677"/><circle cx="810.0" cy="39.0" r="2" fill="#EE6677"/><rect x="820" y="49" width="10" height="10" fill="#EE6677"/><text x="834" y="58" font-size="10" fill="#444">chain-50</text><path d="M660.8,50.2 L679.4,50.5 L698.1,53.1 L716.8,51.6 L735.4,53.3 L754.1,51.7 L772.7,54.5 L791.4,47.4 L810.0,46.9" fill="none" stroke="#228833" stroke-width="1.6"/><circle cx="660.8" cy="50.2" r="2" fill="#228833"/><circle cx="679.4" cy="50.5" r="2" fill="#228833"/><circle cx="698.1" cy="53.1" r="2" fill="#228833"/><circle cx="716.8" cy="51.6" r="2" fill="#228833"/><circle cx="735.4" cy="53.3" r="2" fill="#228833"/><circle cx="754.1" cy="51.7" r="2" fill="#228833"/><circle cx="772.7" cy="54.5" r="2" fill="#228833"/><circle cx="791.4" cy="47.4" r="2" fill="#228833"/><circle cx="810.0" cy="46.9" r="2" fill="#228833"/><rect x="820" y="64" width="10" height="10" fill="#228833"/><text x="834" y="73" font-size="10" fill="#444">chain-200</text><path d="M660.8,58.0 L679.4,60.8 L698.1,58.3 L716.8,59.2 L735.4,59.4 L754.1,57.8 L772.7,61.7 L791.4,54.3 L810.0,55.0" fill="none" stroke="#CCBB44" stroke-width="1.6"/><circle cx="660.8" cy="58.0" r="2" fill="#CCBB44"/><circle cx="679.4" cy="60.8" r="2" fill="#CCBB44"/><circle cx="698.1" cy="58.3" r="2" fill="#CCBB44"/><circle cx="716.8" cy="59.2" r="2" fill="#CCBB44"/><circle cx="735.4" cy="59.4" r="2" fill="#CCBB44"/><circle cx="754.1" cy="57.8" r="2" fill="#CCBB44"/><circle cx="772.7" cy="61.7" r="2" fill="#CCBB44"/><circle cx="791.4" cy="54.3" r="2" fill="#CCBB44"/><circle cx="810.0" cy="55.0" r="2" fill="#CCBB44"/><rect x="820" y="79" width="10" height="10" fill="#CCBB44"/><text x="834" y="88" font-size="10" fill="#444">chain-1000</text><path d="M660.8,120.1 L679.4,118.8 L698.1,122.8 L716.8,122.9 L735.4,125.3 L754.1,120.5 L772.7,125.6 L791.4,116.6 L810.0,115.9" fill="none" stroke="#66CCEE" stroke-width="1.6"/><circle cx="660.8" cy="120.1" r="2" fill="#66CCEE"/><circle cx="679.4" cy="118.8" r="2" fill="#66CCEE"/><circle cx="698.1" cy="122.8" r="2" fill="#66CCEE"/><circle cx="716.8" cy="122.9" r="2" fill="#66CCEE"/><circle cx="735.4" cy="125.3" r="2" fill="#66CCEE"/><circle cx="754.1" cy="120.5" r="2" fill="#66CCEE"/><circle cx="772.7" cy="125.6" r="2" fill="#66CCEE"/><circle cx="791.4" cy="116.6" r="2" fill="#66CCEE"/><circle cx="810.0" cy="115.9" r="2" fill="#66CCEE"/><rect x="820" y="94" width="10" height="10" fill="#66CCEE"/><text x="834" y="103" font-size="10" fill="#444">dense-10</text><path d="M660.8,223.4 L679.4,227.1 L698.1,228.9 L716.8,229.5 L735.4,231.7 L754.1,221.5 L772.7,230.0 L791.4,221.6 L810.0,219.4" fill="none" stroke="#AA3377" stroke-width="1.6"/><circle cx="660.8" cy="223.4" r="2" fill="#AA3377"/><circle cx="679.4" cy="227.1" r="2" fill="#AA3377"/><circle cx="698.1" cy="228.9" r="2" fill="#AA3377"/><circle cx="716.8" cy="229.5" r="2" fill="#AA3377"/><circle cx="735.4" cy="231.7" r="2" fill="#AA3377"/><circle cx="754.1" cy="221.5" r="2" fill="#AA3377"/><circle cx="772.7" cy="230.0" r="2" fill="#AA3377"/><circle cx="791.4" cy="221.6" r="2" fill="#AA3377"/><circle cx="810.0" cy="219.4" r="2" fill="#AA3377"/><rect x="820" y="109" width="10" height="10" fill="#AA3377"/><text x="834" y="118" font-size="10" fill="#444">dense-50</text><path d="M660.8,310.2 L679.4,316.5 L698.1,324.0 L716.8,322.7 L735.4,323.5 L754.1,312.0 L772.7,321.1 L791.4,310.8 L810.0,309.8" fill="none" stroke="#BBBBBB" stroke-width="1.6"/><circle cx="660.8" cy="310.2" r="2" fill="#BBBBBB"/><circle cx="679.4" cy="316.5" r="2" fill="#BBBBBB"/><circle cx="698.1" cy="324.0" r="2" fill="#BBBBBB"/><circle cx="716.8" cy="322.7" r="2" fill="#BBBBBB"/><circle cx="735.4" cy="323.5" r="2" fill="#BBBBBB"/><circle cx="754.1" cy="312.0" r="2" fill="#BBBBBB"/><circle cx="772.7" cy="321.1" r="2" fill="#BBBBBB"/><circle cx="791.4" cy="310.8" r="2" fill="#BBBBBB"/><circle cx="810.0" cy="309.8" r="2" fill="#BBBBBB"/><rect x="820" y="124" width="10" height="10" fill="#BBBBBB"/><text x="834" y="133" font-size="10" fill="#444">dense-200</text><path d="M660.8,178.1 L679.4,179.5 L698.1,182.5 L716.8,182.0 L735.4,186.2 L754.1,180.4 L772.7,185.5 L791.4,176.4 L810.0,176.0" fill="none" stroke="#222255" stroke-width="1.6"/><circle cx="660.8" cy="178.1" r="2" fill="#222255"/><circle cx="679.4" cy="179.5" r="2" fill="#222255"/><circle cx="698.1" cy="182.5" r="2" fill="#222255"/><circle cx="716.8" cy="182.0" r="2" fill="#222255"/><circle cx="735.4" cy="186.2" r="2" fill="#222255"/><circle cx="754.1" cy="180.4" r="2" fill="#222255"/><circle cx="772.7" cy="185.5" r="2" fill="#222255"/><circle cx="791.4" cy="176.4" r="2" fill="#222255"/><circle cx="810.0" cy="176.0" r="2" fill="#222255"/><rect x="820" y="139" width="10" height="10" fill="#222255"/><text x="834" y="148" font-size="10" fill="#444">hub-50</text><path d="M660.8,262.1 L679.4,263.9 L698.1,269.8 L716.8,268.1 L735.4,271.2 L754.1,266.8 L772.7,273.5 L791.4,259.8 L810.0,259.4" fill="none" stroke="#225555" stroke-width="1.6"/><circle cx="660.8" cy="262.1" r="2" fill="#225555"/><circle cx="679.4" cy="263.9" r="2" fill="#225555"/><circle cx="698.1" cy="269.8" r="2" fill="#225555"/><circle cx="716.8" cy="268.1" r="2" fill="#225555"/><circle cx="735.4" cy="271.2" r="2" fill="#225555"/><circle cx="754.1" cy="266.8" r="2" fill="#225555"/><circle cx="772.7" cy="273.5" r="2" fill="#225555"/><circle cx="791.4" cy="259.8" r="2" fill="#225555"/><circle cx="810.0" cy="259.4" r="2" fill="#225555"/><rect x="820" y="154" width="10" height="10" fill="#225555"/><text x="834" y="163" font-size="10" fill="#444">hub-200</text><path d="M660.8,262.0 L679.4,262.0 L698.1,267.5 L716.8,272.1 L735.4,271.2 L754.1,265.1 L772.7,272.7 L791.4,259.8 L810.0,259.5" fill="none" stroke="#552222" stroke-width="1.6"/><circle cx="660.8" cy="262.0" r="2" fill="#552222"/><circle cx="679.4" cy="262.0" r="2" fill="#552222"/><circle cx="698.1" cy="267.5" r="2" fill="#552222"/><circle cx="716.8" cy="272.1" r="2" fill="#552222"/><circle cx="735.4" cy="271.2" r="2" fill="#552222"/><circle cx="754.1" cy="265.1" r="2" fill="#552222"/><circle cx="772.7" cy="272.7" r="2" fill="#552222"/><circle cx="791.4" cy="259.8" r="2" fill="#552222"/><circle cx="810.0" cy="259.5" r="2" fill="#552222"/><rect x="820" y="169" width="10" height="10" fill="#552222"/><text x="834" y="178" font-size="10" fill="#444">hooked-200</text></svg>