<svg width="960" height="372" xmlns="http://www.w3.org/2000/svg"><rect width="960" height="372" fill="#ffffff"/><text x="64" y="20" font-size="15" font-weight="bold" fill="#333">transition() — ops/sec (log scale) by PR / release, c7g.medium</text><line x1="64" y1="124.25384085364578" x2="810" y2="124.25384085364578" stroke="#eee"/><text x="58" y="128.25384085364578" font-size="10" text-anchor="end" fill="#888">1e5</text><line x1="64.0" y1="34" x2="64.0" y2="324" stroke="#f4f4f4"/><line x1="82.7" y1="34" x2="82.7" y2="324" stroke="#f4f4f4"/><line x1="101.3" y1="34" x2="101.3" y2="324" stroke="#f4f4f4"/><line x1="119.9" y1="34" x2="119.9" y2="324" stroke="#f4f4f4"/><line x1="138.6" y1="34" x2="138.6" y2="324" stroke="#f4f4f4"/><line x1="157.3" y1="34" x2="157.3" y2="324" stroke="#f4f4f4"/><line x1="175.9" y1="34" x2="175.9" y2="324" stroke="#f4f4f4"/><line x1="194.5" y1="34" x2="194.5" y2="324" stroke="#f4f4f4"/><line x1="213.2" y1="34" x2="213.2" y2="324" stroke="#f4f4f4"/><line x1="231.8" y1="34" x2="231.8" y2="324" stroke="#f4f4f4"/><line x1="250.5" y1="34" x2="250.5" y2="324" stroke="#f4f4f4"/><line x1="269.1" y1="34" x2="269.1" y2="324" stroke="#f4f4f4"/><line x1="287.8" y1="34" x2="287.8" y2="324" stroke="#f4f4f4"/><line x1="306.5" y1="34" x2="306.5" y2="324" stroke="#f4f4f4"/><line x1="325.1" y1="34" x2="325.1" y2="324" stroke="#f4f4f4"/><line x1="343.8" y1="34" x2="343.8" y2="324" stroke="#f4f4f4"/><line x1="362.4" y1="34" x2="362.4" y2="324" stroke="#f4f4f4"/><line x1="381.1" y1="34" x2="381.1" y2="324" stroke="#f4f4f4"/><line x1="399.7" y1="34" x2="399.7" y2="324" stroke="#f4f4f4"/><line x1="418.3" y1="34" x2="418.3" y2="324" stroke="#f4f4f4"/><line x1="437.0" y1="34" x2="437.0" y2="324" stroke="#f4f4f4"/><line x1="455.7" y1="34" x2="455.7" y2="324" stroke="#f4f4f4"/><line x1="474.3" y1="34" x2="474.3" y2="324" stroke="#f4f4f4"/><line x1="492.9" y1="34" x2="492.9" y2="324" stroke="#f4f4f4"/><line x1="511.6" y1="34" x2="511.6" y2="324" stroke="#f4f4f4"/><line x1="530.3" y1="34" x2="530.3" y2="324" stroke="#f4f4f4"/><line x1="548.9" y1="34" x2="548.9" y2="324" stroke="#f4f4f4"/><line x1="567.5" y1="34" x2="567.5" y2="324" stroke="#f4f4f4"/><line x1="586.2" y1="34" x2="586.2" y2="324" stroke="#f4f4f4"/><line x1="604.9" y1="34" x2="604.9" y2="324" stroke="#f4f4f4"/><line x1="623.5" y1="34" x2="623.5" y2="324" stroke="#f4f4f4"/><line x1="642.1" y1="34" x2="642.1" y2="324" stroke="#f4f4f4"/><line x1="660.8" y1="34" x2="660.8" y2="324" stroke="#f4f4f4"/><line x1="679.4" y1="34" x2="679.4" y2="324" stroke="#f4f4f4"/><line x1="698.1" y1="34" x2="698.1" y2="324" stroke="#f4f4f4"/><line x1="716.8" y1="34" x2="716.8" y2="324" stroke="#f4f4f4"/><line x1="735.4" y1="34" x2="735.4" y2="324" stroke="#f4f4f4"/><line x1="754.1" y1="34" x2="754.1" y2="324" stroke="#f4f4f4"/><line x1="772.7" y1="34" x2="772.7" y2="324" stroke="#f4f4f4"/><line x1="791.4" y1="34" x2="791.4" y2="324" stroke="#f4f4f4"/><line x1="810.0" y1="34" x2="810.0" y2="324" stroke="#f4f4f4"/><text x="64.0" y="340" font-size="9" text-anchor="middle" fill="#888">598</text><text x="101.3" y="340" font-size="9" text-anchor="middle" fill="#888">600</text><text x="138.6" y="340" font-size="9" text-anchor="middle" fill="#888">602</text><text x="175.9" y="340" font-size="9" text-anchor="middle" fill="#888">604</text><text x="213.2" y="340" font-size="9" text-anchor="middle" fill="#888">611</text><text x="250.5" y="340" font-size="9" text-anchor="middle" fill="#888">616</text><text x="287.8" y="340" font-size="9" text-anchor="middle" fill="#888">618</text><text x="325.1" y="340" font-size="9" text-anchor="middle" fill="#888">634</text><text x="362.4" y="340" font-size="9" text-anchor="middle" fill="#888">649</text><text x="399.7" y="340" font-size="9" text-anchor="middle" fill="#888">674</text><text x="437.0" y="340" font-size="9" text-anchor="middle" fill="#888">679</text><text x="474.3" y="340" font-size="9" text-anchor="middle" fill="#888">681</text><text x="511.6" y="340" font-size="9" text-anchor="end" fill="#a40" transform="rotate(-35 511.6 340)">v5.143.30</text><text x="548.9" y="340" font-size="9" text-anchor="end" fill="#a40" transform="rotate(-35 548.9 340)">v5.143.33</text><text x="586.2" y="340" font-size="9" text-anchor="end" fill="#a40" transform="rotate(-35 586.2 340)">v5.143.35</text><text x="623.5" y="340" font-size="9" text-anchor="end" fill="#a40" transform="rotate(-35 623.5 340)">v5.144.1</text><text x="660.8" y="340" font-size="9" text-anchor="end" fill="#a40" transform="rotate(-35 660.8 340)">v5.144.3</text><text x="698.1" y="340" font-size="9" text-anchor="end" fill="#a40" transform="rotate(-35 698.1 340)">v5.144.5</text><text x="735.4" y="340" font-size="9" text-anchor="end" fill="#a40" transform="rotate(-35 735.4 340)">v5.144.8</text><text x="772.7" y="340" font-size="9" text-anchor="end" fill="#a40" transform="rotate(-35 772.7 340)">v5.145.1</text><text x="810.0" y="340" font-size="9" text-anchor="end" fill="#a40" transform="rotate(-35 810.0 340)">v5.145.3</text><path d="M64.0,47.0 L82.7,58.7 L101.3,52.6 L119.9,41.7 L138.6,50.9 L157.3,42.5 L175.9,53.1 L194.5,44.7 L213.2,48.1 L231.8,46.8 L250.5,41.5 L269.1,43.1 L287.8,49.2 L306.5,43.1 L325.1,51.4 L343.8,56.2 L362.4,43.7 L381.1,51.6 L399.7,55.5 L418.3,51.2 L437.0,55.0 L455.7,34.0 L474.3,47.8 L492.9,73.3 L511.6,102.4 L530.3,106.2 L548.9,98.1 L567.5,103.3 L586.2,104.0 L604.9,98.7 L623.5,96.9 L642.1,98.8 L660.8,101.8 L679.4,104.7 L698.1,99.5 L716.8,107.5 L735.4,98.5 L754.1,114.3 L772.7,107.8 L791.4,100.7 L810.0,102.2" fill="none" stroke="#4477AA" stroke-width="1.6"/><circle cx="64.0" cy="47.0" r="2" fill="#4477AA"/><circle cx="82.7" cy="58.7" r="2" fill="#4477AA"/><circle cx="101.3" cy="52.6" r="2" fill="#4477AA"/><circle cx="119.9" cy="41.7" r="2" fill="#4477AA"/><circle cx="138.6" cy="50.9" r="2" fill="#4477AA"/><circle cx="157.3" cy="42.5" r="2" fill="#4477AA"/><circle cx="175.9" cy="53.1" r="2" fill="#4477AA"/><circle cx="194.5" cy="44.7" r="2" fill="#4477AA"/><circle cx="213.2" cy="48.1" r="2" fill="#4477AA"/><circle cx="231.8" cy="46.8" r="2" fill="#4477AA"/><circle cx="250.5" cy="41.5" r="2" fill="#4477AA"/><circle cx="269.1" cy="43.1" r="2" fill="#4477AA"/><circle cx="287.8" cy="49.2" r="2" fill="#4477AA"/><circle cx="306.5" cy="43.1" r="2" fill="#4477AA"/><circle cx="325.1" cy="51.4" r="2" fill="#4477AA"/><circle cx="343.8" cy="56.2" r="2" fill="#4477AA"/><circle cx="362.4" cy="43.7" r="2" fill="#4477AA"/><circle cx="381.1" cy="51.6" r="2" fill="#4477AA"/><circle cx="399.7" cy="55.5" r="2" fill="#4477AA"/><circle cx="418.3" cy="51.2" r="2" fill="#4477AA"/><circle cx="437.0" cy="55.0" r="2" fill="#4477AA"/><circle cx="455.7" cy="34.0" r="2" fill="#4477AA"/><circle cx="474.3" cy="47.8" r="2" fill="#4477AA"/><circle cx="492.9" cy="73.3" r="2" fill="#4477AA"/><circle cx="511.6" cy="102.4" r="2" fill="#4477AA"/><circle cx="530.3" cy="106.2" r="2" fill="#4477AA"/><circle cx="548.9" cy="98.1" r="2" fill="#4477AA"/><circle cx="567.5" cy="103.3" r="2" fill="#4477AA"/><circle cx="586.2" cy="104.0" r="2" fill="#4477AA"/><circle cx="604.9" cy="98.7" r="2" fill="#4477AA"/><circle cx="623.5" cy="96.9" r="2" fill="#4477AA"/><circle cx="642.1" cy="98.8" r="2" fill="#4477AA"/><circle cx="660.8" cy="101.8" r="2" fill="#4477AA"/><circle cx="679.4" cy="104.7" r="2" fill="#4477AA"/><circle cx="698.1" cy="99.5" r="2" fill="#4477AA"/><circle cx="716.8" cy="107.5" r="2" fill="#4477AA"/><circle cx="735.4" cy="98.5" r="2" fill="#4477AA"/><circle cx="754.1" cy="114.3" r="2" fill="#4477AA"/><circle cx="772.7" cy="107.8" r="2" fill="#4477AA"/><circle cx="791.4" cy="100.7" r="2" fill="#4477AA"/><circle cx="810.0" cy="102.2" r="2" fill="#4477AA"/><rect x="820" y="34" width="10" height="10" fill="#4477AA"/><text x="834" y="43" font-size="10" fill="#444">chain-10</text><path d="M64.0,69.8 L82.7,64.8 L101.3,54.5 L119.9,58.5 L138.6,55.1 L157.3,62.7 L175.9,61.6 L194.5,54.8 L213.2,64.9 L231.8,62.4 L250.5,60.7 L269.1,67.6 L287.8,62.4 L306.5,60.2 L325.1,67.3 L343.8,58.4 L362.4,68.9 L381.1,69.9 L399.7,66.6 L418.3,64.7 L437.0,59.7 L455.7,56.1 L474.3,61.2 L492.9,62.5 L511.6,106.6 L530.3,107.2 L548.9,104.8 L567.5,101.3 L586.2,105.0 L604.9,106.5 L623.5,102.7 L642.1,108.4 L660.8,111.5 L679.4,110.0 L698.1,108.7 L716.8,112.0 L735.4,107.5 L754.1,114.4 L772.7,107.7 L791.4,106.0 L810.0,108.1" fill="none" stroke="#EE6677" stroke-width="1.6"/><circle cx="64.0" cy="69.8" r="2" fill="#EE6677"/><circle cx="82.7" cy="64.8" r="2" fill="#EE6677"/><circle cx="101.3" cy="54.5" r="2" fill="#EE6677"/><circle cx="119.9" cy="58.5" r="2" fill="#EE6677"/><circle cx="138.6" cy="55.1" r="2" fill="#EE6677"/><circle cx="157.3" cy="62.7" r="2" fill="#EE6677"/><circle cx="175.9" cy="61.6" r="2" fill="#EE6677"/><circle cx="194.5" cy="54.8" r="2" fill="#EE6677"/><circle cx="213.2" cy="64.9" r="2" fill="#EE6677"/><circle cx="231.8" cy="62.4" r="2" fill="#EE6677"/><circle cx="250.5" cy="60.7" r="2" fill="#EE6677"/><circle cx="269.1" cy="67.6" r="2" fill="#EE6677"/><circle cx="287.8" cy="62.4" r="2" fill="#EE6677"/><circle cx="306.5" cy="60.2" r="2" fill="#EE6677"/><circle cx="325.1" cy="67.3" r="2" fill="#EE6677"/><circle cx="343.8" cy="58.4" r="2" fill="#EE6677"/><circle cx="362.4" cy="68.9" r="2" fill="#EE6677"/><circle cx="381.1" cy="69.9" r="2" fill="#EE6677"/><circle cx="399.7" cy="66.6" r="2" fill="#EE6677"/><circle cx="418.3" cy="64.7" r="2" fill="#EE6677"/><circle cx="437.0" cy="59.7" r="2" fill="#EE6677"/><circle cx="455.7" cy="56.1" r="2" fill="#EE6677"/><circle cx="474.3" cy="61.2" r="2" fill="#EE6677"/><circle cx="492.9" cy="62.5" r="2" fill="#EE6677"/><circle cx="511.6" cy="106.6" r="2" fill="#EE6677"/><circle cx="530.3" cy="107.2" r="2" fill="#EE6677"/><circle cx="548.9" cy="104.8" r="2" fill="#EE6677"/><circle cx="567.5" cy="101.3" r="2" fill="#EE6677"/><circle cx="586.2" cy="105.0" r="2" fill="#EE6677"/><circle cx="604.9" cy="106.5" r="2" fill="#EE6677"/><circle cx="623.5" cy="102.7" r="2" fill="#EE6677"/><circle cx="642.1" cy="108.4" r="2" fill="#EE6677"/><circle cx="660.8" cy="111.5" r="2" fill="#EE6677"/><circle cx="679.4" cy="110.0" r="2" fill="#EE6677"/><circle cx="698.1" cy="108.7" r="2" fill="#EE6677"/><circle cx="716.8" cy="112.0" r="2" fill="#EE6677"/><circle cx="735.4" cy="107.5" r="2" fill="#EE6677"/><circle cx="754.1" cy="114.4" r="2" fill="#EE6677"/><circle cx="772.7" cy="107.7" r="2" fill="#EE6677"/><circle cx="791.4" cy="106.0" r="2" fill="#EE6677"/><circle cx="810.0" cy="108.1" r="2" fill="#EE6677"/><rect x="820" y="49" width="10" height="10" fill="#EE6677"/><text x="834" y="58" font-size="10" fill="#444">chain-50</text><path d="M64.0,78.9 L82.7,78.1 L101.3,77.0 L119.9,77.3 L138.6,74.1 L157.3,74.4 L175.9,84.4 L194.5,79.2 L213.2,78.5 L231.8,77.8 L250.5,80.6 L269.1,82.6 L287.8,75.3 L306.5,82.7 L325.1,82.3 L343.8,79.6 L362.4,81.1 L381.1,82.7 L399.7,79.8 L418.3,78.1 L437.0,80.3 L455.7,60.9 L474.3,78.9 L492.9,76.3 L511.6,128.1 L530.3,126.4 L548.9,127.5 L567.5,128.2 L586.2,125.3 L604.9,124.1 L623.5,124.0 L642.1,129.2 L660.8,130.4 L679.4,129.7 L698.1,129.7 L716.8,130.7 L735.4,128.4 L754.1,132.2 L772.7,136.6 L791.4,128.0 L810.0,126.7" fill="none" stroke="#228833" stroke-width="1.6"/><circle cx="64.0" cy="78.9" r="2" fill="#228833"/><circle cx="82.7" cy="78.1" r="2" fill="#228833"/><circle cx="101.3" cy="77.0" r="2" fill="#228833"/><circle cx="119.9" cy="77.3" r="2" fill="#228833"/><circle cx="138.6" cy="74.1" r="2" fill="#228833"/><circle cx="157.3" cy="74.4" r="2" fill="#228833"/><circle cx="175.9" cy="84.4" r="2" fill="#228833"/><circle cx="194.5" cy="79.2" r="2" fill="#228833"/><circle cx="213.2" cy="78.5" r="2" fill="#228833"/><circle cx="231.8" cy="77.8" r="2" fill="#228833"/><circle cx="250.5" cy="80.6" r="2" fill="#228833"/><circle cx="269.1" cy="82.6" r="2" fill="#228833"/><circle cx="287.8" cy="75.3" r="2" fill="#228833"/><circle cx="306.5" cy="82.7" r="2" fill="#228833"/><circle cx="325.1" cy="82.3" r="2" fill="#228833"/><circle cx="343.8" cy="79.6" r="2" fill="#228833"/><circle cx="362.4" cy="81.1" r="2" fill="#228833"/><circle cx="381.1" cy="82.7" r="2" fill="#228833"/><circle cx="399.7" cy="79.8" r="2" fill="#228833"/><circle cx="418.3" cy="78.1" r="2" fill="#228833"/><circle cx="437.0" cy="80.3" r="2" fill="#228833"/><circle cx="455.7" cy="60.9" r="2" fill="#228833"/><circle cx="474.3" cy="78.9" r="2" fill="#228833"/><circle cx="492.9" cy="76.3" r="2" fill="#228833"/><circle cx="511.6" cy="128.1" r="2" fill="#228833"/><circle cx="530.3" cy="126.4" r="2" fill="#228833"/><circle cx="548.9" cy="127.5" r="2" fill="#228833"/><circle cx="567.5" cy="128.2" r="2" fill="#228833"/><circle cx="586.2" cy="125.3" r="2" fill="#228833"/><circle cx="604.9" cy="124.1" r="2" fill="#228833"/><circle cx="623.5" cy="124.0" r="2" fill="#228833"/><circle cx="642.1" cy="129.2" r="2" fill="#228833"/><circle cx="660.8" cy="130.4" r="2" fill="#228833"/><circle cx="679.4" cy="129.7" r="2" fill="#228833"/><circle cx="698.1" cy="129.7" r="2" fill="#228833"/><circle cx="716.8" cy="130.7" r="2" fill="#228833"/><circle cx="735.4" cy="128.4" r="2" fill="#228833"/><circle cx="754.1" cy="132.2" r="2" fill="#228833"/><circle cx="772.7" cy="136.6" r="2" fill="#228833"/><circle cx="791.4" cy="128.0" r="2" fill="#228833"/><circle cx="810.0" cy="126.7" r="2" fill="#228833"/><rect x="820" y="64" width="10" height="10" fill="#228833"/><text x="834" y="73" font-size="10" fill="#444">chain-200</text><path d="M64.0,95.0 L82.7,96.2 L101.3,92.5 L119.9,95.8 L138.6,93.7 L157.3,93.9 L175.9,90.7 L194.5,94.8 L213.2,97.8 L231.8,93.6 L250.5,93.8 L269.1,93.5 L287.8,93.8 L306.5,97.3 L325.1,94.4 L343.8,96.3 L362.4,96.4 L381.1,97.6 L399.7,93.9 L418.3,92.6 L437.0,91.8 L455.7,81.7 L474.3,104.4 L492.9,97.0 L511.6,150.2 L530.3,145.7 L548.9,144.9 L567.5,152.0 L586.2,151.0 L604.9,148.0 L623.5,147.0 L642.1,152.5 L660.8,152.4 L679.4,153.4 L698.1,151.2 L716.8,151.1 L735.4,149.7 L754.1,154.7 L772.7,154.9 L791.4,149.8 L810.0,151.3" fill="none" stroke="#CCBB44" stroke-width="1.6"/><circle cx="64.0" cy="95.0" r="2" fill="#CCBB44"/><circle cx="82.7" cy="96.2" r="2" fill="#CCBB44"/><circle cx="101.3" cy="92.5" r="2" fill="#CCBB44"/><circle cx="119.9" cy="95.8" r="2" fill="#CCBB44"/><circle cx="138.6" cy="93.7" r="2" fill="#CCBB44"/><circle cx="157.3" cy="93.9" r="2" fill="#CCBB44"/><circle cx="175.9" cy="90.7" r="2" fill="#CCBB44"/><circle cx="194.5" cy="94.8" r="2" fill="#CCBB44"/><circle cx="213.2" cy="97.8" r="2" fill="#CCBB44"/><circle cx="231.8" cy="93.6" r="2" fill="#CCBB44"/><circle cx="250.5" cy="93.8" r="2" fill="#CCBB44"/><circle cx="269.1" cy="93.5" r="2" fill="#CCBB44"/><circle cx="287.8" cy="93.8" r="2" fill="#CCBB44"/><circle cx="306.5" cy="97.3" r="2" fill="#CCBB44"/><circle cx="325.1" cy="94.4" r="2" fill="#CCBB44"/><circle cx="343.8" cy="96.3" r="2" fill="#CCBB44"/><circle cx="362.4" cy="96.4" r="2" fill="#CCBB44"/><circle cx="381.1" cy="97.6" r="2" fill="#CCBB44"/><circle cx="399.7" cy="93.9" r="2" fill="#CCBB44"/><circle cx="418.3" cy="92.6" r="2" fill="#CCBB44"/><circle cx="437.0" cy="91.8" r="2" fill="#CCBB44"/><circle cx="455.7" cy="81.7" r="2" fill="#CCBB44"/><circle cx="474.3" cy="104.4" r="2" fill="#CCBB44"/><circle cx="492.9" cy="97.0" r="2" fill="#CCBB44"/><circle cx="511.6" cy="150.2" r="2" fill="#CCBB44"/><circle cx="530.3" cy="145.7" r="2" fill="#CCBB44"/><circle cx="548.9" cy="144.9" r="2" fill="#CCBB44"/><circle cx="567.5" cy="152.0" r="2" fill="#CCBB44"/><circle cx="586.2" cy="151.0" r="2" fill="#CCBB44"/><circle cx="604.9" cy="148.0" r="2" fill="#CCBB44"/><circle cx="623.5" cy="147.0" r="2" fill="#CCBB44"/><circle cx="642.1" cy="152.5" r="2" fill="#CCBB44"/><circle cx="660.8" cy="152.4" r="2" fill="#CCBB44"/><circle cx="679.4" cy="153.4" r="2" fill="#CCBB44"/><circle cx="698.1" cy="151.2" r="2" fill="#CCBB44"/><circle cx="716.8" cy="151.1" r="2" fill="#CCBB44"/><circle cx="735.4" cy="149.7" r="2" fill="#CCBB44"/><circle cx="754.1" cy="154.7" r="2" fill="#CCBB44"/><circle cx="772.7" cy="154.9" r="2" fill="#CCBB44"/><circle cx="791.4" cy="149.8" r="2" fill="#CCBB44"/><circle cx="810.0" cy="151.3" r="2" fill="#CCBB44"/><rect x="820" y="79" width="10" height="10" fill="#CCBB44"/><text x="834" y="88" font-size="10" fill="#444">chain-1000</text><path d="M64.0,54.3 L82.7,70.5 L101.3,65.9 L119.9,46.8 L138.6,54.2 L157.3,47.4 L175.9,65.9 L194.5,50.0 L213.2,56.3 L231.8,54.9 L250.5,43.6 L269.1,48.0 L287.8,61.0 L306.5,47.8 L325.1,59.2 L343.8,63.9 L362.4,47.9 L381.1,60.6 L399.7,67.2 L418.3,56.2 L437.0,65.5 L455.7,43.1 L474.3,55.5 L492.9,84.5 L511.6,94.9 L530.3,105.2 L548.9,92.0 L567.5,98.9 L586.2,100.7 L604.9,91.7 L623.5,93.0 L642.1,98.7 L660.8,98.2 L679.4,97.9 L698.1,97.3 L716.8,103.7 L735.4,96.7 L754.1,107.4 L772.7,98.5 L791.4,99.1 L810.0,96.7" fill="none" stroke="#66CCEE" stroke-width="1.6"/><circle cx="64.0" cy="54.3" r="2" fill="#66CCEE"/><circle cx="82.7" cy="70.5" r="2" fill="#66CCEE"/><circle cx="101.3" cy="65.9" r="2" fill="#66CCEE"/><circle cx="119.9" cy="46.8" r="2" fill="#66CCEE"/><circle cx="138.6" cy="54.2" r="2" fill="#66CCEE"/><circle cx="157.3" cy="47.4" r="2" fill="#66CCEE"/><circle cx="175.9" cy="65.9" r="2" fill="#66CCEE"/><circle cx="194.5" cy="50.0" r="2" fill="#66CCEE"/><circle cx="213.2" cy="56.3" r="2" fill="#66CCEE"/><circle cx="231.8" cy="54.9" r="2" fill="#66CCEE"/><circle cx="250.5" cy="43.6" r="2" fill="#66CCEE"/><circle cx="269.1" cy="48.0" r="2" fill="#66CCEE"/><circle cx="287.8" cy="61.0" r="2" fill="#66CCEE"/><circle cx="306.5" cy="47.8" r="2" fill="#66CCEE"/><circle cx="325.1" cy="59.2" r="2" fill="#66CCEE"/><circle cx="343.8" cy="63.9" r="2" fill="#66CCEE"/><circle cx="362.4" cy="47.9" r="2" fill="#66CCEE"/><circle cx="381.1" cy="60.6" r="2" fill="#66CCEE"/><circle cx="399.7" cy="67.2" r="2" fill="#66CCEE"/><circle cx="418.3" cy="56.2" r="2" fill="#66CCEE"/><circle cx="437.0" cy="65.5" r="2" fill="#66CCEE"/><circle cx="455.7" cy="43.1" r="2" fill="#66CCEE"/><circle cx="474.3" cy="55.5" r="2" fill="#66CCEE"/><circle cx="492.9" cy="84.5" r="2" fill="#66CCEE"/><circle cx="511.6" cy="94.9" r="2" fill="#66CCEE"/><circle cx="530.3" cy="105.2" r="2" fill="#66CCEE"/><circle cx="548.9" cy="92.0" r="2" fill="#66CCEE"/><circle cx="567.5" cy="98.9" r="2" fill="#66CCEE"/><circle cx="586.2" cy="100.7" r="2" fill="#66CCEE"/><circle cx="604.9" cy="91.7" r="2" fill="#66CCEE"/><circle cx="623.5" cy="93.0" r="2" fill="#66CCEE"/><circle cx="642.1" cy="98.7" r="2" fill="#66CCEE"/><circle cx="660.8" cy="98.2" r="2" fill="#66CCEE"/><circle cx="679.4" cy="97.9" r="2" fill="#66CCEE"/><circle cx="698.1" cy="97.3" r="2" fill="#66CCEE"/><circle cx="716.8" cy="103.7" r="2" fill="#66CCEE"/><circle cx="735.4" cy="96.7" r="2" fill="#66CCEE"/><circle cx="754.1" cy="107.4" r="2" fill="#66CCEE"/><circle cx="772.7" cy="98.5" r="2" fill="#66CCEE"/><circle cx="791.4" cy="99.1" r="2" fill="#66CCEE"/><circle cx="810.0" cy="96.7" r="2" fill="#66CCEE"/><rect x="820" y="94" width="10" height="10" fill="#66CCEE"/><text x="834" y="103" font-size="10" fill="#444">dense-10</text><path d="M64.0,91.8 L82.7,91.0 L101.3,74.9 L119.9,78.1 L138.6,77.8 L157.3,82.8 L175.9,86.2 L194.5,74.4 L213.2,89.1 L231.8,80.3 L250.5,85.1 L269.1,91.0 L287.8,92.3 L306.5,88.2 L325.1,91.5 L343.8,78.3 L362.4,100.1 L381.1,101.6 L399.7,98.1 L418.3,98.3 L437.0,84.6 L455.7,82.7 L474.3,83.0 L492.9,89.2 L511.6,116.3 L530.3,117.0 L548.9,117.7 L567.5,110.6 L586.2,114.1 L604.9,113.9 L623.5,113.1 L642.1,121.9 L660.8,126.4 L679.4,124.9 L698.1,127.5 L716.8,133.1 L735.4,120.8 L754.1,135.1 L772.7,127.1 L791.4,124.7 L810.0,118.4" fill="none" stroke="#AA3377" stroke-width="1.6"/><circle cx="64.0" cy="91.8" r="2" fill="#AA3377"/><circle cx="82.7" cy="91.0" r="2" fill="#AA3377"/><circle cx="101.3" cy="74.9" r="2" fill="#AA3377"/><circle cx="119.9" cy="78.1" r="2" fill="#AA3377"/><circle cx="138.6" cy="77.8" r="2" fill="#AA3377"/><circle cx="157.3" cy="82.8" r="2" fill="#AA3377"/><circle cx="175.9" cy="86.2" r="2" fill="#AA3377"/><circle cx="194.5" cy="74.4" r="2" fill="#AA3377"/><circle cx="213.2" cy="89.1" r="2" fill="#AA3377"/><circle cx="231.8" cy="80.3" r="2" fill="#AA3377"/><circle cx="250.5" cy="85.1" r="2" fill="#AA3377"/><circle cx="269.1" cy="91.0" r="2" fill="#AA3377"/><circle cx="287.8" cy="92.3" r="2" fill="#AA3377"/><circle cx="306.5" cy="88.2" r="2" fill="#AA3377"/><circle cx="325.1" cy="91.5" r="2" fill="#AA3377"/><circle cx="343.8" cy="78.3" r="2" fill="#AA3377"/><circle cx="362.4" cy="100.1" r="2" fill="#AA3377"/><circle cx="381.1" cy="101.6" r="2" fill="#AA3377"/><circle cx="399.7" cy="98.1" r="2" fill="#AA3377"/><circle cx="418.3" cy="98.3" r="2" fill="#AA3377"/><circle cx="437.0" cy="84.6" r="2" fill="#AA3377"/><circle cx="455.7" cy="82.7" r="2" fill="#AA3377"/><circle cx="474.3" cy="83.0" r="2" fill="#AA3377"/><circle cx="492.9" cy="89.2" r="2" fill="#AA3377"/><circle cx="511.6" cy="116.3" r="2" fill="#AA3377"/><circle cx="530.3" cy="117.0" r="2" fill="#AA3377"/><circle cx="548.9" cy="117.7" r="2" fill="#AA3377"/><circle cx="567.5" cy="110.6" r="2" fill="#AA3377"/><circle cx="586.2" cy="114.1" r="2" fill="#AA3377"/><circle cx="604.9" cy="113.9" r="2" fill="#AA3377"/><circle cx="623.5" cy="113.1" r="2" fill="#AA3377"/><circle cx="642.1" cy="121.9" r="2" fill="#AA3377"/><circle cx="660.8" cy="126.4" r="2" fill="#AA3377"/><circle cx="679.4" cy="124.9" r="2" fill="#AA3377"/><circle cx="698.1" cy="127.5" r="2" fill="#AA3377"/><circle cx="716.8" cy="133.1" r="2" fill="#AA3377"/><circle cx="735.4" cy="120.8" r="2" fill="#AA3377"/><circle cx="754.1" cy="135.1" r="2" fill="#AA3377"/><circle cx="772.7" cy="127.1" r="2" fill="#AA3377"/><circle cx="791.4" cy="124.7" r="2" fill="#AA3377"/><circle cx="810.0" cy="118.4" r="2" fill="#AA3377"/><rect x="820" y="109" width="10" height="10" fill="#AA3377"/><text x="834" y="118" font-size="10" fill="#444">dense-50</text><path d="M64.0,124.9 L82.7,121.8 L101.3,121.5 L119.9,123.5 L138.6,118.7 L157.3,120.7 L175.9,126.0 L194.5,125.2 L213.2,124.2 L231.8,120.1 L250.5,125.2 L269.1,127.1 L287.8,122.9 L306.5,129.6 L325.1,123.1 L343.8,126.4 L362.4,123.8 L381.1,128.9 L399.7,122.7 L418.3,124.4 L437.0,125.9 L455.7,111.5 L474.3,124.5 L492.9,120.1 L511.6,153.8 L530.3,154.6 L548.9,153.3 L567.5,155.7 L586.2,153.1 L604.9,153.2 L623.5,148.9 L642.1,157.3 L660.8,160.3 L679.4,161.5 L698.1,157.7 L716.8,152.7 L735.4,166.6 L754.1,161.2 L772.7,160.5 L791.4,155.5 L810.0,155.3" fill="none" stroke="#BBBBBB" stroke-width="1.6"/><circle cx="64.0" cy="124.9" r="2" fill="#BBBBBB"/><circle cx="82.7" cy="121.8" r="2" fill="#BBBBBB"/><circle cx="101.3" cy="121.5" r="2" fill="#BBBBBB"/><circle cx="119.9" cy="123.5" r="2" fill="#BBBBBB"/><circle cx="138.6" cy="118.7" r="2" fill="#BBBBBB"/><circle cx="157.3" cy="120.7" r="2" fill="#BBBBBB"/><circle cx="175.9" cy="126.0" r="2" fill="#BBBBBB"/><circle cx="194.5" cy="125.2" r="2" fill="#BBBBBB"/><circle cx="213.2" cy="124.2" r="2" fill="#BBBBBB"/><circle cx="231.8" cy="120.1" r="2" fill="#BBBBBB"/><circle cx="250.5" cy="125.2" r="2" fill="#BBBBBB"/><circle cx="269.1" cy="127.1" r="2" fill="#BBBBBB"/><circle cx="287.8" cy="122.9" r="2" fill="#BBBBBB"/><circle cx="306.5" cy="129.6" r="2" fill="#BBBBBB"/><circle cx="325.1" cy="123.1" r="2" fill="#BBBBBB"/><circle cx="343.8" cy="126.4" r="2" fill="#BBBBBB"/><circle cx="362.4" cy="123.8" r="2" fill="#BBBBBB"/><circle cx="381.1" cy="128.9" r="2" fill="#BBBBBB"/><circle cx="399.7" cy="122.7" r="2" fill="#BBBBBB"/><circle cx="418.3" cy="124.4" r="2" fill="#BBBBBB"/><circle cx="437.0" cy="125.9" r="2" fill="#BBBBBB"/><circle cx="455.7" cy="111.5" r="2" fill="#BBBBBB"/><circle cx="474.3" cy="124.5" r="2" fill="#BBBBBB"/><circle cx="492.9" cy="120.1" r="2" fill="#BBBBBB"/><circle cx="511.6" cy="153.8" r="2" fill="#BBBBBB"/><circle cx="530.3" cy="154.6" r="2" fill="#BBBBBB"/><circle cx="548.9" cy="153.3" r="2" fill="#BBBBBB"/><circle cx="567.5" cy="155.7" r="2" fill="#BBBBBB"/><circle cx="586.2" cy="153.1" r="2" fill="#BBBBBB"/><circle cx="604.9" cy="153.2" r="2" fill="#BBBBBB"/><circle cx="623.5" cy="148.9" r="2" fill="#BBBBBB"/><circle cx="642.1" cy="157.3" r="2" fill="#BBBBBB"/><circle cx="660.8" cy="160.3" r="2" fill="#BBBBBB"/><circle cx="679.4" cy="161.5" r="2" fill="#BBBBBB"/><circle cx="698.1" cy="157.7" r="2" fill="#BBBBBB"/><circle cx="716.8" cy="152.7" r="2" fill="#BBBBBB"/><circle cx="735.4" cy="166.6" r="2" fill="#BBBBBB"/><circle cx="754.1" cy="161.2" r="2" fill="#BBBBBB"/><circle cx="772.7" cy="160.5" r="2" fill="#BBBBBB"/><circle cx="791.4" cy="155.5" r="2" fill="#BBBBBB"/><circle cx="810.0" cy="155.3" r="2" fill="#BBBBBB"/><rect x="820" y="124" width="10" height="10" fill="#BBBBBB"/><text x="834" y="133" font-size="10" fill="#444">dense-200</text><path d="M64.0,82.6 L82.7,76.8 L101.3,74.4 L119.9,69.2 L138.6,68.2 L157.3,79.6 L175.9,70.6 L194.5,64.7 L213.2,88.6 L231.8,72.5 L250.5,73.1 L269.1,80.3 L287.8,82.7 L306.5,74.6 L325.1,79.2 L343.8,62.3 L362.4,88.4 L381.1,82.2 L399.7,82.3 L418.3,78.1 L437.0,79.5 L455.7,73.9 L474.3,70.5 L492.9,75.4 L511.6,100.2 L530.3,107.2 L548.9,100.2 L567.5,100.9 L586.2,100.8 L604.9,101.0 L623.5,101.7 L642.1,108.2 L660.8,106.3 L679.4,104.9 L698.1,106.3 L716.8,109.7 L735.4,110.5 L754.1,123.8 L772.7,106.6 L791.4,106.6 L810.0,108.5" fill="none" stroke="#222255" stroke-width="1.6"/><circle cx="64.0" cy="82.6" r="2" fill="#222255"/><circle cx="82.7" cy="76.8" r="2" fill="#222255"/><circle cx="101.3" cy="74.4" r="2" fill="#222255"/><circle cx="119.9" cy="69.2" r="2" fill="#222255"/><circle cx="138.6" cy="68.2" r="2" fill="#222255"/><circle cx="157.3" cy="79.6" r="2" fill="#222255"/><circle cx="175.9" cy="70.6" r="2" fill="#222255"/><circle cx="194.5" cy="64.7" r="2" fill="#222255"/><circle cx="213.2" cy="88.6" r="2" fill="#222255"/><circle cx="231.8" cy="72.5" r="2" fill="#222255"/><circle cx="250.5" cy="73.1" r="2" fill="#222255"/><circle cx="269.1" cy="80.3" r="2" fill="#222255"/><circle cx="287.8" cy="82.7" r="2" fill="#222255"/><circle cx="306.5" cy="74.6" r="2" fill="#222255"/><circle cx="325.1" cy="79.2" r="2" fill="#222255"/><circle cx="343.8" cy="62.3" r="2" fill="#222255"/><circle cx="362.4" cy="88.4" r="2" fill="#222255"/><circle cx="381.1" cy="82.2" r="2" fill="#222255"/><circle cx="399.7" cy="82.3" r="2" fill="#222255"/><circle cx="418.3" cy="78.1" r="2" fill="#222255"/><circle cx="437.0" cy="79.5" r="2" fill="#222255"/><circle cx="455.7" cy="73.9" r="2" fill="#222255"/><circle cx="474.3" cy="70.5" r="2" fill="#222255"/><circle cx="492.9" cy="75.4" r="2" fill="#222255"/><circle cx="511.6" cy="100.2" r="2" fill="#222255"/><circle cx="530.3" cy="107.2" r="2" fill="#222255"/><circle cx="548.9" cy="100.2" r="2" fill="#222255"/><circle cx="567.5" cy="100.9" r="2" fill="#222255"/><circle cx="586.2" cy="100.8" r="2" fill="#222255"/><circle cx="604.9" cy="101.0" r="2" fill="#222255"/><circle cx="623.5" cy="101.7" r="2" fill="#222255"/><circle cx="642.1" cy="108.2" r="2" fill="#222255"/><circle cx="660.8" cy="106.3" r="2" fill="#222255"/><circle cx="679.4" cy="104.9" r="2" fill="#222255"/><circle cx="698.1" cy="106.3" r="2" fill="#222255"/><circle cx="716.8" cy="109.7" r="2" fill="#222255"/><circle cx="735.4" cy="110.5" r="2" fill="#222255"/><circle cx="754.1" cy="123.8" r="2" fill="#222255"/><circle cx="772.7" cy="106.6" r="2" fill="#222255"/><circle cx="791.4" cy="106.6" r="2" fill="#222255"/><circle cx="810.0" cy="108.5" r="2" fill="#222255"/><rect x="820" y="139" width="10" height="10" fill="#222255"/><text x="834" y="148" font-size="10" fill="#444">hub-50</text><path d="M64.0,80.8 L82.7,91.2 L101.3,83.7 L119.9,79.8 L138.6,88.3 L157.3,83.2 L175.9,97.6 L194.5,86.4 L213.2,85.9 L231.8,84.8 L250.5,85.8 L269.1,91.8 L287.8,80.7 L306.5,93.3 L325.1,82.2 L343.8,91.9 L362.4,98.6 L381.1,92.5 L399.7,95.4 L418.3,79.6 L437.0,94.3 L455.7,64.6 L474.3,91.8 L492.9,80.8 L511.6,123.0 L530.3,122.1 L548.9,118.1 L567.5,119.4 L586.2,118.7 L604.9,122.4 L623.5,117.2 L642.1,131.7 L660.8,126.5 L679.4,128.1 L698.1,125.9 L716.8,137.5 L735.4,130.5 L754.1,135.1 L772.7,127.9 L791.4,132.1 L810.0,126.1" fill="none" stroke="#225555" stroke-width="1.6"/><circle cx="64.0" cy="80.8" r="2" fill="#225555"/><circle cx="82.7" cy="91.2" r="2" fill="#225555"/><circle cx="101.3" cy="83.7" r="2" fill="#225555"/><circle cx="119.9" cy="79.8" r="2" fill="#225555"/><circle cx="138.6" cy="88.3" r="2" fill="#225555"/><circle cx="157.3" cy="83.2" r="2" fill="#225555"/><circle cx="175.9" cy="97.6" r="2" fill="#225555"/><circle cx="194.5" cy="86.4" r="2" fill="#225555"/><circle cx="213.2" cy="85.9" r="2" fill="#225555"/><circle cx="231.8" cy="84.8" r="2" fill="#225555"/><circle cx="250.5" cy="85.8" r="2" fill="#225555"/><circle cx="269.1" cy="91.8" r="2" fill="#225555"/><circle cx="287.8" cy="80.7" r="2" fill="#225555"/><circle cx="306.5" cy="93.3" r="2" fill="#225555"/><circle cx="325.1" cy="82.2" r="2" fill="#225555"/><circle cx="343.8" cy="91.9" r="2" fill="#225555"/><circle cx="362.4" cy="98.6" r="2" fill="#225555"/><circle cx="381.1" cy="92.5" r="2" fill="#225555"/><circle cx="399.7" cy="95.4" r="2" fill="#225555"/><circle cx="418.3" cy="79.6" r="2" fill="#225555"/><circle cx="437.0" cy="94.3" r="2" fill="#225555"/><circle cx="455.7" cy="64.6" r="2" fill="#225555"/><circle cx="474.3" cy="91.8" r="2" fill="#225555"/><circle cx="492.9" cy="80.8" r="2" fill="#225555"/><circle cx="511.6" cy="123.0" r="2" fill="#225555"/><circle cx="530.3" cy="122.1" r="2" fill="#225555"/><circle cx="548.9" cy="118.1" r="2" fill="#225555"/><circle cx="567.5" cy="119.4" r="2" fill="#225555"/><circle cx="586.2" cy="118.7" r="2" fill="#225555"/><circle cx="604.9" cy="122.4" r="2" fill="#225555"/><circle cx="623.5" cy="117.2" r="2" fill="#225555"/><circle cx="642.1" cy="131.7" r="2" fill="#225555"/><circle cx="660.8" cy="126.5" r="2" fill="#225555"/><circle cx="679.4" cy="128.1" r="2" fill="#225555"/><circle cx="698.1" cy="125.9" r="2" fill="#225555"/><circle cx="716.8" cy="137.5" r="2" fill="#225555"/><circle cx="735.4" cy="130.5" r="2" fill="#225555"/><circle cx="754.1" cy="135.1" r="2" fill="#225555"/><circle cx="772.7" cy="127.9" r="2" fill="#225555"/><circle cx="791.4" cy="132.1" r="2" fill="#225555"/><circle cx="810.0" cy="126.1" r="2" fill="#225555"/><rect x="820" y="154" width="10" height="10" fill="#225555"/><text x="834" y="163" font-size="10" fill="#444">hub-200</text><path d="M64.0,319.1 L82.7,321.7 L101.3,321.3 L119.9,324.0 L138.6,321.9 L157.3,320.9 L175.9,322.8 L194.5,321.8 L213.2,321.4 L231.8,321.1 L250.5,320.9 L269.1,322.1 L287.8,320.1 L306.5,322.6 L325.1,320.1 L343.8,321.1 L362.4,250.8 L381.1,249.2 L399.7,251.1 L418.3,243.3 L437.0,250.0 L455.7,230.1 L474.3,249.7 L492.9,242.2 L511.6,232.2 L530.3,231.5 L548.9,227.8 L567.5,229.5 L586.2,228.5 L604.9,229.1 L623.5,229.8 L642.1,231.5 L660.8,235.3 L679.4,239.9 L698.1,235.6 L716.8,243.4 L735.4,238.0 L754.1,237.2 L772.7,238.3 L791.4,239.7 L810.0,235.9" fill="none" stroke="#552222" stroke-width="1.6"/><circle cx="64.0" cy="319.1" r="2" fill="#552222"/><circle cx="82.7" cy="321.7" r="2" fill="#552222"/><circle cx="101.3" cy="321.3" r="2" fill="#552222"/><circle cx="119.9" cy="324.0" r="2" fill="#552222"/><circle cx="138.6" cy="321.9" r="2" fill="#552222"/><circle cx="157.3" cy="320.9" r="2" fill="#552222"/><circle cx="175.9" cy="322.8" r="2" fill="#552222"/><circle cx="194.5" cy="321.8" r="2" fill="#552222"/><circle cx="213.2" cy="321.4" r="2" fill="#552222"/><circle cx="231.8" cy="321.1" r="2" fill="#552222"/><circle cx="250.5" cy="320.9" r="2" fill="#552222"/><circle cx="269.1" cy="322.1" r="2" fill="#552222"/><circle cx="287.8" cy="320.1" r="2" fill="#552222"/><circle cx="306.5" cy="322.6" r="2" fill="#552222"/><circle cx="325.1" cy="320.1" r="2" fill="#552222"/><circle cx="343.8" cy="321.1" r="2" fill="#552222"/><circle cx="362.4" cy="250.8" r="2" fill="#552222"/><circle cx="381.1" cy="249.2" r="2" fill="#552222"/><circle cx="399.7" cy="251.1" r="2" fill="#552222"/><circle cx="418.3" cy="243.3" r="2" fill="#552222"/><circle cx="437.0" cy="250.0" r="2" fill="#552222"/><circle cx="455.7" cy="230.1" r="2" fill="#552222"/><circle cx="474.3" cy="249.7" r="2" fill="#552222"/><circle cx="492.9" cy="242.2" r="2" fill="#552222"/><circle cx="511.6" cy="232.2" r="2" fill="#552222"/><circle cx="530.3" cy="231.5" r="2" fill="#552222"/><circle cx="548.9" cy="227.8" r="2" fill="#552222"/><circle cx="567.5" cy="229.5" r="2" fill="#552222"/><circle cx="586.2" cy="228.5" r="2" fill="#552222"/><circle cx="604.9" cy="229.1" r="2" fill="#552222"/><circle cx="623.5" cy="229.8" r="2" fill="#552222"/><circle cx="642.1" cy="231.5" r="2" fill="#552222"/><circle cx="660.8" cy="235.3" r="2" fill="#552222"/><circle cx="679.4" cy="239.9" r="2" fill="#552222"/><circle cx="698.1" cy="235.6" r="2" fill="#552222"/><circle cx="716.8" cy="243.4" r="2" fill="#552222"/><circle cx="735.4" cy="238.0" r="2" fill="#552222"/><circle cx="754.1" cy="237.2" r="2" fill="#552222"/><circle cx="772.7" cy="238.3" r="2" fill="#552222"/><circle cx="791.4" cy="239.7" r="2" fill="#552222"/><circle cx="810.0" cy="235.9" r="2" fill="#552222"/><rect x="820" y="169" width="10" height="10" fill="#552222"/><text x="834" y="178" font-size="10" fill="#444">hooked-200</text><path d="M64.0,79.8 L82.7,80.7 L101.3,84.9 L119.9,68.6 L138.6,81.2 L157.3,91.9 L175.9,58.7 L194.5,72.3 L213.2,82.2 L231.8,64.3 L250.5,80.1 L269.1,72.5 L287.8,85.1 L306.5,71.0 L325.1,85.5 L343.8,95.3 L362.4,70.5 L381.1,66.3 L399.7,65.5 L418.3,75.8 L437.0,69.2 L455.7,82.1 L474.3,81.7 L492.9,85.4 L511.6,139.4 L530.3,118.2 L548.9,137.1 L567.5,129.3 L586.2,122.5 L604.9,119.1 L623.5,123.0 L642.1,122.9 L660.8,127.1 L679.4,124.7 L698.1,125.2 L716.8,128.8 L735.4,116.7 L754.1,132.0 L772.7,131.2 L791.4,123.5 L810.0,123.1" fill="none" stroke="#555522" stroke-width="1.6"/><circle cx="64.0" cy="79.8" r="2" fill="#555522"/><circle cx="82.7" cy="80.7" r="2" fill="#555522"/><circle cx="101.3" cy="84.9" r="2" fill="#555522"/><circle cx="119.9" cy="68.6" r="2" fill="#555522"/><circle cx="138.6" cy="81.2" r="2" fill="#555522"/><circle cx="157.3" cy="91.9" r="2" fill="#555522"/><circle cx="175.9" cy="58.7" r="2" fill="#555522"/><circle cx="194.5" cy="72.3" r="2" fill="#555522"/><circle cx="213.2" cy="82.2" r="2" fill="#555522"/><circle cx="231.8" cy="64.3" r="2" fill="#555522"/><circle cx="250.5" cy="80.1" r="2" fill="#555522"/><circle cx="269.1" cy="72.5" r="2" fill="#555522"/><circle cx="287.8" cy="85.1" r="2" fill="#555522"/><circle cx="306.5" cy="71.0" r="2" fill="#555522"/><circle cx="325.1" cy="85.5" r="2" fill="#555522"/><circle cx="343.8" cy="95.3" r="2" fill="#555522"/><circle cx="362.4" cy="70.5" r="2" fill="#555522"/><circle cx="381.1" cy="66.3" r="2" fill="#555522"/><circle cx="399.7" cy="65.5" r="2" fill="#555522"/><circle cx="418.3" cy="75.8" r="2" fill="#555522"/><circle cx="437.0" cy="69.2" r="2" fill="#555522"/><circle cx="455.7" cy="82.1" r="2" fill="#555522"/><circle cx="474.3" cy="81.7" r="2" fill="#555522"/><circle cx="492.9" cy="85.4" r="2" fill="#555522"/><circle cx="511.6" cy="139.4" r="2" fill="#555522"/><circle cx="530.3" cy="118.2" r="2" fill="#555522"/><circle cx="548.9" cy="137.1" r="2" fill="#555522"/><circle cx="567.5" cy="129.3" r="2" fill="#555522"/><circle cx="586.2" cy="122.5" r="2" fill="#555522"/><circle cx="604.9" cy="119.1" r="2" fill="#555522"/><circle cx="623.5" cy="123.0" r="2" fill="#555522"/><circle cx="642.1" cy="122.9" r="2" fill="#555522"/><circle cx="660.8" cy="127.1" r="2" fill="#555522"/><circle cx="679.4" cy="124.7" r="2" fill="#555522"/><circle cx="698.1" cy="125.2" r="2" fill="#555522"/><circle cx="716.8" cy="128.8" r="2" fill="#555522"/><circle cx="735.4" cy="116.7" r="2" fill="#555522"/><circle cx="754.1" cy="132.0" r="2" fill="#555522"/><circle cx="772.7" cy="131.2" r="2" fill="#555522"/><circle cx="791.4" cy="123.5" r="2" fill="#555522"/><circle cx="810.0" cy="123.1" r="2" fill="#555522"/><rect x="820" y="184" width="10" height="10" fill="#555522"/><text x="834" y="193" font-size="10" fill="#444">messy-1000</text><path d="M64.0,84.2 L82.7,79.7 L101.3,71.5 L119.9,63.5 L138.6,56.8 L157.3,56.0 L175.9,62.9 L194.5,78.4 L213.2,65.7 L231.8,88.0 L250.5,79.1 L269.1,81.1 L287.8,76.5 L306.5,91.4 L325.1,74.5 L343.8,76.5 L362.4,67.4 L381.1,75.7 L399.7,80.6 L418.3,75.9 L437.0,92.5 L455.7,66.2 L474.3,45.8 L492.9,79.7 L511.6,129.9 L530.3,111.3 L548.9,107.6 L567.5,106.5 L586.2,104.8 L604.9,119.0 L623.5,104.9 L642.1,113.0 L660.8,122.4 L679.4,111.3 L698.1,128.6 L716.8,111.9 L735.4,140.5 L754.1,134.3 L772.7,116.0 L791.4,119.0 L810.0,118.9" fill="none" stroke="#8855AA" stroke-width="1.6"/><circle cx="64.0" cy="84.2" r="2" fill="#8855AA"/><circle cx="82.7" cy="79.7" r="2" fill="#8855AA"/><circle cx="101.3" cy="71.5" r="2" fill="#8855AA"/><circle cx="119.9" cy="63.5" r="2" fill="#8855AA"/><circle cx="138.6" cy="56.8" r="2" fill="#8855AA"/><circle cx="157.3" cy="56.0" r="2" fill="#8855AA"/><circle cx="175.9" cy="62.9" r="2" fill="#8855AA"/><circle cx="194.5" cy="78.4" r="2" fill="#8855AA"/><circle cx="213.2" cy="65.7" r="2" fill="#8855AA"/><circle cx="231.8" cy="88.0" r="2" fill="#8855AA"/><circle cx="250.5" cy="79.1" r="2" fill="#8855AA"/><circle cx="269.1" cy="81.1" r="2" fill="#8855AA"/><circle cx="287.8" cy="76.5" r="2" fill="#8855AA"/><circle cx="306.5" cy="91.4" r="2" fill="#8855AA"/><circle cx="325.1" cy="74.5" r="2" fill="#8855AA"/><circle cx="343.8" cy="76.5" r="2" fill="#8855AA"/><circle cx="362.4" cy="67.4" r="2" fill="#8855AA"/><circle cx="381.1" cy="75.7" r="2" fill="#8855AA"/><circle cx="399.7" cy="80.6" r="2" fill="#8855AA"/><circle cx="418.3" cy="75.9" r="2" fill="#8855AA"/><circle cx="437.0" cy="92.5" r="2" fill="#8855AA"/><circle cx="455.7" cy="66.2" r="2" fill="#8855AA"/><circle cx="474.3" cy="45.8" r="2" fill="#8855AA"/><circle cx="492.9" cy="79.7" r="2" fill="#8855AA"/><circle cx="511.6" cy="129.9" r="2" fill="#8855AA"/><circle cx="530.3" cy="111.3" r="2" fill="#8855AA"/><circle cx="548.9" cy="107.6" r="2" fill="#8855AA"/><circle cx="567.5" cy="106.5" r="2" fill="#8855AA"/><circle cx="586.2" cy="104.8" r="2" fill="#8855AA"/><circle cx="604.9" cy="119.0" r="2" fill="#8855AA"/><circle cx="623.5" cy="104.9" r="2" fill="#8855AA"/><circle cx="642.1" cy="113.0" r="2" fill="#8855AA"/><circle cx="660.8" cy="122.4" r="2" fill="#8855AA"/><circle cx="679.4" cy="111.3" r="2" fill="#8855AA"/><circle cx="698.1" cy="128.6" r="2" fill="#8855AA"/><circle cx="716.8" cy="111.9" r="2" fill="#8855AA"/><circle cx="735.4" cy="140.5" r="2" fill="#8855AA"/><circle cx="754.1" cy="134.3" r="2" fill="#8855AA"/><circle cx="772.7" cy="116.0" r="2" fill="#8855AA"/><circle cx="791.4" cy="119.0" r="2" fill="#8855AA"/><circle cx="810.0" cy="118.9" r="2" fill="#8855AA"/><rect x="820" y="199" width="10" height="10" fill="#8855AA"/><text x="834" y="208" font-size="10" fill="#444">messy-5000</text></svg>