<svg width="720" height="372" xmlns="http://www.w3.org/2000/svg"><rect width="720" height="372" fill="#ffffff"/><text x="64" y="20" font-size="15" font-weight="bold" fill="#333">action() — ops/sec (linear scale, last 30) by PR / release, c8g.medium</text><line x1="81.4" y1="34" x2="81.4" y2="324" stroke="#e8e8e8"/><line x1="98.9" y1="34" x2="98.9" y2="324" stroke="#e8e8e8"/><line x1="116.3" y1="34" x2="116.3" y2="324" stroke="#e8e8e8"/><line x1="133.8" y1="34" x2="133.8" y2="324" stroke="#e8e8e8"/><line x1="168.7" y1="34" x2="168.7" y2="324" stroke="#e8e8e8"/><line x1="186.1" y1="34" x2="186.1" y2="324" stroke="#e8e8e8"/><line x1="203.6" y1="34" x2="203.6" y2="324" stroke="#e8e8e8"/><line x1="221.0" y1="34" x2="221.0" y2="324" stroke="#e8e8e8"/><line x1="255.9" y1="34" x2="255.9" y2="324" stroke="#e8e8e8"/><line x1="273.4" y1="34" x2="273.4" y2="324" stroke="#e8e8e8"/><line x1="290.8" y1="34" x2="290.8" y2="324" stroke="#e8e8e8"/><line x1="308.3" y1="34" x2="308.3" y2="324" stroke="#e8e8e8"/><line x1="343.2" y1="34" x2="343.2" y2="324" stroke="#e8e8e8"/><line x1="360.6" y1="34" x2="360.6" y2="324" stroke="#e8e8e8"/><line x1="378.1" y1="34" x2="378.1" y2="324" stroke="#e8e8e8"/><line x1="395.5" y1="34" x2="395.5" y2="324" stroke="#e8e8e8"/><line x1="430.4" y1="34" x2="430.4" y2="324" stroke="#e8e8e8"/><line x1="447.9" y1="34" x2="447.9" y2="324" stroke="#e8e8e8"/><line x1="465.3" y1="34" x2="465.3" y2="324" stroke="#e8e8e8"/><line x1="482.8" y1="34" x2="482.8" y2="324" stroke="#e8e8e8"/><line x1="517.7" y1="34" x2="517.7" y2="324" stroke="#e8e8e8"/><line x1="535.1" y1="34" x2="535.1" y2="324" stroke="#e8e8e8"/><line x1="552.6" y1="34" x2="552.6" y2="324" stroke="#e8e8e8"/><line x1="570.0" y1="34" x2="570.0" y2="324" stroke="#e8e8e8"/><line x1="64.0" y1="34" x2="64.0" y2="324" stroke="#d0d0d0"/><line x1="151.2" y1="34" x2="151.2" y2="324" stroke="#d0d0d0"/><line x1="238.5" y1="34" x2="238.5" y2="324" stroke="#d0d0d0"/><line x1="325.7" y1="34" x2="325.7" y2="324" stroke="#d0d0d0"/><line x1="413.0" y1="34" x2="413.0" y2="324" stroke="#d0d0d0"/><line x1="500.2" y1="34" x2="500.2" y2="324" stroke="#d0d0d0"/><line x1="64" y1="324.0" x2="570" y2="324.0" stroke="#b0b0b0"/><text x="58" y="328.0" font-size="10" text-anchor="end" fill="#888">3.4M</text><line x1="64" y1="266.0" x2="570" y2="266.0" stroke="#b0b0b0"/><text x="58" y="270.0" font-size="10" text-anchor="end" fill="#888">7M</text><line x1="64" y1="208.0" x2="570" y2="208.0" stroke="#b0b0b0"/><text x="58" y="212.0" font-size="10" text-anchor="end" fill="#888">10.5M</text><line x1="64" y1="150.0" x2="570" y2="150.0" stroke="#b0b0b0"/><text x="58" y="154.0" font-size="10" text-anchor="end" fill="#888">14M</text><line x1="64" y1="92.0" x2="570" y2="92.0" stroke="#b0b0b0"/><text x="58" y="96.0" font-size="10" text-anchor="end" fill="#888">17.6M</text><line x1="64" y1="34.0" x2="570" y2="34.0" stroke="#b0b0b0"/><text x="58" y="38.0" font-size="10" text-anchor="end" fill="#888">21.1M</text><text x="64.0" y="327.2" font-size="4" text-anchor="end" fill="#aa4400" transform="rotate(-80 64.0 327.2)">v5.155.0</text><text x="81.4" y="327.2" font-size="4" text-anchor="end" fill="#d6a382" transform="rotate(-80 81.4 327.2)">v5.155.1</text><text x="98.9" y="327.2" font-size="4" text-anchor="end" fill="#aa4400" transform="rotate(-80 98.9 327.2)">v5.156.0</text><text x="116.3" y="327.2" font-size="4" text-anchor="end" fill="#d6a382" transform="rotate(-80 116.3 327.2)">v5.156.1</text><text x="133.8" y="327.2" font-size="4" text-anchor="end" fill="#aa4400" transform="rotate(-80 133.8 327.2)">v5.157.0</text><text x="151.2" y="327.2" font-size="4" text-anchor="end" fill="#d6a382" transform="rotate(-80 151.2 327.2)">v5.157.1</text><text x="168.7" y="327.2" font-size="4" text-anchor="end" fill="#d6a382" transform="rotate(-80 168.7 327.2)">v5.157.2</text><text x="186.1" y="327.2" font-size="4" text-anchor="end" fill="#d6a382" transform="rotate(-80 186.1 327.2)">v5.157.3</text><text x="203.6" y="327.2" font-size="4" text-anchor="end" fill="#d6a382" transform="rotate(-80 203.6 327.2)">v5.157.4</text><text x="221.0" y="327.2" font-size="4" text-anchor="end" fill="#d6a382" transform="rotate(-80 221.0 327.2)">v5.157.5</text><text x="238.5" y="327.2" font-size="4" text-anchor="end" fill="#d6a382" transform="rotate(-80 238.5 327.2)">v5.157.6</text><text x="255.9" y="327.2" font-size="4" text-anchor="end" fill="#d6a382" transform="rotate(-80 255.9 327.2)">v5.157.7</text><text x="273.4" y="327.2" font-size="4" text-anchor="end" fill="#d6a382" transform="rotate(-80 273.4 327.2)">v5.157.8</text><text x="290.8" y="327.2" font-size="4" text-anchor="end" fill="#d6a382" transform="rotate(-80 290.8 327.2)">v5.157.9</text><text x="308.3" y="327.2" font-size="4" text-anchor="end" fill="#d6a382" transform="rotate(-80 308.3 327.2)">v5.157.10</text><text x="325.7" y="327.2" font-size="4" text-anchor="end" fill="#d6a382" transform="rotate(-80 325.7 327.2)">v5.157.11</text><text x="343.2" y="327.2" font-size="4" text-anchor="end" fill="#d6a382" transform="rotate(-80 343.2 327.2)">v5.157.12</text><text x="360.6" y="327.2" font-size="4" text-anchor="end" fill="#d6a382" transform="rotate(-80 360.6 327.2)">v5.157.13</text><text x="378.1" y="327.2" font-size="4" text-anchor="end" fill="#d6a382" transform="rotate(-80 378.1 327.2)">v5.157.14</text><text x="395.5" y="327.2" font-size="4" text-anchor="end" fill="#d6a382" transform="rotate(-80 395.5 327.2)">v5.157.15</text><text x="413.0" y="327.2" font-size="4" text-anchor="end" fill="#d6a382" transform="rotate(-80 413.0 327.2)">v5.157.16</text><text x="430.4" y="327.2" font-size="4" text-anchor="end" fill="#d6a382" transform="rotate(-80 430.4 327.2)">v5.157.17</text><text x="447.9" y="327.2" font-size="4" text-anchor="end" fill="#d6a382" transform="rotate(-80 447.9 327.2)">v5.157.18</text><text x="465.3" y="327.2" font-size="4" text-anchor="end" fill="#aa4400" transform="rotate(-80 465.3 327.2)">v5.158.0</text><text x="482.8" y="327.2" font-size="4" text-anchor="end" fill="#d6a382" transform="rotate(-80 482.8 327.2)">v5.158.1</text><text x="500.2" y="327.2" font-size="4" text-anchor="end" fill="#d6a382" transform="rotate(-80 500.2 327.2)">v5.158.2</text><text x="517.7" y="327.2" font-size="4" text-anchor="end" fill="#aa4400" transform="rotate(-80 517.7 327.2)">v5.159.0</text><text x="535.1" y="327.2" font-size="4" text-anchor="end" fill="#d6a382" transform="rotate(-80 535.1 327.2)">v5.159.1</text><text x="552.6" y="327.2" font-size="4" text-anchor="end" fill="#d6a382" transform="rotate(-80 552.6 327.2)">v5.159.2</text><text x="570.0" y="327.2" font-size="4" text-anchor="end" fill="#aa4400" transform="rotate(-80 570.0 327.2)">v5.160.0</text><path d="M64.0,155.2 L81.4,158.7 L98.9,151.4 L116.3,155.7 L133.8,159.1 L151.2,141.9 L168.7,141.3 L186.1,138.0 L203.6,146.3 L221.0,83.3 L238.5,73.7 L255.9,72.4 L273.4,73.3 L290.8,72.1 L308.3,65.4 L325.7,69.7 L343.2,65.3 L360.6,71.2 L378.1,67.1 L395.5,64.1 L413.0,70.6 L430.4,71.5 L447.9,72.0 L465.3,70.9 L482.8,78.0 L500.2,81.7 L517.7,68.4 L535.1,71.7 L552.6,66.4 L570.0,70.7" fill="none" stroke="#4477AA" stroke-width="1.6"/><circle cx="64.0" cy="155.2" r="2" fill="#4477AA"/><circle cx="81.4" cy="158.7" r="2" fill="#4477AA"/><circle cx="98.9" cy="151.4" r="2" fill="#4477AA"/><circle cx="116.3" cy="155.7" r="2" fill="#4477AA"/><circle cx="133.8" cy="159.1" r="2" fill="#4477AA"/><circle cx="151.2" cy="141.9" r="2" fill="#4477AA"/><circle cx="168.7" cy="141.3" r="2" fill="#4477AA"/><circle cx="186.1" cy="138.0" r="2" fill="#4477AA"/><circle cx="203.6" cy="146.3" r="2" fill="#4477AA"/><circle cx="221.0" cy="83.3" r="2" fill="#4477AA"/><circle cx="238.5" cy="73.7" r="2" fill="#4477AA"/><circle cx="255.9" cy="72.4" r="2" fill="#4477AA"/><circle cx="273.4" cy="73.3" r="2" fill="#4477AA"/><circle cx="290.8" cy="72.1" r="2" fill="#4477AA"/><circle cx="308.3" cy="65.4" r="2" fill="#4477AA"/><circle cx="325.7" cy="69.7" r="2" fill="#4477AA"/><circle cx="343.2" cy="65.3" r="2" fill="#4477AA"/><circle cx="360.6" cy="71.2" r="2" fill="#4477AA"/><circle cx="378.1" cy="67.1" r="2" fill="#4477AA"/><circle cx="395.5" cy="64.1" r="2" fill="#4477AA"/><circle cx="413.0" cy="70.6" r="2" fill="#4477AA"/><circle cx="430.4" cy="71.5" r="2" fill="#4477AA"/><circle cx="447.9" cy="72.0" r="2" fill="#4477AA"/><circle cx="465.3" cy="70.9" r="2" fill="#4477AA"/><circle cx="482.8" cy="78.0" r="2" fill="#4477AA"/><circle cx="500.2" cy="81.7" r="2" fill="#4477AA"/><circle cx="517.7" cy="68.4" r="2" fill="#4477AA"/><circle cx="535.1" cy="71.7" r="2" fill="#4477AA"/><circle cx="552.6" cy="66.4" r="2" fill="#4477AA"/><circle cx="570.0" cy="70.7" r="2" fill="#4477AA"/><rect x="580" y="34" width="10" height="10" fill="#4477AA"/><text x="594" y="43" font-size="10" fill="#444">chain-10</text><path d="M64.0,167.8 L81.4,165.9 L98.9,167.2 L116.3,169.9 L133.8,163.7 L151.2,150.8 L168.7,151.9 L186.1,153.8 L203.6,152.6 L221.0,84.0 L238.5,87.4 L255.9,82.0 L273.4,82.0 L290.8,82.1 L308.3,86.9 L325.7,84.0 L343.2,85.2 L360.6,84.4 L378.1,82.1 L395.5,82.4 L413.0,87.1 L430.4,87.7 L447.9,87.6 L465.3,84.3 L482.8,84.1 L500.2,90.8 L517.7,88.9 L535.1,89.9 L552.6,78.8 L570.0,86.4" fill="none" stroke="#EE6677" stroke-width="1.6"/><circle cx="64.0" cy="167.8" r="2" fill="#EE6677"/><circle cx="81.4" cy="165.9" r="2" fill="#EE6677"/><circle cx="98.9" cy="167.2" r="2" fill="#EE6677"/><circle cx="116.3" cy="169.9" r="2" fill="#EE6677"/><circle cx="133.8" cy="163.7" r="2" fill="#EE6677"/><circle cx="151.2" cy="150.8" r="2" fill="#EE6677"/><circle cx="168.7" cy="151.9" r="2" fill="#EE6677"/><circle cx="186.1" cy="153.8" r="2" fill="#EE6677"/><circle cx="203.6" cy="152.6" r="2" fill="#EE6677"/><circle cx="221.0" cy="84.0" r="2" fill="#EE6677"/><circle cx="238.5" cy="87.4" r="2" fill="#EE6677"/><circle cx="255.9" cy="82.0" r="2" fill="#EE6677"/><circle cx="273.4" cy="82.0" r="2" fill="#EE6677"/><circle cx="290.8" cy="82.1" r="2" fill="#EE6677"/><circle cx="308.3" cy="86.9" r="2" fill="#EE6677"/><circle cx="325.7" cy="84.0" r="2" fill="#EE6677"/><circle cx="343.2" cy="85.2" r="2" fill="#EE6677"/><circle cx="360.6" cy="84.4" r="2" fill="#EE6677"/><circle cx="378.1" cy="82.1" r="2" fill="#EE6677"/><circle cx="395.5" cy="82.4" r="2" fill="#EE6677"/><circle cx="413.0" cy="87.1" r="2" fill="#EE6677"/><circle cx="430.4" cy="87.7" r="2" fill="#EE6677"/><circle cx="447.9" cy="87.6" r="2" fill="#EE6677"/><circle cx="465.3" cy="84.3" r="2" fill="#EE6677"/><circle cx="482.8" cy="84.1" r="2" fill="#EE6677"/><circle cx="500.2" cy="90.8" r="2" fill="#EE6677"/><circle cx="517.7" cy="88.9" r="2" fill="#EE6677"/><circle cx="535.1" cy="89.9" r="2" fill="#EE6677"/><circle cx="552.6" cy="78.8" r="2" fill="#EE6677"/><circle cx="570.0" cy="86.4" r="2" fill="#EE6677"/><rect x="580" y="49" width="10" height="10" fill="#EE6677"/><text x="594" y="58" font-size="10" fill="#444">chain-50</text><path d="M64.0,179.0 L81.4,174.3 L98.9,176.0 L116.3,178.7 L133.8,174.4 L151.2,159.4 L168.7,171.5 L186.1,164.0 L203.6,162.8 L221.0,102.8 L238.5,104.9 L255.9,102.5 L273.4,99.5 L290.8,101.1 L308.3,99.6 L325.7,98.6 L343.2,100.0 L360.6,98.2 L378.1,101.6 L395.5,99.2 L413.0,102.0 L430.4,103.0 L447.9,103.6 L465.3,99.1 L482.8,103.8 L500.2,99.4 L517.7,104.9 L535.1,108.5 L552.6,102.5 L570.0,101.1" fill="none" stroke="#228833" stroke-width="1.6"/><circle cx="64.0" cy="179.0" r="2" fill="#228833"/><circle cx="81.4" cy="174.3" r="2" fill="#228833"/><circle cx="98.9" cy="176.0" r="2" fill="#228833"/><circle cx="116.3" cy="178.7" r="2" fill="#228833"/><circle cx="133.8" cy="174.4" r="2" fill="#228833"/><circle cx="151.2" cy="159.4" r="2" fill="#228833"/><circle cx="168.7" cy="171.5" r="2" fill="#228833"/><circle cx="186.1" cy="164.0" r="2" fill="#228833"/><circle cx="203.6" cy="162.8" r="2" fill="#228833"/><circle cx="221.0" cy="102.8" r="2" fill="#228833"/><circle cx="238.5" cy="104.9" r="2" fill="#228833"/><circle cx="255.9" cy="102.5" r="2" fill="#228833"/><circle cx="273.4" cy="99.5" r="2" fill="#228833"/><circle cx="290.8" cy="101.1" r="2" fill="#228833"/><circle cx="308.3" cy="99.6" r="2" fill="#228833"/><circle cx="325.7" cy="98.6" r="2" fill="#228833"/><circle cx="343.2" cy="100.0" r="2" fill="#228833"/><circle cx="360.6" cy="98.2" r="2" fill="#228833"/><circle cx="378.1" cy="101.6" r="2" fill="#228833"/><circle cx="395.5" cy="99.2" r="2" fill="#228833"/><circle cx="413.0" cy="102.0" r="2" fill="#228833"/><circle cx="430.4" cy="103.0" r="2" fill="#228833"/><circle cx="447.9" cy="103.6" r="2" fill="#228833"/><circle cx="465.3" cy="99.1" r="2" fill="#228833"/><circle cx="482.8" cy="103.8" r="2" fill="#228833"/><circle cx="500.2" cy="99.4" r="2" fill="#228833"/><circle cx="517.7" cy="104.9" r="2" fill="#228833"/><circle cx="535.1" cy="108.5" r="2" fill="#228833"/><circle cx="552.6" cy="102.5" r="2" fill="#228833"/><circle cx="570.0" cy="101.1" r="2" fill="#228833"/><rect x="580" y="64" width="10" height="10" fill="#228833"/><text x="594" y="73" font-size="10" fill="#444">chain-200</text><path d="M64.0,197.1 L81.4,197.5 L98.9,196.7 L116.3,195.4 L133.8,195.0 L151.2,186.0 L168.7,187.3 L186.1,187.2 L203.6,183.6 L221.0,125.9 L238.5,123.9 L255.9,121.9 L273.4,127.4 L290.8,125.0 L308.3,122.1 L325.7,125.1 L343.2,128.6 L360.6,128.3 L378.1,119.6 L395.5,135.0 L413.0,122.9 L430.4,122.9 L447.9,124.4 L465.3,119.9 L482.8,127.9 L500.2,123.9 L517.7,123.2 L535.1,124.2 L552.6,129.1 L570.0,125.3" fill="none" stroke="#CCBB44" stroke-width="1.6"/><circle cx="64.0" cy="197.1" r="2" fill="#CCBB44"/><circle cx="81.4" cy="197.5" r="2" fill="#CCBB44"/><circle cx="98.9" cy="196.7" r="2" fill="#CCBB44"/><circle cx="116.3" cy="195.4" r="2" fill="#CCBB44"/><circle cx="133.8" cy="195.0" r="2" fill="#CCBB44"/><circle cx="151.2" cy="186.0" r="2" fill="#CCBB44"/><circle cx="168.7" cy="187.3" r="2" fill="#CCBB44"/><circle cx="186.1" cy="187.2" r="2" fill="#CCBB44"/><circle cx="203.6" cy="183.6" r="2" fill="#CCBB44"/><circle cx="221.0" cy="125.9" r="2" fill="#CCBB44"/><circle cx="238.5" cy="123.9" r="2" fill="#CCBB44"/><circle cx="255.9" cy="121.9" r="2" fill="#CCBB44"/><circle cx="273.4" cy="127.4" r="2" fill="#CCBB44"/><circle cx="290.8" cy="125.0" r="2" fill="#CCBB44"/><circle cx="308.3" cy="122.1" r="2" fill="#CCBB44"/><circle cx="325.7" cy="125.1" r="2" fill="#CCBB44"/><circle cx="343.2" cy="128.6" r="2" fill="#CCBB44"/><circle cx="360.6" cy="128.3" r="2" fill="#CCBB44"/><circle cx="378.1" cy="119.6" r="2" fill="#CCBB44"/><circle cx="395.5" cy="135.0" r="2" fill="#CCBB44"/><circle cx="413.0" cy="122.9" r="2" fill="#CCBB44"/><circle cx="430.4" cy="122.9" r="2" fill="#CCBB44"/><circle cx="447.9" cy="124.4" r="2" fill="#CCBB44"/><circle cx="465.3" cy="119.9" r="2" fill="#CCBB44"/><circle cx="482.8" cy="127.9" r="2" fill="#CCBB44"/><circle cx="500.2" cy="123.9" r="2" fill="#CCBB44"/><circle cx="517.7" cy="123.2" r="2" fill="#CCBB44"/><circle cx="535.1" cy="124.2" r="2" fill="#CCBB44"/><circle cx="552.6" cy="129.1" r="2" fill="#CCBB44"/><circle cx="570.0" cy="125.3" r="2" fill="#CCBB44"/><rect x="580" y="79" width="10" height="10" fill="#CCBB44"/><text x="594" y="88" font-size="10" fill="#444">chain-1000</text><path d="M64.0,168.5 L81.4,165.1 L98.9,157.3 L116.3,164.1 L133.8,172.5 L151.2,157.3 L168.7,156.6 L186.1,158.6 L203.6,153.1 L221.0,72.8 L238.5,82.0 L255.9,79.8 L273.4,78.2 L290.8,84.4 L308.3,75.0 L325.7,79.3 L343.2,82.0 L360.6,71.0 L378.1,79.6 L395.5,71.0 L413.0,91.1 L430.4,83.8 L447.9,81.3 L465.3,82.6 L482.8,71.1 L500.2,78.7 L517.7,82.0 L535.1,88.2 L552.6,82.3 L570.0,77.1" fill="none" stroke="#66CCEE" stroke-width="1.6"/><circle cx="64.0" cy="168.5" r="2" fill="#66CCEE"/><circle cx="81.4" cy="165.1" r="2" fill="#66CCEE"/><circle cx="98.9" cy="157.3" r="2" fill="#66CCEE"/><circle cx="116.3" cy="164.1" r="2" fill="#66CCEE"/><circle cx="133.8" cy="172.5" r="2" fill="#66CCEE"/><circle cx="151.2" cy="157.3" r="2" fill="#66CCEE"/><circle cx="168.7" cy="156.6" r="2" fill="#66CCEE"/><circle cx="186.1" cy="158.6" r="2" fill="#66CCEE"/><circle cx="203.6" cy="153.1" r="2" fill="#66CCEE"/><circle cx="221.0" cy="72.8" r="2" fill="#66CCEE"/><circle cx="238.5" cy="82.0" r="2" fill="#66CCEE"/><circle cx="255.9" cy="79.8" r="2" fill="#66CCEE"/><circle cx="273.4" cy="78.2" r="2" fill="#66CCEE"/><circle cx="290.8" cy="84.4" r="2" fill="#66CCEE"/><circle cx="308.3" cy="75.0" r="2" fill="#66CCEE"/><circle cx="325.7" cy="79.3" r="2" fill="#66CCEE"/><circle cx="343.2" cy="82.0" r="2" fill="#66CCEE"/><circle cx="360.6" cy="71.0" r="2" fill="#66CCEE"/><circle cx="378.1" cy="79.6" r="2" fill="#66CCEE"/><circle cx="395.5" cy="71.0" r="2" fill="#66CCEE"/><circle cx="413.0" cy="91.1" r="2" fill="#66CCEE"/><circle cx="430.4" cy="83.8" r="2" fill="#66CCEE"/><circle cx="447.9" cy="81.3" r="2" fill="#66CCEE"/><circle cx="465.3" cy="82.6" r="2" fill="#66CCEE"/><circle cx="482.8" cy="71.1" r="2" fill="#66CCEE"/><circle cx="500.2" cy="78.7" r="2" fill="#66CCEE"/><circle cx="517.7" cy="82.0" r="2" fill="#66CCEE"/><circle cx="535.1" cy="88.2" r="2" fill="#66CCEE"/><circle cx="552.6" cy="82.3" r="2" fill="#66CCEE"/><circle cx="570.0" cy="77.1" r="2" fill="#66CCEE"/><rect x="580" y="94" width="10" height="10" fill="#66CCEE"/><text x="594" y="103" font-size="10" fill="#444">dense-10</text><path d="M64.0,190.3 L81.4,187.6 L98.9,189.7 L116.3,193.0 L133.8,192.5 L151.2,180.0 L168.7,186.3 L186.1,186.4 L203.6,183.9 L221.0,111.2 L238.5,126.5 L255.9,115.5 L273.4,116.3 L290.8,122.4 L308.3,119.7 L325.7,118.9 L343.2,119.1 L360.6,115.8 L378.1,120.6 L395.5,118.1 L413.0,117.9 L430.4,123.2 L447.9,127.7 L465.3,119.7 L482.8,126.0 L500.2,117.6 L517.7,121.3 L535.1,118.7 L552.6,123.7 L570.0,123.6" fill="none" stroke="#AA3377" stroke-width="1.6"/><circle cx="64.0" cy="190.3" r="2" fill="#AA3377"/><circle cx="81.4" cy="187.6" r="2" fill="#AA3377"/><circle cx="98.9" cy="189.7" r="2" fill="#AA3377"/><circle cx="116.3" cy="193.0" r="2" fill="#AA3377"/><circle cx="133.8" cy="192.5" r="2" fill="#AA3377"/><circle cx="151.2" cy="180.0" r="2" fill="#AA3377"/><circle cx="168.7" cy="186.3" r="2" fill="#AA3377"/><circle cx="186.1" cy="186.4" r="2" fill="#AA3377"/><circle cx="203.6" cy="183.9" r="2" fill="#AA3377"/><circle cx="221.0" cy="111.2" r="2" fill="#AA3377"/><circle cx="238.5" cy="126.5" r="2" fill="#AA3377"/><circle cx="255.9" cy="115.5" r="2" fill="#AA3377"/><circle cx="273.4" cy="116.3" r="2" fill="#AA3377"/><circle cx="290.8" cy="122.4" r="2" fill="#AA3377"/><circle cx="308.3" cy="119.7" r="2" fill="#AA3377"/><circle cx="325.7" cy="118.9" r="2" fill="#AA3377"/><circle cx="343.2" cy="119.1" r="2" fill="#AA3377"/><circle cx="360.6" cy="115.8" r="2" fill="#AA3377"/><circle cx="378.1" cy="120.6" r="2" fill="#AA3377"/><circle cx="395.5" cy="118.1" r="2" fill="#AA3377"/><circle cx="413.0" cy="117.9" r="2" fill="#AA3377"/><circle cx="430.4" cy="123.2" r="2" fill="#AA3377"/><circle cx="447.9" cy="127.7" r="2" fill="#AA3377"/><circle cx="465.3" cy="119.7" r="2" fill="#AA3377"/><circle cx="482.8" cy="126.0" r="2" fill="#AA3377"/><circle cx="500.2" cy="117.6" r="2" fill="#AA3377"/><circle cx="517.7" cy="121.3" r="2" fill="#AA3377"/><circle cx="535.1" cy="118.7" r="2" fill="#AA3377"/><circle cx="552.6" cy="123.7" r="2" fill="#AA3377"/><circle cx="570.0" cy="123.6" r="2" fill="#AA3377"/><rect x="580" y="109" width="10" height="10" fill="#AA3377"/><text x="594" y="118" font-size="10" fill="#444">dense-50</text><path d="M64.0,241.7 L81.4,243.2 L98.9,243.1 L116.3,240.4 L133.8,242.7 L151.2,231.0 L168.7,234.4 L186.1,238.1 L203.6,237.0 L221.0,175.8 L238.5,174.6 L255.9,176.9 L273.4,175.6 L290.8,177.0 L308.3,174.6 L325.7,179.5 L343.2,177.9 L360.6,174.7 L378.1,175.2 L395.5,177.9 L413.0,179.1 L430.4,178.5 L447.9,176.5 L465.3,175.8 L482.8,178.5 L500.2,182.6 L517.7,179.3 L535.1,177.0 L552.6,181.3 L570.0,177.8" fill="none" stroke="#BBBBBB" stroke-width="1.6"/><circle cx="64.0" cy="241.7" r="2" fill="#BBBBBB"/><circle cx="81.4" cy="243.2" r="2" fill="#BBBBBB"/><circle cx="98.9" cy="243.1" r="2" fill="#BBBBBB"/><circle cx="116.3" cy="240.4" r="2" fill="#BBBBBB"/><circle cx="133.8" cy="242.7" r="2" fill="#BBBBBB"/><circle cx="151.2" cy="231.0" r="2" fill="#BBBBBB"/><circle cx="168.7" cy="234.4" r="2" fill="#BBBBBB"/><circle cx="186.1" cy="238.1" r="2" fill="#BBBBBB"/><circle cx="203.6" cy="237.0" r="2" fill="#BBBBBB"/><circle cx="221.0" cy="175.8" r="2" fill="#BBBBBB"/><circle cx="238.5" cy="174.6" r="2" fill="#BBBBBB"/><circle cx="255.9" cy="176.9" r="2" fill="#BBBBBB"/><circle cx="273.4" cy="175.6" r="2" fill="#BBBBBB"/><circle cx="290.8" cy="177.0" r="2" fill="#BBBBBB"/><circle cx="308.3" cy="174.6" r="2" fill="#BBBBBB"/><circle cx="325.7" cy="179.5" r="2" fill="#BBBBBB"/><circle cx="343.2" cy="177.9" r="2" fill="#BBBBBB"/><circle cx="360.6" cy="174.7" r="2" fill="#BBBBBB"/><circle cx="378.1" cy="175.2" r="2" fill="#BBBBBB"/><circle cx="395.5" cy="177.9" r="2" fill="#BBBBBB"/><circle cx="413.0" cy="179.1" r="2" fill="#BBBBBB"/><circle cx="430.4" cy="178.5" r="2" fill="#BBBBBB"/><circle cx="447.9" cy="176.5" r="2" fill="#BBBBBB"/><circle cx="465.3" cy="175.8" r="2" fill="#BBBBBB"/><circle cx="482.8" cy="178.5" r="2" fill="#BBBBBB"/><circle cx="500.2" cy="182.6" r="2" fill="#BBBBBB"/><circle cx="517.7" cy="179.3" r="2" fill="#BBBBBB"/><circle cx="535.1" cy="177.0" r="2" fill="#BBBBBB"/><circle cx="552.6" cy="181.3" r="2" fill="#BBBBBB"/><circle cx="570.0" cy="177.8" r="2" fill="#BBBBBB"/><rect x="580" y="124" width="10" height="10" fill="#BBBBBB"/><text x="594" y="133" font-size="10" fill="#444">dense-200</text><path d="M64.0,164.6 L81.4,162.9 L98.9,165.2 L116.3,164.3 L133.8,159.3 L151.2,144.3 L168.7,147.1 L186.1,148.9 L203.6,141.5 L221.0,63.1 L238.5,62.1 L255.9,66.5 L273.4,65.9 L290.8,69.9 L308.3,63.8 L325.7,66.0 L343.2,64.8 L360.6,64.7 L378.1,58.2 L395.5,71.8 L413.0,70.4 L430.4,68.6 L447.9,66.0 L465.3,64.6 L482.8,62.2 L500.2,68.7 L517.7,61.5 L535.1,68.6 L552.6,60.0 L570.0,63.5" fill="none" stroke="#222255" stroke-width="1.6"/><circle cx="64.0" cy="164.6" r="2" fill="#222255"/><circle cx="81.4" cy="162.9" r="2" fill="#222255"/><circle cx="98.9" cy="165.2" r="2" fill="#222255"/><circle cx="116.3" cy="164.3" r="2" fill="#222255"/><circle cx="133.8" cy="159.3" r="2" fill="#222255"/><circle cx="151.2" cy="144.3" r="2" fill="#222255"/><circle cx="168.7" cy="147.1" r="2" fill="#222255"/><circle cx="186.1" cy="148.9" r="2" fill="#222255"/><circle cx="203.6" cy="141.5" r="2" fill="#222255"/><circle cx="221.0" cy="63.1" r="2" fill="#222255"/><circle cx="238.5" cy="62.1" r="2" fill="#222255"/><circle cx="255.9" cy="66.5" r="2" fill="#222255"/><circle cx="273.4" cy="65.9" r="2" fill="#222255"/><circle cx="290.8" cy="69.9" r="2" fill="#222255"/><circle cx="308.3" cy="63.8" r="2" fill="#222255"/><circle cx="325.7" cy="66.0" r="2" fill="#222255"/><circle cx="343.2" cy="64.8" r="2" fill="#222255"/><circle cx="360.6" cy="64.7" r="2" fill="#222255"/><circle cx="378.1" cy="58.2" r="2" fill="#222255"/><circle cx="395.5" cy="71.8" r="2" fill="#222255"/><circle cx="413.0" cy="70.4" r="2" fill="#222255"/><circle cx="430.4" cy="68.6" r="2" fill="#222255"/><circle cx="447.9" cy="66.0" r="2" fill="#222255"/><circle cx="465.3" cy="64.6" r="2" fill="#222255"/><circle cx="482.8" cy="62.2" r="2" fill="#222255"/><circle cx="500.2" cy="68.7" r="2" fill="#222255"/><circle cx="517.7" cy="61.5" r="2" fill="#222255"/><circle cx="535.1" cy="68.6" r="2" fill="#222255"/><circle cx="552.6" cy="60.0" r="2" fill="#222255"/><circle cx="570.0" cy="63.5" r="2" fill="#222255"/><rect x="580" y="139" width="10" height="10" fill="#222255"/><text x="594" y="148" font-size="10" fill="#444">hub-50</text><path d="M64.0,171.9 L81.4,170.9 L98.9,172.5 L116.3,169.0 L133.8,173.6 L151.2,156.8 L168.7,153.0 L186.1,152.8 L203.6,150.6 L221.0,71.7 L238.5,66.5 L255.9,68.3 L273.4,70.2 L290.8,69.0 L308.3,74.2 L325.7,69.7 L343.2,66.6 L360.6,64.8 L378.1,68.3 L395.5,68.2 L413.0,67.5 L430.4,69.1 L447.9,64.9 L465.3,67.5 L482.8,70.3 L500.2,70.8 L517.7,65.7 L535.1,72.0 L552.6,66.7 L570.0,63.4" fill="none" stroke="#225555" stroke-width="1.6"/><circle cx="64.0" cy="171.9" r="2" fill="#225555"/><circle cx="81.4" cy="170.9" r="2" fill="#225555"/><circle cx="98.9" cy="172.5" r="2" fill="#225555"/><circle cx="116.3" cy="169.0" r="2" fill="#225555"/><circle cx="133.8" cy="173.6" r="2" fill="#225555"/><circle cx="151.2" cy="156.8" r="2" fill="#225555"/><circle cx="168.7" cy="153.0" r="2" fill="#225555"/><circle cx="186.1" cy="152.8" r="2" fill="#225555"/><circle cx="203.6" cy="150.6" r="2" fill="#225555"/><circle cx="221.0" cy="71.7" r="2" fill="#225555"/><circle cx="238.5" cy="66.5" r="2" fill="#225555"/><circle cx="255.9" cy="68.3" r="2" fill="#225555"/><circle cx="273.4" cy="70.2" r="2" fill="#225555"/><circle cx="290.8" cy="69.0" r="2" fill="#225555"/><circle cx="308.3" cy="74.2" r="2" fill="#225555"/><circle cx="325.7" cy="69.7" r="2" fill="#225555"/><circle cx="343.2" cy="66.6" r="2" fill="#225555"/><circle cx="360.6" cy="64.8" r="2" fill="#225555"/><circle cx="378.1" cy="68.3" r="2" fill="#225555"/><circle cx="395.5" cy="68.2" r="2" fill="#225555"/><circle cx="413.0" cy="67.5" r="2" fill="#225555"/><circle cx="430.4" cy="69.1" r="2" fill="#225555"/><circle cx="447.9" cy="64.9" r="2" fill="#225555"/><circle cx="465.3" cy="67.5" r="2" fill="#225555"/><circle cx="482.8" cy="70.3" r="2" fill="#225555"/><circle cx="500.2" cy="70.8" r="2" fill="#225555"/><circle cx="517.7" cy="65.7" r="2" fill="#225555"/><circle cx="535.1" cy="72.0" r="2" fill="#225555"/><circle cx="552.6" cy="66.7" r="2" fill="#225555"/><circle cx="570.0" cy="63.4" r="2" fill="#225555"/><rect x="580" y="154" width="10" height="10" fill="#225555"/><text x="594" y="163" font-size="10" fill="#444">hub-200</text><path d="M64.0,299.7 L81.4,299.1 L98.9,298.9 L116.3,299.8 L133.8,299.6 L151.2,285.2 L168.7,282.8 L186.1,281.3 L203.6,285.4 L221.0,259.6 L238.5,258.9 L255.9,258.3 L273.4,257.2 L290.8,257.3 L308.3,257.5 L325.7,258.7 L343.2,257.0 L360.6,260.3 L378.1,258.3 L395.5,258.6 L413.0,255.6 L430.4,258.3 L447.9,259.2 L465.3,258.5 L482.8,259.1 L500.2,261.2 L517.7,257.7 L535.1,258.5 L552.6,260.0 L570.0,258.7" fill="none" stroke="#552222" stroke-width="1.6"/><circle cx="64.0" cy="299.7" r="2" fill="#552222"/><circle cx="81.4" cy="299.1" r="2" fill="#552222"/><circle cx="98.9" cy="298.9" r="2" fill="#552222"/><circle cx="116.3" cy="299.8" r="2" fill="#552222"/><circle cx="133.8" cy="299.6" r="2" fill="#552222"/><circle cx="151.2" cy="285.2" r="2" fill="#552222"/><circle cx="168.7" cy="282.8" r="2" fill="#552222"/><circle cx="186.1" cy="281.3" r="2" fill="#552222"/><circle cx="203.6" cy="285.4" r="2" fill="#552222"/><circle cx="221.0" cy="259.6" r="2" fill="#552222"/><circle cx="238.5" cy="258.9" r="2" fill="#552222"/><circle cx="255.9" cy="258.3" r="2" fill="#552222"/><circle cx="273.4" cy="257.2" r="2" fill="#552222"/><circle cx="290.8" cy="257.3" r="2" fill="#552222"/><circle cx="308.3" cy="257.5" r="2" fill="#552222"/><circle cx="325.7" cy="258.7" r="2" fill="#552222"/><circle cx="343.2" cy="257.0" r="2" fill="#552222"/><circle cx="360.6" cy="260.3" r="2" fill="#552222"/><circle cx="378.1" cy="258.3" r="2" fill="#552222"/><circle cx="395.5" cy="258.6" r="2" fill="#552222"/><circle cx="413.0" cy="255.6" r="2" fill="#552222"/><circle cx="430.4" cy="258.3" r="2" fill="#552222"/><circle cx="447.9" cy="259.2" r="2" fill="#552222"/><circle cx="465.3" cy="258.5" r="2" fill="#552222"/><circle cx="482.8" cy="259.1" r="2" fill="#552222"/><circle cx="500.2" cy="261.2" r="2" fill="#552222"/><circle cx="517.7" cy="257.7" r="2" fill="#552222"/><circle cx="535.1" cy="258.5" r="2" fill="#552222"/><circle cx="552.6" cy="260.0" r="2" fill="#552222"/><circle cx="570.0" cy="258.7" r="2" fill="#552222"/><rect x="580" y="169" width="10" height="10" fill="#552222"/><text x="594" y="178" font-size="10" fill="#444">hooked-200</text></svg>