<svg width="720" height="372" xmlns="http://www.w3.org/2000/svg"><rect width="720" height="372" fill="#ffffff"/><text x="64" y="20" font-size="15" font-weight="bold" fill="#333">construct() — ops/sec (linear scale, last 30) by PR / release, c8g.medium</text><line x1="81.4" y1="34" x2="81.4" y2="324" stroke="#e8e8e8"/><line x1="98.9" y1="34" x2="98.9" y2="324" stroke="#e8e8e8"/><line x1="116.3" y1="34" x2="116.3" y2="324" stroke="#e8e8e8"/><line x1="133.8" y1="34" x2="133.8" y2="324" stroke="#e8e8e8"/><line x1="168.7" y1="34" x2="168.7" y2="324" stroke="#e8e8e8"/><line x1="186.1" y1="34" x2="186.1" y2="324" stroke="#e8e8e8"/><line x1="203.6" y1="34" x2="203.6" y2="324" stroke="#e8e8e8"/><line x1="221.0" y1="34" x2="221.0" y2="324" stroke="#e8e8e8"/><line x1="255.9" y1="34" x2="255.9" y2="324" stroke="#e8e8e8"/><line x1="273.4" y1="34" x2="273.4" y2="324" stroke="#e8e8e8"/><line x1="290.8" y1="34" x2="290.8" y2="324" stroke="#e8e8e8"/><line x1="308.3" y1="34" x2="308.3" y2="324" stroke="#e8e8e8"/><line x1="343.2" y1="34" x2="343.2" y2="324" stroke="#e8e8e8"/><line x1="360.6" y1="34" x2="360.6" y2="324" stroke="#e8e8e8"/><line x1="378.1" y1="34" x2="378.1" y2="324" stroke="#e8e8e8"/><line x1="395.5" y1="34" x2="395.5" y2="324" stroke="#e8e8e8"/><line x1="430.4" y1="34" x2="430.4" y2="324" stroke="#e8e8e8"/><line x1="447.9" y1="34" x2="447.9" y2="324" stroke="#e8e8e8"/><line x1="465.3" y1="34" x2="465.3" y2="324" stroke="#e8e8e8"/><line x1="482.8" y1="34" x2="482.8" y2="324" stroke="#e8e8e8"/><line x1="517.7" y1="34" x2="517.7" y2="324" stroke="#e8e8e8"/><line x1="535.1" y1="34" x2="535.1" y2="324" stroke="#e8e8e8"/><line x1="552.6" y1="34" x2="552.6" y2="324" stroke="#e8e8e8"/><line x1="570.0" y1="34" x2="570.0" y2="324" stroke="#e8e8e8"/><line x1="64.0" y1="34" x2="64.0" y2="324" stroke="#d0d0d0"/><line x1="151.2" y1="34" x2="151.2" y2="324" stroke="#d0d0d0"/><line x1="238.5" y1="34" x2="238.5" y2="324" stroke="#d0d0d0"/><line x1="325.7" y1="34" x2="325.7" y2="324" stroke="#d0d0d0"/><line x1="413.0" y1="34" x2="413.0" y2="324" stroke="#d0d0d0"/><line x1="500.2" y1="34" x2="500.2" y2="324" stroke="#d0d0d0"/><line x1="64" y1="324.0" x2="570" y2="324.0" stroke="#b0b0b0"/><text x="58" y="328.0" font-size="10" text-anchor="end" fill="#888">-1.8k</text><line x1="64" y1="266.0" x2="570" y2="266.0" stroke="#b0b0b0"/><text x="58" y="270.0" font-size="10" text-anchor="end" fill="#888">2.5k</text><line x1="64" y1="208.0" x2="570" y2="208.0" stroke="#b0b0b0"/><text x="58" y="212.0" font-size="10" text-anchor="end" fill="#888">6.7k</text><line x1="64" y1="150.0" x2="570" y2="150.0" stroke="#b0b0b0"/><text x="58" y="154.0" font-size="10" text-anchor="end" fill="#888">10.9k</text><line x1="64" y1="92.0" x2="570" y2="92.0" stroke="#b0b0b0"/><text x="58" y="96.0" font-size="10" text-anchor="end" fill="#888">15.1k</text><line x1="64" y1="34.0" x2="570" y2="34.0" stroke="#b0b0b0"/><text x="58" y="38.0" font-size="10" text-anchor="end" fill="#888">19.4k</text><text x="64.0" y="327.2" font-size="4" text-anchor="end" fill="#aa4400" transform="rotate(-80 64.0 327.2)">v5.155.0</text><text x="81.4" y="327.2" font-size="4" text-anchor="end" fill="#d6a382" transform="rotate(-80 81.4 327.2)">v5.155.1</text><text x="98.9" y="327.2" font-size="4" text-anchor="end" fill="#aa4400" transform="rotate(-80 98.9 327.2)">v5.156.0</text><text x="116.3" y="327.2" font-size="4" text-anchor="end" fill="#d6a382" transform="rotate(-80 116.3 327.2)">v5.156.1</text><text x="133.8" y="327.2" font-size="4" text-anchor="end" fill="#aa4400" transform="rotate(-80 133.8 327.2)">v5.157.0</text><text x="151.2" y="327.2" font-size="4" text-anchor="end" fill="#d6a382" transform="rotate(-80 151.2 327.2)">v5.157.1</text><text x="168.7" y="327.2" font-size="4" text-anchor="end" fill="#d6a382" transform="rotate(-80 168.7 327.2)">v5.157.2</text><text x="186.1" y="327.2" font-size="4" text-anchor="end" fill="#d6a382" transform="rotate(-80 186.1 327.2)">v5.157.3</text><text x="203.6" y="327.2" font-size="4" text-anchor="end" fill="#d6a382" transform="rotate(-80 203.6 327.2)">v5.157.4</text><text x="221.0" y="327.2" font-size="4" text-anchor="end" fill="#d6a382" transform="rotate(-80 221.0 327.2)">v5.157.5</text><text x="238.5" y="327.2" font-size="4" text-anchor="end" fill="#d6a382" transform="rotate(-80 238.5 327.2)">v5.157.6</text><text x="255.9" y="327.2" font-size="4" text-anchor="end" fill="#d6a382" transform="rotate(-80 255.9 327.2)">v5.157.7</text><text x="273.4" y="327.2" font-size="4" text-anchor="end" fill="#d6a382" transform="rotate(-80 273.4 327.2)">v5.157.8</text><text x="290.8" y="327.2" font-size="4" text-anchor="end" fill="#d6a382" transform="rotate(-80 290.8 327.2)">v5.157.9</text><text x="308.3" y="327.2" font-size="4" text-anchor="end" fill="#d6a382" transform="rotate(-80 308.3 327.2)">v5.157.10</text><text x="325.7" y="327.2" font-size="4" text-anchor="end" fill="#d6a382" transform="rotate(-80 325.7 327.2)">v5.157.11</text><text x="343.2" y="327.2" font-size="4" text-anchor="end" fill="#d6a382" transform="rotate(-80 343.2 327.2)">v5.157.12</text><text x="360.6" y="327.2" font-size="4" text-anchor="end" fill="#d6a382" transform="rotate(-80 360.6 327.2)">v5.157.13</text><text x="378.1" y="327.2" font-size="4" text-anchor="end" fill="#d6a382" transform="rotate(-80 378.1 327.2)">v5.157.14</text><text x="395.5" y="327.2" font-size="4" text-anchor="end" fill="#d6a382" transform="rotate(-80 395.5 327.2)">v5.157.15</text><text x="413.0" y="327.2" font-size="4" text-anchor="end" fill="#d6a382" transform="rotate(-80 413.0 327.2)">v5.157.16</text><text x="430.4" y="327.2" font-size="4" text-anchor="end" fill="#d6a382" transform="rotate(-80 430.4 327.2)">v5.157.17</text><text x="447.9" y="327.2" font-size="4" text-anchor="end" fill="#d6a382" transform="rotate(-80 447.9 327.2)">v5.157.18</text><text x="465.3" y="327.2" font-size="4" text-anchor="end" fill="#aa4400" transform="rotate(-80 465.3 327.2)">v5.158.0</text><text x="482.8" y="327.2" font-size="4" text-anchor="end" fill="#d6a382" transform="rotate(-80 482.8 327.2)">v5.158.1</text><text x="500.2" y="327.2" font-size="4" text-anchor="end" fill="#d6a382" transform="rotate(-80 500.2 327.2)">v5.158.2</text><text x="517.7" y="327.2" font-size="4" text-anchor="end" fill="#aa4400" transform="rotate(-80 517.7 327.2)">v5.159.0</text><text x="535.1" y="327.2" font-size="4" text-anchor="end" fill="#d6a382" transform="rotate(-80 535.1 327.2)">v5.159.1</text><text x="552.6" y="327.2" font-size="4" text-anchor="end" fill="#d6a382" transform="rotate(-80 552.6 327.2)">v5.159.2</text><text x="570.0" y="327.2" font-size="4" text-anchor="end" fill="#aa4400" transform="rotate(-80 570.0 327.2)">v5.160.0</text><path d="M64.0,157.0 L81.4,151.9 L98.9,154.9 L116.3,155.8 L133.8,91.7 L151.2,94.2 L168.7,89.9 L186.1,104.2 L203.6,95.9 L221.0,143.7 L238.5,142.6 L255.9,132.5 L273.4,132.1 L290.8,136.0 L308.3,137.3 L325.7,136.6 L343.2,135.2 L360.6,128.8 L378.1,131.0 L395.5,179.7 L413.0,152.6 L430.4,132.9 L447.9,135.7 L465.3,127.3 L482.8,61.4 L500.2,59.5 L517.7,58.2 L535.1,66.9 L552.6,84.8 L570.0,77.1" fill="none" stroke="#4477AA" stroke-width="1.6"/><circle cx="64.0" cy="157.0" r="2" fill="#4477AA"/><circle cx="81.4" cy="151.9" r="2" fill="#4477AA"/><circle cx="98.9" cy="154.9" r="2" fill="#4477AA"/><circle cx="116.3" cy="155.8" r="2" fill="#4477AA"/><circle cx="133.8" cy="91.7" r="2" fill="#4477AA"/><circle cx="151.2" cy="94.2" r="2" fill="#4477AA"/><circle cx="168.7" cy="89.9" r="2" fill="#4477AA"/><circle cx="186.1" cy="104.2" r="2" fill="#4477AA"/><circle cx="203.6" cy="95.9" r="2" fill="#4477AA"/><circle cx="221.0" cy="143.7" r="2" fill="#4477AA"/><circle cx="238.5" cy="142.6" r="2" fill="#4477AA"/><circle cx="255.9" cy="132.5" r="2" fill="#4477AA"/><circle cx="273.4" cy="132.1" r="2" fill="#4477AA"/><circle cx="290.8" cy="136.0" r="2" fill="#4477AA"/><circle cx="308.3" cy="137.3" r="2" fill="#4477AA"/><circle cx="325.7" cy="136.6" r="2" fill="#4477AA"/><circle cx="343.2" cy="135.2" r="2" fill="#4477AA"/><circle cx="360.6" cy="128.8" r="2" fill="#4477AA"/><circle cx="378.1" cy="131.0" r="2" fill="#4477AA"/><circle cx="395.5" cy="179.7" r="2" fill="#4477AA"/><circle cx="413.0" cy="152.6" r="2" fill="#4477AA"/><circle cx="430.4" cy="132.9" r="2" fill="#4477AA"/><circle cx="447.9" cy="135.7" r="2" fill="#4477AA"/><circle cx="465.3" cy="127.3" r="2" fill="#4477AA"/><circle cx="482.8" cy="61.4" r="2" fill="#4477AA"/><circle cx="500.2" cy="59.5" r="2" fill="#4477AA"/><circle cx="517.7" cy="58.2" r="2" fill="#4477AA"/><circle cx="535.1" cy="66.9" r="2" fill="#4477AA"/><circle cx="552.6" cy="84.8" r="2" fill="#4477AA"/><circle cx="570.0" cy="77.1" r="2" fill="#4477AA"/><rect x="580" y="34" width="10" height="10" fill="#4477AA"/><text x="594" y="43" font-size="10" fill="#444">chain-10</text><path d="M64.0,241.7 L81.4,241.9 L98.9,243.6 L116.3,242.3 L133.8,234.9 L151.2,234.9 L168.7,235.6 L186.1,236.1 L203.6,236.7 L221.0,257.1 L238.5,258.4 L255.9,252.4 L273.4,253.0 L290.8,252.4 L308.3,254.7 L325.7,252.8 L343.2,250.5 L360.6,252.1 L378.1,251.5 L395.5,257.3 L413.0,261.9 L430.4,252.2 L447.9,253.1 L465.3,249.0 L482.8,226.0 L500.2,226.7 L517.7,228.4 L535.1,227.5 L552.6,229.9 L570.0,227.3" fill="none" stroke="#EE6677" stroke-width="1.6"/><circle cx="64.0" cy="241.7" r="2" fill="#EE6677"/><circle cx="81.4" cy="241.9" r="2" fill="#EE6677"/><circle cx="98.9" cy="243.6" r="2" fill="#EE6677"/><circle cx="116.3" cy="242.3" r="2" fill="#EE6677"/><circle cx="133.8" cy="234.9" r="2" fill="#EE6677"/><circle cx="151.2" cy="234.9" r="2" fill="#EE6677"/><circle cx="168.7" cy="235.6" r="2" fill="#EE6677"/><circle cx="186.1" cy="236.1" r="2" fill="#EE6677"/><circle cx="203.6" cy="236.7" r="2" fill="#EE6677"/><circle cx="221.0" cy="257.1" r="2" fill="#EE6677"/><circle cx="238.5" cy="258.4" r="2" fill="#EE6677"/><circle cx="255.9" cy="252.4" r="2" fill="#EE6677"/><circle cx="273.4" cy="253.0" r="2" fill="#EE6677"/><circle cx="290.8" cy="252.4" r="2" fill="#EE6677"/><circle cx="308.3" cy="254.7" r="2" fill="#EE6677"/><circle cx="325.7" cy="252.8" r="2" fill="#EE6677"/><circle cx="343.2" cy="250.5" r="2" fill="#EE6677"/><circle cx="360.6" cy="252.1" r="2" fill="#EE6677"/><circle cx="378.1" cy="251.5" r="2" fill="#EE6677"/><circle cx="395.5" cy="257.3" r="2" fill="#EE6677"/><circle cx="413.0" cy="261.9" r="2" fill="#EE6677"/><circle cx="430.4" cy="252.2" r="2" fill="#EE6677"/><circle cx="447.9" cy="253.1" r="2" fill="#EE6677"/><circle cx="465.3" cy="249.0" r="2" fill="#EE6677"/><circle cx="482.8" cy="226.0" r="2" fill="#EE6677"/><circle cx="500.2" cy="226.7" r="2" fill="#EE6677"/><circle cx="517.7" cy="228.4" r="2" fill="#EE6677"/><circle cx="535.1" cy="227.5" r="2" fill="#EE6677"/><circle cx="552.6" cy="229.9" r="2" fill="#EE6677"/><circle cx="570.0" cy="227.3" r="2" fill="#EE6677"/><rect x="580" y="49" width="10" height="10" fill="#EE6677"/><text x="594" y="58" font-size="10" fill="#444">chain-50</text><path d="M64.0,283.7 L81.4,283.0 L98.9,283.3 L116.3,283.5 L133.8,282.6 L151.2,282.4 L168.7,282.4 L186.1,282.7 L203.6,282.7 L221.0,288.8 L238.5,288.7 L255.9,287.4 L273.4,287.8 L290.8,287.4 L308.3,288.3 L325.7,287.7 L343.2,287.2 L360.6,288.3 L378.1,287.3 L395.5,288.0 L413.0,289.4 L430.4,287.4 L447.9,294.6 L465.3,286.8 L482.8,280.6 L500.2,280.5 L517.7,282.3 L535.1,281.8 L552.6,280.2 L570.0,281.2" fill="none" stroke="#228833" stroke-width="1.6"/><circle cx="64.0" cy="283.7" r="2" fill="#228833"/><circle cx="81.4" cy="283.0" r="2" fill="#228833"/><circle cx="98.9" cy="283.3" r="2" fill="#228833"/><circle cx="116.3" cy="283.5" r="2" fill="#228833"/><circle cx="133.8" cy="282.6" r="2" fill="#228833"/><circle cx="151.2" cy="282.4" r="2" fill="#228833"/><circle cx="168.7" cy="282.4" r="2" fill="#228833"/><circle cx="186.1" cy="282.7" r="2" fill="#228833"/><circle cx="203.6" cy="282.7" r="2" fill="#228833"/><circle cx="221.0" cy="288.8" r="2" fill="#228833"/><circle cx="238.5" cy="288.7" r="2" fill="#228833"/><circle cx="255.9" cy="287.4" r="2" fill="#228833"/><circle cx="273.4" cy="287.8" r="2" fill="#228833"/><circle cx="290.8" cy="287.4" r="2" fill="#228833"/><circle cx="308.3" cy="288.3" r="2" fill="#228833"/><circle cx="325.7" cy="287.7" r="2" fill="#228833"/><circle cx="343.2" cy="287.2" r="2" fill="#228833"/><circle cx="360.6" cy="288.3" r="2" fill="#228833"/><circle cx="378.1" cy="287.3" r="2" fill="#228833"/><circle cx="395.5" cy="288.0" r="2" fill="#228833"/><circle cx="413.0" cy="289.4" r="2" fill="#228833"/><circle cx="430.4" cy="287.4" r="2" fill="#228833"/><circle cx="447.9" cy="294.6" r="2" fill="#228833"/><circle cx="465.3" cy="286.8" r="2" fill="#228833"/><circle cx="482.8" cy="280.6" r="2" fill="#228833"/><circle cx="500.2" cy="280.5" r="2" fill="#228833"/><circle cx="517.7" cy="282.3" r="2" fill="#228833"/><circle cx="535.1" cy="281.8" r="2" fill="#228833"/><circle cx="552.6" cy="280.2" r="2" fill="#228833"/><circle cx="570.0" cy="281.2" r="2" fill="#228833"/><rect x="580" y="64" width="10" height="10" fill="#228833"/><text x="594" y="73" font-size="10" fill="#444">chain-200</text><path d="M64.0,296.5 L81.4,296.5 L98.9,296.4 L116.3,296.5 L133.8,296.4 L151.2,296.4 L168.7,296.4 L186.1,296.5 L203.6,296.5 L221.0,297.6 L238.5,297.8 L255.9,297.4 L273.4,297.4 L290.8,297.4 L308.3,297.5 L325.7,297.5 L343.2,297.4 L360.6,297.4 L378.1,297.3 L395.5,297.6 L413.0,297.5 L430.4,297.4 L447.9,297.5 L465.3,297.4 L482.8,296.0 L500.2,295.9 L517.7,296.3 L535.1,296.1 L552.6,296.0 L570.0,295.9" fill="none" stroke="#CCBB44" stroke-width="1.6"/><circle cx="64.0" cy="296.5" r="2" fill="#CCBB44"/><circle cx="81.4" cy="296.5" r="2" fill="#CCBB44"/><circle cx="98.9" cy="296.4" r="2" fill="#CCBB44"/><circle cx="116.3" cy="296.5" r="2" fill="#CCBB44"/><circle cx="133.8" cy="296.4" r="2" fill="#CCBB44"/><circle cx="151.2" cy="296.4" r="2" fill="#CCBB44"/><circle cx="168.7" cy="296.4" r="2" fill="#CCBB44"/><circle cx="186.1" cy="296.5" r="2" fill="#CCBB44"/><circle cx="203.6" cy="296.5" r="2" fill="#CCBB44"/><circle cx="221.0" cy="297.6" r="2" fill="#CCBB44"/><circle cx="238.5" cy="297.8" r="2" fill="#CCBB44"/><circle cx="255.9" cy="297.4" r="2" fill="#CCBB44"/><circle cx="273.4" cy="297.4" r="2" fill="#CCBB44"/><circle cx="290.8" cy="297.4" r="2" fill="#CCBB44"/><circle cx="308.3" cy="297.5" r="2" fill="#CCBB44"/><circle cx="325.7" cy="297.5" r="2" fill="#CCBB44"/><circle cx="343.2" cy="297.4" r="2" fill="#CCBB44"/><circle cx="360.6" cy="297.4" r="2" fill="#CCBB44"/><circle cx="378.1" cy="297.3" r="2" fill="#CCBB44"/><circle cx="395.5" cy="297.6" r="2" fill="#CCBB44"/><circle cx="413.0" cy="297.5" r="2" fill="#CCBB44"/><circle cx="430.4" cy="297.4" r="2" fill="#CCBB44"/><circle cx="447.9" cy="297.5" r="2" fill="#CCBB44"/><circle cx="465.3" cy="297.4" r="2" fill="#CCBB44"/><circle cx="482.8" cy="296.0" r="2" fill="#CCBB44"/><circle cx="500.2" cy="295.9" r="2" fill="#CCBB44"/><circle cx="517.7" cy="296.3" r="2" fill="#CCBB44"/><circle cx="535.1" cy="296.1" r="2" fill="#CCBB44"/><circle cx="552.6" cy="296.0" r="2" fill="#CCBB44"/><circle cx="570.0" cy="295.9" r="2" fill="#CCBB44"/><rect x="580" y="79" width="10" height="10" fill="#CCBB44"/><text x="594" y="88" font-size="10" fill="#444">chain-1000</text><path d="M64.0,256.3 L81.4,256.1 L98.9,255.4 L116.3,256.3 L133.8,251.4 L151.2,251.8 L168.7,251.3 L186.1,254.4 L203.6,251.9 L221.0,270.4 L238.5,271.0 L255.9,267.9 L273.4,267.9 L290.8,267.9 L308.3,266.4 L325.7,267.1 L343.2,266.0 L360.6,267.6 L378.1,266.7 L395.5,268.7 L413.0,269.7 L430.4,267.2 L447.9,266.7 L465.3,264.9 L482.8,242.8 L500.2,242.4 L517.7,243.3 L535.1,244.1 L552.6,242.8 L570.0,243.5" fill="none" stroke="#66CCEE" stroke-width="1.6"/><circle cx="64.0" cy="256.3" r="2" fill="#66CCEE"/><circle cx="81.4" cy="256.1" r="2" fill="#66CCEE"/><circle cx="98.9" cy="255.4" r="2" fill="#66CCEE"/><circle cx="116.3" cy="256.3" r="2" fill="#66CCEE"/><circle cx="133.8" cy="251.4" r="2" fill="#66CCEE"/><circle cx="151.2" cy="251.8" r="2" fill="#66CCEE"/><circle cx="168.7" cy="251.3" r="2" fill="#66CCEE"/><circle cx="186.1" cy="254.4" r="2" fill="#66CCEE"/><circle cx="203.6" cy="251.9" r="2" fill="#66CCEE"/><circle cx="221.0" cy="270.4" r="2" fill="#66CCEE"/><circle cx="238.5" cy="271.0" r="2" fill="#66CCEE"/><circle cx="255.9" cy="267.9" r="2" fill="#66CCEE"/><circle cx="273.4" cy="267.9" r="2" fill="#66CCEE"/><circle cx="290.8" cy="267.9" r="2" fill="#66CCEE"/><circle cx="308.3" cy="266.4" r="2" fill="#66CCEE"/><circle cx="325.7" cy="267.1" r="2" fill="#66CCEE"/><circle cx="343.2" cy="266.0" r="2" fill="#66CCEE"/><circle cx="360.6" cy="267.6" r="2" fill="#66CCEE"/><circle cx="378.1" cy="266.7" r="2" fill="#66CCEE"/><circle cx="395.5" cy="268.7" r="2" fill="#66CCEE"/><circle cx="413.0" cy="269.7" r="2" fill="#66CCEE"/><circle cx="430.4" cy="267.2" r="2" fill="#66CCEE"/><circle cx="447.9" cy="266.7" r="2" fill="#66CCEE"/><circle cx="465.3" cy="264.9" r="2" fill="#66CCEE"/><circle cx="482.8" cy="242.8" r="2" fill="#66CCEE"/><circle cx="500.2" cy="242.4" r="2" fill="#66CCEE"/><circle cx="517.7" cy="243.3" r="2" fill="#66CCEE"/><circle cx="535.1" cy="244.1" r="2" fill="#66CCEE"/><circle cx="552.6" cy="242.8" r="2" fill="#66CCEE"/><circle cx="570.0" cy="243.5" r="2" fill="#66CCEE"/><rect x="580" y="94" width="10" height="10" fill="#66CCEE"/><text x="594" y="103" font-size="10" fill="#444">dense-10</text><path d="M64.0,298.0 L81.4,298.0 L98.9,298.0 L116.3,298.1 L133.8,298.0 L151.2,298.0 L168.7,298.0 L186.1,298.0 L203.6,298.0 L221.0,298.7 L238.5,298.8 L255.9,298.6 L273.4,298.6 L290.8,298.6 L308.3,298.5 L325.7,298.6 L343.2,298.6 L360.6,298.6 L378.1,298.6 L395.5,298.6 L413.0,298.7 L430.4,298.6 L447.9,298.6 L465.3,298.6 L482.8,297.6 L500.2,297.6 L517.7,297.5 L535.1,297.6 L552.6,297.5 L570.0,297.6" fill="none" stroke="#AA3377" stroke-width="1.6"/><circle cx="64.0" cy="298.0" r="2" fill="#AA3377"/><circle cx="81.4" cy="298.0" r="2" fill="#AA3377"/><circle cx="98.9" cy="298.0" r="2" fill="#AA3377"/><circle cx="116.3" cy="298.1" r="2" fill="#AA3377"/><circle cx="133.8" cy="298.0" r="2" fill="#AA3377"/><circle cx="151.2" cy="298.0" r="2" fill="#AA3377"/><circle cx="168.7" cy="298.0" r="2" fill="#AA3377"/><circle cx="186.1" cy="298.0" r="2" fill="#AA3377"/><circle cx="203.6" cy="298.0" r="2" fill="#AA3377"/><circle cx="221.0" cy="298.7" r="2" fill="#AA3377"/><circle cx="238.5" cy="298.8" r="2" fill="#AA3377"/><circle cx="255.9" cy="298.6" r="2" fill="#AA3377"/><circle cx="273.4" cy="298.6" r="2" fill="#AA3377"/><circle cx="290.8" cy="298.6" r="2" fill="#AA3377"/><circle cx="308.3" cy="298.5" r="2" fill="#AA3377"/><circle cx="325.7" cy="298.6" r="2" fill="#AA3377"/><circle cx="343.2" cy="298.6" r="2" fill="#AA3377"/><circle cx="360.6" cy="298.6" r="2" fill="#AA3377"/><circle cx="378.1" cy="298.6" r="2" fill="#AA3377"/><circle cx="395.5" cy="298.6" r="2" fill="#AA3377"/><circle cx="413.0" cy="298.7" r="2" fill="#AA3377"/><circle cx="430.4" cy="298.6" r="2" fill="#AA3377"/><circle cx="447.9" cy="298.6" r="2" fill="#AA3377"/><circle cx="465.3" cy="298.6" r="2" fill="#AA3377"/><circle cx="482.8" cy="297.6" r="2" fill="#AA3377"/><circle cx="500.2" cy="297.6" r="2" fill="#AA3377"/><circle cx="517.7" cy="297.5" r="2" fill="#AA3377"/><circle cx="535.1" cy="297.6" r="2" fill="#AA3377"/><circle cx="552.6" cy="297.5" r="2" fill="#AA3377"/><circle cx="570.0" cy="297.6" r="2" fill="#AA3377"/><rect x="580" y="109" width="10" height="10" fill="#AA3377"/><text x="594" y="118" font-size="10" fill="#444">dense-50</text><path d="M64.0,299.8 L81.4,299.8 L98.9,299.8 L116.3,299.8 L133.8,299.8 L151.2,299.8 L168.7,299.8 L186.1,299.8 L203.6,299.8 L221.0,299.8 L238.5,299.8 L255.9,299.8 L273.4,299.8 L290.8,299.8 L308.3,299.8 L325.7,299.8 L343.2,299.8 L360.6,299.8 L378.1,299.8 L395.5,299.8 L413.0,299.8 L430.4,299.8 L447.9,299.8 L465.3,299.8 L482.8,299.8 L500.2,299.8 L517.7,299.8 L535.1,299.8 L552.6,299.8 L570.0,299.8" fill="none" stroke="#BBBBBB" stroke-width="1.6"/><circle cx="64.0" cy="299.8" r="2" fill="#BBBBBB"/><circle cx="81.4" cy="299.8" r="2" fill="#BBBBBB"/><circle cx="98.9" cy="299.8" r="2" fill="#BBBBBB"/><circle cx="116.3" cy="299.8" r="2" fill="#BBBBBB"/><circle cx="133.8" cy="299.8" r="2" fill="#BBBBBB"/><circle cx="151.2" cy="299.8" r="2" fill="#BBBBBB"/><circle cx="168.7" cy="299.8" r="2" fill="#BBBBBB"/><circle cx="186.1" cy="299.8" r="2" fill="#BBBBBB"/><circle cx="203.6" cy="299.8" r="2" fill="#BBBBBB"/><circle cx="221.0" cy="299.8" r="2" fill="#BBBBBB"/><circle cx="238.5" cy="299.8" r="2" fill="#BBBBBB"/><circle cx="255.9" cy="299.8" r="2" fill="#BBBBBB"/><circle cx="273.4" cy="299.8" r="2" fill="#BBBBBB"/><circle cx="290.8" cy="299.8" r="2" fill="#BBBBBB"/><circle cx="308.3" cy="299.8" r="2" fill="#BBBBBB"/><circle cx="325.7" cy="299.8" r="2" fill="#BBBBBB"/><circle cx="343.2" cy="299.8" r="2" fill="#BBBBBB"/><circle cx="360.6" cy="299.8" r="2" fill="#BBBBBB"/><circle cx="378.1" cy="299.8" r="2" fill="#BBBBBB"/><circle cx="395.5" cy="299.8" r="2" fill="#BBBBBB"/><circle cx="413.0" cy="299.8" r="2" fill="#BBBBBB"/><circle cx="430.4" cy="299.8" r="2" fill="#BBBBBB"/><circle cx="447.9" cy="299.8" r="2" fill="#BBBBBB"/><circle cx="465.3" cy="299.8" r="2" fill="#BBBBBB"/><circle cx="482.8" cy="299.8" r="2" fill="#BBBBBB"/><circle cx="500.2" cy="299.8" r="2" fill="#BBBBBB"/><circle cx="517.7" cy="299.8" r="2" fill="#BBBBBB"/><circle cx="535.1" cy="299.8" r="2" fill="#BBBBBB"/><circle cx="552.6" cy="299.8" r="2" fill="#BBBBBB"/><circle cx="570.0" cy="299.8" r="2" fill="#BBBBBB"/><rect x="580" y="124" width="10" height="10" fill="#BBBBBB"/><text x="594" y="133" font-size="10" fill="#444">dense-200</text><path d="M64.0,265.3 L81.4,263.4 L98.9,264.1 L116.3,264.0 L133.8,261.4 L151.2,262.8 L168.7,261.3 L186.1,263.2 L203.6,263.2 L221.0,273.7 L238.5,271.1 L255.9,272.2 L273.4,271.6 L290.8,271.3 L308.3,271.6 L325.7,270.9 L343.2,271.5 L360.6,271.8 L378.1,296.5 L395.5,272.6 L413.0,270.9 L430.4,269.2 L447.9,272.3 L465.3,271.2 L482.8,255.2 L500.2,254.2 L517.7,256.0 L535.1,254.0 L552.6,254.5 L570.0,255.6" fill="none" stroke="#222255" stroke-width="1.6"/><circle cx="64.0" cy="265.3" r="2" fill="#222255"/><circle cx="81.4" cy="263.4" r="2" fill="#222255"/><circle cx="98.9" cy="264.1" r="2" fill="#222255"/><circle cx="116.3" cy="264.0" r="2" fill="#222255"/><circle cx="133.8" cy="261.4" r="2" fill="#222255"/><circle cx="151.2" cy="262.8" r="2" fill="#222255"/><circle cx="168.7" cy="261.3" r="2" fill="#222255"/><circle cx="186.1" cy="263.2" r="2" fill="#222255"/><circle cx="203.6" cy="263.2" r="2" fill="#222255"/><circle cx="221.0" cy="273.7" r="2" fill="#222255"/><circle cx="238.5" cy="271.1" r="2" fill="#222255"/><circle cx="255.9" cy="272.2" r="2" fill="#222255"/><circle cx="273.4" cy="271.6" r="2" fill="#222255"/><circle cx="290.8" cy="271.3" r="2" fill="#222255"/><circle cx="308.3" cy="271.6" r="2" fill="#222255"/><circle cx="325.7" cy="270.9" r="2" fill="#222255"/><circle cx="343.2" cy="271.5" r="2" fill="#222255"/><circle cx="360.6" cy="271.8" r="2" fill="#222255"/><circle cx="378.1" cy="296.5" r="2" fill="#222255"/><circle cx="395.5" cy="272.6" r="2" fill="#222255"/><circle cx="413.0" cy="270.9" r="2" fill="#222255"/><circle cx="430.4" cy="269.2" r="2" fill="#222255"/><circle cx="447.9" cy="272.3" r="2" fill="#222255"/><circle cx="465.3" cy="271.2" r="2" fill="#222255"/><circle cx="482.8" cy="255.2" r="2" fill="#222255"/><circle cx="500.2" cy="254.2" r="2" fill="#222255"/><circle cx="517.7" cy="256.0" r="2" fill="#222255"/><circle cx="535.1" cy="254.0" r="2" fill="#222255"/><circle cx="552.6" cy="254.5" r="2" fill="#222255"/><circle cx="570.0" cy="255.6" r="2" fill="#222255"/><rect x="580" y="139" width="10" height="10" fill="#222255"/><text x="594" y="148" font-size="10" fill="#444">hub-50</text><path d="M64.0,290.3 L81.4,290.1 L98.9,290.0 L116.3,290.2 L133.8,290.1 L151.2,289.8 L168.7,289.9 L186.1,290.3 L203.6,290.1 L221.0,292.9 L238.5,292.9 L255.9,292.7 L273.4,292.8 L290.8,292.7 L308.3,291.7 L325.7,292.3 L343.2,292.5 L360.6,292.2 L378.1,292.9 L395.5,292.3 L413.0,292.3 L430.4,291.6 L447.9,292.4 L465.3,292.0 L482.8,288.1 L500.2,288.7 L517.7,288.4 L535.1,288.6 L552.6,288.1 L570.0,288.6" fill="none" stroke="#225555" stroke-width="1.6"/><circle cx="64.0" cy="290.3" r="2" fill="#225555"/><circle cx="81.4" cy="290.1" r="2" fill="#225555"/><circle cx="98.9" cy="290.0" r="2" fill="#225555"/><circle cx="116.3" cy="290.2" r="2" fill="#225555"/><circle cx="133.8" cy="290.1" r="2" fill="#225555"/><circle cx="151.2" cy="289.8" r="2" fill="#225555"/><circle cx="168.7" cy="289.9" r="2" fill="#225555"/><circle cx="186.1" cy="290.3" r="2" fill="#225555"/><circle cx="203.6" cy="290.1" r="2" fill="#225555"/><circle cx="221.0" cy="292.9" r="2" fill="#225555"/><circle cx="238.5" cy="292.9" r="2" fill="#225555"/><circle cx="255.9" cy="292.7" r="2" fill="#225555"/><circle cx="273.4" cy="292.8" r="2" fill="#225555"/><circle cx="290.8" cy="292.7" r="2" fill="#225555"/><circle cx="308.3" cy="291.7" r="2" fill="#225555"/><circle cx="325.7" cy="292.3" r="2" fill="#225555"/><circle cx="343.2" cy="292.5" r="2" fill="#225555"/><circle cx="360.6" cy="292.2" r="2" fill="#225555"/><circle cx="378.1" cy="292.9" r="2" fill="#225555"/><circle cx="395.5" cy="292.3" r="2" fill="#225555"/><circle cx="413.0" cy="292.3" r="2" fill="#225555"/><circle cx="430.4" cy="291.6" r="2" fill="#225555"/><circle cx="447.9" cy="292.4" r="2" fill="#225555"/><circle cx="465.3" cy="292.0" r="2" fill="#225555"/><circle cx="482.8" cy="288.1" r="2" fill="#225555"/><circle cx="500.2" cy="288.7" r="2" fill="#225555"/><circle cx="517.7" cy="288.4" r="2" fill="#225555"/><circle cx="535.1" cy="288.6" r="2" fill="#225555"/><circle cx="552.6" cy="288.1" r="2" fill="#225555"/><circle cx="570.0" cy="288.6" r="2" fill="#225555"/><rect x="580" y="154" width="10" height="10" fill="#225555"/><text x="594" y="163" font-size="10" fill="#444">hub-200</text><path d="M64.0,298.6 L81.4,298.5 L98.9,298.6 L116.3,298.5 L133.8,298.6 L151.2,298.5 L168.7,298.6 L186.1,298.6 L203.6,298.6 L221.0,299.0 L238.5,298.9 L255.9,298.9 L273.4,298.9 L290.8,298.9 L308.3,298.8 L325.7,298.9 L343.2,298.8 L360.6,298.9 L378.1,299.0 L395.5,298.9 L413.0,298.8 L430.4,298.7 L447.9,298.9 L465.3,298.8 L482.8,298.3 L500.2,298.3 L517.7,298.3 L535.1,298.3 L552.6,298.3 L570.0,298.2" fill="none" stroke="#552222" stroke-width="1.6"/><circle cx="64.0" cy="298.6" r="2" fill="#552222"/><circle cx="81.4" cy="298.5" r="2" fill="#552222"/><circle cx="98.9" cy="298.6" r="2" fill="#552222"/><circle cx="116.3" cy="298.5" r="2" fill="#552222"/><circle cx="133.8" cy="298.6" r="2" fill="#552222"/><circle cx="151.2" cy="298.5" r="2" fill="#552222"/><circle cx="168.7" cy="298.6" r="2" fill="#552222"/><circle cx="186.1" cy="298.6" r="2" fill="#552222"/><circle cx="203.6" cy="298.6" r="2" fill="#552222"/><circle cx="221.0" cy="299.0" r="2" fill="#552222"/><circle cx="238.5" cy="298.9" r="2" fill="#552222"/><circle cx="255.9" cy="298.9" r="2" fill="#552222"/><circle cx="273.4" cy="298.9" r="2" fill="#552222"/><circle cx="290.8" cy="298.9" r="2" fill="#552222"/><circle cx="308.3" cy="298.8" r="2" fill="#552222"/><circle cx="325.7" cy="298.9" r="2" fill="#552222"/><circle cx="343.2" cy="298.8" r="2" fill="#552222"/><circle cx="360.6" cy="298.9" r="2" fill="#552222"/><circle cx="378.1" cy="299.0" r="2" fill="#552222"/><circle cx="395.5" cy="298.9" r="2" fill="#552222"/><circle cx="413.0" cy="298.8" r="2" fill="#552222"/><circle cx="430.4" cy="298.7" r="2" fill="#552222"/><circle cx="447.9" cy="298.9" r="2" fill="#552222"/><circle cx="465.3" cy="298.8" r="2" fill="#552222"/><circle cx="482.8" cy="298.3" r="2" fill="#552222"/><circle cx="500.2" cy="298.3" r="2" fill="#552222"/><circle cx="517.7" cy="298.3" r="2" fill="#552222"/><circle cx="535.1" cy="298.3" r="2" fill="#552222"/><circle cx="552.6" cy="298.3" r="2" fill="#552222"/><circle cx="570.0" cy="298.2" r="2" fill="#552222"/><rect x="580" y="169" width="10" height="10" fill="#552222"/><text x="594" y="178" font-size="10" fill="#444">messy-1000</text><path d="M64.0,299.7 L81.4,299.7 L98.9,299.7 L116.3,299.7 L133.8,299.7 L151.2,299.6 L168.7,299.7 L186.1,299.7 L203.6,299.7 L221.0,299.7 L238.5,299.7 L255.9,299.7 L273.4,299.7 L290.8,299.7 L308.3,299.7 L325.7,299.7 L343.2,299.7 L360.6,299.7 L378.1,299.7 L395.5,299.7 L413.0,299.7 L430.4,299.7 L447.9,299.7 L465.3,299.7 L482.8,299.6 L500.2,299.6 L517.7,299.6 L535.1,299.6 L552.6,299.6 L570.0,299.6" fill="none" stroke="#555522" stroke-width="1.6"/><circle cx="64.0" cy="299.7" r="2" fill="#555522"/><circle cx="81.4" cy="299.7" r="2" fill="#555522"/><circle cx="98.9" cy="299.7" r="2" fill="#555522"/><circle cx="116.3" cy="299.7" r="2" fill="#555522"/><circle cx="133.8" cy="299.7" r="2" fill="#555522"/><circle cx="151.2" cy="299.6" r="2" fill="#555522"/><circle cx="168.7" cy="299.7" r="2" fill="#555522"/><circle cx="186.1" cy="299.7" r="2" fill="#555522"/><circle cx="203.6" cy="299.7" r="2" fill="#555522"/><circle cx="221.0" cy="299.7" r="2" fill="#555522"/><circle cx="238.5" cy="299.7" r="2" fill="#555522"/><circle cx="255.9" cy="299.7" r="2" fill="#555522"/><circle cx="273.4" cy="299.7" r="2" fill="#555522"/><circle cx="290.8" cy="299.7" r="2" fill="#555522"/><circle cx="308.3" cy="299.7" r="2" fill="#555522"/><circle cx="325.7" cy="299.7" r="2" fill="#555522"/><circle cx="343.2" cy="299.7" r="2" fill="#555522"/><circle cx="360.6" cy="299.7" r="2" fill="#555522"/><circle cx="378.1" cy="299.7" r="2" fill="#555522"/><circle cx="395.5" cy="299.7" r="2" fill="#555522"/><circle cx="413.0" cy="299.7" r="2" fill="#555522"/><circle cx="430.4" cy="299.7" r="2" fill="#555522"/><circle cx="447.9" cy="299.7" r="2" fill="#555522"/><circle cx="465.3" cy="299.7" r="2" fill="#555522"/><circle cx="482.8" cy="299.6" r="2" fill="#555522"/><circle cx="500.2" cy="299.6" r="2" fill="#555522"/><circle cx="517.7" cy="299.6" r="2" fill="#555522"/><circle cx="535.1" cy="299.6" r="2" fill="#555522"/><circle cx="552.6" cy="299.6" r="2" fill="#555522"/><circle cx="570.0" cy="299.6" r="2" fill="#555522"/><rect x="580" y="184" width="10" height="10" fill="#555522"/><text x="594" y="193" font-size="10" fill="#444">messy-5000</text><path d="M64.0,290.3 L81.4,290.1 L98.9,290.1 L116.3,290.4 L133.8,289.9 L151.2,290.0 L168.7,289.9 L186.1,289.9 L203.6,289.9 L221.0,293.2 L238.5,292.8 L255.9,292.7 L273.4,294.7 L290.8,292.5 L308.3,292.2 L325.7,292.3 L343.2,292.0 L360.6,292.2 L378.1,292.4 L395.5,292.6 L413.0,292.0 L430.4,291.7 L447.9,292.3 L465.3,292.0 L482.8,288.4 L500.2,288.3 L517.7,288.6 L535.1,288.6 L552.6,288.7 L570.0,289.0" fill="none" stroke="#8855AA" stroke-width="1.6"/><circle cx="64.0" cy="290.3" r="2" fill="#8855AA"/><circle cx="81.4" cy="290.1" r="2" fill="#8855AA"/><circle cx="98.9" cy="290.1" r="2" fill="#8855AA"/><circle cx="116.3" cy="290.4" r="2" fill="#8855AA"/><circle cx="133.8" cy="289.9" r="2" fill="#8855AA"/><circle cx="151.2" cy="290.0" r="2" fill="#8855AA"/><circle cx="168.7" cy="289.9" r="2" fill="#8855AA"/><circle cx="186.1" cy="289.9" r="2" fill="#8855AA"/><circle cx="203.6" cy="289.9" r="2" fill="#8855AA"/><circle cx="221.0" cy="293.2" r="2" fill="#8855AA"/><circle cx="238.5" cy="292.8" r="2" fill="#8855AA"/><circle cx="255.9" cy="292.7" r="2" fill="#8855AA"/><circle cx="273.4" cy="294.7" r="2" fill="#8855AA"/><circle cx="290.8" cy="292.5" r="2" fill="#8855AA"/><circle cx="308.3" cy="292.2" r="2" fill="#8855AA"/><circle cx="325.7" cy="292.3" r="2" fill="#8855AA"/><circle cx="343.2" cy="292.0" r="2" fill="#8855AA"/><circle cx="360.6" cy="292.2" r="2" fill="#8855AA"/><circle cx="378.1" cy="292.4" r="2" fill="#8855AA"/><circle cx="395.5" cy="292.6" r="2" fill="#8855AA"/><circle cx="413.0" cy="292.0" r="2" fill="#8855AA"/><circle cx="430.4" cy="291.7" r="2" fill="#8855AA"/><circle cx="447.9" cy="292.3" r="2" fill="#8855AA"/><circle cx="465.3" cy="292.0" r="2" fill="#8855AA"/><circle cx="482.8" cy="288.4" r="2" fill="#8855AA"/><circle cx="500.2" cy="288.3" r="2" fill="#8855AA"/><circle cx="517.7" cy="288.6" r="2" fill="#8855AA"/><circle cx="535.1" cy="288.6" r="2" fill="#8855AA"/><circle cx="552.6" cy="288.7" r="2" fill="#8855AA"/><circle cx="570.0" cy="289.0" r="2" fill="#8855AA"/><rect x="580" y="199" width="10" height="10" fill="#8855AA"/><text x="594" y="208" font-size="10" fill="#444">hooked-200</text></svg>