<svg width="720" height="372" xmlns="http://www.w3.org/2000/svg"><rect width="720" height="372" fill="#ffffff"/><text x="64" y="20" font-size="15" font-weight="bold" fill="#333">edges_between() — ops/sec (linear scale, last 30) by PR / release, c8g.medium</text><line x1="81.4" y1="34" x2="81.4" y2="324" stroke="#e8e8e8"/><line x1="98.9" y1="34" x2="98.9" y2="324" stroke="#e8e8e8"/><line x1="116.3" y1="34" x2="116.3" y2="324" stroke="#e8e8e8"/><line x1="133.8" y1="34" x2="133.8" y2="324" stroke="#e8e8e8"/><line x1="168.7" y1="34" x2="168.7" y2="324" stroke="#e8e8e8"/><line x1="186.1" y1="34" x2="186.1" y2="324" stroke="#e8e8e8"/><line x1="203.6" y1="34" x2="203.6" y2="324" stroke="#e8e8e8"/><line x1="221.0" y1="34" x2="221.0" y2="324" stroke="#e8e8e8"/><line x1="255.9" y1="34" x2="255.9" y2="324" stroke="#e8e8e8"/><line x1="273.4" y1="34" x2="273.4" y2="324" stroke="#e8e8e8"/><line x1="290.8" y1="34" x2="290.8" y2="324" stroke="#e8e8e8"/><line x1="308.3" y1="34" x2="308.3" y2="324" stroke="#e8e8e8"/><line x1="343.2" y1="34" x2="343.2" y2="324" stroke="#e8e8e8"/><line x1="360.6" y1="34" x2="360.6" y2="324" stroke="#e8e8e8"/><line x1="378.1" y1="34" x2="378.1" y2="324" stroke="#e8e8e8"/><line x1="395.5" y1="34" x2="395.5" y2="324" stroke="#e8e8e8"/><line x1="430.4" y1="34" x2="430.4" y2="324" stroke="#e8e8e8"/><line x1="447.9" y1="34" x2="447.9" y2="324" stroke="#e8e8e8"/><line x1="465.3" y1="34" x2="465.3" y2="324" stroke="#e8e8e8"/><line x1="482.8" y1="34" x2="482.8" y2="324" stroke="#e8e8e8"/><line x1="517.7" y1="34" x2="517.7" y2="324" stroke="#e8e8e8"/><line x1="535.1" y1="34" x2="535.1" y2="324" stroke="#e8e8e8"/><line x1="552.6" y1="34" x2="552.6" y2="324" stroke="#e8e8e8"/><line x1="570.0" y1="34" x2="570.0" y2="324" stroke="#e8e8e8"/><line x1="64.0" y1="34" x2="64.0" y2="324" stroke="#d0d0d0"/><line x1="151.2" y1="34" x2="151.2" y2="324" stroke="#d0d0d0"/><line x1="238.5" y1="34" x2="238.5" y2="324" stroke="#d0d0d0"/><line x1="325.7" y1="34" x2="325.7" y2="324" stroke="#d0d0d0"/><line x1="413.0" y1="34" x2="413.0" y2="324" stroke="#d0d0d0"/><line x1="500.2" y1="34" x2="500.2" y2="324" stroke="#d0d0d0"/><line x1="64" y1="324.0" x2="570" y2="324.0" stroke="#b0b0b0"/><text x="58" y="328.0" font-size="10" text-anchor="end" fill="#888">-19.7k</text><line x1="64" y1="266.0" x2="570" y2="266.0" stroke="#b0b0b0"/><text x="58" y="270.0" font-size="10" text-anchor="end" fill="#888">36k</text><line x1="64" y1="208.0" x2="570" y2="208.0" stroke="#b0b0b0"/><text x="58" y="212.0" font-size="10" text-anchor="end" fill="#888">91.8k</text><line x1="64" y1="150.0" x2="570" y2="150.0" stroke="#b0b0b0"/><text x="58" y="154.0" font-size="10" text-anchor="end" fill="#888">147.6k</text><line x1="64" y1="92.0" x2="570" y2="92.0" stroke="#b0b0b0"/><text x="58" y="96.0" font-size="10" text-anchor="end" fill="#888">203.4k</text><line x1="64" y1="34.0" x2="570" y2="34.0" stroke="#b0b0b0"/><text x="58" y="38.0" font-size="10" text-anchor="end" fill="#888">259.1k</text><text x="64.0" y="327.2" font-size="4" text-anchor="end" fill="#aa4400" transform="rotate(-80 64.0 327.2)">v5.155.0</text><text x="81.4" y="327.2" font-size="4" text-anchor="end" fill="#d6a382" transform="rotate(-80 81.4 327.2)">v5.155.1</text><text x="98.9" y="327.2" font-size="4" text-anchor="end" fill="#aa4400" transform="rotate(-80 98.9 327.2)">v5.156.0</text><text x="116.3" y="327.2" font-size="4" text-anchor="end" fill="#d6a382" transform="rotate(-80 116.3 327.2)">v5.156.1</text><text x="133.8" y="327.2" font-size="4" text-anchor="end" fill="#aa4400" transform="rotate(-80 133.8 327.2)">v5.157.0</text><text x="151.2" y="327.2" font-size="4" text-anchor="end" fill="#d6a382" transform="rotate(-80 151.2 327.2)">v5.157.1</text><text x="168.7" y="327.2" font-size="4" text-anchor="end" fill="#d6a382" transform="rotate(-80 168.7 327.2)">v5.157.2</text><text x="186.1" y="327.2" font-size="4" text-anchor="end" fill="#d6a382" transform="rotate(-80 186.1 327.2)">v5.157.3</text><text x="203.6" y="327.2" font-size="4" text-anchor="end" fill="#d6a382" transform="rotate(-80 203.6 327.2)">v5.157.4</text><text x="221.0" y="327.2" font-size="4" text-anchor="end" fill="#d6a382" transform="rotate(-80 221.0 327.2)">v5.157.5</text><text x="238.5" y="327.2" font-size="4" text-anchor="end" fill="#d6a382" transform="rotate(-80 238.5 327.2)">v5.157.6</text><text x="255.9" y="327.2" font-size="4" text-anchor="end" fill="#d6a382" transform="rotate(-80 255.9 327.2)">v5.157.7</text><text x="273.4" y="327.2" font-size="4" text-anchor="end" fill="#d6a382" transform="rotate(-80 273.4 327.2)">v5.157.8</text><text x="290.8" y="327.2" font-size="4" text-anchor="end" fill="#d6a382" transform="rotate(-80 290.8 327.2)">v5.157.9</text><text x="308.3" y="327.2" font-size="4" text-anchor="end" fill="#d6a382" transform="rotate(-80 308.3 327.2)">v5.157.10</text><text x="325.7" y="327.2" font-size="4" text-anchor="end" fill="#d6a382" transform="rotate(-80 325.7 327.2)">v5.157.11</text><text x="343.2" y="327.2" font-size="4" text-anchor="end" fill="#d6a382" transform="rotate(-80 343.2 327.2)">v5.157.12</text><text x="360.6" y="327.2" font-size="4" text-anchor="end" fill="#d6a382" transform="rotate(-80 360.6 327.2)">v5.157.13</text><text x="378.1" y="327.2" font-size="4" text-anchor="end" fill="#d6a382" transform="rotate(-80 378.1 327.2)">v5.157.14</text><text x="395.5" y="327.2" font-size="4" text-anchor="end" fill="#d6a382" transform="rotate(-80 395.5 327.2)">v5.157.15</text><text x="413.0" y="327.2" font-size="4" text-anchor="end" fill="#d6a382" transform="rotate(-80 413.0 327.2)">v5.157.16</text><text x="430.4" y="327.2" font-size="4" text-anchor="end" fill="#d6a382" transform="rotate(-80 430.4 327.2)">v5.157.17</text><text x="447.9" y="327.2" font-size="4" text-anchor="end" fill="#d6a382" transform="rotate(-80 447.9 327.2)">v5.157.18</text><text x="465.3" y="327.2" font-size="4" text-anchor="end" fill="#aa4400" transform="rotate(-80 465.3 327.2)">v5.158.0</text><text x="482.8" y="327.2" font-size="4" text-anchor="end" fill="#d6a382" transform="rotate(-80 482.8 327.2)">v5.158.1</text><text x="500.2" y="327.2" font-size="4" text-anchor="end" fill="#d6a382" transform="rotate(-80 500.2 327.2)">v5.158.2</text><text x="517.7" y="327.2" font-size="4" text-anchor="end" fill="#aa4400" transform="rotate(-80 517.7 327.2)">v5.159.0</text><text x="535.1" y="327.2" font-size="4" text-anchor="end" fill="#d6a382" transform="rotate(-80 535.1 327.2)">v5.159.1</text><text x="552.6" y="327.2" font-size="4" text-anchor="end" fill="#d6a382" transform="rotate(-80 552.6 327.2)">v5.159.2</text><text x="570.0" y="327.2" font-size="4" text-anchor="end" fill="#aa4400" transform="rotate(-80 570.0 327.2)">v5.160.0</text><path d="M64.0,93.3 L81.4,84.4 L98.9,89.6 L116.3,84.0 L133.8,89.1 L151.2,66.6 L168.7,69.1 L186.1,63.5 L203.6,89.3 L221.0,68.2 L238.5,71.4 L255.9,71.2 L273.4,60.8 L290.8,67.9 L308.3,83.4 L325.7,64.8 L343.2,60.2 L360.6,71.6 L378.1,84.5 L395.5,66.4 L413.0,72.3 L430.4,58.7 L447.9,68.5 L465.3,64.5 L482.8,81.4 L500.2,76.1 L517.7,75.6 L535.1,59.8 L552.6,67.0 L570.0,58.2" fill="none" stroke="#4477AA" stroke-width="1.6"/><circle cx="64.0" cy="93.3" r="2" fill="#4477AA"/><circle cx="81.4" cy="84.4" r="2" fill="#4477AA"/><circle cx="98.9" cy="89.6" r="2" fill="#4477AA"/><circle cx="116.3" cy="84.0" r="2" fill="#4477AA"/><circle cx="133.8" cy="89.1" r="2" fill="#4477AA"/><circle cx="151.2" cy="66.6" r="2" fill="#4477AA"/><circle cx="168.7" cy="69.1" r="2" fill="#4477AA"/><circle cx="186.1" cy="63.5" r="2" fill="#4477AA"/><circle cx="203.6" cy="89.3" r="2" fill="#4477AA"/><circle cx="221.0" cy="68.2" r="2" fill="#4477AA"/><circle cx="238.5" cy="71.4" r="2" fill="#4477AA"/><circle cx="255.9" cy="71.2" r="2" fill="#4477AA"/><circle cx="273.4" cy="60.8" r="2" fill="#4477AA"/><circle cx="290.8" cy="67.9" r="2" fill="#4477AA"/><circle cx="308.3" cy="83.4" r="2" fill="#4477AA"/><circle cx="325.7" cy="64.8" r="2" fill="#4477AA"/><circle cx="343.2" cy="60.2" r="2" fill="#4477AA"/><circle cx="360.6" cy="71.6" r="2" fill="#4477AA"/><circle cx="378.1" cy="84.5" r="2" fill="#4477AA"/><circle cx="395.5" cy="66.4" r="2" fill="#4477AA"/><circle cx="413.0" cy="72.3" r="2" fill="#4477AA"/><circle cx="430.4" cy="58.7" r="2" fill="#4477AA"/><circle cx="447.9" cy="68.5" r="2" fill="#4477AA"/><circle cx="465.3" cy="64.5" r="2" fill="#4477AA"/><circle cx="482.8" cy="81.4" r="2" fill="#4477AA"/><circle cx="500.2" cy="76.1" r="2" fill="#4477AA"/><circle cx="517.7" cy="75.6" r="2" fill="#4477AA"/><circle cx="535.1" cy="59.8" r="2" fill="#4477AA"/><circle cx="552.6" cy="67.0" r="2" fill="#4477AA"/><circle cx="570.0" cy="58.2" r="2" fill="#4477AA"/><rect x="580" y="34" width="10" height="10" fill="#4477AA"/><text x="594" y="43" font-size="10" fill="#444">chain-10</text><path d="M64.0,101.0 L81.4,95.9 L98.9,99.3 L116.3,103.4 L133.8,99.8 L151.2,91.5 L168.7,81.4 L186.1,79.6 L203.6,93.7 L221.0,83.9 L238.5,89.2 L255.9,94.6 L273.4,90.4 L290.8,84.0 L308.3,90.9 L325.7,80.0 L343.2,79.2 L360.6,87.0 L378.1,87.7 L395.5,72.9 L413.0,83.3 L430.4,87.7 L447.9,84.5 L465.3,79.6 L482.8,80.2 L500.2,92.2 L517.7,82.7 L535.1,87.0 L552.6,76.1 L570.0,84.2" fill="none" stroke="#EE6677" stroke-width="1.6"/><circle cx="64.0" cy="101.0" r="2" fill="#EE6677"/><circle cx="81.4" cy="95.9" r="2" fill="#EE6677"/><circle cx="98.9" cy="99.3" r="2" fill="#EE6677"/><circle cx="116.3" cy="103.4" r="2" fill="#EE6677"/><circle cx="133.8" cy="99.8" r="2" fill="#EE6677"/><circle cx="151.2" cy="91.5" r="2" fill="#EE6677"/><circle cx="168.7" cy="81.4" r="2" fill="#EE6677"/><circle cx="186.1" cy="79.6" r="2" fill="#EE6677"/><circle cx="203.6" cy="93.7" r="2" fill="#EE6677"/><circle cx="221.0" cy="83.9" r="2" fill="#EE6677"/><circle cx="238.5" cy="89.2" r="2" fill="#EE6677"/><circle cx="255.9" cy="94.6" r="2" fill="#EE6677"/><circle cx="273.4" cy="90.4" r="2" fill="#EE6677"/><circle cx="290.8" cy="84.0" r="2" fill="#EE6677"/><circle cx="308.3" cy="90.9" r="2" fill="#EE6677"/><circle cx="325.7" cy="80.0" r="2" fill="#EE6677"/><circle cx="343.2" cy="79.2" r="2" fill="#EE6677"/><circle cx="360.6" cy="87.0" r="2" fill="#EE6677"/><circle cx="378.1" cy="87.7" r="2" fill="#EE6677"/><circle cx="395.5" cy="72.9" r="2" fill="#EE6677"/><circle cx="413.0" cy="83.3" r="2" fill="#EE6677"/><circle cx="430.4" cy="87.7" r="2" fill="#EE6677"/><circle cx="447.9" cy="84.5" r="2" fill="#EE6677"/><circle cx="465.3" cy="79.6" r="2" fill="#EE6677"/><circle cx="482.8" cy="80.2" r="2" fill="#EE6677"/><circle cx="500.2" cy="92.2" r="2" fill="#EE6677"/><circle cx="517.7" cy="82.7" r="2" fill="#EE6677"/><circle cx="535.1" cy="87.0" r="2" fill="#EE6677"/><circle cx="552.6" cy="76.1" r="2" fill="#EE6677"/><circle cx="570.0" cy="84.2" r="2" fill="#EE6677"/><rect x="580" y="49" width="10" height="10" fill="#EE6677"/><text x="594" y="58" font-size="10" fill="#444">chain-50</text><path d="M64.0,108.2 L81.4,109.5 L98.9,105.8 L116.3,113.4 L133.8,107.3 L151.2,97.7 L168.7,101.9 L186.1,98.2 L203.6,93.2 L221.0,97.2 L238.5,97.1 L255.9,92.8 L273.4,99.7 L290.8,87.0 L308.3,90.0 L325.7,94.1 L343.2,93.3 L360.6,100.6 L378.1,91.8 L395.5,92.8 L413.0,90.3 L430.4,91.9 L447.9,90.0 L465.3,89.8 L482.8,91.0 L500.2,86.6 L517.7,89.7 L535.1,92.7 L552.6,86.2 L570.0,91.1" fill="none" stroke="#228833" stroke-width="1.6"/><circle cx="64.0" cy="108.2" r="2" fill="#228833"/><circle cx="81.4" cy="109.5" r="2" fill="#228833"/><circle cx="98.9" cy="105.8" r="2" fill="#228833"/><circle cx="116.3" cy="113.4" r="2" fill="#228833"/><circle cx="133.8" cy="107.3" r="2" fill="#228833"/><circle cx="151.2" cy="97.7" r="2" fill="#228833"/><circle cx="168.7" cy="101.9" r="2" fill="#228833"/><circle cx="186.1" cy="98.2" r="2" fill="#228833"/><circle cx="203.6" cy="93.2" r="2" fill="#228833"/><circle cx="221.0" cy="97.2" r="2" fill="#228833"/><circle cx="238.5" cy="97.1" r="2" fill="#228833"/><circle cx="255.9" cy="92.8" r="2" fill="#228833"/><circle cx="273.4" cy="99.7" r="2" fill="#228833"/><circle cx="290.8" cy="87.0" r="2" fill="#228833"/><circle cx="308.3" cy="90.0" r="2" fill="#228833"/><circle cx="325.7" cy="94.1" r="2" fill="#228833"/><circle cx="343.2" cy="93.3" r="2" fill="#228833"/><circle cx="360.6" cy="100.6" r="2" fill="#228833"/><circle cx="378.1" cy="91.8" r="2" fill="#228833"/><circle cx="395.5" cy="92.8" r="2" fill="#228833"/><circle cx="413.0" cy="90.3" r="2" fill="#228833"/><circle cx="430.4" cy="91.9" r="2" fill="#228833"/><circle cx="447.9" cy="90.0" r="2" fill="#228833"/><circle cx="465.3" cy="89.8" r="2" fill="#228833"/><circle cx="482.8" cy="91.0" r="2" fill="#228833"/><circle cx="500.2" cy="86.6" r="2" fill="#228833"/><circle cx="517.7" cy="89.7" r="2" fill="#228833"/><circle cx="535.1" cy="92.7" r="2" fill="#228833"/><circle cx="552.6" cy="86.2" r="2" fill="#228833"/><circle cx="570.0" cy="91.1" r="2" fill="#228833"/><rect x="580" y="64" width="10" height="10" fill="#228833"/><text x="594" y="73" font-size="10" fill="#444">chain-200</text><path d="M64.0,130.7 L81.4,122.7 L98.9,123.0 L116.3,127.1 L133.8,131.3 L151.2,123.4 L168.7,136.8 L186.1,123.8 L203.6,124.2 L221.0,126.0 L238.5,126.2 L255.9,123.6 L273.4,125.9 L290.8,119.6 L308.3,128.5 L325.7,129.0 L343.2,126.6 L360.6,115.4 L378.1,121.6 L395.5,120.9 L413.0,116.2 L430.4,116.5 L447.9,117.3 L465.3,123.9 L482.8,127.5 L500.2,126.2 L517.7,121.1 L535.1,129.1 L552.6,124.5 L570.0,133.7" fill="none" stroke="#CCBB44" stroke-width="1.6"/><circle cx="64.0" cy="130.7" r="2" fill="#CCBB44"/><circle cx="81.4" cy="122.7" r="2" fill="#CCBB44"/><circle cx="98.9" cy="123.0" r="2" fill="#CCBB44"/><circle cx="116.3" cy="127.1" r="2" fill="#CCBB44"/><circle cx="133.8" cy="131.3" r="2" fill="#CCBB44"/><circle cx="151.2" cy="123.4" r="2" fill="#CCBB44"/><circle cx="168.7" cy="136.8" r="2" fill="#CCBB44"/><circle cx="186.1" cy="123.8" r="2" fill="#CCBB44"/><circle cx="203.6" cy="124.2" r="2" fill="#CCBB44"/><circle cx="221.0" cy="126.0" r="2" fill="#CCBB44"/><circle cx="238.5" cy="126.2" r="2" fill="#CCBB44"/><circle cx="255.9" cy="123.6" r="2" fill="#CCBB44"/><circle cx="273.4" cy="125.9" r="2" fill="#CCBB44"/><circle cx="290.8" cy="119.6" r="2" fill="#CCBB44"/><circle cx="308.3" cy="128.5" r="2" fill="#CCBB44"/><circle cx="325.7" cy="129.0" r="2" fill="#CCBB44"/><circle cx="343.2" cy="126.6" r="2" fill="#CCBB44"/><circle cx="360.6" cy="115.4" r="2" fill="#CCBB44"/><circle cx="378.1" cy="121.6" r="2" fill="#CCBB44"/><circle cx="395.5" cy="120.9" r="2" fill="#CCBB44"/><circle cx="413.0" cy="116.2" r="2" fill="#CCBB44"/><circle cx="430.4" cy="116.5" r="2" fill="#CCBB44"/><circle cx="447.9" cy="117.3" r="2" fill="#CCBB44"/><circle cx="465.3" cy="123.9" r="2" fill="#CCBB44"/><circle cx="482.8" cy="127.5" r="2" fill="#CCBB44"/><circle cx="500.2" cy="126.2" r="2" fill="#CCBB44"/><circle cx="517.7" cy="121.1" r="2" fill="#CCBB44"/><circle cx="535.1" cy="129.1" r="2" fill="#CCBB44"/><circle cx="552.6" cy="124.5" r="2" fill="#CCBB44"/><circle cx="570.0" cy="133.7" r="2" fill="#CCBB44"/><rect x="580" y="79" width="10" height="10" fill="#CCBB44"/><text x="594" y="88" font-size="10" fill="#444">chain-1000</text><path d="M64.0,230.8 L81.4,229.1 L98.9,229.5 L116.3,229.7 L133.8,229.4 L151.2,114.9 L168.7,109.4 L186.1,109.3 L203.6,127.9 L221.0,113.6 L238.5,116.4 L255.9,117.6 L273.4,105.9 L290.8,114.4 L308.3,124.3 L325.7,112.3 L343.2,108.7 L360.6,116.3 L378.1,125.0 L395.5,113.2 L413.0,112.7 L430.4,105.2 L447.9,109.5 L465.3,111.7 L482.8,124.6 L500.2,121.0 L517.7,119.5 L535.1,108.1 L552.6,112.6 L570.0,109.6" fill="none" stroke="#66CCEE" stroke-width="1.6"/><circle cx="64.0" cy="230.8" r="2" fill="#66CCEE"/><circle cx="81.4" cy="229.1" r="2" fill="#66CCEE"/><circle cx="98.9" cy="229.5" r="2" fill="#66CCEE"/><circle cx="116.3" cy="229.7" r="2" fill="#66CCEE"/><circle cx="133.8" cy="229.4" r="2" fill="#66CCEE"/><circle cx="151.2" cy="114.9" r="2" fill="#66CCEE"/><circle cx="168.7" cy="109.4" r="2" fill="#66CCEE"/><circle cx="186.1" cy="109.3" r="2" fill="#66CCEE"/><circle cx="203.6" cy="127.9" r="2" fill="#66CCEE"/><circle cx="221.0" cy="113.6" r="2" fill="#66CCEE"/><circle cx="238.5" cy="116.4" r="2" fill="#66CCEE"/><circle cx="255.9" cy="117.6" r="2" fill="#66CCEE"/><circle cx="273.4" cy="105.9" r="2" fill="#66CCEE"/><circle cx="290.8" cy="114.4" r="2" fill="#66CCEE"/><circle cx="308.3" cy="124.3" r="2" fill="#66CCEE"/><circle cx="325.7" cy="112.3" r="2" fill="#66CCEE"/><circle cx="343.2" cy="108.7" r="2" fill="#66CCEE"/><circle cx="360.6" cy="116.3" r="2" fill="#66CCEE"/><circle cx="378.1" cy="125.0" r="2" fill="#66CCEE"/><circle cx="395.5" cy="113.2" r="2" fill="#66CCEE"/><circle cx="413.0" cy="112.7" r="2" fill="#66CCEE"/><circle cx="430.4" cy="105.2" r="2" fill="#66CCEE"/><circle cx="447.9" cy="109.5" r="2" fill="#66CCEE"/><circle cx="465.3" cy="111.7" r="2" fill="#66CCEE"/><circle cx="482.8" cy="124.6" r="2" fill="#66CCEE"/><circle cx="500.2" cy="121.0" r="2" fill="#66CCEE"/><circle cx="517.7" cy="119.5" r="2" fill="#66CCEE"/><circle cx="535.1" cy="108.1" r="2" fill="#66CCEE"/><circle cx="552.6" cy="112.6" r="2" fill="#66CCEE"/><circle cx="570.0" cy="109.6" r="2" fill="#66CCEE"/><rect x="580" y="94" width="10" height="10" fill="#66CCEE"/><text x="594" y="103" font-size="10" fill="#444">dense-10</text><path d="M64.0,288.2 L81.4,288.8 L98.9,288.2 L116.3,288.7 L133.8,289.4 L151.2,218.7 L168.7,219.6 L186.1,219.0 L203.6,219.6 L221.0,220.8 L238.5,222.2 L255.9,223.6 L273.4,221.7 L290.8,222.5 L308.3,223.0 L325.7,221.2 L343.2,221.0 L360.6,221.6 L378.1,222.2 L395.5,220.3 L413.0,220.7 L430.4,221.7 L447.9,221.0 L465.3,219.9 L482.8,219.4 L500.2,220.4 L517.7,220.4 L535.1,220.1 L552.6,220.4 L570.0,218.7" fill="none" stroke="#AA3377" stroke-width="1.6"/><circle cx="64.0" cy="288.2" r="2" fill="#AA3377"/><circle cx="81.4" cy="288.8" r="2" fill="#AA3377"/><circle cx="98.9" cy="288.2" r="2" fill="#AA3377"/><circle cx="116.3" cy="288.7" r="2" fill="#AA3377"/><circle cx="133.8" cy="289.4" r="2" fill="#AA3377"/><circle cx="151.2" cy="218.7" r="2" fill="#AA3377"/><circle cx="168.7" cy="219.6" r="2" fill="#AA3377"/><circle cx="186.1" cy="219.0" r="2" fill="#AA3377"/><circle cx="203.6" cy="219.6" r="2" fill="#AA3377"/><circle cx="221.0" cy="220.8" r="2" fill="#AA3377"/><circle cx="238.5" cy="222.2" r="2" fill="#AA3377"/><circle cx="255.9" cy="223.6" r="2" fill="#AA3377"/><circle cx="273.4" cy="221.7" r="2" fill="#AA3377"/><circle cx="290.8" cy="222.5" r="2" fill="#AA3377"/><circle cx="308.3" cy="223.0" r="2" fill="#AA3377"/><circle cx="325.7" cy="221.2" r="2" fill="#AA3377"/><circle cx="343.2" cy="221.0" r="2" fill="#AA3377"/><circle cx="360.6" cy="221.6" r="2" fill="#AA3377"/><circle cx="378.1" cy="222.2" r="2" fill="#AA3377"/><circle cx="395.5" cy="220.3" r="2" fill="#AA3377"/><circle cx="413.0" cy="220.7" r="2" fill="#AA3377"/><circle cx="430.4" cy="221.7" r="2" fill="#AA3377"/><circle cx="447.9" cy="221.0" r="2" fill="#AA3377"/><circle cx="465.3" cy="219.9" r="2" fill="#AA3377"/><circle cx="482.8" cy="219.4" r="2" fill="#AA3377"/><circle cx="500.2" cy="220.4" r="2" fill="#AA3377"/><circle cx="517.7" cy="220.4" r="2" fill="#AA3377"/><circle cx="535.1" cy="220.1" r="2" fill="#AA3377"/><circle cx="552.6" cy="220.4" r="2" fill="#AA3377"/><circle cx="570.0" cy="218.7" r="2" fill="#AA3377"/><rect x="580" y="109" width="10" height="10" fill="#AA3377"/><text x="594" y="118" font-size="10" fill="#444">dense-50</text><path d="M64.0,299.7 L81.4,299.7 L98.9,299.8 L116.3,299.7 L133.8,299.8 L151.2,275.2 L168.7,275.4 L186.1,275.7 L203.6,275.0 L221.0,275.7 L238.5,275.1 L255.9,275.5 L273.4,274.9 L290.8,275.0 L308.3,275.0 L325.7,275.9 L343.2,275.2 L360.6,275.4 L378.1,275.8 L395.5,274.6 L413.0,275.6 L430.4,274.8 L447.9,274.9 L465.3,275.5 L482.8,274.9 L500.2,274.9 L517.7,275.4 L535.1,274.8 L552.6,274.5 L570.0,274.6" fill="none" stroke="#BBBBBB" stroke-width="1.6"/><circle cx="64.0" cy="299.7" r="2" fill="#BBBBBB"/><circle cx="81.4" cy="299.7" r="2" fill="#BBBBBB"/><circle cx="98.9" cy="299.8" r="2" fill="#BBBBBB"/><circle cx="116.3" cy="299.7" r="2" fill="#BBBBBB"/><circle cx="133.8" cy="299.8" r="2" fill="#BBBBBB"/><circle cx="151.2" cy="275.2" r="2" fill="#BBBBBB"/><circle cx="168.7" cy="275.4" r="2" fill="#BBBBBB"/><circle cx="186.1" cy="275.7" r="2" fill="#BBBBBB"/><circle cx="203.6" cy="275.0" r="2" fill="#BBBBBB"/><circle cx="221.0" cy="275.7" r="2" fill="#BBBBBB"/><circle cx="238.5" cy="275.1" r="2" fill="#BBBBBB"/><circle cx="255.9" cy="275.5" r="2" fill="#BBBBBB"/><circle cx="273.4" cy="274.9" r="2" fill="#BBBBBB"/><circle cx="290.8" cy="275.0" r="2" fill="#BBBBBB"/><circle cx="308.3" cy="275.0" r="2" fill="#BBBBBB"/><circle cx="325.7" cy="275.9" r="2" fill="#BBBBBB"/><circle cx="343.2" cy="275.2" r="2" fill="#BBBBBB"/><circle cx="360.6" cy="275.4" r="2" fill="#BBBBBB"/><circle cx="378.1" cy="275.8" r="2" fill="#BBBBBB"/><circle cx="395.5" cy="274.6" r="2" fill="#BBBBBB"/><circle cx="413.0" cy="275.6" r="2" fill="#BBBBBB"/><circle cx="430.4" cy="274.8" r="2" fill="#BBBBBB"/><circle cx="447.9" cy="274.9" r="2" fill="#BBBBBB"/><circle cx="465.3" cy="275.5" r="2" fill="#BBBBBB"/><circle cx="482.8" cy="274.9" r="2" fill="#BBBBBB"/><circle cx="500.2" cy="274.9" r="2" fill="#BBBBBB"/><circle cx="517.7" cy="275.4" r="2" fill="#BBBBBB"/><circle cx="535.1" cy="274.8" r="2" fill="#BBBBBB"/><circle cx="552.6" cy="274.5" r="2" fill="#BBBBBB"/><circle cx="570.0" cy="274.6" r="2" fill="#BBBBBB"/><rect x="580" y="124" width="10" height="10" fill="#BBBBBB"/><text x="594" y="133" font-size="10" fill="#444">dense-200</text><path d="M64.0,269.7 L81.4,270.3 L98.9,269.7 L116.3,270.5 L133.8,269.6 L151.2,187.4 L168.7,183.8 L186.1,179.2 L203.6,174.3 L221.0,174.2 L238.5,170.5 L255.9,177.5 L273.4,187.4 L290.8,191.9 L308.3,173.1 L325.7,184.2 L343.2,168.5 L360.6,179.0 L378.1,179.0 L395.5,170.8 L413.0,192.3 L430.4,186.1 L447.9,186.9 L465.3,174.8 L482.8,180.6 L500.2,176.9 L517.7,175.7 L535.1,176.3 L552.6,178.3 L570.0,178.1" fill="none" stroke="#222255" stroke-width="1.6"/><circle cx="64.0" cy="269.7" r="2" fill="#222255"/><circle cx="81.4" cy="270.3" r="2" fill="#222255"/><circle cx="98.9" cy="269.7" r="2" fill="#222255"/><circle cx="116.3" cy="270.5" r="2" fill="#222255"/><circle cx="133.8" cy="269.6" r="2" fill="#222255"/><circle cx="151.2" cy="187.4" r="2" fill="#222255"/><circle cx="168.7" cy="183.8" r="2" fill="#222255"/><circle cx="186.1" cy="179.2" r="2" fill="#222255"/><circle cx="203.6" cy="174.3" r="2" fill="#222255"/><circle cx="221.0" cy="174.2" r="2" fill="#222255"/><circle cx="238.5" cy="170.5" r="2" fill="#222255"/><circle cx="255.9" cy="177.5" r="2" fill="#222255"/><circle cx="273.4" cy="187.4" r="2" fill="#222255"/><circle cx="290.8" cy="191.9" r="2" fill="#222255"/><circle cx="308.3" cy="173.1" r="2" fill="#222255"/><circle cx="325.7" cy="184.2" r="2" fill="#222255"/><circle cx="343.2" cy="168.5" r="2" fill="#222255"/><circle cx="360.6" cy="179.0" r="2" fill="#222255"/><circle cx="378.1" cy="179.0" r="2" fill="#222255"/><circle cx="395.5" cy="170.8" r="2" fill="#222255"/><circle cx="413.0" cy="192.3" r="2" fill="#222255"/><circle cx="430.4" cy="186.1" r="2" fill="#222255"/><circle cx="447.9" cy="186.9" r="2" fill="#222255"/><circle cx="465.3" cy="174.8" r="2" fill="#222255"/><circle cx="482.8" cy="180.6" r="2" fill="#222255"/><circle cx="500.2" cy="176.9" r="2" fill="#222255"/><circle cx="517.7" cy="175.7" r="2" fill="#222255"/><circle cx="535.1" cy="176.3" r="2" fill="#222255"/><circle cx="552.6" cy="178.3" r="2" fill="#222255"/><circle cx="570.0" cy="178.1" r="2" fill="#222255"/><rect x="580" y="139" width="10" height="10" fill="#222255"/><text x="594" y="148" font-size="10" fill="#444">hub-50</text><path d="M64.0,293.7 L81.4,293.7 L98.9,293.8 L116.3,293.9 L133.8,293.8 L151.2,250.4 L168.7,250.7 L186.1,251.4 L203.6,251.1 L221.0,250.7 L238.5,250.3 L255.9,250.3 L273.4,250.2 L290.8,250.3 L308.3,250.6 L325.7,250.2 L343.2,251.1 L360.6,251.1 L378.1,249.9 L395.5,249.6 L413.0,253.6 L430.4,250.5 L447.9,252.4 L465.3,250.7 L482.8,249.6 L500.2,250.4 L517.7,250.7 L535.1,250.1 L552.6,250.5 L570.0,249.6" fill="none" stroke="#225555" stroke-width="1.6"/><circle cx="64.0" cy="293.7" r="2" fill="#225555"/><circle cx="81.4" cy="293.7" r="2" fill="#225555"/><circle cx="98.9" cy="293.8" r="2" fill="#225555"/><circle cx="116.3" cy="293.9" r="2" fill="#225555"/><circle cx="133.8" cy="293.8" r="2" fill="#225555"/><circle cx="151.2" cy="250.4" r="2" fill="#225555"/><circle cx="168.7" cy="250.7" r="2" fill="#225555"/><circle cx="186.1" cy="251.4" r="2" fill="#225555"/><circle cx="203.6" cy="251.1" r="2" fill="#225555"/><circle cx="221.0" cy="250.7" r="2" fill="#225555"/><circle cx="238.5" cy="250.3" r="2" fill="#225555"/><circle cx="255.9" cy="250.3" r="2" fill="#225555"/><circle cx="273.4" cy="250.2" r="2" fill="#225555"/><circle cx="290.8" cy="250.3" r="2" fill="#225555"/><circle cx="308.3" cy="250.6" r="2" fill="#225555"/><circle cx="325.7" cy="250.2" r="2" fill="#225555"/><circle cx="343.2" cy="251.1" r="2" fill="#225555"/><circle cx="360.6" cy="251.1" r="2" fill="#225555"/><circle cx="378.1" cy="249.9" r="2" fill="#225555"/><circle cx="395.5" cy="249.6" r="2" fill="#225555"/><circle cx="413.0" cy="253.6" r="2" fill="#225555"/><circle cx="430.4" cy="250.5" r="2" fill="#225555"/><circle cx="447.9" cy="252.4" r="2" fill="#225555"/><circle cx="465.3" cy="250.7" r="2" fill="#225555"/><circle cx="482.8" cy="249.6" r="2" fill="#225555"/><circle cx="500.2" cy="250.4" r="2" fill="#225555"/><circle cx="517.7" cy="250.7" r="2" fill="#225555"/><circle cx="535.1" cy="250.1" r="2" fill="#225555"/><circle cx="552.6" cy="250.5" r="2" fill="#225555"/><circle cx="570.0" cy="249.6" r="2" fill="#225555"/><rect x="580" y="154" width="10" height="10" fill="#225555"/><text x="594" y="163" font-size="10" fill="#444">hub-200</text><path d="M64.0,293.9 L81.4,293.6 L98.9,293.8 L116.3,293.7 L133.8,293.9 L151.2,250.2 L168.7,250.6 L186.1,251.5 L203.6,251.2 L221.0,251.0 L238.5,250.6 L255.9,251.0 L273.4,250.3 L290.8,250.4 L308.3,250.4 L325.7,250.3 L343.2,251.0 L360.6,251.2 L378.1,250.1 L395.5,249.8 L413.0,253.4 L430.4,250.8 L447.9,252.6 L465.3,250.9 L482.8,250.0 L500.2,250.5 L517.7,250.6 L535.1,249.9 L552.6,250.5 L570.0,249.4" fill="none" stroke="#552222" stroke-width="1.6"/><circle cx="64.0" cy="293.9" r="2" fill="#552222"/><circle cx="81.4" cy="293.6" r="2" fill="#552222"/><circle cx="98.9" cy="293.8" r="2" fill="#552222"/><circle cx="116.3" cy="293.7" r="2" fill="#552222"/><circle cx="133.8" cy="293.9" r="2" fill="#552222"/><circle cx="151.2" cy="250.2" r="2" fill="#552222"/><circle cx="168.7" cy="250.6" r="2" fill="#552222"/><circle cx="186.1" cy="251.5" r="2" fill="#552222"/><circle cx="203.6" cy="251.2" r="2" fill="#552222"/><circle cx="221.0" cy="251.0" r="2" fill="#552222"/><circle cx="238.5" cy="250.6" r="2" fill="#552222"/><circle cx="255.9" cy="251.0" r="2" fill="#552222"/><circle cx="273.4" cy="250.3" r="2" fill="#552222"/><circle cx="290.8" cy="250.4" r="2" fill="#552222"/><circle cx="308.3" cy="250.4" r="2" fill="#552222"/><circle cx="325.7" cy="250.3" r="2" fill="#552222"/><circle cx="343.2" cy="251.0" r="2" fill="#552222"/><circle cx="360.6" cy="251.2" r="2" fill="#552222"/><circle cx="378.1" cy="250.1" r="2" fill="#552222"/><circle cx="395.5" cy="249.8" r="2" fill="#552222"/><circle cx="413.0" cy="253.4" r="2" fill="#552222"/><circle cx="430.4" cy="250.8" r="2" fill="#552222"/><circle cx="447.9" cy="252.6" r="2" fill="#552222"/><circle cx="465.3" cy="250.9" r="2" fill="#552222"/><circle cx="482.8" cy="250.0" r="2" fill="#552222"/><circle cx="500.2" cy="250.5" r="2" fill="#552222"/><circle cx="517.7" cy="250.6" r="2" fill="#552222"/><circle cx="535.1" cy="249.9" r="2" fill="#552222"/><circle cx="552.6" cy="250.5" r="2" fill="#552222"/><circle cx="570.0" cy="249.4" r="2" fill="#552222"/><rect x="580" y="169" width="10" height="10" fill="#552222"/><text x="594" y="178" font-size="10" fill="#444">hooked-200</text><path d="M64.0,159.3 L81.4,164.5 L98.9,158.2 L116.3,167.3 L133.8,165.4 L151.2,103.0 L168.7,96.2 L186.1,109.9 L203.6,122.7 L221.0,111.0 L238.5,116.5 L255.9,106.2 L273.4,106.4 L290.8,104.8 L308.3,101.4 L325.7,98.2 L343.2,115.3 L360.6,100.3 L378.1,121.4 L395.5,86.8 L413.0,99.8 L430.4,83.3 L447.9,119.5 L465.3,101.2 L482.8,93.9 L500.2,134.6 L517.7,129.3 L535.1,105.9 L552.6,91.8 L570.0,117.5" fill="none" stroke="#555522" stroke-width="1.6"/><circle cx="64.0" cy="159.3" r="2" fill="#555522"/><circle cx="81.4" cy="164.5" r="2" fill="#555522"/><circle cx="98.9" cy="158.2" r="2" fill="#555522"/><circle cx="116.3" cy="167.3" r="2" fill="#555522"/><circle cx="133.8" cy="165.4" r="2" fill="#555522"/><circle cx="151.2" cy="103.0" r="2" fill="#555522"/><circle cx="168.7" cy="96.2" r="2" fill="#555522"/><circle cx="186.1" cy="109.9" r="2" fill="#555522"/><circle cx="203.6" cy="122.7" r="2" fill="#555522"/><circle cx="221.0" cy="111.0" r="2" fill="#555522"/><circle cx="238.5" cy="116.5" r="2" fill="#555522"/><circle cx="255.9" cy="106.2" r="2" fill="#555522"/><circle cx="273.4" cy="106.4" r="2" fill="#555522"/><circle cx="290.8" cy="104.8" r="2" fill="#555522"/><circle cx="308.3" cy="101.4" r="2" fill="#555522"/><circle cx="325.7" cy="98.2" r="2" fill="#555522"/><circle cx="343.2" cy="115.3" r="2" fill="#555522"/><circle cx="360.6" cy="100.3" r="2" fill="#555522"/><circle cx="378.1" cy="121.4" r="2" fill="#555522"/><circle cx="395.5" cy="86.8" r="2" fill="#555522"/><circle cx="413.0" cy="99.8" r="2" fill="#555522"/><circle cx="430.4" cy="83.3" r="2" fill="#555522"/><circle cx="447.9" cy="119.5" r="2" fill="#555522"/><circle cx="465.3" cy="101.2" r="2" fill="#555522"/><circle cx="482.8" cy="93.9" r="2" fill="#555522"/><circle cx="500.2" cy="134.6" r="2" fill="#555522"/><circle cx="517.7" cy="129.3" r="2" fill="#555522"/><circle cx="535.1" cy="105.9" r="2" fill="#555522"/><circle cx="552.6" cy="91.8" r="2" fill="#555522"/><circle cx="570.0" cy="117.5" r="2" fill="#555522"/><rect x="580" y="184" width="10" height="10" fill="#555522"/><text x="594" y="193" font-size="10" fill="#444">messy-1000</text><path d="M64.0,154.3 L81.4,158.1 L98.9,159.6 L116.3,163.7 L133.8,154.0 L151.2,76.6 L168.7,77.0 L186.1,98.6 L203.6,92.5 L221.0,93.6 L238.5,105.4 L255.9,108.5 L273.4,87.8 L290.8,95.5 L308.3,112.3 L325.7,123.9 L343.2,91.7 L360.6,100.6 L378.1,85.5 L395.5,95.8 L413.0,112.7 L430.4,111.5 L447.9,119.6 L465.3,79.5 L482.8,86.2 L500.2,85.0 L517.7,103.9 L535.1,107.5 L552.6,112.5 L570.0,97.4" fill="none" stroke="#8855AA" stroke-width="1.6"/><circle cx="64.0" cy="154.3" r="2" fill="#8855AA"/><circle cx="81.4" cy="158.1" r="2" fill="#8855AA"/><circle cx="98.9" cy="159.6" r="2" fill="#8855AA"/><circle cx="116.3" cy="163.7" r="2" fill="#8855AA"/><circle cx="133.8" cy="154.0" r="2" fill="#8855AA"/><circle cx="151.2" cy="76.6" r="2" fill="#8855AA"/><circle cx="168.7" cy="77.0" r="2" fill="#8855AA"/><circle cx="186.1" cy="98.6" r="2" fill="#8855AA"/><circle cx="203.6" cy="92.5" r="2" fill="#8855AA"/><circle cx="221.0" cy="93.6" r="2" fill="#8855AA"/><circle cx="238.5" cy="105.4" r="2" fill="#8855AA"/><circle cx="255.9" cy="108.5" r="2" fill="#8855AA"/><circle cx="273.4" cy="87.8" r="2" fill="#8855AA"/><circle cx="290.8" cy="95.5" r="2" fill="#8855AA"/><circle cx="308.3" cy="112.3" r="2" fill="#8855AA"/><circle cx="325.7" cy="123.9" r="2" fill="#8855AA"/><circle cx="343.2" cy="91.7" r="2" fill="#8855AA"/><circle cx="360.6" cy="100.6" r="2" fill="#8855AA"/><circle cx="378.1" cy="85.5" r="2" fill="#8855AA"/><circle cx="395.5" cy="95.8" r="2" fill="#8855AA"/><circle cx="413.0" cy="112.7" r="2" fill="#8855AA"/><circle cx="430.4" cy="111.5" r="2" fill="#8855AA"/><circle cx="447.9" cy="119.6" r="2" fill="#8855AA"/><circle cx="465.3" cy="79.5" r="2" fill="#8855AA"/><circle cx="482.8" cy="86.2" r="2" fill="#8855AA"/><circle cx="500.2" cy="85.0" r="2" fill="#8855AA"/><circle cx="517.7" cy="103.9" r="2" fill="#8855AA"/><circle cx="535.1" cy="107.5" r="2" fill="#8855AA"/><circle cx="552.6" cy="112.5" r="2" fill="#8855AA"/><circle cx="570.0" cy="97.4" r="2" fill="#8855AA"/><rect x="580" y="199" width="10" height="10" fill="#8855AA"/><text x="594" y="208" font-size="10" fill="#444">messy-5000</text></svg>