<svg width="720" height="372" xmlns="http://www.w3.org/2000/svg"><rect width="720" height="372" fill="#ffffff"/><text x="64" y="20" font-size="15" font-weight="bold" fill="#333">has_state() — ops/sec (linear scale, last 30) by PR / release, c8g.medium</text><line x1="81.4" y1="34" x2="81.4" y2="324" stroke="#e8e8e8"/><line x1="98.9" y1="34" x2="98.9" y2="324" stroke="#e8e8e8"/><line x1="116.3" y1="34" x2="116.3" y2="324" stroke="#e8e8e8"/><line x1="133.8" y1="34" x2="133.8" y2="324" stroke="#e8e8e8"/><line x1="168.7" y1="34" x2="168.7" y2="324" stroke="#e8e8e8"/><line x1="186.1" y1="34" x2="186.1" y2="324" stroke="#e8e8e8"/><line x1="203.6" y1="34" x2="203.6" y2="324" stroke="#e8e8e8"/><line x1="221.0" y1="34" x2="221.0" y2="324" stroke="#e8e8e8"/><line x1="255.9" y1="34" x2="255.9" y2="324" stroke="#e8e8e8"/><line x1="273.4" y1="34" x2="273.4" y2="324" stroke="#e8e8e8"/><line x1="290.8" y1="34" x2="290.8" y2="324" stroke="#e8e8e8"/><line x1="308.3" y1="34" x2="308.3" y2="324" stroke="#e8e8e8"/><line x1="343.2" y1="34" x2="343.2" y2="324" stroke="#e8e8e8"/><line x1="360.6" y1="34" x2="360.6" y2="324" stroke="#e8e8e8"/><line x1="378.1" y1="34" x2="378.1" y2="324" stroke="#e8e8e8"/><line x1="395.5" y1="34" x2="395.5" y2="324" stroke="#e8e8e8"/><line x1="430.4" y1="34" x2="430.4" y2="324" stroke="#e8e8e8"/><line x1="447.9" y1="34" x2="447.9" y2="324" stroke="#e8e8e8"/><line x1="465.3" y1="34" x2="465.3" y2="324" stroke="#e8e8e8"/><line x1="482.8" y1="34" x2="482.8" y2="324" stroke="#e8e8e8"/><line x1="517.7" y1="34" x2="517.7" y2="324" stroke="#e8e8e8"/><line x1="535.1" y1="34" x2="535.1" y2="324" stroke="#e8e8e8"/><line x1="552.6" y1="34" x2="552.6" y2="324" stroke="#e8e8e8"/><line x1="570.0" y1="34" x2="570.0" y2="324" stroke="#e8e8e8"/><line x1="64.0" y1="34" x2="64.0" y2="324" stroke="#d0d0d0"/><line x1="151.2" y1="34" x2="151.2" y2="324" stroke="#d0d0d0"/><line x1="238.5" y1="34" x2="238.5" y2="324" stroke="#d0d0d0"/><line x1="325.7" y1="34" x2="325.7" y2="324" stroke="#d0d0d0"/><line x1="413.0" y1="34" x2="413.0" y2="324" stroke="#d0d0d0"/><line x1="500.2" y1="34" x2="500.2" y2="324" stroke="#d0d0d0"/><line x1="64" y1="324.0" x2="570" y2="324.0" stroke="#b0b0b0"/><text x="58" y="328.0" font-size="10" text-anchor="end" fill="#888">18M</text><line x1="64" y1="266.0" x2="570" y2="266.0" stroke="#b0b0b0"/><text x="58" y="270.0" font-size="10" text-anchor="end" fill="#888">18.2M</text><line x1="64" y1="208.0" x2="570" y2="208.0" stroke="#b0b0b0"/><text x="58" y="212.0" font-size="10" text-anchor="end" fill="#888">18.4M</text><line x1="64" y1="150.0" x2="570" y2="150.0" stroke="#b0b0b0"/><text x="58" y="154.0" font-size="10" text-anchor="end" fill="#888">18.5M</text><line x1="64" y1="92.0" x2="570" y2="92.0" stroke="#b0b0b0"/><text x="58" y="96.0" font-size="10" text-anchor="end" fill="#888">18.7M</text><line x1="64" y1="34.0" x2="570" y2="34.0" stroke="#b0b0b0"/><text x="58" y="38.0" font-size="10" text-anchor="end" fill="#888">18.9M</text><text x="64.0" y="327.2" font-size="4" text-anchor="end" fill="#aa4400" transform="rotate(-80 64.0 327.2)">v5.155.0</text><text x="81.4" y="327.2" font-size="4" text-anchor="end" fill="#d6a382" transform="rotate(-80 81.4 327.2)">v5.155.1</text><text x="98.9" y="327.2" font-size="4" text-anchor="end" fill="#aa4400" transform="rotate(-80 98.9 327.2)">v5.156.0</text><text x="116.3" y="327.2" font-size="4" text-anchor="end" fill="#d6a382" transform="rotate(-80 116.3 327.2)">v5.156.1</text><text x="133.8" y="327.2" font-size="4" text-anchor="end" fill="#aa4400" transform="rotate(-80 133.8 327.2)">v5.157.0</text><text x="151.2" y="327.2" font-size="4" text-anchor="end" fill="#d6a382" transform="rotate(-80 151.2 327.2)">v5.157.1</text><text x="168.7" y="327.2" font-size="4" text-anchor="end" fill="#d6a382" transform="rotate(-80 168.7 327.2)">v5.157.2</text><text x="186.1" y="327.2" font-size="4" text-anchor="end" fill="#d6a382" transform="rotate(-80 186.1 327.2)">v5.157.3</text><text x="203.6" y="327.2" font-size="4" text-anchor="end" fill="#d6a382" transform="rotate(-80 203.6 327.2)">v5.157.4</text><text x="221.0" y="327.2" font-size="4" text-anchor="end" fill="#d6a382" transform="rotate(-80 221.0 327.2)">v5.157.5</text><text x="238.5" y="327.2" font-size="4" text-anchor="end" fill="#d6a382" transform="rotate(-80 238.5 327.2)">v5.157.6</text><text x="255.9" y="327.2" font-size="4" text-anchor="end" fill="#d6a382" transform="rotate(-80 255.9 327.2)">v5.157.7</text><text x="273.4" y="327.2" font-size="4" text-anchor="end" fill="#d6a382" transform="rotate(-80 273.4 327.2)">v5.157.8</text><text x="290.8" y="327.2" font-size="4" text-anchor="end" fill="#d6a382" transform="rotate(-80 290.8 327.2)">v5.157.9</text><text x="308.3" y="327.2" font-size="4" text-anchor="end" fill="#d6a382" transform="rotate(-80 308.3 327.2)">v5.157.10</text><text x="325.7" y="327.2" font-size="4" text-anchor="end" fill="#d6a382" transform="rotate(-80 325.7 327.2)">v5.157.11</text><text x="343.2" y="327.2" font-size="4" text-anchor="end" fill="#d6a382" transform="rotate(-80 343.2 327.2)">v5.157.12</text><text x="360.6" y="327.2" font-size="4" text-anchor="end" fill="#d6a382" transform="rotate(-80 360.6 327.2)">v5.157.13</text><text x="378.1" y="327.2" font-size="4" text-anchor="end" fill="#d6a382" transform="rotate(-80 378.1 327.2)">v5.157.14</text><text x="395.5" y="327.2" font-size="4" text-anchor="end" fill="#d6a382" transform="rotate(-80 395.5 327.2)">v5.157.15</text><text x="413.0" y="327.2" font-size="4" text-anchor="end" fill="#d6a382" transform="rotate(-80 413.0 327.2)">v5.157.16</text><text x="430.4" y="327.2" font-size="4" text-anchor="end" fill="#d6a382" transform="rotate(-80 430.4 327.2)">v5.157.17</text><text x="447.9" y="327.2" font-size="4" text-anchor="end" fill="#d6a382" transform="rotate(-80 447.9 327.2)">v5.157.18</text><text x="465.3" y="327.2" font-size="4" text-anchor="end" fill="#aa4400" transform="rotate(-80 465.3 327.2)">v5.158.0</text><text x="482.8" y="327.2" font-size="4" text-anchor="end" fill="#d6a382" transform="rotate(-80 482.8 327.2)">v5.158.1</text><text x="500.2" y="327.2" font-size="4" text-anchor="end" fill="#d6a382" transform="rotate(-80 500.2 327.2)">v5.158.2</text><text x="517.7" y="327.2" font-size="4" text-anchor="end" fill="#aa4400" transform="rotate(-80 517.7 327.2)">v5.159.0</text><text x="535.1" y="327.2" font-size="4" text-anchor="end" fill="#d6a382" transform="rotate(-80 535.1 327.2)">v5.159.1</text><text x="552.6" y="327.2" font-size="4" text-anchor="end" fill="#d6a382" transform="rotate(-80 552.6 327.2)">v5.159.2</text><text x="570.0" y="327.2" font-size="4" text-anchor="end" fill="#aa4400" transform="rotate(-80 570.0 327.2)">v5.160.0</text><path d="M64.0,145.6 L81.4,142.8 L98.9,120.0 L116.3,175.7 L133.8,93.4 L151.2,83.4 L168.7,204.8 L186.1,237.3 L203.6,151.7 L221.0,103.2 L238.5,162.6 L255.9,151.4 L273.4,58.3 L290.8,110.1 L308.3,109.4 L325.7,93.6 L343.2,58.8 L360.6,97.9 L378.1,172.5 L395.5,111.3 L413.0,160.5 L430.4,58.2 L447.9,130.4 L465.3,91.9 L482.8,138.0 L500.2,186.7 L517.7,116.3 L535.1,171.8 L552.6,62.1 L570.0,98.3" fill="none" stroke="#4477AA" stroke-width="1.6"/><circle cx="64.0" cy="145.6" r="2" fill="#4477AA"/><circle cx="81.4" cy="142.8" r="2" fill="#4477AA"/><circle cx="98.9" cy="120.0" r="2" fill="#4477AA"/><circle cx="116.3" cy="175.7" r="2" fill="#4477AA"/><circle cx="133.8" cy="93.4" r="2" fill="#4477AA"/><circle cx="151.2" cy="83.4" r="2" fill="#4477AA"/><circle cx="168.7" cy="204.8" r="2" fill="#4477AA"/><circle cx="186.1" cy="237.3" r="2" fill="#4477AA"/><circle cx="203.6" cy="151.7" r="2" fill="#4477AA"/><circle cx="221.0" cy="103.2" r="2" fill="#4477AA"/><circle cx="238.5" cy="162.6" r="2" fill="#4477AA"/><circle cx="255.9" cy="151.4" r="2" fill="#4477AA"/><circle cx="273.4" cy="58.3" r="2" fill="#4477AA"/><circle cx="290.8" cy="110.1" r="2" fill="#4477AA"/><circle cx="308.3" cy="109.4" r="2" fill="#4477AA"/><circle cx="325.7" cy="93.6" r="2" fill="#4477AA"/><circle cx="343.2" cy="58.8" r="2" fill="#4477AA"/><circle cx="360.6" cy="97.9" r="2" fill="#4477AA"/><circle cx="378.1" cy="172.5" r="2" fill="#4477AA"/><circle cx="395.5" cy="111.3" r="2" fill="#4477AA"/><circle cx="413.0" cy="160.5" r="2" fill="#4477AA"/><circle cx="430.4" cy="58.2" r="2" fill="#4477AA"/><circle cx="447.9" cy="130.4" r="2" fill="#4477AA"/><circle cx="465.3" cy="91.9" r="2" fill="#4477AA"/><circle cx="482.8" cy="138.0" r="2" fill="#4477AA"/><circle cx="500.2" cy="186.7" r="2" fill="#4477AA"/><circle cx="517.7" cy="116.3" r="2" fill="#4477AA"/><circle cx="535.1" cy="171.8" r="2" fill="#4477AA"/><circle cx="552.6" cy="62.1" r="2" fill="#4477AA"/><circle cx="570.0" cy="98.3" r="2" fill="#4477AA"/><rect x="580" y="34" width="10" height="10" fill="#4477AA"/><text x="594" y="43" font-size="10" fill="#444">chain-10</text><path d="M64.0,218.4 L81.4,261.9 L98.9,242.7 L116.3,218.6 L133.8,105.6 L151.2,85.9 L168.7,191.0 L186.1,153.4 L203.6,152.0 L221.0,135.4 L238.5,137.9 L255.9,154.2 L273.4,86.3 L290.8,145.6 L308.3,79.5 L325.7,123.5 L343.2,108.1 L360.6,132.3 L378.1,146.1 L395.5,114.2 L413.0,120.5 L430.4,147.9 L447.9,121.7 L465.3,159.6 L482.8,101.1 L500.2,144.4 L517.7,105.3 L535.1,189.1 L552.6,84.6 L570.0,113.4" fill="none" stroke="#EE6677" stroke-width="1.6"/><circle cx="64.0" cy="218.4" r="2" fill="#EE6677"/><circle cx="81.4" cy="261.9" r="2" fill="#EE6677"/><circle cx="98.9" cy="242.7" r="2" fill="#EE6677"/><circle cx="116.3" cy="218.6" r="2" fill="#EE6677"/><circle cx="133.8" cy="105.6" r="2" fill="#EE6677"/><circle cx="151.2" cy="85.9" r="2" fill="#EE6677"/><circle cx="168.7" cy="191.0" r="2" fill="#EE6677"/><circle cx="186.1" cy="153.4" r="2" fill="#EE6677"/><circle cx="203.6" cy="152.0" r="2" fill="#EE6677"/><circle cx="221.0" cy="135.4" r="2" fill="#EE6677"/><circle cx="238.5" cy="137.9" r="2" fill="#EE6677"/><circle cx="255.9" cy="154.2" r="2" fill="#EE6677"/><circle cx="273.4" cy="86.3" r="2" fill="#EE6677"/><circle cx="290.8" cy="145.6" r="2" fill="#EE6677"/><circle cx="308.3" cy="79.5" r="2" fill="#EE6677"/><circle cx="325.7" cy="123.5" r="2" fill="#EE6677"/><circle cx="343.2" cy="108.1" r="2" fill="#EE6677"/><circle cx="360.6" cy="132.3" r="2" fill="#EE6677"/><circle cx="378.1" cy="146.1" r="2" fill="#EE6677"/><circle cx="395.5" cy="114.2" r="2" fill="#EE6677"/><circle cx="413.0" cy="120.5" r="2" fill="#EE6677"/><circle cx="430.4" cy="147.9" r="2" fill="#EE6677"/><circle cx="447.9" cy="121.7" r="2" fill="#EE6677"/><circle cx="465.3" cy="159.6" r="2" fill="#EE6677"/><circle cx="482.8" cy="101.1" r="2" fill="#EE6677"/><circle cx="500.2" cy="144.4" r="2" fill="#EE6677"/><circle cx="517.7" cy="105.3" r="2" fill="#EE6677"/><circle cx="535.1" cy="189.1" r="2" fill="#EE6677"/><circle cx="552.6" cy="84.6" r="2" fill="#EE6677"/><circle cx="570.0" cy="113.4" r="2" fill="#EE6677"/><rect x="580" y="49" width="10" height="10" fill="#EE6677"/><text x="594" y="58" font-size="10" fill="#444">chain-50</text><path d="M64.0,118.7 L81.4,192.4 L98.9,130.6 L116.3,141.5 L133.8,208.5 L151.2,98.1 L168.7,200.5 L186.1,205.5 L203.6,142.2 L221.0,127.2 L238.5,128.0 L255.9,131.0 L273.4,90.6 L290.8,218.8 L308.3,107.1 L325.7,89.8 L343.2,131.9 L360.6,120.6 L378.1,132.3 L395.5,215.7 L413.0,76.5 L430.4,113.0 L447.9,131.9 L465.3,142.7 L482.8,130.3 L500.2,124.4 L517.7,104.7 L535.1,154.3 L552.6,141.3 L570.0,77.3" fill="none" stroke="#228833" stroke-width="1.6"/><circle cx="64.0" cy="118.7" r="2" fill="#228833"/><circle cx="81.4" cy="192.4" r="2" fill="#228833"/><circle cx="98.9" cy="130.6" r="2" fill="#228833"/><circle cx="116.3" cy="141.5" r="2" fill="#228833"/><circle cx="133.8" cy="208.5" r="2" fill="#228833"/><circle cx="151.2" cy="98.1" r="2" fill="#228833"/><circle cx="168.7" cy="200.5" r="2" fill="#228833"/><circle cx="186.1" cy="205.5" r="2" fill="#228833"/><circle cx="203.6" cy="142.2" r="2" fill="#228833"/><circle cx="221.0" cy="127.2" r="2" fill="#228833"/><circle cx="238.5" cy="128.0" r="2" fill="#228833"/><circle cx="255.9" cy="131.0" r="2" fill="#228833"/><circle cx="273.4" cy="90.6" r="2" fill="#228833"/><circle cx="290.8" cy="218.8" r="2" fill="#228833"/><circle cx="308.3" cy="107.1" r="2" fill="#228833"/><circle cx="325.7" cy="89.8" r="2" fill="#228833"/><circle cx="343.2" cy="131.9" r="2" fill="#228833"/><circle cx="360.6" cy="120.6" r="2" fill="#228833"/><circle cx="378.1" cy="132.3" r="2" fill="#228833"/><circle cx="395.5" cy="215.7" r="2" fill="#228833"/><circle cx="413.0" cy="76.5" r="2" fill="#228833"/><circle cx="430.4" cy="113.0" r="2" fill="#228833"/><circle cx="447.9" cy="131.9" r="2" fill="#228833"/><circle cx="465.3" cy="142.7" r="2" fill="#228833"/><circle cx="482.8" cy="130.3" r="2" fill="#228833"/><circle cx="500.2" cy="124.4" r="2" fill="#228833"/><circle cx="517.7" cy="104.7" r="2" fill="#228833"/><circle cx="535.1" cy="154.3" r="2" fill="#228833"/><circle cx="552.6" cy="141.3" r="2" fill="#228833"/><circle cx="570.0" cy="77.3" r="2" fill="#228833"/><rect x="580" y="64" width="10" height="10" fill="#228833"/><text x="594" y="73" font-size="10" fill="#444">chain-200</text><path d="M64.0,175.5 L81.4,165.4 L98.9,191.7 L116.3,227.1 L133.8,168.8 L151.2,107.9 L168.7,270.2 L186.1,195.1 L203.6,284.9 L221.0,179.5 L238.5,218.5 L255.9,147.0 L273.4,110.4 L290.8,151.9 L308.3,171.6 L325.7,164.4 L343.2,166.2 L360.6,175.5 L378.1,164.3 L395.5,122.1 L413.0,135.4 L430.4,120.2 L447.9,287.8 L465.3,247.9 L482.8,152.9 L500.2,244.6 L517.7,141.6 L535.1,249.8 L552.6,202.8 L570.0,159.0" fill="none" stroke="#CCBB44" stroke-width="1.6"/><circle cx="64.0" cy="175.5" r="2" fill="#CCBB44"/><circle cx="81.4" cy="165.4" r="2" fill="#CCBB44"/><circle cx="98.9" cy="191.7" r="2" fill="#CCBB44"/><circle cx="116.3" cy="227.1" r="2" fill="#CCBB44"/><circle cx="133.8" cy="168.8" r="2" fill="#CCBB44"/><circle cx="151.2" cy="107.9" r="2" fill="#CCBB44"/><circle cx="168.7" cy="270.2" r="2" fill="#CCBB44"/><circle cx="186.1" cy="195.1" r="2" fill="#CCBB44"/><circle cx="203.6" cy="284.9" r="2" fill="#CCBB44"/><circle cx="221.0" cy="179.5" r="2" fill="#CCBB44"/><circle cx="238.5" cy="218.5" r="2" fill="#CCBB44"/><circle cx="255.9" cy="147.0" r="2" fill="#CCBB44"/><circle cx="273.4" cy="110.4" r="2" fill="#CCBB44"/><circle cx="290.8" cy="151.9" r="2" fill="#CCBB44"/><circle cx="308.3" cy="171.6" r="2" fill="#CCBB44"/><circle cx="325.7" cy="164.4" r="2" fill="#CCBB44"/><circle cx="343.2" cy="166.2" r="2" fill="#CCBB44"/><circle cx="360.6" cy="175.5" r="2" fill="#CCBB44"/><circle cx="378.1" cy="164.3" r="2" fill="#CCBB44"/><circle cx="395.5" cy="122.1" r="2" fill="#CCBB44"/><circle cx="413.0" cy="135.4" r="2" fill="#CCBB44"/><circle cx="430.4" cy="120.2" r="2" fill="#CCBB44"/><circle cx="447.9" cy="287.8" r="2" fill="#CCBB44"/><circle cx="465.3" cy="247.9" r="2" fill="#CCBB44"/><circle cx="482.8" cy="152.9" r="2" fill="#CCBB44"/><circle cx="500.2" cy="244.6" r="2" fill="#CCBB44"/><circle cx="517.7" cy="141.6" r="2" fill="#CCBB44"/><circle cx="535.1" cy="249.8" r="2" fill="#CCBB44"/><circle cx="552.6" cy="202.8" r="2" fill="#CCBB44"/><circle cx="570.0" cy="159.0" r="2" fill="#CCBB44"/><rect x="580" y="79" width="10" height="10" fill="#CCBB44"/><text x="594" y="88" font-size="10" fill="#444">chain-1000</text><path d="M64.0,111.0 L81.4,89.5 L98.9,142.7 L116.3,124.9 L133.8,128.3 L151.2,166.0 L168.7,123.4 L186.1,230.1 L203.6,220.1 L221.0,118.0 L238.5,251.9 L255.9,261.2 L273.4,149.5 L290.8,168.1 L308.3,154.7 L325.7,74.2 L343.2,80.8 L360.6,178.0 L378.1,293.5 L395.5,113.3 L413.0,174.9 L430.4,72.4 L447.9,107.3 L465.3,106.9 L482.8,228.7 L500.2,130.2 L517.7,122.3 L535.1,171.2 L552.6,71.1 L570.0,184.7" fill="none" stroke="#66CCEE" stroke-width="1.6"/><circle cx="64.0" cy="111.0" r="2" fill="#66CCEE"/><circle cx="81.4" cy="89.5" r="2" fill="#66CCEE"/><circle cx="98.9" cy="142.7" r="2" fill="#66CCEE"/><circle cx="116.3" cy="124.9" r="2" fill="#66CCEE"/><circle cx="133.8" cy="128.3" r="2" fill="#66CCEE"/><circle cx="151.2" cy="166.0" r="2" fill="#66CCEE"/><circle cx="168.7" cy="123.4" r="2" fill="#66CCEE"/><circle cx="186.1" cy="230.1" r="2" fill="#66CCEE"/><circle cx="203.6" cy="220.1" r="2" fill="#66CCEE"/><circle cx="221.0" cy="118.0" r="2" fill="#66CCEE"/><circle cx="238.5" cy="251.9" r="2" fill="#66CCEE"/><circle cx="255.9" cy="261.2" r="2" fill="#66CCEE"/><circle cx="273.4" cy="149.5" r="2" fill="#66CCEE"/><circle cx="290.8" cy="168.1" r="2" fill="#66CCEE"/><circle cx="308.3" cy="154.7" r="2" fill="#66CCEE"/><circle cx="325.7" cy="74.2" r="2" fill="#66CCEE"/><circle cx="343.2" cy="80.8" r="2" fill="#66CCEE"/><circle cx="360.6" cy="178.0" r="2" fill="#66CCEE"/><circle cx="378.1" cy="293.5" r="2" fill="#66CCEE"/><circle cx="395.5" cy="113.3" r="2" fill="#66CCEE"/><circle cx="413.0" cy="174.9" r="2" fill="#66CCEE"/><circle cx="430.4" cy="72.4" r="2" fill="#66CCEE"/><circle cx="447.9" cy="107.3" r="2" fill="#66CCEE"/><circle cx="465.3" cy="106.9" r="2" fill="#66CCEE"/><circle cx="482.8" cy="228.7" r="2" fill="#66CCEE"/><circle cx="500.2" cy="130.2" r="2" fill="#66CCEE"/><circle cx="517.7" cy="122.3" r="2" fill="#66CCEE"/><circle cx="535.1" cy="171.2" r="2" fill="#66CCEE"/><circle cx="552.6" cy="71.1" r="2" fill="#66CCEE"/><circle cx="570.0" cy="184.7" r="2" fill="#66CCEE"/><rect x="580" y="94" width="10" height="10" fill="#66CCEE"/><text x="594" y="103" font-size="10" fill="#444">dense-10</text><path d="M64.0,208.6 L81.4,217.4 L98.9,256.9 L116.3,121.8 L133.8,109.4 L151.2,97.6 L168.7,166.4 L186.1,197.9 L203.6,178.0 L221.0,194.6 L238.5,125.9 L255.9,149.7 L273.4,195.1 L290.8,154.2 L308.3,178.8 L325.7,211.3 L343.2,138.1 L360.6,139.4 L378.1,158.1 L395.5,213.9 L413.0,224.8 L430.4,125.2 L447.9,104.8 L465.3,116.5 L482.8,124.5 L500.2,125.2 L517.7,185.4 L535.1,171.7 L552.6,88.5 L570.0,105.4" fill="none" stroke="#AA3377" stroke-width="1.6"/><circle cx="64.0" cy="208.6" r="2" fill="#AA3377"/><circle cx="81.4" cy="217.4" r="2" fill="#AA3377"/><circle cx="98.9" cy="256.9" r="2" fill="#AA3377"/><circle cx="116.3" cy="121.8" r="2" fill="#AA3377"/><circle cx="133.8" cy="109.4" r="2" fill="#AA3377"/><circle cx="151.2" cy="97.6" r="2" fill="#AA3377"/><circle cx="168.7" cy="166.4" r="2" fill="#AA3377"/><circle cx="186.1" cy="197.9" r="2" fill="#AA3377"/><circle cx="203.6" cy="178.0" r="2" fill="#AA3377"/><circle cx="221.0" cy="194.6" r="2" fill="#AA3377"/><circle cx="238.5" cy="125.9" r="2" fill="#AA3377"/><circle cx="255.9" cy="149.7" r="2" fill="#AA3377"/><circle cx="273.4" cy="195.1" r="2" fill="#AA3377"/><circle cx="290.8" cy="154.2" r="2" fill="#AA3377"/><circle cx="308.3" cy="178.8" r="2" fill="#AA3377"/><circle cx="325.7" cy="211.3" r="2" fill="#AA3377"/><circle cx="343.2" cy="138.1" r="2" fill="#AA3377"/><circle cx="360.6" cy="139.4" r="2" fill="#AA3377"/><circle cx="378.1" cy="158.1" r="2" fill="#AA3377"/><circle cx="395.5" cy="213.9" r="2" fill="#AA3377"/><circle cx="413.0" cy="224.8" r="2" fill="#AA3377"/><circle cx="430.4" cy="125.2" r="2" fill="#AA3377"/><circle cx="447.9" cy="104.8" r="2" fill="#AA3377"/><circle cx="465.3" cy="116.5" r="2" fill="#AA3377"/><circle cx="482.8" cy="124.5" r="2" fill="#AA3377"/><circle cx="500.2" cy="125.2" r="2" fill="#AA3377"/><circle cx="517.7" cy="185.4" r="2" fill="#AA3377"/><circle cx="535.1" cy="171.7" r="2" fill="#AA3377"/><circle cx="552.6" cy="88.5" r="2" fill="#AA3377"/><circle cx="570.0" cy="105.4" r="2" fill="#AA3377"/><rect x="580" y="109" width="10" height="10" fill="#AA3377"/><text x="594" y="118" font-size="10" fill="#444">dense-50</text><path d="M64.0,145.3 L81.4,228.1 L98.9,131.6 L116.3,141.9 L133.8,266.4 L151.2,71.8 L168.7,160.6 L186.1,174.3 L203.6,154.0 L221.0,160.8 L238.5,125.5 L255.9,118.1 L273.4,94.3 L290.8,283.6 L308.3,120.1 L325.7,148.2 L343.2,146.3 L360.6,267.4 L378.1,139.4 L395.5,112.1 L413.0,94.7 L430.4,91.6 L447.9,209.3 L465.3,139.8 L482.8,127.2 L500.2,121.4 L517.7,105.8 L535.1,174.6 L552.6,146.4 L570.0,96.2" fill="none" stroke="#BBBBBB" stroke-width="1.6"/><circle cx="64.0" cy="145.3" r="2" fill="#BBBBBB"/><circle cx="81.4" cy="228.1" r="2" fill="#BBBBBB"/><circle cx="98.9" cy="131.6" r="2" fill="#BBBBBB"/><circle cx="116.3" cy="141.9" r="2" fill="#BBBBBB"/><circle cx="133.8" cy="266.4" r="2" fill="#BBBBBB"/><circle cx="151.2" cy="71.8" r="2" fill="#BBBBBB"/><circle cx="168.7" cy="160.6" r="2" fill="#BBBBBB"/><circle cx="186.1" cy="174.3" r="2" fill="#BBBBBB"/><circle cx="203.6" cy="154.0" r="2" fill="#BBBBBB"/><circle cx="221.0" cy="160.8" r="2" fill="#BBBBBB"/><circle cx="238.5" cy="125.5" r="2" fill="#BBBBBB"/><circle cx="255.9" cy="118.1" r="2" fill="#BBBBBB"/><circle cx="273.4" cy="94.3" r="2" fill="#BBBBBB"/><circle cx="290.8" cy="283.6" r="2" fill="#BBBBBB"/><circle cx="308.3" cy="120.1" r="2" fill="#BBBBBB"/><circle cx="325.7" cy="148.2" r="2" fill="#BBBBBB"/><circle cx="343.2" cy="146.3" r="2" fill="#BBBBBB"/><circle cx="360.6" cy="267.4" r="2" fill="#BBBBBB"/><circle cx="378.1" cy="139.4" r="2" fill="#BBBBBB"/><circle cx="395.5" cy="112.1" r="2" fill="#BBBBBB"/><circle cx="413.0" cy="94.7" r="2" fill="#BBBBBB"/><circle cx="430.4" cy="91.6" r="2" fill="#BBBBBB"/><circle cx="447.9" cy="209.3" r="2" fill="#BBBBBB"/><circle cx="465.3" cy="139.8" r="2" fill="#BBBBBB"/><circle cx="482.8" cy="127.2" r="2" fill="#BBBBBB"/><circle cx="500.2" cy="121.4" r="2" fill="#BBBBBB"/><circle cx="517.7" cy="105.8" r="2" fill="#BBBBBB"/><circle cx="535.1" cy="174.6" r="2" fill="#BBBBBB"/><circle cx="552.6" cy="146.4" r="2" fill="#BBBBBB"/><circle cx="570.0" cy="96.2" r="2" fill="#BBBBBB"/><rect x="580" y="124" width="10" height="10" fill="#BBBBBB"/><text x="594" y="133" font-size="10" fill="#444">dense-200</text><path d="M64.0,127.3 L81.4,111.6 L98.9,202.5 L116.3,173.4 L133.8,132.9 L151.2,128.7 L168.7,205.7 L186.1,156.2 L203.6,179.9 L221.0,163.3 L238.5,139.1 L255.9,186.4 L273.4,219.0 L290.8,212.6 L308.3,114.3 L325.7,256.6 L343.2,99.4 L360.6,157.6 L378.1,202.6 L395.5,72.0 L413.0,195.2 L430.4,267.1 L447.9,152.9 L465.3,146.8 L482.8,166.0 L500.2,226.3 L517.7,143.4 L535.1,169.9 L552.6,110.9 L570.0,112.9" fill="none" stroke="#222255" stroke-width="1.6"/><circle cx="64.0" cy="127.3" r="2" fill="#222255"/><circle cx="81.4" cy="111.6" r="2" fill="#222255"/><circle cx="98.9" cy="202.5" r="2" fill="#222255"/><circle cx="116.3" cy="173.4" r="2" fill="#222255"/><circle cx="133.8" cy="132.9" r="2" fill="#222255"/><circle cx="151.2" cy="128.7" r="2" fill="#222255"/><circle cx="168.7" cy="205.7" r="2" fill="#222255"/><circle cx="186.1" cy="156.2" r="2" fill="#222255"/><circle cx="203.6" cy="179.9" r="2" fill="#222255"/><circle cx="221.0" cy="163.3" r="2" fill="#222255"/><circle cx="238.5" cy="139.1" r="2" fill="#222255"/><circle cx="255.9" cy="186.4" r="2" fill="#222255"/><circle cx="273.4" cy="219.0" r="2" fill="#222255"/><circle cx="290.8" cy="212.6" r="2" fill="#222255"/><circle cx="308.3" cy="114.3" r="2" fill="#222255"/><circle cx="325.7" cy="256.6" r="2" fill="#222255"/><circle cx="343.2" cy="99.4" r="2" fill="#222255"/><circle cx="360.6" cy="157.6" r="2" fill="#222255"/><circle cx="378.1" cy="202.6" r="2" fill="#222255"/><circle cx="395.5" cy="72.0" r="2" fill="#222255"/><circle cx="413.0" cy="195.2" r="2" fill="#222255"/><circle cx="430.4" cy="267.1" r="2" fill="#222255"/><circle cx="447.9" cy="152.9" r="2" fill="#222255"/><circle cx="465.3" cy="146.8" r="2" fill="#222255"/><circle cx="482.8" cy="166.0" r="2" fill="#222255"/><circle cx="500.2" cy="226.3" r="2" fill="#222255"/><circle cx="517.7" cy="143.4" r="2" fill="#222255"/><circle cx="535.1" cy="169.9" r="2" fill="#222255"/><circle cx="552.6" cy="110.9" r="2" fill="#222255"/><circle cx="570.0" cy="112.9" r="2" fill="#222255"/><rect x="580" y="139" width="10" height="10" fill="#222255"/><text x="594" y="148" font-size="10" fill="#444">hub-50</text><path d="M64.0,131.8 L81.4,158.0 L98.9,162.1 L116.3,171.6 L133.8,126.8 L151.2,135.1 L168.7,164.9 L186.1,170.0 L203.6,214.4 L221.0,104.1 L238.5,144.8 L255.9,158.3 L273.4,101.6 L290.8,138.8 L308.3,97.5 L325.7,117.3 L343.2,106.8 L360.6,127.5 L378.1,168.2 L395.5,107.6 L413.0,242.1 L430.4,104.2 L447.9,177.3 L465.3,117.4 L482.8,146.5 L500.2,159.4 L517.7,127.7 L535.1,243.1 L552.6,101.8 L570.0,93.5" fill="none" stroke="#225555" stroke-width="1.6"/><circle cx="64.0" cy="131.8" r="2" fill="#225555"/><circle cx="81.4" cy="158.0" r="2" fill="#225555"/><circle cx="98.9" cy="162.1" r="2" fill="#225555"/><circle cx="116.3" cy="171.6" r="2" fill="#225555"/><circle cx="133.8" cy="126.8" r="2" fill="#225555"/><circle cx="151.2" cy="135.1" r="2" fill="#225555"/><circle cx="168.7" cy="164.9" r="2" fill="#225555"/><circle cx="186.1" cy="170.0" r="2" fill="#225555"/><circle cx="203.6" cy="214.4" r="2" fill="#225555"/><circle cx="221.0" cy="104.1" r="2" fill="#225555"/><circle cx="238.5" cy="144.8" r="2" fill="#225555"/><circle cx="255.9" cy="158.3" r="2" fill="#225555"/><circle cx="273.4" cy="101.6" r="2" fill="#225555"/><circle cx="290.8" cy="138.8" r="2" fill="#225555"/><circle cx="308.3" cy="97.5" r="2" fill="#225555"/><circle cx="325.7" cy="117.3" r="2" fill="#225555"/><circle cx="343.2" cy="106.8" r="2" fill="#225555"/><circle cx="360.6" cy="127.5" r="2" fill="#225555"/><circle cx="378.1" cy="168.2" r="2" fill="#225555"/><circle cx="395.5" cy="107.6" r="2" fill="#225555"/><circle cx="413.0" cy="242.1" r="2" fill="#225555"/><circle cx="430.4" cy="104.2" r="2" fill="#225555"/><circle cx="447.9" cy="177.3" r="2" fill="#225555"/><circle cx="465.3" cy="117.4" r="2" fill="#225555"/><circle cx="482.8" cy="146.5" r="2" fill="#225555"/><circle cx="500.2" cy="159.4" r="2" fill="#225555"/><circle cx="517.7" cy="127.7" r="2" fill="#225555"/><circle cx="535.1" cy="243.1" r="2" fill="#225555"/><circle cx="552.6" cy="101.8" r="2" fill="#225555"/><circle cx="570.0" cy="93.5" r="2" fill="#225555"/><rect x="580" y="154" width="10" height="10" fill="#225555"/><text x="594" y="163" font-size="10" fill="#444">hub-200</text><path d="M64.0,198.0 L81.4,191.9 L98.9,259.3 L116.3,199.7 L133.8,176.0 L151.2,148.7 L168.7,296.7 L186.1,299.8 L203.6,235.5 L221.0,167.3 L238.5,153.1 L255.9,169.0 L273.4,150.6 L290.8,201.6 L308.3,139.3 L325.7,124.4 L343.2,136.0 L360.6,165.9 L378.1,193.1 L395.5,148.9 L413.0,115.4 L430.4,113.8 L447.9,209.4 L465.3,132.5 L482.8,188.0 L500.2,237.0 L517.7,213.3 L535.1,212.8 L552.6,139.9 L570.0,151.1" fill="none" stroke="#552222" stroke-width="1.6"/><circle cx="64.0" cy="198.0" r="2" fill="#552222"/><circle cx="81.4" cy="191.9" r="2" fill="#552222"/><circle cx="98.9" cy="259.3" r="2" fill="#552222"/><circle cx="116.3" cy="199.7" r="2" fill="#552222"/><circle cx="133.8" cy="176.0" r="2" fill="#552222"/><circle cx="151.2" cy="148.7" r="2" fill="#552222"/><circle cx="168.7" cy="296.7" r="2" fill="#552222"/><circle cx="186.1" cy="299.8" r="2" fill="#552222"/><circle cx="203.6" cy="235.5" r="2" fill="#552222"/><circle cx="221.0" cy="167.3" r="2" fill="#552222"/><circle cx="238.5" cy="153.1" r="2" fill="#552222"/><circle cx="255.9" cy="169.0" r="2" fill="#552222"/><circle cx="273.4" cy="150.6" r="2" fill="#552222"/><circle cx="290.8" cy="201.6" r="2" fill="#552222"/><circle cx="308.3" cy="139.3" r="2" fill="#552222"/><circle cx="325.7" cy="124.4" r="2" fill="#552222"/><circle cx="343.2" cy="136.0" r="2" fill="#552222"/><circle cx="360.6" cy="165.9" r="2" fill="#552222"/><circle cx="378.1" cy="193.1" r="2" fill="#552222"/><circle cx="395.5" cy="148.9" r="2" fill="#552222"/><circle cx="413.0" cy="115.4" r="2" fill="#552222"/><circle cx="430.4" cy="113.8" r="2" fill="#552222"/><circle cx="447.9" cy="209.4" r="2" fill="#552222"/><circle cx="465.3" cy="132.5" r="2" fill="#552222"/><circle cx="482.8" cy="188.0" r="2" fill="#552222"/><circle cx="500.2" cy="237.0" r="2" fill="#552222"/><circle cx="517.7" cy="213.3" r="2" fill="#552222"/><circle cx="535.1" cy="212.8" r="2" fill="#552222"/><circle cx="552.6" cy="139.9" r="2" fill="#552222"/><circle cx="570.0" cy="151.1" r="2" fill="#552222"/><rect x="580" y="169" width="10" height="10" fill="#552222"/><text x="594" y="178" font-size="10" fill="#444">messy-1000</text><path d="M64.0,203.2 L81.4,102.6 L98.9,193.1 L116.3,220.9 L133.8,214.0 L151.2,121.0 L168.7,168.9 L186.1,201.2 L203.6,182.8 L221.0,147.2 L238.5,166.0 L255.9,192.4 L273.4,117.8 L290.8,163.6 L308.3,162.4 L325.7,177.4 L343.2,228.1 L360.6,142.2 L378.1,164.9 L395.5,134.1 L413.0,255.4 L430.4,173.1 L447.9,270.7 L465.3,113.2 L482.8,115.7 L500.2,125.0 L517.7,140.4 L535.1,219.2 L552.6,216.5 L570.0,157.9" fill="none" stroke="#555522" stroke-width="1.6"/><circle cx="64.0" cy="203.2" r="2" fill="#555522"/><circle cx="81.4" cy="102.6" r="2" fill="#555522"/><circle cx="98.9" cy="193.1" r="2" fill="#555522"/><circle cx="116.3" cy="220.9" r="2" fill="#555522"/><circle cx="133.8" cy="214.0" r="2" fill="#555522"/><circle cx="151.2" cy="121.0" r="2" fill="#555522"/><circle cx="168.7" cy="168.9" r="2" fill="#555522"/><circle cx="186.1" cy="201.2" r="2" fill="#555522"/><circle cx="203.6" cy="182.8" r="2" fill="#555522"/><circle cx="221.0" cy="147.2" r="2" fill="#555522"/><circle cx="238.5" cy="166.0" r="2" fill="#555522"/><circle cx="255.9" cy="192.4" r="2" fill="#555522"/><circle cx="273.4" cy="117.8" r="2" fill="#555522"/><circle cx="290.8" cy="163.6" r="2" fill="#555522"/><circle cx="308.3" cy="162.4" r="2" fill="#555522"/><circle cx="325.7" cy="177.4" r="2" fill="#555522"/><circle cx="343.2" cy="228.1" r="2" fill="#555522"/><circle cx="360.6" cy="142.2" r="2" fill="#555522"/><circle cx="378.1" cy="164.9" r="2" fill="#555522"/><circle cx="395.5" cy="134.1" r="2" fill="#555522"/><circle cx="413.0" cy="255.4" r="2" fill="#555522"/><circle cx="430.4" cy="173.1" r="2" fill="#555522"/><circle cx="447.9" cy="270.7" r="2" fill="#555522"/><circle cx="465.3" cy="113.2" r="2" fill="#555522"/><circle cx="482.8" cy="115.7" r="2" fill="#555522"/><circle cx="500.2" cy="125.0" r="2" fill="#555522"/><circle cx="517.7" cy="140.4" r="2" fill="#555522"/><circle cx="535.1" cy="219.2" r="2" fill="#555522"/><circle cx="552.6" cy="216.5" r="2" fill="#555522"/><circle cx="570.0" cy="157.9" r="2" fill="#555522"/><rect x="580" y="184" width="10" height="10" fill="#555522"/><text x="594" y="193" font-size="10" fill="#444">messy-5000</text><path d="M64.0,111.3 L81.4,112.1 L98.9,143.5 L116.3,112.5 L133.8,115.1 L151.2,89.1 L168.7,147.9 L186.1,194.0 L203.6,131.5 L221.0,136.9 L238.5,116.1 L255.9,100.1 L273.4,116.2 L290.8,154.0 L308.3,137.7 L325.7,157.6 L343.2,96.9 L360.6,142.4 L378.1,123.6 L395.5,98.2 L413.0,210.4 L430.4,120.7 L447.9,178.1 L465.3,158.2 L482.8,123.0 L500.2,146.3 L517.7,132.2 L535.1,186.1 L552.6,117.6 L570.0,77.1" fill="none" stroke="#8855AA" stroke-width="1.6"/><circle cx="64.0" cy="111.3" r="2" fill="#8855AA"/><circle cx="81.4" cy="112.1" r="2" fill="#8855AA"/><circle cx="98.9" cy="143.5" r="2" fill="#8855AA"/><circle cx="116.3" cy="112.5" r="2" fill="#8855AA"/><circle cx="133.8" cy="115.1" r="2" fill="#8855AA"/><circle cx="151.2" cy="89.1" r="2" fill="#8855AA"/><circle cx="168.7" cy="147.9" r="2" fill="#8855AA"/><circle cx="186.1" cy="194.0" r="2" fill="#8855AA"/><circle cx="203.6" cy="131.5" r="2" fill="#8855AA"/><circle cx="221.0" cy="136.9" r="2" fill="#8855AA"/><circle cx="238.5" cy="116.1" r="2" fill="#8855AA"/><circle cx="255.9" cy="100.1" r="2" fill="#8855AA"/><circle cx="273.4" cy="116.2" r="2" fill="#8855AA"/><circle cx="290.8" cy="154.0" r="2" fill="#8855AA"/><circle cx="308.3" cy="137.7" r="2" fill="#8855AA"/><circle cx="325.7" cy="157.6" r="2" fill="#8855AA"/><circle cx="343.2" cy="96.9" r="2" fill="#8855AA"/><circle cx="360.6" cy="142.4" r="2" fill="#8855AA"/><circle cx="378.1" cy="123.6" r="2" fill="#8855AA"/><circle cx="395.5" cy="98.2" r="2" fill="#8855AA"/><circle cx="413.0" cy="210.4" r="2" fill="#8855AA"/><circle cx="430.4" cy="120.7" r="2" fill="#8855AA"/><circle cx="447.9" cy="178.1" r="2" fill="#8855AA"/><circle cx="465.3" cy="158.2" r="2" fill="#8855AA"/><circle cx="482.8" cy="123.0" r="2" fill="#8855AA"/><circle cx="500.2" cy="146.3" r="2" fill="#8855AA"/><circle cx="517.7" cy="132.2" r="2" fill="#8855AA"/><circle cx="535.1" cy="186.1" r="2" fill="#8855AA"/><circle cx="552.6" cy="117.6" r="2" fill="#8855AA"/><circle cx="570.0" cy="77.1" r="2" fill="#8855AA"/><rect x="580" y="199" width="10" height="10" fill="#8855AA"/><text x="594" y="208" font-size="10" fill="#444">hooked-200</text></svg>