<svg width="720" height="372" xmlns="http://www.w3.org/2000/svg"><rect width="720" height="372" fill="#ffffff"/><text x="64" y="20" font-size="15" font-weight="bold" fill="#333">list_exit_actions() — ops/sec (linear scale, last 50) by PR / release, c8g.medium</text><line x1="74.3" y1="34" x2="74.3" y2="324" stroke="#e8e8e8"/><line x1="84.7" y1="34" x2="84.7" y2="324" stroke="#e8e8e8"/><line x1="95.0" y1="34" x2="95.0" y2="324" stroke="#e8e8e8"/><line x1="105.3" y1="34" x2="105.3" y2="324" stroke="#e8e8e8"/><line x1="126.0" y1="34" x2="126.0" y2="324" stroke="#e8e8e8"/><line x1="136.3" y1="34" x2="136.3" y2="324" stroke="#e8e8e8"/><line x1="146.6" y1="34" x2="146.6" y2="324" stroke="#e8e8e8"/><line x1="156.9" y1="34" x2="156.9" y2="324" stroke="#e8e8e8"/><line x1="177.6" y1="34" x2="177.6" y2="324" stroke="#e8e8e8"/><line x1="187.9" y1="34" x2="187.9" y2="324" stroke="#e8e8e8"/><line x1="198.2" y1="34" x2="198.2" y2="324" stroke="#e8e8e8"/><line x1="208.6" y1="34" x2="208.6" y2="324" stroke="#e8e8e8"/><line x1="229.2" y1="34" x2="229.2" y2="324" stroke="#e8e8e8"/><line x1="239.6" y1="34" x2="239.6" y2="324" stroke="#e8e8e8"/><line x1="249.9" y1="34" x2="249.9" y2="324" stroke="#e8e8e8"/><line x1="260.2" y1="34" x2="260.2" y2="324" stroke="#e8e8e8"/><line x1="280.9" y1="34" x2="280.9" y2="324" stroke="#e8e8e8"/><line x1="291.2" y1="34" x2="291.2" y2="324" stroke="#e8e8e8"/><line x1="301.5" y1="34" x2="301.5" y2="324" stroke="#e8e8e8"/><line x1="311.8" y1="34" x2="311.8" y2="324" stroke="#e8e8e8"/><line x1="332.5" y1="34" x2="332.5" y2="324" stroke="#e8e8e8"/><line x1="342.8" y1="34" x2="342.8" y2="324" stroke="#e8e8e8"/><line x1="353.1" y1="34" x2="353.1" y2="324" stroke="#e8e8e8"/><line x1="363.5" y1="34" x2="363.5" y2="324" stroke="#e8e8e8"/><line x1="384.1" y1="34" x2="384.1" y2="324" stroke="#e8e8e8"/><line x1="394.4" y1="34" x2="394.4" y2="324" stroke="#e8e8e8"/><line x1="404.8" y1="34" x2="404.8" y2="324" stroke="#e8e8e8"/><line x1="415.1" y1="34" x2="415.1" y2="324" stroke="#e8e8e8"/><line x1="435.8" y1="34" x2="435.8" y2="324" stroke="#e8e8e8"/><line x1="446.1" y1="34" x2="446.1" y2="324" stroke="#e8e8e8"/><line x1="456.4" y1="34" x2="456.4" y2="324" stroke="#e8e8e8"/><line x1="466.7" y1="34" x2="466.7" y2="324" stroke="#e8e8e8"/><line x1="487.4" y1="34" x2="487.4" y2="324" stroke="#e8e8e8"/><line x1="497.7" y1="34" x2="497.7" y2="324" stroke="#e8e8e8"/><line x1="508.0" y1="34" x2="508.0" y2="324" stroke="#e8e8e8"/><line x1="518.4" y1="34" x2="518.4" y2="324" stroke="#e8e8e8"/><line x1="539.0" y1="34" x2="539.0" y2="324" stroke="#e8e8e8"/><line x1="549.3" y1="34" x2="549.3" y2="324" stroke="#e8e8e8"/><line x1="559.7" y1="34" x2="559.7" y2="324" stroke="#e8e8e8"/><line x1="570.0" y1="34" x2="570.0" y2="324" stroke="#e8e8e8"/><line x1="64.0" y1="34" x2="64.0" y2="324" stroke="#d0d0d0"/><line x1="115.6" y1="34" x2="115.6" y2="324" stroke="#d0d0d0"/><line x1="167.3" y1="34" x2="167.3" y2="324" stroke="#d0d0d0"/><line x1="218.9" y1="34" x2="218.9" y2="324" stroke="#d0d0d0"/><line x1="270.5" y1="34" x2="270.5" y2="324" stroke="#d0d0d0"/><line x1="322.2" y1="34" x2="322.2" y2="324" stroke="#d0d0d0"/><line x1="373.8" y1="34" x2="373.8" y2="324" stroke="#d0d0d0"/><line x1="425.4" y1="34" x2="425.4" y2="324" stroke="#d0d0d0"/><line x1="477.1" y1="34" x2="477.1" y2="324" stroke="#d0d0d0"/><line x1="528.7" y1="34" x2="528.7" y2="324" stroke="#d0d0d0"/><line x1="64" y1="324.0" x2="570" y2="324.0" stroke="#b0b0b0"/><text x="58" y="328.0" font-size="10" text-anchor="end" fill="#888">-10.8k</text><line x1="64" y1="266.0" x2="570" y2="266.0" stroke="#b0b0b0"/><text x="58" y="270.0" font-size="10" text-anchor="end" fill="#888">60.4k</text><line x1="64" y1="208.0" x2="570" y2="208.0" stroke="#b0b0b0"/><text x="58" y="212.0" font-size="10" text-anchor="end" fill="#888">131.7k</text><line x1="64" y1="150.0" x2="570" y2="150.0" stroke="#b0b0b0"/><text x="58" y="154.0" font-size="10" text-anchor="end" fill="#888">203k</text><line x1="64" y1="92.0" x2="570" y2="92.0" stroke="#b0b0b0"/><text x="58" y="96.0" font-size="10" text-anchor="end" fill="#888">274.3k</text><line x1="64" y1="34.0" x2="570" y2="34.0" stroke="#b0b0b0"/><text x="58" y="38.0" font-size="10" text-anchor="end" fill="#888">345.6k</text><text x="64.0" y="327.2" font-size="4" text-anchor="end" fill="#aa4400" transform="rotate(-80 64.0 327.2)">v5.147.4</text><text x="74.3" y="327.2" font-size="4" text-anchor="end" fill="#d6a382" transform="rotate(-80 74.3 327.2)">v5.147.5</text><text x="84.7" y="327.2" font-size="4" text-anchor="end" fill="#d6a382" transform="rotate(-80 84.7 327.2)">v5.147.6</text><text x="95.0" y="327.2" font-size="4" text-anchor="end" fill="#d6a382" transform="rotate(-80 95.0 327.2)">v5.147.7</text><text x="105.3" y="327.2" font-size="4" text-anchor="end" fill="#d6a382" transform="rotate(-80 105.3 327.2)">v5.147.8</text><text x="115.6" y="327.2" font-size="4" text-anchor="end" fill="#d6a382" transform="rotate(-80 115.6 327.2)">v5.147.9</text><text x="126.0" y="327.2" font-size="4" text-anchor="end" fill="#d6a382" transform="rotate(-80 126.0 327.2)">v5.147.10</text><text x="136.3" y="327.2" font-size="4" text-anchor="end" fill="#aa4400" transform="rotate(-80 136.3 327.2)">v5.148.0</text><text x="146.6" y="327.2" font-size="4" text-anchor="end" fill="#d6a382" transform="rotate(-80 146.6 327.2)">v5.148.1</text><text x="156.9" y="327.2" font-size="4" text-anchor="end" fill="#d6a382" transform="rotate(-80 156.9 327.2)">v5.148.2</text><text x="167.3" y="327.2" font-size="4" text-anchor="end" fill="#aa4400" transform="rotate(-80 167.3 327.2)">v5.149.1</text><text x="177.6" y="327.2" font-size="4" text-anchor="end" fill="#d6a382" transform="rotate(-80 177.6 327.2)">v5.149.2</text><text x="187.9" y="327.2" font-size="4" text-anchor="end" fill="#aa4400" transform="rotate(-80 187.9 327.2)">v5.150.0</text><text x="198.2" y="327.2" font-size="4" text-anchor="end" fill="#d6a382" transform="rotate(-80 198.2 327.2)">v5.150.1</text><text x="208.6" y="327.2" font-size="4" text-anchor="end" fill="#aa4400" transform="rotate(-80 208.6 327.2)">v5.151.0</text><text x="218.9" y="327.2" font-size="4" text-anchor="end" fill="#d6a382" transform="rotate(-80 218.9 327.2)">v5.151.1</text><text x="229.2" y="327.2" font-size="4" text-anchor="end" fill="#d6a382" transform="rotate(-80 229.2 327.2)">v5.151.2</text><text x="239.6" y="327.2" font-size="4" text-anchor="end" fill="#aa4400" transform="rotate(-80 239.6 327.2)">v5.152.0</text><text x="249.9" y="327.2" font-size="4" text-anchor="end" fill="#aa4400" transform="rotate(-80 249.9 327.2)">v5.153.0</text><text x="260.2" y="327.2" font-size="4" text-anchor="end" fill="#aa4400" transform="rotate(-80 260.2 327.2)">v5.154.0</text><text x="270.5" y="327.2" font-size="4" text-anchor="end" fill="#aa4400" transform="rotate(-80 270.5 327.2)">v5.155.0</text><text x="280.9" y="327.2" font-size="4" text-anchor="end" fill="#d6a382" transform="rotate(-80 280.9 327.2)">v5.155.1</text><text x="291.2" y="327.2" font-size="4" text-anchor="end" fill="#aa4400" transform="rotate(-80 291.2 327.2)">v5.156.0</text><text x="301.5" y="327.2" font-size="4" text-anchor="end" fill="#d6a382" transform="rotate(-80 301.5 327.2)">v5.156.1</text><text x="311.8" y="327.2" font-size="4" text-anchor="end" fill="#aa4400" transform="rotate(-80 311.8 327.2)">v5.157.0</text><text x="322.2" y="327.2" font-size="4" text-anchor="end" fill="#d6a382" transform="rotate(-80 322.2 327.2)">v5.157.1</text><text x="332.5" y="327.2" font-size="4" text-anchor="end" fill="#d6a382" transform="rotate(-80 332.5 327.2)">v5.157.2</text><text x="342.8" y="327.2" font-size="4" text-anchor="end" fill="#d6a382" transform="rotate(-80 342.8 327.2)">v5.157.3</text><text x="353.1" y="327.2" font-size="4" text-anchor="end" fill="#d6a382" transform="rotate(-80 353.1 327.2)">v5.157.4</text><text x="363.5" y="327.2" font-size="4" text-anchor="end" fill="#d6a382" transform="rotate(-80 363.5 327.2)">v5.157.5</text><text x="373.8" y="327.2" font-size="4" text-anchor="end" fill="#d6a382" transform="rotate(-80 373.8 327.2)">v5.157.6</text><text x="384.1" y="327.2" font-size="4" text-anchor="end" fill="#d6a382" transform="rotate(-80 384.1 327.2)">v5.157.7</text><text x="394.4" y="327.2" font-size="4" text-anchor="end" fill="#d6a382" transform="rotate(-80 394.4 327.2)">v5.157.8</text><text x="404.8" y="327.2" font-size="4" text-anchor="end" fill="#d6a382" transform="rotate(-80 404.8 327.2)">v5.157.9</text><text x="415.1" y="327.2" font-size="4" text-anchor="end" fill="#d6a382" transform="rotate(-80 415.1 327.2)">v5.157.10</text><text x="425.4" y="327.2" font-size="4" text-anchor="end" fill="#d6a382" transform="rotate(-80 425.4 327.2)">v5.157.11</text><text x="435.8" y="327.2" font-size="4" text-anchor="end" fill="#d6a382" transform="rotate(-80 435.8 327.2)">v5.157.12</text><text x="446.1" y="327.2" font-size="4" text-anchor="end" fill="#d6a382" transform="rotate(-80 446.1 327.2)">v5.157.13</text><text x="456.4" y="327.2" font-size="4" text-anchor="end" fill="#d6a382" transform="rotate(-80 456.4 327.2)">v5.157.14</text><text x="466.7" y="327.2" font-size="4" text-anchor="end" fill="#d6a382" transform="rotate(-80 466.7 327.2)">v5.157.15</text><text x="477.1" y="327.2" font-size="4" text-anchor="end" fill="#d6a382" transform="rotate(-80 477.1 327.2)">v5.157.16</text><text x="487.4" y="327.2" font-size="4" text-anchor="end" fill="#d6a382" transform="rotate(-80 487.4 327.2)">v5.157.17</text><text x="497.7" y="327.2" font-size="4" text-anchor="end" fill="#d6a382" transform="rotate(-80 497.7 327.2)">v5.157.18</text><text x="508.0" y="327.2" font-size="4" text-anchor="end" fill="#aa4400" transform="rotate(-80 508.0 327.2)">v5.158.0</text><text x="518.4" y="327.2" font-size="4" text-anchor="end" fill="#d6a382" transform="rotate(-80 518.4 327.2)">v5.158.1</text><text x="528.7" y="327.2" font-size="4" text-anchor="end" fill="#d6a382" transform="rotate(-80 528.7 327.2)">v5.158.2</text><text x="539.0" y="327.2" font-size="4" text-anchor="end" fill="#aa4400" transform="rotate(-80 539.0 327.2)">v5.159.0</text><text x="549.3" y="327.2" font-size="4" text-anchor="end" fill="#d6a382" transform="rotate(-80 549.3 327.2)">v5.159.1</text><text x="559.7" y="327.2" font-size="4" text-anchor="end" fill="#d6a382" transform="rotate(-80 559.7 327.2)">v5.159.2</text><text x="570.0" y="327.2" font-size="4" text-anchor="end" fill="#aa4400" transform="rotate(-80 570.0 327.2)">v5.160.0</text><path d="M64.0,63.3 L74.3,58.2 L84.7,64.7 L95.0,64.6 L105.3,62.7 L115.6,77.4 L126.0,70.2 L136.3,74.0 L146.6,74.3 L156.9,70.2 L167.3,66.7 L177.6,77.7 L187.9,63.2 L198.2,70.5 L208.6,62.9 L218.9,71.2 L229.2,77.6 L239.6,67.7 L249.9,66.6 L260.2,60.6 L270.5,71.8 L280.9,69.6 L291.2,77.4 L301.5,67.4 L311.8,67.8 L322.2,65.4 L332.5,69.0 L342.8,63.7 L353.1,82.0 L363.5,74.3 L373.8,76.8 L384.1,72.6 L394.4,63.6 L404.8,67.7 L415.1,81.1 L425.4,65.4 L435.8,61.2 L446.1,75.5 L456.4,84.4 L466.7,67.7 L477.1,69.4 L487.4,59.5 L497.7,70.5 L508.0,69.9 L518.4,77.2 L528.7,76.7 L539.0,76.4 L549.3,65.6 L559.7,65.8 L570.0,58.8" fill="none" stroke="#4477AA" stroke-width="1.6"/><circle cx="64.0" cy="63.3" r="2" fill="#4477AA"/><circle cx="74.3" cy="58.2" r="2" fill="#4477AA"/><circle cx="84.7" cy="64.7" r="2" fill="#4477AA"/><circle cx="95.0" cy="64.6" r="2" fill="#4477AA"/><circle cx="105.3" cy="62.7" r="2" fill="#4477AA"/><circle cx="115.6" cy="77.4" r="2" fill="#4477AA"/><circle cx="126.0" cy="70.2" r="2" fill="#4477AA"/><circle cx="136.3" cy="74.0" r="2" fill="#4477AA"/><circle cx="146.6" cy="74.3" r="2" fill="#4477AA"/><circle cx="156.9" cy="70.2" r="2" fill="#4477AA"/><circle cx="167.3" cy="66.7" r="2" fill="#4477AA"/><circle cx="177.6" cy="77.7" r="2" fill="#4477AA"/><circle cx="187.9" cy="63.2" r="2" fill="#4477AA"/><circle cx="198.2" cy="70.5" r="2" fill="#4477AA"/><circle cx="208.6" cy="62.9" r="2" fill="#4477AA"/><circle cx="218.9" cy="71.2" r="2" fill="#4477AA"/><circle cx="229.2" cy="77.6" r="2" fill="#4477AA"/><circle cx="239.6" cy="67.7" r="2" fill="#4477AA"/><circle cx="249.9" cy="66.6" r="2" fill="#4477AA"/><circle cx="260.2" cy="60.6" r="2" fill="#4477AA"/><circle cx="270.5" cy="71.8" r="2" fill="#4477AA"/><circle cx="280.9" cy="69.6" r="2" fill="#4477AA"/><circle cx="291.2" cy="77.4" r="2" fill="#4477AA"/><circle cx="301.5" cy="67.4" r="2" fill="#4477AA"/><circle cx="311.8" cy="67.8" r="2" fill="#4477AA"/><circle cx="322.2" cy="65.4" r="2" fill="#4477AA"/><circle cx="332.5" cy="69.0" r="2" fill="#4477AA"/><circle cx="342.8" cy="63.7" r="2" fill="#4477AA"/><circle cx="353.1" cy="82.0" r="2" fill="#4477AA"/><circle cx="363.5" cy="74.3" r="2" fill="#4477AA"/><circle cx="373.8" cy="76.8" r="2" fill="#4477AA"/><circle cx="384.1" cy="72.6" r="2" fill="#4477AA"/><circle cx="394.4" cy="63.6" r="2" fill="#4477AA"/><circle cx="404.8" cy="67.7" r="2" fill="#4477AA"/><circle cx="415.1" cy="81.1" r="2" fill="#4477AA"/><circle cx="425.4" cy="65.4" r="2" fill="#4477AA"/><circle cx="435.8" cy="61.2" r="2" fill="#4477AA"/><circle cx="446.1" cy="75.5" r="2" fill="#4477AA"/><circle cx="456.4" cy="84.4" r="2" fill="#4477AA"/><circle cx="466.7" cy="67.7" r="2" fill="#4477AA"/><circle cx="477.1" cy="69.4" r="2" fill="#4477AA"/><circle cx="487.4" cy="59.5" r="2" fill="#4477AA"/><circle cx="497.7" cy="70.5" r="2" fill="#4477AA"/><circle cx="508.0" cy="69.9" r="2" fill="#4477AA"/><circle cx="518.4" cy="77.2" r="2" fill="#4477AA"/><circle cx="528.7" cy="76.7" r="2" fill="#4477AA"/><circle cx="539.0" cy="76.4" r="2" fill="#4477AA"/><circle cx="549.3" cy="65.6" r="2" fill="#4477AA"/><circle cx="559.7" cy="65.8" r="2" fill="#4477AA"/><circle cx="570.0" cy="58.8" r="2" fill="#4477AA"/><rect x="580" y="34" width="10" height="10" fill="#4477AA"/><text x="594" y="43" font-size="10" fill="#444">chain-10</text><path d="M64.0,71.1 L74.3,70.9 L84.7,74.7 L95.0,78.7 L105.3,72.4 L115.6,77.9 L126.0,84.2 L136.3,78.2 L146.6,85.4 L156.9,79.5 L167.3,76.5 L177.6,91.0 L187.9,85.0 L198.2,76.4 L208.6,76.7 L218.9,82.9 L229.2,75.7 L239.6,80.8 L249.9,79.5 L260.2,84.7 L270.5,80.1 L280.9,77.6 L291.2,79.6 L301.5,83.3 L311.8,79.1 L322.2,84.9 L332.5,72.6 L342.8,73.5 L353.1,85.3 L363.5,79.4 L373.8,82.3 L384.1,84.7 L394.4,84.3 L404.8,76.9 L415.1,81.1 L425.4,75.3 L435.8,76.8 L446.1,81.6 L456.4,79.0 L466.7,73.2 L477.1,75.6 L487.4,80.3 L497.7,75.4 L508.0,74.9 L518.4,77.0 L528.7,84.3 L539.0,75.6 L549.3,78.8 L559.7,74.2 L570.0,84.6" fill="none" stroke="#EE6677" stroke-width="1.6"/><circle cx="64.0" cy="71.1" r="2" fill="#EE6677"/><circle cx="74.3" cy="70.9" r="2" fill="#EE6677"/><circle cx="84.7" cy="74.7" r="2" fill="#EE6677"/><circle cx="95.0" cy="78.7" r="2" fill="#EE6677"/><circle cx="105.3" cy="72.4" r="2" fill="#EE6677"/><circle cx="115.6" cy="77.9" r="2" fill="#EE6677"/><circle cx="126.0" cy="84.2" r="2" fill="#EE6677"/><circle cx="136.3" cy="78.2" r="2" fill="#EE6677"/><circle cx="146.6" cy="85.4" r="2" fill="#EE6677"/><circle cx="156.9" cy="79.5" r="2" fill="#EE6677"/><circle cx="167.3" cy="76.5" r="2" fill="#EE6677"/><circle cx="177.6" cy="91.0" r="2" fill="#EE6677"/><circle cx="187.9" cy="85.0" r="2" fill="#EE6677"/><circle cx="198.2" cy="76.4" r="2" fill="#EE6677"/><circle cx="208.6" cy="76.7" r="2" fill="#EE6677"/><circle cx="218.9" cy="82.9" r="2" fill="#EE6677"/><circle cx="229.2" cy="75.7" r="2" fill="#EE6677"/><circle cx="239.6" cy="80.8" r="2" fill="#EE6677"/><circle cx="249.9" cy="79.5" r="2" fill="#EE6677"/><circle cx="260.2" cy="84.7" r="2" fill="#EE6677"/><circle cx="270.5" cy="80.1" r="2" fill="#EE6677"/><circle cx="280.9" cy="77.6" r="2" fill="#EE6677"/><circle cx="291.2" cy="79.6" r="2" fill="#EE6677"/><circle cx="301.5" cy="83.3" r="2" fill="#EE6677"/><circle cx="311.8" cy="79.1" r="2" fill="#EE6677"/><circle cx="322.2" cy="84.9" r="2" fill="#EE6677"/><circle cx="332.5" cy="72.6" r="2" fill="#EE6677"/><circle cx="342.8" cy="73.5" r="2" fill="#EE6677"/><circle cx="353.1" cy="85.3" r="2" fill="#EE6677"/><circle cx="363.5" cy="79.4" r="2" fill="#EE6677"/><circle cx="373.8" cy="82.3" r="2" fill="#EE6677"/><circle cx="384.1" cy="84.7" r="2" fill="#EE6677"/><circle cx="394.4" cy="84.3" r="2" fill="#EE6677"/><circle cx="404.8" cy="76.9" r="2" fill="#EE6677"/><circle cx="415.1" cy="81.1" r="2" fill="#EE6677"/><circle cx="425.4" cy="75.3" r="2" fill="#EE6677"/><circle cx="435.8" cy="76.8" r="2" fill="#EE6677"/><circle cx="446.1" cy="81.6" r="2" fill="#EE6677"/><circle cx="456.4" cy="79.0" r="2" fill="#EE6677"/><circle cx="466.7" cy="73.2" r="2" fill="#EE6677"/><circle cx="477.1" cy="75.6" r="2" fill="#EE6677"/><circle cx="487.4" cy="80.3" r="2" fill="#EE6677"/><circle cx="497.7" cy="75.4" r="2" fill="#EE6677"/><circle cx="508.0" cy="74.9" r="2" fill="#EE6677"/><circle cx="518.4" cy="77.0" r="2" fill="#EE6677"/><circle cx="528.7" cy="84.3" r="2" fill="#EE6677"/><circle cx="539.0" cy="75.6" r="2" fill="#EE6677"/><circle cx="549.3" cy="78.8" r="2" fill="#EE6677"/><circle cx="559.7" cy="74.2" r="2" fill="#EE6677"/><circle cx="570.0" cy="84.6" r="2" fill="#EE6677"/><rect x="580" y="49" width="10" height="10" fill="#EE6677"/><text x="594" y="58" font-size="10" fill="#444">chain-50</text><path d="M64.0,73.7 L74.3,75.2 L84.7,71.2 L95.0,74.5 L105.3,67.8 L115.6,83.5 L126.0,80.2 L136.3,77.7 L146.6,79.8 L156.9,73.7 L167.3,83.0 L177.6,77.4 L187.9,88.1 L198.2,86.3 L208.6,81.9 L218.9,84.2 L229.2,81.4 L239.6,81.9 L249.9,82.4 L260.2,85.7 L270.5,81.9 L280.9,76.0 L291.2,77.7 L301.5,89.9 L311.8,77.5 L322.2,79.6 L332.5,84.9 L342.8,80.2 L353.1,74.7 L363.5,84.3 L373.8,83.9 L384.1,76.5 L394.4,82.5 L404.8,73.8 L415.1,73.6 L425.4,78.3 L435.8,80.5 L446.1,82.0 L456.4,74.4 L466.7,79.3 L477.1,74.4 L487.4,77.5 L497.7,80.7 L508.0,80.5 L518.4,76.4 L528.7,80.3 L539.0,78.3 L549.3,76.3 L559.7,73.3 L570.0,76.2" fill="none" stroke="#228833" stroke-width="1.6"/><circle cx="64.0" cy="73.7" r="2" fill="#228833"/><circle cx="74.3" cy="75.2" r="2" fill="#228833"/><circle cx="84.7" cy="71.2" r="2" fill="#228833"/><circle cx="95.0" cy="74.5" r="2" fill="#228833"/><circle cx="105.3" cy="67.8" r="2" fill="#228833"/><circle cx="115.6" cy="83.5" r="2" fill="#228833"/><circle cx="126.0" cy="80.2" r="2" fill="#228833"/><circle cx="136.3" cy="77.7" r="2" fill="#228833"/><circle cx="146.6" cy="79.8" r="2" fill="#228833"/><circle cx="156.9" cy="73.7" r="2" fill="#228833"/><circle cx="167.3" cy="83.0" r="2" fill="#228833"/><circle cx="177.6" cy="77.4" r="2" fill="#228833"/><circle cx="187.9" cy="88.1" r="2" fill="#228833"/><circle cx="198.2" cy="86.3" r="2" fill="#228833"/><circle cx="208.6" cy="81.9" r="2" fill="#228833"/><circle cx="218.9" cy="84.2" r="2" fill="#228833"/><circle cx="229.2" cy="81.4" r="2" fill="#228833"/><circle cx="239.6" cy="81.9" r="2" fill="#228833"/><circle cx="249.9" cy="82.4" r="2" fill="#228833"/><circle cx="260.2" cy="85.7" r="2" fill="#228833"/><circle cx="270.5" cy="81.9" r="2" fill="#228833"/><circle cx="280.9" cy="76.0" r="2" fill="#228833"/><circle cx="291.2" cy="77.7" r="2" fill="#228833"/><circle cx="301.5" cy="89.9" r="2" fill="#228833"/><circle cx="311.8" cy="77.5" r="2" fill="#228833"/><circle cx="322.2" cy="79.6" r="2" fill="#228833"/><circle cx="332.5" cy="84.9" r="2" fill="#228833"/><circle cx="342.8" cy="80.2" r="2" fill="#228833"/><circle cx="353.1" cy="74.7" r="2" fill="#228833"/><circle cx="363.5" cy="84.3" r="2" fill="#228833"/><circle cx="373.8" cy="83.9" r="2" fill="#228833"/><circle cx="384.1" cy="76.5" r="2" fill="#228833"/><circle cx="394.4" cy="82.5" r="2" fill="#228833"/><circle cx="404.8" cy="73.8" r="2" fill="#228833"/><circle cx="415.1" cy="73.6" r="2" fill="#228833"/><circle cx="425.4" cy="78.3" r="2" fill="#228833"/><circle cx="435.8" cy="80.5" r="2" fill="#228833"/><circle cx="446.1" cy="82.0" r="2" fill="#228833"/><circle cx="456.4" cy="74.4" r="2" fill="#228833"/><circle cx="466.7" cy="79.3" r="2" fill="#228833"/><circle cx="477.1" cy="74.4" r="2" fill="#228833"/><circle cx="487.4" cy="77.5" r="2" fill="#228833"/><circle cx="497.7" cy="80.7" r="2" fill="#228833"/><circle cx="508.0" cy="80.5" r="2" fill="#228833"/><circle cx="518.4" cy="76.4" r="2" fill="#228833"/><circle cx="528.7" cy="80.3" r="2" fill="#228833"/><circle cx="539.0" cy="78.3" r="2" fill="#228833"/><circle cx="549.3" cy="76.3" r="2" fill="#228833"/><circle cx="559.7" cy="73.3" r="2" fill="#228833"/><circle cx="570.0" cy="76.2" r="2" fill="#228833"/><rect x="580" y="64" width="10" height="10" fill="#228833"/><text x="594" y="73" font-size="10" fill="#444">chain-200</text><path d="M64.0,98.0 L74.3,93.6 L84.7,98.1 L95.0,99.6 L105.3,95.5 L115.6,99.0 L126.0,94.4 L136.3,94.7 L146.6,96.1 L156.9,105.4 L167.3,97.0 L177.6,102.5 L187.9,105.7 L198.2,102.7 L208.6,104.0 L218.9,95.9 L229.2,98.9 L239.6,105.6 L249.9,101.1 L260.2,98.7 L270.5,106.9 L280.9,92.4 L291.2,103.5 L301.5,100.4 L311.8,106.7 L322.2,98.5 L332.5,107.0 L342.8,102.9 L353.1,98.6 L363.5,101.2 L373.8,102.8 L384.1,99.2 L394.4,101.6 L404.8,97.2 L415.1,102.7 L425.4,106.1 L435.8,101.8 L446.1,93.1 L456.4,96.8 L466.7,96.5 L477.1,91.8 L487.4,91.1 L497.7,91.6 L508.0,96.3 L518.4,103.1 L528.7,95.8 L539.0,93.8 L549.3,100.3 L559.7,101.5 L570.0,105.8" fill="none" stroke="#CCBB44" stroke-width="1.6"/><circle cx="64.0" cy="98.0" r="2" fill="#CCBB44"/><circle cx="74.3" cy="93.6" r="2" fill="#CCBB44"/><circle cx="84.7" cy="98.1" r="2" fill="#CCBB44"/><circle cx="95.0" cy="99.6" r="2" fill="#CCBB44"/><circle cx="105.3" cy="95.5" r="2" fill="#CCBB44"/><circle cx="115.6" cy="99.0" r="2" fill="#CCBB44"/><circle cx="126.0" cy="94.4" r="2" fill="#CCBB44"/><circle cx="136.3" cy="94.7" r="2" fill="#CCBB44"/><circle cx="146.6" cy="96.1" r="2" fill="#CCBB44"/><circle cx="156.9" cy="105.4" r="2" fill="#CCBB44"/><circle cx="167.3" cy="97.0" r="2" fill="#CCBB44"/><circle cx="177.6" cy="102.5" r="2" fill="#CCBB44"/><circle cx="187.9" cy="105.7" r="2" fill="#CCBB44"/><circle cx="198.2" cy="102.7" r="2" fill="#CCBB44"/><circle cx="208.6" cy="104.0" r="2" fill="#CCBB44"/><circle cx="218.9" cy="95.9" r="2" fill="#CCBB44"/><circle cx="229.2" cy="98.9" r="2" fill="#CCBB44"/><circle cx="239.6" cy="105.6" r="2" fill="#CCBB44"/><circle cx="249.9" cy="101.1" r="2" fill="#CCBB44"/><circle cx="260.2" cy="98.7" r="2" fill="#CCBB44"/><circle cx="270.5" cy="106.9" r="2" fill="#CCBB44"/><circle cx="280.9" cy="92.4" r="2" fill="#CCBB44"/><circle cx="291.2" cy="103.5" r="2" fill="#CCBB44"/><circle cx="301.5" cy="100.4" r="2" fill="#CCBB44"/><circle cx="311.8" cy="106.7" r="2" fill="#CCBB44"/><circle cx="322.2" cy="98.5" r="2" fill="#CCBB44"/><circle cx="332.5" cy="107.0" r="2" fill="#CCBB44"/><circle cx="342.8" cy="102.9" r="2" fill="#CCBB44"/><circle cx="353.1" cy="98.6" r="2" fill="#CCBB44"/><circle cx="363.5" cy="101.2" r="2" fill="#CCBB44"/><circle cx="373.8" cy="102.8" r="2" fill="#CCBB44"/><circle cx="384.1" cy="99.2" r="2" fill="#CCBB44"/><circle cx="394.4" cy="101.6" r="2" fill="#CCBB44"/><circle cx="404.8" cy="97.2" r="2" fill="#CCBB44"/><circle cx="415.1" cy="102.7" r="2" fill="#CCBB44"/><circle cx="425.4" cy="106.1" r="2" fill="#CCBB44"/><circle cx="435.8" cy="101.8" r="2" fill="#CCBB44"/><circle cx="446.1" cy="93.1" r="2" fill="#CCBB44"/><circle cx="456.4" cy="96.8" r="2" fill="#CCBB44"/><circle cx="466.7" cy="96.5" r="2" fill="#CCBB44"/><circle cx="477.1" cy="91.8" r="2" fill="#CCBB44"/><circle cx="487.4" cy="91.1" r="2" fill="#CCBB44"/><circle cx="497.7" cy="91.6" r="2" fill="#CCBB44"/><circle cx="508.0" cy="96.3" r="2" fill="#CCBB44"/><circle cx="518.4" cy="103.1" r="2" fill="#CCBB44"/><circle cx="528.7" cy="95.8" r="2" fill="#CCBB44"/><circle cx="539.0" cy="93.8" r="2" fill="#CCBB44"/><circle cx="549.3" cy="100.3" r="2" fill="#CCBB44"/><circle cx="559.7" cy="101.5" r="2" fill="#CCBB44"/><circle cx="570.0" cy="105.8" r="2" fill="#CCBB44"/><rect x="580" y="79" width="10" height="10" fill="#CCBB44"/><text x="594" y="88" font-size="10" fill="#444">chain-1000</text><path d="M64.0,151.8 L74.3,148.2 L84.7,145.4 L95.0,148.6 L105.3,146.3 L115.6,155.8 L126.0,152.6 L136.3,150.1 L146.6,151.7 L156.9,153.2 L167.3,148.3 L177.6,155.9 L187.9,155.5 L198.2,154.2 L208.6,150.0 L218.9,154.4 L229.2,155.3 L239.6,150.1 L249.9,152.0 L260.2,146.6 L270.5,159.6 L280.9,151.0 L291.2,153.6 L301.5,148.4 L311.8,155.8 L322.2,154.7 L332.5,151.0 L342.8,154.3 L353.1,156.7 L363.5,157.6 L373.8,150.4 L384.1,155.8 L394.4,156.3 L404.8,154.2 L415.1,158.0 L425.4,151.3 L435.8,154.8 L446.1,154.3 L456.4,156.0 L466.7,156.4 L477.1,154.4 L487.4,154.6 L497.7,153.9 L508.0,151.0 L518.4,152.7 L528.7,158.1 L539.0,157.7 L549.3,149.4 L559.7,146.1 L570.0,154.2" fill="none" stroke="#66CCEE" stroke-width="1.6"/><circle cx="64.0" cy="151.8" r="2" fill="#66CCEE"/><circle cx="74.3" cy="148.2" r="2" fill="#66CCEE"/><circle cx="84.7" cy="145.4" r="2" fill="#66CCEE"/><circle cx="95.0" cy="148.6" r="2" fill="#66CCEE"/><circle cx="105.3" cy="146.3" r="2" fill="#66CCEE"/><circle cx="115.6" cy="155.8" r="2" fill="#66CCEE"/><circle cx="126.0" cy="152.6" r="2" fill="#66CCEE"/><circle cx="136.3" cy="150.1" r="2" fill="#66CCEE"/><circle cx="146.6" cy="151.7" r="2" fill="#66CCEE"/><circle cx="156.9" cy="153.2" r="2" fill="#66CCEE"/><circle cx="167.3" cy="148.3" r="2" fill="#66CCEE"/><circle cx="177.6" cy="155.9" r="2" fill="#66CCEE"/><circle cx="187.9" cy="155.5" r="2" fill="#66CCEE"/><circle cx="198.2" cy="154.2" r="2" fill="#66CCEE"/><circle cx="208.6" cy="150.0" r="2" fill="#66CCEE"/><circle cx="218.9" cy="154.4" r="2" fill="#66CCEE"/><circle cx="229.2" cy="155.3" r="2" fill="#66CCEE"/><circle cx="239.6" cy="150.1" r="2" fill="#66CCEE"/><circle cx="249.9" cy="152.0" r="2" fill="#66CCEE"/><circle cx="260.2" cy="146.6" r="2" fill="#66CCEE"/><circle cx="270.5" cy="159.6" r="2" fill="#66CCEE"/><circle cx="280.9" cy="151.0" r="2" fill="#66CCEE"/><circle cx="291.2" cy="153.6" r="2" fill="#66CCEE"/><circle cx="301.5" cy="148.4" r="2" fill="#66CCEE"/><circle cx="311.8" cy="155.8" r="2" fill="#66CCEE"/><circle cx="322.2" cy="154.7" r="2" fill="#66CCEE"/><circle cx="332.5" cy="151.0" r="2" fill="#66CCEE"/><circle cx="342.8" cy="154.3" r="2" fill="#66CCEE"/><circle cx="353.1" cy="156.7" r="2" fill="#66CCEE"/><circle cx="363.5" cy="157.6" r="2" fill="#66CCEE"/><circle cx="373.8" cy="150.4" r="2" fill="#66CCEE"/><circle cx="384.1" cy="155.8" r="2" fill="#66CCEE"/><circle cx="394.4" cy="156.3" r="2" fill="#66CCEE"/><circle cx="404.8" cy="154.2" r="2" fill="#66CCEE"/><circle cx="415.1" cy="158.0" r="2" fill="#66CCEE"/><circle cx="425.4" cy="151.3" r="2" fill="#66CCEE"/><circle cx="435.8" cy="154.8" r="2" fill="#66CCEE"/><circle cx="446.1" cy="154.3" r="2" fill="#66CCEE"/><circle cx="456.4" cy="156.0" r="2" fill="#66CCEE"/><circle cx="466.7" cy="156.4" r="2" fill="#66CCEE"/><circle cx="477.1" cy="154.4" r="2" fill="#66CCEE"/><circle cx="487.4" cy="154.6" r="2" fill="#66CCEE"/><circle cx="497.7" cy="153.9" r="2" fill="#66CCEE"/><circle cx="508.0" cy="151.0" r="2" fill="#66CCEE"/><circle cx="518.4" cy="152.7" r="2" fill="#66CCEE"/><circle cx="528.7" cy="158.1" r="2" fill="#66CCEE"/><circle cx="539.0" cy="157.7" r="2" fill="#66CCEE"/><circle cx="549.3" cy="149.4" r="2" fill="#66CCEE"/><circle cx="559.7" cy="146.1" r="2" fill="#66CCEE"/><circle cx="570.0" cy="154.2" r="2" fill="#66CCEE"/><rect x="580" y="94" width="10" height="10" fill="#66CCEE"/><text x="594" y="103" font-size="10" fill="#444">dense-10</text><path d="M64.0,257.6 L74.3,257.0 L84.7,256.9 L95.0,256.6 L105.3,258.4 L115.6,259.3 L126.0,259.8 L136.3,259.9 L146.6,260.0 L156.9,259.4 L167.3,260.6 L177.6,259.5 L187.9,259.8 L198.2,258.9 L208.6,259.0 L218.9,260.3 L229.2,259.3 L239.6,259.0 L249.9,259.4 L260.2,259.1 L270.5,259.7 L280.9,259.5 L291.2,259.5 L301.5,260.2 L311.8,260.4 L322.2,259.6 L332.5,259.6 L342.8,259.2 L353.1,260.3 L363.5,259.7 L373.8,259.9 L384.1,259.6 L394.4,259.9 L404.8,260.2 L415.1,260.0 L425.4,261.1 L435.8,259.9 L446.1,261.0 L456.4,260.0 L466.7,258.0 L477.1,259.2 L487.4,259.2 L497.7,260.1 L508.0,259.5 L518.4,258.7 L528.7,259.2 L539.0,258.8 L549.3,259.3 L559.7,259.7 L570.0,259.1" fill="none" stroke="#AA3377" stroke-width="1.6"/><circle cx="64.0" cy="257.6" r="2" fill="#AA3377"/><circle cx="74.3" cy="257.0" r="2" fill="#AA3377"/><circle cx="84.7" cy="256.9" r="2" fill="#AA3377"/><circle cx="95.0" cy="256.6" r="2" fill="#AA3377"/><circle cx="105.3" cy="258.4" r="2" fill="#AA3377"/><circle cx="115.6" cy="259.3" r="2" fill="#AA3377"/><circle cx="126.0" cy="259.8" r="2" fill="#AA3377"/><circle cx="136.3" cy="259.9" r="2" fill="#AA3377"/><circle cx="146.6" cy="260.0" r="2" fill="#AA3377"/><circle cx="156.9" cy="259.4" r="2" fill="#AA3377"/><circle cx="167.3" cy="260.6" r="2" fill="#AA3377"/><circle cx="177.6" cy="259.5" r="2" fill="#AA3377"/><circle cx="187.9" cy="259.8" r="2" fill="#AA3377"/><circle cx="198.2" cy="258.9" r="2" fill="#AA3377"/><circle cx="208.6" cy="259.0" r="2" fill="#AA3377"/><circle cx="218.9" cy="260.3" r="2" fill="#AA3377"/><circle cx="229.2" cy="259.3" r="2" fill="#AA3377"/><circle cx="239.6" cy="259.0" r="2" fill="#AA3377"/><circle cx="249.9" cy="259.4" r="2" fill="#AA3377"/><circle cx="260.2" cy="259.1" r="2" fill="#AA3377"/><circle cx="270.5" cy="259.7" r="2" fill="#AA3377"/><circle cx="280.9" cy="259.5" r="2" fill="#AA3377"/><circle cx="291.2" cy="259.5" r="2" fill="#AA3377"/><circle cx="301.5" cy="260.2" r="2" fill="#AA3377"/><circle cx="311.8" cy="260.4" r="2" fill="#AA3377"/><circle cx="322.2" cy="259.6" r="2" fill="#AA3377"/><circle cx="332.5" cy="259.6" r="2" fill="#AA3377"/><circle cx="342.8" cy="259.2" r="2" fill="#AA3377"/><circle cx="353.1" cy="260.3" r="2" fill="#AA3377"/><circle cx="363.5" cy="259.7" r="2" fill="#AA3377"/><circle cx="373.8" cy="259.9" r="2" fill="#AA3377"/><circle cx="384.1" cy="259.6" r="2" fill="#AA3377"/><circle cx="394.4" cy="259.9" r="2" fill="#AA3377"/><circle cx="404.8" cy="260.2" r="2" fill="#AA3377"/><circle cx="415.1" cy="260.0" r="2" fill="#AA3377"/><circle cx="425.4" cy="261.1" r="2" fill="#AA3377"/><circle cx="435.8" cy="259.9" r="2" fill="#AA3377"/><circle cx="446.1" cy="261.0" r="2" fill="#AA3377"/><circle cx="456.4" cy="260.0" r="2" fill="#AA3377"/><circle cx="466.7" cy="258.0" r="2" fill="#AA3377"/><circle cx="477.1" cy="259.2" r="2" fill="#AA3377"/><circle cx="487.4" cy="259.2" r="2" fill="#AA3377"/><circle cx="497.7" cy="260.1" r="2" fill="#AA3377"/><circle cx="508.0" cy="259.5" r="2" fill="#AA3377"/><circle cx="518.4" cy="258.7" r="2" fill="#AA3377"/><circle cx="528.7" cy="259.2" r="2" fill="#AA3377"/><circle cx="539.0" cy="258.8" r="2" fill="#AA3377"/><circle cx="549.3" cy="259.3" r="2" fill="#AA3377"/><circle cx="559.7" cy="259.7" r="2" fill="#AA3377"/><circle cx="570.0" cy="259.1" r="2" fill="#AA3377"/><rect x="580" y="109" width="10" height="10" fill="#AA3377"/><text x="594" y="118" font-size="10" fill="#444">dense-50</text><path d="M64.0,299.4 L74.3,298.8 L84.7,298.6 L95.0,298.8 L105.3,299.1 L115.6,299.6 L126.0,299.5 L136.3,299.5 L146.6,299.6 L156.9,299.4 L167.3,299.7 L177.6,299.0 L187.9,299.5 L198.2,299.5 L208.6,299.4 L218.9,299.4 L229.2,299.6 L239.6,299.6 L249.9,299.5 L260.2,299.7 L270.5,299.6 L280.9,299.6 L291.2,298.8 L301.5,299.5 L311.8,299.6 L322.2,299.4 L332.5,299.2 L342.8,299.6 L353.1,299.8 L363.5,299.8 L373.8,299.6 L384.1,299.7 L394.4,299.8 L404.8,299.1 L415.1,299.5 L425.4,299.6 L435.8,299.5 L446.1,299.7 L456.4,299.3 L466.7,299.6 L477.1,299.5 L487.4,299.8 L497.7,299.6 L508.0,299.5 L518.4,299.6 L528.7,299.5 L539.0,299.5 L549.3,299.5 L559.7,299.5 L570.0,299.5" fill="none" stroke="#BBBBBB" stroke-width="1.6"/><circle cx="64.0" cy="299.4" r="2" fill="#BBBBBB"/><circle cx="74.3" cy="298.8" r="2" fill="#BBBBBB"/><circle cx="84.7" cy="298.6" r="2" fill="#BBBBBB"/><circle cx="95.0" cy="298.8" r="2" fill="#BBBBBB"/><circle cx="105.3" cy="299.1" r="2" fill="#BBBBBB"/><circle cx="115.6" cy="299.6" r="2" fill="#BBBBBB"/><circle cx="126.0" cy="299.5" r="2" fill="#BBBBBB"/><circle cx="136.3" cy="299.5" r="2" fill="#BBBBBB"/><circle cx="146.6" cy="299.6" r="2" fill="#BBBBBB"/><circle cx="156.9" cy="299.4" r="2" fill="#BBBBBB"/><circle cx="167.3" cy="299.7" r="2" fill="#BBBBBB"/><circle cx="177.6" cy="299.0" r="2" fill="#BBBBBB"/><circle cx="187.9" cy="299.5" r="2" fill="#BBBBBB"/><circle cx="198.2" cy="299.5" r="2" fill="#BBBBBB"/><circle cx="208.6" cy="299.4" r="2" fill="#BBBBBB"/><circle cx="218.9" cy="299.4" r="2" fill="#BBBBBB"/><circle cx="229.2" cy="299.6" r="2" fill="#BBBBBB"/><circle cx="239.6" cy="299.6" r="2" fill="#BBBBBB"/><circle cx="249.9" cy="299.5" r="2" fill="#BBBBBB"/><circle cx="260.2" cy="299.7" r="2" fill="#BBBBBB"/><circle cx="270.5" cy="299.6" r="2" fill="#BBBBBB"/><circle cx="280.9" cy="299.6" r="2" fill="#BBBBBB"/><circle cx="291.2" cy="298.8" r="2" fill="#BBBBBB"/><circle cx="301.5" cy="299.5" r="2" fill="#BBBBBB"/><circle cx="311.8" cy="299.6" r="2" fill="#BBBBBB"/><circle cx="322.2" cy="299.4" r="2" fill="#BBBBBB"/><circle cx="332.5" cy="299.2" r="2" fill="#BBBBBB"/><circle cx="342.8" cy="299.6" r="2" fill="#BBBBBB"/><circle cx="353.1" cy="299.8" r="2" fill="#BBBBBB"/><circle cx="363.5" cy="299.8" r="2" fill="#BBBBBB"/><circle cx="373.8" cy="299.6" r="2" fill="#BBBBBB"/><circle cx="384.1" cy="299.7" r="2" fill="#BBBBBB"/><circle cx="394.4" cy="299.8" r="2" fill="#BBBBBB"/><circle cx="404.8" cy="299.1" r="2" fill="#BBBBBB"/><circle cx="415.1" cy="299.5" r="2" fill="#BBBBBB"/><circle cx="425.4" cy="299.6" r="2" fill="#BBBBBB"/><circle cx="435.8" cy="299.5" r="2" fill="#BBBBBB"/><circle cx="446.1" cy="299.7" r="2" fill="#BBBBBB"/><circle cx="456.4" cy="299.3" r="2" fill="#BBBBBB"/><circle cx="466.7" cy="299.6" r="2" fill="#BBBBBB"/><circle cx="477.1" cy="299.5" r="2" fill="#BBBBBB"/><circle cx="487.4" cy="299.8" r="2" fill="#BBBBBB"/><circle cx="497.7" cy="299.6" r="2" fill="#BBBBBB"/><circle cx="508.0" cy="299.5" r="2" fill="#BBBBBB"/><circle cx="518.4" cy="299.6" r="2" fill="#BBBBBB"/><circle cx="528.7" cy="299.5" r="2" fill="#BBBBBB"/><circle cx="539.0" cy="299.5" r="2" fill="#BBBBBB"/><circle cx="549.3" cy="299.5" r="2" fill="#BBBBBB"/><circle cx="559.7" cy="299.5" r="2" fill="#BBBBBB"/><circle cx="570.0" cy="299.5" r="2" fill="#BBBBBB"/><rect x="580" y="124" width="10" height="10" fill="#BBBBBB"/><text x="594" y="133" font-size="10" fill="#444">dense-200</text><path d="M64.0,221.9 L74.3,221.9 L84.7,225.2 L95.0,226.1 L105.3,227.2 L115.6,225.4 L126.0,229.0 L136.3,226.7 L146.6,228.4 L156.9,228.4 L167.3,225.1 L177.6,234.6 L187.9,232.9 L198.2,224.8 L208.6,221.0 L218.9,228.9 L229.2,224.0 L239.6,226.6 L249.9,223.9 L260.2,225.0 L270.5,224.1 L280.9,223.4 L291.2,224.8 L301.5,227.3 L311.8,225.5 L322.2,228.4 L332.5,226.7 L342.8,225.5 L353.1,225.5 L363.5,225.4 L373.8,223.7 L384.1,225.3 L394.4,229.2 L404.8,229.1 L415.1,223.5 L425.4,228.5 L435.8,222.2 L446.1,225.8 L456.4,225.3 L466.7,224.0 L477.1,228.3 L487.4,226.3 L497.7,228.2 L508.0,223.6 L518.4,225.4 L528.7,226.1 L539.0,224.8 L549.3,225.0 L559.7,225.5 L570.0,224.3" fill="none" stroke="#222255" stroke-width="1.6"/><circle cx="64.0" cy="221.9" r="2" fill="#222255"/><circle cx="74.3" cy="221.9" r="2" fill="#222255"/><circle cx="84.7" cy="225.2" r="2" fill="#222255"/><circle cx="95.0" cy="226.1" r="2" fill="#222255"/><circle cx="105.3" cy="227.2" r="2" fill="#222255"/><circle cx="115.6" cy="225.4" r="2" fill="#222255"/><circle cx="126.0" cy="229.0" r="2" fill="#222255"/><circle cx="136.3" cy="226.7" r="2" fill="#222255"/><circle cx="146.6" cy="228.4" r="2" fill="#222255"/><circle cx="156.9" cy="228.4" r="2" fill="#222255"/><circle cx="167.3" cy="225.1" r="2" fill="#222255"/><circle cx="177.6" cy="234.6" r="2" fill="#222255"/><circle cx="187.9" cy="232.9" r="2" fill="#222255"/><circle cx="198.2" cy="224.8" r="2" fill="#222255"/><circle cx="208.6" cy="221.0" r="2" fill="#222255"/><circle cx="218.9" cy="228.9" r="2" fill="#222255"/><circle cx="229.2" cy="224.0" r="2" fill="#222255"/><circle cx="239.6" cy="226.6" r="2" fill="#222255"/><circle cx="249.9" cy="223.9" r="2" fill="#222255"/><circle cx="260.2" cy="225.0" r="2" fill="#222255"/><circle cx="270.5" cy="224.1" r="2" fill="#222255"/><circle cx="280.9" cy="223.4" r="2" fill="#222255"/><circle cx="291.2" cy="224.8" r="2" fill="#222255"/><circle cx="301.5" cy="227.3" r="2" fill="#222255"/><circle cx="311.8" cy="225.5" r="2" fill="#222255"/><circle cx="322.2" cy="228.4" r="2" fill="#222255"/><circle cx="332.5" cy="226.7" r="2" fill="#222255"/><circle cx="342.8" cy="225.5" r="2" fill="#222255"/><circle cx="353.1" cy="225.5" r="2" fill="#222255"/><circle cx="363.5" cy="225.4" r="2" fill="#222255"/><circle cx="373.8" cy="223.7" r="2" fill="#222255"/><circle cx="384.1" cy="225.3" r="2" fill="#222255"/><circle cx="394.4" cy="229.2" r="2" fill="#222255"/><circle cx="404.8" cy="229.1" r="2" fill="#222255"/><circle cx="415.1" cy="223.5" r="2" fill="#222255"/><circle cx="425.4" cy="228.5" r="2" fill="#222255"/><circle cx="435.8" cy="222.2" r="2" fill="#222255"/><circle cx="446.1" cy="225.8" r="2" fill="#222255"/><circle cx="456.4" cy="225.3" r="2" fill="#222255"/><circle cx="466.7" cy="224.0" r="2" fill="#222255"/><circle cx="477.1" cy="228.3" r="2" fill="#222255"/><circle cx="487.4" cy="226.3" r="2" fill="#222255"/><circle cx="497.7" cy="228.2" r="2" fill="#222255"/><circle cx="508.0" cy="223.6" r="2" fill="#222255"/><circle cx="518.4" cy="225.4" r="2" fill="#222255"/><circle cx="528.7" cy="226.1" r="2" fill="#222255"/><circle cx="539.0" cy="224.8" r="2" fill="#222255"/><circle cx="549.3" cy="225.0" r="2" fill="#222255"/><circle cx="559.7" cy="225.5" r="2" fill="#222255"/><circle cx="570.0" cy="224.3" r="2" fill="#222255"/><rect x="580" y="139" width="10" height="10" fill="#222255"/><text x="594" y="148" font-size="10" fill="#444">hub-50</text><path d="M64.0,284.7 L74.3,283.0 L84.7,283.6 L95.0,283.9 L105.3,283.3 L115.6,284.3 L126.0,284.9 L136.3,284.4 L146.6,285.5 L156.9,284.7 L167.3,284.7 L177.6,284.8 L187.9,285.4 L198.2,285.1 L208.6,285.4 L218.9,285.2 L229.2,284.3 L239.6,284.7 L249.9,285.1 L260.2,284.7 L270.5,284.5 L280.9,284.5 L291.2,284.2 L301.5,284.5 L311.8,284.5 L322.2,284.5 L332.5,285.4 L342.8,285.5 L353.1,285.3 L363.5,285.6 L373.8,284.8 L384.1,284.8 L394.4,284.9 L404.8,284.9 L415.1,284.7 L425.4,284.8 L435.8,284.8 L446.1,285.1 L456.4,285.0 L466.7,284.2 L477.1,285.3 L487.4,284.8 L497.7,285.3 L508.0,284.8 L518.4,284.4 L528.7,284.8 L539.0,284.6 L549.3,284.4 L559.7,284.8 L570.0,284.4" fill="none" stroke="#225555" stroke-width="1.6"/><circle cx="64.0" cy="284.7" r="2" fill="#225555"/><circle cx="74.3" cy="283.0" r="2" fill="#225555"/><circle cx="84.7" cy="283.6" r="2" fill="#225555"/><circle cx="95.0" cy="283.9" r="2" fill="#225555"/><circle cx="105.3" cy="283.3" r="2" fill="#225555"/><circle cx="115.6" cy="284.3" r="2" fill="#225555"/><circle cx="126.0" cy="284.9" r="2" fill="#225555"/><circle cx="136.3" cy="284.4" r="2" fill="#225555"/><circle cx="146.6" cy="285.5" r="2" fill="#225555"/><circle cx="156.9" cy="284.7" r="2" fill="#225555"/><circle cx="167.3" cy="284.7" r="2" fill="#225555"/><circle cx="177.6" cy="284.8" r="2" fill="#225555"/><circle cx="187.9" cy="285.4" r="2" fill="#225555"/><circle cx="198.2" cy="285.1" r="2" fill="#225555"/><circle cx="208.6" cy="285.4" r="2" fill="#225555"/><circle cx="218.9" cy="285.2" r="2" fill="#225555"/><circle cx="229.2" cy="284.3" r="2" fill="#225555"/><circle cx="239.6" cy="284.7" r="2" fill="#225555"/><circle cx="249.9" cy="285.1" r="2" fill="#225555"/><circle cx="260.2" cy="284.7" r="2" fill="#225555"/><circle cx="270.5" cy="284.5" r="2" fill="#225555"/><circle cx="280.9" cy="284.5" r="2" fill="#225555"/><circle cx="291.2" cy="284.2" r="2" fill="#225555"/><circle cx="301.5" cy="284.5" r="2" fill="#225555"/><circle cx="311.8" cy="284.5" r="2" fill="#225555"/><circle cx="322.2" cy="284.5" r="2" fill="#225555"/><circle cx="332.5" cy="285.4" r="2" fill="#225555"/><circle cx="342.8" cy="285.5" r="2" fill="#225555"/><circle cx="353.1" cy="285.3" r="2" fill="#225555"/><circle cx="363.5" cy="285.6" r="2" fill="#225555"/><circle cx="373.8" cy="284.8" r="2" fill="#225555"/><circle cx="384.1" cy="284.8" r="2" fill="#225555"/><circle cx="394.4" cy="284.9" r="2" fill="#225555"/><circle cx="404.8" cy="284.9" r="2" fill="#225555"/><circle cx="415.1" cy="284.7" r="2" fill="#225555"/><circle cx="425.4" cy="284.8" r="2" fill="#225555"/><circle cx="435.8" cy="284.8" r="2" fill="#225555"/><circle cx="446.1" cy="285.1" r="2" fill="#225555"/><circle cx="456.4" cy="285.0" r="2" fill="#225555"/><circle cx="466.7" cy="284.2" r="2" fill="#225555"/><circle cx="477.1" cy="285.3" r="2" fill="#225555"/><circle cx="487.4" cy="284.8" r="2" fill="#225555"/><circle cx="497.7" cy="285.3" r="2" fill="#225555"/><circle cx="508.0" cy="284.8" r="2" fill="#225555"/><circle cx="518.4" cy="284.4" r="2" fill="#225555"/><circle cx="528.7" cy="284.8" r="2" fill="#225555"/><circle cx="539.0" cy="284.6" r="2" fill="#225555"/><circle cx="549.3" cy="284.4" r="2" fill="#225555"/><circle cx="559.7" cy="284.8" r="2" fill="#225555"/><circle cx="570.0" cy="284.4" r="2" fill="#225555"/><rect x="580" y="154" width="10" height="10" fill="#225555"/><text x="594" y="163" font-size="10" fill="#444">hub-200</text><path d="M64.0,284.7 L74.3,283.0 L84.7,283.2 L95.0,283.6 L105.3,283.4 L115.6,284.8 L126.0,284.9 L136.3,284.4 L146.6,285.0 L156.9,284.6 L167.3,284.6 L177.6,284.5 L187.9,285.6 L198.2,284.9 L208.6,285.2 L218.9,285.1 L229.2,284.6 L239.6,284.9 L249.9,284.7 L260.2,285.0 L270.5,284.5 L280.9,284.4 L291.2,284.2 L301.5,284.4 L311.8,284.3 L322.2,284.5 L332.5,284.8 L342.8,285.2 L353.1,285.3 L363.5,285.2 L373.8,284.8 L384.1,285.3 L394.4,284.8 L404.8,285.1 L415.1,284.7 L425.4,284.7 L435.8,284.9 L446.1,285.5 L456.4,284.5 L466.7,284.5 L477.1,285.7 L487.4,284.7 L497.7,285.3 L508.0,284.8 L518.4,284.5 L528.7,284.7 L539.0,284.7 L549.3,284.3 L559.7,284.7 L570.0,284.3" fill="none" stroke="#552222" stroke-width="1.6"/><circle cx="64.0" cy="284.7" r="2" fill="#552222"/><circle cx="74.3" cy="283.0" r="2" fill="#552222"/><circle cx="84.7" cy="283.2" r="2" fill="#552222"/><circle cx="95.0" cy="283.6" r="2" fill="#552222"/><circle cx="105.3" cy="283.4" r="2" fill="#552222"/><circle cx="115.6" cy="284.8" r="2" fill="#552222"/><circle cx="126.0" cy="284.9" r="2" fill="#552222"/><circle cx="136.3" cy="284.4" r="2" fill="#552222"/><circle cx="146.6" cy="285.0" r="2" fill="#552222"/><circle cx="156.9" cy="284.6" r="2" fill="#552222"/><circle cx="167.3" cy="284.6" r="2" fill="#552222"/><circle cx="177.6" cy="284.5" r="2" fill="#552222"/><circle cx="187.9" cy="285.6" r="2" fill="#552222"/><circle cx="198.2" cy="284.9" r="2" fill="#552222"/><circle cx="208.6" cy="285.2" r="2" fill="#552222"/><circle cx="218.9" cy="285.1" r="2" fill="#552222"/><circle cx="229.2" cy="284.6" r="2" fill="#552222"/><circle cx="239.6" cy="284.9" r="2" fill="#552222"/><circle cx="249.9" cy="284.7" r="2" fill="#552222"/><circle cx="260.2" cy="285.0" r="2" fill="#552222"/><circle cx="270.5" cy="284.5" r="2" fill="#552222"/><circle cx="280.9" cy="284.4" r="2" fill="#552222"/><circle cx="291.2" cy="284.2" r="2" fill="#552222"/><circle cx="301.5" cy="284.4" r="2" fill="#552222"/><circle cx="311.8" cy="284.3" r="2" fill="#552222"/><circle cx="322.2" cy="284.5" r="2" fill="#552222"/><circle cx="332.5" cy="284.8" r="2" fill="#552222"/><circle cx="342.8" cy="285.2" r="2" fill="#552222"/><circle cx="353.1" cy="285.3" r="2" fill="#552222"/><circle cx="363.5" cy="285.2" r="2" fill="#552222"/><circle cx="373.8" cy="284.8" r="2" fill="#552222"/><circle cx="384.1" cy="285.3" r="2" fill="#552222"/><circle cx="394.4" cy="284.8" r="2" fill="#552222"/><circle cx="404.8" cy="285.1" r="2" fill="#552222"/><circle cx="415.1" cy="284.7" r="2" fill="#552222"/><circle cx="425.4" cy="284.7" r="2" fill="#552222"/><circle cx="435.8" cy="284.9" r="2" fill="#552222"/><circle cx="446.1" cy="285.5" r="2" fill="#552222"/><circle cx="456.4" cy="284.5" r="2" fill="#552222"/><circle cx="466.7" cy="284.5" r="2" fill="#552222"/><circle cx="477.1" cy="285.7" r="2" fill="#552222"/><circle cx="487.4" cy="284.7" r="2" fill="#552222"/><circle cx="497.7" cy="285.3" r="2" fill="#552222"/><circle cx="508.0" cy="284.8" r="2" fill="#552222"/><circle cx="518.4" cy="284.5" r="2" fill="#552222"/><circle cx="528.7" cy="284.7" r="2" fill="#552222"/><circle cx="539.0" cy="284.7" r="2" fill="#552222"/><circle cx="549.3" cy="284.3" r="2" fill="#552222"/><circle cx="559.7" cy="284.7" r="2" fill="#552222"/><circle cx="570.0" cy="284.3" r="2" fill="#552222"/><rect x="580" y="169" width="10" height="10" fill="#552222"/><text x="594" y="178" font-size="10" fill="#444">hooked-200</text></svg>