<svg width="720" height="372" xmlns="http://www.w3.org/2000/svg"><rect width="720" height="372" fill="#ffffff"/><text x="64" y="20" font-size="15" font-weight="bold" fill="#333">list_exit_actions() — ops/sec (linear scale, last 30) by PR / release, c8g.medium</text><line x1="81.4" y1="34" x2="81.4" y2="324" stroke="#e8e8e8"/><line x1="98.9" y1="34" x2="98.9" y2="324" stroke="#e8e8e8"/><line x1="116.3" y1="34" x2="116.3" y2="324" stroke="#e8e8e8"/><line x1="133.8" y1="34" x2="133.8" y2="324" stroke="#e8e8e8"/><line x1="168.7" y1="34" x2="168.7" y2="324" stroke="#e8e8e8"/><line x1="186.1" y1="34" x2="186.1" y2="324" stroke="#e8e8e8"/><line x1="203.6" y1="34" x2="203.6" y2="324" stroke="#e8e8e8"/><line x1="221.0" y1="34" x2="221.0" y2="324" stroke="#e8e8e8"/><line x1="255.9" y1="34" x2="255.9" y2="324" stroke="#e8e8e8"/><line x1="273.4" y1="34" x2="273.4" y2="324" stroke="#e8e8e8"/><line x1="290.8" y1="34" x2="290.8" y2="324" stroke="#e8e8e8"/><line x1="308.3" y1="34" x2="308.3" y2="324" stroke="#e8e8e8"/><line x1="343.2" y1="34" x2="343.2" y2="324" stroke="#e8e8e8"/><line x1="360.6" y1="34" x2="360.6" y2="324" stroke="#e8e8e8"/><line x1="378.1" y1="34" x2="378.1" y2="324" stroke="#e8e8e8"/><line x1="395.5" y1="34" x2="395.5" y2="324" stroke="#e8e8e8"/><line x1="430.4" y1="34" x2="430.4" y2="324" stroke="#e8e8e8"/><line x1="447.9" y1="34" x2="447.9" y2="324" stroke="#e8e8e8"/><line x1="465.3" y1="34" x2="465.3" y2="324" stroke="#e8e8e8"/><line x1="482.8" y1="34" x2="482.8" y2="324" stroke="#e8e8e8"/><line x1="517.7" y1="34" x2="517.7" y2="324" stroke="#e8e8e8"/><line x1="535.1" y1="34" x2="535.1" y2="324" stroke="#e8e8e8"/><line x1="552.6" y1="34" x2="552.6" y2="324" stroke="#e8e8e8"/><line x1="570.0" y1="34" x2="570.0" y2="324" stroke="#e8e8e8"/><line x1="64.0" y1="34" x2="64.0" y2="324" stroke="#d0d0d0"/><line x1="151.2" y1="34" x2="151.2" y2="324" stroke="#d0d0d0"/><line x1="238.5" y1="34" x2="238.5" y2="324" stroke="#d0d0d0"/><line x1="325.7" y1="34" x2="325.7" y2="324" stroke="#d0d0d0"/><line x1="413.0" y1="34" x2="413.0" y2="324" stroke="#d0d0d0"/><line x1="500.2" y1="34" x2="500.2" y2="324" stroke="#d0d0d0"/><line x1="64" y1="324.0" x2="570" y2="324.0" stroke="#b0b0b0"/><text x="58" y="328.0" font-size="10" text-anchor="end" fill="#888">-10.8k</text><line x1="64" y1="266.0" x2="570" y2="266.0" stroke="#b0b0b0"/><text x="58" y="270.0" font-size="10" text-anchor="end" fill="#888">60.3k</text><line x1="64" y1="208.0" x2="570" y2="208.0" stroke="#b0b0b0"/><text x="58" y="212.0" font-size="10" text-anchor="end" fill="#888">131.4k</text><line x1="64" y1="150.0" x2="570" y2="150.0" stroke="#b0b0b0"/><text x="58" y="154.0" font-size="10" text-anchor="end" fill="#888">202.6k</text><line x1="64" y1="92.0" x2="570" y2="92.0" stroke="#b0b0b0"/><text x="58" y="96.0" font-size="10" text-anchor="end" fill="#888">273.7k</text><line x1="64" y1="34.0" x2="570" y2="34.0" stroke="#b0b0b0"/><text x="58" y="38.0" font-size="10" text-anchor="end" fill="#888">344.8k</text><text x="64.0" y="327.2" font-size="4" text-anchor="end" fill="#aa4400" transform="rotate(-80 64.0 327.2)">v5.155.0</text><text x="81.4" y="327.2" font-size="4" text-anchor="end" fill="#d6a382" transform="rotate(-80 81.4 327.2)">v5.155.1</text><text x="98.9" y="327.2" font-size="4" text-anchor="end" fill="#aa4400" transform="rotate(-80 98.9 327.2)">v5.156.0</text><text x="116.3" y="327.2" font-size="4" text-anchor="end" fill="#d6a382" transform="rotate(-80 116.3 327.2)">v5.156.1</text><text x="133.8" y="327.2" font-size="4" text-anchor="end" fill="#aa4400" transform="rotate(-80 133.8 327.2)">v5.157.0</text><text x="151.2" y="327.2" font-size="4" text-anchor="end" fill="#d6a382" transform="rotate(-80 151.2 327.2)">v5.157.1</text><text x="168.7" y="327.2" font-size="4" text-anchor="end" fill="#d6a382" transform="rotate(-80 168.7 327.2)">v5.157.2</text><text x="186.1" y="327.2" font-size="4" text-anchor="end" fill="#d6a382" transform="rotate(-80 186.1 327.2)">v5.157.3</text><text x="203.6" y="327.2" font-size="4" text-anchor="end" fill="#d6a382" transform="rotate(-80 203.6 327.2)">v5.157.4</text><text x="221.0" y="327.2" font-size="4" text-anchor="end" fill="#d6a382" transform="rotate(-80 221.0 327.2)">v5.157.5</text><text x="238.5" y="327.2" font-size="4" text-anchor="end" fill="#d6a382" transform="rotate(-80 238.5 327.2)">v5.157.6</text><text x="255.9" y="327.2" font-size="4" text-anchor="end" fill="#d6a382" transform="rotate(-80 255.9 327.2)">v5.157.7</text><text x="273.4" y="327.2" font-size="4" text-anchor="end" fill="#d6a382" transform="rotate(-80 273.4 327.2)">v5.157.8</text><text x="290.8" y="327.2" font-size="4" text-anchor="end" fill="#d6a382" transform="rotate(-80 290.8 327.2)">v5.157.9</text><text x="308.3" y="327.2" font-size="4" text-anchor="end" fill="#d6a382" transform="rotate(-80 308.3 327.2)">v5.157.10</text><text x="325.7" y="327.2" font-size="4" text-anchor="end" fill="#d6a382" transform="rotate(-80 325.7 327.2)">v5.157.11</text><text x="343.2" y="327.2" font-size="4" text-anchor="end" fill="#d6a382" transform="rotate(-80 343.2 327.2)">v5.157.12</text><text x="360.6" y="327.2" font-size="4" text-anchor="end" fill="#d6a382" transform="rotate(-80 360.6 327.2)">v5.157.13</text><text x="378.1" y="327.2" font-size="4" text-anchor="end" fill="#d6a382" transform="rotate(-80 378.1 327.2)">v5.157.14</text><text x="395.5" y="327.2" font-size="4" text-anchor="end" fill="#d6a382" transform="rotate(-80 395.5 327.2)">v5.157.15</text><text x="413.0" y="327.2" font-size="4" text-anchor="end" fill="#d6a382" transform="rotate(-80 413.0 327.2)">v5.157.16</text><text x="430.4" y="327.2" font-size="4" text-anchor="end" fill="#d6a382" transform="rotate(-80 430.4 327.2)">v5.157.17</text><text x="447.9" y="327.2" font-size="4" text-anchor="end" fill="#d6a382" transform="rotate(-80 447.9 327.2)">v5.157.18</text><text x="465.3" y="327.2" font-size="4" text-anchor="end" fill="#aa4400" transform="rotate(-80 465.3 327.2)">v5.158.0</text><text x="482.8" y="327.2" font-size="4" text-anchor="end" fill="#d6a382" transform="rotate(-80 482.8 327.2)">v5.158.1</text><text x="500.2" y="327.2" font-size="4" text-anchor="end" fill="#d6a382" transform="rotate(-80 500.2 327.2)">v5.158.2</text><text x="517.7" y="327.2" font-size="4" text-anchor="end" fill="#aa4400" transform="rotate(-80 517.7 327.2)">v5.159.0</text><text x="535.1" y="327.2" font-size="4" text-anchor="end" fill="#d6a382" transform="rotate(-80 535.1 327.2)">v5.159.1</text><text x="552.6" y="327.2" font-size="4" text-anchor="end" fill="#d6a382" transform="rotate(-80 552.6 327.2)">v5.159.2</text><text x="570.0" y="327.2" font-size="4" text-anchor="end" fill="#aa4400" transform="rotate(-80 570.0 327.2)">v5.160.0</text><path d="M64.0,71.2 L81.4,69.0 L98.9,76.9 L116.3,66.8 L133.8,67.3 L151.2,64.8 L168.7,68.4 L186.1,63.1 L203.6,81.5 L221.0,73.7 L238.5,76.3 L255.9,72.0 L273.4,63.0 L290.8,67.1 L308.3,80.5 L325.7,64.9 L343.2,60.6 L360.6,75.0 L378.1,83.8 L395.5,67.1 L413.0,68.9 L430.4,58.9 L447.9,69.9 L465.3,69.3 L482.8,76.7 L500.2,76.1 L517.7,75.8 L535.1,65.1 L552.6,65.2 L570.0,58.2" fill="none" stroke="#4477AA" stroke-width="1.6"/><circle cx="64.0" cy="71.2" r="2" fill="#4477AA"/><circle cx="81.4" cy="69.0" r="2" fill="#4477AA"/><circle cx="98.9" cy="76.9" r="2" fill="#4477AA"/><circle cx="116.3" cy="66.8" r="2" fill="#4477AA"/><circle cx="133.8" cy="67.3" r="2" fill="#4477AA"/><circle cx="151.2" cy="64.8" r="2" fill="#4477AA"/><circle cx="168.7" cy="68.4" r="2" fill="#4477AA"/><circle cx="186.1" cy="63.1" r="2" fill="#4477AA"/><circle cx="203.6" cy="81.5" r="2" fill="#4477AA"/><circle cx="221.0" cy="73.7" r="2" fill="#4477AA"/><circle cx="238.5" cy="76.3" r="2" fill="#4477AA"/><circle cx="255.9" cy="72.0" r="2" fill="#4477AA"/><circle cx="273.4" cy="63.0" r="2" fill="#4477AA"/><circle cx="290.8" cy="67.1" r="2" fill="#4477AA"/><circle cx="308.3" cy="80.5" r="2" fill="#4477AA"/><circle cx="325.7" cy="64.9" r="2" fill="#4477AA"/><circle cx="343.2" cy="60.6" r="2" fill="#4477AA"/><circle cx="360.6" cy="75.0" r="2" fill="#4477AA"/><circle cx="378.1" cy="83.8" r="2" fill="#4477AA"/><circle cx="395.5" cy="67.1" r="2" fill="#4477AA"/><circle cx="413.0" cy="68.9" r="2" fill="#4477AA"/><circle cx="430.4" cy="58.9" r="2" fill="#4477AA"/><circle cx="447.9" cy="69.9" r="2" fill="#4477AA"/><circle cx="465.3" cy="69.3" r="2" fill="#4477AA"/><circle cx="482.8" cy="76.7" r="2" fill="#4477AA"/><circle cx="500.2" cy="76.1" r="2" fill="#4477AA"/><circle cx="517.7" cy="75.8" r="2" fill="#4477AA"/><circle cx="535.1" cy="65.1" r="2" fill="#4477AA"/><circle cx="552.6" cy="65.2" r="2" fill="#4477AA"/><circle cx="570.0" cy="58.2" r="2" fill="#4477AA"/><rect x="580" y="34" width="10" height="10" fill="#4477AA"/><text x="594" y="43" font-size="10" fill="#444">chain-10</text><path d="M64.0,79.6 L81.4,77.1 L98.9,79.0 L116.3,82.8 L133.8,78.5 L151.2,84.4 L168.7,72.1 L186.1,72.9 L203.6,84.7 L221.0,78.9 L238.5,81.8 L255.9,84.2 L273.4,83.7 L290.8,76.3 L308.3,80.6 L325.7,74.8 L343.2,76.3 L360.6,81.0 L378.1,78.4 L395.5,72.6 L413.0,75.0 L430.4,79.8 L447.9,74.9 L465.3,74.4 L482.8,76.5 L500.2,83.8 L517.7,75.0 L535.1,78.3 L552.6,73.7 L570.0,84.1" fill="none" stroke="#EE6677" stroke-width="1.6"/><circle cx="64.0" cy="79.6" r="2" fill="#EE6677"/><circle cx="81.4" cy="77.1" r="2" fill="#EE6677"/><circle cx="98.9" cy="79.0" r="2" fill="#EE6677"/><circle cx="116.3" cy="82.8" r="2" fill="#EE6677"/><circle cx="133.8" cy="78.5" r="2" fill="#EE6677"/><circle cx="151.2" cy="84.4" r="2" fill="#EE6677"/><circle cx="168.7" cy="72.1" r="2" fill="#EE6677"/><circle cx="186.1" cy="72.9" r="2" fill="#EE6677"/><circle cx="203.6" cy="84.7" r="2" fill="#EE6677"/><circle cx="221.0" cy="78.9" r="2" fill="#EE6677"/><circle cx="238.5" cy="81.8" r="2" fill="#EE6677"/><circle cx="255.9" cy="84.2" r="2" fill="#EE6677"/><circle cx="273.4" cy="83.7" r="2" fill="#EE6677"/><circle cx="290.8" cy="76.3" r="2" fill="#EE6677"/><circle cx="308.3" cy="80.6" r="2" fill="#EE6677"/><circle cx="325.7" cy="74.8" r="2" fill="#EE6677"/><circle cx="343.2" cy="76.3" r="2" fill="#EE6677"/><circle cx="360.6" cy="81.0" r="2" fill="#EE6677"/><circle cx="378.1" cy="78.4" r="2" fill="#EE6677"/><circle cx="395.5" cy="72.6" r="2" fill="#EE6677"/><circle cx="413.0" cy="75.0" r="2" fill="#EE6677"/><circle cx="430.4" cy="79.8" r="2" fill="#EE6677"/><circle cx="447.9" cy="74.9" r="2" fill="#EE6677"/><circle cx="465.3" cy="74.4" r="2" fill="#EE6677"/><circle cx="482.8" cy="76.5" r="2" fill="#EE6677"/><circle cx="500.2" cy="83.8" r="2" fill="#EE6677"/><circle cx="517.7" cy="75.0" r="2" fill="#EE6677"/><circle cx="535.1" cy="78.3" r="2" fill="#EE6677"/><circle cx="552.6" cy="73.7" r="2" fill="#EE6677"/><circle cx="570.0" cy="84.1" r="2" fill="#EE6677"/><rect x="580" y="49" width="10" height="10" fill="#EE6677"/><text x="594" y="58" font-size="10" fill="#444">chain-50</text><path d="M64.0,81.4 L81.4,75.5 L98.9,77.2 L116.3,89.3 L133.8,76.9 L151.2,79.1 L168.7,84.4 L186.1,79.7 L203.6,74.1 L221.0,83.8 L238.5,83.4 L255.9,76.0 L273.4,82.0 L290.8,73.2 L308.3,73.1 L325.7,77.7 L343.2,80.0 L360.6,81.5 L378.1,73.9 L395.5,78.8 L413.0,73.8 L430.4,76.9 L447.9,80.2 L465.3,79.9 L482.8,75.8 L500.2,79.7 L517.7,77.8 L535.1,75.7 L552.6,72.7 L570.0,75.6" fill="none" stroke="#228833" stroke-width="1.6"/><circle cx="64.0" cy="81.4" r="2" fill="#228833"/><circle cx="81.4" cy="75.5" r="2" fill="#228833"/><circle cx="98.9" cy="77.2" r="2" fill="#228833"/><circle cx="116.3" cy="89.3" r="2" fill="#228833"/><circle cx="133.8" cy="76.9" r="2" fill="#228833"/><circle cx="151.2" cy="79.1" r="2" fill="#228833"/><circle cx="168.7" cy="84.4" r="2" fill="#228833"/><circle cx="186.1" cy="79.7" r="2" fill="#228833"/><circle cx="203.6" cy="74.1" r="2" fill="#228833"/><circle cx="221.0" cy="83.8" r="2" fill="#228833"/><circle cx="238.5" cy="83.4" r="2" fill="#228833"/><circle cx="255.9" cy="76.0" r="2" fill="#228833"/><circle cx="273.4" cy="82.0" r="2" fill="#228833"/><circle cx="290.8" cy="73.2" r="2" fill="#228833"/><circle cx="308.3" cy="73.1" r="2" fill="#228833"/><circle cx="325.7" cy="77.7" r="2" fill="#228833"/><circle cx="343.2" cy="80.0" r="2" fill="#228833"/><circle cx="360.6" cy="81.5" r="2" fill="#228833"/><circle cx="378.1" cy="73.9" r="2" fill="#228833"/><circle cx="395.5" cy="78.8" r="2" fill="#228833"/><circle cx="413.0" cy="73.8" r="2" fill="#228833"/><circle cx="430.4" cy="76.9" r="2" fill="#228833"/><circle cx="447.9" cy="80.2" r="2" fill="#228833"/><circle cx="465.3" cy="79.9" r="2" fill="#228833"/><circle cx="482.8" cy="75.8" r="2" fill="#228833"/><circle cx="500.2" cy="79.7" r="2" fill="#228833"/><circle cx="517.7" cy="77.8" r="2" fill="#228833"/><circle cx="535.1" cy="75.7" r="2" fill="#228833"/><circle cx="552.6" cy="72.7" r="2" fill="#228833"/><circle cx="570.0" cy="75.6" r="2" fill="#228833"/><rect x="580" y="64" width="10" height="10" fill="#228833"/><text x="594" y="73" font-size="10" fill="#444">chain-200</text><path d="M64.0,106.4 L81.4,91.9 L98.9,103.0 L116.3,99.9 L133.8,106.3 L151.2,98.0 L168.7,106.6 L186.1,102.4 L203.6,98.1 L221.0,100.8 L238.5,102.3 L255.9,98.7 L273.4,101.1 L290.8,96.7 L308.3,102.2 L325.7,105.6 L343.2,101.3 L360.6,92.6 L378.1,96.3 L395.5,96.0 L413.0,91.3 L430.4,90.6 L447.9,91.1 L465.3,95.8 L482.8,102.6 L500.2,95.3 L517.7,93.3 L535.1,99.8 L552.6,101.0 L570.0,105.3" fill="none" stroke="#CCBB44" stroke-width="1.6"/><circle cx="64.0" cy="106.4" r="2" fill="#CCBB44"/><circle cx="81.4" cy="91.9" r="2" fill="#CCBB44"/><circle cx="98.9" cy="103.0" r="2" fill="#CCBB44"/><circle cx="116.3" cy="99.9" r="2" fill="#CCBB44"/><circle cx="133.8" cy="106.3" r="2" fill="#CCBB44"/><circle cx="151.2" cy="98.0" r="2" fill="#CCBB44"/><circle cx="168.7" cy="106.6" r="2" fill="#CCBB44"/><circle cx="186.1" cy="102.4" r="2" fill="#CCBB44"/><circle cx="203.6" cy="98.1" r="2" fill="#CCBB44"/><circle cx="221.0" cy="100.8" r="2" fill="#CCBB44"/><circle cx="238.5" cy="102.3" r="2" fill="#CCBB44"/><circle cx="255.9" cy="98.7" r="2" fill="#CCBB44"/><circle cx="273.4" cy="101.1" r="2" fill="#CCBB44"/><circle cx="290.8" cy="96.7" r="2" fill="#CCBB44"/><circle cx="308.3" cy="102.2" r="2" fill="#CCBB44"/><circle cx="325.7" cy="105.6" r="2" fill="#CCBB44"/><circle cx="343.2" cy="101.3" r="2" fill="#CCBB44"/><circle cx="360.6" cy="92.6" r="2" fill="#CCBB44"/><circle cx="378.1" cy="96.3" r="2" fill="#CCBB44"/><circle cx="395.5" cy="96.0" r="2" fill="#CCBB44"/><circle cx="413.0" cy="91.3" r="2" fill="#CCBB44"/><circle cx="430.4" cy="90.6" r="2" fill="#CCBB44"/><circle cx="447.9" cy="91.1" r="2" fill="#CCBB44"/><circle cx="465.3" cy="95.8" r="2" fill="#CCBB44"/><circle cx="482.8" cy="102.6" r="2" fill="#CCBB44"/><circle cx="500.2" cy="95.3" r="2" fill="#CCBB44"/><circle cx="517.7" cy="93.3" r="2" fill="#CCBB44"/><circle cx="535.1" cy="99.8" r="2" fill="#CCBB44"/><circle cx="552.6" cy="101.0" r="2" fill="#CCBB44"/><circle cx="570.0" cy="105.3" r="2" fill="#CCBB44"/><rect x="580" y="79" width="10" height="10" fill="#CCBB44"/><text x="594" y="88" font-size="10" fill="#444">chain-1000</text><path d="M64.0,159.3 L81.4,150.6 L98.9,153.2 L116.3,148.0 L133.8,155.5 L151.2,154.3 L168.7,150.7 L186.1,153.9 L203.6,156.4 L221.0,157.2 L238.5,150.0 L255.9,155.5 L273.4,155.9 L290.8,153.9 L308.3,157.7 L325.7,150.9 L343.2,154.5 L360.6,153.9 L378.1,155.6 L395.5,156.0 L413.0,154.0 L430.4,154.2 L447.9,153.5 L465.3,150.6 L482.8,152.3 L500.2,157.7 L517.7,157.3 L535.1,149.0 L552.6,145.8 L570.0,153.8" fill="none" stroke="#66CCEE" stroke-width="1.6"/><circle cx="64.0" cy="159.3" r="2" fill="#66CCEE"/><circle cx="81.4" cy="150.6" r="2" fill="#66CCEE"/><circle cx="98.9" cy="153.2" r="2" fill="#66CCEE"/><circle cx="116.3" cy="148.0" r="2" fill="#66CCEE"/><circle cx="133.8" cy="155.5" r="2" fill="#66CCEE"/><circle cx="151.2" cy="154.3" r="2" fill="#66CCEE"/><circle cx="168.7" cy="150.7" r="2" fill="#66CCEE"/><circle cx="186.1" cy="153.9" r="2" fill="#66CCEE"/><circle cx="203.6" cy="156.4" r="2" fill="#66CCEE"/><circle cx="221.0" cy="157.2" r="2" fill="#66CCEE"/><circle cx="238.5" cy="150.0" r="2" fill="#66CCEE"/><circle cx="255.9" cy="155.5" r="2" fill="#66CCEE"/><circle cx="273.4" cy="155.9" r="2" fill="#66CCEE"/><circle cx="290.8" cy="153.9" r="2" fill="#66CCEE"/><circle cx="308.3" cy="157.7" r="2" fill="#66CCEE"/><circle cx="325.7" cy="150.9" r="2" fill="#66CCEE"/><circle cx="343.2" cy="154.5" r="2" fill="#66CCEE"/><circle cx="360.6" cy="153.9" r="2" fill="#66CCEE"/><circle cx="378.1" cy="155.6" r="2" fill="#66CCEE"/><circle cx="395.5" cy="156.0" r="2" fill="#66CCEE"/><circle cx="413.0" cy="154.0" r="2" fill="#66CCEE"/><circle cx="430.4" cy="154.2" r="2" fill="#66CCEE"/><circle cx="447.9" cy="153.5" r="2" fill="#66CCEE"/><circle cx="465.3" cy="150.6" r="2" fill="#66CCEE"/><circle cx="482.8" cy="152.3" r="2" fill="#66CCEE"/><circle cx="500.2" cy="157.7" r="2" fill="#66CCEE"/><circle cx="517.7" cy="157.3" r="2" fill="#66CCEE"/><circle cx="535.1" cy="149.0" r="2" fill="#66CCEE"/><circle cx="552.6" cy="145.8" r="2" fill="#66CCEE"/><circle cx="570.0" cy="153.8" r="2" fill="#66CCEE"/><rect x="580" y="94" width="10" height="10" fill="#66CCEE"/><text x="594" y="103" font-size="10" fill="#444">dense-10</text><path d="M64.0,259.6 L81.4,259.4 L98.9,259.4 L116.3,260.1 L133.8,260.3 L151.2,259.5 L168.7,259.5 L186.1,259.1 L203.6,260.2 L221.0,259.6 L238.5,259.8 L255.9,259.5 L273.4,259.8 L290.8,260.2 L308.3,259.9 L325.7,261.0 L343.2,259.8 L360.6,260.9 L378.1,259.9 L395.5,257.9 L413.0,259.1 L430.4,259.1 L447.9,260.0 L465.3,259.4 L482.8,258.6 L500.2,259.1 L517.7,258.7 L535.1,259.2 L552.6,259.6 L570.0,259.0" fill="none" stroke="#AA3377" stroke-width="1.6"/><circle cx="64.0" cy="259.6" r="2" fill="#AA3377"/><circle cx="81.4" cy="259.4" r="2" fill="#AA3377"/><circle cx="98.9" cy="259.4" r="2" fill="#AA3377"/><circle cx="116.3" cy="260.1" r="2" fill="#AA3377"/><circle cx="133.8" cy="260.3" r="2" fill="#AA3377"/><circle cx="151.2" cy="259.5" r="2" fill="#AA3377"/><circle cx="168.7" cy="259.5" r="2" fill="#AA3377"/><circle cx="186.1" cy="259.1" r="2" fill="#AA3377"/><circle cx="203.6" cy="260.2" r="2" fill="#AA3377"/><circle cx="221.0" cy="259.6" r="2" fill="#AA3377"/><circle cx="238.5" cy="259.8" r="2" fill="#AA3377"/><circle cx="255.9" cy="259.5" r="2" fill="#AA3377"/><circle cx="273.4" cy="259.8" r="2" fill="#AA3377"/><circle cx="290.8" cy="260.2" r="2" fill="#AA3377"/><circle cx="308.3" cy="259.9" r="2" fill="#AA3377"/><circle cx="325.7" cy="261.0" r="2" fill="#AA3377"/><circle cx="343.2" cy="259.8" r="2" fill="#AA3377"/><circle cx="360.6" cy="260.9" r="2" fill="#AA3377"/><circle cx="378.1" cy="259.9" r="2" fill="#AA3377"/><circle cx="395.5" cy="257.9" r="2" fill="#AA3377"/><circle cx="413.0" cy="259.1" r="2" fill="#AA3377"/><circle cx="430.4" cy="259.1" r="2" fill="#AA3377"/><circle cx="447.9" cy="260.0" r="2" fill="#AA3377"/><circle cx="465.3" cy="259.4" r="2" fill="#AA3377"/><circle cx="482.8" cy="258.6" r="2" fill="#AA3377"/><circle cx="500.2" cy="259.1" r="2" fill="#AA3377"/><circle cx="517.7" cy="258.7" r="2" fill="#AA3377"/><circle cx="535.1" cy="259.2" r="2" fill="#AA3377"/><circle cx="552.6" cy="259.6" r="2" fill="#AA3377"/><circle cx="570.0" cy="259.0" r="2" fill="#AA3377"/><rect x="580" y="109" width="10" height="10" fill="#AA3377"/><text x="594" y="118" font-size="10" fill="#444">dense-50</text><path d="M64.0,299.6 L81.4,299.6 L98.9,298.8 L116.3,299.5 L133.8,299.6 L151.2,299.4 L168.7,299.2 L186.1,299.6 L203.6,299.8 L221.0,299.8 L238.5,299.6 L255.9,299.7 L273.4,299.8 L290.8,299.1 L308.3,299.5 L325.7,299.6 L343.2,299.5 L360.6,299.7 L378.1,299.3 L395.5,299.6 L413.0,299.5 L430.4,299.8 L447.9,299.6 L465.3,299.5 L482.8,299.6 L500.2,299.5 L517.7,299.4 L535.1,299.5 L552.6,299.5 L570.0,299.5" fill="none" stroke="#BBBBBB" stroke-width="1.6"/><circle cx="64.0" cy="299.6" r="2" fill="#BBBBBB"/><circle cx="81.4" cy="299.6" r="2" fill="#BBBBBB"/><circle cx="98.9" cy="298.8" r="2" fill="#BBBBBB"/><circle cx="116.3" cy="299.5" r="2" fill="#BBBBBB"/><circle cx="133.8" cy="299.6" r="2" fill="#BBBBBB"/><circle cx="151.2" cy="299.4" r="2" fill="#BBBBBB"/><circle cx="168.7" cy="299.2" r="2" fill="#BBBBBB"/><circle cx="186.1" cy="299.6" r="2" fill="#BBBBBB"/><circle cx="203.6" cy="299.8" r="2" fill="#BBBBBB"/><circle cx="221.0" cy="299.8" r="2" fill="#BBBBBB"/><circle cx="238.5" cy="299.6" r="2" fill="#BBBBBB"/><circle cx="255.9" cy="299.7" r="2" fill="#BBBBBB"/><circle cx="273.4" cy="299.8" r="2" fill="#BBBBBB"/><circle cx="290.8" cy="299.1" r="2" fill="#BBBBBB"/><circle cx="308.3" cy="299.5" r="2" fill="#BBBBBB"/><circle cx="325.7" cy="299.6" r="2" fill="#BBBBBB"/><circle cx="343.2" cy="299.5" r="2" fill="#BBBBBB"/><circle cx="360.6" cy="299.7" r="2" fill="#BBBBBB"/><circle cx="378.1" cy="299.3" r="2" fill="#BBBBBB"/><circle cx="395.5" cy="299.6" r="2" fill="#BBBBBB"/><circle cx="413.0" cy="299.5" r="2" fill="#BBBBBB"/><circle cx="430.4" cy="299.8" r="2" fill="#BBBBBB"/><circle cx="447.9" cy="299.6" r="2" fill="#BBBBBB"/><circle cx="465.3" cy="299.5" r="2" fill="#BBBBBB"/><circle cx="482.8" cy="299.6" r="2" fill="#BBBBBB"/><circle cx="500.2" cy="299.5" r="2" fill="#BBBBBB"/><circle cx="517.7" cy="299.4" r="2" fill="#BBBBBB"/><circle cx="535.1" cy="299.5" r="2" fill="#BBBBBB"/><circle cx="552.6" cy="299.5" r="2" fill="#BBBBBB"/><circle cx="570.0" cy="299.5" r="2" fill="#BBBBBB"/><rect x="580" y="124" width="10" height="10" fill="#BBBBBB"/><text x="594" y="133" font-size="10" fill="#444">dense-200</text><path d="M64.0,223.9 L81.4,223.2 L98.9,224.6 L116.3,227.1 L133.8,225.4 L151.2,228.2 L168.7,226.5 L186.1,225.3 L203.6,225.3 L221.0,225.2 L238.5,223.5 L255.9,225.1 L273.4,229.0 L290.8,228.9 L308.3,223.3 L325.7,228.3 L343.2,222.0 L360.6,225.7 L378.1,225.1 L395.5,223.8 L413.0,228.1 L430.4,226.2 L447.9,228.1 L465.3,223.4 L482.8,225.2 L500.2,225.9 L517.7,224.7 L535.1,224.8 L552.6,225.3 L570.0,224.1" fill="none" stroke="#222255" stroke-width="1.6"/><circle cx="64.0" cy="223.9" r="2" fill="#222255"/><circle cx="81.4" cy="223.2" r="2" fill="#222255"/><circle cx="98.9" cy="224.6" r="2" fill="#222255"/><circle cx="116.3" cy="227.1" r="2" fill="#222255"/><circle cx="133.8" cy="225.4" r="2" fill="#222255"/><circle cx="151.2" cy="228.2" r="2" fill="#222255"/><circle cx="168.7" cy="226.5" r="2" fill="#222255"/><circle cx="186.1" cy="225.3" r="2" fill="#222255"/><circle cx="203.6" cy="225.3" r="2" fill="#222255"/><circle cx="221.0" cy="225.2" r="2" fill="#222255"/><circle cx="238.5" cy="223.5" r="2" fill="#222255"/><circle cx="255.9" cy="225.1" r="2" fill="#222255"/><circle cx="273.4" cy="229.0" r="2" fill="#222255"/><circle cx="290.8" cy="228.9" r="2" fill="#222255"/><circle cx="308.3" cy="223.3" r="2" fill="#222255"/><circle cx="325.7" cy="228.3" r="2" fill="#222255"/><circle cx="343.2" cy="222.0" r="2" fill="#222255"/><circle cx="360.6" cy="225.7" r="2" fill="#222255"/><circle cx="378.1" cy="225.1" r="2" fill="#222255"/><circle cx="395.5" cy="223.8" r="2" fill="#222255"/><circle cx="413.0" cy="228.1" r="2" fill="#222255"/><circle cx="430.4" cy="226.2" r="2" fill="#222255"/><circle cx="447.9" cy="228.1" r="2" fill="#222255"/><circle cx="465.3" cy="223.4" r="2" fill="#222255"/><circle cx="482.8" cy="225.2" r="2" fill="#222255"/><circle cx="500.2" cy="225.9" r="2" fill="#222255"/><circle cx="517.7" cy="224.7" r="2" fill="#222255"/><circle cx="535.1" cy="224.8" r="2" fill="#222255"/><circle cx="552.6" cy="225.3" r="2" fill="#222255"/><circle cx="570.0" cy="224.1" r="2" fill="#222255"/><rect x="580" y="139" width="10" height="10" fill="#222255"/><text x="594" y="148" font-size="10" fill="#444">hub-50</text><path d="M64.0,284.4 L81.4,284.4 L98.9,284.2 L116.3,284.4 L133.8,284.4 L151.2,284.5 L168.7,285.4 L186.1,285.5 L203.6,285.2 L221.0,285.6 L238.5,284.8 L255.9,284.7 L273.4,284.9 L290.8,284.8 L308.3,284.7 L325.7,284.7 L343.2,284.8 L360.6,285.1 L378.1,284.9 L395.5,284.2 L413.0,285.3 L430.4,284.8 L447.9,285.3 L465.3,284.7 L482.8,284.4 L500.2,284.8 L517.7,284.6 L535.1,284.3 L552.6,284.8 L570.0,284.3" fill="none" stroke="#225555" stroke-width="1.6"/><circle cx="64.0" cy="284.4" r="2" fill="#225555"/><circle cx="81.4" cy="284.4" r="2" fill="#225555"/><circle cx="98.9" cy="284.2" r="2" fill="#225555"/><circle cx="116.3" cy="284.4" r="2" fill="#225555"/><circle cx="133.8" cy="284.4" r="2" fill="#225555"/><circle cx="151.2" cy="284.5" r="2" fill="#225555"/><circle cx="168.7" cy="285.4" r="2" fill="#225555"/><circle cx="186.1" cy="285.5" r="2" fill="#225555"/><circle cx="203.6" cy="285.2" r="2" fill="#225555"/><circle cx="221.0" cy="285.6" r="2" fill="#225555"/><circle cx="238.5" cy="284.8" r="2" fill="#225555"/><circle cx="255.9" cy="284.7" r="2" fill="#225555"/><circle cx="273.4" cy="284.9" r="2" fill="#225555"/><circle cx="290.8" cy="284.8" r="2" fill="#225555"/><circle cx="308.3" cy="284.7" r="2" fill="#225555"/><circle cx="325.7" cy="284.7" r="2" fill="#225555"/><circle cx="343.2" cy="284.8" r="2" fill="#225555"/><circle cx="360.6" cy="285.1" r="2" fill="#225555"/><circle cx="378.1" cy="284.9" r="2" fill="#225555"/><circle cx="395.5" cy="284.2" r="2" fill="#225555"/><circle cx="413.0" cy="285.3" r="2" fill="#225555"/><circle cx="430.4" cy="284.8" r="2" fill="#225555"/><circle cx="447.9" cy="285.3" r="2" fill="#225555"/><circle cx="465.3" cy="284.7" r="2" fill="#225555"/><circle cx="482.8" cy="284.4" r="2" fill="#225555"/><circle cx="500.2" cy="284.8" r="2" fill="#225555"/><circle cx="517.7" cy="284.6" r="2" fill="#225555"/><circle cx="535.1" cy="284.3" r="2" fill="#225555"/><circle cx="552.6" cy="284.8" r="2" fill="#225555"/><circle cx="570.0" cy="284.3" r="2" fill="#225555"/><rect x="580" y="154" width="10" height="10" fill="#225555"/><text x="594" y="163" font-size="10" fill="#444">hub-200</text><path d="M64.0,284.5 L81.4,284.4 L98.9,284.1 L116.3,284.4 L133.8,284.3 L151.2,284.5 L168.7,284.8 L186.1,285.2 L203.6,285.3 L221.0,285.2 L238.5,284.8 L255.9,285.2 L273.4,284.8 L290.8,285.1 L308.3,284.7 L325.7,284.7 L343.2,284.9 L360.6,285.4 L378.1,284.4 L395.5,284.5 L413.0,285.6 L430.4,284.7 L447.9,285.3 L465.3,284.8 L482.8,284.4 L500.2,284.7 L517.7,284.7 L535.1,284.3 L552.6,284.7 L570.0,284.2" fill="none" stroke="#552222" stroke-width="1.6"/><circle cx="64.0" cy="284.5" r="2" fill="#552222"/><circle cx="81.4" cy="284.4" r="2" fill="#552222"/><circle cx="98.9" cy="284.1" r="2" fill="#552222"/><circle cx="116.3" cy="284.4" r="2" fill="#552222"/><circle cx="133.8" cy="284.3" r="2" fill="#552222"/><circle cx="151.2" cy="284.5" r="2" fill="#552222"/><circle cx="168.7" cy="284.8" r="2" fill="#552222"/><circle cx="186.1" cy="285.2" r="2" fill="#552222"/><circle cx="203.6" cy="285.3" r="2" fill="#552222"/><circle cx="221.0" cy="285.2" r="2" fill="#552222"/><circle cx="238.5" cy="284.8" r="2" fill="#552222"/><circle cx="255.9" cy="285.2" r="2" fill="#552222"/><circle cx="273.4" cy="284.8" r="2" fill="#552222"/><circle cx="290.8" cy="285.1" r="2" fill="#552222"/><circle cx="308.3" cy="284.7" r="2" fill="#552222"/><circle cx="325.7" cy="284.7" r="2" fill="#552222"/><circle cx="343.2" cy="284.9" r="2" fill="#552222"/><circle cx="360.6" cy="285.4" r="2" fill="#552222"/><circle cx="378.1" cy="284.4" r="2" fill="#552222"/><circle cx="395.5" cy="284.5" r="2" fill="#552222"/><circle cx="413.0" cy="285.6" r="2" fill="#552222"/><circle cx="430.4" cy="284.7" r="2" fill="#552222"/><circle cx="447.9" cy="285.3" r="2" fill="#552222"/><circle cx="465.3" cy="284.8" r="2" fill="#552222"/><circle cx="482.8" cy="284.4" r="2" fill="#552222"/><circle cx="500.2" cy="284.7" r="2" fill="#552222"/><circle cx="517.7" cy="284.7" r="2" fill="#552222"/><circle cx="535.1" cy="284.3" r="2" fill="#552222"/><circle cx="552.6" cy="284.7" r="2" fill="#552222"/><circle cx="570.0" cy="284.2" r="2" fill="#552222"/><rect x="580" y="169" width="10" height="10" fill="#552222"/><text x="594" y="178" font-size="10" fill="#444">hooked-200</text></svg>