<svg width="720" height="372" xmlns="http://www.w3.org/2000/svg"><rect width="720" height="372" fill="#ffffff"/><text x="64" y="20" font-size="15" font-weight="bold" fill="#333">package size — bytes (linear scale, last 30) by PR / release, c8g.medium</text><line x1="81.4" y1="34" x2="81.4" y2="324" stroke="#e8e8e8"/><line x1="98.9" y1="34" x2="98.9" y2="324" stroke="#e8e8e8"/><line x1="116.3" y1="34" x2="116.3" y2="324" stroke="#e8e8e8"/><line x1="133.8" y1="34" x2="133.8" y2="324" stroke="#e8e8e8"/><line x1="168.7" y1="34" x2="168.7" y2="324" stroke="#e8e8e8"/><line x1="186.1" y1="34" x2="186.1" y2="324" stroke="#e8e8e8"/><line x1="203.6" y1="34" x2="203.6" y2="324" stroke="#e8e8e8"/><line x1="221.0" y1="34" x2="221.0" y2="324" stroke="#e8e8e8"/><line x1="255.9" y1="34" x2="255.9" y2="324" stroke="#e8e8e8"/><line x1="273.4" y1="34" x2="273.4" y2="324" stroke="#e8e8e8"/><line x1="290.8" y1="34" x2="290.8" y2="324" stroke="#e8e8e8"/><line x1="308.3" y1="34" x2="308.3" y2="324" stroke="#e8e8e8"/><line x1="343.2" y1="34" x2="343.2" y2="324" stroke="#e8e8e8"/><line x1="360.6" y1="34" x2="360.6" y2="324" stroke="#e8e8e8"/><line x1="378.1" y1="34" x2="378.1" y2="324" stroke="#e8e8e8"/><line x1="395.5" y1="34" x2="395.5" y2="324" stroke="#e8e8e8"/><line x1="430.4" y1="34" x2="430.4" y2="324" stroke="#e8e8e8"/><line x1="447.9" y1="34" x2="447.9" y2="324" stroke="#e8e8e8"/><line x1="465.3" y1="34" x2="465.3" y2="324" stroke="#e8e8e8"/><line x1="482.8" y1="34" x2="482.8" y2="324" stroke="#e8e8e8"/><line x1="517.7" y1="34" x2="517.7" y2="324" stroke="#e8e8e8"/><line x1="535.1" y1="34" x2="535.1" y2="324" stroke="#e8e8e8"/><line x1="552.6" y1="34" x2="552.6" y2="324" stroke="#e8e8e8"/><line x1="570.0" y1="34" x2="570.0" y2="324" stroke="#e8e8e8"/><line x1="64.0" y1="34" x2="64.0" y2="324" stroke="#d0d0d0"/><line x1="151.2" y1="34" x2="151.2" y2="324" stroke="#d0d0d0"/><line x1="238.5" y1="34" x2="238.5" y2="324" stroke="#d0d0d0"/><line x1="325.7" y1="34" x2="325.7" y2="324" stroke="#d0d0d0"/><line x1="413.0" y1="34" x2="413.0" y2="324" stroke="#d0d0d0"/><line x1="500.2" y1="34" x2="500.2" y2="324" stroke="#d0d0d0"/><line x1="64" y1="324.0" x2="570" y2="324.0" stroke="#b0b0b0"/><text x="58" y="328.0" font-size="10" text-anchor="end" fill="#888">1.4M</text><line x1="64" y1="266.0" x2="570" y2="266.0" stroke="#b0b0b0"/><text x="58" y="270.0" font-size="10" text-anchor="end" fill="#888">1.4M</text><line x1="64" y1="208.0" x2="570" y2="208.0" stroke="#b0b0b0"/><text x="58" y="212.0" font-size="10" text-anchor="end" fill="#888">1.4M</text><line x1="64" y1="150.0" x2="570" y2="150.0" stroke="#b0b0b0"/><text x="58" y="154.0" font-size="10" text-anchor="end" fill="#888">1.4M</text><line x1="64" y1="92.0" x2="570" y2="92.0" stroke="#b0b0b0"/><text x="58" y="96.0" font-size="10" text-anchor="end" fill="#888">1.4M</text><line x1="64" y1="34.0" x2="570" y2="34.0" stroke="#b0b0b0"/><text x="58" y="38.0" font-size="10" text-anchor="end" fill="#888">1.4M</text><text x="64.0" y="327.2" font-size="4" text-anchor="end" fill="#aa4400" transform="rotate(-80 64.0 327.2)">v5.155.0</text><text x="81.4" y="327.2" font-size="4" text-anchor="end" fill="#d6a382" transform="rotate(-80 81.4 327.2)">v5.155.1</text><text x="98.9" y="327.2" font-size="4" text-anchor="end" fill="#aa4400" transform="rotate(-80 98.9 327.2)">v5.156.0</text><text x="116.3" y="327.2" font-size="4" text-anchor="end" fill="#d6a382" transform="rotate(-80 116.3 327.2)">v5.156.1</text><text x="133.8" y="327.2" font-size="4" text-anchor="end" fill="#aa4400" transform="rotate(-80 133.8 327.2)">v5.157.0</text><text x="151.2" y="327.2" font-size="4" text-anchor="end" fill="#d6a382" transform="rotate(-80 151.2 327.2)">v5.157.1</text><text x="168.7" y="327.2" font-size="4" text-anchor="end" fill="#d6a382" transform="rotate(-80 168.7 327.2)">v5.157.2</text><text x="186.1" y="327.2" font-size="4" text-anchor="end" fill="#d6a382" transform="rotate(-80 186.1 327.2)">v5.157.3</text><text x="203.6" y="327.2" font-size="4" text-anchor="end" fill="#d6a382" transform="rotate(-80 203.6 327.2)">v5.157.4</text><text x="221.0" y="327.2" font-size="4" text-anchor="end" fill="#d6a382" transform="rotate(-80 221.0 327.2)">v5.157.5</text><text x="238.5" y="327.2" font-size="4" text-anchor="end" fill="#d6a382" transform="rotate(-80 238.5 327.2)">v5.157.6</text><text x="255.9" y="327.2" font-size="4" text-anchor="end" fill="#d6a382" transform="rotate(-80 255.9 327.2)">v5.157.7</text><text x="273.4" y="327.2" font-size="4" text-anchor="end" fill="#d6a382" transform="rotate(-80 273.4 327.2)">v5.157.8</text><text x="290.8" y="327.2" font-size="4" text-anchor="end" fill="#d6a382" transform="rotate(-80 290.8 327.2)">v5.157.9</text><text x="308.3" y="327.2" font-size="4" text-anchor="end" fill="#d6a382" transform="rotate(-80 308.3 327.2)">v5.157.10</text><text x="325.7" y="327.2" font-size="4" text-anchor="end" fill="#d6a382" transform="rotate(-80 325.7 327.2)">v5.157.11</text><text x="343.2" y="327.2" font-size="4" text-anchor="end" fill="#d6a382" transform="rotate(-80 343.2 327.2)">v5.157.12</text><text x="360.6" y="327.2" font-size="4" text-anchor="end" fill="#d6a382" transform="rotate(-80 360.6 327.2)">v5.157.13</text><text x="378.1" y="327.2" font-size="4" text-anchor="end" fill="#d6a382" transform="rotate(-80 378.1 327.2)">v5.157.14</text><text x="395.5" y="327.2" font-size="4" text-anchor="end" fill="#d6a382" transform="rotate(-80 395.5 327.2)">v5.157.15</text><text x="413.0" y="327.2" font-size="4" text-anchor="end" fill="#d6a382" transform="rotate(-80 413.0 327.2)">v5.157.16</text><text x="430.4" y="327.2" font-size="4" text-anchor="end" fill="#d6a382" transform="rotate(-80 430.4 327.2)">v5.157.17</text><text x="447.9" y="327.2" font-size="4" text-anchor="end" fill="#d6a382" transform="rotate(-80 447.9 327.2)">v5.157.18</text><text x="465.3" y="327.2" font-size="4" text-anchor="end" fill="#aa4400" transform="rotate(-80 465.3 327.2)">v5.158.0</text><text x="482.8" y="327.2" font-size="4" text-anchor="end" fill="#d6a382" transform="rotate(-80 482.8 327.2)">v5.158.1</text><text x="500.2" y="327.2" font-size="4" text-anchor="end" fill="#d6a382" transform="rotate(-80 500.2 327.2)">v5.158.2</text><text x="517.7" y="327.2" font-size="4" text-anchor="end" fill="#aa4400" transform="rotate(-80 517.7 327.2)">v5.159.0</text><text x="535.1" y="327.2" font-size="4" text-anchor="end" fill="#d6a382" transform="rotate(-80 535.1 327.2)">v5.159.1</text><text x="552.6" y="327.2" font-size="4" text-anchor="end" fill="#d6a382" transform="rotate(-80 552.6 327.2)">v5.159.2</text><text x="570.0" y="327.2" font-size="4" text-anchor="end" fill="#aa4400" transform="rotate(-80 570.0 327.2)">v5.160.0</text><path d="M64.0,299.8 L81.4,299.8 L98.9,299.8 L116.3,299.8 L133.8,199.7 L151.2,195.0 L168.7,195.0 L186.1,186.9 L203.6,186.9 L221.0,182.2 L238.5,180.1 L255.9,178.4 L273.4,173.3 L290.8,155.1 L308.3,149.6 L325.7,148.8 L343.2,148.8 L360.6,148.8 L378.1,148.8 L395.5,134.6 L413.0,133.3 L430.4,133.3 L447.9,133.3 L465.3,131.7 L482.8,130.6 L500.2,130.6 L517.7,58.2 L535.1,58.2 L552.6,58.2 L570.0,58.2" fill="none" stroke="#4477AA" stroke-width="1.6"/><circle cx="64.0" cy="299.8" r="2" fill="#4477AA"/><circle cx="81.4" cy="299.8" r="2" fill="#4477AA"/><circle cx="98.9" cy="299.8" r="2" fill="#4477AA"/><circle cx="116.3" cy="299.8" r="2" fill="#4477AA"/><circle cx="133.8" cy="199.7" r="2" fill="#4477AA"/><circle cx="151.2" cy="195.0" r="2" fill="#4477AA"/><circle cx="168.7" cy="195.0" r="2" fill="#4477AA"/><circle cx="186.1" cy="186.9" r="2" fill="#4477AA"/><circle cx="203.6" cy="186.9" r="2" fill="#4477AA"/><circle cx="221.0" cy="182.2" r="2" fill="#4477AA"/><circle cx="238.5" cy="180.1" r="2" fill="#4477AA"/><circle cx="255.9" cy="178.4" r="2" fill="#4477AA"/><circle cx="273.4" cy="173.3" r="2" fill="#4477AA"/><circle cx="290.8" cy="155.1" r="2" fill="#4477AA"/><circle cx="308.3" cy="149.6" r="2" fill="#4477AA"/><circle cx="325.7" cy="148.8" r="2" fill="#4477AA"/><circle cx="343.2" cy="148.8" r="2" fill="#4477AA"/><circle cx="360.6" cy="148.8" r="2" fill="#4477AA"/><circle cx="378.1" cy="148.8" r="2" fill="#4477AA"/><circle cx="395.5" cy="134.6" r="2" fill="#4477AA"/><circle cx="413.0" cy="133.3" r="2" fill="#4477AA"/><circle cx="430.4" cy="133.3" r="2" fill="#4477AA"/><circle cx="447.9" cy="133.3" r="2" fill="#4477AA"/><circle cx="465.3" cy="131.7" r="2" fill="#4477AA"/><circle cx="482.8" cy="130.6" r="2" fill="#4477AA"/><circle cx="500.2" cy="130.6" r="2" fill="#4477AA"/><circle cx="517.7" cy="58.2" r="2" fill="#4477AA"/><circle cx="535.1" cy="58.2" r="2" fill="#4477AA"/><circle cx="552.6" cy="58.2" r="2" fill="#4477AA"/><circle cx="570.0" cy="58.2" r="2" fill="#4477AA"/><rect x="580" y="34" width="10" height="10" fill="#4477AA"/><text x="594" y="43" font-size="10" fill="#444">package (raw, all dist)</text></svg>