<svg width="720" height="372" xmlns="http://www.w3.org/2000/svg"><rect width="720" height="372" fill="#ffffff"/><text x="64" y="20" font-size="15" font-weight="bold" fill="#333">probable_action_exits() — ops/sec (linear scale, last 30) by PR / release, c8g.medium</text><line x1="81.4" y1="34" x2="81.4" y2="324" stroke="#e8e8e8"/><line x1="98.9" y1="34" x2="98.9" y2="324" stroke="#e8e8e8"/><line x1="116.3" y1="34" x2="116.3" y2="324" stroke="#e8e8e8"/><line x1="133.8" y1="34" x2="133.8" y2="324" stroke="#e8e8e8"/><line x1="168.7" y1="34" x2="168.7" y2="324" stroke="#e8e8e8"/><line x1="186.1" y1="34" x2="186.1" y2="324" stroke="#e8e8e8"/><line x1="203.6" y1="34" x2="203.6" y2="324" stroke="#e8e8e8"/><line x1="221.0" y1="34" x2="221.0" y2="324" stroke="#e8e8e8"/><line x1="255.9" y1="34" x2="255.9" y2="324" stroke="#e8e8e8"/><line x1="273.4" y1="34" x2="273.4" y2="324" stroke="#e8e8e8"/><line x1="290.8" y1="34" x2="290.8" y2="324" stroke="#e8e8e8"/><line x1="308.3" y1="34" x2="308.3" y2="324" stroke="#e8e8e8"/><line x1="343.2" y1="34" x2="343.2" y2="324" stroke="#e8e8e8"/><line x1="360.6" y1="34" x2="360.6" y2="324" stroke="#e8e8e8"/><line x1="378.1" y1="34" x2="378.1" y2="324" stroke="#e8e8e8"/><line x1="395.5" y1="34" x2="395.5" y2="324" stroke="#e8e8e8"/><line x1="430.4" y1="34" x2="430.4" y2="324" stroke="#e8e8e8"/><line x1="447.9" y1="34" x2="447.9" y2="324" stroke="#e8e8e8"/><line x1="465.3" y1="34" x2="465.3" y2="324" stroke="#e8e8e8"/><line x1="482.8" y1="34" x2="482.8" y2="324" stroke="#e8e8e8"/><line x1="517.7" y1="34" x2="517.7" y2="324" stroke="#e8e8e8"/><line x1="535.1" y1="34" x2="535.1" y2="324" stroke="#e8e8e8"/><line x1="552.6" y1="34" x2="552.6" y2="324" stroke="#e8e8e8"/><line x1="570.0" y1="34" x2="570.0" y2="324" stroke="#e8e8e8"/><line x1="64.0" y1="34" x2="64.0" y2="324" stroke="#d0d0d0"/><line x1="151.2" y1="34" x2="151.2" y2="324" stroke="#d0d0d0"/><line x1="238.5" y1="34" x2="238.5" y2="324" stroke="#d0d0d0"/><line x1="325.7" y1="34" x2="325.7" y2="324" stroke="#d0d0d0"/><line x1="413.0" y1="34" x2="413.0" y2="324" stroke="#d0d0d0"/><line x1="500.2" y1="34" x2="500.2" y2="324" stroke="#d0d0d0"/><line x1="64" y1="324.0" x2="570" y2="324.0" stroke="#b0b0b0"/><text x="58" y="328.0" font-size="10" text-anchor="end" fill="#888">-16.4k</text><line x1="64" y1="266.0" x2="570" y2="266.0" stroke="#b0b0b0"/><text x="58" y="270.0" font-size="10" text-anchor="end" fill="#888">26.1k</text><line x1="64" y1="208.0" x2="570" y2="208.0" stroke="#b0b0b0"/><text x="58" y="212.0" font-size="10" text-anchor="end" fill="#888">68.7k</text><line x1="64" y1="150.0" x2="570" y2="150.0" stroke="#b0b0b0"/><text x="58" y="154.0" font-size="10" text-anchor="end" fill="#888">111.3k</text><line x1="64" y1="92.0" x2="570" y2="92.0" stroke="#b0b0b0"/><text x="58" y="96.0" font-size="10" text-anchor="end" fill="#888">153.8k</text><line x1="64" y1="34.0" x2="570" y2="34.0" stroke="#b0b0b0"/><text x="58" y="38.0" font-size="10" text-anchor="end" fill="#888">196.4k</text><text x="64.0" y="327.2" font-size="4" text-anchor="end" fill="#aa4400" transform="rotate(-80 64.0 327.2)">v5.155.0</text><text x="81.4" y="327.2" font-size="4" text-anchor="end" fill="#d6a382" transform="rotate(-80 81.4 327.2)">v5.155.1</text><text x="98.9" y="327.2" font-size="4" text-anchor="end" fill="#aa4400" transform="rotate(-80 98.9 327.2)">v5.156.0</text><text x="116.3" y="327.2" font-size="4" text-anchor="end" fill="#d6a382" transform="rotate(-80 116.3 327.2)">v5.156.1</text><text x="133.8" y="327.2" font-size="4" text-anchor="end" fill="#aa4400" transform="rotate(-80 133.8 327.2)">v5.157.0</text><text x="151.2" y="327.2" font-size="4" text-anchor="end" fill="#d6a382" transform="rotate(-80 151.2 327.2)">v5.157.1</text><text x="168.7" y="327.2" font-size="4" text-anchor="end" fill="#d6a382" transform="rotate(-80 168.7 327.2)">v5.157.2</text><text x="186.1" y="327.2" font-size="4" text-anchor="end" fill="#d6a382" transform="rotate(-80 186.1 327.2)">v5.157.3</text><text x="203.6" y="327.2" font-size="4" text-anchor="end" fill="#d6a382" transform="rotate(-80 203.6 327.2)">v5.157.4</text><text x="221.0" y="327.2" font-size="4" text-anchor="end" fill="#d6a382" transform="rotate(-80 221.0 327.2)">v5.157.5</text><text x="238.5" y="327.2" font-size="4" text-anchor="end" fill="#d6a382" transform="rotate(-80 238.5 327.2)">v5.157.6</text><text x="255.9" y="327.2" font-size="4" text-anchor="end" fill="#d6a382" transform="rotate(-80 255.9 327.2)">v5.157.7</text><text x="273.4" y="327.2" font-size="4" text-anchor="end" fill="#d6a382" transform="rotate(-80 273.4 327.2)">v5.157.8</text><text x="290.8" y="327.2" font-size="4" text-anchor="end" fill="#d6a382" transform="rotate(-80 290.8 327.2)">v5.157.9</text><text x="308.3" y="327.2" font-size="4" text-anchor="end" fill="#d6a382" transform="rotate(-80 308.3 327.2)">v5.157.10</text><text x="325.7" y="327.2" font-size="4" text-anchor="end" fill="#d6a382" transform="rotate(-80 325.7 327.2)">v5.157.11</text><text x="343.2" y="327.2" font-size="4" text-anchor="end" fill="#d6a382" transform="rotate(-80 343.2 327.2)">v5.157.12</text><text x="360.6" y="327.2" font-size="4" text-anchor="end" fill="#d6a382" transform="rotate(-80 360.6 327.2)">v5.157.13</text><text x="378.1" y="327.2" font-size="4" text-anchor="end" fill="#d6a382" transform="rotate(-80 378.1 327.2)">v5.157.14</text><text x="395.5" y="327.2" font-size="4" text-anchor="end" fill="#d6a382" transform="rotate(-80 395.5 327.2)">v5.157.15</text><text x="413.0" y="327.2" font-size="4" text-anchor="end" fill="#d6a382" transform="rotate(-80 413.0 327.2)">v5.157.16</text><text x="430.4" y="327.2" font-size="4" text-anchor="end" fill="#d6a382" transform="rotate(-80 430.4 327.2)">v5.157.17</text><text x="447.9" y="327.2" font-size="4" text-anchor="end" fill="#d6a382" transform="rotate(-80 447.9 327.2)">v5.157.18</text><text x="465.3" y="327.2" font-size="4" text-anchor="end" fill="#aa4400" transform="rotate(-80 465.3 327.2)">v5.158.0</text><text x="482.8" y="327.2" font-size="4" text-anchor="end" fill="#d6a382" transform="rotate(-80 482.8 327.2)">v5.158.1</text><text x="500.2" y="327.2" font-size="4" text-anchor="end" fill="#d6a382" transform="rotate(-80 500.2 327.2)">v5.158.2</text><text x="517.7" y="327.2" font-size="4" text-anchor="end" fill="#aa4400" transform="rotate(-80 517.7 327.2)">v5.159.0</text><text x="535.1" y="327.2" font-size="4" text-anchor="end" fill="#d6a382" transform="rotate(-80 535.1 327.2)">v5.159.1</text><text x="552.6" y="327.2" font-size="4" text-anchor="end" fill="#d6a382" transform="rotate(-80 552.6 327.2)">v5.159.2</text><text x="570.0" y="327.2" font-size="4" text-anchor="end" fill="#aa4400" transform="rotate(-80 570.0 327.2)">v5.160.0</text><path d="M64.0,92.3 L81.4,90.3 L98.9,90.8 L116.3,86.8 L133.8,91.9 L151.2,93.9 L168.7,95.7 L186.1,88.7 L203.6,104.4 L221.0,66.9 L238.5,63.2 L255.9,65.4 L273.4,69.2 L290.8,70.5 L308.3,68.8 L325.7,63.9 L343.2,64.4 L360.6,69.9 L378.1,69.5 L395.5,69.1 L413.0,67.8 L430.4,67.8 L447.9,71.4 L465.3,62.1 L482.8,68.5 L500.2,67.4 L517.7,64.7 L535.1,67.1 L552.6,63.4 L570.0,58.2" fill="none" stroke="#4477AA" stroke-width="1.6"/><circle cx="64.0" cy="92.3" r="2" fill="#4477AA"/><circle cx="81.4" cy="90.3" r="2" fill="#4477AA"/><circle cx="98.9" cy="90.8" r="2" fill="#4477AA"/><circle cx="116.3" cy="86.8" r="2" fill="#4477AA"/><circle cx="133.8" cy="91.9" r="2" fill="#4477AA"/><circle cx="151.2" cy="93.9" r="2" fill="#4477AA"/><circle cx="168.7" cy="95.7" r="2" fill="#4477AA"/><circle cx="186.1" cy="88.7" r="2" fill="#4477AA"/><circle cx="203.6" cy="104.4" r="2" fill="#4477AA"/><circle cx="221.0" cy="66.9" r="2" fill="#4477AA"/><circle cx="238.5" cy="63.2" r="2" fill="#4477AA"/><circle cx="255.9" cy="65.4" r="2" fill="#4477AA"/><circle cx="273.4" cy="69.2" r="2" fill="#4477AA"/><circle cx="290.8" cy="70.5" r="2" fill="#4477AA"/><circle cx="308.3" cy="68.8" r="2" fill="#4477AA"/><circle cx="325.7" cy="63.9" r="2" fill="#4477AA"/><circle cx="343.2" cy="64.4" r="2" fill="#4477AA"/><circle cx="360.6" cy="69.9" r="2" fill="#4477AA"/><circle cx="378.1" cy="69.5" r="2" fill="#4477AA"/><circle cx="395.5" cy="69.1" r="2" fill="#4477AA"/><circle cx="413.0" cy="67.8" r="2" fill="#4477AA"/><circle cx="430.4" cy="67.8" r="2" fill="#4477AA"/><circle cx="447.9" cy="71.4" r="2" fill="#4477AA"/><circle cx="465.3" cy="62.1" r="2" fill="#4477AA"/><circle cx="482.8" cy="68.5" r="2" fill="#4477AA"/><circle cx="500.2" cy="67.4" r="2" fill="#4477AA"/><circle cx="517.7" cy="64.7" r="2" fill="#4477AA"/><circle cx="535.1" cy="67.1" r="2" fill="#4477AA"/><circle cx="552.6" cy="63.4" r="2" fill="#4477AA"/><circle cx="570.0" cy="58.2" r="2" fill="#4477AA"/><rect x="580" y="34" width="10" height="10" fill="#4477AA"/><text x="594" y="43" font-size="10" fill="#444">chain-10</text><path d="M64.0,96.1 L81.4,102.6 L98.9,91.8 L116.3,100.2 L133.8,97.9 L151.2,98.1 L168.7,102.2 L186.1,96.0 L203.6,115.2 L221.0,72.3 L238.5,72.2 L255.9,73.7 L273.4,73.6 L290.8,71.6 L308.3,71.6 L325.7,67.0 L343.2,66.9 L360.6,72.3 L378.1,70.7 L395.5,68.3 L413.0,71.3 L430.4,72.1 L447.9,70.4 L465.3,65.6 L482.8,70.7 L500.2,71.2 L517.7,65.2 L535.1,70.1 L552.6,68.3 L570.0,69.8" fill="none" stroke="#EE6677" stroke-width="1.6"/><circle cx="64.0" cy="96.1" r="2" fill="#EE6677"/><circle cx="81.4" cy="102.6" r="2" fill="#EE6677"/><circle cx="98.9" cy="91.8" r="2" fill="#EE6677"/><circle cx="116.3" cy="100.2" r="2" fill="#EE6677"/><circle cx="133.8" cy="97.9" r="2" fill="#EE6677"/><circle cx="151.2" cy="98.1" r="2" fill="#EE6677"/><circle cx="168.7" cy="102.2" r="2" fill="#EE6677"/><circle cx="186.1" cy="96.0" r="2" fill="#EE6677"/><circle cx="203.6" cy="115.2" r="2" fill="#EE6677"/><circle cx="221.0" cy="72.3" r="2" fill="#EE6677"/><circle cx="238.5" cy="72.2" r="2" fill="#EE6677"/><circle cx="255.9" cy="73.7" r="2" fill="#EE6677"/><circle cx="273.4" cy="73.6" r="2" fill="#EE6677"/><circle cx="290.8" cy="71.6" r="2" fill="#EE6677"/><circle cx="308.3" cy="71.6" r="2" fill="#EE6677"/><circle cx="325.7" cy="67.0" r="2" fill="#EE6677"/><circle cx="343.2" cy="66.9" r="2" fill="#EE6677"/><circle cx="360.6" cy="72.3" r="2" fill="#EE6677"/><circle cx="378.1" cy="70.7" r="2" fill="#EE6677"/><circle cx="395.5" cy="68.3" r="2" fill="#EE6677"/><circle cx="413.0" cy="71.3" r="2" fill="#EE6677"/><circle cx="430.4" cy="72.1" r="2" fill="#EE6677"/><circle cx="447.9" cy="70.4" r="2" fill="#EE6677"/><circle cx="465.3" cy="65.6" r="2" fill="#EE6677"/><circle cx="482.8" cy="70.7" r="2" fill="#EE6677"/><circle cx="500.2" cy="71.2" r="2" fill="#EE6677"/><circle cx="517.7" cy="65.2" r="2" fill="#EE6677"/><circle cx="535.1" cy="70.1" r="2" fill="#EE6677"/><circle cx="552.6" cy="68.3" r="2" fill="#EE6677"/><circle cx="570.0" cy="69.8" r="2" fill="#EE6677"/><rect x="580" y="49" width="10" height="10" fill="#EE6677"/><text x="594" y="58" font-size="10" fill="#444">chain-50</text><path d="M64.0,99.3 L81.4,102.5 L98.9,99.1 L116.3,102.3 L133.8,100.9 L151.2,100.6 L168.7,106.8 L186.1,101.2 L203.6,112.8 L221.0,79.4 L238.5,74.0 L255.9,72.3 L273.4,77.5 L290.8,74.1 L308.3,71.7 L325.7,77.7 L343.2,73.7 L360.6,76.1 L378.1,72.5 L395.5,76.6 L413.0,71.4 L430.4,71.7 L447.9,74.8 L465.3,73.5 L482.8,72.9 L500.2,74.0 L517.7,66.1 L535.1,75.2 L552.6,71.9 L570.0,73.1" fill="none" stroke="#228833" stroke-width="1.6"/><circle cx="64.0" cy="99.3" r="2" fill="#228833"/><circle cx="81.4" cy="102.5" r="2" fill="#228833"/><circle cx="98.9" cy="99.1" r="2" fill="#228833"/><circle cx="116.3" cy="102.3" r="2" fill="#228833"/><circle cx="133.8" cy="100.9" r="2" fill="#228833"/><circle cx="151.2" cy="100.6" r="2" fill="#228833"/><circle cx="168.7" cy="106.8" r="2" fill="#228833"/><circle cx="186.1" cy="101.2" r="2" fill="#228833"/><circle cx="203.6" cy="112.8" r="2" fill="#228833"/><circle cx="221.0" cy="79.4" r="2" fill="#228833"/><circle cx="238.5" cy="74.0" r="2" fill="#228833"/><circle cx="255.9" cy="72.3" r="2" fill="#228833"/><circle cx="273.4" cy="77.5" r="2" fill="#228833"/><circle cx="290.8" cy="74.1" r="2" fill="#228833"/><circle cx="308.3" cy="71.7" r="2" fill="#228833"/><circle cx="325.7" cy="77.7" r="2" fill="#228833"/><circle cx="343.2" cy="73.7" r="2" fill="#228833"/><circle cx="360.6" cy="76.1" r="2" fill="#228833"/><circle cx="378.1" cy="72.5" r="2" fill="#228833"/><circle cx="395.5" cy="76.6" r="2" fill="#228833"/><circle cx="413.0" cy="71.4" r="2" fill="#228833"/><circle cx="430.4" cy="71.7" r="2" fill="#228833"/><circle cx="447.9" cy="74.8" r="2" fill="#228833"/><circle cx="465.3" cy="73.5" r="2" fill="#228833"/><circle cx="482.8" cy="72.9" r="2" fill="#228833"/><circle cx="500.2" cy="74.0" r="2" fill="#228833"/><circle cx="517.7" cy="66.1" r="2" fill="#228833"/><circle cx="535.1" cy="75.2" r="2" fill="#228833"/><circle cx="552.6" cy="71.9" r="2" fill="#228833"/><circle cx="570.0" cy="73.1" r="2" fill="#228833"/><rect x="580" y="64" width="10" height="10" fill="#228833"/><text x="594" y="73" font-size="10" fill="#444">chain-200</text><path d="M64.0,110.6 L81.4,110.6 L98.9,106.9 L116.3,113.0 L133.8,118.1 L151.2,110.0 L168.7,118.9 L186.1,114.4 L203.6,124.0 L221.0,87.2 L238.5,87.8 L255.9,83.3 L273.4,86.5 L290.8,88.0 L308.3,90.1 L325.7,84.1 L343.2,82.7 L360.6,82.2 L378.1,82.1 L395.5,82.5 L413.0,79.7 L430.4,77.8 L447.9,82.3 L465.3,79.7 L482.8,82.0 L500.2,79.6 L517.7,77.1 L535.1,84.8 L552.6,85.9 L570.0,89.2" fill="none" stroke="#CCBB44" stroke-width="1.6"/><circle cx="64.0" cy="110.6" r="2" fill="#CCBB44"/><circle cx="81.4" cy="110.6" r="2" fill="#CCBB44"/><circle cx="98.9" cy="106.9" r="2" fill="#CCBB44"/><circle cx="116.3" cy="113.0" r="2" fill="#CCBB44"/><circle cx="133.8" cy="118.1" r="2" fill="#CCBB44"/><circle cx="151.2" cy="110.0" r="2" fill="#CCBB44"/><circle cx="168.7" cy="118.9" r="2" fill="#CCBB44"/><circle cx="186.1" cy="114.4" r="2" fill="#CCBB44"/><circle cx="203.6" cy="124.0" r="2" fill="#CCBB44"/><circle cx="221.0" cy="87.2" r="2" fill="#CCBB44"/><circle cx="238.5" cy="87.8" r="2" fill="#CCBB44"/><circle cx="255.9" cy="83.3" r="2" fill="#CCBB44"/><circle cx="273.4" cy="86.5" r="2" fill="#CCBB44"/><circle cx="290.8" cy="88.0" r="2" fill="#CCBB44"/><circle cx="308.3" cy="90.1" r="2" fill="#CCBB44"/><circle cx="325.7" cy="84.1" r="2" fill="#CCBB44"/><circle cx="343.2" cy="82.7" r="2" fill="#CCBB44"/><circle cx="360.6" cy="82.2" r="2" fill="#CCBB44"/><circle cx="378.1" cy="82.1" r="2" fill="#CCBB44"/><circle cx="395.5" cy="82.5" r="2" fill="#CCBB44"/><circle cx="413.0" cy="79.7" r="2" fill="#CCBB44"/><circle cx="430.4" cy="77.8" r="2" fill="#CCBB44"/><circle cx="447.9" cy="82.3" r="2" fill="#CCBB44"/><circle cx="465.3" cy="79.7" r="2" fill="#CCBB44"/><circle cx="482.8" cy="82.0" r="2" fill="#CCBB44"/><circle cx="500.2" cy="79.6" r="2" fill="#CCBB44"/><circle cx="517.7" cy="77.1" r="2" fill="#CCBB44"/><circle cx="535.1" cy="84.8" r="2" fill="#CCBB44"/><circle cx="552.6" cy="85.9" r="2" fill="#CCBB44"/><circle cx="570.0" cy="89.2" r="2" fill="#CCBB44"/><rect x="580" y="79" width="10" height="10" fill="#CCBB44"/><text x="594" y="88" font-size="10" fill="#444">chain-1000</text><path d="M64.0,239.5 L81.4,242.6 L98.9,239.3 L116.3,242.1 L133.8,239.3 L151.2,241.5 L168.7,244.7 L186.1,239.9 L203.6,251.0 L221.0,216.0 L238.5,217.2 L255.9,216.8 L273.4,216.2 L290.8,217.2 L308.3,218.1 L325.7,217.3 L343.2,216.6 L360.6,218.4 L378.1,217.1 L395.5,216.1 L413.0,216.3 L430.4,215.8 L447.9,217.4 L465.3,218.5 L482.8,217.4 L500.2,218.6 L517.7,217.1 L535.1,218.9 L552.6,217.2 L570.0,216.5" fill="none" stroke="#66CCEE" stroke-width="1.6"/><circle cx="64.0" cy="239.5" r="2" fill="#66CCEE"/><circle cx="81.4" cy="242.6" r="2" fill="#66CCEE"/><circle cx="98.9" cy="239.3" r="2" fill="#66CCEE"/><circle cx="116.3" cy="242.1" r="2" fill="#66CCEE"/><circle cx="133.8" cy="239.3" r="2" fill="#66CCEE"/><circle cx="151.2" cy="241.5" r="2" fill="#66CCEE"/><circle cx="168.7" cy="244.7" r="2" fill="#66CCEE"/><circle cx="186.1" cy="239.9" r="2" fill="#66CCEE"/><circle cx="203.6" cy="251.0" r="2" fill="#66CCEE"/><circle cx="221.0" cy="216.0" r="2" fill="#66CCEE"/><circle cx="238.5" cy="217.2" r="2" fill="#66CCEE"/><circle cx="255.9" cy="216.8" r="2" fill="#66CCEE"/><circle cx="273.4" cy="216.2" r="2" fill="#66CCEE"/><circle cx="290.8" cy="217.2" r="2" fill="#66CCEE"/><circle cx="308.3" cy="218.1" r="2" fill="#66CCEE"/><circle cx="325.7" cy="217.3" r="2" fill="#66CCEE"/><circle cx="343.2" cy="216.6" r="2" fill="#66CCEE"/><circle cx="360.6" cy="218.4" r="2" fill="#66CCEE"/><circle cx="378.1" cy="217.1" r="2" fill="#66CCEE"/><circle cx="395.5" cy="216.1" r="2" fill="#66CCEE"/><circle cx="413.0" cy="216.3" r="2" fill="#66CCEE"/><circle cx="430.4" cy="215.8" r="2" fill="#66CCEE"/><circle cx="447.9" cy="217.4" r="2" fill="#66CCEE"/><circle cx="465.3" cy="218.5" r="2" fill="#66CCEE"/><circle cx="482.8" cy="217.4" r="2" fill="#66CCEE"/><circle cx="500.2" cy="218.6" r="2" fill="#66CCEE"/><circle cx="517.7" cy="217.1" r="2" fill="#66CCEE"/><circle cx="535.1" cy="218.9" r="2" fill="#66CCEE"/><circle cx="552.6" cy="217.2" r="2" fill="#66CCEE"/><circle cx="570.0" cy="216.5" r="2" fill="#66CCEE"/><rect x="580" y="94" width="10" height="10" fill="#66CCEE"/><text x="594" y="103" font-size="10" fill="#444">dense-10</text><path d="M64.0,289.9 L81.4,290.6 L98.9,289.9 L116.3,290.4 L133.8,290.0 L151.2,290.7 L168.7,291.4 L186.1,290.1 L203.6,292.6 L221.0,285.0 L238.5,284.9 L255.9,285.4 L273.4,285.4 L290.8,285.2 L308.3,285.6 L325.7,285.1 L343.2,285.3 L360.6,285.3 L378.1,285.1 L395.5,285.3 L413.0,285.1 L430.4,285.2 L447.9,285.1 L465.3,284.9 L482.8,285.4 L500.2,285.1 L517.7,285.0 L535.1,285.1 L552.6,285.3 L570.0,285.4" fill="none" stroke="#AA3377" stroke-width="1.6"/><circle cx="64.0" cy="289.9" r="2" fill="#AA3377"/><circle cx="81.4" cy="290.6" r="2" fill="#AA3377"/><circle cx="98.9" cy="289.9" r="2" fill="#AA3377"/><circle cx="116.3" cy="290.4" r="2" fill="#AA3377"/><circle cx="133.8" cy="290.0" r="2" fill="#AA3377"/><circle cx="151.2" cy="290.7" r="2" fill="#AA3377"/><circle cx="168.7" cy="291.4" r="2" fill="#AA3377"/><circle cx="186.1" cy="290.1" r="2" fill="#AA3377"/><circle cx="203.6" cy="292.6" r="2" fill="#AA3377"/><circle cx="221.0" cy="285.0" r="2" fill="#AA3377"/><circle cx="238.5" cy="284.9" r="2" fill="#AA3377"/><circle cx="255.9" cy="285.4" r="2" fill="#AA3377"/><circle cx="273.4" cy="285.4" r="2" fill="#AA3377"/><circle cx="290.8" cy="285.2" r="2" fill="#AA3377"/><circle cx="308.3" cy="285.6" r="2" fill="#AA3377"/><circle cx="325.7" cy="285.1" r="2" fill="#AA3377"/><circle cx="343.2" cy="285.3" r="2" fill="#AA3377"/><circle cx="360.6" cy="285.3" r="2" fill="#AA3377"/><circle cx="378.1" cy="285.1" r="2" fill="#AA3377"/><circle cx="395.5" cy="285.3" r="2" fill="#AA3377"/><circle cx="413.0" cy="285.1" r="2" fill="#AA3377"/><circle cx="430.4" cy="285.2" r="2" fill="#AA3377"/><circle cx="447.9" cy="285.1" r="2" fill="#AA3377"/><circle cx="465.3" cy="284.9" r="2" fill="#AA3377"/><circle cx="482.8" cy="285.4" r="2" fill="#AA3377"/><circle cx="500.2" cy="285.1" r="2" fill="#AA3377"/><circle cx="517.7" cy="285.0" r="2" fill="#AA3377"/><circle cx="535.1" cy="285.1" r="2" fill="#AA3377"/><circle cx="552.6" cy="285.3" r="2" fill="#AA3377"/><circle cx="570.0" cy="285.4" r="2" fill="#AA3377"/><rect x="580" y="109" width="10" height="10" fill="#AA3377"/><text x="594" y="118" font-size="10" fill="#444">dense-50</text><path d="M64.0,299.6 L81.4,299.4 L98.9,299.3 L116.3,299.3 L133.8,299.4 L151.2,299.1 L168.7,299.8 L186.1,299.8 L203.6,299.8 L221.0,297.6 L238.5,297.5 L255.9,297.6 L273.4,297.6 L290.8,297.6 L308.3,297.6 L325.7,297.7 L343.2,297.6 L360.6,297.6 L378.1,297.6 L395.5,297.6 L413.0,297.5 L430.4,297.5 L447.9,297.6 L465.3,297.5 L482.8,297.5 L500.2,297.5 L517.7,297.6 L535.1,297.5 L552.6,297.5 L570.0,297.5" fill="none" stroke="#BBBBBB" stroke-width="1.6"/><circle cx="64.0" cy="299.6" r="2" fill="#BBBBBB"/><circle cx="81.4" cy="299.4" r="2" fill="#BBBBBB"/><circle cx="98.9" cy="299.3" r="2" fill="#BBBBBB"/><circle cx="116.3" cy="299.3" r="2" fill="#BBBBBB"/><circle cx="133.8" cy="299.4" r="2" fill="#BBBBBB"/><circle cx="151.2" cy="299.1" r="2" fill="#BBBBBB"/><circle cx="168.7" cy="299.8" r="2" fill="#BBBBBB"/><circle cx="186.1" cy="299.8" r="2" fill="#BBBBBB"/><circle cx="203.6" cy="299.8" r="2" fill="#BBBBBB"/><circle cx="221.0" cy="297.6" r="2" fill="#BBBBBB"/><circle cx="238.5" cy="297.5" r="2" fill="#BBBBBB"/><circle cx="255.9" cy="297.6" r="2" fill="#BBBBBB"/><circle cx="273.4" cy="297.6" r="2" fill="#BBBBBB"/><circle cx="290.8" cy="297.6" r="2" fill="#BBBBBB"/><circle cx="308.3" cy="297.6" r="2" fill="#BBBBBB"/><circle cx="325.7" cy="297.7" r="2" fill="#BBBBBB"/><circle cx="343.2" cy="297.6" r="2" fill="#BBBBBB"/><circle cx="360.6" cy="297.6" r="2" fill="#BBBBBB"/><circle cx="378.1" cy="297.6" r="2" fill="#BBBBBB"/><circle cx="395.5" cy="297.6" r="2" fill="#BBBBBB"/><circle cx="413.0" cy="297.5" r="2" fill="#BBBBBB"/><circle cx="430.4" cy="297.5" r="2" fill="#BBBBBB"/><circle cx="447.9" cy="297.6" r="2" fill="#BBBBBB"/><circle cx="465.3" cy="297.5" r="2" fill="#BBBBBB"/><circle cx="482.8" cy="297.5" r="2" fill="#BBBBBB"/><circle cx="500.2" cy="297.5" r="2" fill="#BBBBBB"/><circle cx="517.7" cy="297.6" r="2" fill="#BBBBBB"/><circle cx="535.1" cy="297.5" r="2" fill="#BBBBBB"/><circle cx="552.6" cy="297.5" r="2" fill="#BBBBBB"/><circle cx="570.0" cy="297.5" r="2" fill="#BBBBBB"/><rect x="580" y="124" width="10" height="10" fill="#BBBBBB"/><text x="594" y="133" font-size="10" fill="#444">dense-200</text><path d="M64.0,278.0 L81.4,279.4 L98.9,278.1 L116.3,278.8 L133.8,278.2 L151.2,278.8 L168.7,279.4 L186.1,278.1 L203.6,281.0 L221.0,269.2 L238.5,268.8 L255.9,269.5 L273.4,269.7 L290.8,270.3 L308.3,269.9 L325.7,269.5 L343.2,269.3 L360.6,270.2 L378.1,269.3 L395.5,269.2 L413.0,269.5 L430.4,269.4 L447.9,269.6 L465.3,269.0 L482.8,269.5 L500.2,269.6 L517.7,269.1 L535.1,269.6 L552.6,269.7 L570.0,269.2" fill="none" stroke="#222255" stroke-width="1.6"/><circle cx="64.0" cy="278.0" r="2" fill="#222255"/><circle cx="81.4" cy="279.4" r="2" fill="#222255"/><circle cx="98.9" cy="278.1" r="2" fill="#222255"/><circle cx="116.3" cy="278.8" r="2" fill="#222255"/><circle cx="133.8" cy="278.2" r="2" fill="#222255"/><circle cx="151.2" cy="278.8" r="2" fill="#222255"/><circle cx="168.7" cy="279.4" r="2" fill="#222255"/><circle cx="186.1" cy="278.1" r="2" fill="#222255"/><circle cx="203.6" cy="281.0" r="2" fill="#222255"/><circle cx="221.0" cy="269.2" r="2" fill="#222255"/><circle cx="238.5" cy="268.8" r="2" fill="#222255"/><circle cx="255.9" cy="269.5" r="2" fill="#222255"/><circle cx="273.4" cy="269.7" r="2" fill="#222255"/><circle cx="290.8" cy="270.3" r="2" fill="#222255"/><circle cx="308.3" cy="269.9" r="2" fill="#222255"/><circle cx="325.7" cy="269.5" r="2" fill="#222255"/><circle cx="343.2" cy="269.3" r="2" fill="#222255"/><circle cx="360.6" cy="270.2" r="2" fill="#222255"/><circle cx="378.1" cy="269.3" r="2" fill="#222255"/><circle cx="395.5" cy="269.2" r="2" fill="#222255"/><circle cx="413.0" cy="269.5" r="2" fill="#222255"/><circle cx="430.4" cy="269.4" r="2" fill="#222255"/><circle cx="447.9" cy="269.6" r="2" fill="#222255"/><circle cx="465.3" cy="269.0" r="2" fill="#222255"/><circle cx="482.8" cy="269.5" r="2" fill="#222255"/><circle cx="500.2" cy="269.6" r="2" fill="#222255"/><circle cx="517.7" cy="269.1" r="2" fill="#222255"/><circle cx="535.1" cy="269.6" r="2" fill="#222255"/><circle cx="552.6" cy="269.7" r="2" fill="#222255"/><circle cx="570.0" cy="269.2" r="2" fill="#222255"/><rect x="580" y="139" width="10" height="10" fill="#222255"/><text x="594" y="148" font-size="10" fill="#444">hub-50</text><path d="M64.0,295.5 L81.4,296.0 L98.9,295.5 L116.3,295.7 L133.8,295.5 L151.2,295.7 L168.7,296.0 L186.1,295.6 L203.6,296.6 L221.0,293.0 L238.5,292.9 L255.9,293.1 L273.4,293.2 L290.8,293.2 L308.3,293.3 L325.7,293.1 L343.2,293.1 L360.6,293.2 L378.1,293.1 L395.5,293.0 L413.0,293.0 L430.4,293.2 L447.9,293.1 L465.3,293.0 L482.8,293.0 L500.2,293.1 L517.7,293.0 L535.1,293.1 L552.6,293.0 L570.0,293.0" fill="none" stroke="#225555" stroke-width="1.6"/><circle cx="64.0" cy="295.5" r="2" fill="#225555"/><circle cx="81.4" cy="296.0" r="2" fill="#225555"/><circle cx="98.9" cy="295.5" r="2" fill="#225555"/><circle cx="116.3" cy="295.7" r="2" fill="#225555"/><circle cx="133.8" cy="295.5" r="2" fill="#225555"/><circle cx="151.2" cy="295.7" r="2" fill="#225555"/><circle cx="168.7" cy="296.0" r="2" fill="#225555"/><circle cx="186.1" cy="295.6" r="2" fill="#225555"/><circle cx="203.6" cy="296.6" r="2" fill="#225555"/><circle cx="221.0" cy="293.0" r="2" fill="#225555"/><circle cx="238.5" cy="292.9" r="2" fill="#225555"/><circle cx="255.9" cy="293.1" r="2" fill="#225555"/><circle cx="273.4" cy="293.2" r="2" fill="#225555"/><circle cx="290.8" cy="293.2" r="2" fill="#225555"/><circle cx="308.3" cy="293.3" r="2" fill="#225555"/><circle cx="325.7" cy="293.1" r="2" fill="#225555"/><circle cx="343.2" cy="293.1" r="2" fill="#225555"/><circle cx="360.6" cy="293.2" r="2" fill="#225555"/><circle cx="378.1" cy="293.1" r="2" fill="#225555"/><circle cx="395.5" cy="293.0" r="2" fill="#225555"/><circle cx="413.0" cy="293.0" r="2" fill="#225555"/><circle cx="430.4" cy="293.2" r="2" fill="#225555"/><circle cx="447.9" cy="293.1" r="2" fill="#225555"/><circle cx="465.3" cy="293.0" r="2" fill="#225555"/><circle cx="482.8" cy="293.0" r="2" fill="#225555"/><circle cx="500.2" cy="293.1" r="2" fill="#225555"/><circle cx="517.7" cy="293.0" r="2" fill="#225555"/><circle cx="535.1" cy="293.1" r="2" fill="#225555"/><circle cx="552.6" cy="293.0" r="2" fill="#225555"/><circle cx="570.0" cy="293.0" r="2" fill="#225555"/><rect x="580" y="154" width="10" height="10" fill="#225555"/><text x="594" y="163" font-size="10" fill="#444">hub-200</text><path d="M64.0,295.6 L81.4,295.9 L98.9,295.5 L116.3,295.8 L133.8,295.5 L151.2,295.7 L168.7,296.0 L186.1,295.6 L203.6,296.6 L221.0,292.9 L238.5,292.9 L255.9,293.1 L273.4,293.1 L290.8,293.1 L308.3,293.2 L325.7,293.1 L343.2,293.0 L360.6,293.3 L378.1,293.1 L395.5,293.1 L413.0,293.1 L430.4,293.1 L447.9,293.1 L465.3,293.1 L482.8,293.0 L500.2,293.0 L517.7,293.0 L535.1,293.1 L552.6,293.0 L570.0,293.0" fill="none" stroke="#552222" stroke-width="1.6"/><circle cx="64.0" cy="295.6" r="2" fill="#552222"/><circle cx="81.4" cy="295.9" r="2" fill="#552222"/><circle cx="98.9" cy="295.5" r="2" fill="#552222"/><circle cx="116.3" cy="295.8" r="2" fill="#552222"/><circle cx="133.8" cy="295.5" r="2" fill="#552222"/><circle cx="151.2" cy="295.7" r="2" fill="#552222"/><circle cx="168.7" cy="296.0" r="2" fill="#552222"/><circle cx="186.1" cy="295.6" r="2" fill="#552222"/><circle cx="203.6" cy="296.6" r="2" fill="#552222"/><circle cx="221.0" cy="292.9" r="2" fill="#552222"/><circle cx="238.5" cy="292.9" r="2" fill="#552222"/><circle cx="255.9" cy="293.1" r="2" fill="#552222"/><circle cx="273.4" cy="293.1" r="2" fill="#552222"/><circle cx="290.8" cy="293.1" r="2" fill="#552222"/><circle cx="308.3" cy="293.2" r="2" fill="#552222"/><circle cx="325.7" cy="293.1" r="2" fill="#552222"/><circle cx="343.2" cy="293.0" r="2" fill="#552222"/><circle cx="360.6" cy="293.3" r="2" fill="#552222"/><circle cx="378.1" cy="293.1" r="2" fill="#552222"/><circle cx="395.5" cy="293.1" r="2" fill="#552222"/><circle cx="413.0" cy="293.1" r="2" fill="#552222"/><circle cx="430.4" cy="293.1" r="2" fill="#552222"/><circle cx="447.9" cy="293.1" r="2" fill="#552222"/><circle cx="465.3" cy="293.1" r="2" fill="#552222"/><circle cx="482.8" cy="293.0" r="2" fill="#552222"/><circle cx="500.2" cy="293.0" r="2" fill="#552222"/><circle cx="517.7" cy="293.0" r="2" fill="#552222"/><circle cx="535.1" cy="293.1" r="2" fill="#552222"/><circle cx="552.6" cy="293.0" r="2" fill="#552222"/><circle cx="570.0" cy="293.0" r="2" fill="#552222"/><rect x="580" y="169" width="10" height="10" fill="#552222"/><text x="594" y="178" font-size="10" fill="#444">hooked-200</text></svg>