<svg width="720" height="372" xmlns="http://www.w3.org/2000/svg"><rect width="720" height="372" fill="#ffffff"/><text x="64" y="20" font-size="15" font-weight="bold" fill="#333">transition() — ops/sec (linear scale, last 30) by PR / release, c8g.medium</text><line x1="81.4" y1="34" x2="81.4" y2="324" stroke="#e8e8e8"/><line x1="98.9" y1="34" x2="98.9" y2="324" stroke="#e8e8e8"/><line x1="116.3" y1="34" x2="116.3" y2="324" stroke="#e8e8e8"/><line x1="133.8" y1="34" x2="133.8" y2="324" stroke="#e8e8e8"/><line x1="168.7" y1="34" x2="168.7" y2="324" stroke="#e8e8e8"/><line x1="186.1" y1="34" x2="186.1" y2="324" stroke="#e8e8e8"/><line x1="203.6" y1="34" x2="203.6" y2="324" stroke="#e8e8e8"/><line x1="221.0" y1="34" x2="221.0" y2="324" stroke="#e8e8e8"/><line x1="255.9" y1="34" x2="255.9" y2="324" stroke="#e8e8e8"/><line x1="273.4" y1="34" x2="273.4" y2="324" stroke="#e8e8e8"/><line x1="290.8" y1="34" x2="290.8" y2="324" stroke="#e8e8e8"/><line x1="308.3" y1="34" x2="308.3" y2="324" stroke="#e8e8e8"/><line x1="343.2" y1="34" x2="343.2" y2="324" stroke="#e8e8e8"/><line x1="360.6" y1="34" x2="360.6" y2="324" stroke="#e8e8e8"/><line x1="378.1" y1="34" x2="378.1" y2="324" stroke="#e8e8e8"/><line x1="395.5" y1="34" x2="395.5" y2="324" stroke="#e8e8e8"/><line x1="430.4" y1="34" x2="430.4" y2="324" stroke="#e8e8e8"/><line x1="447.9" y1="34" x2="447.9" y2="324" stroke="#e8e8e8"/><line x1="465.3" y1="34" x2="465.3" y2="324" stroke="#e8e8e8"/><line x1="482.8" y1="34" x2="482.8" y2="324" stroke="#e8e8e8"/><line x1="517.7" y1="34" x2="517.7" y2="324" stroke="#e8e8e8"/><line x1="535.1" y1="34" x2="535.1" y2="324" stroke="#e8e8e8"/><line x1="552.6" y1="34" x2="552.6" y2="324" stroke="#e8e8e8"/><line x1="570.0" y1="34" x2="570.0" y2="324" stroke="#e8e8e8"/><line x1="64.0" y1="34" x2="64.0" y2="324" stroke="#d0d0d0"/><line x1="151.2" y1="34" x2="151.2" y2="324" stroke="#d0d0d0"/><line x1="238.5" y1="34" x2="238.5" y2="324" stroke="#d0d0d0"/><line x1="325.7" y1="34" x2="325.7" y2="324" stroke="#d0d0d0"/><line x1="413.0" y1="34" x2="413.0" y2="324" stroke="#d0d0d0"/><line x1="500.2" y1="34" x2="500.2" y2="324" stroke="#d0d0d0"/><line x1="64" y1="324.0" x2="570" y2="324.0" stroke="#b0b0b0"/><text x="58" y="328.0" font-size="10" text-anchor="end" fill="#888">6.8M</text><line x1="64" y1="266.0" x2="570" y2="266.0" stroke="#b0b0b0"/><text x="58" y="270.0" font-size="10" text-anchor="end" fill="#888">10M</text><line x1="64" y1="208.0" x2="570" y2="208.0" stroke="#b0b0b0"/><text x="58" y="212.0" font-size="10" text-anchor="end" fill="#888">13.1M</text><line x1="64" y1="150.0" x2="570" y2="150.0" stroke="#b0b0b0"/><text x="58" y="154.0" font-size="10" text-anchor="end" fill="#888">16.2M</text><line x1="64" y1="92.0" x2="570" y2="92.0" stroke="#b0b0b0"/><text x="58" y="96.0" font-size="10" text-anchor="end" fill="#888">19.3M</text><line x1="64" y1="34.0" x2="570" y2="34.0" stroke="#b0b0b0"/><text x="58" y="38.0" font-size="10" text-anchor="end" fill="#888">22.4M</text><text x="64.0" y="327.2" font-size="4" text-anchor="end" fill="#aa4400" transform="rotate(-80 64.0 327.2)">v5.155.0</text><text x="81.4" y="327.2" font-size="4" text-anchor="end" fill="#d6a382" transform="rotate(-80 81.4 327.2)">v5.155.1</text><text x="98.9" y="327.2" font-size="4" text-anchor="end" fill="#aa4400" transform="rotate(-80 98.9 327.2)">v5.156.0</text><text x="116.3" y="327.2" font-size="4" text-anchor="end" fill="#d6a382" transform="rotate(-80 116.3 327.2)">v5.156.1</text><text x="133.8" y="327.2" font-size="4" text-anchor="end" fill="#aa4400" transform="rotate(-80 133.8 327.2)">v5.157.0</text><text x="151.2" y="327.2" font-size="4" text-anchor="end" fill="#d6a382" transform="rotate(-80 151.2 327.2)">v5.157.1</text><text x="168.7" y="327.2" font-size="4" text-anchor="end" fill="#d6a382" transform="rotate(-80 168.7 327.2)">v5.157.2</text><text x="186.1" y="327.2" font-size="4" text-anchor="end" fill="#d6a382" transform="rotate(-80 186.1 327.2)">v5.157.3</text><text x="203.6" y="327.2" font-size="4" text-anchor="end" fill="#d6a382" transform="rotate(-80 203.6 327.2)">v5.157.4</text><text x="221.0" y="327.2" font-size="4" text-anchor="end" fill="#d6a382" transform="rotate(-80 221.0 327.2)">v5.157.5</text><text x="238.5" y="327.2" font-size="4" text-anchor="end" fill="#d6a382" transform="rotate(-80 238.5 327.2)">v5.157.6</text><text x="255.9" y="327.2" font-size="4" text-anchor="end" fill="#d6a382" transform="rotate(-80 255.9 327.2)">v5.157.7</text><text x="273.4" y="327.2" font-size="4" text-anchor="end" fill="#d6a382" transform="rotate(-80 273.4 327.2)">v5.157.8</text><text x="290.8" y="327.2" font-size="4" text-anchor="end" fill="#d6a382" transform="rotate(-80 290.8 327.2)">v5.157.9</text><text x="308.3" y="327.2" font-size="4" text-anchor="end" fill="#d6a382" transform="rotate(-80 308.3 327.2)">v5.157.10</text><text x="325.7" y="327.2" font-size="4" text-anchor="end" fill="#d6a382" transform="rotate(-80 325.7 327.2)">v5.157.11</text><text x="343.2" y="327.2" font-size="4" text-anchor="end" fill="#d6a382" transform="rotate(-80 343.2 327.2)">v5.157.12</text><text x="360.6" y="327.2" font-size="4" text-anchor="end" fill="#d6a382" transform="rotate(-80 360.6 327.2)">v5.157.13</text><text x="378.1" y="327.2" font-size="4" text-anchor="end" fill="#d6a382" transform="rotate(-80 378.1 327.2)">v5.157.14</text><text x="395.5" y="327.2" font-size="4" text-anchor="end" fill="#d6a382" transform="rotate(-80 395.5 327.2)">v5.157.15</text><text x="413.0" y="327.2" font-size="4" text-anchor="end" fill="#d6a382" transform="rotate(-80 413.0 327.2)">v5.157.16</text><text x="430.4" y="327.2" font-size="4" text-anchor="end" fill="#d6a382" transform="rotate(-80 430.4 327.2)">v5.157.17</text><text x="447.9" y="327.2" font-size="4" text-anchor="end" fill="#d6a382" transform="rotate(-80 447.9 327.2)">v5.157.18</text><text x="465.3" y="327.2" font-size="4" text-anchor="end" fill="#aa4400" transform="rotate(-80 465.3 327.2)">v5.158.0</text><text x="482.8" y="327.2" font-size="4" text-anchor="end" fill="#d6a382" transform="rotate(-80 482.8 327.2)">v5.158.1</text><text x="500.2" y="327.2" font-size="4" text-anchor="end" fill="#d6a382" transform="rotate(-80 500.2 327.2)">v5.158.2</text><text x="517.7" y="327.2" font-size="4" text-anchor="end" fill="#aa4400" transform="rotate(-80 517.7 327.2)">v5.159.0</text><text x="535.1" y="327.2" font-size="4" text-anchor="end" fill="#d6a382" transform="rotate(-80 535.1 327.2)">v5.159.1</text><text x="552.6" y="327.2" font-size="4" text-anchor="end" fill="#d6a382" transform="rotate(-80 552.6 327.2)">v5.159.2</text><text x="570.0" y="327.2" font-size="4" text-anchor="end" fill="#aa4400" transform="rotate(-80 570.0 327.2)">v5.160.0</text><path d="M64.0,157.2 L81.4,151.6 L98.9,161.7 L116.3,162.4 L133.8,161.8 L151.2,136.3 L168.7,134.9 L186.1,140.4 L203.6,154.5 L221.0,74.7 L238.5,78.8 L255.9,77.6 L273.4,80.4 L290.8,72.0 L308.3,86.2 L325.7,72.4 L343.2,70.7 L360.6,79.0 L378.1,87.5 L395.5,85.3 L413.0,72.7 L430.4,65.9 L447.9,95.2 L465.3,74.6 L482.8,85.8 L500.2,81.3 L517.7,83.6 L535.1,71.7 L552.6,70.5 L570.0,69.2" fill="none" stroke="#4477AA" stroke-width="1.6"/><circle cx="64.0" cy="157.2" r="2" fill="#4477AA"/><circle cx="81.4" cy="151.6" r="2" fill="#4477AA"/><circle cx="98.9" cy="161.7" r="2" fill="#4477AA"/><circle cx="116.3" cy="162.4" r="2" fill="#4477AA"/><circle cx="133.8" cy="161.8" r="2" fill="#4477AA"/><circle cx="151.2" cy="136.3" r="2" fill="#4477AA"/><circle cx="168.7" cy="134.9" r="2" fill="#4477AA"/><circle cx="186.1" cy="140.4" r="2" fill="#4477AA"/><circle cx="203.6" cy="154.5" r="2" fill="#4477AA"/><circle cx="221.0" cy="74.7" r="2" fill="#4477AA"/><circle cx="238.5" cy="78.8" r="2" fill="#4477AA"/><circle cx="255.9" cy="77.6" r="2" fill="#4477AA"/><circle cx="273.4" cy="80.4" r="2" fill="#4477AA"/><circle cx="290.8" cy="72.0" r="2" fill="#4477AA"/><circle cx="308.3" cy="86.2" r="2" fill="#4477AA"/><circle cx="325.7" cy="72.4" r="2" fill="#4477AA"/><circle cx="343.2" cy="70.7" r="2" fill="#4477AA"/><circle cx="360.6" cy="79.0" r="2" fill="#4477AA"/><circle cx="378.1" cy="87.5" r="2" fill="#4477AA"/><circle cx="395.5" cy="85.3" r="2" fill="#4477AA"/><circle cx="413.0" cy="72.7" r="2" fill="#4477AA"/><circle cx="430.4" cy="65.9" r="2" fill="#4477AA"/><circle cx="447.9" cy="95.2" r="2" fill="#4477AA"/><circle cx="465.3" cy="74.6" r="2" fill="#4477AA"/><circle cx="482.8" cy="85.8" r="2" fill="#4477AA"/><circle cx="500.2" cy="81.3" r="2" fill="#4477AA"/><circle cx="517.7" cy="83.6" r="2" fill="#4477AA"/><circle cx="535.1" cy="71.7" r="2" fill="#4477AA"/><circle cx="552.6" cy="70.5" r="2" fill="#4477AA"/><circle cx="570.0" cy="69.2" r="2" fill="#4477AA"/><rect x="580" y="34" width="10" height="10" fill="#4477AA"/><text x="594" y="43" font-size="10" fill="#444">chain-10</text><path d="M64.0,166.8 L81.4,163.2 L98.9,164.5 L116.3,173.1 L133.8,167.6 L151.2,150.3 L168.7,145.3 L186.1,151.8 L203.6,157.2 L221.0,86.7 L238.5,90.1 L255.9,91.9 L273.4,87.7 L290.8,83.1 L308.3,88.7 L325.7,91.1 L343.2,81.9 L360.6,91.2 L378.1,88.2 L395.5,77.2 L413.0,82.9 L430.4,87.9 L447.9,87.0 L465.3,81.6 L482.8,85.6 L500.2,91.2 L517.7,87.9 L535.1,82.2 L552.6,89.3 L570.0,88.9" fill="none" stroke="#EE6677" stroke-width="1.6"/><circle cx="64.0" cy="166.8" r="2" fill="#EE6677"/><circle cx="81.4" cy="163.2" r="2" fill="#EE6677"/><circle cx="98.9" cy="164.5" r="2" fill="#EE6677"/><circle cx="116.3" cy="173.1" r="2" fill="#EE6677"/><circle cx="133.8" cy="167.6" r="2" fill="#EE6677"/><circle cx="151.2" cy="150.3" r="2" fill="#EE6677"/><circle cx="168.7" cy="145.3" r="2" fill="#EE6677"/><circle cx="186.1" cy="151.8" r="2" fill="#EE6677"/><circle cx="203.6" cy="157.2" r="2" fill="#EE6677"/><circle cx="221.0" cy="86.7" r="2" fill="#EE6677"/><circle cx="238.5" cy="90.1" r="2" fill="#EE6677"/><circle cx="255.9" cy="91.9" r="2" fill="#EE6677"/><circle cx="273.4" cy="87.7" r="2" fill="#EE6677"/><circle cx="290.8" cy="83.1" r="2" fill="#EE6677"/><circle cx="308.3" cy="88.7" r="2" fill="#EE6677"/><circle cx="325.7" cy="91.1" r="2" fill="#EE6677"/><circle cx="343.2" cy="81.9" r="2" fill="#EE6677"/><circle cx="360.6" cy="91.2" r="2" fill="#EE6677"/><circle cx="378.1" cy="88.2" r="2" fill="#EE6677"/><circle cx="395.5" cy="77.2" r="2" fill="#EE6677"/><circle cx="413.0" cy="82.9" r="2" fill="#EE6677"/><circle cx="430.4" cy="87.9" r="2" fill="#EE6677"/><circle cx="447.9" cy="87.0" r="2" fill="#EE6677"/><circle cx="465.3" cy="81.6" r="2" fill="#EE6677"/><circle cx="482.8" cy="85.6" r="2" fill="#EE6677"/><circle cx="500.2" cy="91.2" r="2" fill="#EE6677"/><circle cx="517.7" cy="87.9" r="2" fill="#EE6677"/><circle cx="535.1" cy="82.2" r="2" fill="#EE6677"/><circle cx="552.6" cy="89.3" r="2" fill="#EE6677"/><circle cx="570.0" cy="88.9" r="2" fill="#EE6677"/><rect x="580" y="49" width="10" height="10" fill="#EE6677"/><text x="594" y="58" font-size="10" fill="#444">chain-50</text><path d="M64.0,177.0 L81.4,177.1 L98.9,175.9 L116.3,183.5 L133.8,176.7 L151.2,161.6 L168.7,158.6 L186.1,169.0 L203.6,165.2 L221.0,116.4 L238.5,115.4 L255.9,110.5 L273.4,112.0 L290.8,108.9 L308.3,110.1 L325.7,113.7 L343.2,110.1 L360.6,119.3 L378.1,109.2 L395.5,117.0 L413.0,105.6 L430.4,110.8 L447.9,114.7 L465.3,114.8 L482.8,110.3 L500.2,113.5 L517.7,109.9 L535.1,112.7 L552.6,113.8 L570.0,112.0" fill="none" stroke="#228833" stroke-width="1.6"/><circle cx="64.0" cy="177.0" r="2" fill="#228833"/><circle cx="81.4" cy="177.1" r="2" fill="#228833"/><circle cx="98.9" cy="175.9" r="2" fill="#228833"/><circle cx="116.3" cy="183.5" r="2" fill="#228833"/><circle cx="133.8" cy="176.7" r="2" fill="#228833"/><circle cx="151.2" cy="161.6" r="2" fill="#228833"/><circle cx="168.7" cy="158.6" r="2" fill="#228833"/><circle cx="186.1" cy="169.0" r="2" fill="#228833"/><circle cx="203.6" cy="165.2" r="2" fill="#228833"/><circle cx="221.0" cy="116.4" r="2" fill="#228833"/><circle cx="238.5" cy="115.4" r="2" fill="#228833"/><circle cx="255.9" cy="110.5" r="2" fill="#228833"/><circle cx="273.4" cy="112.0" r="2" fill="#228833"/><circle cx="290.8" cy="108.9" r="2" fill="#228833"/><circle cx="308.3" cy="110.1" r="2" fill="#228833"/><circle cx="325.7" cy="113.7" r="2" fill="#228833"/><circle cx="343.2" cy="110.1" r="2" fill="#228833"/><circle cx="360.6" cy="119.3" r="2" fill="#228833"/><circle cx="378.1" cy="109.2" r="2" fill="#228833"/><circle cx="395.5" cy="117.0" r="2" fill="#228833"/><circle cx="413.0" cy="105.6" r="2" fill="#228833"/><circle cx="430.4" cy="110.8" r="2" fill="#228833"/><circle cx="447.9" cy="114.7" r="2" fill="#228833"/><circle cx="465.3" cy="114.8" r="2" fill="#228833"/><circle cx="482.8" cy="110.3" r="2" fill="#228833"/><circle cx="500.2" cy="113.5" r="2" fill="#228833"/><circle cx="517.7" cy="109.9" r="2" fill="#228833"/><circle cx="535.1" cy="112.7" r="2" fill="#228833"/><circle cx="552.6" cy="113.8" r="2" fill="#228833"/><circle cx="570.0" cy="112.0" r="2" fill="#228833"/><rect x="580" y="64" width="10" height="10" fill="#228833"/><text x="594" y="73" font-size="10" fill="#444">chain-200</text><path d="M64.0,206.6 L81.4,207.1 L98.9,209.1 L116.3,213.0 L133.8,207.6 L151.2,196.0 L168.7,197.9 L186.1,198.3 L203.6,201.7 L221.0,153.3 L238.5,157.1 L255.9,146.8 L273.4,148.2 L290.8,148.9 L308.3,158.2 L325.7,151.9 L343.2,152.9 L360.6,153.5 L378.1,155.5 L395.5,158.5 L413.0,147.0 L430.4,152.9 L447.9,153.8 L465.3,148.1 L482.8,152.5 L500.2,153.3 L517.7,151.7 L535.1,151.2 L552.6,153.3 L570.0,152.9" fill="none" stroke="#CCBB44" stroke-width="1.6"/><circle cx="64.0" cy="206.6" r="2" fill="#CCBB44"/><circle cx="81.4" cy="207.1" r="2" fill="#CCBB44"/><circle cx="98.9" cy="209.1" r="2" fill="#CCBB44"/><circle cx="116.3" cy="213.0" r="2" fill="#CCBB44"/><circle cx="133.8" cy="207.6" r="2" fill="#CCBB44"/><circle cx="151.2" cy="196.0" r="2" fill="#CCBB44"/><circle cx="168.7" cy="197.9" r="2" fill="#CCBB44"/><circle cx="186.1" cy="198.3" r="2" fill="#CCBB44"/><circle cx="203.6" cy="201.7" r="2" fill="#CCBB44"/><circle cx="221.0" cy="153.3" r="2" fill="#CCBB44"/><circle cx="238.5" cy="157.1" r="2" fill="#CCBB44"/><circle cx="255.9" cy="146.8" r="2" fill="#CCBB44"/><circle cx="273.4" cy="148.2" r="2" fill="#CCBB44"/><circle cx="290.8" cy="148.9" r="2" fill="#CCBB44"/><circle cx="308.3" cy="158.2" r="2" fill="#CCBB44"/><circle cx="325.7" cy="151.9" r="2" fill="#CCBB44"/><circle cx="343.2" cy="152.9" r="2" fill="#CCBB44"/><circle cx="360.6" cy="153.5" r="2" fill="#CCBB44"/><circle cx="378.1" cy="155.5" r="2" fill="#CCBB44"/><circle cx="395.5" cy="158.5" r="2" fill="#CCBB44"/><circle cx="413.0" cy="147.0" r="2" fill="#CCBB44"/><circle cx="430.4" cy="152.9" r="2" fill="#CCBB44"/><circle cx="447.9" cy="153.8" r="2" fill="#CCBB44"/><circle cx="465.3" cy="148.1" r="2" fill="#CCBB44"/><circle cx="482.8" cy="152.5" r="2" fill="#CCBB44"/><circle cx="500.2" cy="153.3" r="2" fill="#CCBB44"/><circle cx="517.7" cy="151.7" r="2" fill="#CCBB44"/><circle cx="535.1" cy="151.2" r="2" fill="#CCBB44"/><circle cx="552.6" cy="153.3" r="2" fill="#CCBB44"/><circle cx="570.0" cy="152.9" r="2" fill="#CCBB44"/><rect x="580" y="79" width="10" height="10" fill="#CCBB44"/><text x="594" y="88" font-size="10" fill="#444">chain-1000</text><path d="M64.0,159.8 L81.4,152.8 L98.9,159.9 L116.3,153.3 L133.8,158.3 L151.2,135.0 L168.7,131.7 L186.1,150.1 L203.6,147.3 L221.0,72.6 L238.5,67.9 L255.9,75.4 L273.4,63.2 L290.8,77.6 L308.3,86.0 L325.7,71.2 L343.2,65.1 L360.6,72.9 L378.1,77.3 L395.5,70.3 L413.0,63.9 L430.4,61.0 L447.9,59.6 L465.3,61.7 L482.8,75.9 L500.2,74.1 L517.7,77.7 L535.1,58.6 L552.6,62.0 L570.0,58.2" fill="none" stroke="#66CCEE" stroke-width="1.6"/><circle cx="64.0" cy="159.8" r="2" fill="#66CCEE"/><circle cx="81.4" cy="152.8" r="2" fill="#66CCEE"/><circle cx="98.9" cy="159.9" r="2" fill="#66CCEE"/><circle cx="116.3" cy="153.3" r="2" fill="#66CCEE"/><circle cx="133.8" cy="158.3" r="2" fill="#66CCEE"/><circle cx="151.2" cy="135.0" r="2" fill="#66CCEE"/><circle cx="168.7" cy="131.7" r="2" fill="#66CCEE"/><circle cx="186.1" cy="150.1" r="2" fill="#66CCEE"/><circle cx="203.6" cy="147.3" r="2" fill="#66CCEE"/><circle cx="221.0" cy="72.6" r="2" fill="#66CCEE"/><circle cx="238.5" cy="67.9" r="2" fill="#66CCEE"/><circle cx="255.9" cy="75.4" r="2" fill="#66CCEE"/><circle cx="273.4" cy="63.2" r="2" fill="#66CCEE"/><circle cx="290.8" cy="77.6" r="2" fill="#66CCEE"/><circle cx="308.3" cy="86.0" r="2" fill="#66CCEE"/><circle cx="325.7" cy="71.2" r="2" fill="#66CCEE"/><circle cx="343.2" cy="65.1" r="2" fill="#66CCEE"/><circle cx="360.6" cy="72.9" r="2" fill="#66CCEE"/><circle cx="378.1" cy="77.3" r="2" fill="#66CCEE"/><circle cx="395.5" cy="70.3" r="2" fill="#66CCEE"/><circle cx="413.0" cy="63.9" r="2" fill="#66CCEE"/><circle cx="430.4" cy="61.0" r="2" fill="#66CCEE"/><circle cx="447.9" cy="59.6" r="2" fill="#66CCEE"/><circle cx="465.3" cy="61.7" r="2" fill="#66CCEE"/><circle cx="482.8" cy="75.9" r="2" fill="#66CCEE"/><circle cx="500.2" cy="74.1" r="2" fill="#66CCEE"/><circle cx="517.7" cy="77.7" r="2" fill="#66CCEE"/><circle cx="535.1" cy="58.6" r="2" fill="#66CCEE"/><circle cx="552.6" cy="62.0" r="2" fill="#66CCEE"/><circle cx="570.0" cy="58.2" r="2" fill="#66CCEE"/><rect x="580" y="94" width="10" height="10" fill="#66CCEE"/><text x="594" y="103" font-size="10" fill="#444">dense-10</text><path d="M64.0,199.2 L81.4,197.9 L98.9,194.4 L116.3,203.6 L133.8,192.2 L151.2,184.2 L168.7,184.1 L186.1,186.5 L203.6,192.3 L221.0,124.1 L238.5,121.7 L255.9,136.1 L273.4,127.9 L290.8,117.5 L308.3,120.0 L325.7,116.7 L343.2,115.5 L360.6,122.5 L378.1,117.8 L395.5,114.3 L413.0,118.9 L430.4,124.4 L447.9,117.2 L465.3,112.3 L482.8,116.3 L500.2,125.4 L517.7,120.2 L535.1,121.1 L552.6,126.8 L570.0,118.2" fill="none" stroke="#AA3377" stroke-width="1.6"/><circle cx="64.0" cy="199.2" r="2" fill="#AA3377"/><circle cx="81.4" cy="197.9" r="2" fill="#AA3377"/><circle cx="98.9" cy="194.4" r="2" fill="#AA3377"/><circle cx="116.3" cy="203.6" r="2" fill="#AA3377"/><circle cx="133.8" cy="192.2" r="2" fill="#AA3377"/><circle cx="151.2" cy="184.2" r="2" fill="#AA3377"/><circle cx="168.7" cy="184.1" r="2" fill="#AA3377"/><circle cx="186.1" cy="186.5" r="2" fill="#AA3377"/><circle cx="203.6" cy="192.3" r="2" fill="#AA3377"/><circle cx="221.0" cy="124.1" r="2" fill="#AA3377"/><circle cx="238.5" cy="121.7" r="2" fill="#AA3377"/><circle cx="255.9" cy="136.1" r="2" fill="#AA3377"/><circle cx="273.4" cy="127.9" r="2" fill="#AA3377"/><circle cx="290.8" cy="117.5" r="2" fill="#AA3377"/><circle cx="308.3" cy="120.0" r="2" fill="#AA3377"/><circle cx="325.7" cy="116.7" r="2" fill="#AA3377"/><circle cx="343.2" cy="115.5" r="2" fill="#AA3377"/><circle cx="360.6" cy="122.5" r="2" fill="#AA3377"/><circle cx="378.1" cy="117.8" r="2" fill="#AA3377"/><circle cx="395.5" cy="114.3" r="2" fill="#AA3377"/><circle cx="413.0" cy="118.9" r="2" fill="#AA3377"/><circle cx="430.4" cy="124.4" r="2" fill="#AA3377"/><circle cx="447.9" cy="117.2" r="2" fill="#AA3377"/><circle cx="465.3" cy="112.3" r="2" fill="#AA3377"/><circle cx="482.8" cy="116.3" r="2" fill="#AA3377"/><circle cx="500.2" cy="125.4" r="2" fill="#AA3377"/><circle cx="517.7" cy="120.2" r="2" fill="#AA3377"/><circle cx="535.1" cy="121.1" r="2" fill="#AA3377"/><circle cx="552.6" cy="126.8" r="2" fill="#AA3377"/><circle cx="570.0" cy="118.2" r="2" fill="#AA3377"/><rect x="580" y="109" width="10" height="10" fill="#AA3377"/><text x="594" y="118" font-size="10" fill="#444">dense-50</text><path d="M64.0,219.2 L81.4,226.1 L98.9,231.2 L116.3,231.7 L133.8,229.3 L151.2,221.1 L168.7,217.5 L186.1,222.8 L203.6,221.2 L221.0,173.1 L238.5,173.1 L255.9,171.6 L273.4,172.4 L290.8,169.5 L308.3,170.3 L325.7,178.4 L343.2,169.5 L360.6,175.9 L378.1,167.5 L395.5,168.2 L413.0,166.0 L430.4,167.3 L447.9,169.0 L465.3,168.2 L482.8,170.2 L500.2,166.8 L517.7,171.3 L535.1,171.6 L552.6,168.5 L570.0,170.9" fill="none" stroke="#BBBBBB" stroke-width="1.6"/><circle cx="64.0" cy="219.2" r="2" fill="#BBBBBB"/><circle cx="81.4" cy="226.1" r="2" fill="#BBBBBB"/><circle cx="98.9" cy="231.2" r="2" fill="#BBBBBB"/><circle cx="116.3" cy="231.7" r="2" fill="#BBBBBB"/><circle cx="133.8" cy="229.3" r="2" fill="#BBBBBB"/><circle cx="151.2" cy="221.1" r="2" fill="#BBBBBB"/><circle cx="168.7" cy="217.5" r="2" fill="#BBBBBB"/><circle cx="186.1" cy="222.8" r="2" fill="#BBBBBB"/><circle cx="203.6" cy="221.2" r="2" fill="#BBBBBB"/><circle cx="221.0" cy="173.1" r="2" fill="#BBBBBB"/><circle cx="238.5" cy="173.1" r="2" fill="#BBBBBB"/><circle cx="255.9" cy="171.6" r="2" fill="#BBBBBB"/><circle cx="273.4" cy="172.4" r="2" fill="#BBBBBB"/><circle cx="290.8" cy="169.5" r="2" fill="#BBBBBB"/><circle cx="308.3" cy="170.3" r="2" fill="#BBBBBB"/><circle cx="325.7" cy="178.4" r="2" fill="#BBBBBB"/><circle cx="343.2" cy="169.5" r="2" fill="#BBBBBB"/><circle cx="360.6" cy="175.9" r="2" fill="#BBBBBB"/><circle cx="378.1" cy="167.5" r="2" fill="#BBBBBB"/><circle cx="395.5" cy="168.2" r="2" fill="#BBBBBB"/><circle cx="413.0" cy="166.0" r="2" fill="#BBBBBB"/><circle cx="430.4" cy="167.3" r="2" fill="#BBBBBB"/><circle cx="447.9" cy="169.0" r="2" fill="#BBBBBB"/><circle cx="465.3" cy="168.2" r="2" fill="#BBBBBB"/><circle cx="482.8" cy="170.2" r="2" fill="#BBBBBB"/><circle cx="500.2" cy="166.8" r="2" fill="#BBBBBB"/><circle cx="517.7" cy="171.3" r="2" fill="#BBBBBB"/><circle cx="535.1" cy="171.6" r="2" fill="#BBBBBB"/><circle cx="552.6" cy="168.5" r="2" fill="#BBBBBB"/><circle cx="570.0" cy="170.9" r="2" fill="#BBBBBB"/><rect x="580" y="124" width="10" height="10" fill="#BBBBBB"/><text x="594" y="133" font-size="10" fill="#444">dense-200</text><path d="M64.0,164.3 L81.4,162.4 L98.9,165.3 L116.3,180.6 L133.8,160.9 L151.2,165.9 L168.7,158.2 L186.1,158.1 L203.6,161.5 L221.0,73.0 L238.5,61.6 L255.9,94.9 L273.4,111.4 L290.8,115.9 L308.3,84.3 L325.7,111.3 L343.2,61.9 L360.6,97.0 L378.1,90.8 L395.5,77.5 L413.0,116.0 L430.4,99.8 L447.9,109.9 L465.3,86.7 L482.8,98.8 L500.2,92.6 L517.7,85.3 L535.1,83.6 L552.6,84.0 L570.0,102.5" fill="none" stroke="#222255" stroke-width="1.6"/><circle cx="64.0" cy="164.3" r="2" fill="#222255"/><circle cx="81.4" cy="162.4" r="2" fill="#222255"/><circle cx="98.9" cy="165.3" r="2" fill="#222255"/><circle cx="116.3" cy="180.6" r="2" fill="#222255"/><circle cx="133.8" cy="160.9" r="2" fill="#222255"/><circle cx="151.2" cy="165.9" r="2" fill="#222255"/><circle cx="168.7" cy="158.2" r="2" fill="#222255"/><circle cx="186.1" cy="158.1" r="2" fill="#222255"/><circle cx="203.6" cy="161.5" r="2" fill="#222255"/><circle cx="221.0" cy="73.0" r="2" fill="#222255"/><circle cx="238.5" cy="61.6" r="2" fill="#222255"/><circle cx="255.9" cy="94.9" r="2" fill="#222255"/><circle cx="273.4" cy="111.4" r="2" fill="#222255"/><circle cx="290.8" cy="115.9" r="2" fill="#222255"/><circle cx="308.3" cy="84.3" r="2" fill="#222255"/><circle cx="325.7" cy="111.3" r="2" fill="#222255"/><circle cx="343.2" cy="61.9" r="2" fill="#222255"/><circle cx="360.6" cy="97.0" r="2" fill="#222255"/><circle cx="378.1" cy="90.8" r="2" fill="#222255"/><circle cx="395.5" cy="77.5" r="2" fill="#222255"/><circle cx="413.0" cy="116.0" r="2" fill="#222255"/><circle cx="430.4" cy="99.8" r="2" fill="#222255"/><circle cx="447.9" cy="109.9" r="2" fill="#222255"/><circle cx="465.3" cy="86.7" r="2" fill="#222255"/><circle cx="482.8" cy="98.8" r="2" fill="#222255"/><circle cx="500.2" cy="92.6" r="2" fill="#222255"/><circle cx="517.7" cy="85.3" r="2" fill="#222255"/><circle cx="535.1" cy="83.6" r="2" fill="#222255"/><circle cx="552.6" cy="84.0" r="2" fill="#222255"/><circle cx="570.0" cy="102.5" r="2" fill="#222255"/><rect x="580" y="139" width="10" height="10" fill="#222255"/><text x="594" y="148" font-size="10" fill="#444">hub-50</text><path d="M64.0,154.5 L81.4,166.9 L98.9,161.6 L116.3,174.8 L133.8,160.7 L151.2,146.3 L168.7,141.1 L186.1,164.8 L203.6,169.9 L221.0,69.2 L238.5,67.3 L255.9,70.8 L273.4,68.8 L290.8,72.1 L308.3,85.1 L325.7,83.5 L343.2,87.7 L360.6,76.2 L378.1,79.4 L395.5,60.3 L413.0,111.5 L430.4,92.9 L447.9,101.3 L465.3,83.0 L482.8,68.4 L500.2,81.7 L517.7,84.8 L535.1,68.8 L552.6,81.1 L570.0,60.9" fill="none" stroke="#225555" stroke-width="1.6"/><circle cx="64.0" cy="154.5" r="2" fill="#225555"/><circle cx="81.4" cy="166.9" r="2" fill="#225555"/><circle cx="98.9" cy="161.6" r="2" fill="#225555"/><circle cx="116.3" cy="174.8" r="2" fill="#225555"/><circle cx="133.8" cy="160.7" r="2" fill="#225555"/><circle cx="151.2" cy="146.3" r="2" fill="#225555"/><circle cx="168.7" cy="141.1" r="2" fill="#225555"/><circle cx="186.1" cy="164.8" r="2" fill="#225555"/><circle cx="203.6" cy="169.9" r="2" fill="#225555"/><circle cx="221.0" cy="69.2" r="2" fill="#225555"/><circle cx="238.5" cy="67.3" r="2" fill="#225555"/><circle cx="255.9" cy="70.8" r="2" fill="#225555"/><circle cx="273.4" cy="68.8" r="2" fill="#225555"/><circle cx="290.8" cy="72.1" r="2" fill="#225555"/><circle cx="308.3" cy="85.1" r="2" fill="#225555"/><circle cx="325.7" cy="83.5" r="2" fill="#225555"/><circle cx="343.2" cy="87.7" r="2" fill="#225555"/><circle cx="360.6" cy="76.2" r="2" fill="#225555"/><circle cx="378.1" cy="79.4" r="2" fill="#225555"/><circle cx="395.5" cy="60.3" r="2" fill="#225555"/><circle cx="413.0" cy="111.5" r="2" fill="#225555"/><circle cx="430.4" cy="92.9" r="2" fill="#225555"/><circle cx="447.9" cy="101.3" r="2" fill="#225555"/><circle cx="465.3" cy="83.0" r="2" fill="#225555"/><circle cx="482.8" cy="68.4" r="2" fill="#225555"/><circle cx="500.2" cy="81.7" r="2" fill="#225555"/><circle cx="517.7" cy="84.8" r="2" fill="#225555"/><circle cx="535.1" cy="68.8" r="2" fill="#225555"/><circle cx="552.6" cy="81.1" r="2" fill="#225555"/><circle cx="570.0" cy="60.9" r="2" fill="#225555"/><rect x="580" y="154" width="10" height="10" fill="#225555"/><text x="594" y="163" font-size="10" fill="#444">hub-200</text><path d="M64.0,188.5 L81.4,207.1 L98.9,187.1 L116.3,206.3 L133.8,201.8 L151.2,173.3 L168.7,201.9 L186.1,187.7 L203.6,182.2 L221.0,141.2 L238.5,119.9 L255.9,98.6 L273.4,128.5 L290.8,98.2 L308.3,129.7 L325.7,118.4 L343.2,122.6 L360.6,111.5 L378.1,129.1 L395.5,116.9 L413.0,129.3 L430.4,128.4 L447.9,122.8 L465.3,123.1 L482.8,125.8 L500.2,139.0 L517.7,127.2 L535.1,133.0 L552.6,140.0 L570.0,121.2" fill="none" stroke="#552222" stroke-width="1.6"/><circle cx="64.0" cy="188.5" r="2" fill="#552222"/><circle cx="81.4" cy="207.1" r="2" fill="#552222"/><circle cx="98.9" cy="187.1" r="2" fill="#552222"/><circle cx="116.3" cy="206.3" r="2" fill="#552222"/><circle cx="133.8" cy="201.8" r="2" fill="#552222"/><circle cx="151.2" cy="173.3" r="2" fill="#552222"/><circle cx="168.7" cy="201.9" r="2" fill="#552222"/><circle cx="186.1" cy="187.7" r="2" fill="#552222"/><circle cx="203.6" cy="182.2" r="2" fill="#552222"/><circle cx="221.0" cy="141.2" r="2" fill="#552222"/><circle cx="238.5" cy="119.9" r="2" fill="#552222"/><circle cx="255.9" cy="98.6" r="2" fill="#552222"/><circle cx="273.4" cy="128.5" r="2" fill="#552222"/><circle cx="290.8" cy="98.2" r="2" fill="#552222"/><circle cx="308.3" cy="129.7" r="2" fill="#552222"/><circle cx="325.7" cy="118.4" r="2" fill="#552222"/><circle cx="343.2" cy="122.6" r="2" fill="#552222"/><circle cx="360.6" cy="111.5" r="2" fill="#552222"/><circle cx="378.1" cy="129.1" r="2" fill="#552222"/><circle cx="395.5" cy="116.9" r="2" fill="#552222"/><circle cx="413.0" cy="129.3" r="2" fill="#552222"/><circle cx="430.4" cy="128.4" r="2" fill="#552222"/><circle cx="447.9" cy="122.8" r="2" fill="#552222"/><circle cx="465.3" cy="123.1" r="2" fill="#552222"/><circle cx="482.8" cy="125.8" r="2" fill="#552222"/><circle cx="500.2" cy="139.0" r="2" fill="#552222"/><circle cx="517.7" cy="127.2" r="2" fill="#552222"/><circle cx="535.1" cy="133.0" r="2" fill="#552222"/><circle cx="552.6" cy="140.0" r="2" fill="#552222"/><circle cx="570.0" cy="121.2" r="2" fill="#552222"/><rect x="580" y="169" width="10" height="10" fill="#552222"/><text x="594" y="178" font-size="10" fill="#444">messy-1000</text><path d="M64.0,222.7 L81.4,225.3 L98.9,223.9 L116.3,232.3 L133.8,216.4 L151.2,217.4 L168.7,215.9 L186.1,223.7 L203.6,222.2 L221.0,171.0 L238.5,177.3 L255.9,182.9 L273.4,173.3 L290.8,186.0 L308.3,196.8 L325.7,173.2 L343.2,172.0 L360.6,182.8 L378.1,156.3 L395.5,165.2 L413.0,186.1 L430.4,172.8 L447.9,156.3 L465.3,171.0 L482.8,168.7 L500.2,161.7 L517.7,161.8 L535.1,172.4 L552.6,178.5 L570.0,167.3" fill="none" stroke="#555522" stroke-width="1.6"/><circle cx="64.0" cy="222.7" r="2" fill="#555522"/><circle cx="81.4" cy="225.3" r="2" fill="#555522"/><circle cx="98.9" cy="223.9" r="2" fill="#555522"/><circle cx="116.3" cy="232.3" r="2" fill="#555522"/><circle cx="133.8" cy="216.4" r="2" fill="#555522"/><circle cx="151.2" cy="217.4" r="2" fill="#555522"/><circle cx="168.7" cy="215.9" r="2" fill="#555522"/><circle cx="186.1" cy="223.7" r="2" fill="#555522"/><circle cx="203.6" cy="222.2" r="2" fill="#555522"/><circle cx="221.0" cy="171.0" r="2" fill="#555522"/><circle cx="238.5" cy="177.3" r="2" fill="#555522"/><circle cx="255.9" cy="182.9" r="2" fill="#555522"/><circle cx="273.4" cy="173.3" r="2" fill="#555522"/><circle cx="290.8" cy="186.0" r="2" fill="#555522"/><circle cx="308.3" cy="196.8" r="2" fill="#555522"/><circle cx="325.7" cy="173.2" r="2" fill="#555522"/><circle cx="343.2" cy="172.0" r="2" fill="#555522"/><circle cx="360.6" cy="182.8" r="2" fill="#555522"/><circle cx="378.1" cy="156.3" r="2" fill="#555522"/><circle cx="395.5" cy="165.2" r="2" fill="#555522"/><circle cx="413.0" cy="186.1" r="2" fill="#555522"/><circle cx="430.4" cy="172.8" r="2" fill="#555522"/><circle cx="447.9" cy="156.3" r="2" fill="#555522"/><circle cx="465.3" cy="171.0" r="2" fill="#555522"/><circle cx="482.8" cy="168.7" r="2" fill="#555522"/><circle cx="500.2" cy="161.7" r="2" fill="#555522"/><circle cx="517.7" cy="161.8" r="2" fill="#555522"/><circle cx="535.1" cy="172.4" r="2" fill="#555522"/><circle cx="552.6" cy="178.5" r="2" fill="#555522"/><circle cx="570.0" cy="167.3" r="2" fill="#555522"/><rect x="580" y="184" width="10" height="10" fill="#555522"/><text x="594" y="193" font-size="10" fill="#444">messy-5000</text><path d="M64.0,298.1 L81.4,297.0 L98.9,293.0 L116.3,299.8 L133.8,291.4 L151.2,265.7 L168.7,261.8 L186.1,282.3 L203.6,269.4 L221.0,241.4 L238.5,240.7 L255.9,240.6 L273.4,237.6 L290.8,239.6 L308.3,244.8 L325.7,245.2 L343.2,245.2 L360.6,242.2 L378.1,243.2 L395.5,236.5 L413.0,252.9 L430.4,245.8 L447.9,253.2 L465.3,243.1 L482.8,238.7 L500.2,245.6 L517.7,242.7 L535.1,241.2 L552.6,242.8 L570.0,234.9" fill="none" stroke="#8855AA" stroke-width="1.6"/><circle cx="64.0" cy="298.1" r="2" fill="#8855AA"/><circle cx="81.4" cy="297.0" r="2" fill="#8855AA"/><circle cx="98.9" cy="293.0" r="2" fill="#8855AA"/><circle cx="116.3" cy="299.8" r="2" fill="#8855AA"/><circle cx="133.8" cy="291.4" r="2" fill="#8855AA"/><circle cx="151.2" cy="265.7" r="2" fill="#8855AA"/><circle cx="168.7" cy="261.8" r="2" fill="#8855AA"/><circle cx="186.1" cy="282.3" r="2" fill="#8855AA"/><circle cx="203.6" cy="269.4" r="2" fill="#8855AA"/><circle cx="221.0" cy="241.4" r="2" fill="#8855AA"/><circle cx="238.5" cy="240.7" r="2" fill="#8855AA"/><circle cx="255.9" cy="240.6" r="2" fill="#8855AA"/><circle cx="273.4" cy="237.6" r="2" fill="#8855AA"/><circle cx="290.8" cy="239.6" r="2" fill="#8855AA"/><circle cx="308.3" cy="244.8" r="2" fill="#8855AA"/><circle cx="325.7" cy="245.2" r="2" fill="#8855AA"/><circle cx="343.2" cy="245.2" r="2" fill="#8855AA"/><circle cx="360.6" cy="242.2" r="2" fill="#8855AA"/><circle cx="378.1" cy="243.2" r="2" fill="#8855AA"/><circle cx="395.5" cy="236.5" r="2" fill="#8855AA"/><circle cx="413.0" cy="252.9" r="2" fill="#8855AA"/><circle cx="430.4" cy="245.8" r="2" fill="#8855AA"/><circle cx="447.9" cy="253.2" r="2" fill="#8855AA"/><circle cx="465.3" cy="243.1" r="2" fill="#8855AA"/><circle cx="482.8" cy="238.7" r="2" fill="#8855AA"/><circle cx="500.2" cy="245.6" r="2" fill="#8855AA"/><circle cx="517.7" cy="242.7" r="2" fill="#8855AA"/><circle cx="535.1" cy="241.2" r="2" fill="#8855AA"/><circle cx="552.6" cy="242.8" r="2" fill="#8855AA"/><circle cx="570.0" cy="234.9" r="2" fill="#8855AA"/><rect x="580" y="199" width="10" height="10" fill="#8855AA"/><text x="594" y="208" font-size="10" fill="#444">hooked-200</text></svg>