<svg width="720" height="372" xmlns="http://www.w3.org/2000/svg"><rect width="720" height="372" fill="#ffffff"/><text x="64" y="20" font-size="15" font-weight="bold" fill="#333">probable_action_exits() — ops/sec (linear scale, last 50) by PR / release, c8g.medium</text><line x1="74.3" y1="34" x2="74.3" y2="324" stroke="#e8e8e8"/><line x1="84.7" y1="34" x2="84.7" y2="324" stroke="#e8e8e8"/><line x1="95.0" y1="34" x2="95.0" y2="324" stroke="#e8e8e8"/><line x1="105.3" y1="34" x2="105.3" y2="324" stroke="#e8e8e8"/><line x1="126.0" y1="34" x2="126.0" y2="324" stroke="#e8e8e8"/><line x1="136.3" y1="34" x2="136.3" y2="324" stroke="#e8e8e8"/><line x1="146.6" y1="34" x2="146.6" y2="324" stroke="#e8e8e8"/><line x1="156.9" y1="34" x2="156.9" y2="324" stroke="#e8e8e8"/><line x1="177.6" y1="34" x2="177.6" y2="324" stroke="#e8e8e8"/><line x1="187.9" y1="34" x2="187.9" y2="324" stroke="#e8e8e8"/><line x1="198.2" y1="34" x2="198.2" y2="324" stroke="#e8e8e8"/><line x1="208.6" y1="34" x2="208.6" y2="324" stroke="#e8e8e8"/><line x1="229.2" y1="34" x2="229.2" y2="324" stroke="#e8e8e8"/><line x1="239.6" y1="34" x2="239.6" y2="324" stroke="#e8e8e8"/><line x1="249.9" y1="34" x2="249.9" y2="324" stroke="#e8e8e8"/><line x1="260.2" y1="34" x2="260.2" y2="324" stroke="#e8e8e8"/><line x1="280.9" y1="34" x2="280.9" y2="324" stroke="#e8e8e8"/><line x1="291.2" y1="34" x2="291.2" y2="324" stroke="#e8e8e8"/><line x1="301.5" y1="34" x2="301.5" y2="324" stroke="#e8e8e8"/><line x1="311.8" y1="34" x2="311.8" y2="324" stroke="#e8e8e8"/><line x1="332.5" y1="34" x2="332.5" y2="324" stroke="#e8e8e8"/><line x1="342.8" y1="34" x2="342.8" y2="324" stroke="#e8e8e8"/><line x1="353.1" y1="34" x2="353.1" y2="324" stroke="#e8e8e8"/><line x1="363.5" y1="34" x2="363.5" y2="324" stroke="#e8e8e8"/><line x1="384.1" y1="34" x2="384.1" y2="324" stroke="#e8e8e8"/><line x1="394.4" y1="34" x2="394.4" y2="324" stroke="#e8e8e8"/><line x1="404.8" y1="34" x2="404.8" y2="324" stroke="#e8e8e8"/><line x1="415.1" y1="34" x2="415.1" y2="324" stroke="#e8e8e8"/><line x1="435.8" y1="34" x2="435.8" y2="324" stroke="#e8e8e8"/><line x1="446.1" y1="34" x2="446.1" y2="324" stroke="#e8e8e8"/><line x1="456.4" y1="34" x2="456.4" y2="324" stroke="#e8e8e8"/><line x1="466.7" y1="34" x2="466.7" y2="324" stroke="#e8e8e8"/><line x1="487.4" y1="34" x2="487.4" y2="324" stroke="#e8e8e8"/><line x1="497.7" y1="34" x2="497.7" y2="324" stroke="#e8e8e8"/><line x1="508.0" y1="34" x2="508.0" y2="324" stroke="#e8e8e8"/><line x1="518.4" y1="34" x2="518.4" y2="324" stroke="#e8e8e8"/><line x1="539.0" y1="34" x2="539.0" y2="324" stroke="#e8e8e8"/><line x1="549.3" y1="34" x2="549.3" y2="324" stroke="#e8e8e8"/><line x1="559.7" y1="34" x2="559.7" y2="324" stroke="#e8e8e8"/><line x1="570.0" y1="34" x2="570.0" y2="324" stroke="#e8e8e8"/><line x1="64.0" y1="34" x2="64.0" y2="324" stroke="#d0d0d0"/><line x1="115.6" y1="34" x2="115.6" y2="324" stroke="#d0d0d0"/><line x1="167.3" y1="34" x2="167.3" y2="324" stroke="#d0d0d0"/><line x1="218.9" y1="34" x2="218.9" y2="324" stroke="#d0d0d0"/><line x1="270.5" y1="34" x2="270.5" y2="324" stroke="#d0d0d0"/><line x1="322.2" y1="34" x2="322.2" y2="324" stroke="#d0d0d0"/><line x1="373.8" y1="34" x2="373.8" y2="324" stroke="#d0d0d0"/><line x1="425.4" y1="34" x2="425.4" y2="324" stroke="#d0d0d0"/><line x1="477.1" y1="34" x2="477.1" y2="324" stroke="#d0d0d0"/><line x1="528.7" y1="34" x2="528.7" y2="324" stroke="#d0d0d0"/><line x1="64" y1="324.0" x2="570" y2="324.0" stroke="#b0b0b0"/><text x="58" y="328.0" font-size="10" text-anchor="end" fill="#888">-17.3k</text><line x1="64" y1="266.0" x2="570" y2="266.0" stroke="#b0b0b0"/><text x="58" y="270.0" font-size="10" text-anchor="end" fill="#888">27.3k</text><line x1="64" y1="208.0" x2="570" y2="208.0" stroke="#b0b0b0"/><text x="58" y="212.0" font-size="10" text-anchor="end" fill="#888">71.8k</text><line x1="64" y1="150.0" x2="570" y2="150.0" stroke="#b0b0b0"/><text x="58" y="154.0" font-size="10" text-anchor="end" fill="#888">116.4k</text><line x1="64" y1="92.0" x2="570" y2="92.0" stroke="#b0b0b0"/><text x="58" y="96.0" font-size="10" text-anchor="end" fill="#888">160.9k</text><line x1="64" y1="34.0" x2="570" y2="34.0" stroke="#b0b0b0"/><text x="58" y="38.0" font-size="10" text-anchor="end" fill="#888">205.4k</text><text x="64.0" y="327.2" font-size="4" text-anchor="end" fill="#aa4400" transform="rotate(-80 64.0 327.2)">v5.148.2</text><text x="74.3" y="327.2" font-size="4" text-anchor="end" fill="#aa4400" transform="rotate(-80 74.3 327.2)">v5.149.1</text><text x="84.7" y="327.2" font-size="4" text-anchor="end" fill="#d6a382" transform="rotate(-80 84.7 327.2)">v5.149.2</text><text x="95.0" y="327.2" font-size="4" text-anchor="end" fill="#aa4400" transform="rotate(-80 95.0 327.2)">v5.150.0</text><text x="105.3" y="327.2" font-size="4" text-anchor="end" fill="#d6a382" transform="rotate(-80 105.3 327.2)">v5.150.1</text><text x="115.6" y="327.2" font-size="4" text-anchor="end" fill="#aa4400" transform="rotate(-80 115.6 327.2)">v5.151.0</text><text x="126.0" y="327.2" font-size="4" text-anchor="end" fill="#d6a382" transform="rotate(-80 126.0 327.2)">v5.151.1</text><text x="136.3" y="327.2" font-size="4" text-anchor="end" fill="#d6a382" transform="rotate(-80 136.3 327.2)">v5.151.2</text><text x="146.6" y="327.2" font-size="4" text-anchor="end" fill="#aa4400" transform="rotate(-80 146.6 327.2)">v5.152.0</text><text x="156.9" y="327.2" font-size="4" text-anchor="end" fill="#aa4400" transform="rotate(-80 156.9 327.2)">v5.153.0</text><text x="167.3" y="327.2" font-size="4" text-anchor="end" fill="#aa4400" transform="rotate(-80 167.3 327.2)">v5.154.0</text><text x="177.6" y="327.2" font-size="4" text-anchor="end" fill="#aa4400" transform="rotate(-80 177.6 327.2)">v5.155.0</text><text x="187.9" y="327.2" font-size="4" text-anchor="end" fill="#d6a382" transform="rotate(-80 187.9 327.2)">v5.155.1</text><text x="198.2" y="327.2" font-size="4" text-anchor="end" fill="#aa4400" transform="rotate(-80 198.2 327.2)">v5.156.0</text><text x="208.6" y="327.2" font-size="4" text-anchor="end" fill="#d6a382" transform="rotate(-80 208.6 327.2)">v5.156.1</text><text x="218.9" y="327.2" font-size="4" text-anchor="end" fill="#aa4400" transform="rotate(-80 218.9 327.2)">v5.157.0</text><text x="229.2" y="327.2" font-size="4" text-anchor="end" fill="#d6a382" transform="rotate(-80 229.2 327.2)">v5.157.1</text><text x="239.6" y="327.2" font-size="4" text-anchor="end" fill="#d6a382" transform="rotate(-80 239.6 327.2)">v5.157.2</text><text x="249.9" y="327.2" font-size="4" text-anchor="end" fill="#d6a382" transform="rotate(-80 249.9 327.2)">v5.157.3</text><text x="260.2" y="327.2" font-size="4" text-anchor="end" fill="#d6a382" transform="rotate(-80 260.2 327.2)">v5.157.4</text><text x="270.5" y="327.2" font-size="4" text-anchor="end" fill="#d6a382" transform="rotate(-80 270.5 327.2)">v5.157.5</text><text x="280.9" y="327.2" font-size="4" text-anchor="end" fill="#d6a382" transform="rotate(-80 280.9 327.2)">v5.157.6</text><text x="291.2" y="327.2" font-size="4" text-anchor="end" fill="#d6a382" transform="rotate(-80 291.2 327.2)">v5.157.7</text><text x="301.5" y="327.2" font-size="4" text-anchor="end" fill="#d6a382" transform="rotate(-80 301.5 327.2)">v5.157.8</text><text x="311.8" y="327.2" font-size="4" text-anchor="end" fill="#d6a382" transform="rotate(-80 311.8 327.2)">v5.157.9</text><text x="322.2" y="327.2" font-size="4" text-anchor="end" fill="#d6a382" transform="rotate(-80 322.2 327.2)">v5.157.10</text><text x="332.5" y="327.2" font-size="4" text-anchor="end" fill="#d6a382" transform="rotate(-80 332.5 327.2)">v5.157.11</text><text x="342.8" y="327.2" font-size="4" text-anchor="end" fill="#d6a382" transform="rotate(-80 342.8 327.2)">v5.157.12</text><text x="353.1" y="327.2" font-size="4" text-anchor="end" fill="#d6a382" transform="rotate(-80 353.1 327.2)">v5.157.13</text><text x="363.5" y="327.2" font-size="4" text-anchor="end" fill="#d6a382" transform="rotate(-80 363.5 327.2)">v5.157.14</text><text x="373.8" y="327.2" font-size="4" text-anchor="end" fill="#d6a382" transform="rotate(-80 373.8 327.2)">v5.157.15</text><text x="384.1" y="327.2" font-size="4" text-anchor="end" fill="#d6a382" transform="rotate(-80 384.1 327.2)">v5.157.16</text><text x="394.4" y="327.2" font-size="4" text-anchor="end" fill="#d6a382" transform="rotate(-80 394.4 327.2)">v5.157.17</text><text x="404.8" y="327.2" font-size="4" text-anchor="end" fill="#d6a382" transform="rotate(-80 404.8 327.2)">v5.157.18</text><text x="415.1" y="327.2" font-size="4" text-anchor="end" fill="#aa4400" transform="rotate(-80 415.1 327.2)">v5.158.0</text><text x="425.4" y="327.2" font-size="4" text-anchor="end" fill="#d6a382" transform="rotate(-80 425.4 327.2)">v5.158.1</text><text x="435.8" y="327.2" font-size="4" text-anchor="end" fill="#d6a382" transform="rotate(-80 435.8 327.2)">v5.158.2</text><text x="446.1" y="327.2" font-size="4" text-anchor="end" fill="#aa4400" transform="rotate(-80 446.1 327.2)">v5.159.0</text><text x="456.4" y="327.2" font-size="4" text-anchor="end" fill="#d6a382" transform="rotate(-80 456.4 327.2)">v5.159.1</text><text x="466.7" y="327.2" font-size="4" text-anchor="end" fill="#d6a382" transform="rotate(-80 466.7 327.2)">v5.159.2</text><text x="477.1" y="327.2" font-size="4" text-anchor="end" fill="#aa4400" transform="rotate(-80 477.1 327.2)">v5.160.0</text><text x="487.4" y="327.2" font-size="4" text-anchor="end" fill="#aa4400" transform="rotate(-80 487.4 327.2)">v5.161.0</text><text x="497.7" y="327.2" font-size="4" text-anchor="end" fill="#aa4400" transform="rotate(-80 497.7 327.2)">v5.162.0</text><text x="508.0" y="327.2" font-size="4" text-anchor="end" fill="#d6a382" transform="rotate(-80 508.0 327.2)">v5.162.1</text><text x="518.4" y="327.2" font-size="4" text-anchor="end" fill="#d6a382" transform="rotate(-80 518.4 327.2)">v5.162.2</text><text x="528.7" y="327.2" font-size="4" text-anchor="end" fill="#d6a382" transform="rotate(-80 528.7 327.2)">v5.162.3</text><text x="539.0" y="327.2" font-size="4" text-anchor="end" fill="#d6a382" transform="rotate(-80 539.0 327.2)">v5.162.4</text><text x="549.3" y="327.2" font-size="4" text-anchor="end" fill="#d6a382" transform="rotate(-80 549.3 327.2)">v5.162.5</text><text x="559.7" y="327.2" font-size="4" text-anchor="end" fill="#d6a382" transform="rotate(-80 559.7 327.2)">v5.162.6</text><text x="570.0" y="327.2" font-size="4" text-anchor="end" fill="#d6a382" transform="rotate(-80 570.0 327.2)">v5.162.7</text><path d="M64.0,109.8 L74.3,98.1 L84.7,101.2 L95.0,109.4 L105.3,100.7 L115.6,97.4 L126.0,109.8 L136.3,101.7 L146.6,104.9 L156.9,99.3 L167.3,102.6 L177.6,101.5 L187.9,99.6 L198.2,100.0 L208.6,96.2 L218.9,101.1 L229.2,103.1 L239.6,104.8 L249.9,98.0 L260.2,113.0 L270.5,77.2 L280.9,73.7 L291.2,75.8 L301.5,79.4 L311.8,80.6 L322.2,79.0 L332.5,74.4 L342.8,74.9 L353.1,80.1 L363.5,79.7 L373.8,79.4 L384.1,78.1 L394.4,78.1 L404.8,81.5 L415.1,72.6 L425.4,78.8 L435.8,77.7 L446.1,75.1 L456.4,77.4 L466.7,73.8 L477.1,68.9 L487.4,78.9 L497.7,75.3 L508.0,73.2 L518.4,61.9 L528.7,58.2 L539.0,62.6 L549.3,74.6 L559.7,64.2 L570.0,61.5" fill="none" stroke="#4477AA" stroke-width="1.6"/><circle cx="64.0" cy="109.8" r="2" fill="#4477AA"/><circle cx="74.3" cy="98.1" r="2" fill="#4477AA"/><circle cx="84.7" cy="101.2" r="2" fill="#4477AA"/><circle cx="95.0" cy="109.4" r="2" fill="#4477AA"/><circle cx="105.3" cy="100.7" r="2" fill="#4477AA"/><circle cx="115.6" cy="97.4" r="2" fill="#4477AA"/><circle cx="126.0" cy="109.8" r="2" fill="#4477AA"/><circle cx="136.3" cy="101.7" r="2" fill="#4477AA"/><circle cx="146.6" cy="104.9" r="2" fill="#4477AA"/><circle cx="156.9" cy="99.3" r="2" fill="#4477AA"/><circle cx="167.3" cy="102.6" r="2" fill="#4477AA"/><circle cx="177.6" cy="101.5" r="2" fill="#4477AA"/><circle cx="187.9" cy="99.6" r="2" fill="#4477AA"/><circle cx="198.2" cy="100.0" r="2" fill="#4477AA"/><circle cx="208.6" cy="96.2" r="2" fill="#4477AA"/><circle cx="218.9" cy="101.1" r="2" fill="#4477AA"/><circle cx="229.2" cy="103.1" r="2" fill="#4477AA"/><circle cx="239.6" cy="104.8" r="2" fill="#4477AA"/><circle cx="249.9" cy="98.0" r="2" fill="#4477AA"/><circle cx="260.2" cy="113.0" r="2" fill="#4477AA"/><circle cx="270.5" cy="77.2" r="2" fill="#4477AA"/><circle cx="280.9" cy="73.7" r="2" fill="#4477AA"/><circle cx="291.2" cy="75.8" r="2" fill="#4477AA"/><circle cx="301.5" cy="79.4" r="2" fill="#4477AA"/><circle cx="311.8" cy="80.6" r="2" fill="#4477AA"/><circle cx="322.2" cy="79.0" r="2" fill="#4477AA"/><circle cx="332.5" cy="74.4" r="2" fill="#4477AA"/><circle cx="342.8" cy="74.9" r="2" fill="#4477AA"/><circle cx="353.1" cy="80.1" r="2" fill="#4477AA"/><circle cx="363.5" cy="79.7" r="2" fill="#4477AA"/><circle cx="373.8" cy="79.4" r="2" fill="#4477AA"/><circle cx="384.1" cy="78.1" r="2" fill="#4477AA"/><circle cx="394.4" cy="78.1" r="2" fill="#4477AA"/><circle cx="404.8" cy="81.5" r="2" fill="#4477AA"/><circle cx="415.1" cy="72.6" r="2" fill="#4477AA"/><circle cx="425.4" cy="78.8" r="2" fill="#4477AA"/><circle cx="435.8" cy="77.7" r="2" fill="#4477AA"/><circle cx="446.1" cy="75.1" r="2" fill="#4477AA"/><circle cx="456.4" cy="77.4" r="2" fill="#4477AA"/><circle cx="466.7" cy="73.8" r="2" fill="#4477AA"/><circle cx="477.1" cy="68.9" r="2" fill="#4477AA"/><circle cx="487.4" cy="78.9" r="2" fill="#4477AA"/><circle cx="497.7" cy="75.3" r="2" fill="#4477AA"/><circle cx="508.0" cy="73.2" r="2" fill="#4477AA"/><circle cx="518.4" cy="61.9" r="2" fill="#4477AA"/><circle cx="528.7" cy="58.2" r="2" fill="#4477AA"/><circle cx="539.0" cy="62.6" r="2" fill="#4477AA"/><circle cx="549.3" cy="74.6" r="2" fill="#4477AA"/><circle cx="559.7" cy="64.2" r="2" fill="#4477AA"/><circle cx="570.0" cy="61.5" r="2" fill="#4477AA"/><rect x="580" y="34" width="10" height="10" fill="#4477AA"/><text x="594" y="43" font-size="10" fill="#444">chain-10</text><path d="M64.0,116.4 L74.3,103.8 L84.7,109.6 L95.0,116.1 L105.3,102.9 L115.6,104.4 L126.0,111.7 L136.3,100.7 L146.6,112.4 L156.9,109.7 L167.3,117.7 L177.6,105.1 L187.9,111.3 L198.2,101.0 L208.6,109.1 L218.9,106.9 L229.2,107.0 L239.6,111.0 L249.9,105.0 L260.2,123.3 L270.5,82.3 L280.9,82.3 L291.2,83.7 L301.5,83.6 L311.8,81.7 L322.2,81.8 L332.5,77.3 L342.8,77.2 L353.1,82.4 L363.5,80.8 L373.8,78.6 L384.1,81.4 L394.4,82.2 L404.8,80.6 L415.1,76.0 L425.4,80.8 L435.8,81.3 L446.1,75.6 L456.4,80.3 L466.7,78.6 L477.1,80.0 L487.4,82.2 L497.7,84.5 L508.0,82.2 L518.4,63.7 L528.7,68.2 L539.0,69.9 L549.3,77.4 L559.7,65.8 L570.0,72.2" fill="none" stroke="#EE6677" stroke-width="1.6"/><circle cx="64.0" cy="116.4" r="2" fill="#EE6677"/><circle cx="74.3" cy="103.8" r="2" fill="#EE6677"/><circle cx="84.7" cy="109.6" r="2" fill="#EE6677"/><circle cx="95.0" cy="116.1" r="2" fill="#EE6677"/><circle cx="105.3" cy="102.9" r="2" fill="#EE6677"/><circle cx="115.6" cy="104.4" r="2" fill="#EE6677"/><circle cx="126.0" cy="111.7" r="2" fill="#EE6677"/><circle cx="136.3" cy="100.7" r="2" fill="#EE6677"/><circle cx="146.6" cy="112.4" r="2" fill="#EE6677"/><circle cx="156.9" cy="109.7" r="2" fill="#EE6677"/><circle cx="167.3" cy="117.7" r="2" fill="#EE6677"/><circle cx="177.6" cy="105.1" r="2" fill="#EE6677"/><circle cx="187.9" cy="111.3" r="2" fill="#EE6677"/><circle cx="198.2" cy="101.0" r="2" fill="#EE6677"/><circle cx="208.6" cy="109.1" r="2" fill="#EE6677"/><circle cx="218.9" cy="106.9" r="2" fill="#EE6677"/><circle cx="229.2" cy="107.0" r="2" fill="#EE6677"/><circle cx="239.6" cy="111.0" r="2" fill="#EE6677"/><circle cx="249.9" cy="105.0" r="2" fill="#EE6677"/><circle cx="260.2" cy="123.3" r="2" fill="#EE6677"/><circle cx="270.5" cy="82.3" r="2" fill="#EE6677"/><circle cx="280.9" cy="82.3" r="2" fill="#EE6677"/><circle cx="291.2" cy="83.7" r="2" fill="#EE6677"/><circle cx="301.5" cy="83.6" r="2" fill="#EE6677"/><circle cx="311.8" cy="81.7" r="2" fill="#EE6677"/><circle cx="322.2" cy="81.8" r="2" fill="#EE6677"/><circle cx="332.5" cy="77.3" r="2" fill="#EE6677"/><circle cx="342.8" cy="77.2" r="2" fill="#EE6677"/><circle cx="353.1" cy="82.4" r="2" fill="#EE6677"/><circle cx="363.5" cy="80.8" r="2" fill="#EE6677"/><circle cx="373.8" cy="78.6" r="2" fill="#EE6677"/><circle cx="384.1" cy="81.4" r="2" fill="#EE6677"/><circle cx="394.4" cy="82.2" r="2" fill="#EE6677"/><circle cx="404.8" cy="80.6" r="2" fill="#EE6677"/><circle cx="415.1" cy="76.0" r="2" fill="#EE6677"/><circle cx="425.4" cy="80.8" r="2" fill="#EE6677"/><circle cx="435.8" cy="81.3" r="2" fill="#EE6677"/><circle cx="446.1" cy="75.6" r="2" fill="#EE6677"/><circle cx="456.4" cy="80.3" r="2" fill="#EE6677"/><circle cx="466.7" cy="78.6" r="2" fill="#EE6677"/><circle cx="477.1" cy="80.0" r="2" fill="#EE6677"/><circle cx="487.4" cy="82.2" r="2" fill="#EE6677"/><circle cx="497.7" cy="84.5" r="2" fill="#EE6677"/><circle cx="508.0" cy="82.2" r="2" fill="#EE6677"/><circle cx="518.4" cy="63.7" r="2" fill="#EE6677"/><circle cx="528.7" cy="68.2" r="2" fill="#EE6677"/><circle cx="539.0" cy="69.9" r="2" fill="#EE6677"/><circle cx="549.3" cy="77.4" r="2" fill="#EE6677"/><circle cx="559.7" cy="65.8" r="2" fill="#EE6677"/><circle cx="570.0" cy="72.2" r="2" fill="#EE6677"/><rect x="580" y="49" width="10" height="10" fill="#EE6677"/><text x="594" y="58" font-size="10" fill="#444">chain-50</text><path d="M64.0,118.9 L74.3,107.0 L84.7,108.9 L95.0,120.1 L105.3,110.5 L115.6,109.4 L126.0,116.7 L136.3,109.5 L146.6,118.5 L156.9,118.0 L167.3,119.9 L177.6,108.2 L187.9,111.2 L198.2,108.0 L208.6,111.0 L218.9,109.7 L229.2,109.4 L239.6,115.3 L249.9,110.0 L260.2,121.1 L270.5,89.1 L280.9,84.0 L291.2,82.4 L301.5,87.3 L311.8,84.1 L322.2,81.8 L332.5,87.5 L342.8,83.7 L353.1,86.0 L363.5,82.6 L373.8,86.5 L384.1,81.5 L394.4,81.8 L404.8,84.8 L415.1,83.6 L425.4,82.9 L435.8,84.0 L446.1,76.5 L456.4,85.2 L466.7,82.0 L477.1,83.1 L487.4,89.9 L497.7,87.5 L508.0,88.2 L518.4,69.9 L528.7,68.4 L539.0,72.4 L549.3,80.3 L559.7,73.8 L570.0,70.1" fill="none" stroke="#228833" stroke-width="1.6"/><circle cx="64.0" cy="118.9" r="2" fill="#228833"/><circle cx="74.3" cy="107.0" r="2" fill="#228833"/><circle cx="84.7" cy="108.9" r="2" fill="#228833"/><circle cx="95.0" cy="120.1" r="2" fill="#228833"/><circle cx="105.3" cy="110.5" r="2" fill="#228833"/><circle cx="115.6" cy="109.4" r="2" fill="#228833"/><circle cx="126.0" cy="116.7" r="2" fill="#228833"/><circle cx="136.3" cy="109.5" r="2" fill="#228833"/><circle cx="146.6" cy="118.5" r="2" fill="#228833"/><circle cx="156.9" cy="118.0" r="2" fill="#228833"/><circle cx="167.3" cy="119.9" r="2" fill="#228833"/><circle cx="177.6" cy="108.2" r="2" fill="#228833"/><circle cx="187.9" cy="111.2" r="2" fill="#228833"/><circle cx="198.2" cy="108.0" r="2" fill="#228833"/><circle cx="208.6" cy="111.0" r="2" fill="#228833"/><circle cx="218.9" cy="109.7" r="2" fill="#228833"/><circle cx="229.2" cy="109.4" r="2" fill="#228833"/><circle cx="239.6" cy="115.3" r="2" fill="#228833"/><circle cx="249.9" cy="110.0" r="2" fill="#228833"/><circle cx="260.2" cy="121.1" r="2" fill="#228833"/><circle cx="270.5" cy="89.1" r="2" fill="#228833"/><circle cx="280.9" cy="84.0" r="2" fill="#228833"/><circle cx="291.2" cy="82.4" r="2" fill="#228833"/><circle cx="301.5" cy="87.3" r="2" fill="#228833"/><circle cx="311.8" cy="84.1" r="2" fill="#228833"/><circle cx="322.2" cy="81.8" r="2" fill="#228833"/><circle cx="332.5" cy="87.5" r="2" fill="#228833"/><circle cx="342.8" cy="83.7" r="2" fill="#228833"/><circle cx="353.1" cy="86.0" r="2" fill="#228833"/><circle cx="363.5" cy="82.6" r="2" fill="#228833"/><circle cx="373.8" cy="86.5" r="2" fill="#228833"/><circle cx="384.1" cy="81.5" r="2" fill="#228833"/><circle cx="394.4" cy="81.8" r="2" fill="#228833"/><circle cx="404.8" cy="84.8" r="2" fill="#228833"/><circle cx="415.1" cy="83.6" r="2" fill="#228833"/><circle cx="425.4" cy="82.9" r="2" fill="#228833"/><circle cx="435.8" cy="84.0" r="2" fill="#228833"/><circle cx="446.1" cy="76.5" r="2" fill="#228833"/><circle cx="456.4" cy="85.2" r="2" fill="#228833"/><circle cx="466.7" cy="82.0" r="2" fill="#228833"/><circle cx="477.1" cy="83.1" r="2" fill="#228833"/><circle cx="487.4" cy="89.9" r="2" fill="#228833"/><circle cx="497.7" cy="87.5" r="2" fill="#228833"/><circle cx="508.0" cy="88.2" r="2" fill="#228833"/><circle cx="518.4" cy="69.9" r="2" fill="#228833"/><circle cx="528.7" cy="68.4" r="2" fill="#228833"/><circle cx="539.0" cy="72.4" r="2" fill="#228833"/><circle cx="549.3" cy="80.3" r="2" fill="#228833"/><circle cx="559.7" cy="73.8" r="2" fill="#228833"/><circle cx="570.0" cy="70.1" r="2" fill="#228833"/><rect x="580" y="64" width="10" height="10" fill="#228833"/><text x="594" y="73" font-size="10" fill="#444">chain-200</text><path d="M64.0,128.8 L74.3,116.1 L84.7,116.4 L95.0,132.2 L105.3,116.8 L115.6,117.8 L126.0,122.9 L136.3,117.4 L146.6,123.3 L156.9,121.7 L167.3,128.8 L177.6,119.0 L187.9,119.0 L198.2,115.4 L208.6,121.3 L218.9,126.2 L229.2,118.4 L239.6,126.9 L249.9,122.6 L260.2,131.8 L270.5,96.7 L280.9,97.2 L291.2,92.9 L301.5,95.9 L311.8,97.4 L322.2,99.4 L332.5,93.6 L342.8,92.3 L353.1,91.8 L363.5,91.7 L373.8,92.1 L384.1,89.4 L394.4,87.7 L404.8,92.0 L415.1,89.5 L425.4,91.7 L435.8,89.3 L446.1,87.0 L456.4,94.3 L466.7,95.4 L477.1,98.5 L487.4,96.7 L497.7,92.4 L508.0,96.9 L518.4,82.9 L528.7,84.4 L539.0,82.8 L549.3,97.9 L559.7,81.1 L570.0,81.7" fill="none" stroke="#CCBB44" stroke-width="1.6"/><circle cx="64.0" cy="128.8" r="2" fill="#CCBB44"/><circle cx="74.3" cy="116.1" r="2" fill="#CCBB44"/><circle cx="84.7" cy="116.4" r="2" fill="#CCBB44"/><circle cx="95.0" cy="132.2" r="2" fill="#CCBB44"/><circle cx="105.3" cy="116.8" r="2" fill="#CCBB44"/><circle cx="115.6" cy="117.8" r="2" fill="#CCBB44"/><circle cx="126.0" cy="122.9" r="2" fill="#CCBB44"/><circle cx="136.3" cy="117.4" r="2" fill="#CCBB44"/><circle cx="146.6" cy="123.3" r="2" fill="#CCBB44"/><circle cx="156.9" cy="121.7" r="2" fill="#CCBB44"/><circle cx="167.3" cy="128.8" r="2" fill="#CCBB44"/><circle cx="177.6" cy="119.0" r="2" fill="#CCBB44"/><circle cx="187.9" cy="119.0" r="2" fill="#CCBB44"/><circle cx="198.2" cy="115.4" r="2" fill="#CCBB44"/><circle cx="208.6" cy="121.3" r="2" fill="#CCBB44"/><circle cx="218.9" cy="126.2" r="2" fill="#CCBB44"/><circle cx="229.2" cy="118.4" r="2" fill="#CCBB44"/><circle cx="239.6" cy="126.9" r="2" fill="#CCBB44"/><circle cx="249.9" cy="122.6" r="2" fill="#CCBB44"/><circle cx="260.2" cy="131.8" r="2" fill="#CCBB44"/><circle cx="270.5" cy="96.7" r="2" fill="#CCBB44"/><circle cx="280.9" cy="97.2" r="2" fill="#CCBB44"/><circle cx="291.2" cy="92.9" r="2" fill="#CCBB44"/><circle cx="301.5" cy="95.9" r="2" fill="#CCBB44"/><circle cx="311.8" cy="97.4" r="2" fill="#CCBB44"/><circle cx="322.2" cy="99.4" r="2" fill="#CCBB44"/><circle cx="332.5" cy="93.6" r="2" fill="#CCBB44"/><circle cx="342.8" cy="92.3" r="2" fill="#CCBB44"/><circle cx="353.1" cy="91.8" r="2" fill="#CCBB44"/><circle cx="363.5" cy="91.7" r="2" fill="#CCBB44"/><circle cx="373.8" cy="92.1" r="2" fill="#CCBB44"/><circle cx="384.1" cy="89.4" r="2" fill="#CCBB44"/><circle cx="394.4" cy="87.7" r="2" fill="#CCBB44"/><circle cx="404.8" cy="92.0" r="2" fill="#CCBB44"/><circle cx="415.1" cy="89.5" r="2" fill="#CCBB44"/><circle cx="425.4" cy="91.7" r="2" fill="#CCBB44"/><circle cx="435.8" cy="89.3" r="2" fill="#CCBB44"/><circle cx="446.1" cy="87.0" r="2" fill="#CCBB44"/><circle cx="456.4" cy="94.3" r="2" fill="#CCBB44"/><circle cx="466.7" cy="95.4" r="2" fill="#CCBB44"/><circle cx="477.1" cy="98.5" r="2" fill="#CCBB44"/><circle cx="487.4" cy="96.7" r="2" fill="#CCBB44"/><circle cx="497.7" cy="92.4" r="2" fill="#CCBB44"/><circle cx="508.0" cy="96.9" r="2" fill="#CCBB44"/><circle cx="518.4" cy="82.9" r="2" fill="#CCBB44"/><circle cx="528.7" cy="84.4" r="2" fill="#CCBB44"/><circle cx="539.0" cy="82.8" r="2" fill="#CCBB44"/><circle cx="549.3" cy="97.9" r="2" fill="#CCBB44"/><circle cx="559.7" cy="81.1" r="2" fill="#CCBB44"/><circle cx="570.0" cy="81.7" r="2" fill="#CCBB44"/><rect x="580" y="79" width="10" height="10" fill="#CCBB44"/><text x="594" y="88" font-size="10" fill="#444">chain-1000</text><path d="M64.0,246.8 L74.3,241.0 L84.7,242.5 L95.0,246.9 L105.3,243.1 L115.6,241.9 L126.0,245.1 L136.3,243.0 L146.6,246.2 L156.9,243.5 L167.3,246.5 L177.6,242.1 L187.9,245.2 L198.2,242.0 L208.6,244.6 L218.9,242.0 L229.2,244.0 L239.6,247.2 L249.9,242.6 L260.2,253.1 L270.5,219.7 L280.9,220.9 L291.2,220.4 L301.5,219.9 L311.8,220.8 L322.2,221.7 L332.5,220.9 L342.8,220.3 L353.1,222.0 L363.5,220.8 L373.8,219.8 L384.1,220.0 L394.4,219.5 L404.8,221.0 L415.1,222.1 L425.4,221.0 L435.8,222.2 L446.1,220.7 L456.4,222.4 L466.7,220.8 L477.1,220.1 L487.4,222.0 L497.7,221.5 L508.0,221.9 L518.4,218.3 L528.7,219.4 L539.0,220.9 L549.3,221.8 L559.7,218.2 L570.0,219.1" fill="none" stroke="#66CCEE" stroke-width="1.6"/><circle cx="64.0" cy="246.8" r="2" fill="#66CCEE"/><circle cx="74.3" cy="241.0" r="2" fill="#66CCEE"/><circle cx="84.7" cy="242.5" r="2" fill="#66CCEE"/><circle cx="95.0" cy="246.9" r="2" fill="#66CCEE"/><circle cx="105.3" cy="243.1" r="2" fill="#66CCEE"/><circle cx="115.6" cy="241.9" r="2" fill="#66CCEE"/><circle cx="126.0" cy="245.1" r="2" fill="#66CCEE"/><circle cx="136.3" cy="243.0" r="2" fill="#66CCEE"/><circle cx="146.6" cy="246.2" r="2" fill="#66CCEE"/><circle cx="156.9" cy="243.5" r="2" fill="#66CCEE"/><circle cx="167.3" cy="246.5" r="2" fill="#66CCEE"/><circle cx="177.6" cy="242.1" r="2" fill="#66CCEE"/><circle cx="187.9" cy="245.2" r="2" fill="#66CCEE"/><circle cx="198.2" cy="242.0" r="2" fill="#66CCEE"/><circle cx="208.6" cy="244.6" r="2" fill="#66CCEE"/><circle cx="218.9" cy="242.0" r="2" fill="#66CCEE"/><circle cx="229.2" cy="244.0" r="2" fill="#66CCEE"/><circle cx="239.6" cy="247.2" r="2" fill="#66CCEE"/><circle cx="249.9" cy="242.6" r="2" fill="#66CCEE"/><circle cx="260.2" cy="253.1" r="2" fill="#66CCEE"/><circle cx="270.5" cy="219.7" r="2" fill="#66CCEE"/><circle cx="280.9" cy="220.9" r="2" fill="#66CCEE"/><circle cx="291.2" cy="220.4" r="2" fill="#66CCEE"/><circle cx="301.5" cy="219.9" r="2" fill="#66CCEE"/><circle cx="311.8" cy="220.8" r="2" fill="#66CCEE"/><circle cx="322.2" cy="221.7" r="2" fill="#66CCEE"/><circle cx="332.5" cy="220.9" r="2" fill="#66CCEE"/><circle cx="342.8" cy="220.3" r="2" fill="#66CCEE"/><circle cx="353.1" cy="222.0" r="2" fill="#66CCEE"/><circle cx="363.5" cy="220.8" r="2" fill="#66CCEE"/><circle cx="373.8" cy="219.8" r="2" fill="#66CCEE"/><circle cx="384.1" cy="220.0" r="2" fill="#66CCEE"/><circle cx="394.4" cy="219.5" r="2" fill="#66CCEE"/><circle cx="404.8" cy="221.0" r="2" fill="#66CCEE"/><circle cx="415.1" cy="222.1" r="2" fill="#66CCEE"/><circle cx="425.4" cy="221.0" r="2" fill="#66CCEE"/><circle cx="435.8" cy="222.2" r="2" fill="#66CCEE"/><circle cx="446.1" cy="220.7" r="2" fill="#66CCEE"/><circle cx="456.4" cy="222.4" r="2" fill="#66CCEE"/><circle cx="466.7" cy="220.8" r="2" fill="#66CCEE"/><circle cx="477.1" cy="220.1" r="2" fill="#66CCEE"/><circle cx="487.4" cy="222.0" r="2" fill="#66CCEE"/><circle cx="497.7" cy="221.5" r="2" fill="#66CCEE"/><circle cx="508.0" cy="221.9" r="2" fill="#66CCEE"/><circle cx="518.4" cy="218.3" r="2" fill="#66CCEE"/><circle cx="528.7" cy="219.4" r="2" fill="#66CCEE"/><circle cx="539.0" cy="220.9" r="2" fill="#66CCEE"/><circle cx="549.3" cy="221.8" r="2" fill="#66CCEE"/><circle cx="559.7" cy="218.2" r="2" fill="#66CCEE"/><circle cx="570.0" cy="219.1" r="2" fill="#66CCEE"/><rect x="580" y="94" width="10" height="10" fill="#66CCEE"/><text x="594" y="103" font-size="10" fill="#444">dense-10</text><path d="M64.0,291.7 L74.3,290.4 L84.7,290.3 L95.0,291.7 L105.3,290.3 L115.6,290.2 L126.0,291.3 L136.3,290.3 L146.6,291.1 L156.9,291.0 L167.3,291.4 L177.6,290.3 L187.9,291.0 L198.2,290.3 L208.6,290.8 L218.9,290.4 L229.2,291.1 L239.6,291.8 L249.9,290.5 L260.2,292.9 L270.5,285.6 L280.9,285.5 L291.2,286.0 L301.5,286.1 L311.8,285.8 L322.2,286.2 L332.5,285.7 L342.8,285.9 L353.1,285.9 L363.5,285.8 L373.8,285.9 L384.1,285.7 L394.4,285.8 L404.8,285.7 L415.1,285.6 L425.4,286.0 L435.8,285.8 L446.1,285.6 L456.4,285.7 L466.7,285.9 L477.1,286.0 L487.4,286.1 L497.7,286.3 L508.0,286.0 L518.4,285.2 L528.7,285.0 L539.0,285.1 L549.3,285.7 L559.7,285.4 L570.0,285.3" fill="none" stroke="#AA3377" stroke-width="1.6"/><circle cx="64.0" cy="291.7" r="2" fill="#AA3377"/><circle cx="74.3" cy="290.4" r="2" fill="#AA3377"/><circle cx="84.7" cy="290.3" r="2" fill="#AA3377"/><circle cx="95.0" cy="291.7" r="2" fill="#AA3377"/><circle cx="105.3" cy="290.3" r="2" fill="#AA3377"/><circle cx="115.6" cy="290.2" r="2" fill="#AA3377"/><circle cx="126.0" cy="291.3" r="2" fill="#AA3377"/><circle cx="136.3" cy="290.3" r="2" fill="#AA3377"/><circle cx="146.6" cy="291.1" r="2" fill="#AA3377"/><circle cx="156.9" cy="291.0" r="2" fill="#AA3377"/><circle cx="167.3" cy="291.4" r="2" fill="#AA3377"/><circle cx="177.6" cy="290.3" r="2" fill="#AA3377"/><circle cx="187.9" cy="291.0" r="2" fill="#AA3377"/><circle cx="198.2" cy="290.3" r="2" fill="#AA3377"/><circle cx="208.6" cy="290.8" r="2" fill="#AA3377"/><circle cx="218.9" cy="290.4" r="2" fill="#AA3377"/><circle cx="229.2" cy="291.1" r="2" fill="#AA3377"/><circle cx="239.6" cy="291.8" r="2" fill="#AA3377"/><circle cx="249.9" cy="290.5" r="2" fill="#AA3377"/><circle cx="260.2" cy="292.9" r="2" fill="#AA3377"/><circle cx="270.5" cy="285.6" r="2" fill="#AA3377"/><circle cx="280.9" cy="285.5" r="2" fill="#AA3377"/><circle cx="291.2" cy="286.0" r="2" fill="#AA3377"/><circle cx="301.5" cy="286.1" r="2" fill="#AA3377"/><circle cx="311.8" cy="285.8" r="2" fill="#AA3377"/><circle cx="322.2" cy="286.2" r="2" fill="#AA3377"/><circle cx="332.5" cy="285.7" r="2" fill="#AA3377"/><circle cx="342.8" cy="285.9" r="2" fill="#AA3377"/><circle cx="353.1" cy="285.9" r="2" fill="#AA3377"/><circle cx="363.5" cy="285.8" r="2" fill="#AA3377"/><circle cx="373.8" cy="285.9" r="2" fill="#AA3377"/><circle cx="384.1" cy="285.7" r="2" fill="#AA3377"/><circle cx="394.4" cy="285.8" r="2" fill="#AA3377"/><circle cx="404.8" cy="285.7" r="2" fill="#AA3377"/><circle cx="415.1" cy="285.6" r="2" fill="#AA3377"/><circle cx="425.4" cy="286.0" r="2" fill="#AA3377"/><circle cx="435.8" cy="285.8" r="2" fill="#AA3377"/><circle cx="446.1" cy="285.6" r="2" fill="#AA3377"/><circle cx="456.4" cy="285.7" r="2" fill="#AA3377"/><circle cx="466.7" cy="285.9" r="2" fill="#AA3377"/><circle cx="477.1" cy="286.0" r="2" fill="#AA3377"/><circle cx="487.4" cy="286.1" r="2" fill="#AA3377"/><circle cx="497.7" cy="286.3" r="2" fill="#AA3377"/><circle cx="508.0" cy="286.0" r="2" fill="#AA3377"/><circle cx="518.4" cy="285.2" r="2" fill="#AA3377"/><circle cx="528.7" cy="285.0" r="2" fill="#AA3377"/><circle cx="539.0" cy="285.1" r="2" fill="#AA3377"/><circle cx="549.3" cy="285.7" r="2" fill="#AA3377"/><circle cx="559.7" cy="285.4" r="2" fill="#AA3377"/><circle cx="570.0" cy="285.3" r="2" fill="#AA3377"/><rect x="580" y="109" width="10" height="10" fill="#AA3377"/><text x="594" y="118" font-size="10" fill="#444">dense-50</text><path d="M64.0,299.5 L74.3,299.7 L84.7,299.5 L95.0,299.7 L105.3,299.4 L115.6,299.2 L126.0,299.6 L136.3,299.4 L146.6,299.8 L156.9,299.6 L167.3,299.6 L177.6,299.5 L187.9,299.3 L198.2,299.3 L208.6,299.3 L218.9,299.4 L229.2,299.1 L239.6,299.8 L249.9,299.7 L260.2,299.8 L270.5,297.7 L280.9,297.5 L291.2,297.7 L301.5,297.6 L311.8,297.7 L322.2,297.7 L332.5,297.8 L342.8,297.7 L353.1,297.7 L363.5,297.7 L373.8,297.7 L384.1,297.6 L394.4,297.6 L404.8,297.7 L415.1,297.6 L425.4,297.6 L435.8,297.6 L446.1,297.6 L456.4,297.6 L466.7,297.6 L477.1,297.6 L487.4,297.7 L497.7,297.6 L508.0,297.6 L518.4,297.4 L528.7,297.4 L539.0,297.4 L549.3,297.6 L559.7,297.4 L570.0,297.5" fill="none" stroke="#BBBBBB" stroke-width="1.6"/><circle cx="64.0" cy="299.5" r="2" fill="#BBBBBB"/><circle cx="74.3" cy="299.7" r="2" fill="#BBBBBB"/><circle cx="84.7" cy="299.5" r="2" fill="#BBBBBB"/><circle cx="95.0" cy="299.7" r="2" fill="#BBBBBB"/><circle cx="105.3" cy="299.4" r="2" fill="#BBBBBB"/><circle cx="115.6" cy="299.2" r="2" fill="#BBBBBB"/><circle cx="126.0" cy="299.6" r="2" fill="#BBBBBB"/><circle cx="136.3" cy="299.4" r="2" fill="#BBBBBB"/><circle cx="146.6" cy="299.8" r="2" fill="#BBBBBB"/><circle cx="156.9" cy="299.6" r="2" fill="#BBBBBB"/><circle cx="167.3" cy="299.6" r="2" fill="#BBBBBB"/><circle cx="177.6" cy="299.5" r="2" fill="#BBBBBB"/><circle cx="187.9" cy="299.3" r="2" fill="#BBBBBB"/><circle cx="198.2" cy="299.3" r="2" fill="#BBBBBB"/><circle cx="208.6" cy="299.3" r="2" fill="#BBBBBB"/><circle cx="218.9" cy="299.4" r="2" fill="#BBBBBB"/><circle cx="229.2" cy="299.1" r="2" fill="#BBBBBB"/><circle cx="239.6" cy="299.8" r="2" fill="#BBBBBB"/><circle cx="249.9" cy="299.7" r="2" fill="#BBBBBB"/><circle cx="260.2" cy="299.8" r="2" fill="#BBBBBB"/><circle cx="270.5" cy="297.7" r="2" fill="#BBBBBB"/><circle cx="280.9" cy="297.5" r="2" fill="#BBBBBB"/><circle cx="291.2" cy="297.7" r="2" fill="#BBBBBB"/><circle cx="301.5" cy="297.6" r="2" fill="#BBBBBB"/><circle cx="311.8" cy="297.7" r="2" fill="#BBBBBB"/><circle cx="322.2" cy="297.7" r="2" fill="#BBBBBB"/><circle cx="332.5" cy="297.8" r="2" fill="#BBBBBB"/><circle cx="342.8" cy="297.7" r="2" fill="#BBBBBB"/><circle cx="353.1" cy="297.7" r="2" fill="#BBBBBB"/><circle cx="363.5" cy="297.7" r="2" fill="#BBBBBB"/><circle cx="373.8" cy="297.7" r="2" fill="#BBBBBB"/><circle cx="384.1" cy="297.6" r="2" fill="#BBBBBB"/><circle cx="394.4" cy="297.6" r="2" fill="#BBBBBB"/><circle cx="404.8" cy="297.7" r="2" fill="#BBBBBB"/><circle cx="415.1" cy="297.6" r="2" fill="#BBBBBB"/><circle cx="425.4" cy="297.6" r="2" fill="#BBBBBB"/><circle cx="435.8" cy="297.6" r="2" fill="#BBBBBB"/><circle cx="446.1" cy="297.6" r="2" fill="#BBBBBB"/><circle cx="456.4" cy="297.6" r="2" fill="#BBBBBB"/><circle cx="466.7" cy="297.6" r="2" fill="#BBBBBB"/><circle cx="477.1" cy="297.6" r="2" fill="#BBBBBB"/><circle cx="487.4" cy="297.7" r="2" fill="#BBBBBB"/><circle cx="497.7" cy="297.6" r="2" fill="#BBBBBB"/><circle cx="508.0" cy="297.6" r="2" fill="#BBBBBB"/><circle cx="518.4" cy="297.4" r="2" fill="#BBBBBB"/><circle cx="528.7" cy="297.4" r="2" fill="#BBBBBB"/><circle cx="539.0" cy="297.4" r="2" fill="#BBBBBB"/><circle cx="549.3" cy="297.6" r="2" fill="#BBBBBB"/><circle cx="559.7" cy="297.4" r="2" fill="#BBBBBB"/><circle cx="570.0" cy="297.5" r="2" fill="#BBBBBB"/><rect x="580" y="124" width="10" height="10" fill="#BBBBBB"/><text x="594" y="133" font-size="10" fill="#444">dense-200</text><path d="M64.0,281.0 L74.3,279.0 L84.7,279.4 L95.0,281.1 L105.3,279.2 L115.6,278.8 L126.0,280.4 L136.3,279.1 L146.6,280.2 L156.9,279.6 L167.3,280.9 L177.6,279.0 L187.9,280.2 L198.2,279.0 L208.6,279.7 L218.9,279.2 L229.2,279.7 L239.6,280.2 L249.9,279.0 L260.2,281.8 L270.5,270.5 L280.9,270.2 L291.2,270.9 L301.5,271.0 L311.8,271.6 L322.2,271.2 L332.5,270.9 L342.8,270.6 L353.1,271.5 L363.5,270.6 L373.8,270.5 L384.1,270.9 L394.4,270.7 L404.8,271.0 L415.1,270.3 L425.4,270.8 L435.8,271.0 L446.1,270.5 L456.4,270.9 L466.7,271.0 L477.1,270.5 L487.4,271.1 L497.7,270.7 L508.0,270.7 L518.4,269.2 L528.7,269.1 L539.0,269.7 L549.3,270.5 L559.7,269.2 L570.0,269.4" fill="none" stroke="#222255" stroke-width="1.6"/><circle cx="64.0" cy="281.0" r="2" fill="#222255"/><circle cx="74.3" cy="279.0" r="2" fill="#222255"/><circle cx="84.7" cy="279.4" r="2" fill="#222255"/><circle cx="95.0" cy="281.1" r="2" fill="#222255"/><circle cx="105.3" cy="279.2" r="2" fill="#222255"/><circle cx="115.6" cy="278.8" r="2" fill="#222255"/><circle cx="126.0" cy="280.4" r="2" fill="#222255"/><circle cx="136.3" cy="279.1" r="2" fill="#222255"/><circle cx="146.6" cy="280.2" r="2" fill="#222255"/><circle cx="156.9" cy="279.6" r="2" fill="#222255"/><circle cx="167.3" cy="280.9" r="2" fill="#222255"/><circle cx="177.6" cy="279.0" r="2" fill="#222255"/><circle cx="187.9" cy="280.2" r="2" fill="#222255"/><circle cx="198.2" cy="279.0" r="2" fill="#222255"/><circle cx="208.6" cy="279.7" r="2" fill="#222255"/><circle cx="218.9" cy="279.2" r="2" fill="#222255"/><circle cx="229.2" cy="279.7" r="2" fill="#222255"/><circle cx="239.6" cy="280.2" r="2" fill="#222255"/><circle cx="249.9" cy="279.0" r="2" fill="#222255"/><circle cx="260.2" cy="281.8" r="2" fill="#222255"/><circle cx="270.5" cy="270.5" r="2" fill="#222255"/><circle cx="280.9" cy="270.2" r="2" fill="#222255"/><circle cx="291.2" cy="270.9" r="2" fill="#222255"/><circle cx="301.5" cy="271.0" r="2" fill="#222255"/><circle cx="311.8" cy="271.6" r="2" fill="#222255"/><circle cx="322.2" cy="271.2" r="2" fill="#222255"/><circle cx="332.5" cy="270.9" r="2" fill="#222255"/><circle cx="342.8" cy="270.6" r="2" fill="#222255"/><circle cx="353.1" cy="271.5" r="2" fill="#222255"/><circle cx="363.5" cy="270.6" r="2" fill="#222255"/><circle cx="373.8" cy="270.5" r="2" fill="#222255"/><circle cx="384.1" cy="270.9" r="2" fill="#222255"/><circle cx="394.4" cy="270.7" r="2" fill="#222255"/><circle cx="404.8" cy="271.0" r="2" fill="#222255"/><circle cx="415.1" cy="270.3" r="2" fill="#222255"/><circle cx="425.4" cy="270.8" r="2" fill="#222255"/><circle cx="435.8" cy="271.0" r="2" fill="#222255"/><circle cx="446.1" cy="270.5" r="2" fill="#222255"/><circle cx="456.4" cy="270.9" r="2" fill="#222255"/><circle cx="466.7" cy="271.0" r="2" fill="#222255"/><circle cx="477.1" cy="270.5" r="2" fill="#222255"/><circle cx="487.4" cy="271.1" r="2" fill="#222255"/><circle cx="497.7" cy="270.7" r="2" fill="#222255"/><circle cx="508.0" cy="270.7" r="2" fill="#222255"/><circle cx="518.4" cy="269.2" r="2" fill="#222255"/><circle cx="528.7" cy="269.1" r="2" fill="#222255"/><circle cx="539.0" cy="269.7" r="2" fill="#222255"/><circle cx="549.3" cy="270.5" r="2" fill="#222255"/><circle cx="559.7" cy="269.2" r="2" fill="#222255"/><circle cx="570.0" cy="269.4" r="2" fill="#222255"/><rect x="580" y="139" width="10" height="10" fill="#222255"/><text x="594" y="148" font-size="10" fill="#444">hub-50</text><path d="M64.0,296.5 L74.3,295.7 L84.7,295.8 L95.0,296.4 L105.3,295.8 L115.6,295.8 L126.0,296.1 L136.3,295.7 L146.6,296.1 L156.9,295.9 L167.3,296.4 L177.6,295.6 L187.9,296.1 L198.2,295.7 L208.6,295.8 L218.9,295.7 L229.2,295.8 L239.6,296.1 L249.9,295.8 L260.2,296.7 L270.5,293.3 L280.9,293.2 L291.2,293.4 L301.5,293.4 L311.8,293.4 L322.2,293.6 L332.5,293.4 L342.8,293.3 L353.1,293.4 L363.5,293.4 L373.8,293.3 L384.1,293.3 L394.4,293.4 L404.8,293.4 L415.1,293.3 L425.4,293.3 L435.8,293.3 L446.1,293.2 L456.4,293.3 L466.7,293.3 L477.1,293.3 L487.4,293.4 L497.7,293.4 L508.0,293.4 L518.4,292.8 L528.7,292.8 L539.0,292.9 L549.3,293.3 L559.7,292.8 L570.0,292.9" fill="none" stroke="#225555" stroke-width="1.6"/><circle cx="64.0" cy="296.5" r="2" fill="#225555"/><circle cx="74.3" cy="295.7" r="2" fill="#225555"/><circle cx="84.7" cy="295.8" r="2" fill="#225555"/><circle cx="95.0" cy="296.4" r="2" fill="#225555"/><circle cx="105.3" cy="295.8" r="2" fill="#225555"/><circle cx="115.6" cy="295.8" r="2" fill="#225555"/><circle cx="126.0" cy="296.1" r="2" fill="#225555"/><circle cx="136.3" cy="295.7" r="2" fill="#225555"/><circle cx="146.6" cy="296.1" r="2" fill="#225555"/><circle cx="156.9" cy="295.9" r="2" fill="#225555"/><circle cx="167.3" cy="296.4" r="2" fill="#225555"/><circle cx="177.6" cy="295.6" r="2" fill="#225555"/><circle cx="187.9" cy="296.1" r="2" fill="#225555"/><circle cx="198.2" cy="295.7" r="2" fill="#225555"/><circle cx="208.6" cy="295.8" r="2" fill="#225555"/><circle cx="218.9" cy="295.7" r="2" fill="#225555"/><circle cx="229.2" cy="295.8" r="2" fill="#225555"/><circle cx="239.6" cy="296.1" r="2" fill="#225555"/><circle cx="249.9" cy="295.8" r="2" fill="#225555"/><circle cx="260.2" cy="296.7" r="2" fill="#225555"/><circle cx="270.5" cy="293.3" r="2" fill="#225555"/><circle cx="280.9" cy="293.2" r="2" fill="#225555"/><circle cx="291.2" cy="293.4" r="2" fill="#225555"/><circle cx="301.5" cy="293.4" r="2" fill="#225555"/><circle cx="311.8" cy="293.4" r="2" fill="#225555"/><circle cx="322.2" cy="293.6" r="2" fill="#225555"/><circle cx="332.5" cy="293.4" r="2" fill="#225555"/><circle cx="342.8" cy="293.3" r="2" fill="#225555"/><circle cx="353.1" cy="293.4" r="2" fill="#225555"/><circle cx="363.5" cy="293.4" r="2" fill="#225555"/><circle cx="373.8" cy="293.3" r="2" fill="#225555"/><circle cx="384.1" cy="293.3" r="2" fill="#225555"/><circle cx="394.4" cy="293.4" r="2" fill="#225555"/><circle cx="404.8" cy="293.4" r="2" fill="#225555"/><circle cx="415.1" cy="293.3" r="2" fill="#225555"/><circle cx="425.4" cy="293.3" r="2" fill="#225555"/><circle cx="435.8" cy="293.3" r="2" fill="#225555"/><circle cx="446.1" cy="293.2" r="2" fill="#225555"/><circle cx="456.4" cy="293.3" r="2" fill="#225555"/><circle cx="466.7" cy="293.3" r="2" fill="#225555"/><circle cx="477.1" cy="293.3" r="2" fill="#225555"/><circle cx="487.4" cy="293.4" r="2" fill="#225555"/><circle cx="497.7" cy="293.4" r="2" fill="#225555"/><circle cx="508.0" cy="293.4" r="2" fill="#225555"/><circle cx="518.4" cy="292.8" r="2" fill="#225555"/><circle cx="528.7" cy="292.8" r="2" fill="#225555"/><circle cx="539.0" cy="292.9" r="2" fill="#225555"/><circle cx="549.3" cy="293.3" r="2" fill="#225555"/><circle cx="559.7" cy="292.8" r="2" fill="#225555"/><circle cx="570.0" cy="292.9" r="2" fill="#225555"/><rect x="580" y="154" width="10" height="10" fill="#225555"/><text x="594" y="163" font-size="10" fill="#444">hub-200</text><path d="M64.0,296.3 L74.3,295.7 L84.7,295.7 L95.0,296.4 L105.3,295.8 L115.6,295.7 L126.0,296.1 L136.3,295.7 L146.6,296.2 L156.9,295.9 L167.3,296.4 L177.6,295.8 L187.9,296.1 L198.2,295.7 L208.6,295.9 L218.9,295.7 L229.2,295.9 L239.6,296.2 L249.9,295.7 L260.2,296.7 L270.5,293.2 L280.9,293.1 L291.2,293.3 L301.5,293.3 L311.8,293.4 L322.2,293.4 L332.5,293.4 L342.8,293.3 L353.1,293.5 L363.5,293.3 L373.8,293.3 L384.1,293.3 L394.4,293.3 L404.8,293.4 L415.1,293.3 L425.4,293.3 L435.8,293.3 L446.1,293.3 L456.4,293.4 L466.7,293.3 L477.1,293.3 L487.4,293.3 L497.7,293.4 L508.0,293.3 L518.4,292.8 L528.7,292.9 L539.0,292.9 L549.3,293.3 L559.7,292.9 L570.0,292.9" fill="none" stroke="#552222" stroke-width="1.6"/><circle cx="64.0" cy="296.3" r="2" fill="#552222"/><circle cx="74.3" cy="295.7" r="2" fill="#552222"/><circle cx="84.7" cy="295.7" r="2" fill="#552222"/><circle cx="95.0" cy="296.4" r="2" fill="#552222"/><circle cx="105.3" cy="295.8" r="2" fill="#552222"/><circle cx="115.6" cy="295.7" r="2" fill="#552222"/><circle cx="126.0" cy="296.1" r="2" fill="#552222"/><circle cx="136.3" cy="295.7" r="2" fill="#552222"/><circle cx="146.6" cy="296.2" r="2" fill="#552222"/><circle cx="156.9" cy="295.9" r="2" fill="#552222"/><circle cx="167.3" cy="296.4" r="2" fill="#552222"/><circle cx="177.6" cy="295.8" r="2" fill="#552222"/><circle cx="187.9" cy="296.1" r="2" fill="#552222"/><circle cx="198.2" cy="295.7" r="2" fill="#552222"/><circle cx="208.6" cy="295.9" r="2" fill="#552222"/><circle cx="218.9" cy="295.7" r="2" fill="#552222"/><circle cx="229.2" cy="295.9" r="2" fill="#552222"/><circle cx="239.6" cy="296.2" r="2" fill="#552222"/><circle cx="249.9" cy="295.7" r="2" fill="#552222"/><circle cx="260.2" cy="296.7" r="2" fill="#552222"/><circle cx="270.5" cy="293.2" r="2" fill="#552222"/><circle cx="280.9" cy="293.1" r="2" fill="#552222"/><circle cx="291.2" cy="293.3" r="2" fill="#552222"/><circle cx="301.5" cy="293.3" r="2" fill="#552222"/><circle cx="311.8" cy="293.4" r="2" fill="#552222"/><circle cx="322.2" cy="293.4" r="2" fill="#552222"/><circle cx="332.5" cy="293.4" r="2" fill="#552222"/><circle cx="342.8" cy="293.3" r="2" fill="#552222"/><circle cx="353.1" cy="293.5" r="2" fill="#552222"/><circle cx="363.5" cy="293.3" r="2" fill="#552222"/><circle cx="373.8" cy="293.3" r="2" fill="#552222"/><circle cx="384.1" cy="293.3" r="2" fill="#552222"/><circle cx="394.4" cy="293.3" r="2" fill="#552222"/><circle cx="404.8" cy="293.4" r="2" fill="#552222"/><circle cx="415.1" cy="293.3" r="2" fill="#552222"/><circle cx="425.4" cy="293.3" r="2" fill="#552222"/><circle cx="435.8" cy="293.3" r="2" fill="#552222"/><circle cx="446.1" cy="293.3" r="2" fill="#552222"/><circle cx="456.4" cy="293.4" r="2" fill="#552222"/><circle cx="466.7" cy="293.3" r="2" fill="#552222"/><circle cx="477.1" cy="293.3" r="2" fill="#552222"/><circle cx="487.4" cy="293.3" r="2" fill="#552222"/><circle cx="497.7" cy="293.4" r="2" fill="#552222"/><circle cx="508.0" cy="293.3" r="2" fill="#552222"/><circle cx="518.4" cy="292.8" r="2" fill="#552222"/><circle cx="528.7" cy="292.9" r="2" fill="#552222"/><circle cx="539.0" cy="292.9" r="2" fill="#552222"/><circle cx="549.3" cy="293.3" r="2" fill="#552222"/><circle cx="559.7" cy="292.9" r="2" fill="#552222"/><circle cx="570.0" cy="292.9" r="2" fill="#552222"/><rect x="580" y="169" width="10" height="10" fill="#552222"/><text x="594" y="178" font-size="10" fill="#444">hooked-200</text></svg>