<svg width="720" height="372" xmlns="http://www.w3.org/2000/svg"><rect width="720" height="372" fill="#ffffff"/><text x="64" y="20" font-size="15" font-weight="bold" fill="#333">probable_action_exits() — ops/sec (linear scale, last 50) by PR / release, c8g.medium</text><line x1="74.3" y1="34" x2="74.3" y2="324" stroke="#e8e8e8"/><line x1="84.7" y1="34" x2="84.7" y2="324" stroke="#e8e8e8"/><line x1="95.0" y1="34" x2="95.0" y2="324" stroke="#e8e8e8"/><line x1="105.3" y1="34" x2="105.3" y2="324" stroke="#e8e8e8"/><line x1="126.0" y1="34" x2="126.0" y2="324" stroke="#e8e8e8"/><line x1="136.3" y1="34" x2="136.3" y2="324" stroke="#e8e8e8"/><line x1="146.6" y1="34" x2="146.6" y2="324" stroke="#e8e8e8"/><line x1="156.9" y1="34" x2="156.9" y2="324" stroke="#e8e8e8"/><line x1="177.6" y1="34" x2="177.6" y2="324" stroke="#e8e8e8"/><line x1="187.9" y1="34" x2="187.9" y2="324" stroke="#e8e8e8"/><line x1="198.2" y1="34" x2="198.2" y2="324" stroke="#e8e8e8"/><line x1="208.6" y1="34" x2="208.6" y2="324" stroke="#e8e8e8"/><line x1="229.2" y1="34" x2="229.2" y2="324" stroke="#e8e8e8"/><line x1="239.6" y1="34" x2="239.6" y2="324" stroke="#e8e8e8"/><line x1="249.9" y1="34" x2="249.9" y2="324" stroke="#e8e8e8"/><line x1="260.2" y1="34" x2="260.2" y2="324" stroke="#e8e8e8"/><line x1="280.9" y1="34" x2="280.9" y2="324" stroke="#e8e8e8"/><line x1="291.2" y1="34" x2="291.2" y2="324" stroke="#e8e8e8"/><line x1="301.5" y1="34" x2="301.5" y2="324" stroke="#e8e8e8"/><line x1="311.8" y1="34" x2="311.8" y2="324" stroke="#e8e8e8"/><line x1="332.5" y1="34" x2="332.5" y2="324" stroke="#e8e8e8"/><line x1="342.8" y1="34" x2="342.8" y2="324" stroke="#e8e8e8"/><line x1="353.1" y1="34" x2="353.1" y2="324" stroke="#e8e8e8"/><line x1="363.5" y1="34" x2="363.5" y2="324" stroke="#e8e8e8"/><line x1="384.1" y1="34" x2="384.1" y2="324" stroke="#e8e8e8"/><line x1="394.4" y1="34" x2="394.4" y2="324" stroke="#e8e8e8"/><line x1="404.8" y1="34" x2="404.8" y2="324" stroke="#e8e8e8"/><line x1="415.1" y1="34" x2="415.1" y2="324" stroke="#e8e8e8"/><line x1="435.8" y1="34" x2="435.8" y2="324" stroke="#e8e8e8"/><line x1="446.1" y1="34" x2="446.1" y2="324" stroke="#e8e8e8"/><line x1="456.4" y1="34" x2="456.4" y2="324" stroke="#e8e8e8"/><line x1="466.7" y1="34" x2="466.7" y2="324" stroke="#e8e8e8"/><line x1="487.4" y1="34" x2="487.4" y2="324" stroke="#e8e8e8"/><line x1="497.7" y1="34" x2="497.7" y2="324" stroke="#e8e8e8"/><line x1="508.0" y1="34" x2="508.0" y2="324" stroke="#e8e8e8"/><line x1="518.4" y1="34" x2="518.4" y2="324" stroke="#e8e8e8"/><line x1="539.0" y1="34" x2="539.0" y2="324" stroke="#e8e8e8"/><line x1="549.3" y1="34" x2="549.3" y2="324" stroke="#e8e8e8"/><line x1="559.7" y1="34" x2="559.7" y2="324" stroke="#e8e8e8"/><line x1="570.0" y1="34" x2="570.0" y2="324" stroke="#e8e8e8"/><line x1="64.0" y1="34" x2="64.0" y2="324" stroke="#d0d0d0"/><line x1="115.6" y1="34" x2="115.6" y2="324" stroke="#d0d0d0"/><line x1="167.3" y1="34" x2="167.3" y2="324" stroke="#d0d0d0"/><line x1="218.9" y1="34" x2="218.9" y2="324" stroke="#d0d0d0"/><line x1="270.5" y1="34" x2="270.5" y2="324" stroke="#d0d0d0"/><line x1="322.2" y1="34" x2="322.2" y2="324" stroke="#d0d0d0"/><line x1="373.8" y1="34" x2="373.8" y2="324" stroke="#d0d0d0"/><line x1="425.4" y1="34" x2="425.4" y2="324" stroke="#d0d0d0"/><line x1="477.1" y1="34" x2="477.1" y2="324" stroke="#d0d0d0"/><line x1="528.7" y1="34" x2="528.7" y2="324" stroke="#d0d0d0"/><line x1="64" y1="324.0" x2="570" y2="324.0" stroke="#b0b0b0"/><text x="58" y="328.0" font-size="10" text-anchor="end" fill="#888">-17.3k</text><line x1="64" y1="266.0" x2="570" y2="266.0" stroke="#b0b0b0"/><text x="58" y="270.0" font-size="10" text-anchor="end" fill="#888">27.2k</text><line x1="64" y1="208.0" x2="570" y2="208.0" stroke="#b0b0b0"/><text x="58" y="212.0" font-size="10" text-anchor="end" fill="#888">71.8k</text><line x1="64" y1="150.0" x2="570" y2="150.0" stroke="#b0b0b0"/><text x="58" y="154.0" font-size="10" text-anchor="end" fill="#888">116.3k</text><line x1="64" y1="92.0" x2="570" y2="92.0" stroke="#b0b0b0"/><text x="58" y="96.0" font-size="10" text-anchor="end" fill="#888">160.9k</text><line x1="64" y1="34.0" x2="570" y2="34.0" stroke="#b0b0b0"/><text x="58" y="38.0" font-size="10" text-anchor="end" fill="#888">205.4k</text><text x="64.0" y="327.2" font-size="4" text-anchor="end" fill="#aa4400" transform="rotate(-80 64.0 327.2)">v5.157.10</text><text x="74.3" y="327.2" font-size="4" text-anchor="end" fill="#d6a382" transform="rotate(-80 74.3 327.2)">v5.157.11</text><text x="84.7" y="327.2" font-size="4" text-anchor="end" fill="#d6a382" transform="rotate(-80 84.7 327.2)">v5.157.12</text><text x="95.0" y="327.2" font-size="4" text-anchor="end" fill="#d6a382" transform="rotate(-80 95.0 327.2)">v5.157.13</text><text x="105.3" y="327.2" font-size="4" text-anchor="end" fill="#d6a382" transform="rotate(-80 105.3 327.2)">v5.157.14</text><text x="115.6" y="327.2" font-size="4" text-anchor="end" fill="#d6a382" transform="rotate(-80 115.6 327.2)">v5.157.15</text><text x="126.0" y="327.2" font-size="4" text-anchor="end" fill="#d6a382" transform="rotate(-80 126.0 327.2)">v5.157.16</text><text x="136.3" y="327.2" font-size="4" text-anchor="end" fill="#d6a382" transform="rotate(-80 136.3 327.2)">v5.157.17</text><text x="146.6" y="327.2" font-size="4" text-anchor="end" fill="#d6a382" transform="rotate(-80 146.6 327.2)">v5.157.18</text><text x="156.9" y="327.2" font-size="4" text-anchor="end" fill="#aa4400" transform="rotate(-80 156.9 327.2)">v5.158.0</text><text x="167.3" y="327.2" font-size="4" text-anchor="end" fill="#d6a382" transform="rotate(-80 167.3 327.2)">v5.158.1</text><text x="177.6" y="327.2" font-size="4" text-anchor="end" fill="#d6a382" transform="rotate(-80 177.6 327.2)">v5.158.2</text><text x="187.9" y="327.2" font-size="4" text-anchor="end" fill="#aa4400" transform="rotate(-80 187.9 327.2)">v5.159.0</text><text x="198.2" y="327.2" font-size="4" text-anchor="end" fill="#d6a382" transform="rotate(-80 198.2 327.2)">v5.159.1</text><text x="208.6" y="327.2" font-size="4" text-anchor="end" fill="#d6a382" transform="rotate(-80 208.6 327.2)">v5.159.2</text><text x="218.9" y="327.2" font-size="4" text-anchor="end" fill="#aa4400" transform="rotate(-80 218.9 327.2)">v5.160.0</text><text x="229.2" y="327.2" font-size="4" text-anchor="end" fill="#aa4400" transform="rotate(-80 229.2 327.2)">v5.161.0</text><text x="239.6" y="327.2" font-size="4" text-anchor="end" fill="#aa4400" transform="rotate(-80 239.6 327.2)">v5.162.0</text><text x="249.9" y="327.2" font-size="4" text-anchor="end" fill="#d6a382" transform="rotate(-80 249.9 327.2)">v5.162.1</text><text x="260.2" y="327.2" font-size="4" text-anchor="end" fill="#d6a382" transform="rotate(-80 260.2 327.2)">v5.162.2</text><text x="270.5" y="327.2" font-size="4" text-anchor="end" fill="#d6a382" transform="rotate(-80 270.5 327.2)">v5.162.3</text><text x="280.9" y="327.2" font-size="4" text-anchor="end" fill="#d6a382" transform="rotate(-80 280.9 327.2)">v5.162.4</text><text x="291.2" y="327.2" font-size="4" text-anchor="end" fill="#d6a382" transform="rotate(-80 291.2 327.2)">v5.162.5</text><text x="301.5" y="327.2" font-size="4" text-anchor="end" fill="#d6a382" transform="rotate(-80 301.5 327.2)">v5.162.6</text><text x="311.8" y="327.2" font-size="4" text-anchor="end" fill="#d6a382" transform="rotate(-80 311.8 327.2)">v5.162.7</text><text x="322.2" y="327.2" font-size="4" text-anchor="end" fill="#d6a382" transform="rotate(-80 322.2 327.2)">v5.162.8</text><text x="332.5" y="327.2" font-size="4" text-anchor="end" fill="#d6a382" transform="rotate(-80 332.5 327.2)">v5.162.9</text><text x="342.8" y="327.2" font-size="4" text-anchor="end" fill="#d6a382" transform="rotate(-80 342.8 327.2)">v5.162.10</text><text x="353.1" y="327.2" font-size="4" text-anchor="end" fill="#d6a382" transform="rotate(-80 353.1 327.2)">v5.162.11</text><text x="363.5" y="327.2" font-size="4" text-anchor="end" fill="#d6a382" transform="rotate(-80 363.5 327.2)">v5.162.12</text><text x="373.8" y="327.2" font-size="4" text-anchor="end" fill="#d6a382" transform="rotate(-80 373.8 327.2)">v5.162.13</text><text x="384.1" y="327.2" font-size="4" text-anchor="end" fill="#d6a382" transform="rotate(-80 384.1 327.2)">v5.162.15</text><text x="394.4" y="327.2" font-size="4" text-anchor="end" fill="#d6a382" transform="rotate(-80 394.4 327.2)">v5.162.16</text><text x="404.8" y="327.2" font-size="4" text-anchor="end" fill="#d6a382" transform="rotate(-80 404.8 327.2)">v5.162.17</text><text x="415.1" y="327.2" font-size="4" text-anchor="end" fill="#d6a382" transform="rotate(-80 415.1 327.2)">v5.162.18</text><text x="425.4" y="327.2" font-size="4" text-anchor="end" fill="#d6a382" transform="rotate(-80 425.4 327.2)">v5.162.19</text><text x="435.8" y="327.2" font-size="4" text-anchor="end" fill="#d6a382" transform="rotate(-80 435.8 327.2)">v5.162.20</text><text x="446.1" y="327.2" font-size="4" text-anchor="end" fill="#d6a382" transform="rotate(-80 446.1 327.2)">v5.162.21</text><text x="456.4" y="327.2" font-size="4" text-anchor="end" fill="#d6a382" transform="rotate(-80 456.4 327.2)">v5.162.22</text><text x="466.7" y="327.2" font-size="4" text-anchor="end" fill="#d6a382" transform="rotate(-80 466.7 327.2)">v5.162.23</text><text x="477.1" y="327.2" font-size="4" text-anchor="end" fill="#d6a382" transform="rotate(-80 477.1 327.2)">v5.162.24</text><text x="487.4" y="327.2" font-size="4" text-anchor="end" fill="#d6a382" transform="rotate(-80 487.4 327.2)">v5.162.25</text><text x="497.7" y="327.2" font-size="4" text-anchor="end" fill="#d6a382" transform="rotate(-80 497.7 327.2)">v5.162.26</text><text x="508.0" y="327.2" font-size="4" text-anchor="end" fill="#d6a382" transform="rotate(-80 508.0 327.2)">v5.162.27</text><text x="518.4" y="327.2" font-size="4" text-anchor="end" fill="#d6a382" transform="rotate(-80 518.4 327.2)">v5.162.28</text><text x="528.7" y="327.2" font-size="4" text-anchor="end" fill="#d6a382" transform="rotate(-80 528.7 327.2)">v5.162.29</text><text x="539.0" y="327.2" font-size="4" text-anchor="end" fill="#d6a382" transform="rotate(-80 539.0 327.2)">v5.162.30</text><text x="549.3" y="327.2" font-size="4" text-anchor="end" fill="#d6a382" transform="rotate(-80 549.3 327.2)">v5.162.31</text><text x="559.7" y="327.2" font-size="4" text-anchor="end" fill="#d6a382" transform="rotate(-80 559.7 327.2)">v5.162.32</text><text x="570.0" y="327.2" font-size="4" text-anchor="end" fill="#d6a382" transform="rotate(-80 570.0 327.2)">v5.162.33</text><path d="M64.0,79.0 L74.3,74.4 L84.7,74.9 L95.0,80.1 L105.3,79.7 L115.6,79.4 L126.0,78.1 L136.3,78.1 L146.6,81.5 L156.9,72.6 L167.3,78.8 L177.6,77.7 L187.9,75.1 L198.2,77.4 L208.6,73.8 L218.9,68.9 L229.2,78.9 L239.6,75.3 L249.9,73.2 L260.2,61.9 L270.5,58.2 L280.9,62.6 L291.2,74.6 L301.5,64.2 L311.8,61.5 L322.2,151.1 L332.5,153.2 L342.8,157.9 L353.1,151.8 L363.5,152.8 L373.8,151.4 L384.1,157.6 L394.4,152.9 L404.8,152.5 L415.1,150.9 L425.4,155.3 L435.8,155.3 L446.1,151.0 L456.4,154.1 L466.7,151.3 L477.1,154.6 L487.4,154.4 L497.7,152.9 L508.0,153.2 L518.4,155.7 L528.7,155.1 L539.0,152.4 L549.3,155.8 L559.7,151.1 L570.0,63.5" fill="none" stroke="#4477AA" stroke-width="1.6"/><circle cx="64.0" cy="79.0" r="2" fill="#4477AA"/><circle cx="74.3" cy="74.4" r="2" fill="#4477AA"/><circle cx="84.7" cy="74.9" r="2" fill="#4477AA"/><circle cx="95.0" cy="80.1" r="2" fill="#4477AA"/><circle cx="105.3" cy="79.7" r="2" fill="#4477AA"/><circle cx="115.6" cy="79.4" r="2" fill="#4477AA"/><circle cx="126.0" cy="78.1" r="2" fill="#4477AA"/><circle cx="136.3" cy="78.1" r="2" fill="#4477AA"/><circle cx="146.6" cy="81.5" r="2" fill="#4477AA"/><circle cx="156.9" cy="72.6" r="2" fill="#4477AA"/><circle cx="167.3" cy="78.8" r="2" fill="#4477AA"/><circle cx="177.6" cy="77.7" r="2" fill="#4477AA"/><circle cx="187.9" cy="75.1" r="2" fill="#4477AA"/><circle cx="198.2" cy="77.4" r="2" fill="#4477AA"/><circle cx="208.6" cy="73.8" r="2" fill="#4477AA"/><circle cx="218.9" cy="68.9" r="2" fill="#4477AA"/><circle cx="229.2" cy="78.9" r="2" fill="#4477AA"/><circle cx="239.6" cy="75.3" r="2" fill="#4477AA"/><circle cx="249.9" cy="73.2" r="2" fill="#4477AA"/><circle cx="260.2" cy="61.9" r="2" fill="#4477AA"/><circle cx="270.5" cy="58.2" r="2" fill="#4477AA"/><circle cx="280.9" cy="62.6" r="2" fill="#4477AA"/><circle cx="291.2" cy="74.6" r="2" fill="#4477AA"/><circle cx="301.5" cy="64.2" r="2" fill="#4477AA"/><circle cx="311.8" cy="61.5" r="2" fill="#4477AA"/><circle cx="322.2" cy="151.1" r="2" fill="#4477AA"/><circle cx="332.5" cy="153.2" r="2" fill="#4477AA"/><circle cx="342.8" cy="157.9" r="2" fill="#4477AA"/><circle cx="353.1" cy="151.8" r="2" fill="#4477AA"/><circle cx="363.5" cy="152.8" r="2" fill="#4477AA"/><circle cx="373.8" cy="151.4" r="2" fill="#4477AA"/><circle cx="384.1" cy="157.6" r="2" fill="#4477AA"/><circle cx="394.4" cy="152.9" r="2" fill="#4477AA"/><circle cx="404.8" cy="152.5" r="2" fill="#4477AA"/><circle cx="415.1" cy="150.9" r="2" fill="#4477AA"/><circle cx="425.4" cy="155.3" r="2" fill="#4477AA"/><circle cx="435.8" cy="155.3" r="2" fill="#4477AA"/><circle cx="446.1" cy="151.0" r="2" fill="#4477AA"/><circle cx="456.4" cy="154.1" r="2" fill="#4477AA"/><circle cx="466.7" cy="151.3" r="2" fill="#4477AA"/><circle cx="477.1" cy="154.6" r="2" fill="#4477AA"/><circle cx="487.4" cy="154.4" r="2" fill="#4477AA"/><circle cx="497.7" cy="152.9" r="2" fill="#4477AA"/><circle cx="508.0" cy="153.2" r="2" fill="#4477AA"/><circle cx="518.4" cy="155.7" r="2" fill="#4477AA"/><circle cx="528.7" cy="155.1" r="2" fill="#4477AA"/><circle cx="539.0" cy="152.4" r="2" fill="#4477AA"/><circle cx="549.3" cy="155.8" r="2" fill="#4477AA"/><circle cx="559.7" cy="151.1" r="2" fill="#4477AA"/><circle cx="570.0" cy="63.5" r="2" fill="#4477AA"/><rect x="580" y="34" width="10" height="10" fill="#4477AA"/><text x="594" y="43" font-size="10" fill="#444">chain-10</text><path d="M64.0,81.8 L74.3,77.3 L84.7,77.2 L95.0,82.3 L105.3,80.8 L115.6,78.6 L126.0,81.4 L136.3,82.2 L146.6,80.6 L156.9,76.0 L167.3,80.8 L177.6,81.3 L187.9,75.6 L198.2,80.3 L208.6,78.6 L218.9,80.0 L229.2,82.2 L239.6,84.5 L249.9,82.2 L260.2,63.7 L270.5,68.2 L280.9,69.9 L291.2,77.4 L301.5,65.8 L311.8,72.2 L322.2,156.1 L332.5,157.0 L342.8,158.5 L353.1,161.9 L363.5,153.0 L373.8,162.9 L384.1,158.2 L394.4,158.6 L404.8,159.9 L415.1,159.9 L425.4,161.9 L435.8,163.3 L446.1,159.6 L456.4,155.7 L466.7,154.8 L477.1,160.8 L487.4,154.2 L497.7,157.7 L508.0,157.6 L518.4,161.1 L528.7,159.9 L539.0,159.0 L549.3,160.4 L559.7,156.9 L570.0,73.5" fill="none" stroke="#EE6677" stroke-width="1.6"/><circle cx="64.0" cy="81.8" r="2" fill="#EE6677"/><circle cx="74.3" cy="77.3" r="2" fill="#EE6677"/><circle cx="84.7" cy="77.2" r="2" fill="#EE6677"/><circle cx="95.0" cy="82.3" r="2" fill="#EE6677"/><circle cx="105.3" cy="80.8" r="2" fill="#EE6677"/><circle cx="115.6" cy="78.6" r="2" fill="#EE6677"/><circle cx="126.0" cy="81.4" r="2" fill="#EE6677"/><circle cx="136.3" cy="82.2" r="2" fill="#EE6677"/><circle cx="146.6" cy="80.6" r="2" fill="#EE6677"/><circle cx="156.9" cy="76.0" r="2" fill="#EE6677"/><circle cx="167.3" cy="80.8" r="2" fill="#EE6677"/><circle cx="177.6" cy="81.3" r="2" fill="#EE6677"/><circle cx="187.9" cy="75.6" r="2" fill="#EE6677"/><circle cx="198.2" cy="80.3" r="2" fill="#EE6677"/><circle cx="208.6" cy="78.6" r="2" fill="#EE6677"/><circle cx="218.9" cy="80.0" r="2" fill="#EE6677"/><circle cx="229.2" cy="82.2" r="2" fill="#EE6677"/><circle cx="239.6" cy="84.5" r="2" fill="#EE6677"/><circle cx="249.9" cy="82.2" r="2" fill="#EE6677"/><circle cx="260.2" cy="63.7" r="2" fill="#EE6677"/><circle cx="270.5" cy="68.2" r="2" fill="#EE6677"/><circle cx="280.9" cy="69.9" r="2" fill="#EE6677"/><circle cx="291.2" cy="77.4" r="2" fill="#EE6677"/><circle cx="301.5" cy="65.8" r="2" fill="#EE6677"/><circle cx="311.8" cy="72.2" r="2" fill="#EE6677"/><circle cx="322.2" cy="156.1" r="2" fill="#EE6677"/><circle cx="332.5" cy="157.0" r="2" fill="#EE6677"/><circle cx="342.8" cy="158.5" r="2" fill="#EE6677"/><circle cx="353.1" cy="161.9" r="2" fill="#EE6677"/><circle cx="363.5" cy="153.0" r="2" fill="#EE6677"/><circle cx="373.8" cy="162.9" r="2" fill="#EE6677"/><circle cx="384.1" cy="158.2" r="2" fill="#EE6677"/><circle cx="394.4" cy="158.6" r="2" fill="#EE6677"/><circle cx="404.8" cy="159.9" r="2" fill="#EE6677"/><circle cx="415.1" cy="159.9" r="2" fill="#EE6677"/><circle cx="425.4" cy="161.9" r="2" fill="#EE6677"/><circle cx="435.8" cy="163.3" r="2" fill="#EE6677"/><circle cx="446.1" cy="159.6" r="2" fill="#EE6677"/><circle cx="456.4" cy="155.7" r="2" fill="#EE6677"/><circle cx="466.7" cy="154.8" r="2" fill="#EE6677"/><circle cx="477.1" cy="160.8" r="2" fill="#EE6677"/><circle cx="487.4" cy="154.2" r="2" fill="#EE6677"/><circle cx="497.7" cy="157.7" r="2" fill="#EE6677"/><circle cx="508.0" cy="157.6" r="2" fill="#EE6677"/><circle cx="518.4" cy="161.1" r="2" fill="#EE6677"/><circle cx="528.7" cy="159.9" r="2" fill="#EE6677"/><circle cx="539.0" cy="159.0" r="2" fill="#EE6677"/><circle cx="549.3" cy="160.4" r="2" fill="#EE6677"/><circle cx="559.7" cy="156.9" r="2" fill="#EE6677"/><circle cx="570.0" cy="73.5" r="2" fill="#EE6677"/><rect x="580" y="49" width="10" height="10" fill="#EE6677"/><text x="594" y="58" font-size="10" fill="#444">chain-50</text><path d="M64.0,81.8 L74.3,87.5 L84.7,83.7 L95.0,86.0 L105.3,82.6 L115.6,86.5 L126.0,81.5 L136.3,81.8 L146.6,84.8 L156.9,83.6 L167.3,82.9 L177.6,84.0 L187.9,76.5 L198.2,85.2 L208.6,82.0 L218.9,83.1 L229.2,89.9 L239.6,87.5 L249.9,88.2 L260.2,69.9 L270.5,68.3 L280.9,72.4 L291.2,80.3 L301.5,73.8 L311.8,70.1 L322.2,166.2 L332.5,162.9 L342.8,174.1 L353.1,164.4 L363.5,161.6 L373.8,167.5 L384.1,166.3 L394.4,164.8 L404.8,167.5 L415.1,170.1 L425.4,167.8 L435.8,166.9 L446.1,161.9 L456.4,161.7 L466.7,167.2 L477.1,171.0 L487.4,162.1 L497.7,166.2 L508.0,165.0 L518.4,169.0 L528.7,164.0 L539.0,175.4 L549.3,167.3 L559.7,164.3 L570.0,77.2" fill="none" stroke="#228833" stroke-width="1.6"/><circle cx="64.0" cy="81.8" r="2" fill="#228833"/><circle cx="74.3" cy="87.5" r="2" fill="#228833"/><circle cx="84.7" cy="83.7" r="2" fill="#228833"/><circle cx="95.0" cy="86.0" r="2" fill="#228833"/><circle cx="105.3" cy="82.6" r="2" fill="#228833"/><circle cx="115.6" cy="86.5" r="2" fill="#228833"/><circle cx="126.0" cy="81.5" r="2" fill="#228833"/><circle cx="136.3" cy="81.8" r="2" fill="#228833"/><circle cx="146.6" cy="84.8" r="2" fill="#228833"/><circle cx="156.9" cy="83.6" r="2" fill="#228833"/><circle cx="167.3" cy="82.9" r="2" fill="#228833"/><circle cx="177.6" cy="84.0" r="2" fill="#228833"/><circle cx="187.9" cy="76.5" r="2" fill="#228833"/><circle cx="198.2" cy="85.2" r="2" fill="#228833"/><circle cx="208.6" cy="82.0" r="2" fill="#228833"/><circle cx="218.9" cy="83.1" r="2" fill="#228833"/><circle cx="229.2" cy="89.9" r="2" fill="#228833"/><circle cx="239.6" cy="87.5" r="2" fill="#228833"/><circle cx="249.9" cy="88.2" r="2" fill="#228833"/><circle cx="260.2" cy="69.9" r="2" fill="#228833"/><circle cx="270.5" cy="68.3" r="2" fill="#228833"/><circle cx="280.9" cy="72.4" r="2" fill="#228833"/><circle cx="291.2" cy="80.3" r="2" fill="#228833"/><circle cx="301.5" cy="73.8" r="2" fill="#228833"/><circle cx="311.8" cy="70.1" r="2" fill="#228833"/><circle cx="322.2" cy="166.2" r="2" fill="#228833"/><circle cx="332.5" cy="162.9" r="2" fill="#228833"/><circle cx="342.8" cy="174.1" r="2" fill="#228833"/><circle cx="353.1" cy="164.4" r="2" fill="#228833"/><circle cx="363.5" cy="161.6" r="2" fill="#228833"/><circle cx="373.8" cy="167.5" r="2" fill="#228833"/><circle cx="384.1" cy="166.3" r="2" fill="#228833"/><circle cx="394.4" cy="164.8" r="2" fill="#228833"/><circle cx="404.8" cy="167.5" r="2" fill="#228833"/><circle cx="415.1" cy="170.1" r="2" fill="#228833"/><circle cx="425.4" cy="167.8" r="2" fill="#228833"/><circle cx="435.8" cy="166.9" r="2" fill="#228833"/><circle cx="446.1" cy="161.9" r="2" fill="#228833"/><circle cx="456.4" cy="161.7" r="2" fill="#228833"/><circle cx="466.7" cy="167.2" r="2" fill="#228833"/><circle cx="477.1" cy="171.0" r="2" fill="#228833"/><circle cx="487.4" cy="162.1" r="2" fill="#228833"/><circle cx="497.7" cy="166.2" r="2" fill="#228833"/><circle cx="508.0" cy="165.0" r="2" fill="#228833"/><circle cx="518.4" cy="169.0" r="2" fill="#228833"/><circle cx="528.7" cy="164.0" r="2" fill="#228833"/><circle cx="539.0" cy="175.4" r="2" fill="#228833"/><circle cx="549.3" cy="167.3" r="2" fill="#228833"/><circle cx="559.7" cy="164.3" r="2" fill="#228833"/><circle cx="570.0" cy="77.2" r="2" fill="#228833"/><rect x="580" y="64" width="10" height="10" fill="#228833"/><text x="594" y="73" font-size="10" fill="#444">chain-200</text><path d="M64.0,99.4 L74.3,93.6 L84.7,92.3 L95.0,91.8 L105.3,91.7 L115.6,92.1 L126.0,89.4 L136.3,87.6 L146.6,92.0 L156.9,89.5 L167.3,91.7 L177.6,89.3 L187.9,87.0 L198.2,94.3 L208.6,95.4 L218.9,98.5 L229.2,96.7 L239.6,92.4 L249.9,96.9 L260.2,82.9 L270.5,84.4 L280.9,82.8 L291.2,97.8 L301.5,81.1 L311.8,81.7 L322.2,170.3 L332.5,171.0 L342.8,174.2 L353.1,174.8 L363.5,173.0 L373.8,171.2 L384.1,180.7 L394.4,175.6 L404.8,173.9 L415.1,174.2 L425.4,177.0 L435.8,177.6 L446.1,176.6 L456.4,171.0 L466.7,171.9 L477.1,174.5 L487.4,169.6 L497.7,171.1 L508.0,173.6 L518.4,176.2 L528.7,173.4 L539.0,176.9 L549.3,171.3 L559.7,177.0 L570.0,90.9" fill="none" stroke="#CCBB44" stroke-width="1.6"/><circle cx="64.0" cy="99.4" r="2" fill="#CCBB44"/><circle cx="74.3" cy="93.6" r="2" fill="#CCBB44"/><circle cx="84.7" cy="92.3" r="2" fill="#CCBB44"/><circle cx="95.0" cy="91.8" r="2" fill="#CCBB44"/><circle cx="105.3" cy="91.7" r="2" fill="#CCBB44"/><circle cx="115.6" cy="92.1" r="2" fill="#CCBB44"/><circle cx="126.0" cy="89.4" r="2" fill="#CCBB44"/><circle cx="136.3" cy="87.6" r="2" fill="#CCBB44"/><circle cx="146.6" cy="92.0" r="2" fill="#CCBB44"/><circle cx="156.9" cy="89.5" r="2" fill="#CCBB44"/><circle cx="167.3" cy="91.7" r="2" fill="#CCBB44"/><circle cx="177.6" cy="89.3" r="2" fill="#CCBB44"/><circle cx="187.9" cy="87.0" r="2" fill="#CCBB44"/><circle cx="198.2" cy="94.3" r="2" fill="#CCBB44"/><circle cx="208.6" cy="95.4" r="2" fill="#CCBB44"/><circle cx="218.9" cy="98.5" r="2" fill="#CCBB44"/><circle cx="229.2" cy="96.7" r="2" fill="#CCBB44"/><circle cx="239.6" cy="92.4" r="2" fill="#CCBB44"/><circle cx="249.9" cy="96.9" r="2" fill="#CCBB44"/><circle cx="260.2" cy="82.9" r="2" fill="#CCBB44"/><circle cx="270.5" cy="84.4" r="2" fill="#CCBB44"/><circle cx="280.9" cy="82.8" r="2" fill="#CCBB44"/><circle cx="291.2" cy="97.8" r="2" fill="#CCBB44"/><circle cx="301.5" cy="81.1" r="2" fill="#CCBB44"/><circle cx="311.8" cy="81.7" r="2" fill="#CCBB44"/><circle cx="322.2" cy="170.3" r="2" fill="#CCBB44"/><circle cx="332.5" cy="171.0" r="2" fill="#CCBB44"/><circle cx="342.8" cy="174.2" r="2" fill="#CCBB44"/><circle cx="353.1" cy="174.8" r="2" fill="#CCBB44"/><circle cx="363.5" cy="173.0" r="2" fill="#CCBB44"/><circle cx="373.8" cy="171.2" r="2" fill="#CCBB44"/><circle cx="384.1" cy="180.7" r="2" fill="#CCBB44"/><circle cx="394.4" cy="175.6" r="2" fill="#CCBB44"/><circle cx="404.8" cy="173.9" r="2" fill="#CCBB44"/><circle cx="415.1" cy="174.2" r="2" fill="#CCBB44"/><circle cx="425.4" cy="177.0" r="2" fill="#CCBB44"/><circle cx="435.8" cy="177.6" r="2" fill="#CCBB44"/><circle cx="446.1" cy="176.6" r="2" fill="#CCBB44"/><circle cx="456.4" cy="171.0" r="2" fill="#CCBB44"/><circle cx="466.7" cy="171.9" r="2" fill="#CCBB44"/><circle cx="477.1" cy="174.5" r="2" fill="#CCBB44"/><circle cx="487.4" cy="169.6" r="2" fill="#CCBB44"/><circle cx="497.7" cy="171.1" r="2" fill="#CCBB44"/><circle cx="508.0" cy="173.6" r="2" fill="#CCBB44"/><circle cx="518.4" cy="176.2" r="2" fill="#CCBB44"/><circle cx="528.7" cy="173.4" r="2" fill="#CCBB44"/><circle cx="539.0" cy="176.9" r="2" fill="#CCBB44"/><circle cx="549.3" cy="171.3" r="2" fill="#CCBB44"/><circle cx="559.7" cy="177.0" r="2" fill="#CCBB44"/><circle cx="570.0" cy="90.9" r="2" fill="#CCBB44"/><rect x="580" y="79" width="10" height="10" fill="#CCBB44"/><text x="594" y="88" font-size="10" fill="#444">chain-1000</text><path d="M64.0,221.6 L74.3,220.9 L84.7,220.2 L95.0,222.0 L105.3,220.8 L115.6,219.8 L126.0,220.0 L136.3,219.5 L146.6,221.0 L156.9,222.1 L167.3,221.0 L177.6,222.2 L187.9,220.7 L198.2,222.4 L208.6,220.8 L218.9,220.1 L229.2,221.9 L239.6,221.5 L249.9,221.8 L260.2,218.3 L270.5,219.3 L280.9,220.9 L291.2,221.8 L301.5,218.2 L311.8,219.1 L322.2,258.1 L332.5,257.8 L342.8,258.8 L353.1,258.0 L363.5,258.5 L373.8,259.2 L384.1,258.7 L394.4,258.3 L404.8,258.6 L415.1,258.1 L425.4,258.6 L435.8,258.4 L446.1,260.9 L456.4,261.4 L466.7,258.3 L477.1,258.7 L487.4,258.4 L497.7,259.1 L508.0,258.4 L518.4,258.2 L528.7,261.2 L539.0,258.2 L549.3,259.0 L559.7,258.1 L570.0,220.1" fill="none" stroke="#66CCEE" stroke-width="1.6"/><circle cx="64.0" cy="221.6" r="2" fill="#66CCEE"/><circle cx="74.3" cy="220.9" r="2" fill="#66CCEE"/><circle cx="84.7" cy="220.2" r="2" fill="#66CCEE"/><circle cx="95.0" cy="222.0" r="2" fill="#66CCEE"/><circle cx="105.3" cy="220.8" r="2" fill="#66CCEE"/><circle cx="115.6" cy="219.8" r="2" fill="#66CCEE"/><circle cx="126.0" cy="220.0" r="2" fill="#66CCEE"/><circle cx="136.3" cy="219.5" r="2" fill="#66CCEE"/><circle cx="146.6" cy="221.0" r="2" fill="#66CCEE"/><circle cx="156.9" cy="222.1" r="2" fill="#66CCEE"/><circle cx="167.3" cy="221.0" r="2" fill="#66CCEE"/><circle cx="177.6" cy="222.2" r="2" fill="#66CCEE"/><circle cx="187.9" cy="220.7" r="2" fill="#66CCEE"/><circle cx="198.2" cy="222.4" r="2" fill="#66CCEE"/><circle cx="208.6" cy="220.8" r="2" fill="#66CCEE"/><circle cx="218.9" cy="220.1" r="2" fill="#66CCEE"/><circle cx="229.2" cy="221.9" r="2" fill="#66CCEE"/><circle cx="239.6" cy="221.5" r="2" fill="#66CCEE"/><circle cx="249.9" cy="221.8" r="2" fill="#66CCEE"/><circle cx="260.2" cy="218.3" r="2" fill="#66CCEE"/><circle cx="270.5" cy="219.3" r="2" fill="#66CCEE"/><circle cx="280.9" cy="220.9" r="2" fill="#66CCEE"/><circle cx="291.2" cy="221.8" r="2" fill="#66CCEE"/><circle cx="301.5" cy="218.2" r="2" fill="#66CCEE"/><circle cx="311.8" cy="219.1" r="2" fill="#66CCEE"/><circle cx="322.2" cy="258.1" r="2" fill="#66CCEE"/><circle cx="332.5" cy="257.8" r="2" fill="#66CCEE"/><circle cx="342.8" cy="258.8" r="2" fill="#66CCEE"/><circle cx="353.1" cy="258.0" r="2" fill="#66CCEE"/><circle cx="363.5" cy="258.5" r="2" fill="#66CCEE"/><circle cx="373.8" cy="259.2" r="2" fill="#66CCEE"/><circle cx="384.1" cy="258.7" r="2" fill="#66CCEE"/><circle cx="394.4" cy="258.3" r="2" fill="#66CCEE"/><circle cx="404.8" cy="258.6" r="2" fill="#66CCEE"/><circle cx="415.1" cy="258.1" r="2" fill="#66CCEE"/><circle cx="425.4" cy="258.6" r="2" fill="#66CCEE"/><circle cx="435.8" cy="258.4" r="2" fill="#66CCEE"/><circle cx="446.1" cy="260.9" r="2" fill="#66CCEE"/><circle cx="456.4" cy="261.4" r="2" fill="#66CCEE"/><circle cx="466.7" cy="258.3" r="2" fill="#66CCEE"/><circle cx="477.1" cy="258.7" r="2" fill="#66CCEE"/><circle cx="487.4" cy="258.4" r="2" fill="#66CCEE"/><circle cx="497.7" cy="259.1" r="2" fill="#66CCEE"/><circle cx="508.0" cy="258.4" r="2" fill="#66CCEE"/><circle cx="518.4" cy="258.2" r="2" fill="#66CCEE"/><circle cx="528.7" cy="261.2" r="2" fill="#66CCEE"/><circle cx="539.0" cy="258.2" r="2" fill="#66CCEE"/><circle cx="549.3" cy="259.0" r="2" fill="#66CCEE"/><circle cx="559.7" cy="258.1" r="2" fill="#66CCEE"/><circle cx="570.0" cy="220.1" r="2" fill="#66CCEE"/><rect x="580" y="94" width="10" height="10" fill="#66CCEE"/><text x="594" y="103" font-size="10" fill="#444">dense-10</text><path d="M64.0,286.1 L74.3,285.6 L84.7,285.8 L95.0,285.9 L105.3,285.7 L115.6,285.9 L126.0,285.7 L136.3,285.8 L146.6,285.7 L156.9,285.5 L167.3,286.0 L177.6,285.7 L187.9,285.6 L198.2,285.7 L208.6,285.9 L218.9,286.0 L229.2,286.0 L239.6,286.3 L249.9,286.0 L260.2,285.2 L270.5,284.9 L280.9,285.1 L291.2,285.7 L301.5,285.4 L311.8,285.2 L322.2,293.0 L332.5,292.9 L342.8,293.2 L353.1,293.1 L363.5,292.9 L373.8,293.0 L384.1,293.3 L394.4,293.1 L404.8,293.1 L415.1,293.8 L425.4,293.3 L435.8,293.5 L446.1,293.0 L456.4,293.8 L466.7,293.0 L477.1,293.3 L487.4,293.0 L497.7,293.4 L508.0,293.0 L518.4,293.3 L528.7,293.1 L539.0,293.1 L549.3,293.0 L559.7,293.0 L570.0,285.4" fill="none" stroke="#AA3377" stroke-width="1.6"/><circle cx="64.0" cy="286.1" r="2" fill="#AA3377"/><circle cx="74.3" cy="285.6" r="2" fill="#AA3377"/><circle cx="84.7" cy="285.8" r="2" fill="#AA3377"/><circle cx="95.0" cy="285.9" r="2" fill="#AA3377"/><circle cx="105.3" cy="285.7" r="2" fill="#AA3377"/><circle cx="115.6" cy="285.9" r="2" fill="#AA3377"/><circle cx="126.0" cy="285.7" r="2" fill="#AA3377"/><circle cx="136.3" cy="285.8" r="2" fill="#AA3377"/><circle cx="146.6" cy="285.7" r="2" fill="#AA3377"/><circle cx="156.9" cy="285.5" r="2" fill="#AA3377"/><circle cx="167.3" cy="286.0" r="2" fill="#AA3377"/><circle cx="177.6" cy="285.7" r="2" fill="#AA3377"/><circle cx="187.9" cy="285.6" r="2" fill="#AA3377"/><circle cx="198.2" cy="285.7" r="2" fill="#AA3377"/><circle cx="208.6" cy="285.9" r="2" fill="#AA3377"/><circle cx="218.9" cy="286.0" r="2" fill="#AA3377"/><circle cx="229.2" cy="286.0" r="2" fill="#AA3377"/><circle cx="239.6" cy="286.3" r="2" fill="#AA3377"/><circle cx="249.9" cy="286.0" r="2" fill="#AA3377"/><circle cx="260.2" cy="285.2" r="2" fill="#AA3377"/><circle cx="270.5" cy="284.9" r="2" fill="#AA3377"/><circle cx="280.9" cy="285.1" r="2" fill="#AA3377"/><circle cx="291.2" cy="285.7" r="2" fill="#AA3377"/><circle cx="301.5" cy="285.4" r="2" fill="#AA3377"/><circle cx="311.8" cy="285.2" r="2" fill="#AA3377"/><circle cx="322.2" cy="293.0" r="2" fill="#AA3377"/><circle cx="332.5" cy="292.9" r="2" fill="#AA3377"/><circle cx="342.8" cy="293.2" r="2" fill="#AA3377"/><circle cx="353.1" cy="293.1" r="2" fill="#AA3377"/><circle cx="363.5" cy="292.9" r="2" fill="#AA3377"/><circle cx="373.8" cy="293.0" r="2" fill="#AA3377"/><circle cx="384.1" cy="293.3" r="2" fill="#AA3377"/><circle cx="394.4" cy="293.1" r="2" fill="#AA3377"/><circle cx="404.8" cy="293.1" r="2" fill="#AA3377"/><circle cx="415.1" cy="293.8" r="2" fill="#AA3377"/><circle cx="425.4" cy="293.3" r="2" fill="#AA3377"/><circle cx="435.8" cy="293.5" r="2" fill="#AA3377"/><circle cx="446.1" cy="293.0" r="2" fill="#AA3377"/><circle cx="456.4" cy="293.8" r="2" fill="#AA3377"/><circle cx="466.7" cy="293.0" r="2" fill="#AA3377"/><circle cx="477.1" cy="293.3" r="2" fill="#AA3377"/><circle cx="487.4" cy="293.0" r="2" fill="#AA3377"/><circle cx="497.7" cy="293.4" r="2" fill="#AA3377"/><circle cx="508.0" cy="293.0" r="2" fill="#AA3377"/><circle cx="518.4" cy="293.3" r="2" fill="#AA3377"/><circle cx="528.7" cy="293.1" r="2" fill="#AA3377"/><circle cx="539.0" cy="293.1" r="2" fill="#AA3377"/><circle cx="549.3" cy="293.0" r="2" fill="#AA3377"/><circle cx="559.7" cy="293.0" r="2" fill="#AA3377"/><circle cx="570.0" cy="285.4" r="2" fill="#AA3377"/><rect x="580" y="109" width="10" height="10" fill="#AA3377"/><text x="594" y="118" font-size="10" fill="#444">dense-50</text><path d="M64.0,297.7 L74.3,297.7 L84.7,297.6 L95.0,297.6 L105.3,297.6 L115.6,297.7 L126.0,297.5 L136.3,297.6 L146.6,297.7 L156.9,297.5 L167.3,297.6 L177.6,297.6 L187.9,297.6 L198.2,297.6 L208.6,297.6 L218.9,297.6 L229.2,297.6 L239.6,297.6 L249.9,297.6 L260.2,297.4 L270.5,297.4 L280.9,297.4 L291.2,297.5 L301.5,297.4 L311.8,297.4 L322.2,299.4 L332.5,299.6 L342.8,299.5 L353.1,299.5 L363.5,299.5 L373.8,299.5 L384.1,299.5 L394.4,299.5 L404.8,299.5 L415.1,299.6 L425.4,299.5 L435.8,299.5 L446.1,299.5 L456.4,299.6 L466.7,299.6 L477.1,299.8 L487.4,299.5 L497.7,299.6 L508.0,299.5 L518.4,299.7 L528.7,299.4 L539.0,299.5 L549.3,299.5 L559.7,299.5 L570.0,297.5" fill="none" stroke="#BBBBBB" stroke-width="1.6"/><circle cx="64.0" cy="297.7" r="2" fill="#BBBBBB"/><circle cx="74.3" cy="297.7" r="2" fill="#BBBBBB"/><circle cx="84.7" cy="297.6" r="2" fill="#BBBBBB"/><circle cx="95.0" cy="297.6" r="2" fill="#BBBBBB"/><circle cx="105.3" cy="297.6" r="2" fill="#BBBBBB"/><circle cx="115.6" cy="297.7" r="2" fill="#BBBBBB"/><circle cx="126.0" cy="297.5" r="2" fill="#BBBBBB"/><circle cx="136.3" cy="297.6" r="2" fill="#BBBBBB"/><circle cx="146.6" cy="297.7" r="2" fill="#BBBBBB"/><circle cx="156.9" cy="297.5" r="2" fill="#BBBBBB"/><circle cx="167.3" cy="297.6" r="2" fill="#BBBBBB"/><circle cx="177.6" cy="297.6" r="2" fill="#BBBBBB"/><circle cx="187.9" cy="297.6" r="2" fill="#BBBBBB"/><circle cx="198.2" cy="297.6" r="2" fill="#BBBBBB"/><circle cx="208.6" cy="297.6" r="2" fill="#BBBBBB"/><circle cx="218.9" cy="297.6" r="2" fill="#BBBBBB"/><circle cx="229.2" cy="297.6" r="2" fill="#BBBBBB"/><circle cx="239.6" cy="297.6" r="2" fill="#BBBBBB"/><circle cx="249.9" cy="297.6" r="2" fill="#BBBBBB"/><circle cx="260.2" cy="297.4" r="2" fill="#BBBBBB"/><circle cx="270.5" cy="297.4" r="2" fill="#BBBBBB"/><circle cx="280.9" cy="297.4" r="2" fill="#BBBBBB"/><circle cx="291.2" cy="297.5" r="2" fill="#BBBBBB"/><circle cx="301.5" cy="297.4" r="2" fill="#BBBBBB"/><circle cx="311.8" cy="297.4" r="2" fill="#BBBBBB"/><circle cx="322.2" cy="299.4" r="2" fill="#BBBBBB"/><circle cx="332.5" cy="299.6" r="2" fill="#BBBBBB"/><circle cx="342.8" cy="299.5" r="2" fill="#BBBBBB"/><circle cx="353.1" cy="299.5" r="2" fill="#BBBBBB"/><circle cx="363.5" cy="299.5" r="2" fill="#BBBBBB"/><circle cx="373.8" cy="299.5" r="2" fill="#BBBBBB"/><circle cx="384.1" cy="299.5" r="2" fill="#BBBBBB"/><circle cx="394.4" cy="299.5" r="2" fill="#BBBBBB"/><circle cx="404.8" cy="299.5" r="2" fill="#BBBBBB"/><circle cx="415.1" cy="299.6" r="2" fill="#BBBBBB"/><circle cx="425.4" cy="299.5" r="2" fill="#BBBBBB"/><circle cx="435.8" cy="299.5" r="2" fill="#BBBBBB"/><circle cx="446.1" cy="299.5" r="2" fill="#BBBBBB"/><circle cx="456.4" cy="299.6" r="2" fill="#BBBBBB"/><circle cx="466.7" cy="299.6" r="2" fill="#BBBBBB"/><circle cx="477.1" cy="299.8" r="2" fill="#BBBBBB"/><circle cx="487.4" cy="299.5" r="2" fill="#BBBBBB"/><circle cx="497.7" cy="299.6" r="2" fill="#BBBBBB"/><circle cx="508.0" cy="299.5" r="2" fill="#BBBBBB"/><circle cx="518.4" cy="299.7" r="2" fill="#BBBBBB"/><circle cx="528.7" cy="299.4" r="2" fill="#BBBBBB"/><circle cx="539.0" cy="299.5" r="2" fill="#BBBBBB"/><circle cx="549.3" cy="299.5" r="2" fill="#BBBBBB"/><circle cx="559.7" cy="299.5" r="2" fill="#BBBBBB"/><circle cx="570.0" cy="297.5" r="2" fill="#BBBBBB"/><rect x="580" y="124" width="10" height="10" fill="#BBBBBB"/><text x="594" y="133" font-size="10" fill="#444">dense-200</text><path d="M64.0,271.1 L74.3,270.8 L84.7,270.6 L95.0,271.4 L105.3,270.6 L115.6,270.5 L126.0,270.8 L136.3,270.6 L146.6,270.9 L156.9,270.3 L167.3,270.8 L177.6,270.9 L187.9,270.4 L198.2,270.9 L208.6,271.0 L218.9,270.5 L229.2,271.1 L239.6,270.7 L249.9,270.6 L260.2,269.1 L270.5,269.1 L280.9,269.7 L291.2,270.5 L301.5,269.1 L311.8,269.3 L322.2,284.7 L332.5,284.6 L342.8,285.0 L353.1,285.2 L363.5,284.7 L373.8,284.9 L384.1,285.0 L394.4,285.0 L404.8,285.1 L415.1,285.1 L425.4,285.0 L435.8,285.2 L446.1,285.5 L456.4,284.9 L466.7,285.6 L477.1,285.1 L487.4,284.8 L497.7,285.1 L508.0,287.0 L518.4,287.7 L528.7,284.9 L539.0,284.9 L549.3,285.0 L559.7,285.2 L570.0,269.9" fill="none" stroke="#222255" stroke-width="1.6"/><circle cx="64.0" cy="271.1" r="2" fill="#222255"/><circle cx="74.3" cy="270.8" r="2" fill="#222255"/><circle cx="84.7" cy="270.6" r="2" fill="#222255"/><circle cx="95.0" cy="271.4" r="2" fill="#222255"/><circle cx="105.3" cy="270.6" r="2" fill="#222255"/><circle cx="115.6" cy="270.5" r="2" fill="#222255"/><circle cx="126.0" cy="270.8" r="2" fill="#222255"/><circle cx="136.3" cy="270.6" r="2" fill="#222255"/><circle cx="146.6" cy="270.9" r="2" fill="#222255"/><circle cx="156.9" cy="270.3" r="2" fill="#222255"/><circle cx="167.3" cy="270.8" r="2" fill="#222255"/><circle cx="177.6" cy="270.9" r="2" fill="#222255"/><circle cx="187.9" cy="270.4" r="2" fill="#222255"/><circle cx="198.2" cy="270.9" r="2" fill="#222255"/><circle cx="208.6" cy="271.0" r="2" fill="#222255"/><circle cx="218.9" cy="270.5" r="2" fill="#222255"/><circle cx="229.2" cy="271.1" r="2" fill="#222255"/><circle cx="239.6" cy="270.7" r="2" fill="#222255"/><circle cx="249.9" cy="270.6" r="2" fill="#222255"/><circle cx="260.2" cy="269.1" r="2" fill="#222255"/><circle cx="270.5" cy="269.1" r="2" fill="#222255"/><circle cx="280.9" cy="269.7" r="2" fill="#222255"/><circle cx="291.2" cy="270.5" r="2" fill="#222255"/><circle cx="301.5" cy="269.1" r="2" fill="#222255"/><circle cx="311.8" cy="269.3" r="2" fill="#222255"/><circle cx="322.2" cy="284.7" r="2" fill="#222255"/><circle cx="332.5" cy="284.6" r="2" fill="#222255"/><circle cx="342.8" cy="285.0" r="2" fill="#222255"/><circle cx="353.1" cy="285.2" r="2" fill="#222255"/><circle cx="363.5" cy="284.7" r="2" fill="#222255"/><circle cx="373.8" cy="284.9" r="2" fill="#222255"/><circle cx="384.1" cy="285.0" r="2" fill="#222255"/><circle cx="394.4" cy="285.0" r="2" fill="#222255"/><circle cx="404.8" cy="285.1" r="2" fill="#222255"/><circle cx="415.1" cy="285.1" r="2" fill="#222255"/><circle cx="425.4" cy="285.0" r="2" fill="#222255"/><circle cx="435.8" cy="285.2" r="2" fill="#222255"/><circle cx="446.1" cy="285.5" r="2" fill="#222255"/><circle cx="456.4" cy="284.9" r="2" fill="#222255"/><circle cx="466.7" cy="285.6" r="2" fill="#222255"/><circle cx="477.1" cy="285.1" r="2" fill="#222255"/><circle cx="487.4" cy="284.8" r="2" fill="#222255"/><circle cx="497.7" cy="285.1" r="2" fill="#222255"/><circle cx="508.0" cy="287.0" r="2" fill="#222255"/><circle cx="518.4" cy="287.7" r="2" fill="#222255"/><circle cx="528.7" cy="284.9" r="2" fill="#222255"/><circle cx="539.0" cy="284.9" r="2" fill="#222255"/><circle cx="549.3" cy="285.0" r="2" fill="#222255"/><circle cx="559.7" cy="285.2" r="2" fill="#222255"/><circle cx="570.0" cy="269.9" r="2" fill="#222255"/><rect x="580" y="139" width="10" height="10" fill="#222255"/><text x="594" y="148" font-size="10" fill="#444">hub-50</text><path d="M64.0,293.5 L74.3,293.3 L84.7,293.3 L95.0,293.4 L105.3,293.3 L115.6,293.2 L126.0,293.3 L136.3,293.4 L146.6,293.3 L156.9,293.2 L167.3,293.3 L177.6,293.3 L187.9,293.2 L198.2,293.3 L208.6,293.2 L218.9,293.2 L229.2,293.3 L239.6,293.3 L249.9,293.3 L260.2,292.8 L270.5,292.8 L280.9,292.9 L291.2,293.2 L301.5,292.8 L311.8,292.8 L322.2,297.1 L332.5,297.6 L342.8,297.2 L353.1,297.2 L363.5,297.1 L373.8,297.1 L384.1,297.2 L394.4,297.1 L404.8,297.2 L415.1,297.4 L425.4,297.2 L435.8,297.2 L446.1,297.1 L456.4,297.2 L466.7,297.2 L477.1,297.4 L487.4,297.1 L497.7,297.4 L508.0,297.3 L518.4,297.6 L528.7,297.1 L539.0,297.7 L549.3,297.1 L559.7,297.2 L570.0,293.1" fill="none" stroke="#225555" stroke-width="1.6"/><circle cx="64.0" cy="293.5" r="2" fill="#225555"/><circle cx="74.3" cy="293.3" r="2" fill="#225555"/><circle cx="84.7" cy="293.3" r="2" fill="#225555"/><circle cx="95.0" cy="293.4" r="2" fill="#225555"/><circle cx="105.3" cy="293.3" r="2" fill="#225555"/><circle cx="115.6" cy="293.2" r="2" fill="#225555"/><circle cx="126.0" cy="293.3" r="2" fill="#225555"/><circle cx="136.3" cy="293.4" r="2" fill="#225555"/><circle cx="146.6" cy="293.3" r="2" fill="#225555"/><circle cx="156.9" cy="293.2" r="2" fill="#225555"/><circle cx="167.3" cy="293.3" r="2" fill="#225555"/><circle cx="177.6" cy="293.3" r="2" fill="#225555"/><circle cx="187.9" cy="293.2" r="2" fill="#225555"/><circle cx="198.2" cy="293.3" r="2" fill="#225555"/><circle cx="208.6" cy="293.2" r="2" fill="#225555"/><circle cx="218.9" cy="293.2" r="2" fill="#225555"/><circle cx="229.2" cy="293.3" r="2" fill="#225555"/><circle cx="239.6" cy="293.3" r="2" fill="#225555"/><circle cx="249.9" cy="293.3" r="2" fill="#225555"/><circle cx="260.2" cy="292.8" r="2" fill="#225555"/><circle cx="270.5" cy="292.8" r="2" fill="#225555"/><circle cx="280.9" cy="292.9" r="2" fill="#225555"/><circle cx="291.2" cy="293.2" r="2" fill="#225555"/><circle cx="301.5" cy="292.8" r="2" fill="#225555"/><circle cx="311.8" cy="292.8" r="2" fill="#225555"/><circle cx="322.2" cy="297.1" r="2" fill="#225555"/><circle cx="332.5" cy="297.6" r="2" fill="#225555"/><circle cx="342.8" cy="297.2" r="2" fill="#225555"/><circle cx="353.1" cy="297.2" r="2" fill="#225555"/><circle cx="363.5" cy="297.1" r="2" fill="#225555"/><circle cx="373.8" cy="297.1" r="2" fill="#225555"/><circle cx="384.1" cy="297.2" r="2" fill="#225555"/><circle cx="394.4" cy="297.1" r="2" fill="#225555"/><circle cx="404.8" cy="297.2" r="2" fill="#225555"/><circle cx="415.1" cy="297.4" r="2" fill="#225555"/><circle cx="425.4" cy="297.2" r="2" fill="#225555"/><circle cx="435.8" cy="297.2" r="2" fill="#225555"/><circle cx="446.1" cy="297.1" r="2" fill="#225555"/><circle cx="456.4" cy="297.2" r="2" fill="#225555"/><circle cx="466.7" cy="297.2" r="2" fill="#225555"/><circle cx="477.1" cy="297.4" r="2" fill="#225555"/><circle cx="487.4" cy="297.1" r="2" fill="#225555"/><circle cx="497.7" cy="297.4" r="2" fill="#225555"/><circle cx="508.0" cy="297.3" r="2" fill="#225555"/><circle cx="518.4" cy="297.6" r="2" fill="#225555"/><circle cx="528.7" cy="297.1" r="2" fill="#225555"/><circle cx="539.0" cy="297.7" r="2" fill="#225555"/><circle cx="549.3" cy="297.1" r="2" fill="#225555"/><circle cx="559.7" cy="297.2" r="2" fill="#225555"/><circle cx="570.0" cy="293.1" r="2" fill="#225555"/><rect x="580" y="154" width="10" height="10" fill="#225555"/><text x="594" y="163" font-size="10" fill="#444">hub-200</text><path d="M64.0,293.4 L74.3,293.3 L84.7,293.3 L95.0,293.5 L105.3,293.3 L115.6,293.3 L126.0,293.3 L136.3,293.3 L146.6,293.4 L156.9,293.3 L167.3,293.3 L177.6,293.3 L187.9,293.2 L198.2,293.3 L208.6,293.3 L218.9,293.3 L229.2,293.3 L239.6,293.3 L249.9,293.3 L260.2,292.8 L270.5,292.9 L280.9,292.9 L291.2,293.2 L301.5,292.9 L311.8,292.9 L322.2,297.1 L332.5,297.1 L342.8,297.2 L353.1,297.2 L363.5,297.3 L373.8,297.2 L384.1,297.2 L394.4,297.1 L404.8,297.2 L415.1,297.2 L425.4,297.2 L435.8,297.2 L446.1,297.3 L456.4,297.1 L466.7,297.5 L477.1,297.2 L487.4,297.1 L497.7,297.1 L508.0,297.2 L518.4,297.2 L528.7,297.1 L539.0,297.2 L549.3,297.2 L559.7,297.1 L570.0,293.1" fill="none" stroke="#552222" stroke-width="1.6"/><circle cx="64.0" cy="293.4" r="2" fill="#552222"/><circle cx="74.3" cy="293.3" r="2" fill="#552222"/><circle cx="84.7" cy="293.3" r="2" fill="#552222"/><circle cx="95.0" cy="293.5" r="2" fill="#552222"/><circle cx="105.3" cy="293.3" r="2" fill="#552222"/><circle cx="115.6" cy="293.3" r="2" fill="#552222"/><circle cx="126.0" cy="293.3" r="2" fill="#552222"/><circle cx="136.3" cy="293.3" r="2" fill="#552222"/><circle cx="146.6" cy="293.4" r="2" fill="#552222"/><circle cx="156.9" cy="293.3" r="2" fill="#552222"/><circle cx="167.3" cy="293.3" r="2" fill="#552222"/><circle cx="177.6" cy="293.3" r="2" fill="#552222"/><circle cx="187.9" cy="293.2" r="2" fill="#552222"/><circle cx="198.2" cy="293.3" r="2" fill="#552222"/><circle cx="208.6" cy="293.3" r="2" fill="#552222"/><circle cx="218.9" cy="293.3" r="2" fill="#552222"/><circle cx="229.2" cy="293.3" r="2" fill="#552222"/><circle cx="239.6" cy="293.3" r="2" fill="#552222"/><circle cx="249.9" cy="293.3" r="2" fill="#552222"/><circle cx="260.2" cy="292.8" r="2" fill="#552222"/><circle cx="270.5" cy="292.9" r="2" fill="#552222"/><circle cx="280.9" cy="292.9" r="2" fill="#552222"/><circle cx="291.2" cy="293.2" r="2" fill="#552222"/><circle cx="301.5" cy="292.9" r="2" fill="#552222"/><circle cx="311.8" cy="292.9" r="2" fill="#552222"/><circle cx="322.2" cy="297.1" r="2" fill="#552222"/><circle cx="332.5" cy="297.1" r="2" fill="#552222"/><circle cx="342.8" cy="297.2" r="2" fill="#552222"/><circle cx="353.1" cy="297.2" r="2" fill="#552222"/><circle cx="363.5" cy="297.3" r="2" fill="#552222"/><circle cx="373.8" cy="297.2" r="2" fill="#552222"/><circle cx="384.1" cy="297.2" r="2" fill="#552222"/><circle cx="394.4" cy="297.1" r="2" fill="#552222"/><circle cx="404.8" cy="297.2" r="2" fill="#552222"/><circle cx="415.1" cy="297.2" r="2" fill="#552222"/><circle cx="425.4" cy="297.2" r="2" fill="#552222"/><circle cx="435.8" cy="297.2" r="2" fill="#552222"/><circle cx="446.1" cy="297.3" r="2" fill="#552222"/><circle cx="456.4" cy="297.1" r="2" fill="#552222"/><circle cx="466.7" cy="297.5" r="2" fill="#552222"/><circle cx="477.1" cy="297.2" r="2" fill="#552222"/><circle cx="487.4" cy="297.1" r="2" fill="#552222"/><circle cx="497.7" cy="297.1" r="2" fill="#552222"/><circle cx="508.0" cy="297.2" r="2" fill="#552222"/><circle cx="518.4" cy="297.2" r="2" fill="#552222"/><circle cx="528.7" cy="297.1" r="2" fill="#552222"/><circle cx="539.0" cy="297.2" r="2" fill="#552222"/><circle cx="549.3" cy="297.2" r="2" fill="#552222"/><circle cx="559.7" cy="297.1" r="2" fill="#552222"/><circle cx="570.0" cy="293.1" r="2" fill="#552222"/><rect x="580" y="169" width="10" height="10" fill="#552222"/><text x="594" y="178" font-size="10" fill="#444">hooked-200</text></svg>