<svg width="720" height="372" xmlns="http://www.w3.org/2000/svg"><rect width="720" height="372" fill="#ffffff"/><text x="64" y="20" font-size="15" font-weight="bold" fill="#333">action() — ops/sec (log scale) by PR / release, c8g.medium</text><line x1="64" y1="309.5" x2="570" y2="309.5" stroke="#d8d8d8"/><line x1="64" y1="300.9" x2="570" y2="300.9" stroke="#d8d8d8"/><line x1="64" y1="294.9" x2="570" y2="294.9" stroke="#d8d8d8"/><line x1="64" y1="290.2" x2="570" y2="290.2" stroke="#d8d8d8"/><line x1="64" y1="286.4" x2="570" y2="286.4" stroke="#d8d8d8"/><line x1="64" y1="283.2" x2="570" y2="283.2" stroke="#d8d8d8"/><line x1="64" y1="280.4" x2="570" y2="280.4" stroke="#d8d8d8"/><line x1="64" y1="277.9" x2="570" y2="277.9" stroke="#d8d8d8"/><line x1="64" y1="261.1" x2="570" y2="261.1" stroke="#d8d8d8"/><line x1="64" y1="252.6" x2="570" y2="252.6" stroke="#d8d8d8"/><line x1="64" y1="246.6" x2="570" y2="246.6" stroke="#d8d8d8"/><line x1="64" y1="241.9" x2="570" y2="241.9" stroke="#d8d8d8"/><line x1="64" y1="238.1" x2="570" y2="238.1" stroke="#d8d8d8"/><line x1="64" y1="234.8" x2="570" y2="234.8" stroke="#d8d8d8"/><line x1="64" y1="232.0" x2="570" y2="232.0" stroke="#d8d8d8"/><line x1="64" y1="229.5" x2="570" y2="229.5" stroke="#d8d8d8"/><line x1="64" y1="212.8" x2="570" y2="212.8" stroke="#d8d8d8"/><line x1="64" y1="204.3" x2="570" y2="204.3" stroke="#d8d8d8"/><line x1="64" y1="198.2" x2="570" y2="198.2" stroke="#d8d8d8"/><line x1="64" y1="193.5" x2="570" y2="193.5" stroke="#d8d8d8"/><line x1="64" y1="189.7" x2="570" y2="189.7" stroke="#d8d8d8"/><line x1="64" y1="186.5" x2="570" y2="186.5" stroke="#d8d8d8"/><line x1="64" y1="183.7" x2="570" y2="183.7" stroke="#d8d8d8"/><line x1="64" y1="181.2" x2="570" y2="181.2" stroke="#d8d8d8"/><line x1="64" y1="164.5" x2="570" y2="164.5" stroke="#d8d8d8"/><line x1="64" y1="155.9" x2="570" y2="155.9" stroke="#d8d8d8"/><line x1="64" y1="149.9" x2="570" y2="149.9" stroke="#d8d8d8"/><line x1="64" y1="145.2" x2="570" y2="145.2" stroke="#d8d8d8"/><line x1="64" y1="141.4" x2="570" y2="141.4" stroke="#d8d8d8"/><line x1="64" y1="138.2" x2="570" y2="138.2" stroke="#d8d8d8"/><line x1="64" y1="135.4" x2="570" y2="135.4" stroke="#d8d8d8"/><line x1="64" y1="132.9" x2="570" y2="132.9" stroke="#d8d8d8"/><line x1="64" y1="116.1" x2="570" y2="116.1" stroke="#d8d8d8"/><line x1="64" y1="107.6" x2="570" y2="107.6" stroke="#d8d8d8"/><line x1="64" y1="101.6" x2="570" y2="101.6" stroke="#d8d8d8"/><line x1="64" y1="96.9" x2="570" y2="96.9" stroke="#d8d8d8"/><line x1="64" y1="93.1" x2="570" y2="93.1" stroke="#d8d8d8"/><line x1="64" y1="89.8" x2="570" y2="89.8" stroke="#d8d8d8"/><line x1="64" y1="87.0" x2="570" y2="87.0" stroke="#d8d8d8"/><line x1="64" y1="84.5" x2="570" y2="84.5" stroke="#d8d8d8"/><line x1="64" y1="67.8" x2="570" y2="67.8" stroke="#d8d8d8"/><line x1="64" y1="59.3" x2="570" y2="59.3" stroke="#d8d8d8"/><line x1="64" y1="53.2" x2="570" y2="53.2" stroke="#d8d8d8"/><line x1="64" y1="48.5" x2="570" y2="48.5" stroke="#d8d8d8"/><line x1="64" y1="44.7" x2="570" y2="44.7" stroke="#d8d8d8"/><line x1="64" y1="41.5" x2="570" y2="41.5" stroke="#d8d8d8"/><line x1="64" y1="38.7" x2="570" y2="38.7" stroke="#d8d8d8"/><line x1="64" y1="36.2" x2="570" y2="36.2" stroke="#d8d8d8"/><line x1="64.0" y1="34" x2="64.0" y2="324" stroke="#d0d0d0"/><line x1="64" y1="324" x2="570" y2="324" stroke="#b0b0b0"/><text x="58" y="328" font-size="10" text-anchor="end" fill="#888">1e0</text><line x1="64" y1="275.6666666666667" x2="570" y2="275.6666666666667" stroke="#b0b0b0"/><text x="58" y="279.6666666666667" font-size="10" text-anchor="end" fill="#888">1e1</text><line x1="64" y1="227.33333333333334" x2="570" y2="227.33333333333334" stroke="#b0b0b0"/><text x="58" y="231.33333333333334" font-size="10" text-anchor="end" fill="#888">1e2</text><line x1="64" y1="179" x2="570" y2="179" stroke="#b0b0b0"/><text x="58" y="183" font-size="10" text-anchor="end" fill="#888">1e3</text><line x1="64" y1="130.66666666666669" x2="570" y2="130.66666666666669" stroke="#b0b0b0"/><text x="58" y="134.66666666666669" font-size="10" text-anchor="end" fill="#888">1e4</text><line x1="64" y1="82.33333333333331" x2="570" y2="82.33333333333331" stroke="#b0b0b0"/><text x="58" y="86.33333333333331" font-size="10" text-anchor="end" fill="#888">1e5</text><line x1="64" y1="34" x2="570" y2="34" stroke="#b0b0b0"/><text x="58" y="38" font-size="10" text-anchor="end" fill="#888">1e6</text><text x="64.0" y="327.2" font-size="4" text-anchor="end" fill="#aa4400" transform="rotate(-80 64.0 327.2)">v5.145.4</text><circle cx="64.0" cy="76.6" r="2" fill="#4477AA"/><rect x="580" y="34" width="10" height="10" fill="#4477AA"/><text x="594" y="43" font-size="10" fill="#444">chain-10</text><circle cx="64.0" cy="77.7" r="2" fill="#EE6677"/><rect x="580" y="49" width="10" height="10" fill="#EE6677"/><text x="594" y="58" font-size="10" fill="#444">chain-50</text><circle cx="64.0" cy="78.5" r="2" fill="#228833"/><rect x="580" y="64" width="10" height="10" fill="#228833"/><text x="594" y="73" font-size="10" fill="#444">chain-200</text><circle cx="64.0" cy="81.4" r="2" fill="#CCBB44"/><rect x="580" y="79" width="10" height="10" fill="#CCBB44"/><text x="594" y="88" font-size="10" fill="#444">chain-1000</text><circle cx="64.0" cy="77.6" r="2" fill="#66CCEE"/><rect x="580" y="94" width="10" height="10" fill="#66CCEE"/><text x="594" y="103" font-size="10" fill="#444">dense-10</text><circle cx="64.0" cy="80.8" r="2" fill="#AA3377"/><rect x="580" y="109" width="10" height="10" fill="#AA3377"/><text x="594" y="118" font-size="10" fill="#444">dense-50</text><circle cx="64.0" cy="86.0" r="2" fill="#BBBBBB"/><rect x="580" y="124" width="10" height="10" fill="#BBBBBB"/><text x="594" y="133" font-size="10" fill="#444">dense-200</text><circle cx="64.0" cy="77.3" r="2" fill="#222255"/><rect x="580" y="139" width="10" height="10" fill="#222255"/><text x="594" y="148" font-size="10" fill="#444">hub-50</text><circle cx="64.0" cy="78.9" r="2" fill="#225555"/><rect x="580" y="154" width="10" height="10" fill="#225555"/><text x="594" y="163" font-size="10" fill="#444">hub-200</text><circle cx="64.0" cy="100.3" r="2" fill="#552222"/><rect x="580" y="169" width="10" height="10" fill="#552222"/><text x="594" y="178" font-size="10" fill="#444">hooked-200</text></svg>