<svg width="720" height="372" xmlns="http://www.w3.org/2000/svg"><rect width="720" height="372" fill="#ffffff"/><text x="64" y="20" font-size="15" font-weight="bold" fill="#333">construct() — ops/sec (log scale) by PR / release, c8g.medium</text><line x1="64" y1="306.5" x2="570" y2="306.5" stroke="#d8d8d8"/><line x1="64" y1="296.3" x2="570" y2="296.3" stroke="#d8d8d8"/><line x1="64" y1="289.1" x2="570" y2="289.1" stroke="#d8d8d8"/><line x1="64" y1="283.5" x2="570" y2="283.5" stroke="#d8d8d8"/><line x1="64" y1="278.9" x2="570" y2="278.9" stroke="#d8d8d8"/><line x1="64" y1="275.0" x2="570" y2="275.0" stroke="#d8d8d8"/><line x1="64" y1="271.6" x2="570" y2="271.6" stroke="#d8d8d8"/><line x1="64" y1="268.7" x2="570" y2="268.7" stroke="#d8d8d8"/><line x1="64" y1="248.5" x2="570" y2="248.5" stroke="#d8d8d8"/><line x1="64" y1="238.3" x2="570" y2="238.3" stroke="#d8d8d8"/><line x1="64" y1="231.1" x2="570" y2="231.1" stroke="#d8d8d8"/><line x1="64" y1="225.5" x2="570" y2="225.5" stroke="#d8d8d8"/><line x1="64" y1="220.9" x2="570" y2="220.9" stroke="#d8d8d8"/><line x1="64" y1="217.0" x2="570" y2="217.0" stroke="#d8d8d8"/><line x1="64" y1="213.6" x2="570" y2="213.6" stroke="#d8d8d8"/><line x1="64" y1="210.7" x2="570" y2="210.7" stroke="#d8d8d8"/><line x1="64" y1="190.5" x2="570" y2="190.5" stroke="#d8d8d8"/><line x1="64" y1="180.3" x2="570" y2="180.3" stroke="#d8d8d8"/><line x1="64" y1="173.1" x2="570" y2="173.1" stroke="#d8d8d8"/><line x1="64" y1="167.5" x2="570" y2="167.5" stroke="#d8d8d8"/><line x1="64" y1="162.9" x2="570" y2="162.9" stroke="#d8d8d8"/><line x1="64" y1="159.0" x2="570" y2="159.0" stroke="#d8d8d8"/><line x1="64" y1="155.6" x2="570" y2="155.6" stroke="#d8d8d8"/><line x1="64" y1="152.7" x2="570" y2="152.7" stroke="#d8d8d8"/><line x1="64" y1="132.5" x2="570" y2="132.5" stroke="#d8d8d8"/><line x1="64" y1="122.3" x2="570" y2="122.3" stroke="#d8d8d8"/><line x1="64" y1="115.1" x2="570" y2="115.1" stroke="#d8d8d8"/><line x1="64" y1="109.5" x2="570" y2="109.5" stroke="#d8d8d8"/><line x1="64" y1="104.9" x2="570" y2="104.9" stroke="#d8d8d8"/><line x1="64" y1="101.0" x2="570" y2="101.0" stroke="#d8d8d8"/><line x1="64" y1="97.6" x2="570" y2="97.6" stroke="#d8d8d8"/><line x1="64" y1="94.7" x2="570" y2="94.7" stroke="#d8d8d8"/><line x1="64" y1="74.5" x2="570" y2="74.5" stroke="#d8d8d8"/><line x1="64" y1="64.3" x2="570" y2="64.3" stroke="#d8d8d8"/><line x1="64" y1="57.1" x2="570" y2="57.1" stroke="#d8d8d8"/><line x1="64" y1="51.5" x2="570" y2="51.5" stroke="#d8d8d8"/><line x1="64" y1="46.9" x2="570" y2="46.9" stroke="#d8d8d8"/><line x1="64" y1="43.0" x2="570" y2="43.0" stroke="#d8d8d8"/><line x1="64" y1="39.6" x2="570" y2="39.6" stroke="#d8d8d8"/><line x1="64" y1="36.7" x2="570" y2="36.7" stroke="#d8d8d8"/><line x1="64.0" y1="34" x2="64.0" y2="324" stroke="#d0d0d0"/><line x1="64" y1="324" x2="570" y2="324" stroke="#b0b0b0"/><text x="58" y="328" font-size="10" text-anchor="end" fill="#888">1e0</text><line x1="64" y1="266" x2="570" y2="266" stroke="#b0b0b0"/><text x="58" y="270" font-size="10" text-anchor="end" fill="#888">1e1</text><line x1="64" y1="208" x2="570" y2="208" stroke="#b0b0b0"/><text x="58" y="212" font-size="10" text-anchor="end" fill="#888">1e2</text><line x1="64" y1="150" x2="570" y2="150" stroke="#b0b0b0"/><text x="58" y="154" font-size="10" text-anchor="end" fill="#888">1e3</text><line x1="64" y1="92" x2="570" y2="92" stroke="#b0b0b0"/><text x="58" y="96" font-size="10" text-anchor="end" fill="#888">1e4</text><line x1="64" y1="34" x2="570" y2="34" stroke="#b0b0b0"/><text x="58" y="38" font-size="10" text-anchor="end" fill="#888">1e5</text><text x="64.0" y="327.2" font-size="4" text-anchor="end" fill="#aa4400" transform="rotate(-80 64.0 327.2)">v5.145.4</text><circle cx="64.0" cy="82.7" r="2" fill="#4477AA"/><rect x="580" y="34" width="10" height="10" fill="#4477AA"/><text x="594" y="43" font-size="10" fill="#444">chain-10</text><circle cx="64.0" cy="112.2" r="2" fill="#EE6677"/><rect x="580" y="49" width="10" height="10" fill="#EE6677"/><text x="594" y="58" font-size="10" fill="#444">chain-50</text><circle cx="64.0" cy="144.4" r="2" fill="#228833"/><rect x="580" y="64" width="10" height="10" fill="#228833"/><text x="594" y="73" font-size="10" fill="#444">chain-200</text><circle cx="64.0" cy="185.1" r="2" fill="#CCBB44"/><rect x="580" y="79" width="10" height="10" fill="#CCBB44"/><text x="594" y="88" font-size="10" fill="#444">chain-1000</text><circle cx="64.0" cy="118.7" r="2" fill="#66CCEE"/><rect x="580" y="94" width="10" height="10" fill="#66CCEE"/><text x="594" y="103" font-size="10" fill="#444">dense-10</text><circle cx="64.0" cy="200.8" r="2" fill="#AA3377"/><rect x="580" y="109" width="10" height="10" fill="#AA3377"/><text x="594" y="118" font-size="10" fill="#444">dense-50</text><circle cx="64.0" cy="278.9" r="2" fill="#BBBBBB"/><rect x="580" y="124" width="10" height="10" fill="#BBBBBB"/><text x="594" y="133" font-size="10" fill="#444">dense-200</text><circle cx="64.0" cy="125.8" r="2" fill="#222255"/><rect x="580" y="139" width="10" height="10" fill="#222255"/><text x="594" y="148" font-size="10" fill="#444">hub-50</text><circle cx="64.0" cy="159.1" r="2" fill="#225555"/><rect x="580" y="154" width="10" height="10" fill="#225555"/><text x="594" y="163" font-size="10" fill="#444">hub-200</text><circle cx="64.0" cy="158.8" r="2" fill="#552222"/><rect x="580" y="169" width="10" height="10" fill="#552222"/><text x="594" y="178" font-size="10" fill="#444">hooked-200</text><circle cx="64.0" cy="210.7" r="2" fill="#555522"/><rect x="580" y="184" width="10" height="10" fill="#555522"/><text x="594" y="193" font-size="10" fill="#444">messy-1000</text><circle cx="64.0" cy="254.2" r="2" fill="#8855AA"/><rect x="580" y="199" width="10" height="10" fill="#8855AA"/><text x="594" y="208" font-size="10" fill="#444">messy-5000</text></svg>