<svg width="720" height="372" xmlns="http://www.w3.org/2000/svg"><rect width="720" height="372" fill="#ffffff"/><text x="64" y="20" font-size="15" font-weight="bold" fill="#333">has_state() — ops/sec (log scale) by PR / release, c8g.medium</text><line x1="64" y1="313.1" x2="570" y2="313.1" stroke="#d8d8d8"/><line x1="64" y1="306.7" x2="570" y2="306.7" stroke="#d8d8d8"/><line x1="64" y1="302.2" x2="570" y2="302.2" stroke="#d8d8d8"/><line x1="64" y1="298.7" x2="570" y2="298.7" stroke="#d8d8d8"/><line x1="64" y1="295.8" x2="570" y2="295.8" stroke="#d8d8d8"/><line x1="64" y1="293.4" x2="570" y2="293.4" stroke="#d8d8d8"/><line x1="64" y1="291.3" x2="570" y2="291.3" stroke="#d8d8d8"/><line x1="64" y1="289.4" x2="570" y2="289.4" stroke="#d8d8d8"/><line x1="64" y1="276.8" x2="570" y2="276.8" stroke="#d8d8d8"/><line x1="64" y1="270.5" x2="570" y2="270.5" stroke="#d8d8d8"/><line x1="64" y1="265.9" x2="570" y2="265.9" stroke="#d8d8d8"/><line x1="64" y1="262.4" x2="570" y2="262.4" stroke="#d8d8d8"/><line x1="64" y1="259.5" x2="570" y2="259.5" stroke="#d8d8d8"/><line x1="64" y1="257.1" x2="570" y2="257.1" stroke="#d8d8d8"/><line x1="64" y1="255.0" x2="570" y2="255.0" stroke="#d8d8d8"/><line x1="64" y1="253.2" x2="570" y2="253.2" stroke="#d8d8d8"/><line x1="64" y1="240.6" x2="570" y2="240.6" stroke="#d8d8d8"/><line x1="64" y1="234.2" x2="570" y2="234.2" stroke="#d8d8d8"/><line x1="64" y1="229.7" x2="570" y2="229.7" stroke="#d8d8d8"/><line x1="64" y1="226.2" x2="570" y2="226.2" stroke="#d8d8d8"/><line x1="64" y1="223.3" x2="570" y2="223.3" stroke="#d8d8d8"/><line x1="64" y1="220.9" x2="570" y2="220.9" stroke="#d8d8d8"/><line x1="64" y1="218.8" x2="570" y2="218.8" stroke="#d8d8d8"/><line x1="64" y1="216.9" x2="570" y2="216.9" stroke="#d8d8d8"/><line x1="64" y1="204.3" x2="570" y2="204.3" stroke="#d8d8d8"/><line x1="64" y1="198.0" x2="570" y2="198.0" stroke="#d8d8d8"/><line x1="64" y1="193.4" x2="570" y2="193.4" stroke="#d8d8d8"/><line x1="64" y1="189.9" x2="570" y2="189.9" stroke="#d8d8d8"/><line x1="64" y1="187.0" x2="570" y2="187.0" stroke="#d8d8d8"/><line x1="64" y1="184.6" x2="570" y2="184.6" stroke="#d8d8d8"/><line x1="64" y1="182.5" x2="570" y2="182.5" stroke="#d8d8d8"/><line x1="64" y1="180.7" x2="570" y2="180.7" stroke="#d8d8d8"/><line x1="64" y1="168.1" x2="570" y2="168.1" stroke="#d8d8d8"/><line x1="64" y1="161.7" x2="570" y2="161.7" stroke="#d8d8d8"/><line x1="64" y1="157.2" x2="570" y2="157.2" stroke="#d8d8d8"/><line x1="64" y1="153.7" x2="570" y2="153.7" stroke="#d8d8d8"/><line x1="64" y1="150.8" x2="570" y2="150.8" stroke="#d8d8d8"/><line x1="64" y1="148.4" x2="570" y2="148.4" stroke="#d8d8d8"/><line x1="64" y1="146.3" x2="570" y2="146.3" stroke="#d8d8d8"/><line x1="64" y1="144.4" x2="570" y2="144.4" stroke="#d8d8d8"/><line x1="64" y1="131.8" x2="570" y2="131.8" stroke="#d8d8d8"/><line x1="64" y1="125.5" x2="570" y2="125.5" stroke="#d8d8d8"/><line x1="64" y1="120.9" x2="570" y2="120.9" stroke="#d8d8d8"/><line x1="64" y1="117.4" x2="570" y2="117.4" stroke="#d8d8d8"/><line x1="64" y1="114.5" x2="570" y2="114.5" stroke="#d8d8d8"/><line x1="64" y1="112.1" x2="570" y2="112.1" stroke="#d8d8d8"/><line x1="64" y1="110.0" x2="570" y2="110.0" stroke="#d8d8d8"/><line x1="64" y1="108.2" x2="570" y2="108.2" stroke="#d8d8d8"/><line x1="64" y1="95.6" x2="570" y2="95.6" stroke="#d8d8d8"/><line x1="64" y1="89.2" x2="570" y2="89.2" stroke="#d8d8d8"/><line x1="64" y1="84.7" x2="570" y2="84.7" stroke="#d8d8d8"/><line x1="64" y1="81.2" x2="570" y2="81.2" stroke="#d8d8d8"/><line x1="64" y1="78.3" x2="570" y2="78.3" stroke="#d8d8d8"/><line x1="64" y1="75.9" x2="570" y2="75.9" stroke="#d8d8d8"/><line x1="64" y1="73.8" x2="570" y2="73.8" stroke="#d8d8d8"/><line x1="64" y1="71.9" x2="570" y2="71.9" stroke="#d8d8d8"/><line x1="64" y1="59.3" x2="570" y2="59.3" stroke="#d8d8d8"/><line x1="64" y1="53.0" x2="570" y2="53.0" stroke="#d8d8d8"/><line x1="64" y1="48.4" x2="570" y2="48.4" stroke="#d8d8d8"/><line x1="64" y1="44.9" x2="570" y2="44.9" stroke="#d8d8d8"/><line x1="64" y1="42.0" x2="570" y2="42.0" stroke="#d8d8d8"/><line x1="64" y1="39.6" x2="570" y2="39.6" stroke="#d8d8d8"/><line x1="64" y1="37.5" x2="570" y2="37.5" stroke="#d8d8d8"/><line x1="64" y1="35.7" x2="570" y2="35.7" stroke="#d8d8d8"/><line x1="64.0" y1="34" x2="64.0" y2="324" stroke="#d0d0d0"/><line x1="64" y1="324" x2="570" y2="324" stroke="#b0b0b0"/><text x="58" y="328" font-size="10" text-anchor="end" fill="#888">1e0</text><line x1="64" y1="287.75" x2="570" y2="287.75" stroke="#b0b0b0"/><text x="58" y="291.75" font-size="10" text-anchor="end" fill="#888">1e1</text><line x1="64" y1="251.5" x2="570" y2="251.5" stroke="#b0b0b0"/><text x="58" y="255.5" font-size="10" text-anchor="end" fill="#888">1e2</text><line x1="64" y1="215.25" x2="570" y2="215.25" stroke="#b0b0b0"/><text x="58" y="219.25" font-size="10" text-anchor="end" fill="#888">1e3</text><line x1="64" y1="179" x2="570" y2="179" stroke="#b0b0b0"/><text x="58" y="183" font-size="10" text-anchor="end" fill="#888">1e4</text><line x1="64" y1="142.75" x2="570" y2="142.75" stroke="#b0b0b0"/><text x="58" y="146.75" font-size="10" text-anchor="end" fill="#888">1e5</text><line x1="64" y1="106.5" x2="570" y2="106.5" stroke="#b0b0b0"/><text x="58" y="110.5" font-size="10" text-anchor="end" fill="#888">1e6</text><line x1="64" y1="70.25" x2="570" y2="70.25" stroke="#b0b0b0"/><text x="58" y="74.25" font-size="10" text-anchor="end" fill="#888">1e7</text><line x1="64" y1="34" x2="570" y2="34" stroke="#b0b0b0"/><text x="58" y="38" font-size="10" text-anchor="end" fill="#888">1e8</text><text x="64.0" y="327.2" font-size="4" text-anchor="end" fill="#aa4400" transform="rotate(-80 64.0 327.2)">v5.145.4</text><circle cx="64.0" cy="60.5" r="2" fill="#4477AA"/><rect x="580" y="34" width="10" height="10" fill="#4477AA"/><text x="594" y="43" font-size="10" fill="#444">chain-10</text><circle cx="64.0" cy="60.6" r="2" fill="#EE6677"/><rect x="580" y="49" width="10" height="10" fill="#EE6677"/><text x="594" y="58" font-size="10" fill="#444">chain-50</text><circle cx="64.0" cy="60.5" r="2" fill="#228833"/><rect x="580" y="64" width="10" height="10" fill="#228833"/><text x="594" y="73" font-size="10" fill="#444">chain-200</text><circle cx="64.0" cy="60.5" r="2" fill="#CCBB44"/><rect x="580" y="79" width="10" height="10" fill="#CCBB44"/><text x="594" y="88" font-size="10" fill="#444">chain-1000</text><circle cx="64.0" cy="60.8" r="2" fill="#66CCEE"/><rect x="580" y="94" width="10" height="10" fill="#66CCEE"/><text x="594" y="103" font-size="10" fill="#444">dense-10</text><circle cx="64.0" cy="60.7" r="2" fill="#AA3377"/><rect x="580" y="109" width="10" height="10" fill="#AA3377"/><text x="594" y="118" font-size="10" fill="#444">dense-50</text><circle cx="64.0" cy="60.8" r="2" fill="#BBBBBB"/><rect x="580" y="124" width="10" height="10" fill="#BBBBBB"/><text x="594" y="133" font-size="10" fill="#444">dense-200</text><circle cx="64.0" cy="60.8" r="2" fill="#222255"/><rect x="580" y="139" width="10" height="10" fill="#222255"/><text x="594" y="148" font-size="10" fill="#444">hub-50</text><circle cx="64.0" cy="60.6" r="2" fill="#225555"/><rect x="580" y="154" width="10" height="10" fill="#225555"/><text x="594" y="163" font-size="10" fill="#444">hub-200</text><circle cx="64.0" cy="61.0" r="2" fill="#552222"/><rect x="580" y="169" width="10" height="10" fill="#552222"/><text x="594" y="178" font-size="10" fill="#444">hooked-200</text><circle cx="64.0" cy="60.7" r="2" fill="#555522"/><rect x="580" y="184" width="10" height="10" fill="#555522"/><text x="594" y="193" font-size="10" fill="#444">messy-1000</text><circle cx="64.0" cy="60.6" r="2" fill="#8855AA"/><rect x="580" y="199" width="10" height="10" fill="#8855AA"/><text x="594" y="208" font-size="10" fill="#444">messy-5000</text></svg>