<svg width="720" height="372" xmlns="http://www.w3.org/2000/svg"><rect width="720" height="372" fill="#ffffff"/><text x="64" y="20" font-size="15" font-weight="bold" fill="#333">list_exit_actions() — ops/sec (linear scale, last 50) by PR / release, c8g.medium</text><line x1="74.3" y1="34" x2="74.3" y2="324" stroke="#e8e8e8"/><line x1="84.7" y1="34" x2="84.7" y2="324" stroke="#e8e8e8"/><line x1="95.0" y1="34" x2="95.0" y2="324" stroke="#e8e8e8"/><line x1="105.3" y1="34" x2="105.3" y2="324" stroke="#e8e8e8"/><line x1="126.0" y1="34" x2="126.0" y2="324" stroke="#e8e8e8"/><line x1="136.3" y1="34" x2="136.3" y2="324" stroke="#e8e8e8"/><line x1="146.6" y1="34" x2="146.6" y2="324" stroke="#e8e8e8"/><line x1="156.9" y1="34" x2="156.9" y2="324" stroke="#e8e8e8"/><line x1="177.6" y1="34" x2="177.6" y2="324" stroke="#e8e8e8"/><line x1="187.9" y1="34" x2="187.9" y2="324" stroke="#e8e8e8"/><line x1="198.2" y1="34" x2="198.2" y2="324" stroke="#e8e8e8"/><line x1="208.6" y1="34" x2="208.6" y2="324" stroke="#e8e8e8"/><line x1="229.2" y1="34" x2="229.2" y2="324" stroke="#e8e8e8"/><line x1="239.6" y1="34" x2="239.6" y2="324" stroke="#e8e8e8"/><line x1="249.9" y1="34" x2="249.9" y2="324" stroke="#e8e8e8"/><line x1="260.2" y1="34" x2="260.2" y2="324" stroke="#e8e8e8"/><line x1="280.9" y1="34" x2="280.9" y2="324" stroke="#e8e8e8"/><line x1="291.2" y1="34" x2="291.2" y2="324" stroke="#e8e8e8"/><line x1="301.5" y1="34" x2="301.5" y2="324" stroke="#e8e8e8"/><line x1="311.8" y1="34" x2="311.8" y2="324" stroke="#e8e8e8"/><line x1="332.5" y1="34" x2="332.5" y2="324" stroke="#e8e8e8"/><line x1="342.8" y1="34" x2="342.8" y2="324" stroke="#e8e8e8"/><line x1="353.1" y1="34" x2="353.1" y2="324" stroke="#e8e8e8"/><line x1="363.5" y1="34" x2="363.5" y2="324" stroke="#e8e8e8"/><line x1="384.1" y1="34" x2="384.1" y2="324" stroke="#e8e8e8"/><line x1="394.4" y1="34" x2="394.4" y2="324" stroke="#e8e8e8"/><line x1="404.8" y1="34" x2="404.8" y2="324" stroke="#e8e8e8"/><line x1="415.1" y1="34" x2="415.1" y2="324" stroke="#e8e8e8"/><line x1="435.8" y1="34" x2="435.8" y2="324" stroke="#e8e8e8"/><line x1="446.1" y1="34" x2="446.1" y2="324" stroke="#e8e8e8"/><line x1="456.4" y1="34" x2="456.4" y2="324" stroke="#e8e8e8"/><line x1="466.7" y1="34" x2="466.7" y2="324" stroke="#e8e8e8"/><line x1="487.4" y1="34" x2="487.4" y2="324" stroke="#e8e8e8"/><line x1="497.7" y1="34" x2="497.7" y2="324" stroke="#e8e8e8"/><line x1="508.0" y1="34" x2="508.0" y2="324" stroke="#e8e8e8"/><line x1="518.4" y1="34" x2="518.4" y2="324" stroke="#e8e8e8"/><line x1="539.0" y1="34" x2="539.0" y2="324" stroke="#e8e8e8"/><line x1="549.3" y1="34" x2="549.3" y2="324" stroke="#e8e8e8"/><line x1="559.7" y1="34" x2="559.7" y2="324" stroke="#e8e8e8"/><line x1="570.0" y1="34" x2="570.0" y2="324" stroke="#e8e8e8"/><line x1="64.0" y1="34" x2="64.0" y2="324" stroke="#d0d0d0"/><line x1="115.6" y1="34" x2="115.6" y2="324" stroke="#d0d0d0"/><line x1="167.3" y1="34" x2="167.3" y2="324" stroke="#d0d0d0"/><line x1="218.9" y1="34" x2="218.9" y2="324" stroke="#d0d0d0"/><line x1="270.5" y1="34" x2="270.5" y2="324" stroke="#d0d0d0"/><line x1="322.2" y1="34" x2="322.2" y2="324" stroke="#d0d0d0"/><line x1="373.8" y1="34" x2="373.8" y2="324" stroke="#d0d0d0"/><line x1="425.4" y1="34" x2="425.4" y2="324" stroke="#d0d0d0"/><line x1="477.1" y1="34" x2="477.1" y2="324" stroke="#d0d0d0"/><line x1="528.7" y1="34" x2="528.7" y2="324" stroke="#d0d0d0"/><line x1="64" y1="324.0" x2="570" y2="324.0" stroke="#b0b0b0"/><text x="58" y="328.0" font-size="10" text-anchor="end" fill="#888">-13.1k</text><line x1="64" y1="266.0" x2="570" y2="266.0" stroke="#b0b0b0"/><text x="58" y="270.0" font-size="10" text-anchor="end" fill="#888">62.5k</text><line x1="64" y1="208.0" x2="570" y2="208.0" stroke="#b0b0b0"/><text x="58" y="212.0" font-size="10" text-anchor="end" fill="#888">138.1k</text><line x1="64" y1="150.0" x2="570" y2="150.0" stroke="#b0b0b0"/><text x="58" y="154.0" font-size="10" text-anchor="end" fill="#888">213.8k</text><line x1="64" y1="92.0" x2="570" y2="92.0" stroke="#b0b0b0"/><text x="58" y="96.0" font-size="10" text-anchor="end" fill="#888">289.4k</text><line x1="64" y1="34.0" x2="570" y2="34.0" stroke="#b0b0b0"/><text x="58" y="38.0" font-size="10" text-anchor="end" fill="#888">365k</text><text x="64.0" y="327.2" font-size="4" text-anchor="end" fill="#aa4400" transform="rotate(-80 64.0 327.2)">v5.157.13</text><text x="74.3" y="327.2" font-size="4" text-anchor="end" fill="#d6a382" transform="rotate(-80 74.3 327.2)">v5.157.14</text><text x="84.7" y="327.2" font-size="4" text-anchor="end" fill="#d6a382" transform="rotate(-80 84.7 327.2)">v5.157.15</text><text x="95.0" y="327.2" font-size="4" text-anchor="end" fill="#d6a382" transform="rotate(-80 95.0 327.2)">v5.157.16</text><text x="105.3" y="327.2" font-size="4" text-anchor="end" fill="#d6a382" transform="rotate(-80 105.3 327.2)">v5.157.17</text><text x="115.6" y="327.2" font-size="4" text-anchor="end" fill="#d6a382" transform="rotate(-80 115.6 327.2)">v5.157.18</text><text x="126.0" y="327.2" font-size="4" text-anchor="end" fill="#aa4400" transform="rotate(-80 126.0 327.2)">v5.158.0</text><text x="136.3" y="327.2" font-size="4" text-anchor="end" fill="#d6a382" transform="rotate(-80 136.3 327.2)">v5.158.1</text><text x="146.6" y="327.2" font-size="4" text-anchor="end" fill="#d6a382" transform="rotate(-80 146.6 327.2)">v5.158.2</text><text x="156.9" y="327.2" font-size="4" text-anchor="end" fill="#aa4400" transform="rotate(-80 156.9 327.2)">v5.159.0</text><text x="167.3" y="327.2" font-size="4" text-anchor="end" fill="#d6a382" transform="rotate(-80 167.3 327.2)">v5.159.1</text><text x="177.6" y="327.2" font-size="4" text-anchor="end" fill="#d6a382" transform="rotate(-80 177.6 327.2)">v5.159.2</text><text x="187.9" y="327.2" font-size="4" text-anchor="end" fill="#aa4400" transform="rotate(-80 187.9 327.2)">v5.160.0</text><text x="198.2" y="327.2" font-size="4" text-anchor="end" fill="#aa4400" transform="rotate(-80 198.2 327.2)">v5.161.0</text><text x="208.6" y="327.2" font-size="4" text-anchor="end" fill="#aa4400" transform="rotate(-80 208.6 327.2)">v5.162.0</text><text x="218.9" y="327.2" font-size="4" text-anchor="end" fill="#d6a382" transform="rotate(-80 218.9 327.2)">v5.162.1</text><text x="229.2" y="327.2" font-size="4" text-anchor="end" fill="#d6a382" transform="rotate(-80 229.2 327.2)">v5.162.2</text><text x="239.6" y="327.2" font-size="4" text-anchor="end" fill="#d6a382" transform="rotate(-80 239.6 327.2)">v5.162.3</text><text x="249.9" y="327.2" font-size="4" text-anchor="end" fill="#d6a382" transform="rotate(-80 249.9 327.2)">v5.162.4</text><text x="260.2" y="327.2" font-size="4" text-anchor="end" fill="#d6a382" transform="rotate(-80 260.2 327.2)">v5.162.5</text><text x="270.5" y="327.2" font-size="4" text-anchor="end" fill="#d6a382" transform="rotate(-80 270.5 327.2)">v5.162.6</text><text x="280.9" y="327.2" font-size="4" text-anchor="end" fill="#d6a382" transform="rotate(-80 280.9 327.2)">v5.162.7</text><text x="291.2" y="327.2" font-size="4" text-anchor="end" fill="#d6a382" transform="rotate(-80 291.2 327.2)">v5.162.8</text><text x="301.5" y="327.2" font-size="4" text-anchor="end" fill="#d6a382" transform="rotate(-80 301.5 327.2)">v5.162.9</text><text x="311.8" y="327.2" font-size="4" text-anchor="end" fill="#d6a382" transform="rotate(-80 311.8 327.2)">v5.162.10</text><text x="322.2" y="327.2" font-size="4" text-anchor="end" fill="#d6a382" transform="rotate(-80 322.2 327.2)">v5.162.11</text><text x="332.5" y="327.2" font-size="4" text-anchor="end" fill="#d6a382" transform="rotate(-80 332.5 327.2)">v5.162.12</text><text x="342.8" y="327.2" font-size="4" text-anchor="end" fill="#d6a382" transform="rotate(-80 342.8 327.2)">v5.162.13</text><text x="353.1" y="327.2" font-size="4" text-anchor="end" fill="#d6a382" transform="rotate(-80 353.1 327.2)">v5.162.15</text><text x="363.5" y="327.2" font-size="4" text-anchor="end" fill="#d6a382" transform="rotate(-80 363.5 327.2)">v5.162.16</text><text x="373.8" y="327.2" font-size="4" text-anchor="end" fill="#d6a382" transform="rotate(-80 373.8 327.2)">v5.162.17</text><text x="384.1" y="327.2" font-size="4" text-anchor="end" fill="#d6a382" transform="rotate(-80 384.1 327.2)">v5.162.18</text><text x="394.4" y="327.2" font-size="4" text-anchor="end" fill="#d6a382" transform="rotate(-80 394.4 327.2)">v5.162.19</text><text x="404.8" y="327.2" font-size="4" text-anchor="end" fill="#d6a382" transform="rotate(-80 404.8 327.2)">v5.162.20</text><text x="415.1" y="327.2" font-size="4" text-anchor="end" fill="#d6a382" transform="rotate(-80 415.1 327.2)">v5.162.21</text><text x="425.4" y="327.2" font-size="4" text-anchor="end" fill="#d6a382" transform="rotate(-80 425.4 327.2)">v5.162.22</text><text x="435.8" y="327.2" font-size="4" text-anchor="end" fill="#d6a382" transform="rotate(-80 435.8 327.2)">v5.162.23</text><text x="446.1" y="327.2" font-size="4" text-anchor="end" fill="#d6a382" transform="rotate(-80 446.1 327.2)">v5.162.24</text><text x="456.4" y="327.2" font-size="4" text-anchor="end" fill="#d6a382" transform="rotate(-80 456.4 327.2)">v5.162.25</text><text x="466.7" y="327.2" font-size="4" text-anchor="end" fill="#d6a382" transform="rotate(-80 466.7 327.2)">v5.162.26</text><text x="477.1" y="327.2" font-size="4" text-anchor="end" fill="#d6a382" transform="rotate(-80 477.1 327.2)">v5.162.27</text><text x="487.4" y="327.2" font-size="4" text-anchor="end" fill="#d6a382" transform="rotate(-80 487.4 327.2)">v5.162.28</text><text x="497.7" y="327.2" font-size="4" text-anchor="end" fill="#d6a382" transform="rotate(-80 497.7 327.2)">v5.162.29</text><text x="508.0" y="327.2" font-size="4" text-anchor="end" fill="#d6a382" transform="rotate(-80 508.0 327.2)">v5.162.30</text><text x="518.4" y="327.2" font-size="4" text-anchor="end" fill="#d6a382" transform="rotate(-80 518.4 327.2)">v5.162.31</text><text x="528.7" y="327.2" font-size="4" text-anchor="end" fill="#d6a382" transform="rotate(-80 528.7 327.2)">v5.162.32</text><text x="539.0" y="327.2" font-size="4" text-anchor="end" fill="#d6a382" transform="rotate(-80 539.0 327.2)">v5.162.33</text><text x="549.3" y="327.2" font-size="4" text-anchor="end" fill="#d6a382" transform="rotate(-80 549.3 327.2)">v5.162.34</text><text x="559.7" y="327.2" font-size="4" text-anchor="end" fill="#d6a382" transform="rotate(-80 559.7 327.2)">v5.162.35</text><text x="570.0" y="327.2" font-size="4" text-anchor="end" fill="#aa4400" transform="rotate(-80 570.0 327.2)">v5.163.0</text><path d="M64.0,88.0 L74.3,96.4 L84.7,80.6 L95.0,82.3 L105.3,72.9 L115.6,83.3 L126.0,82.7 L136.3,89.6 L146.6,89.1 L156.9,88.8 L167.3,78.7 L177.6,78.9 L187.9,72.2 L198.2,81.6 L208.6,82.5 L218.9,80.7 L229.2,74.7 L239.6,75.0 L249.9,79.6 L260.2,78.3 L270.5,83.0 L280.9,77.2 L291.2,158.6 L301.5,153.6 L311.8,158.9 L322.2,154.5 L332.5,157.3 L342.8,152.8 L353.1,160.6 L363.5,157.6 L373.8,155.8 L384.1,152.6 L394.4,154.7 L404.8,155.4 L415.1,150.9 L425.4,160.3 L435.8,154.4 L446.1,152.3 L456.4,157.0 L466.7,158.5 L477.1,160.2 L487.4,154.4 L497.7,160.1 L508.0,156.4 L518.4,159.8 L528.7,159.1 L539.0,60.5 L549.3,62.4 L559.7,74.9 L570.0,58.2" fill="none" stroke="#4477AA" stroke-width="1.6"/><circle cx="64.0" cy="88.0" r="2" fill="#4477AA"/><circle cx="74.3" cy="96.4" r="2" fill="#4477AA"/><circle cx="84.7" cy="80.6" r="2" fill="#4477AA"/><circle cx="95.0" cy="82.3" r="2" fill="#4477AA"/><circle cx="105.3" cy="72.9" r="2" fill="#4477AA"/><circle cx="115.6" cy="83.3" r="2" fill="#4477AA"/><circle cx="126.0" cy="82.7" r="2" fill="#4477AA"/><circle cx="136.3" cy="89.6" r="2" fill="#4477AA"/><circle cx="146.6" cy="89.1" r="2" fill="#4477AA"/><circle cx="156.9" cy="88.8" r="2" fill="#4477AA"/><circle cx="167.3" cy="78.7" r="2" fill="#4477AA"/><circle cx="177.6" cy="78.9" r="2" fill="#4477AA"/><circle cx="187.9" cy="72.2" r="2" fill="#4477AA"/><circle cx="198.2" cy="81.6" r="2" fill="#4477AA"/><circle cx="208.6" cy="82.5" r="2" fill="#4477AA"/><circle cx="218.9" cy="80.7" r="2" fill="#4477AA"/><circle cx="229.2" cy="74.7" r="2" fill="#4477AA"/><circle cx="239.6" cy="75.0" r="2" fill="#4477AA"/><circle cx="249.9" cy="79.6" r="2" fill="#4477AA"/><circle cx="260.2" cy="78.3" r="2" fill="#4477AA"/><circle cx="270.5" cy="83.0" r="2" fill="#4477AA"/><circle cx="280.9" cy="77.2" r="2" fill="#4477AA"/><circle cx="291.2" cy="158.6" r="2" fill="#4477AA"/><circle cx="301.5" cy="153.6" r="2" fill="#4477AA"/><circle cx="311.8" cy="158.9" r="2" fill="#4477AA"/><circle cx="322.2" cy="154.5" r="2" fill="#4477AA"/><circle cx="332.5" cy="157.3" r="2" fill="#4477AA"/><circle cx="342.8" cy="152.8" r="2" fill="#4477AA"/><circle cx="353.1" cy="160.6" r="2" fill="#4477AA"/><circle cx="363.5" cy="157.6" r="2" fill="#4477AA"/><circle cx="373.8" cy="155.8" r="2" fill="#4477AA"/><circle cx="384.1" cy="152.6" r="2" fill="#4477AA"/><circle cx="394.4" cy="154.7" r="2" fill="#4477AA"/><circle cx="404.8" cy="155.4" r="2" fill="#4477AA"/><circle cx="415.1" cy="150.9" r="2" fill="#4477AA"/><circle cx="425.4" cy="160.3" r="2" fill="#4477AA"/><circle cx="435.8" cy="154.4" r="2" fill="#4477AA"/><circle cx="446.1" cy="152.3" r="2" fill="#4477AA"/><circle cx="456.4" cy="157.0" r="2" fill="#4477AA"/><circle cx="466.7" cy="158.5" r="2" fill="#4477AA"/><circle cx="477.1" cy="160.2" r="2" fill="#4477AA"/><circle cx="487.4" cy="154.4" r="2" fill="#4477AA"/><circle cx="497.7" cy="160.1" r="2" fill="#4477AA"/><circle cx="508.0" cy="156.4" r="2" fill="#4477AA"/><circle cx="518.4" cy="159.8" r="2" fill="#4477AA"/><circle cx="528.7" cy="159.1" r="2" fill="#4477AA"/><circle cx="539.0" cy="60.5" r="2" fill="#4477AA"/><circle cx="549.3" cy="62.4" r="2" fill="#4477AA"/><circle cx="559.7" cy="74.9" r="2" fill="#4477AA"/><circle cx="570.0" cy="58.2" r="2" fill="#4477AA"/><rect x="580" y="34" width="10" height="10" fill="#4477AA"/><text x="594" y="43" font-size="10" fill="#444">chain-10</text><path d="M64.0,93.7 L74.3,91.3 L84.7,85.8 L95.0,88.1 L105.3,92.5 L115.6,87.9 L126.0,87.5 L136.3,89.5 L146.6,96.3 L156.9,88.1 L167.3,91.1 L177.6,86.8 L187.9,96.6 L198.2,85.9 L208.6,92.3 L218.9,87.8 L229.2,78.1 L239.6,82.3 L249.9,90.4 L260.2,87.6 L270.5,81.0 L280.9,83.0 L291.2,163.3 L301.5,162.5 L311.8,163.1 L322.2,166.0 L332.5,158.8 L342.8,166.0 L353.1,161.0 L363.5,162.1 L373.8,165.1 L384.1,163.4 L394.4,164.7 L404.8,168.9 L415.1,163.0 L425.4,163.0 L435.8,157.0 L446.1,162.8 L456.4,160.5 L466.7,162.1 L477.1,161.5 L487.4,168.2 L497.7,166.2 L508.0,163.8 L518.4,166.4 L528.7,160.1 L539.0,74.2 L549.3,75.1 L559.7,69.7 L570.0,65.6" fill="none" stroke="#EE6677" stroke-width="1.6"/><circle cx="64.0" cy="93.7" r="2" fill="#EE6677"/><circle cx="74.3" cy="91.3" r="2" fill="#EE6677"/><circle cx="84.7" cy="85.8" r="2" fill="#EE6677"/><circle cx="95.0" cy="88.1" r="2" fill="#EE6677"/><circle cx="105.3" cy="92.5" r="2" fill="#EE6677"/><circle cx="115.6" cy="87.9" r="2" fill="#EE6677"/><circle cx="126.0" cy="87.5" r="2" fill="#EE6677"/><circle cx="136.3" cy="89.5" r="2" fill="#EE6677"/><circle cx="146.6" cy="96.3" r="2" fill="#EE6677"/><circle cx="156.9" cy="88.1" r="2" fill="#EE6677"/><circle cx="167.3" cy="91.1" r="2" fill="#EE6677"/><circle cx="177.6" cy="86.8" r="2" fill="#EE6677"/><circle cx="187.9" cy="96.6" r="2" fill="#EE6677"/><circle cx="198.2" cy="85.9" r="2" fill="#EE6677"/><circle cx="208.6" cy="92.3" r="2" fill="#EE6677"/><circle cx="218.9" cy="87.8" r="2" fill="#EE6677"/><circle cx="229.2" cy="78.1" r="2" fill="#EE6677"/><circle cx="239.6" cy="82.3" r="2" fill="#EE6677"/><circle cx="249.9" cy="90.4" r="2" fill="#EE6677"/><circle cx="260.2" cy="87.6" r="2" fill="#EE6677"/><circle cx="270.5" cy="81.0" r="2" fill="#EE6677"/><circle cx="280.9" cy="83.0" r="2" fill="#EE6677"/><circle cx="291.2" cy="163.3" r="2" fill="#EE6677"/><circle cx="301.5" cy="162.5" r="2" fill="#EE6677"/><circle cx="311.8" cy="163.1" r="2" fill="#EE6677"/><circle cx="322.2" cy="166.0" r="2" fill="#EE6677"/><circle cx="332.5" cy="158.8" r="2" fill="#EE6677"/><circle cx="342.8" cy="166.0" r="2" fill="#EE6677"/><circle cx="353.1" cy="161.0" r="2" fill="#EE6677"/><circle cx="363.5" cy="162.1" r="2" fill="#EE6677"/><circle cx="373.8" cy="165.1" r="2" fill="#EE6677"/><circle cx="384.1" cy="163.4" r="2" fill="#EE6677"/><circle cx="394.4" cy="164.7" r="2" fill="#EE6677"/><circle cx="404.8" cy="168.9" r="2" fill="#EE6677"/><circle cx="415.1" cy="163.0" r="2" fill="#EE6677"/><circle cx="425.4" cy="163.0" r="2" fill="#EE6677"/><circle cx="435.8" cy="157.0" r="2" fill="#EE6677"/><circle cx="446.1" cy="162.8" r="2" fill="#EE6677"/><circle cx="456.4" cy="160.5" r="2" fill="#EE6677"/><circle cx="466.7" cy="162.1" r="2" fill="#EE6677"/><circle cx="477.1" cy="161.5" r="2" fill="#EE6677"/><circle cx="487.4" cy="168.2" r="2" fill="#EE6677"/><circle cx="497.7" cy="166.2" r="2" fill="#EE6677"/><circle cx="508.0" cy="163.8" r="2" fill="#EE6677"/><circle cx="518.4" cy="166.4" r="2" fill="#EE6677"/><circle cx="528.7" cy="160.1" r="2" fill="#EE6677"/><circle cx="539.0" cy="74.2" r="2" fill="#EE6677"/><circle cx="549.3" cy="75.1" r="2" fill="#EE6677"/><circle cx="559.7" cy="69.7" r="2" fill="#EE6677"/><circle cx="570.0" cy="65.6" r="2" fill="#EE6677"/><rect x="580" y="49" width="10" height="10" fill="#EE6677"/><text x="594" y="58" font-size="10" fill="#444">chain-50</text><path d="M64.0,94.1 L74.3,87.0 L84.7,91.6 L95.0,86.9 L105.3,89.8 L115.6,92.9 L126.0,92.7 L136.3,88.8 L146.6,92.5 L156.9,90.6 L167.3,88.7 L177.6,85.9 L187.9,88.6 L198.2,92.2 L208.6,91.0 L218.9,96.7 L229.2,86.6 L239.6,90.1 L249.9,95.9 L260.2,92.4 L270.5,88.8 L280.9,92.2 L291.2,171.4 L301.5,168.2 L311.8,173.2 L322.2,166.1 L332.5,165.0 L342.8,174.3 L353.1,171.0 L363.5,169.3 L373.8,169.4 L384.1,171.9 L394.4,168.9 L404.8,171.6 L415.1,169.3 L425.4,166.9 L435.8,171.5 L446.1,174.6 L456.4,171.1 L466.7,174.9 L477.1,166.6 L487.4,169.3 L497.7,168.7 L508.0,177.8 L518.4,169.7 L528.7,166.2 L539.0,75.0 L549.3,71.6 L559.7,75.9 L570.0,73.0" fill="none" stroke="#228833" stroke-width="1.6"/><circle cx="64.0" cy="94.1" r="2" fill="#228833"/><circle cx="74.3" cy="87.0" r="2" fill="#228833"/><circle cx="84.7" cy="91.6" r="2" fill="#228833"/><circle cx="95.0" cy="86.9" r="2" fill="#228833"/><circle cx="105.3" cy="89.8" r="2" fill="#228833"/><circle cx="115.6" cy="92.9" r="2" fill="#228833"/><circle cx="126.0" cy="92.7" r="2" fill="#228833"/><circle cx="136.3" cy="88.8" r="2" fill="#228833"/><circle cx="146.6" cy="92.5" r="2" fill="#228833"/><circle cx="156.9" cy="90.6" r="2" fill="#228833"/><circle cx="167.3" cy="88.7" r="2" fill="#228833"/><circle cx="177.6" cy="85.9" r="2" fill="#228833"/><circle cx="187.9" cy="88.6" r="2" fill="#228833"/><circle cx="198.2" cy="92.2" r="2" fill="#228833"/><circle cx="208.6" cy="91.0" r="2" fill="#228833"/><circle cx="218.9" cy="96.7" r="2" fill="#228833"/><circle cx="229.2" cy="86.6" r="2" fill="#228833"/><circle cx="239.6" cy="90.1" r="2" fill="#228833"/><circle cx="249.9" cy="95.9" r="2" fill="#228833"/><circle cx="260.2" cy="92.4" r="2" fill="#228833"/><circle cx="270.5" cy="88.8" r="2" fill="#228833"/><circle cx="280.9" cy="92.2" r="2" fill="#228833"/><circle cx="291.2" cy="171.4" r="2" fill="#228833"/><circle cx="301.5" cy="168.2" r="2" fill="#228833"/><circle cx="311.8" cy="173.2" r="2" fill="#228833"/><circle cx="322.2" cy="166.1" r="2" fill="#228833"/><circle cx="332.5" cy="165.0" r="2" fill="#228833"/><circle cx="342.8" cy="174.3" r="2" fill="#228833"/><circle cx="353.1" cy="171.0" r="2" fill="#228833"/><circle cx="363.5" cy="169.3" r="2" fill="#228833"/><circle cx="373.8" cy="169.4" r="2" fill="#228833"/><circle cx="384.1" cy="171.9" r="2" fill="#228833"/><circle cx="394.4" cy="168.9" r="2" fill="#228833"/><circle cx="404.8" cy="171.6" r="2" fill="#228833"/><circle cx="415.1" cy="169.3" r="2" fill="#228833"/><circle cx="425.4" cy="166.9" r="2" fill="#228833"/><circle cx="435.8" cy="171.5" r="2" fill="#228833"/><circle cx="446.1" cy="174.6" r="2" fill="#228833"/><circle cx="456.4" cy="171.1" r="2" fill="#228833"/><circle cx="466.7" cy="174.9" r="2" fill="#228833"/><circle cx="477.1" cy="166.6" r="2" fill="#228833"/><circle cx="487.4" cy="169.3" r="2" fill="#228833"/><circle cx="497.7" cy="168.7" r="2" fill="#228833"/><circle cx="508.0" cy="177.8" r="2" fill="#228833"/><circle cx="518.4" cy="169.7" r="2" fill="#228833"/><circle cx="528.7" cy="166.2" r="2" fill="#228833"/><circle cx="539.0" cy="75.0" r="2" fill="#228833"/><circle cx="549.3" cy="71.6" r="2" fill="#228833"/><circle cx="559.7" cy="75.9" r="2" fill="#228833"/><circle cx="570.0" cy="73.0" r="2" fill="#228833"/><rect x="580" y="64" width="10" height="10" fill="#228833"/><text x="594" y="73" font-size="10" fill="#444">chain-200</text><path d="M64.0,104.6 L74.3,108.1 L84.7,107.8 L95.0,103.4 L105.3,102.7 L115.6,103.2 L126.0,107.6 L136.3,114.0 L146.6,107.2 L156.9,105.3 L167.3,111.4 L177.6,112.5 L187.9,116.6 L198.2,112.3 L208.6,116.1 L218.9,117.2 L229.2,105.7 L239.6,109.5 L249.9,105.6 L260.2,109.1 L270.5,103.9 L280.9,103.9 L291.2,180.3 L301.5,174.3 L311.8,185.1 L322.2,178.8 L332.5,178.5 L342.8,175.7 L353.1,186.6 L363.5,182.8 L373.8,183.5 L384.1,185.9 L394.4,181.7 L404.8,180.9 L415.1,180.8 L425.4,176.2 L435.8,176.6 L446.1,182.6 L456.4,181.8 L466.7,176.8 L477.1,177.1 L487.4,185.6 L497.7,180.5 L508.0,179.5 L518.4,179.3 L528.7,182.3 L539.0,97.7 L549.3,82.2 L559.7,89.5 L570.0,91.2" fill="none" stroke="#CCBB44" stroke-width="1.6"/><circle cx="64.0" cy="104.6" r="2" fill="#CCBB44"/><circle cx="74.3" cy="108.1" r="2" fill="#CCBB44"/><circle cx="84.7" cy="107.8" r="2" fill="#CCBB44"/><circle cx="95.0" cy="103.4" r="2" fill="#CCBB44"/><circle cx="105.3" cy="102.7" r="2" fill="#CCBB44"/><circle cx="115.6" cy="103.2" r="2" fill="#CCBB44"/><circle cx="126.0" cy="107.6" r="2" fill="#CCBB44"/><circle cx="136.3" cy="114.0" r="2" fill="#CCBB44"/><circle cx="146.6" cy="107.2" r="2" fill="#CCBB44"/><circle cx="156.9" cy="105.3" r="2" fill="#CCBB44"/><circle cx="167.3" cy="111.4" r="2" fill="#CCBB44"/><circle cx="177.6" cy="112.5" r="2" fill="#CCBB44"/><circle cx="187.9" cy="116.6" r="2" fill="#CCBB44"/><circle cx="198.2" cy="112.3" r="2" fill="#CCBB44"/><circle cx="208.6" cy="116.1" r="2" fill="#CCBB44"/><circle cx="218.9" cy="117.2" r="2" fill="#CCBB44"/><circle cx="229.2" cy="105.7" r="2" fill="#CCBB44"/><circle cx="239.6" cy="109.5" r="2" fill="#CCBB44"/><circle cx="249.9" cy="105.6" r="2" fill="#CCBB44"/><circle cx="260.2" cy="109.1" r="2" fill="#CCBB44"/><circle cx="270.5" cy="103.9" r="2" fill="#CCBB44"/><circle cx="280.9" cy="103.9" r="2" fill="#CCBB44"/><circle cx="291.2" cy="180.3" r="2" fill="#CCBB44"/><circle cx="301.5" cy="174.3" r="2" fill="#CCBB44"/><circle cx="311.8" cy="185.1" r="2" fill="#CCBB44"/><circle cx="322.2" cy="178.8" r="2" fill="#CCBB44"/><circle cx="332.5" cy="178.5" r="2" fill="#CCBB44"/><circle cx="342.8" cy="175.7" r="2" fill="#CCBB44"/><circle cx="353.1" cy="186.6" r="2" fill="#CCBB44"/><circle cx="363.5" cy="182.8" r="2" fill="#CCBB44"/><circle cx="373.8" cy="183.5" r="2" fill="#CCBB44"/><circle cx="384.1" cy="185.9" r="2" fill="#CCBB44"/><circle cx="394.4" cy="181.7" r="2" fill="#CCBB44"/><circle cx="404.8" cy="180.9" r="2" fill="#CCBB44"/><circle cx="415.1" cy="180.8" r="2" fill="#CCBB44"/><circle cx="425.4" cy="176.2" r="2" fill="#CCBB44"/><circle cx="435.8" cy="176.6" r="2" fill="#CCBB44"/><circle cx="446.1" cy="182.6" r="2" fill="#CCBB44"/><circle cx="456.4" cy="181.8" r="2" fill="#CCBB44"/><circle cx="466.7" cy="176.8" r="2" fill="#CCBB44"/><circle cx="477.1" cy="177.1" r="2" fill="#CCBB44"/><circle cx="487.4" cy="185.6" r="2" fill="#CCBB44"/><circle cx="497.7" cy="180.5" r="2" fill="#CCBB44"/><circle cx="508.0" cy="179.5" r="2" fill="#CCBB44"/><circle cx="518.4" cy="179.3" r="2" fill="#CCBB44"/><circle cx="528.7" cy="182.3" r="2" fill="#CCBB44"/><circle cx="539.0" cy="97.7" r="2" fill="#CCBB44"/><circle cx="549.3" cy="82.2" r="2" fill="#CCBB44"/><circle cx="559.7" cy="89.5" r="2" fill="#CCBB44"/><circle cx="570.0" cy="91.2" r="2" fill="#CCBB44"/><rect x="580" y="79" width="10" height="10" fill="#CCBB44"/><text x="594" y="88" font-size="10" fill="#444">chain-1000</text><path d="M64.0,162.3 L74.3,163.9 L84.7,164.2 L95.0,162.4 L105.3,162.5 L115.6,161.9 L126.0,159.2 L136.3,160.7 L146.6,165.8 L156.9,165.5 L167.3,157.6 L177.6,154.6 L187.9,162.2 L198.2,157.7 L208.6,158.7 L218.9,157.6 L229.2,159.8 L239.6,157.4 L249.9,158.4 L260.2,156.6 L270.5,154.7 L280.9,155.1 L291.2,192.7 L301.5,196.4 L311.8,198.7 L322.2,192.0 L332.5,196.0 L342.8,192.8 L353.1,192.1 L363.5,194.0 L373.8,193.5 L384.1,190.5 L394.4,195.7 L404.8,195.5 L415.1,195.5 L425.4,197.7 L435.8,193.4 L446.1,194.8 L456.4,193.5 L466.7,195.7 L477.1,194.5 L487.4,194.8 L497.7,198.4 L508.0,192.6 L518.4,195.3 L528.7,193.7 L539.0,149.7 L549.3,147.6 L559.7,155.7 L570.0,156.5" fill="none" stroke="#66CCEE" stroke-width="1.6"/><circle cx="64.0" cy="162.3" r="2" fill="#66CCEE"/><circle cx="74.3" cy="163.9" r="2" fill="#66CCEE"/><circle cx="84.7" cy="164.2" r="2" fill="#66CCEE"/><circle cx="95.0" cy="162.4" r="2" fill="#66CCEE"/><circle cx="105.3" cy="162.5" r="2" fill="#66CCEE"/><circle cx="115.6" cy="161.9" r="2" fill="#66CCEE"/><circle cx="126.0" cy="159.2" r="2" fill="#66CCEE"/><circle cx="136.3" cy="160.7" r="2" fill="#66CCEE"/><circle cx="146.6" cy="165.8" r="2" fill="#66CCEE"/><circle cx="156.9" cy="165.5" r="2" fill="#66CCEE"/><circle cx="167.3" cy="157.6" r="2" fill="#66CCEE"/><circle cx="177.6" cy="154.6" r="2" fill="#66CCEE"/><circle cx="187.9" cy="162.2" r="2" fill="#66CCEE"/><circle cx="198.2" cy="157.7" r="2" fill="#66CCEE"/><circle cx="208.6" cy="158.7" r="2" fill="#66CCEE"/><circle cx="218.9" cy="157.6" r="2" fill="#66CCEE"/><circle cx="229.2" cy="159.8" r="2" fill="#66CCEE"/><circle cx="239.6" cy="157.4" r="2" fill="#66CCEE"/><circle cx="249.9" cy="158.4" r="2" fill="#66CCEE"/><circle cx="260.2" cy="156.6" r="2" fill="#66CCEE"/><circle cx="270.5" cy="154.7" r="2" fill="#66CCEE"/><circle cx="280.9" cy="155.1" r="2" fill="#66CCEE"/><circle cx="291.2" cy="192.7" r="2" fill="#66CCEE"/><circle cx="301.5" cy="196.4" r="2" fill="#66CCEE"/><circle cx="311.8" cy="198.7" r="2" fill="#66CCEE"/><circle cx="322.2" cy="192.0" r="2" fill="#66CCEE"/><circle cx="332.5" cy="196.0" r="2" fill="#66CCEE"/><circle cx="342.8" cy="192.8" r="2" fill="#66CCEE"/><circle cx="353.1" cy="192.1" r="2" fill="#66CCEE"/><circle cx="363.5" cy="194.0" r="2" fill="#66CCEE"/><circle cx="373.8" cy="193.5" r="2" fill="#66CCEE"/><circle cx="384.1" cy="190.5" r="2" fill="#66CCEE"/><circle cx="394.4" cy="195.7" r="2" fill="#66CCEE"/><circle cx="404.8" cy="195.5" r="2" fill="#66CCEE"/><circle cx="415.1" cy="195.5" r="2" fill="#66CCEE"/><circle cx="425.4" cy="197.7" r="2" fill="#66CCEE"/><circle cx="435.8" cy="193.4" r="2" fill="#66CCEE"/><circle cx="446.1" cy="194.8" r="2" fill="#66CCEE"/><circle cx="456.4" cy="193.5" r="2" fill="#66CCEE"/><circle cx="466.7" cy="195.7" r="2" fill="#66CCEE"/><circle cx="477.1" cy="194.5" r="2" fill="#66CCEE"/><circle cx="487.4" cy="194.8" r="2" fill="#66CCEE"/><circle cx="497.7" cy="198.4" r="2" fill="#66CCEE"/><circle cx="508.0" cy="192.6" r="2" fill="#66CCEE"/><circle cx="518.4" cy="195.3" r="2" fill="#66CCEE"/><circle cx="528.7" cy="193.7" r="2" fill="#66CCEE"/><circle cx="539.0" cy="149.7" r="2" fill="#66CCEE"/><circle cx="549.3" cy="147.6" r="2" fill="#66CCEE"/><circle cx="559.7" cy="155.7" r="2" fill="#66CCEE"/><circle cx="570.0" cy="156.5" r="2" fill="#66CCEE"/><rect x="580" y="94" width="10" height="10" fill="#66CCEE"/><text x="594" y="103" font-size="10" fill="#444">dense-10</text><path d="M64.0,262.9 L74.3,261.9 L84.7,260.0 L95.0,261.2 L105.3,261.2 L115.6,262.1 L126.0,261.5 L136.3,260.7 L146.6,261.2 L156.9,260.8 L167.3,261.3 L177.6,261.7 L187.9,261.1 L198.2,261.5 L208.6,261.3 L218.9,262.4 L229.2,258.9 L239.6,259.3 L249.9,259.6 L260.2,260.5 L270.5,259.0 L280.9,260.0 L291.2,263.7 L301.5,263.8 L311.8,264.6 L322.2,265.0 L332.5,263.4 L342.8,264.2 L353.1,264.7 L363.5,264.6 L373.8,266.0 L384.1,265.6 L394.4,265.8 L404.8,265.9 L415.1,264.4 L425.4,264.8 L435.8,263.4 L446.1,265.3 L456.4,264.0 L466.7,266.3 L477.1,264.3 L487.4,264.9 L497.7,264.0 L508.0,265.8 L518.4,264.4 L528.7,265.1 L539.0,258.5 L549.3,258.0 L559.7,260.0 L570.0,259.2" fill="none" stroke="#AA3377" stroke-width="1.6"/><circle cx="64.0" cy="262.9" r="2" fill="#AA3377"/><circle cx="74.3" cy="261.9" r="2" fill="#AA3377"/><circle cx="84.7" cy="260.0" r="2" fill="#AA3377"/><circle cx="95.0" cy="261.2" r="2" fill="#AA3377"/><circle cx="105.3" cy="261.2" r="2" fill="#AA3377"/><circle cx="115.6" cy="262.1" r="2" fill="#AA3377"/><circle cx="126.0" cy="261.5" r="2" fill="#AA3377"/><circle cx="136.3" cy="260.7" r="2" fill="#AA3377"/><circle cx="146.6" cy="261.2" r="2" fill="#AA3377"/><circle cx="156.9" cy="260.8" r="2" fill="#AA3377"/><circle cx="167.3" cy="261.3" r="2" fill="#AA3377"/><circle cx="177.6" cy="261.7" r="2" fill="#AA3377"/><circle cx="187.9" cy="261.1" r="2" fill="#AA3377"/><circle cx="198.2" cy="261.5" r="2" fill="#AA3377"/><circle cx="208.6" cy="261.3" r="2" fill="#AA3377"/><circle cx="218.9" cy="262.4" r="2" fill="#AA3377"/><circle cx="229.2" cy="258.9" r="2" fill="#AA3377"/><circle cx="239.6" cy="259.3" r="2" fill="#AA3377"/><circle cx="249.9" cy="259.6" r="2" fill="#AA3377"/><circle cx="260.2" cy="260.5" r="2" fill="#AA3377"/><circle cx="270.5" cy="259.0" r="2" fill="#AA3377"/><circle cx="280.9" cy="260.0" r="2" fill="#AA3377"/><circle cx="291.2" cy="263.7" r="2" fill="#AA3377"/><circle cx="301.5" cy="263.8" r="2" fill="#AA3377"/><circle cx="311.8" cy="264.6" r="2" fill="#AA3377"/><circle cx="322.2" cy="265.0" r="2" fill="#AA3377"/><circle cx="332.5" cy="263.4" r="2" fill="#AA3377"/><circle cx="342.8" cy="264.2" r="2" fill="#AA3377"/><circle cx="353.1" cy="264.7" r="2" fill="#AA3377"/><circle cx="363.5" cy="264.6" r="2" fill="#AA3377"/><circle cx="373.8" cy="266.0" r="2" fill="#AA3377"/><circle cx="384.1" cy="265.6" r="2" fill="#AA3377"/><circle cx="394.4" cy="265.8" r="2" fill="#AA3377"/><circle cx="404.8" cy="265.9" r="2" fill="#AA3377"/><circle cx="415.1" cy="264.4" r="2" fill="#AA3377"/><circle cx="425.4" cy="264.8" r="2" fill="#AA3377"/><circle cx="435.8" cy="263.4" r="2" fill="#AA3377"/><circle cx="446.1" cy="265.3" r="2" fill="#AA3377"/><circle cx="456.4" cy="264.0" r="2" fill="#AA3377"/><circle cx="466.7" cy="266.3" r="2" fill="#AA3377"/><circle cx="477.1" cy="264.3" r="2" fill="#AA3377"/><circle cx="487.4" cy="264.9" r="2" fill="#AA3377"/><circle cx="497.7" cy="264.0" r="2" fill="#AA3377"/><circle cx="508.0" cy="265.8" r="2" fill="#AA3377"/><circle cx="518.4" cy="264.4" r="2" fill="#AA3377"/><circle cx="528.7" cy="265.1" r="2" fill="#AA3377"/><circle cx="539.0" cy="258.5" r="2" fill="#AA3377"/><circle cx="549.3" cy="258.0" r="2" fill="#AA3377"/><circle cx="559.7" cy="260.0" r="2" fill="#AA3377"/><circle cx="570.0" cy="259.2" r="2" fill="#AA3377"/><rect x="580" y="109" width="10" height="10" fill="#AA3377"/><text x="594" y="118" font-size="10" fill="#444">dense-50</text><path d="M64.0,299.4 L74.3,299.0 L84.7,299.3 L95.0,299.2 L105.3,299.5 L115.6,299.3 L126.0,299.2 L136.3,299.3 L146.6,299.2 L156.9,299.1 L167.3,299.2 L177.6,299.2 L187.9,299.2 L198.2,299.3 L208.6,299.3 L218.9,299.4 L229.2,298.4 L239.6,298.4 L249.9,298.7 L260.2,299.4 L270.5,298.4 L280.9,298.7 L291.2,299.2 L301.5,299.0 L311.8,299.5 L322.2,299.6 L332.5,299.1 L342.8,299.4 L353.1,299.6 L363.5,299.4 L373.8,299.5 L384.1,299.7 L394.4,299.7 L404.8,299.7 L415.1,299.3 L425.4,299.4 L435.8,299.2 L446.1,299.6 L456.4,299.3 L466.7,299.5 L477.1,299.2 L487.4,299.8 L497.7,299.4 L508.0,299.7 L518.4,299.4 L528.7,299.2 L539.0,299.0 L549.3,298.3 L559.7,299.1 L570.0,299.0" fill="none" stroke="#BBBBBB" stroke-width="1.6"/><circle cx="64.0" cy="299.4" r="2" fill="#BBBBBB"/><circle cx="74.3" cy="299.0" r="2" fill="#BBBBBB"/><circle cx="84.7" cy="299.3" r="2" fill="#BBBBBB"/><circle cx="95.0" cy="299.2" r="2" fill="#BBBBBB"/><circle cx="105.3" cy="299.5" r="2" fill="#BBBBBB"/><circle cx="115.6" cy="299.3" r="2" fill="#BBBBBB"/><circle cx="126.0" cy="299.2" r="2" fill="#BBBBBB"/><circle cx="136.3" cy="299.3" r="2" fill="#BBBBBB"/><circle cx="146.6" cy="299.2" r="2" fill="#BBBBBB"/><circle cx="156.9" cy="299.1" r="2" fill="#BBBBBB"/><circle cx="167.3" cy="299.2" r="2" fill="#BBBBBB"/><circle cx="177.6" cy="299.2" r="2" fill="#BBBBBB"/><circle cx="187.9" cy="299.2" r="2" fill="#BBBBBB"/><circle cx="198.2" cy="299.3" r="2" fill="#BBBBBB"/><circle cx="208.6" cy="299.3" r="2" fill="#BBBBBB"/><circle cx="218.9" cy="299.4" r="2" fill="#BBBBBB"/><circle cx="229.2" cy="298.4" r="2" fill="#BBBBBB"/><circle cx="239.6" cy="298.4" r="2" fill="#BBBBBB"/><circle cx="249.9" cy="298.7" r="2" fill="#BBBBBB"/><circle cx="260.2" cy="299.4" r="2" fill="#BBBBBB"/><circle cx="270.5" cy="298.4" r="2" fill="#BBBBBB"/><circle cx="280.9" cy="298.7" r="2" fill="#BBBBBB"/><circle cx="291.2" cy="299.2" r="2" fill="#BBBBBB"/><circle cx="301.5" cy="299.0" r="2" fill="#BBBBBB"/><circle cx="311.8" cy="299.5" r="2" fill="#BBBBBB"/><circle cx="322.2" cy="299.6" r="2" fill="#BBBBBB"/><circle cx="332.5" cy="299.1" r="2" fill="#BBBBBB"/><circle cx="342.8" cy="299.4" r="2" fill="#BBBBBB"/><circle cx="353.1" cy="299.6" r="2" fill="#BBBBBB"/><circle cx="363.5" cy="299.4" r="2" fill="#BBBBBB"/><circle cx="373.8" cy="299.5" r="2" fill="#BBBBBB"/><circle cx="384.1" cy="299.7" r="2" fill="#BBBBBB"/><circle cx="394.4" cy="299.7" r="2" fill="#BBBBBB"/><circle cx="404.8" cy="299.7" r="2" fill="#BBBBBB"/><circle cx="415.1" cy="299.3" r="2" fill="#BBBBBB"/><circle cx="425.4" cy="299.4" r="2" fill="#BBBBBB"/><circle cx="435.8" cy="299.2" r="2" fill="#BBBBBB"/><circle cx="446.1" cy="299.6" r="2" fill="#BBBBBB"/><circle cx="456.4" cy="299.3" r="2" fill="#BBBBBB"/><circle cx="466.7" cy="299.5" r="2" fill="#BBBBBB"/><circle cx="477.1" cy="299.2" r="2" fill="#BBBBBB"/><circle cx="487.4" cy="299.8" r="2" fill="#BBBBBB"/><circle cx="497.7" cy="299.4" r="2" fill="#BBBBBB"/><circle cx="508.0" cy="299.7" r="2" fill="#BBBBBB"/><circle cx="518.4" cy="299.4" r="2" fill="#BBBBBB"/><circle cx="528.7" cy="299.2" r="2" fill="#BBBBBB"/><circle cx="539.0" cy="299.0" r="2" fill="#BBBBBB"/><circle cx="549.3" cy="298.3" r="2" fill="#BBBBBB"/><circle cx="559.7" cy="299.1" r="2" fill="#BBBBBB"/><circle cx="570.0" cy="299.0" r="2" fill="#BBBBBB"/><rect x="580" y="124" width="10" height="10" fill="#BBBBBB"/><text x="594" y="133" font-size="10" fill="#444">dense-200</text><path d="M64.0,229.7 L74.3,229.2 L84.7,228.0 L95.0,232.1 L105.3,230.2 L115.6,232.0 L126.0,227.7 L136.3,229.4 L146.6,230.0 L156.9,228.8 L167.3,229.0 L177.6,229.4 L187.9,228.3 L198.2,229.3 L208.6,229.0 L218.9,228.2 L229.2,226.3 L239.6,224.6 L249.9,230.7 L260.2,226.2 L270.5,225.7 L280.9,226.2 L291.2,237.7 L301.5,237.3 L311.8,242.3 L322.2,238.7 L332.5,240.7 L342.8,238.2 L353.1,239.4 L363.5,238.7 L373.8,239.1 L384.1,238.7 L394.4,239.6 L404.8,243.2 L415.1,239.3 L425.4,237.2 L435.8,238.9 L446.1,240.6 L456.4,237.3 L466.7,237.8 L477.1,241.2 L487.4,243.9 L497.7,237.3 L508.0,240.0 L518.4,239.3 L528.7,240.6 L539.0,222.0 L549.3,224.4 L559.7,228.2 L570.0,223.3" fill="none" stroke="#222255" stroke-width="1.6"/><circle cx="64.0" cy="229.7" r="2" fill="#222255"/><circle cx="74.3" cy="229.2" r="2" fill="#222255"/><circle cx="84.7" cy="228.0" r="2" fill="#222255"/><circle cx="95.0" cy="232.1" r="2" fill="#222255"/><circle cx="105.3" cy="230.2" r="2" fill="#222255"/><circle cx="115.6" cy="232.0" r="2" fill="#222255"/><circle cx="126.0" cy="227.7" r="2" fill="#222255"/><circle cx="136.3" cy="229.4" r="2" fill="#222255"/><circle cx="146.6" cy="230.0" r="2" fill="#222255"/><circle cx="156.9" cy="228.8" r="2" fill="#222255"/><circle cx="167.3" cy="229.0" r="2" fill="#222255"/><circle cx="177.6" cy="229.4" r="2" fill="#222255"/><circle cx="187.9" cy="228.3" r="2" fill="#222255"/><circle cx="198.2" cy="229.3" r="2" fill="#222255"/><circle cx="208.6" cy="229.0" r="2" fill="#222255"/><circle cx="218.9" cy="228.2" r="2" fill="#222255"/><circle cx="229.2" cy="226.3" r="2" fill="#222255"/><circle cx="239.6" cy="224.6" r="2" fill="#222255"/><circle cx="249.9" cy="230.7" r="2" fill="#222255"/><circle cx="260.2" cy="226.2" r="2" fill="#222255"/><circle cx="270.5" cy="225.7" r="2" fill="#222255"/><circle cx="280.9" cy="226.2" r="2" fill="#222255"/><circle cx="291.2" cy="237.7" r="2" fill="#222255"/><circle cx="301.5" cy="237.3" r="2" fill="#222255"/><circle cx="311.8" cy="242.3" r="2" fill="#222255"/><circle cx="322.2" cy="238.7" r="2" fill="#222255"/><circle cx="332.5" cy="240.7" r="2" fill="#222255"/><circle cx="342.8" cy="238.2" r="2" fill="#222255"/><circle cx="353.1" cy="239.4" r="2" fill="#222255"/><circle cx="363.5" cy="238.7" r="2" fill="#222255"/><circle cx="373.8" cy="239.1" r="2" fill="#222255"/><circle cx="384.1" cy="238.7" r="2" fill="#222255"/><circle cx="394.4" cy="239.6" r="2" fill="#222255"/><circle cx="404.8" cy="243.2" r="2" fill="#222255"/><circle cx="415.1" cy="239.3" r="2" fill="#222255"/><circle cx="425.4" cy="237.2" r="2" fill="#222255"/><circle cx="435.8" cy="238.9" r="2" fill="#222255"/><circle cx="446.1" cy="240.6" r="2" fill="#222255"/><circle cx="456.4" cy="237.3" r="2" fill="#222255"/><circle cx="466.7" cy="237.8" r="2" fill="#222255"/><circle cx="477.1" cy="241.2" r="2" fill="#222255"/><circle cx="487.4" cy="243.9" r="2" fill="#222255"/><circle cx="497.7" cy="237.3" r="2" fill="#222255"/><circle cx="508.0" cy="240.0" r="2" fill="#222255"/><circle cx="518.4" cy="239.3" r="2" fill="#222255"/><circle cx="528.7" cy="240.6" r="2" fill="#222255"/><circle cx="539.0" cy="222.0" r="2" fill="#222255"/><circle cx="549.3" cy="224.4" r="2" fill="#222255"/><circle cx="559.7" cy="228.2" r="2" fill="#222255"/><circle cx="570.0" cy="223.3" r="2" fill="#222255"/><rect x="580" y="139" width="10" height="10" fill="#222255"/><text x="594" y="148" font-size="10" fill="#444">hub-50</text><path d="M64.0,285.6 L74.3,285.5 L84.7,284.8 L95.0,285.8 L105.3,285.3 L115.6,285.8 L126.0,285.3 L136.3,285.0 L146.6,285.3 L156.9,285.1 L167.3,284.9 L177.6,285.3 L187.9,284.9 L198.2,285.2 L208.6,285.7 L218.9,285.3 L229.2,283.9 L239.6,283.9 L249.9,285.2 L260.2,285.0 L270.5,284.1 L280.9,284.0 L291.2,285.9 L301.5,285.3 L311.8,286.3 L322.2,286.2 L332.5,284.9 L342.8,286.1 L353.1,286.2 L363.5,286.5 L373.8,286.0 L384.1,286.8 L394.4,286.9 L404.8,287.1 L415.1,285.6 L425.4,285.9 L435.8,286.0 L446.1,286.8 L456.4,286.2 L466.7,286.5 L477.1,286.6 L487.4,286.8 L497.7,285.9 L508.0,287.3 L518.4,286.1 L528.7,286.8 L539.0,284.8 L549.3,283.5 L559.7,285.4 L570.0,284.6" fill="none" stroke="#225555" stroke-width="1.6"/><circle cx="64.0" cy="285.6" r="2" fill="#225555"/><circle cx="74.3" cy="285.5" r="2" fill="#225555"/><circle cx="84.7" cy="284.8" r="2" fill="#225555"/><circle cx="95.0" cy="285.8" r="2" fill="#225555"/><circle cx="105.3" cy="285.3" r="2" fill="#225555"/><circle cx="115.6" cy="285.8" r="2" fill="#225555"/><circle cx="126.0" cy="285.3" r="2" fill="#225555"/><circle cx="136.3" cy="285.0" r="2" fill="#225555"/><circle cx="146.6" cy="285.3" r="2" fill="#225555"/><circle cx="156.9" cy="285.1" r="2" fill="#225555"/><circle cx="167.3" cy="284.9" r="2" fill="#225555"/><circle cx="177.6" cy="285.3" r="2" fill="#225555"/><circle cx="187.9" cy="284.9" r="2" fill="#225555"/><circle cx="198.2" cy="285.2" r="2" fill="#225555"/><circle cx="208.6" cy="285.7" r="2" fill="#225555"/><circle cx="218.9" cy="285.3" r="2" fill="#225555"/><circle cx="229.2" cy="283.9" r="2" fill="#225555"/><circle cx="239.6" cy="283.9" r="2" fill="#225555"/><circle cx="249.9" cy="285.2" r="2" fill="#225555"/><circle cx="260.2" cy="285.0" r="2" fill="#225555"/><circle cx="270.5" cy="284.1" r="2" fill="#225555"/><circle cx="280.9" cy="284.0" r="2" fill="#225555"/><circle cx="291.2" cy="285.9" r="2" fill="#225555"/><circle cx="301.5" cy="285.3" r="2" fill="#225555"/><circle cx="311.8" cy="286.3" r="2" fill="#225555"/><circle cx="322.2" cy="286.2" r="2" fill="#225555"/><circle cx="332.5" cy="284.9" r="2" fill="#225555"/><circle cx="342.8" cy="286.1" r="2" fill="#225555"/><circle cx="353.1" cy="286.2" r="2" fill="#225555"/><circle cx="363.5" cy="286.5" r="2" fill="#225555"/><circle cx="373.8" cy="286.0" r="2" fill="#225555"/><circle cx="384.1" cy="286.8" r="2" fill="#225555"/><circle cx="394.4" cy="286.9" r="2" fill="#225555"/><circle cx="404.8" cy="287.1" r="2" fill="#225555"/><circle cx="415.1" cy="285.6" r="2" fill="#225555"/><circle cx="425.4" cy="285.9" r="2" fill="#225555"/><circle cx="435.8" cy="286.0" r="2" fill="#225555"/><circle cx="446.1" cy="286.8" r="2" fill="#225555"/><circle cx="456.4" cy="286.2" r="2" fill="#225555"/><circle cx="466.7" cy="286.5" r="2" fill="#225555"/><circle cx="477.1" cy="286.6" r="2" fill="#225555"/><circle cx="487.4" cy="286.8" r="2" fill="#225555"/><circle cx="497.7" cy="285.9" r="2" fill="#225555"/><circle cx="508.0" cy="287.3" r="2" fill="#225555"/><circle cx="518.4" cy="286.1" r="2" fill="#225555"/><circle cx="528.7" cy="286.8" r="2" fill="#225555"/><circle cx="539.0" cy="284.8" r="2" fill="#225555"/><circle cx="549.3" cy="283.5" r="2" fill="#225555"/><circle cx="559.7" cy="285.4" r="2" fill="#225555"/><circle cx="570.0" cy="284.6" r="2" fill="#225555"/><rect x="580" y="154" width="10" height="10" fill="#225555"/><text x="594" y="163" font-size="10" fill="#444">hub-200</text><path d="M64.0,286.0 L74.3,285.0 L84.7,285.1 L95.0,286.1 L105.3,285.3 L115.6,285.8 L126.0,285.3 L136.3,285.0 L146.6,285.3 L156.9,285.2 L167.3,284.9 L177.6,285.2 L187.9,284.8 L198.2,285.3 L208.6,285.6 L218.9,285.2 L229.2,283.8 L239.6,283.7 L249.9,285.0 L260.2,284.9 L270.5,283.7 L280.9,284.0 L291.2,285.8 L301.5,285.2 L311.8,286.3 L322.2,286.3 L332.5,285.1 L342.8,286.1 L353.1,286.3 L363.5,286.6 L373.8,286.0 L384.1,286.7 L394.4,287.0 L404.8,287.3 L415.1,285.8 L425.4,285.9 L435.8,286.3 L446.1,287.1 L456.4,286.2 L466.7,286.3 L477.1,286.0 L487.4,286.6 L497.7,286.0 L508.0,286.9 L518.4,286.0 L528.7,286.5 L539.0,284.8 L549.3,283.5 L559.7,285.5 L570.0,284.8" fill="none" stroke="#552222" stroke-width="1.6"/><circle cx="64.0" cy="286.0" r="2" fill="#552222"/><circle cx="74.3" cy="285.0" r="2" fill="#552222"/><circle cx="84.7" cy="285.1" r="2" fill="#552222"/><circle cx="95.0" cy="286.1" r="2" fill="#552222"/><circle cx="105.3" cy="285.3" r="2" fill="#552222"/><circle cx="115.6" cy="285.8" r="2" fill="#552222"/><circle cx="126.0" cy="285.3" r="2" fill="#552222"/><circle cx="136.3" cy="285.0" r="2" fill="#552222"/><circle cx="146.6" cy="285.3" r="2" fill="#552222"/><circle cx="156.9" cy="285.2" r="2" fill="#552222"/><circle cx="167.3" cy="284.9" r="2" fill="#552222"/><circle cx="177.6" cy="285.2" r="2" fill="#552222"/><circle cx="187.9" cy="284.8" r="2" fill="#552222"/><circle cx="198.2" cy="285.3" r="2" fill="#552222"/><circle cx="208.6" cy="285.6" r="2" fill="#552222"/><circle cx="218.9" cy="285.2" r="2" fill="#552222"/><circle cx="229.2" cy="283.8" r="2" fill="#552222"/><circle cx="239.6" cy="283.7" r="2" fill="#552222"/><circle cx="249.9" cy="285.0" r="2" fill="#552222"/><circle cx="260.2" cy="284.9" r="2" fill="#552222"/><circle cx="270.5" cy="283.7" r="2" fill="#552222"/><circle cx="280.9" cy="284.0" r="2" fill="#552222"/><circle cx="291.2" cy="285.8" r="2" fill="#552222"/><circle cx="301.5" cy="285.2" r="2" fill="#552222"/><circle cx="311.8" cy="286.3" r="2" fill="#552222"/><circle cx="322.2" cy="286.3" r="2" fill="#552222"/><circle cx="332.5" cy="285.1" r="2" fill="#552222"/><circle cx="342.8" cy="286.1" r="2" fill="#552222"/><circle cx="353.1" cy="286.3" r="2" fill="#552222"/><circle cx="363.5" cy="286.6" r="2" fill="#552222"/><circle cx="373.8" cy="286.0" r="2" fill="#552222"/><circle cx="384.1" cy="286.7" r="2" fill="#552222"/><circle cx="394.4" cy="287.0" r="2" fill="#552222"/><circle cx="404.8" cy="287.3" r="2" fill="#552222"/><circle cx="415.1" cy="285.8" r="2" fill="#552222"/><circle cx="425.4" cy="285.9" r="2" fill="#552222"/><circle cx="435.8" cy="286.3" r="2" fill="#552222"/><circle cx="446.1" cy="287.1" r="2" fill="#552222"/><circle cx="456.4" cy="286.2" r="2" fill="#552222"/><circle cx="466.7" cy="286.3" r="2" fill="#552222"/><circle cx="477.1" cy="286.0" r="2" fill="#552222"/><circle cx="487.4" cy="286.6" r="2" fill="#552222"/><circle cx="497.7" cy="286.0" r="2" fill="#552222"/><circle cx="508.0" cy="286.9" r="2" fill="#552222"/><circle cx="518.4" cy="286.0" r="2" fill="#552222"/><circle cx="528.7" cy="286.5" r="2" fill="#552222"/><circle cx="539.0" cy="284.8" r="2" fill="#552222"/><circle cx="549.3" cy="283.5" r="2" fill="#552222"/><circle cx="559.7" cy="285.5" r="2" fill="#552222"/><circle cx="570.0" cy="284.8" r="2" fill="#552222"/><rect x="580" y="169" width="10" height="10" fill="#552222"/><text x="594" y="178" font-size="10" fill="#444">hooked-200</text></svg>