<svg width="720" height="372" xmlns="http://www.w3.org/2000/svg"><rect width="720" height="372" fill="#ffffff"/><text x="64" y="20" font-size="15" font-weight="bold" fill="#333">package size — bytes (linear scale, last 50) by PR / release, c8g.medium</text><line x1="74.3" y1="34" x2="74.3" y2="324" stroke="#e8e8e8"/><line x1="84.7" y1="34" x2="84.7" y2="324" stroke="#e8e8e8"/><line x1="95.0" y1="34" x2="95.0" y2="324" stroke="#e8e8e8"/><line x1="105.3" y1="34" x2="105.3" y2="324" stroke="#e8e8e8"/><line x1="126.0" y1="34" x2="126.0" y2="324" stroke="#e8e8e8"/><line x1="136.3" y1="34" x2="136.3" y2="324" stroke="#e8e8e8"/><line x1="146.6" y1="34" x2="146.6" y2="324" stroke="#e8e8e8"/><line x1="156.9" y1="34" x2="156.9" y2="324" stroke="#e8e8e8"/><line x1="177.6" y1="34" x2="177.6" y2="324" stroke="#e8e8e8"/><line x1="187.9" y1="34" x2="187.9" y2="324" stroke="#e8e8e8"/><line x1="198.2" y1="34" x2="198.2" y2="324" stroke="#e8e8e8"/><line x1="208.6" y1="34" x2="208.6" y2="324" stroke="#e8e8e8"/><line x1="229.2" y1="34" x2="229.2" y2="324" stroke="#e8e8e8"/><line x1="239.6" y1="34" x2="239.6" y2="324" stroke="#e8e8e8"/><line x1="249.9" y1="34" x2="249.9" y2="324" stroke="#e8e8e8"/><line x1="260.2" y1="34" x2="260.2" y2="324" stroke="#e8e8e8"/><line x1="280.9" y1="34" x2="280.9" y2="324" stroke="#e8e8e8"/><line x1="291.2" y1="34" x2="291.2" y2="324" stroke="#e8e8e8"/><line x1="301.5" y1="34" x2="301.5" y2="324" stroke="#e8e8e8"/><line x1="311.8" y1="34" x2="311.8" y2="324" stroke="#e8e8e8"/><line x1="332.5" y1="34" x2="332.5" y2="324" stroke="#e8e8e8"/><line x1="342.8" y1="34" x2="342.8" y2="324" stroke="#e8e8e8"/><line x1="353.1" y1="34" x2="353.1" y2="324" stroke="#e8e8e8"/><line x1="363.5" y1="34" x2="363.5" y2="324" stroke="#e8e8e8"/><line x1="384.1" y1="34" x2="384.1" y2="324" stroke="#e8e8e8"/><line x1="394.4" y1="34" x2="394.4" y2="324" stroke="#e8e8e8"/><line x1="404.8" y1="34" x2="404.8" y2="324" stroke="#e8e8e8"/><line x1="415.1" y1="34" x2="415.1" y2="324" stroke="#e8e8e8"/><line x1="435.8" y1="34" x2="435.8" y2="324" stroke="#e8e8e8"/><line x1="446.1" y1="34" x2="446.1" y2="324" stroke="#e8e8e8"/><line x1="456.4" y1="34" x2="456.4" y2="324" stroke="#e8e8e8"/><line x1="466.7" y1="34" x2="466.7" y2="324" stroke="#e8e8e8"/><line x1="487.4" y1="34" x2="487.4" y2="324" stroke="#e8e8e8"/><line x1="497.7" y1="34" x2="497.7" y2="324" stroke="#e8e8e8"/><line x1="508.0" y1="34" x2="508.0" y2="324" stroke="#e8e8e8"/><line x1="518.4" y1="34" x2="518.4" y2="324" stroke="#e8e8e8"/><line x1="539.0" y1="34" x2="539.0" y2="324" stroke="#e8e8e8"/><line x1="549.3" y1="34" x2="549.3" y2="324" stroke="#e8e8e8"/><line x1="559.7" y1="34" x2="559.7" y2="324" stroke="#e8e8e8"/><line x1="570.0" y1="34" x2="570.0" y2="324" stroke="#e8e8e8"/><line x1="64.0" y1="34" x2="64.0" y2="324" stroke="#d0d0d0"/><line x1="115.6" y1="34" x2="115.6" y2="324" stroke="#d0d0d0"/><line x1="167.3" y1="34" x2="167.3" y2="324" stroke="#d0d0d0"/><line x1="218.9" y1="34" x2="218.9" y2="324" stroke="#d0d0d0"/><line x1="270.5" y1="34" x2="270.5" y2="324" stroke="#d0d0d0"/><line x1="322.2" y1="34" x2="322.2" y2="324" stroke="#d0d0d0"/><line x1="373.8" y1="34" x2="373.8" y2="324" stroke="#d0d0d0"/><line x1="425.4" y1="34" x2="425.4" y2="324" stroke="#d0d0d0"/><line x1="477.1" y1="34" x2="477.1" y2="324" stroke="#d0d0d0"/><line x1="528.7" y1="34" x2="528.7" y2="324" stroke="#d0d0d0"/><line x1="64" y1="324.0" x2="570" y2="324.0" stroke="#b0b0b0"/><text x="58" y="328.0" font-size="10" text-anchor="end" fill="#888">1.4M</text><line x1="64" y1="266.0" x2="570" y2="266.0" stroke="#b0b0b0"/><text x="58" y="270.0" font-size="10" text-anchor="end" fill="#888">1.4M</text><line x1="64" y1="208.0" x2="570" y2="208.0" stroke="#b0b0b0"/><text x="58" y="212.0" font-size="10" text-anchor="end" fill="#888">1.4M</text><line x1="64" y1="150.0" x2="570" y2="150.0" stroke="#b0b0b0"/><text x="58" y="154.0" font-size="10" text-anchor="end" fill="#888">1.4M</text><line x1="64" y1="92.0" x2="570" y2="92.0" stroke="#b0b0b0"/><text x="58" y="96.0" font-size="10" text-anchor="end" fill="#888">1.4M</text><line x1="64" y1="34.0" x2="570" y2="34.0" stroke="#b0b0b0"/><text x="58" y="38.0" font-size="10" text-anchor="end" fill="#888">1.5M</text><text x="64.0" y="327.2" font-size="4" text-anchor="end" fill="#aa4400" transform="rotate(-80 64.0 327.2)">v5.157.13</text><text x="74.3" y="327.2" font-size="4" text-anchor="end" fill="#d6a382" transform="rotate(-80 74.3 327.2)">v5.157.14</text><text x="84.7" y="327.2" font-size="4" text-anchor="end" fill="#d6a382" transform="rotate(-80 84.7 327.2)">v5.157.15</text><text x="95.0" y="327.2" font-size="4" text-anchor="end" fill="#d6a382" transform="rotate(-80 95.0 327.2)">v5.157.16</text><text x="105.3" y="327.2" font-size="4" text-anchor="end" fill="#d6a382" transform="rotate(-80 105.3 327.2)">v5.157.17</text><text x="115.6" y="327.2" font-size="4" text-anchor="end" fill="#d6a382" transform="rotate(-80 115.6 327.2)">v5.157.18</text><text x="126.0" y="327.2" font-size="4" text-anchor="end" fill="#aa4400" transform="rotate(-80 126.0 327.2)">v5.158.0</text><text x="136.3" y="327.2" font-size="4" text-anchor="end" fill="#d6a382" transform="rotate(-80 136.3 327.2)">v5.158.1</text><text x="146.6" y="327.2" font-size="4" text-anchor="end" fill="#d6a382" transform="rotate(-80 146.6 327.2)">v5.158.2</text><text x="156.9" y="327.2" font-size="4" text-anchor="end" fill="#aa4400" transform="rotate(-80 156.9 327.2)">v5.159.0</text><text x="167.3" y="327.2" font-size="4" text-anchor="end" fill="#d6a382" transform="rotate(-80 167.3 327.2)">v5.159.1</text><text x="177.6" y="327.2" font-size="4" text-anchor="end" fill="#d6a382" transform="rotate(-80 177.6 327.2)">v5.159.2</text><text x="187.9" y="327.2" font-size="4" text-anchor="end" fill="#aa4400" transform="rotate(-80 187.9 327.2)">v5.160.0</text><text x="198.2" y="327.2" font-size="4" text-anchor="end" fill="#aa4400" transform="rotate(-80 198.2 327.2)">v5.161.0</text><text x="208.6" y="327.2" font-size="4" text-anchor="end" fill="#aa4400" transform="rotate(-80 208.6 327.2)">v5.162.0</text><text x="218.9" y="327.2" font-size="4" text-anchor="end" fill="#d6a382" transform="rotate(-80 218.9 327.2)">v5.162.1</text><text x="229.2" y="327.2" font-size="4" text-anchor="end" fill="#d6a382" transform="rotate(-80 229.2 327.2)">v5.162.2</text><text x="239.6" y="327.2" font-size="4" text-anchor="end" fill="#d6a382" transform="rotate(-80 239.6 327.2)">v5.162.3</text><text x="249.9" y="327.2" font-size="4" text-anchor="end" fill="#d6a382" transform="rotate(-80 249.9 327.2)">v5.162.4</text><text x="260.2" y="327.2" font-size="4" text-anchor="end" fill="#d6a382" transform="rotate(-80 260.2 327.2)">v5.162.5</text><text x="270.5" y="327.2" font-size="4" text-anchor="end" fill="#d6a382" transform="rotate(-80 270.5 327.2)">v5.162.6</text><text x="280.9" y="327.2" font-size="4" text-anchor="end" fill="#d6a382" transform="rotate(-80 280.9 327.2)">v5.162.7</text><text x="291.2" y="327.2" font-size="4" text-anchor="end" fill="#d6a382" transform="rotate(-80 291.2 327.2)">v5.162.8</text><text x="301.5" y="327.2" font-size="4" text-anchor="end" fill="#d6a382" transform="rotate(-80 301.5 327.2)">v5.162.9</text><text x="311.8" y="327.2" font-size="4" text-anchor="end" fill="#d6a382" transform="rotate(-80 311.8 327.2)">v5.162.10</text><text x="322.2" y="327.2" font-size="4" text-anchor="end" fill="#d6a382" transform="rotate(-80 322.2 327.2)">v5.162.11</text><text x="332.5" y="327.2" font-size="4" text-anchor="end" fill="#d6a382" transform="rotate(-80 332.5 327.2)">v5.162.12</text><text x="342.8" y="327.2" font-size="4" text-anchor="end" fill="#d6a382" transform="rotate(-80 342.8 327.2)">v5.162.13</text><text x="353.1" y="327.2" font-size="4" text-anchor="end" fill="#d6a382" transform="rotate(-80 353.1 327.2)">v5.162.15</text><text x="363.5" y="327.2" font-size="4" text-anchor="end" fill="#d6a382" transform="rotate(-80 363.5 327.2)">v5.162.16</text><text x="373.8" y="327.2" font-size="4" text-anchor="end" fill="#d6a382" transform="rotate(-80 373.8 327.2)">v5.162.17</text><text x="384.1" y="327.2" font-size="4" text-anchor="end" fill="#d6a382" transform="rotate(-80 384.1 327.2)">v5.162.18</text><text x="394.4" y="327.2" font-size="4" text-anchor="end" fill="#d6a382" transform="rotate(-80 394.4 327.2)">v5.162.19</text><text x="404.8" y="327.2" font-size="4" text-anchor="end" fill="#d6a382" transform="rotate(-80 404.8 327.2)">v5.162.20</text><text x="415.1" y="327.2" font-size="4" text-anchor="end" fill="#d6a382" transform="rotate(-80 415.1 327.2)">v5.162.21</text><text x="425.4" y="327.2" font-size="4" text-anchor="end" fill="#d6a382" transform="rotate(-80 425.4 327.2)">v5.162.22</text><text x="435.8" y="327.2" font-size="4" text-anchor="end" fill="#d6a382" transform="rotate(-80 435.8 327.2)">v5.162.23</text><text x="446.1" y="327.2" font-size="4" text-anchor="end" fill="#d6a382" transform="rotate(-80 446.1 327.2)">v5.162.24</text><text x="456.4" y="327.2" font-size="4" text-anchor="end" fill="#d6a382" transform="rotate(-80 456.4 327.2)">v5.162.25</text><text x="466.7" y="327.2" font-size="4" text-anchor="end" fill="#d6a382" transform="rotate(-80 466.7 327.2)">v5.162.26</text><text x="477.1" y="327.2" font-size="4" text-anchor="end" fill="#d6a382" transform="rotate(-80 477.1 327.2)">v5.162.27</text><text x="487.4" y="327.2" font-size="4" text-anchor="end" fill="#d6a382" transform="rotate(-80 487.4 327.2)">v5.162.28</text><text x="497.7" y="327.2" font-size="4" text-anchor="end" fill="#d6a382" transform="rotate(-80 497.7 327.2)">v5.162.29</text><text x="508.0" y="327.2" font-size="4" text-anchor="end" fill="#d6a382" transform="rotate(-80 508.0 327.2)">v5.162.30</text><text x="518.4" y="327.2" font-size="4" text-anchor="end" fill="#d6a382" transform="rotate(-80 518.4 327.2)">v5.162.31</text><text x="528.7" y="327.2" font-size="4" text-anchor="end" fill="#d6a382" transform="rotate(-80 528.7 327.2)">v5.162.32</text><text x="539.0" y="327.2" font-size="4" text-anchor="end" fill="#d6a382" transform="rotate(-80 539.0 327.2)">v5.162.33</text><text x="549.3" y="327.2" font-size="4" text-anchor="end" fill="#d6a382" transform="rotate(-80 549.3 327.2)">v5.162.34</text><text x="559.7" y="327.2" font-size="4" text-anchor="end" fill="#d6a382" transform="rotate(-80 559.7 327.2)">v5.162.35</text><text x="570.0" y="327.2" font-size="4" text-anchor="end" fill="#aa4400" transform="rotate(-80 570.0 327.2)">v5.163.0</text><path d="M64.0,299.8 L74.3,299.8 L84.7,296.7 L95.0,296.4 L105.3,296.4 L115.6,296.4 L126.0,296.0 L136.3,295.8 L146.6,295.8 L156.9,279.7 L167.3,279.7 L177.6,279.7 L187.9,279.7 L198.2,279.7 L208.6,279.7 L218.9,279.7 L229.2,279.7 L239.6,279.7 L249.9,279.7 L260.2,279.7 L270.5,270.9 L280.9,267.3 L291.2,182.5 L301.5,138.8 L311.8,138.8 L322.2,133.0 L332.5,131.4 L342.8,130.0 L353.1,130.0 L363.5,130.0 L373.8,130.0 L384.1,130.0 L394.4,130.0 L404.8,129.4 L415.1,129.4 L425.4,125.5 L435.8,124.3 L446.1,85.9 L456.4,82.4 L466.7,82.4 L477.1,81.3 L487.4,77.7 L497.7,58.2 L508.0,58.2 L518.4,58.2 L528.7,58.2 L539.0,93.7 L549.3,93.6 L559.7,121.2 L570.0,121.2" fill="none" stroke="#4477AA" stroke-width="1.6"/><circle cx="64.0" cy="299.8" r="2" fill="#4477AA"/><circle cx="74.3" cy="299.8" r="2" fill="#4477AA"/><circle cx="84.7" cy="296.7" r="2" fill="#4477AA"/><circle cx="95.0" cy="296.4" r="2" fill="#4477AA"/><circle cx="105.3" cy="296.4" r="2" fill="#4477AA"/><circle cx="115.6" cy="296.4" r="2" fill="#4477AA"/><circle cx="126.0" cy="296.0" r="2" fill="#4477AA"/><circle cx="136.3" cy="295.8" r="2" fill="#4477AA"/><circle cx="146.6" cy="295.8" r="2" fill="#4477AA"/><circle cx="156.9" cy="279.7" r="2" fill="#4477AA"/><circle cx="167.3" cy="279.7" r="2" fill="#4477AA"/><circle cx="177.6" cy="279.7" r="2" fill="#4477AA"/><circle cx="187.9" cy="279.7" r="2" fill="#4477AA"/><circle cx="198.2" cy="279.7" r="2" fill="#4477AA"/><circle cx="208.6" cy="279.7" r="2" fill="#4477AA"/><circle cx="218.9" cy="279.7" r="2" fill="#4477AA"/><circle cx="229.2" cy="279.7" r="2" fill="#4477AA"/><circle cx="239.6" cy="279.7" r="2" fill="#4477AA"/><circle cx="249.9" cy="279.7" r="2" fill="#4477AA"/><circle cx="260.2" cy="279.7" r="2" fill="#4477AA"/><circle cx="270.5" cy="270.9" r="2" fill="#4477AA"/><circle cx="280.9" cy="267.3" r="2" fill="#4477AA"/><circle cx="291.2" cy="182.5" r="2" fill="#4477AA"/><circle cx="301.5" cy="138.8" r="2" fill="#4477AA"/><circle cx="311.8" cy="138.8" r="2" fill="#4477AA"/><circle cx="322.2" cy="133.0" r="2" fill="#4477AA"/><circle cx="332.5" cy="131.4" r="2" fill="#4477AA"/><circle cx="342.8" cy="130.0" r="2" fill="#4477AA"/><circle cx="353.1" cy="130.0" r="2" fill="#4477AA"/><circle cx="363.5" cy="130.0" r="2" fill="#4477AA"/><circle cx="373.8" cy="130.0" r="2" fill="#4477AA"/><circle cx="384.1" cy="130.0" r="2" fill="#4477AA"/><circle cx="394.4" cy="130.0" r="2" fill="#4477AA"/><circle cx="404.8" cy="129.4" r="2" fill="#4477AA"/><circle cx="415.1" cy="129.4" r="2" fill="#4477AA"/><circle cx="425.4" cy="125.5" r="2" fill="#4477AA"/><circle cx="435.8" cy="124.3" r="2" fill="#4477AA"/><circle cx="446.1" cy="85.9" r="2" fill="#4477AA"/><circle cx="456.4" cy="82.4" r="2" fill="#4477AA"/><circle cx="466.7" cy="82.4" r="2" fill="#4477AA"/><circle cx="477.1" cy="81.3" r="2" fill="#4477AA"/><circle cx="487.4" cy="77.7" r="2" fill="#4477AA"/><circle cx="497.7" cy="58.2" r="2" fill="#4477AA"/><circle cx="508.0" cy="58.2" r="2" fill="#4477AA"/><circle cx="518.4" cy="58.2" r="2" fill="#4477AA"/><circle cx="528.7" cy="58.2" r="2" fill="#4477AA"/><circle cx="539.0" cy="93.7" r="2" fill="#4477AA"/><circle cx="549.3" cy="93.6" r="2" fill="#4477AA"/><circle cx="559.7" cy="121.2" r="2" fill="#4477AA"/><circle cx="570.0" cy="121.2" r="2" fill="#4477AA"/><rect x="580" y="34" width="10" height="10" fill="#4477AA"/><text x="594" y="43" font-size="10" fill="#444">package (raw, all dist)</text></svg>