<svg width="720" height="372" xmlns="http://www.w3.org/2000/svg"><rect width="720" height="372" fill="#ffffff"/><text x="64" y="20" font-size="15" font-weight="bold" fill="#333">action() — ops/sec (linear scale, last 50) by PR / release, c8g.medium</text><line x1="74.3" y1="34" x2="74.3" y2="324" stroke="#e8e8e8"/><line x1="84.7" y1="34" x2="84.7" y2="324" stroke="#e8e8e8"/><line x1="95.0" y1="34" x2="95.0" y2="324" stroke="#e8e8e8"/><line x1="105.3" y1="34" x2="105.3" y2="324" stroke="#e8e8e8"/><line x1="126.0" y1="34" x2="126.0" y2="324" stroke="#e8e8e8"/><line x1="136.3" y1="34" x2="136.3" y2="324" stroke="#e8e8e8"/><line x1="146.6" y1="34" x2="146.6" y2="324" stroke="#e8e8e8"/><line x1="156.9" y1="34" x2="156.9" y2="324" stroke="#e8e8e8"/><line x1="177.6" y1="34" x2="177.6" y2="324" stroke="#e8e8e8"/><line x1="187.9" y1="34" x2="187.9" y2="324" stroke="#e8e8e8"/><line x1="198.2" y1="34" x2="198.2" y2="324" stroke="#e8e8e8"/><line x1="208.6" y1="34" x2="208.6" y2="324" stroke="#e8e8e8"/><line x1="229.2" y1="34" x2="229.2" y2="324" stroke="#e8e8e8"/><line x1="239.6" y1="34" x2="239.6" y2="324" stroke="#e8e8e8"/><line x1="249.9" y1="34" x2="249.9" y2="324" stroke="#e8e8e8"/><line x1="260.2" y1="34" x2="260.2" y2="324" stroke="#e8e8e8"/><line x1="280.9" y1="34" x2="280.9" y2="324" stroke="#e8e8e8"/><line x1="291.2" y1="34" x2="291.2" y2="324" stroke="#e8e8e8"/><line x1="301.5" y1="34" x2="301.5" y2="324" stroke="#e8e8e8"/><line x1="311.8" y1="34" x2="311.8" y2="324" stroke="#e8e8e8"/><line x1="332.5" y1="34" x2="332.5" y2="324" stroke="#e8e8e8"/><line x1="342.8" y1="34" x2="342.8" y2="324" stroke="#e8e8e8"/><line x1="353.1" y1="34" x2="353.1" y2="324" stroke="#e8e8e8"/><line x1="363.5" y1="34" x2="363.5" y2="324" stroke="#e8e8e8"/><line x1="384.1" y1="34" x2="384.1" y2="324" stroke="#e8e8e8"/><line x1="394.4" y1="34" x2="394.4" y2="324" stroke="#e8e8e8"/><line x1="404.8" y1="34" x2="404.8" y2="324" stroke="#e8e8e8"/><line x1="415.1" y1="34" x2="415.1" y2="324" stroke="#e8e8e8"/><line x1="435.8" y1="34" x2="435.8" y2="324" stroke="#e8e8e8"/><line x1="446.1" y1="34" x2="446.1" y2="324" stroke="#e8e8e8"/><line x1="456.4" y1="34" x2="456.4" y2="324" stroke="#e8e8e8"/><line x1="466.7" y1="34" x2="466.7" y2="324" stroke="#e8e8e8"/><line x1="487.4" y1="34" x2="487.4" y2="324" stroke="#e8e8e8"/><line x1="497.7" y1="34" x2="497.7" y2="324" stroke="#e8e8e8"/><line x1="508.0" y1="34" x2="508.0" y2="324" stroke="#e8e8e8"/><line x1="518.4" y1="34" x2="518.4" y2="324" stroke="#e8e8e8"/><line x1="539.0" y1="34" x2="539.0" y2="324" stroke="#e8e8e8"/><line x1="549.3" y1="34" x2="549.3" y2="324" stroke="#e8e8e8"/><line x1="559.7" y1="34" x2="559.7" y2="324" stroke="#e8e8e8"/><line x1="570.0" y1="34" x2="570.0" y2="324" stroke="#e8e8e8"/><line x1="64.0" y1="34" x2="64.0" y2="324" stroke="#d0d0d0"/><line x1="115.6" y1="34" x2="115.6" y2="324" stroke="#d0d0d0"/><line x1="167.3" y1="34" x2="167.3" y2="324" stroke="#d0d0d0"/><line x1="218.9" y1="34" x2="218.9" y2="324" stroke="#d0d0d0"/><line x1="270.5" y1="34" x2="270.5" y2="324" stroke="#d0d0d0"/><line x1="322.2" y1="34" x2="322.2" y2="324" stroke="#d0d0d0"/><line x1="373.8" y1="34" x2="373.8" y2="324" stroke="#d0d0d0"/><line x1="425.4" y1="34" x2="425.4" y2="324" stroke="#d0d0d0"/><line x1="477.1" y1="34" x2="477.1" y2="324" stroke="#d0d0d0"/><line x1="528.7" y1="34" x2="528.7" y2="324" stroke="#d0d0d0"/><line x1="64" y1="324.0" x2="570" y2="324.0" stroke="#b0b0b0"/><text x="58" y="328.0" font-size="10" text-anchor="end" fill="#888">3.7M</text><line x1="64" y1="266.0" x2="570" y2="266.0" stroke="#b0b0b0"/><text x="58" y="270.0" font-size="10" text-anchor="end" fill="#888">7.2M</text><line x1="64" y1="208.0" x2="570" y2="208.0" stroke="#b0b0b0"/><text x="58" y="212.0" font-size="10" text-anchor="end" fill="#888">10.6M</text><line x1="64" y1="150.0" x2="570" y2="150.0" stroke="#b0b0b0"/><text x="58" y="154.0" font-size="10" text-anchor="end" fill="#888">14.1M</text><line x1="64" y1="92.0" x2="570" y2="92.0" stroke="#b0b0b0"/><text x="58" y="96.0" font-size="10" text-anchor="end" fill="#888">17.6M</text><line x1="64" y1="34.0" x2="570" y2="34.0" stroke="#b0b0b0"/><text x="58" y="38.0" font-size="10" text-anchor="end" fill="#888">21M</text><text x="64.0" y="327.2" font-size="4" text-anchor="end" fill="#aa4400" transform="rotate(-80 64.0 327.2)">v5.157.15</text><text x="74.3" y="327.2" font-size="4" text-anchor="end" fill="#d6a382" transform="rotate(-80 74.3 327.2)">v5.157.16</text><text x="84.7" y="327.2" font-size="4" text-anchor="end" fill="#d6a382" transform="rotate(-80 84.7 327.2)">v5.157.17</text><text x="95.0" y="327.2" font-size="4" text-anchor="end" fill="#d6a382" transform="rotate(-80 95.0 327.2)">v5.157.18</text><text x="105.3" y="327.2" font-size="4" text-anchor="end" fill="#aa4400" transform="rotate(-80 105.3 327.2)">v5.158.0</text><text x="115.6" y="327.2" font-size="4" text-anchor="end" fill="#d6a382" transform="rotate(-80 115.6 327.2)">v5.158.1</text><text x="126.0" y="327.2" font-size="4" text-anchor="end" fill="#d6a382" transform="rotate(-80 126.0 327.2)">v5.158.2</text><text x="136.3" y="327.2" font-size="4" text-anchor="end" fill="#aa4400" transform="rotate(-80 136.3 327.2)">v5.159.0</text><text x="146.6" y="327.2" font-size="4" text-anchor="end" fill="#d6a382" transform="rotate(-80 146.6 327.2)">v5.159.1</text><text x="156.9" y="327.2" font-size="4" text-anchor="end" fill="#d6a382" transform="rotate(-80 156.9 327.2)">v5.159.2</text><text x="167.3" y="327.2" font-size="4" text-anchor="end" fill="#aa4400" transform="rotate(-80 167.3 327.2)">v5.160.0</text><text x="177.6" y="327.2" font-size="4" text-anchor="end" fill="#aa4400" transform="rotate(-80 177.6 327.2)">v5.161.0</text><text x="187.9" y="327.2" font-size="4" text-anchor="end" fill="#aa4400" transform="rotate(-80 187.9 327.2)">v5.162.0</text><text x="198.2" y="327.2" font-size="4" text-anchor="end" fill="#d6a382" transform="rotate(-80 198.2 327.2)">v5.162.1</text><text x="208.6" y="327.2" font-size="4" text-anchor="end" fill="#d6a382" transform="rotate(-80 208.6 327.2)">v5.162.2</text><text x="218.9" y="327.2" font-size="4" text-anchor="end" fill="#d6a382" transform="rotate(-80 218.9 327.2)">v5.162.3</text><text x="229.2" y="327.2" font-size="4" text-anchor="end" fill="#d6a382" transform="rotate(-80 229.2 327.2)">v5.162.4</text><text x="239.6" y="327.2" font-size="4" text-anchor="end" fill="#d6a382" transform="rotate(-80 239.6 327.2)">v5.162.5</text><text x="249.9" y="327.2" font-size="4" text-anchor="end" fill="#d6a382" transform="rotate(-80 249.9 327.2)">v5.162.6</text><text x="260.2" y="327.2" font-size="4" text-anchor="end" fill="#d6a382" transform="rotate(-80 260.2 327.2)">v5.162.7</text><text x="270.5" y="327.2" font-size="4" text-anchor="end" fill="#d6a382" transform="rotate(-80 270.5 327.2)">v5.162.8</text><text x="280.9" y="327.2" font-size="4" text-anchor="end" fill="#d6a382" transform="rotate(-80 280.9 327.2)">v5.162.9</text><text x="291.2" y="327.2" font-size="4" text-anchor="end" fill="#d6a382" transform="rotate(-80 291.2 327.2)">v5.162.10</text><text x="301.5" y="327.2" font-size="4" text-anchor="end" fill="#d6a382" transform="rotate(-80 301.5 327.2)">v5.162.11</text><text x="311.8" y="327.2" font-size="4" text-anchor="end" fill="#d6a382" transform="rotate(-80 311.8 327.2)">v5.162.12</text><text x="322.2" y="327.2" font-size="4" text-anchor="end" fill="#d6a382" transform="rotate(-80 322.2 327.2)">v5.162.13</text><text x="332.5" y="327.2" font-size="4" text-anchor="end" fill="#d6a382" transform="rotate(-80 332.5 327.2)">v5.162.15</text><text x="342.8" y="327.2" font-size="4" text-anchor="end" fill="#d6a382" transform="rotate(-80 342.8 327.2)">v5.162.16</text><text x="353.1" y="327.2" font-size="4" text-anchor="end" fill="#d6a382" transform="rotate(-80 353.1 327.2)">v5.162.17</text><text x="363.5" y="327.2" font-size="4" text-anchor="end" fill="#d6a382" transform="rotate(-80 363.5 327.2)">v5.162.18</text><text x="373.8" y="327.2" font-size="4" text-anchor="end" fill="#d6a382" transform="rotate(-80 373.8 327.2)">v5.162.19</text><text x="384.1" y="327.2" font-size="4" text-anchor="end" fill="#d6a382" transform="rotate(-80 384.1 327.2)">v5.162.20</text><text x="394.4" y="327.2" font-size="4" text-anchor="end" fill="#d6a382" transform="rotate(-80 394.4 327.2)">v5.162.21</text><text x="404.8" y="327.2" font-size="4" text-anchor="end" fill="#d6a382" transform="rotate(-80 404.8 327.2)">v5.162.22</text><text x="415.1" y="327.2" font-size="4" text-anchor="end" fill="#d6a382" transform="rotate(-80 415.1 327.2)">v5.162.23</text><text x="425.4" y="327.2" font-size="4" text-anchor="end" fill="#d6a382" transform="rotate(-80 425.4 327.2)">v5.162.24</text><text x="435.8" y="327.2" font-size="4" text-anchor="end" fill="#d6a382" transform="rotate(-80 435.8 327.2)">v5.162.25</text><text x="446.1" y="327.2" font-size="4" text-anchor="end" fill="#d6a382" transform="rotate(-80 446.1 327.2)">v5.162.26</text><text x="456.4" y="327.2" font-size="4" text-anchor="end" fill="#d6a382" transform="rotate(-80 456.4 327.2)">v5.162.27</text><text x="466.7" y="327.2" font-size="4" text-anchor="end" fill="#d6a382" transform="rotate(-80 466.7 327.2)">v5.162.28</text><text x="477.1" y="327.2" font-size="4" text-anchor="end" fill="#d6a382" transform="rotate(-80 477.1 327.2)">v5.162.29</text><text x="487.4" y="327.2" font-size="4" text-anchor="end" fill="#d6a382" transform="rotate(-80 487.4 327.2)">v5.162.30</text><text x="497.7" y="327.2" font-size="4" text-anchor="end" fill="#d6a382" transform="rotate(-80 497.7 327.2)">v5.162.31</text><text x="508.0" y="327.2" font-size="4" text-anchor="end" fill="#d6a382" transform="rotate(-80 508.0 327.2)">v5.162.32</text><text x="518.4" y="327.2" font-size="4" text-anchor="end" fill="#d6a382" transform="rotate(-80 518.4 327.2)">v5.162.33</text><text x="528.7" y="327.2" font-size="4" text-anchor="end" fill="#d6a382" transform="rotate(-80 528.7 327.2)">v5.162.34</text><text x="539.0" y="327.2" font-size="4" text-anchor="end" fill="#d6a382" transform="rotate(-80 539.0 327.2)">v5.162.35</text><text x="549.3" y="327.2" font-size="4" text-anchor="end" fill="#aa4400" transform="rotate(-80 549.3 327.2)">v5.163.0</text><text x="559.7" y="327.2" font-size="4" text-anchor="end" fill="#d6a382" transform="rotate(-80 559.7 327.2)">v5.163.1</text><text x="570.0" y="327.2" font-size="4" text-anchor="end" fill="#d6a382" transform="rotate(-80 570.0 327.2)">v5.163.2</text><path d="M64.0,63.4 L74.3,70.1 L84.7,71.0 L95.0,71.5 L105.3,70.4 L115.6,77.6 L126.0,81.3 L136.3,67.8 L146.6,71.2 L156.9,65.8 L167.3,70.1 L177.6,71.7 L187.9,78.2 L198.2,63.5 L208.6,64.1 L218.9,70.2 L229.2,67.3 L239.6,80.3 L249.9,72.1 L260.2,76.2 L270.5,175.2 L280.9,174.9 L291.2,180.0 L301.5,177.4 L311.8,173.5 L322.2,176.8 L332.5,188.2 L342.8,178.9 L353.1,179.3 L363.5,177.3 L373.8,176.1 L384.1,174.9 L394.4,174.8 L404.8,172.6 L415.1,174.8 L425.4,177.1 L435.8,173.9 L446.1,182.5 L456.4,176.6 L466.7,179.4 L477.1,173.1 L487.4,180.9 L497.7,174.3 L508.0,176.7 L518.4,127.5 L528.7,127.7 L539.0,70.2 L549.3,75.0 L559.7,70.8 L570.0,71.1" fill="none" stroke="#4477AA" stroke-width="1.6"/><circle cx="64.0" cy="63.4" r="2" fill="#4477AA"/><circle cx="74.3" cy="70.1" r="2" fill="#4477AA"/><circle cx="84.7" cy="71.0" r="2" fill="#4477AA"/><circle cx="95.0" cy="71.5" r="2" fill="#4477AA"/><circle cx="105.3" cy="70.4" r="2" fill="#4477AA"/><circle cx="115.6" cy="77.6" r="2" fill="#4477AA"/><circle cx="126.0" cy="81.3" r="2" fill="#4477AA"/><circle cx="136.3" cy="67.8" r="2" fill="#4477AA"/><circle cx="146.6" cy="71.2" r="2" fill="#4477AA"/><circle cx="156.9" cy="65.8" r="2" fill="#4477AA"/><circle cx="167.3" cy="70.1" r="2" fill="#4477AA"/><circle cx="177.6" cy="71.7" r="2" fill="#4477AA"/><circle cx="187.9" cy="78.2" r="2" fill="#4477AA"/><circle cx="198.2" cy="63.5" r="2" fill="#4477AA"/><circle cx="208.6" cy="64.1" r="2" fill="#4477AA"/><circle cx="218.9" cy="70.2" r="2" fill="#4477AA"/><circle cx="229.2" cy="67.3" r="2" fill="#4477AA"/><circle cx="239.6" cy="80.3" r="2" fill="#4477AA"/><circle cx="249.9" cy="72.1" r="2" fill="#4477AA"/><circle cx="260.2" cy="76.2" r="2" fill="#4477AA"/><circle cx="270.5" cy="175.2" r="2" fill="#4477AA"/><circle cx="280.9" cy="174.9" r="2" fill="#4477AA"/><circle cx="291.2" cy="180.0" r="2" fill="#4477AA"/><circle cx="301.5" cy="177.4" r="2" fill="#4477AA"/><circle cx="311.8" cy="173.5" r="2" fill="#4477AA"/><circle cx="322.2" cy="176.8" r="2" fill="#4477AA"/><circle cx="332.5" cy="188.2" r="2" fill="#4477AA"/><circle cx="342.8" cy="178.9" r="2" fill="#4477AA"/><circle cx="353.1" cy="179.3" r="2" fill="#4477AA"/><circle cx="363.5" cy="177.3" r="2" fill="#4477AA"/><circle cx="373.8" cy="176.1" r="2" fill="#4477AA"/><circle cx="384.1" cy="174.9" r="2" fill="#4477AA"/><circle cx="394.4" cy="174.8" r="2" fill="#4477AA"/><circle cx="404.8" cy="172.6" r="2" fill="#4477AA"/><circle cx="415.1" cy="174.8" r="2" fill="#4477AA"/><circle cx="425.4" cy="177.1" r="2" fill="#4477AA"/><circle cx="435.8" cy="173.9" r="2" fill="#4477AA"/><circle cx="446.1" cy="182.5" r="2" fill="#4477AA"/><circle cx="456.4" cy="176.6" r="2" fill="#4477AA"/><circle cx="466.7" cy="179.4" r="2" fill="#4477AA"/><circle cx="477.1" cy="173.1" r="2" fill="#4477AA"/><circle cx="487.4" cy="180.9" r="2" fill="#4477AA"/><circle cx="497.7" cy="174.3" r="2" fill="#4477AA"/><circle cx="508.0" cy="176.7" r="2" fill="#4477AA"/><circle cx="518.4" cy="127.5" r="2" fill="#4477AA"/><circle cx="528.7" cy="127.7" r="2" fill="#4477AA"/><circle cx="539.0" cy="70.2" r="2" fill="#4477AA"/><circle cx="549.3" cy="75.0" r="2" fill="#4477AA"/><circle cx="559.7" cy="70.8" r="2" fill="#4477AA"/><circle cx="570.0" cy="71.1" r="2" fill="#4477AA"/><rect x="580" y="34" width="10" height="10" fill="#4477AA"/><text x="594" y="43" font-size="10" fill="#444">chain-10</text><path d="M64.0,82.1 L74.3,86.9 L84.7,87.5 L95.0,87.4 L105.3,84.1 L115.6,83.8 L126.0,90.7 L136.3,88.8 L146.6,89.8 L156.9,78.4 L167.3,86.2 L177.6,82.2 L187.9,83.5 L198.2,81.6 L208.6,85.0 L218.9,80.0 L229.2,82.7 L239.6,86.7 L249.9,88.3 L260.2,88.0 L270.5,183.7 L280.9,179.9 L291.2,185.4 L301.5,187.9 L311.8,187.5 L322.2,191.7 L332.5,188.1 L342.8,182.0 L353.1,185.1 L363.5,188.2 L373.8,190.1 L384.1,186.6 L394.4,180.3 L404.8,180.7 L415.1,183.1 L425.4,188.3 L435.8,182.2 L446.1,188.0 L456.4,185.4 L466.7,187.4 L477.1,190.0 L487.4,188.8 L497.7,188.6 L508.0,183.9 L518.4,143.0 L528.7,139.1 L539.0,99.2 L549.3,90.3 L559.7,93.1 L570.0,93.9" fill="none" stroke="#EE6677" stroke-width="1.6"/><circle cx="64.0" cy="82.1" r="2" fill="#EE6677"/><circle cx="74.3" cy="86.9" r="2" fill="#EE6677"/><circle cx="84.7" cy="87.5" r="2" fill="#EE6677"/><circle cx="95.0" cy="87.4" r="2" fill="#EE6677"/><circle cx="105.3" cy="84.1" r="2" fill="#EE6677"/><circle cx="115.6" cy="83.8" r="2" fill="#EE6677"/><circle cx="126.0" cy="90.7" r="2" fill="#EE6677"/><circle cx="136.3" cy="88.8" r="2" fill="#EE6677"/><circle cx="146.6" cy="89.8" r="2" fill="#EE6677"/><circle cx="156.9" cy="78.4" r="2" fill="#EE6677"/><circle cx="167.3" cy="86.2" r="2" fill="#EE6677"/><circle cx="177.6" cy="82.2" r="2" fill="#EE6677"/><circle cx="187.9" cy="83.5" r="2" fill="#EE6677"/><circle cx="198.2" cy="81.6" r="2" fill="#EE6677"/><circle cx="208.6" cy="85.0" r="2" fill="#EE6677"/><circle cx="218.9" cy="80.0" r="2" fill="#EE6677"/><circle cx="229.2" cy="82.7" r="2" fill="#EE6677"/><circle cx="239.6" cy="86.7" r="2" fill="#EE6677"/><circle cx="249.9" cy="88.3" r="2" fill="#EE6677"/><circle cx="260.2" cy="88.0" r="2" fill="#EE6677"/><circle cx="270.5" cy="183.7" r="2" fill="#EE6677"/><circle cx="280.9" cy="179.9" r="2" fill="#EE6677"/><circle cx="291.2" cy="185.4" r="2" fill="#EE6677"/><circle cx="301.5" cy="187.9" r="2" fill="#EE6677"/><circle cx="311.8" cy="187.5" r="2" fill="#EE6677"/><circle cx="322.2" cy="191.7" r="2" fill="#EE6677"/><circle cx="332.5" cy="188.1" r="2" fill="#EE6677"/><circle cx="342.8" cy="182.0" r="2" fill="#EE6677"/><circle cx="353.1" cy="185.1" r="2" fill="#EE6677"/><circle cx="363.5" cy="188.2" r="2" fill="#EE6677"/><circle cx="373.8" cy="190.1" r="2" fill="#EE6677"/><circle cx="384.1" cy="186.6" r="2" fill="#EE6677"/><circle cx="394.4" cy="180.3" r="2" fill="#EE6677"/><circle cx="404.8" cy="180.7" r="2" fill="#EE6677"/><circle cx="415.1" cy="183.1" r="2" fill="#EE6677"/><circle cx="425.4" cy="188.3" r="2" fill="#EE6677"/><circle cx="435.8" cy="182.2" r="2" fill="#EE6677"/><circle cx="446.1" cy="188.0" r="2" fill="#EE6677"/><circle cx="456.4" cy="185.4" r="2" fill="#EE6677"/><circle cx="466.7" cy="187.4" r="2" fill="#EE6677"/><circle cx="477.1" cy="190.0" r="2" fill="#EE6677"/><circle cx="487.4" cy="188.8" r="2" fill="#EE6677"/><circle cx="497.7" cy="188.6" r="2" fill="#EE6677"/><circle cx="508.0" cy="183.9" r="2" fill="#EE6677"/><circle cx="518.4" cy="143.0" r="2" fill="#EE6677"/><circle cx="528.7" cy="139.1" r="2" fill="#EE6677"/><circle cx="539.0" cy="99.2" r="2" fill="#EE6677"/><circle cx="549.3" cy="90.3" r="2" fill="#EE6677"/><circle cx="559.7" cy="93.1" r="2" fill="#EE6677"/><circle cx="570.0" cy="93.9" r="2" fill="#EE6677"/><rect x="580" y="49" width="10" height="10" fill="#EE6677"/><text x="594" y="58" font-size="10" fill="#444">chain-50</text><path d="M64.0,99.3 L74.3,102.2 L84.7,103.1 L95.0,103.7 L105.3,99.2 L115.6,104.0 L126.0,99.5 L136.3,105.1 L146.6,108.8 L156.9,102.6 L167.3,101.2 L177.6,100.4 L187.9,101.1 L198.2,106.6 L208.6,97.0 L218.9,98.8 L229.2,103.0 L239.6,102.6 L249.9,108.3 L260.2,113.8 L270.5,192.9 L280.9,186.4 L291.2,192.1 L301.5,187.1 L311.8,187.3 L322.2,185.8 L332.5,189.9 L342.8,184.6 L353.1,186.8 L363.5,194.8 L373.8,185.5 L384.1,183.3 L394.4,189.3 L404.8,185.7 L415.1,189.7 L425.4,190.8 L435.8,186.0 L446.1,195.1 L456.4,188.1 L466.7,186.7 L477.1,187.7 L487.4,196.2 L497.7,186.1 L508.0,186.8 L518.4,150.2 L528.7,148.1 L539.0,109.6 L549.3,111.2 L559.7,111.0 L570.0,111.1" fill="none" stroke="#228833" stroke-width="1.6"/><circle cx="64.0" cy="99.3" r="2" fill="#228833"/><circle cx="74.3" cy="102.2" r="2" fill="#228833"/><circle cx="84.7" cy="103.1" r="2" fill="#228833"/><circle cx="95.0" cy="103.7" r="2" fill="#228833"/><circle cx="105.3" cy="99.2" r="2" fill="#228833"/><circle cx="115.6" cy="104.0" r="2" fill="#228833"/><circle cx="126.0" cy="99.5" r="2" fill="#228833"/><circle cx="136.3" cy="105.1" r="2" fill="#228833"/><circle cx="146.6" cy="108.8" r="2" fill="#228833"/><circle cx="156.9" cy="102.6" r="2" fill="#228833"/><circle cx="167.3" cy="101.2" r="2" fill="#228833"/><circle cx="177.6" cy="100.4" r="2" fill="#228833"/><circle cx="187.9" cy="101.1" r="2" fill="#228833"/><circle cx="198.2" cy="106.6" r="2" fill="#228833"/><circle cx="208.6" cy="97.0" r="2" fill="#228833"/><circle cx="218.9" cy="98.8" r="2" fill="#228833"/><circle cx="229.2" cy="103.0" r="2" fill="#228833"/><circle cx="239.6" cy="102.6" r="2" fill="#228833"/><circle cx="249.9" cy="108.3" r="2" fill="#228833"/><circle cx="260.2" cy="113.8" r="2" fill="#228833"/><circle cx="270.5" cy="192.9" r="2" fill="#228833"/><circle cx="280.9" cy="186.4" r="2" fill="#228833"/><circle cx="291.2" cy="192.1" r="2" fill="#228833"/><circle cx="301.5" cy="187.1" r="2" fill="#228833"/><circle cx="311.8" cy="187.3" r="2" fill="#228833"/><circle cx="322.2" cy="185.8" r="2" fill="#228833"/><circle cx="332.5" cy="189.9" r="2" fill="#228833"/><circle cx="342.8" cy="184.6" r="2" fill="#228833"/><circle cx="353.1" cy="186.8" r="2" fill="#228833"/><circle cx="363.5" cy="194.8" r="2" fill="#228833"/><circle cx="373.8" cy="185.5" r="2" fill="#228833"/><circle cx="384.1" cy="183.3" r="2" fill="#228833"/><circle cx="394.4" cy="189.3" r="2" fill="#228833"/><circle cx="404.8" cy="185.7" r="2" fill="#228833"/><circle cx="415.1" cy="189.7" r="2" fill="#228833"/><circle cx="425.4" cy="190.8" r="2" fill="#228833"/><circle cx="435.8" cy="186.0" r="2" fill="#228833"/><circle cx="446.1" cy="195.1" r="2" fill="#228833"/><circle cx="456.4" cy="188.1" r="2" fill="#228833"/><circle cx="466.7" cy="186.7" r="2" fill="#228833"/><circle cx="477.1" cy="187.7" r="2" fill="#228833"/><circle cx="487.4" cy="196.2" r="2" fill="#228833"/><circle cx="497.7" cy="186.1" r="2" fill="#228833"/><circle cx="508.0" cy="186.8" r="2" fill="#228833"/><circle cx="518.4" cy="150.2" r="2" fill="#228833"/><circle cx="528.7" cy="148.1" r="2" fill="#228833"/><circle cx="539.0" cy="109.6" r="2" fill="#228833"/><circle cx="549.3" cy="111.2" r="2" fill="#228833"/><circle cx="559.7" cy="111.0" r="2" fill="#228833"/><circle cx="570.0" cy="111.1" r="2" fill="#228833"/><rect x="580" y="64" width="10" height="10" fill="#228833"/><text x="594" y="73" font-size="10" fill="#444">chain-200</text><path d="M64.0,135.8 L74.3,123.5 L84.7,123.4 L95.0,125.0 L105.3,120.4 L115.6,128.5 L126.0,124.5 L136.3,123.8 L146.6,124.7 L156.9,129.8 L167.3,125.9 L177.6,120.9 L187.9,129.1 L198.2,121.8 L208.6,129.9 L218.9,127.7 L229.2,131.5 L239.6,126.1 L249.9,132.8 L260.2,128.0 L270.5,210.8 L280.9,215.9 L291.2,213.6 L301.5,218.6 L311.8,213.8 L322.2,212.0 L332.5,223.6 L342.8,217.2 L353.1,215.2 L363.5,219.8 L373.8,213.5 L384.1,216.3 L394.4,221.4 L404.8,217.0 L415.1,219.3 L425.4,216.3 L435.8,215.8 L446.1,219.8 L456.4,215.9 L466.7,219.0 L477.1,217.3 L487.4,214.0 L497.7,217.4 L508.0,214.0 L518.4,175.2 L528.7,178.9 L539.0,134.0 L549.3,133.9 L559.7,143.5 L570.0,134.5" fill="none" stroke="#CCBB44" stroke-width="1.6"/><circle cx="64.0" cy="135.8" r="2" fill="#CCBB44"/><circle cx="74.3" cy="123.5" r="2" fill="#CCBB44"/><circle cx="84.7" cy="123.4" r="2" fill="#CCBB44"/><circle cx="95.0" cy="125.0" r="2" fill="#CCBB44"/><circle cx="105.3" cy="120.4" r="2" fill="#CCBB44"/><circle cx="115.6" cy="128.5" r="2" fill="#CCBB44"/><circle cx="126.0" cy="124.5" r="2" fill="#CCBB44"/><circle cx="136.3" cy="123.8" r="2" fill="#CCBB44"/><circle cx="146.6" cy="124.7" r="2" fill="#CCBB44"/><circle cx="156.9" cy="129.8" r="2" fill="#CCBB44"/><circle cx="167.3" cy="125.9" r="2" fill="#CCBB44"/><circle cx="177.6" cy="120.9" r="2" fill="#CCBB44"/><circle cx="187.9" cy="129.1" r="2" fill="#CCBB44"/><circle cx="198.2" cy="121.8" r="2" fill="#CCBB44"/><circle cx="208.6" cy="129.9" r="2" fill="#CCBB44"/><circle cx="218.9" cy="127.7" r="2" fill="#CCBB44"/><circle cx="229.2" cy="131.5" r="2" fill="#CCBB44"/><circle cx="239.6" cy="126.1" r="2" fill="#CCBB44"/><circle cx="249.9" cy="132.8" r="2" fill="#CCBB44"/><circle cx="260.2" cy="128.0" r="2" fill="#CCBB44"/><circle cx="270.5" cy="210.8" r="2" fill="#CCBB44"/><circle cx="280.9" cy="215.9" r="2" fill="#CCBB44"/><circle cx="291.2" cy="213.6" r="2" fill="#CCBB44"/><circle cx="301.5" cy="218.6" r="2" fill="#CCBB44"/><circle cx="311.8" cy="213.8" r="2" fill="#CCBB44"/><circle cx="322.2" cy="212.0" r="2" fill="#CCBB44"/><circle cx="332.5" cy="223.6" r="2" fill="#CCBB44"/><circle cx="342.8" cy="217.2" r="2" fill="#CCBB44"/><circle cx="353.1" cy="215.2" r="2" fill="#CCBB44"/><circle cx="363.5" cy="219.8" r="2" fill="#CCBB44"/><circle cx="373.8" cy="213.5" r="2" fill="#CCBB44"/><circle cx="384.1" cy="216.3" r="2" fill="#CCBB44"/><circle cx="394.4" cy="221.4" r="2" fill="#CCBB44"/><circle cx="404.8" cy="217.0" r="2" fill="#CCBB44"/><circle cx="415.1" cy="219.3" r="2" fill="#CCBB44"/><circle cx="425.4" cy="216.3" r="2" fill="#CCBB44"/><circle cx="435.8" cy="215.8" r="2" fill="#CCBB44"/><circle cx="446.1" cy="219.8" r="2" fill="#CCBB44"/><circle cx="456.4" cy="215.9" r="2" fill="#CCBB44"/><circle cx="466.7" cy="219.0" r="2" fill="#CCBB44"/><circle cx="477.1" cy="217.3" r="2" fill="#CCBB44"/><circle cx="487.4" cy="214.0" r="2" fill="#CCBB44"/><circle cx="497.7" cy="217.4" r="2" fill="#CCBB44"/><circle cx="508.0" cy="214.0" r="2" fill="#CCBB44"/><circle cx="518.4" cy="175.2" r="2" fill="#CCBB44"/><circle cx="528.7" cy="178.9" r="2" fill="#CCBB44"/><circle cx="539.0" cy="134.0" r="2" fill="#CCBB44"/><circle cx="549.3" cy="133.9" r="2" fill="#CCBB44"/><circle cx="559.7" cy="143.5" r="2" fill="#CCBB44"/><circle cx="570.0" cy="134.5" r="2" fill="#CCBB44"/><rect x="580" y="79" width="10" height="10" fill="#CCBB44"/><text x="594" y="88" font-size="10" fill="#444">chain-1000</text><path d="M64.0,70.5 L74.3,91.0 L84.7,83.5 L95.0,81.0 L105.3,82.3 L115.6,70.6 L126.0,78.3 L136.3,81.7 L146.6,88.0 L156.9,82.0 L167.3,76.7 L177.6,86.1 L187.9,85.2 L198.2,75.5 L208.6,82.2 L218.9,82.6 L229.2,78.9 L239.6,71.1 L249.9,73.7 L260.2,88.5 L270.5,178.0 L280.9,178.7 L291.2,178.8 L301.5,182.8 L311.8,185.3 L322.2,191.6 L332.5,183.4 L342.8,177.8 L353.1,187.4 L363.5,181.3 L373.8,183.5 L384.1,182.9 L394.4,187.3 L404.8,183.1 L415.1,181.1 L425.4,184.2 L435.8,180.5 L446.1,181.9 L456.4,183.8 L466.7,181.7 L477.1,182.4 L487.4,178.5 L497.7,182.7 L508.0,184.8 L518.4,131.9 L528.7,133.0 L539.0,80.1 L549.3,83.3 L559.7,91.1 L570.0,90.8" fill="none" stroke="#66CCEE" stroke-width="1.6"/><circle cx="64.0" cy="70.5" r="2" fill="#66CCEE"/><circle cx="74.3" cy="91.0" r="2" fill="#66CCEE"/><circle cx="84.7" cy="83.5" r="2" fill="#66CCEE"/><circle cx="95.0" cy="81.0" r="2" fill="#66CCEE"/><circle cx="105.3" cy="82.3" r="2" fill="#66CCEE"/><circle cx="115.6" cy="70.6" r="2" fill="#66CCEE"/><circle cx="126.0" cy="78.3" r="2" fill="#66CCEE"/><circle cx="136.3" cy="81.7" r="2" fill="#66CCEE"/><circle cx="146.6" cy="88.0" r="2" fill="#66CCEE"/><circle cx="156.9" cy="82.0" r="2" fill="#66CCEE"/><circle cx="167.3" cy="76.7" r="2" fill="#66CCEE"/><circle cx="177.6" cy="86.1" r="2" fill="#66CCEE"/><circle cx="187.9" cy="85.2" r="2" fill="#66CCEE"/><circle cx="198.2" cy="75.5" r="2" fill="#66CCEE"/><circle cx="208.6" cy="82.2" r="2" fill="#66CCEE"/><circle cx="218.9" cy="82.6" r="2" fill="#66CCEE"/><circle cx="229.2" cy="78.9" r="2" fill="#66CCEE"/><circle cx="239.6" cy="71.1" r="2" fill="#66CCEE"/><circle cx="249.9" cy="73.7" r="2" fill="#66CCEE"/><circle cx="260.2" cy="88.5" r="2" fill="#66CCEE"/><circle cx="270.5" cy="178.0" r="2" fill="#66CCEE"/><circle cx="280.9" cy="178.7" r="2" fill="#66CCEE"/><circle cx="291.2" cy="178.8" r="2" fill="#66CCEE"/><circle cx="301.5" cy="182.8" r="2" fill="#66CCEE"/><circle cx="311.8" cy="185.3" r="2" fill="#66CCEE"/><circle cx="322.2" cy="191.6" r="2" fill="#66CCEE"/><circle cx="332.5" cy="183.4" r="2" fill="#66CCEE"/><circle cx="342.8" cy="177.8" r="2" fill="#66CCEE"/><circle cx="353.1" cy="187.4" r="2" fill="#66CCEE"/><circle cx="363.5" cy="181.3" r="2" fill="#66CCEE"/><circle cx="373.8" cy="183.5" r="2" fill="#66CCEE"/><circle cx="384.1" cy="182.9" r="2" fill="#66CCEE"/><circle cx="394.4" cy="187.3" r="2" fill="#66CCEE"/><circle cx="404.8" cy="183.1" r="2" fill="#66CCEE"/><circle cx="415.1" cy="181.1" r="2" fill="#66CCEE"/><circle cx="425.4" cy="184.2" r="2" fill="#66CCEE"/><circle cx="435.8" cy="180.5" r="2" fill="#66CCEE"/><circle cx="446.1" cy="181.9" r="2" fill="#66CCEE"/><circle cx="456.4" cy="183.8" r="2" fill="#66CCEE"/><circle cx="466.7" cy="181.7" r="2" fill="#66CCEE"/><circle cx="477.1" cy="182.4" r="2" fill="#66CCEE"/><circle cx="487.4" cy="178.5" r="2" fill="#66CCEE"/><circle cx="497.7" cy="182.7" r="2" fill="#66CCEE"/><circle cx="508.0" cy="184.8" r="2" fill="#66CCEE"/><circle cx="518.4" cy="131.9" r="2" fill="#66CCEE"/><circle cx="528.7" cy="133.0" r="2" fill="#66CCEE"/><circle cx="539.0" cy="80.1" r="2" fill="#66CCEE"/><circle cx="549.3" cy="83.3" r="2" fill="#66CCEE"/><circle cx="559.7" cy="91.1" r="2" fill="#66CCEE"/><circle cx="570.0" cy="90.8" r="2" fill="#66CCEE"/><rect x="580" y="94" width="10" height="10" fill="#66CCEE"/><text x="594" y="103" font-size="10" fill="#444">dense-10</text><path d="M64.0,118.6 L74.3,118.3 L84.7,123.7 L95.0,128.4 L105.3,120.2 L115.6,126.6 L126.0,118.1 L136.3,121.8 L146.6,119.1 L156.9,124.3 L167.3,124.2 L177.6,135.0 L187.9,139.2 L198.2,131.3 L208.6,125.7 L218.9,134.8 L229.2,121.8 L239.6,117.4 L249.9,127.7 L260.2,125.1 L270.5,212.3 L280.9,210.9 L291.2,204.9 L301.5,214.0 L311.8,212.0 L322.2,214.7 L332.5,212.5 L342.8,214.0 L353.1,222.0 L363.5,221.7 L373.8,210.0 L384.1,217.1 L394.4,211.8 L404.8,216.1 L415.1,211.0 L425.4,221.5 L435.8,225.3 L446.1,217.8 L456.4,211.5 L466.7,228.0 L477.1,207.1 L487.4,213.7 L497.7,214.1 L508.0,217.3 L518.4,174.6 L528.7,176.6 L539.0,124.3 L549.3,123.5 L559.7,129.7 L570.0,117.3" fill="none" stroke="#AA3377" stroke-width="1.6"/><circle cx="64.0" cy="118.6" r="2" fill="#AA3377"/><circle cx="74.3" cy="118.3" r="2" fill="#AA3377"/><circle cx="84.7" cy="123.7" r="2" fill="#AA3377"/><circle cx="95.0" cy="128.4" r="2" fill="#AA3377"/><circle cx="105.3" cy="120.2" r="2" fill="#AA3377"/><circle cx="115.6" cy="126.6" r="2" fill="#AA3377"/><circle cx="126.0" cy="118.1" r="2" fill="#AA3377"/><circle cx="136.3" cy="121.8" r="2" fill="#AA3377"/><circle cx="146.6" cy="119.1" r="2" fill="#AA3377"/><circle cx="156.9" cy="124.3" r="2" fill="#AA3377"/><circle cx="167.3" cy="124.2" r="2" fill="#AA3377"/><circle cx="177.6" cy="135.0" r="2" fill="#AA3377"/><circle cx="187.9" cy="139.2" r="2" fill="#AA3377"/><circle cx="198.2" cy="131.3" r="2" fill="#AA3377"/><circle cx="208.6" cy="125.7" r="2" fill="#AA3377"/><circle cx="218.9" cy="134.8" r="2" fill="#AA3377"/><circle cx="229.2" cy="121.8" r="2" fill="#AA3377"/><circle cx="239.6" cy="117.4" r="2" fill="#AA3377"/><circle cx="249.9" cy="127.7" r="2" fill="#AA3377"/><circle cx="260.2" cy="125.1" r="2" fill="#AA3377"/><circle cx="270.5" cy="212.3" r="2" fill="#AA3377"/><circle cx="280.9" cy="210.9" r="2" fill="#AA3377"/><circle cx="291.2" cy="204.9" r="2" fill="#AA3377"/><circle cx="301.5" cy="214.0" r="2" fill="#AA3377"/><circle cx="311.8" cy="212.0" r="2" fill="#AA3377"/><circle cx="322.2" cy="214.7" r="2" fill="#AA3377"/><circle cx="332.5" cy="212.5" r="2" fill="#AA3377"/><circle cx="342.8" cy="214.0" r="2" fill="#AA3377"/><circle cx="353.1" cy="222.0" r="2" fill="#AA3377"/><circle cx="363.5" cy="221.7" r="2" fill="#AA3377"/><circle cx="373.8" cy="210.0" r="2" fill="#AA3377"/><circle cx="384.1" cy="217.1" r="2" fill="#AA3377"/><circle cx="394.4" cy="211.8" r="2" fill="#AA3377"/><circle cx="404.8" cy="216.1" r="2" fill="#AA3377"/><circle cx="415.1" cy="211.0" r="2" fill="#AA3377"/><circle cx="425.4" cy="221.5" r="2" fill="#AA3377"/><circle cx="435.8" cy="225.3" r="2" fill="#AA3377"/><circle cx="446.1" cy="217.8" r="2" fill="#AA3377"/><circle cx="456.4" cy="211.5" r="2" fill="#AA3377"/><circle cx="466.7" cy="228.0" r="2" fill="#AA3377"/><circle cx="477.1" cy="207.1" r="2" fill="#AA3377"/><circle cx="487.4" cy="213.7" r="2" fill="#AA3377"/><circle cx="497.7" cy="214.1" r="2" fill="#AA3377"/><circle cx="508.0" cy="217.3" r="2" fill="#AA3377"/><circle cx="518.4" cy="174.6" r="2" fill="#AA3377"/><circle cx="528.7" cy="176.6" r="2" fill="#AA3377"/><circle cx="539.0" cy="124.3" r="2" fill="#AA3377"/><circle cx="549.3" cy="123.5" r="2" fill="#AA3377"/><circle cx="559.7" cy="129.7" r="2" fill="#AA3377"/><circle cx="570.0" cy="117.3" r="2" fill="#AA3377"/><rect x="580" y="109" width="10" height="10" fill="#AA3377"/><text x="594" y="118" font-size="10" fill="#444">dense-50</text><path d="M64.0,179.6 L74.3,180.8 L84.7,180.2 L95.0,178.2 L105.3,177.5 L115.6,180.2 L126.0,184.4 L136.3,181.0 L146.6,178.7 L156.9,183.1 L167.3,179.5 L177.6,182.0 L187.9,180.0 L198.2,180.3 L208.6,177.1 L218.9,181.7 L229.2,176.2 L239.6,180.0 L249.9,177.1 L260.2,181.5 L270.5,238.8 L280.9,238.0 L291.2,240.3 L301.5,236.8 L311.8,235.8 L322.2,233.2 L332.5,241.0 L342.8,237.7 L353.1,234.9 L363.5,238.9 L373.8,236.8 L384.1,233.1 L394.4,237.3 L404.8,237.3 L415.1,238.3 L425.4,245.0 L435.8,241.0 L446.1,241.8 L456.4,240.2 L466.7,244.6 L477.1,236.5 L487.4,237.2 L497.7,240.7 L508.0,240.1 L518.4,215.4 L528.7,217.4 L539.0,181.7 L549.3,183.9 L559.7,178.0 L570.0,179.7" fill="none" stroke="#BBBBBB" stroke-width="1.6"/><circle cx="64.0" cy="179.6" r="2" fill="#BBBBBB"/><circle cx="74.3" cy="180.8" r="2" fill="#BBBBBB"/><circle cx="84.7" cy="180.2" r="2" fill="#BBBBBB"/><circle cx="95.0" cy="178.2" r="2" fill="#BBBBBB"/><circle cx="105.3" cy="177.5" r="2" fill="#BBBBBB"/><circle cx="115.6" cy="180.2" r="2" fill="#BBBBBB"/><circle cx="126.0" cy="184.4" r="2" fill="#BBBBBB"/><circle cx="136.3" cy="181.0" r="2" fill="#BBBBBB"/><circle cx="146.6" cy="178.7" r="2" fill="#BBBBBB"/><circle cx="156.9" cy="183.1" r="2" fill="#BBBBBB"/><circle cx="167.3" cy="179.5" r="2" fill="#BBBBBB"/><circle cx="177.6" cy="182.0" r="2" fill="#BBBBBB"/><circle cx="187.9" cy="180.0" r="2" fill="#BBBBBB"/><circle cx="198.2" cy="180.3" r="2" fill="#BBBBBB"/><circle cx="208.6" cy="177.1" r="2" fill="#BBBBBB"/><circle cx="218.9" cy="181.7" r="2" fill="#BBBBBB"/><circle cx="229.2" cy="176.2" r="2" fill="#BBBBBB"/><circle cx="239.6" cy="180.0" r="2" fill="#BBBBBB"/><circle cx="249.9" cy="177.1" r="2" fill="#BBBBBB"/><circle cx="260.2" cy="181.5" r="2" fill="#BBBBBB"/><circle cx="270.5" cy="238.8" r="2" fill="#BBBBBB"/><circle cx="280.9" cy="238.0" r="2" fill="#BBBBBB"/><circle cx="291.2" cy="240.3" r="2" fill="#BBBBBB"/><circle cx="301.5" cy="236.8" r="2" fill="#BBBBBB"/><circle cx="311.8" cy="235.8" r="2" fill="#BBBBBB"/><circle cx="322.2" cy="233.2" r="2" fill="#BBBBBB"/><circle cx="332.5" cy="241.0" r="2" fill="#BBBBBB"/><circle cx="342.8" cy="237.7" r="2" fill="#BBBBBB"/><circle cx="353.1" cy="234.9" r="2" fill="#BBBBBB"/><circle cx="363.5" cy="238.9" r="2" fill="#BBBBBB"/><circle cx="373.8" cy="236.8" r="2" fill="#BBBBBB"/><circle cx="384.1" cy="233.1" r="2" fill="#BBBBBB"/><circle cx="394.4" cy="237.3" r="2" fill="#BBBBBB"/><circle cx="404.8" cy="237.3" r="2" fill="#BBBBBB"/><circle cx="415.1" cy="238.3" r="2" fill="#BBBBBB"/><circle cx="425.4" cy="245.0" r="2" fill="#BBBBBB"/><circle cx="435.8" cy="241.0" r="2" fill="#BBBBBB"/><circle cx="446.1" cy="241.8" r="2" fill="#BBBBBB"/><circle cx="456.4" cy="240.2" r="2" fill="#BBBBBB"/><circle cx="466.7" cy="244.6" r="2" fill="#BBBBBB"/><circle cx="477.1" cy="236.5" r="2" fill="#BBBBBB"/><circle cx="487.4" cy="237.2" r="2" fill="#BBBBBB"/><circle cx="497.7" cy="240.7" r="2" fill="#BBBBBB"/><circle cx="508.0" cy="240.1" r="2" fill="#BBBBBB"/><circle cx="518.4" cy="215.4" r="2" fill="#BBBBBB"/><circle cx="528.7" cy="217.4" r="2" fill="#BBBBBB"/><circle cx="539.0" cy="181.7" r="2" fill="#BBBBBB"/><circle cx="549.3" cy="183.9" r="2" fill="#BBBBBB"/><circle cx="559.7" cy="178.0" r="2" fill="#BBBBBB"/><circle cx="570.0" cy="179.7" r="2" fill="#BBBBBB"/><rect x="580" y="124" width="10" height="10" fill="#BBBBBB"/><text x="594" y="133" font-size="10" fill="#444">dense-200</text><path d="M64.0,71.3 L74.3,69.9 L84.7,68.0 L95.0,65.3 L105.3,64.0 L115.6,61.4 L126.0,68.1 L136.3,60.8 L146.6,68.1 L156.9,59.2 L167.3,62.8 L177.6,58.5 L187.9,58.2 L198.2,65.7 L208.6,60.0 L218.9,58.2 L229.2,61.9 L239.6,66.8 L249.9,67.8 L260.2,71.8 L270.5,180.5 L280.9,180.2 L291.2,182.3 L301.5,180.8 L311.8,183.0 L322.2,181.8 L332.5,181.2 L342.8,180.5 L353.1,180.4 L363.5,179.9 L373.8,184.9 L384.1,181.3 L394.4,181.8 L404.8,179.9 L415.1,184.4 L425.4,185.6 L435.8,179.1 L446.1,183.8 L456.4,193.3 L466.7,201.8 L477.1,178.8 L487.4,183.8 L497.7,180.0 L508.0,178.5 L518.4,136.8 L528.7,136.5 L539.0,74.8 L549.3,72.6 L559.7,77.9 L570.0,71.2" fill="none" stroke="#222255" stroke-width="1.6"/><circle cx="64.0" cy="71.3" r="2" fill="#222255"/><circle cx="74.3" cy="69.9" r="2" fill="#222255"/><circle cx="84.7" cy="68.0" r="2" fill="#222255"/><circle cx="95.0" cy="65.3" r="2" fill="#222255"/><circle cx="105.3" cy="64.0" r="2" fill="#222255"/><circle cx="115.6" cy="61.4" r="2" fill="#222255"/><circle cx="126.0" cy="68.1" r="2" fill="#222255"/><circle cx="136.3" cy="60.8" r="2" fill="#222255"/><circle cx="146.6" cy="68.1" r="2" fill="#222255"/><circle cx="156.9" cy="59.2" r="2" fill="#222255"/><circle cx="167.3" cy="62.8" r="2" fill="#222255"/><circle cx="177.6" cy="58.5" r="2" fill="#222255"/><circle cx="187.9" cy="58.2" r="2" fill="#222255"/><circle cx="198.2" cy="65.7" r="2" fill="#222255"/><circle cx="208.6" cy="60.0" r="2" fill="#222255"/><circle cx="218.9" cy="58.2" r="2" fill="#222255"/><circle cx="229.2" cy="61.9" r="2" fill="#222255"/><circle cx="239.6" cy="66.8" r="2" fill="#222255"/><circle cx="249.9" cy="67.8" r="2" fill="#222255"/><circle cx="260.2" cy="71.8" r="2" fill="#222255"/><circle cx="270.5" cy="180.5" r="2" fill="#222255"/><circle cx="280.9" cy="180.2" r="2" fill="#222255"/><circle cx="291.2" cy="182.3" r="2" fill="#222255"/><circle cx="301.5" cy="180.8" r="2" fill="#222255"/><circle cx="311.8" cy="183.0" r="2" fill="#222255"/><circle cx="322.2" cy="181.8" r="2" fill="#222255"/><circle cx="332.5" cy="181.2" r="2" fill="#222255"/><circle cx="342.8" cy="180.5" r="2" fill="#222255"/><circle cx="353.1" cy="180.4" r="2" fill="#222255"/><circle cx="363.5" cy="179.9" r="2" fill="#222255"/><circle cx="373.8" cy="184.9" r="2" fill="#222255"/><circle cx="384.1" cy="181.3" r="2" fill="#222255"/><circle cx="394.4" cy="181.8" r="2" fill="#222255"/><circle cx="404.8" cy="179.9" r="2" fill="#222255"/><circle cx="415.1" cy="184.4" r="2" fill="#222255"/><circle cx="425.4" cy="185.6" r="2" fill="#222255"/><circle cx="435.8" cy="179.1" r="2" fill="#222255"/><circle cx="446.1" cy="183.8" r="2" fill="#222255"/><circle cx="456.4" cy="193.3" r="2" fill="#222255"/><circle cx="466.7" cy="201.8" r="2" fill="#222255"/><circle cx="477.1" cy="178.8" r="2" fill="#222255"/><circle cx="487.4" cy="183.8" r="2" fill="#222255"/><circle cx="497.7" cy="180.0" r="2" fill="#222255"/><circle cx="508.0" cy="178.5" r="2" fill="#222255"/><circle cx="518.4" cy="136.8" r="2" fill="#222255"/><circle cx="528.7" cy="136.5" r="2" fill="#222255"/><circle cx="539.0" cy="74.8" r="2" fill="#222255"/><circle cx="549.3" cy="72.6" r="2" fill="#222255"/><circle cx="559.7" cy="77.9" r="2" fill="#222255"/><circle cx="570.0" cy="71.2" r="2" fill="#222255"/><rect x="580" y="139" width="10" height="10" fill="#222255"/><text x="594" y="148" font-size="10" fill="#444">hub-50</text><path d="M64.0,67.6 L74.3,66.9 L84.7,68.6 L95.0,64.2 L105.3,66.9 L115.6,69.7 L126.0,70.3 L136.3,65.1 L146.6,71.4 L156.9,66.1 L167.3,62.7 L177.6,63.9 L187.9,65.3 L198.2,67.6 L208.6,68.8 L218.9,65.4 L229.2,68.6 L239.6,66.4 L249.9,71.9 L260.2,70.7 L270.5,189.7 L280.9,199.2 L291.2,193.6 L301.5,191.2 L311.8,191.1 L322.2,188.9 L332.5,191.4 L342.8,188.4 L353.1,188.4 L363.5,194.5 L373.8,189.6 L384.1,188.1 L394.4,188.9 L404.8,190.0 L415.1,189.5 L425.4,197.7 L435.8,188.4 L446.1,196.2 L456.4,196.8 L466.7,203.9 L477.1,187.9 L487.4,202.6 L497.7,190.5 L508.0,186.3 L518.4,142.7 L528.7,146.0 L539.0,76.0 L549.3,75.4 L559.7,81.5 L570.0,72.2" fill="none" stroke="#225555" stroke-width="1.6"/><circle cx="64.0" cy="67.6" r="2" fill="#225555"/><circle cx="74.3" cy="66.9" r="2" fill="#225555"/><circle cx="84.7" cy="68.6" r="2" fill="#225555"/><circle cx="95.0" cy="64.2" r="2" fill="#225555"/><circle cx="105.3" cy="66.9" r="2" fill="#225555"/><circle cx="115.6" cy="69.7" r="2" fill="#225555"/><circle cx="126.0" cy="70.3" r="2" fill="#225555"/><circle cx="136.3" cy="65.1" r="2" fill="#225555"/><circle cx="146.6" cy="71.4" r="2" fill="#225555"/><circle cx="156.9" cy="66.1" r="2" fill="#225555"/><circle cx="167.3" cy="62.7" r="2" fill="#225555"/><circle cx="177.6" cy="63.9" r="2" fill="#225555"/><circle cx="187.9" cy="65.3" r="2" fill="#225555"/><circle cx="198.2" cy="67.6" r="2" fill="#225555"/><circle cx="208.6" cy="68.8" r="2" fill="#225555"/><circle cx="218.9" cy="65.4" r="2" fill="#225555"/><circle cx="229.2" cy="68.6" r="2" fill="#225555"/><circle cx="239.6" cy="66.4" r="2" fill="#225555"/><circle cx="249.9" cy="71.9" r="2" fill="#225555"/><circle cx="260.2" cy="70.7" r="2" fill="#225555"/><circle cx="270.5" cy="189.7" r="2" fill="#225555"/><circle cx="280.9" cy="199.2" r="2" fill="#225555"/><circle cx="291.2" cy="193.6" r="2" fill="#225555"/><circle cx="301.5" cy="191.2" r="2" fill="#225555"/><circle cx="311.8" cy="191.1" r="2" fill="#225555"/><circle cx="322.2" cy="188.9" r="2" fill="#225555"/><circle cx="332.5" cy="191.4" r="2" fill="#225555"/><circle cx="342.8" cy="188.4" r="2" fill="#225555"/><circle cx="353.1" cy="188.4" r="2" fill="#225555"/><circle cx="363.5" cy="194.5" r="2" fill="#225555"/><circle cx="373.8" cy="189.6" r="2" fill="#225555"/><circle cx="384.1" cy="188.1" r="2" fill="#225555"/><circle cx="394.4" cy="188.9" r="2" fill="#225555"/><circle cx="404.8" cy="190.0" r="2" fill="#225555"/><circle cx="415.1" cy="189.5" r="2" fill="#225555"/><circle cx="425.4" cy="197.7" r="2" fill="#225555"/><circle cx="435.8" cy="188.4" r="2" fill="#225555"/><circle cx="446.1" cy="196.2" r="2" fill="#225555"/><circle cx="456.4" cy="196.8" r="2" fill="#225555"/><circle cx="466.7" cy="203.9" r="2" fill="#225555"/><circle cx="477.1" cy="187.9" r="2" fill="#225555"/><circle cx="487.4" cy="202.6" r="2" fill="#225555"/><circle cx="497.7" cy="190.5" r="2" fill="#225555"/><circle cx="508.0" cy="186.3" r="2" fill="#225555"/><circle cx="518.4" cy="142.7" r="2" fill="#225555"/><circle cx="528.7" cy="146.0" r="2" fill="#225555"/><circle cx="539.0" cy="76.0" r="2" fill="#225555"/><circle cx="549.3" cy="75.4" r="2" fill="#225555"/><circle cx="559.7" cy="81.5" r="2" fill="#225555"/><circle cx="570.0" cy="72.2" r="2" fill="#225555"/><rect x="580" y="154" width="10" height="10" fill="#225555"/><text x="594" y="163" font-size="10" fill="#444">hub-200</text><path d="M64.0,262.0 L74.3,259.0 L84.7,261.7 L95.0,262.6 L105.3,261.9 L115.6,262.5 L126.0,264.6 L136.3,261.0 L146.6,261.9 L156.9,263.4 L167.3,262.1 L177.6,261.1 L187.9,260.6 L198.2,262.4 L208.6,259.1 L218.9,258.0 L229.2,263.8 L239.6,257.7 L249.9,262.5 L260.2,260.7 L270.5,293.7 L280.9,294.3 L291.2,292.9 L301.5,292.9 L311.8,294.9 L322.2,294.5 L332.5,296.4 L342.8,293.7 L353.1,296.6 L363.5,292.4 L373.8,294.3 L384.1,294.5 L394.4,294.9 L404.8,297.3 L415.1,299.8 L425.4,298.1 L435.8,295.7 L446.1,298.3 L456.4,297.8 L466.7,299.7 L477.1,298.9 L487.4,299.2 L497.7,297.7 L508.0,298.4 L518.4,286.8 L528.7,286.2 L539.0,261.4 L549.3,262.1 L559.7,261.9 L570.0,259.4" fill="none" stroke="#552222" stroke-width="1.6"/><circle cx="64.0" cy="262.0" r="2" fill="#552222"/><circle cx="74.3" cy="259.0" r="2" fill="#552222"/><circle cx="84.7" cy="261.7" r="2" fill="#552222"/><circle cx="95.0" cy="262.6" r="2" fill="#552222"/><circle cx="105.3" cy="261.9" r="2" fill="#552222"/><circle cx="115.6" cy="262.5" r="2" fill="#552222"/><circle cx="126.0" cy="264.6" r="2" fill="#552222"/><circle cx="136.3" cy="261.0" r="2" fill="#552222"/><circle cx="146.6" cy="261.9" r="2" fill="#552222"/><circle cx="156.9" cy="263.4" r="2" fill="#552222"/><circle cx="167.3" cy="262.1" r="2" fill="#552222"/><circle cx="177.6" cy="261.1" r="2" fill="#552222"/><circle cx="187.9" cy="260.6" r="2" fill="#552222"/><circle cx="198.2" cy="262.4" r="2" fill="#552222"/><circle cx="208.6" cy="259.1" r="2" fill="#552222"/><circle cx="218.9" cy="258.0" r="2" fill="#552222"/><circle cx="229.2" cy="263.8" r="2" fill="#552222"/><circle cx="239.6" cy="257.7" r="2" fill="#552222"/><circle cx="249.9" cy="262.5" r="2" fill="#552222"/><circle cx="260.2" cy="260.7" r="2" fill="#552222"/><circle cx="270.5" cy="293.7" r="2" fill="#552222"/><circle cx="280.9" cy="294.3" r="2" fill="#552222"/><circle cx="291.2" cy="292.9" r="2" fill="#552222"/><circle cx="301.5" cy="292.9" r="2" fill="#552222"/><circle cx="311.8" cy="294.9" r="2" fill="#552222"/><circle cx="322.2" cy="294.5" r="2" fill="#552222"/><circle cx="332.5" cy="296.4" r="2" fill="#552222"/><circle cx="342.8" cy="293.7" r="2" fill="#552222"/><circle cx="353.1" cy="296.6" r="2" fill="#552222"/><circle cx="363.5" cy="292.4" r="2" fill="#552222"/><circle cx="373.8" cy="294.3" r="2" fill="#552222"/><circle cx="384.1" cy="294.5" r="2" fill="#552222"/><circle cx="394.4" cy="294.9" r="2" fill="#552222"/><circle cx="404.8" cy="297.3" r="2" fill="#552222"/><circle cx="415.1" cy="299.8" r="2" fill="#552222"/><circle cx="425.4" cy="298.1" r="2" fill="#552222"/><circle cx="435.8" cy="295.7" r="2" fill="#552222"/><circle cx="446.1" cy="298.3" r="2" fill="#552222"/><circle cx="456.4" cy="297.8" r="2" fill="#552222"/><circle cx="466.7" cy="299.7" r="2" fill="#552222"/><circle cx="477.1" cy="298.9" r="2" fill="#552222"/><circle cx="487.4" cy="299.2" r="2" fill="#552222"/><circle cx="497.7" cy="297.7" r="2" fill="#552222"/><circle cx="508.0" cy="298.4" r="2" fill="#552222"/><circle cx="518.4" cy="286.8" r="2" fill="#552222"/><circle cx="528.7" cy="286.2" r="2" fill="#552222"/><circle cx="539.0" cy="261.4" r="2" fill="#552222"/><circle cx="549.3" cy="262.1" r="2" fill="#552222"/><circle cx="559.7" cy="261.9" r="2" fill="#552222"/><circle cx="570.0" cy="259.4" r="2" fill="#552222"/><rect x="580" y="169" width="10" height="10" fill="#552222"/><text x="594" y="178" font-size="10" fill="#444">hooked-200</text></svg>