<svg width="960" height="372" xmlns="http://www.w3.org/2000/svg"><rect width="960" height="372" fill="#ffffff"/><text x="64" y="20" font-size="15" font-weight="bold" fill="#333">construct() — ops/sec (log scale) by PR / release, c7g.medium</text><line x1="64" y1="297.6490137843651" x2="810" y2="297.6490137843651" stroke="#eee"/><text x="58" y="301.6490137843651" font-size="10" text-anchor="end" fill="#888">1e0</text><line x1="64" y1="231.4305244608849" x2="810" y2="231.4305244608849" stroke="#eee"/><text x="58" y="235.4305244608849" font-size="10" text-anchor="end" fill="#888">1e1</text><line x1="64" y1="165.21203513740477" x2="810" y2="165.21203513740477" stroke="#eee"/><text x="58" y="169.21203513740477" font-size="10" text-anchor="end" fill="#888">1e2</text><line x1="64" y1="98.99354581392458" x2="810" y2="98.99354581392458" stroke="#eee"/><text x="58" y="102.99354581392458" font-size="10" text-anchor="end" fill="#888">1e3</text><text x="64.0" y="340" font-size="9" text-anchor="middle" fill="#888">598</text><text x="115.4" y="340" font-size="9" text-anchor="middle" fill="#888">600</text><text x="166.9" y="340" font-size="9" text-anchor="middle" fill="#888">602</text><text x="218.3" y="340" font-size="9" text-anchor="middle" fill="#888">604</text><text x="269.8" y="340" font-size="9" text-anchor="middle" fill="#888">611</text><text x="321.2" y="340" font-size="9" text-anchor="middle" fill="#888">616</text><text x="372.7" y="340" font-size="9" text-anchor="middle" fill="#888">618</text><text x="424.1" y="340" font-size="9" text-anchor="middle" fill="#888">634</text><text x="475.6" y="340" font-size="9" text-anchor="middle" fill="#888">649</text><text x="527.0" y="340" font-size="9" text-anchor="middle" fill="#888">674</text><text x="578.5" y="340" font-size="9" text-anchor="middle" fill="#888">679</text><text x="629.9" y="340" font-size="9" text-anchor="middle" fill="#888">681</text><text x="681.4" y="340" font-size="9" text-anchor="end" fill="#a40" transform="rotate(-35 681.4 340)">v5.143.30</text><text x="732.8" y="340" font-size="9" text-anchor="end" fill="#a40" transform="rotate(-35 732.8 340)">v5.143.33</text><text x="784.3" y="340" font-size="9" text-anchor="end" fill="#a40" transform="rotate(-35 784.3 340)">v5.143.35</text><path d="M64.0,44.7 L89.7,42.8 L115.4,43.2 L141.2,42.9 L166.9,44.0 L192.6,42.5 L218.3,43.0 L244.1,44.1 L269.8,44.2 L295.5,44.0 L321.2,41.8 L347.0,42.5 L372.7,42.4 L398.4,44.1 L424.1,43.2 L449.9,38.3 L475.6,36.9 L501.3,36.8 L527.0,36.8 L552.8,36.1 L578.5,36.6 L604.2,36.1 L629.9,37.2 L655.7,75.5 L681.4,36.3 L707.1,35.7 L732.8,36.4 L758.6,34.5 L784.3,34.0 L810.0,36.9" fill="none" stroke="#4477AA" stroke-width="1.6"/><circle cx="64.0" cy="44.7" r="2" fill="#4477AA"/><circle cx="89.7" cy="42.8" r="2" fill="#4477AA"/><circle cx="115.4" cy="43.2" r="2" fill="#4477AA"/><circle cx="141.2" cy="42.9" r="2" fill="#4477AA"/><circle cx="166.9" cy="44.0" r="2" fill="#4477AA"/><circle cx="192.6" cy="42.5" r="2" fill="#4477AA"/><circle cx="218.3" cy="43.0" r="2" fill="#4477AA"/><circle cx="244.1" cy="44.1" r="2" fill="#4477AA"/><circle cx="269.8" cy="44.2" r="2" fill="#4477AA"/><circle cx="295.5" cy="44.0" r="2" fill="#4477AA"/><circle cx="321.2" cy="41.8" r="2" fill="#4477AA"/><circle cx="347.0" cy="42.5" r="2" fill="#4477AA"/><circle cx="372.7" cy="42.4" r="2" fill="#4477AA"/><circle cx="398.4" cy="44.1" r="2" fill="#4477AA"/><circle cx="424.1" cy="43.2" r="2" fill="#4477AA"/><circle cx="449.9" cy="38.3" r="2" fill="#4477AA"/><circle cx="475.6" cy="36.9" r="2" fill="#4477AA"/><circle cx="501.3" cy="36.8" r="2" fill="#4477AA"/><circle cx="527.0" cy="36.8" r="2" fill="#4477AA"/><circle cx="552.8" cy="36.1" r="2" fill="#4477AA"/><circle cx="578.5" cy="36.6" r="2" fill="#4477AA"/><circle cx="604.2" cy="36.1" r="2" fill="#4477AA"/><circle cx="629.9" cy="37.2" r="2" fill="#4477AA"/><circle cx="655.7" cy="75.5" r="2" fill="#4477AA"/><circle cx="681.4" cy="36.3" r="2" fill="#4477AA"/><circle cx="707.1" cy="35.7" r="2" fill="#4477AA"/><circle cx="732.8" cy="36.4" r="2" fill="#4477AA"/><circle cx="758.6" cy="34.5" r="2" fill="#4477AA"/><circle cx="784.3" cy="34.0" r="2" fill="#4477AA"/><circle cx="810.0" cy="36.9" r="2" fill="#4477AA"/><rect x="820" y="34" width="10" height="10" fill="#4477AA"/><text x="834" y="43" font-size="10" fill="#444">chain-10</text><path d="M64.0,75.2 L89.7,69.3 L115.4,72.6 L141.2,71.1 L166.9,71.9 L192.6,68.5 L218.3,75.3 L244.1,72.7 L269.8,69.6 L295.5,70.3 L321.2,70.7 L347.0,71.8 L372.7,71.9 L398.4,75.0 L424.1,73.0 L449.9,71.8 L475.6,72.7 L501.3,73.5 L527.0,74.5 L552.8,69.2 L578.5,71.8 L604.2,71.6 L629.9,71.8 L655.7,114.5 L681.4,66.3 L707.1,66.4 L732.8,68.2 L758.6,69.4 L784.3,67.9 L810.0,67.4" fill="none" stroke="#EE6677" stroke-width="1.6"/><circle cx="64.0" cy="75.2" r="2" fill="#EE6677"/><circle cx="89.7" cy="69.3" r="2" fill="#EE6677"/><circle cx="115.4" cy="72.6" r="2" fill="#EE6677"/><circle cx="141.2" cy="71.1" r="2" fill="#EE6677"/><circle cx="166.9" cy="71.9" r="2" fill="#EE6677"/><circle cx="192.6" cy="68.5" r="2" fill="#EE6677"/><circle cx="218.3" cy="75.3" r="2" fill="#EE6677"/><circle cx="244.1" cy="72.7" r="2" fill="#EE6677"/><circle cx="269.8" cy="69.6" r="2" fill="#EE6677"/><circle cx="295.5" cy="70.3" r="2" fill="#EE6677"/><circle cx="321.2" cy="70.7" r="2" fill="#EE6677"/><circle cx="347.0" cy="71.8" r="2" fill="#EE6677"/><circle cx="372.7" cy="71.9" r="2" fill="#EE6677"/><circle cx="398.4" cy="75.0" r="2" fill="#EE6677"/><circle cx="424.1" cy="73.0" r="2" fill="#EE6677"/><circle cx="449.9" cy="71.8" r="2" fill="#EE6677"/><circle cx="475.6" cy="72.7" r="2" fill="#EE6677"/><circle cx="501.3" cy="73.5" r="2" fill="#EE6677"/><circle cx="527.0" cy="74.5" r="2" fill="#EE6677"/><circle cx="552.8" cy="69.2" r="2" fill="#EE6677"/><circle cx="578.5" cy="71.8" r="2" fill="#EE6677"/><circle cx="604.2" cy="71.6" r="2" fill="#EE6677"/><circle cx="629.9" cy="71.8" r="2" fill="#EE6677"/><circle cx="655.7" cy="114.5" r="2" fill="#EE6677"/><circle cx="681.4" cy="66.3" r="2" fill="#EE6677"/><circle cx="707.1" cy="66.4" r="2" fill="#EE6677"/><circle cx="732.8" cy="68.2" r="2" fill="#EE6677"/><circle cx="758.6" cy="69.4" r="2" fill="#EE6677"/><circle cx="784.3" cy="67.9" r="2" fill="#EE6677"/><circle cx="810.0" cy="67.4" r="2" fill="#EE6677"/><rect x="820" y="49" width="10" height="10" fill="#EE6677"/><text x="834" y="58" font-size="10" fill="#444">chain-50</text><path d="M64.0,110.9 L89.7,106.2 L115.4,106.7 L141.2,108.1 L166.9,107.4 L192.6,107.8 L218.3,106.8 L244.1,106.8 L269.8,110.0 L295.5,111.1 L321.2,111.2 L347.0,111.1 L372.7,107.0 L398.4,110.6 L424.1,111.7 L449.9,109.9 L475.6,110.5 L501.3,110.7 L527.0,110.7 L552.8,111.3 L578.5,109.8 L604.2,109.7 L629.9,110.7 L655.7,157.2 L681.4,104.1 L707.1,106.3 L732.8,105.1 L758.6,103.5 L784.3,103.7 L810.0,104.7" fill="none" stroke="#228833" stroke-width="1.6"/><circle cx="64.0" cy="110.9" r="2" fill="#228833"/><circle cx="89.7" cy="106.2" r="2" fill="#228833"/><circle cx="115.4" cy="106.7" r="2" fill="#228833"/><circle cx="141.2" cy="108.1" r="2" fill="#228833"/><circle cx="166.9" cy="107.4" r="2" fill="#228833"/><circle cx="192.6" cy="107.8" r="2" fill="#228833"/><circle cx="218.3" cy="106.8" r="2" fill="#228833"/><circle cx="244.1" cy="106.8" r="2" fill="#228833"/><circle cx="269.8" cy="110.0" r="2" fill="#228833"/><circle cx="295.5" cy="111.1" r="2" fill="#228833"/><circle cx="321.2" cy="111.2" r="2" fill="#228833"/><circle cx="347.0" cy="111.1" r="2" fill="#228833"/><circle cx="372.7" cy="107.0" r="2" fill="#228833"/><circle cx="398.4" cy="110.6" r="2" fill="#228833"/><circle cx="424.1" cy="111.7" r="2" fill="#228833"/><circle cx="449.9" cy="109.9" r="2" fill="#228833"/><circle cx="475.6" cy="110.5" r="2" fill="#228833"/><circle cx="501.3" cy="110.7" r="2" fill="#228833"/><circle cx="527.0" cy="110.7" r="2" fill="#228833"/><circle cx="552.8" cy="111.3" r="2" fill="#228833"/><circle cx="578.5" cy="109.8" r="2" fill="#228833"/><circle cx="604.2" cy="109.7" r="2" fill="#228833"/><circle cx="629.9" cy="110.7" r="2" fill="#228833"/><circle cx="655.7" cy="157.2" r="2" fill="#228833"/><circle cx="681.4" cy="104.1" r="2" fill="#228833"/><circle cx="707.1" cy="106.3" r="2" fill="#228833"/><circle cx="732.8" cy="105.1" r="2" fill="#228833"/><circle cx="758.6" cy="103.5" r="2" fill="#228833"/><circle cx="784.3" cy="103.7" r="2" fill="#228833"/><circle cx="810.0" cy="104.7" r="2" fill="#228833"/><rect x="820" y="64" width="10" height="10" fill="#228833"/><text x="834" y="73" font-size="10" fill="#444">chain-200</text><path d="M64.0,157.7 L89.7,156.8 L115.4,154.6 L141.2,156.6 L166.9,156.8 L192.6,156.2 L218.3,155.1 L244.1,158.1 L269.8,157.7 L295.5,156.8 L321.2,156.2 L347.0,157.0 L372.7,153.6 L398.4,157.7 L424.1,156.2 L449.9,159.5 L475.6,157.4 L501.3,159.5 L527.0,158.8 L552.8,158.9 L578.5,159.3 L604.2,157.9 L629.9,159.0 L655.7,213.0 L681.4,151.0 L707.1,152.1 L732.8,152.1 L758.6,151.7 L784.3,152.1 L810.0,150.5" fill="none" stroke="#CCBB44" stroke-width="1.6"/><circle cx="64.0" cy="157.7" r="2" fill="#CCBB44"/><circle cx="89.7" cy="156.8" r="2" fill="#CCBB44"/><circle cx="115.4" cy="154.6" r="2" fill="#CCBB44"/><circle cx="141.2" cy="156.6" r="2" fill="#CCBB44"/><circle cx="166.9" cy="156.8" r="2" fill="#CCBB44"/><circle cx="192.6" cy="156.2" r="2" fill="#CCBB44"/><circle cx="218.3" cy="155.1" r="2" fill="#CCBB44"/><circle cx="244.1" cy="158.1" r="2" fill="#CCBB44"/><circle cx="269.8" cy="157.7" r="2" fill="#CCBB44"/><circle cx="295.5" cy="156.8" r="2" fill="#CCBB44"/><circle cx="321.2" cy="156.2" r="2" fill="#CCBB44"/><circle cx="347.0" cy="157.0" r="2" fill="#CCBB44"/><circle cx="372.7" cy="153.6" r="2" fill="#CCBB44"/><circle cx="398.4" cy="157.7" r="2" fill="#CCBB44"/><circle cx="424.1" cy="156.2" r="2" fill="#CCBB44"/><circle cx="449.9" cy="159.5" r="2" fill="#CCBB44"/><circle cx="475.6" cy="157.4" r="2" fill="#CCBB44"/><circle cx="501.3" cy="159.5" r="2" fill="#CCBB44"/><circle cx="527.0" cy="158.8" r="2" fill="#CCBB44"/><circle cx="552.8" cy="158.9" r="2" fill="#CCBB44"/><circle cx="578.5" cy="159.3" r="2" fill="#CCBB44"/><circle cx="604.2" cy="157.9" r="2" fill="#CCBB44"/><circle cx="629.9" cy="159.0" r="2" fill="#CCBB44"/><circle cx="655.7" cy="213.0" r="2" fill="#CCBB44"/><circle cx="681.4" cy="151.0" r="2" fill="#CCBB44"/><circle cx="707.1" cy="152.1" r="2" fill="#CCBB44"/><circle cx="732.8" cy="152.1" r="2" fill="#CCBB44"/><circle cx="758.6" cy="151.7" r="2" fill="#CCBB44"/><circle cx="784.3" cy="152.1" r="2" fill="#CCBB44"/><circle cx="810.0" cy="150.5" r="2" fill="#CCBB44"/><rect x="820" y="79" width="10" height="10" fill="#CCBB44"/><text x="834" y="88" font-size="10" fill="#444">chain-1000</text><path d="M64.0,81.4 L89.7,82.6 L115.4,81.8 L141.2,81.7 L166.9,80.8 L192.6,80.0 L218.3,82.0 L244.1,83.3 L269.8,82.2 L295.5,81.4 L321.2,80.6 L347.0,81.3 L372.7,84.9 L398.4,82.2 L424.1,82.3 L449.9,82.2 L475.6,80.5 L501.3,82.7 L527.0,81.0 L552.8,79.5 L578.5,80.6 L604.2,81.3 L629.9,81.2 L655.7,162.0 L681.4,77.6 L707.1,77.7 L732.8,77.8 L758.6,78.5 L784.3,76.5 L810.0,79.0" fill="none" stroke="#66CCEE" stroke-width="1.6"/><circle cx="64.0" cy="81.4" r="2" fill="#66CCEE"/><circle cx="89.7" cy="82.6" r="2" fill="#66CCEE"/><circle cx="115.4" cy="81.8" r="2" fill="#66CCEE"/><circle cx="141.2" cy="81.7" r="2" fill="#66CCEE"/><circle cx="166.9" cy="80.8" r="2" fill="#66CCEE"/><circle cx="192.6" cy="80.0" r="2" fill="#66CCEE"/><circle cx="218.3" cy="82.0" r="2" fill="#66CCEE"/><circle cx="244.1" cy="83.3" r="2" fill="#66CCEE"/><circle cx="269.8" cy="82.2" r="2" fill="#66CCEE"/><circle cx="295.5" cy="81.4" r="2" fill="#66CCEE"/><circle cx="321.2" cy="80.6" r="2" fill="#66CCEE"/><circle cx="347.0" cy="81.3" r="2" fill="#66CCEE"/><circle cx="372.7" cy="84.9" r="2" fill="#66CCEE"/><circle cx="398.4" cy="82.2" r="2" fill="#66CCEE"/><circle cx="424.1" cy="82.3" r="2" fill="#66CCEE"/><circle cx="449.9" cy="82.2" r="2" fill="#66CCEE"/><circle cx="475.6" cy="80.5" r="2" fill="#66CCEE"/><circle cx="501.3" cy="82.7" r="2" fill="#66CCEE"/><circle cx="527.0" cy="81.0" r="2" fill="#66CCEE"/><circle cx="552.8" cy="79.5" r="2" fill="#66CCEE"/><circle cx="578.5" cy="80.6" r="2" fill="#66CCEE"/><circle cx="604.2" cy="81.3" r="2" fill="#66CCEE"/><circle cx="629.9" cy="81.2" r="2" fill="#66CCEE"/><circle cx="655.7" cy="162.0" r="2" fill="#66CCEE"/><circle cx="681.4" cy="77.6" r="2" fill="#66CCEE"/><circle cx="707.1" cy="77.7" r="2" fill="#66CCEE"/><circle cx="732.8" cy="77.8" r="2" fill="#66CCEE"/><circle cx="758.6" cy="78.5" r="2" fill="#66CCEE"/><circle cx="784.3" cy="76.5" r="2" fill="#66CCEE"/><circle cx="810.0" cy="79.0" r="2" fill="#66CCEE"/><rect x="820" y="94" width="10" height="10" fill="#66CCEE"/><text x="834" y="103" font-size="10" fill="#444">dense-10</text><path d="M64.0,180.4 L89.7,181.4 L115.4,177.4 L141.2,179.0 L166.9,179.8 L192.6,177.6 L218.3,179.9 L244.1,180.9 L269.8,180.4 L295.5,179.9 L321.2,179.4 L347.0,179.4 L372.7,177.6 L398.4,179.9 L424.1,180.4 L449.9,181.4 L475.6,179.4 L501.3,179.9 L527.0,179.0 L552.8,179.7 L578.5,180.4 L604.2,179.4 L629.9,179.9 L655.7,266.1 L681.4,169.9 L707.1,171.6 L732.8,170.6 L758.6,170.2 L784.3,173.1 L810.0,173.5" fill="none" stroke="#AA3377" stroke-width="1.6"/><circle cx="64.0" cy="180.4" r="2" fill="#AA3377"/><circle cx="89.7" cy="181.4" r="2" fill="#AA3377"/><circle cx="115.4" cy="177.4" r="2" fill="#AA3377"/><circle cx="141.2" cy="179.0" r="2" fill="#AA3377"/><circle cx="166.9" cy="179.8" r="2" fill="#AA3377"/><circle cx="192.6" cy="177.6" r="2" fill="#AA3377"/><circle cx="218.3" cy="179.9" r="2" fill="#AA3377"/><circle cx="244.1" cy="180.9" r="2" fill="#AA3377"/><circle cx="269.8" cy="180.4" r="2" fill="#AA3377"/><circle cx="295.5" cy="179.9" r="2" fill="#AA3377"/><circle cx="321.2" cy="179.4" r="2" fill="#AA3377"/><circle cx="347.0" cy="179.4" r="2" fill="#AA3377"/><circle cx="372.7" cy="177.6" r="2" fill="#AA3377"/><circle cx="398.4" cy="179.9" r="2" fill="#AA3377"/><circle cx="424.1" cy="180.4" r="2" fill="#AA3377"/><circle cx="449.9" cy="181.4" r="2" fill="#AA3377"/><circle cx="475.6" cy="179.4" r="2" fill="#AA3377"/><circle cx="501.3" cy="179.9" r="2" fill="#AA3377"/><circle cx="527.0" cy="179.0" r="2" fill="#AA3377"/><circle cx="552.8" cy="179.7" r="2" fill="#AA3377"/><circle cx="578.5" cy="180.4" r="2" fill="#AA3377"/><circle cx="604.2" cy="179.4" r="2" fill="#AA3377"/><circle cx="629.9" cy="179.9" r="2" fill="#AA3377"/><circle cx="655.7" cy="266.1" r="2" fill="#AA3377"/><circle cx="681.4" cy="169.9" r="2" fill="#AA3377"/><circle cx="707.1" cy="171.6" r="2" fill="#AA3377"/><circle cx="732.8" cy="170.6" r="2" fill="#AA3377"/><circle cx="758.6" cy="170.2" r="2" fill="#AA3377"/><circle cx="784.3" cy="173.1" r="2" fill="#AA3377"/><circle cx="810.0" cy="173.5" r="2" fill="#AA3377"/><rect x="820" y="109" width="10" height="10" fill="#AA3377"/><text x="834" y="118" font-size="10" fill="#444">dense-50</text><path d="M115.4,324.0 L166.9,324.0 L244.1,324.0 L552.8,324.0 L681.4,251.4 L707.1,251.4 L732.8,251.4 L758.6,251.4 L784.3,251.4 L810.0,251.4" fill="none" stroke="#BBBBBB" stroke-width="1.6"/><circle cx="115.4" cy="324.0" r="2" fill="#BBBBBB"/><circle cx="166.9" cy="324.0" r="2" fill="#BBBBBB"/><circle cx="244.1" cy="324.0" r="2" fill="#BBBBBB"/><circle cx="552.8" cy="324.0" r="2" fill="#BBBBBB"/><circle cx="681.4" cy="251.4" r="2" fill="#BBBBBB"/><circle cx="707.1" cy="251.4" r="2" fill="#BBBBBB"/><circle cx="732.8" cy="251.4" r="2" fill="#BBBBBB"/><circle cx="758.6" cy="251.4" r="2" fill="#BBBBBB"/><circle cx="784.3" cy="251.4" r="2" fill="#BBBBBB"/><circle cx="810.0" cy="251.4" r="2" fill="#BBBBBB"/><rect x="820" y="124" width="10" height="10" fill="#BBBBBB"/><text x="834" y="133" font-size="10" fill="#444">dense-200</text><path d="M64.0,90.1 L89.7,93.3 L115.4,91.1 L141.2,88.4 L166.9,91.2 L192.6,92.5 L218.3,88.9 L244.1,90.4 L269.8,89.7 L295.5,90.0 L321.2,90.8 L347.0,89.6 L372.7,88.5 L398.4,91.3 L424.1,91.4 L449.9,95.3 L475.6,89.7 L501.3,87.7 L527.0,91.1 L552.8,91.3 L578.5,93.1 L604.2,91.8 L629.9,88.8 L655.7,163.3 L681.4,82.9 L707.1,81.7 L732.8,82.3 L758.6,82.7 L784.3,84.1 L810.0,82.4" fill="none" stroke="#222255" stroke-width="1.6"/><circle cx="64.0" cy="90.1" r="2" fill="#222255"/><circle cx="89.7" cy="93.3" r="2" fill="#222255"/><circle cx="115.4" cy="91.1" r="2" fill="#222255"/><circle cx="141.2" cy="88.4" r="2" fill="#222255"/><circle cx="166.9" cy="91.2" r="2" fill="#222255"/><circle cx="192.6" cy="92.5" r="2" fill="#222255"/><circle cx="218.3" cy="88.9" r="2" fill="#222255"/><circle cx="244.1" cy="90.4" r="2" fill="#222255"/><circle cx="269.8" cy="89.7" r="2" fill="#222255"/><circle cx="295.5" cy="90.0" r="2" fill="#222255"/><circle cx="321.2" cy="90.8" r="2" fill="#222255"/><circle cx="347.0" cy="89.6" r="2" fill="#222255"/><circle cx="372.7" cy="88.5" r="2" fill="#222255"/><circle cx="398.4" cy="91.3" r="2" fill="#222255"/><circle cx="424.1" cy="91.4" r="2" fill="#222255"/><circle cx="449.9" cy="95.3" r="2" fill="#222255"/><circle cx="475.6" cy="89.7" r="2" fill="#222255"/><circle cx="501.3" cy="87.7" r="2" fill="#222255"/><circle cx="527.0" cy="91.1" r="2" fill="#222255"/><circle cx="552.8" cy="91.3" r="2" fill="#222255"/><circle cx="578.5" cy="93.1" r="2" fill="#222255"/><circle cx="604.2" cy="91.8" r="2" fill="#222255"/><circle cx="629.9" cy="88.8" r="2" fill="#222255"/><circle cx="655.7" cy="163.3" r="2" fill="#222255"/><circle cx="681.4" cy="82.9" r="2" fill="#222255"/><circle cx="707.1" cy="81.7" r="2" fill="#222255"/><circle cx="732.8" cy="82.3" r="2" fill="#222255"/><circle cx="758.6" cy="82.7" r="2" fill="#222255"/><circle cx="784.3" cy="84.1" r="2" fill="#222255"/><circle cx="810.0" cy="82.4" r="2" fill="#222255"/><rect x="820" y="139" width="10" height="10" fill="#222255"/><text x="834" y="148" font-size="10" fill="#444">hub-50</text><path d="M64.0,131.1 L89.7,129.0 L115.4,128.9 L141.2,128.8 L166.9,129.8 L192.6,128.6 L218.3,128.2 L244.1,129.4 L269.8,127.8 L295.5,129.9 L321.2,128.3 L347.0,130.1 L372.7,129.6 L398.4,130.5 L424.1,130.7 L449.9,132.2 L475.6,128.4 L501.3,130.1 L527.0,129.9 L552.8,130.1 L578.5,129.8 L604.2,129.3 L629.9,128.9 L655.7,208.8 L681.4,120.8 L707.1,121.5 L732.8,121.8 L758.6,121.5 L784.3,119.7 L810.0,121.3" fill="none" stroke="#225555" stroke-width="1.6"/><circle cx="64.0" cy="131.1" r="2" fill="#225555"/><circle cx="89.7" cy="129.0" r="2" fill="#225555"/><circle cx="115.4" cy="128.9" r="2" fill="#225555"/><circle cx="141.2" cy="128.8" r="2" fill="#225555"/><circle cx="166.9" cy="129.8" r="2" fill="#225555"/><circle cx="192.6" cy="128.6" r="2" fill="#225555"/><circle cx="218.3" cy="128.2" r="2" fill="#225555"/><circle cx="244.1" cy="129.4" r="2" fill="#225555"/><circle cx="269.8" cy="127.8" r="2" fill="#225555"/><circle cx="295.5" cy="129.9" r="2" fill="#225555"/><circle cx="321.2" cy="128.3" r="2" fill="#225555"/><circle cx="347.0" cy="130.1" r="2" fill="#225555"/><circle cx="372.7" cy="129.6" r="2" fill="#225555"/><circle cx="398.4" cy="130.5" r="2" fill="#225555"/><circle cx="424.1" cy="130.7" r="2" fill="#225555"/><circle cx="449.9" cy="132.2" r="2" fill="#225555"/><circle cx="475.6" cy="128.4" r="2" fill="#225555"/><circle cx="501.3" cy="130.1" r="2" fill="#225555"/><circle cx="527.0" cy="129.9" r="2" fill="#225555"/><circle cx="552.8" cy="130.1" r="2" fill="#225555"/><circle cx="578.5" cy="129.8" r="2" fill="#225555"/><circle cx="604.2" cy="129.3" r="2" fill="#225555"/><circle cx="629.9" cy="128.9" r="2" fill="#225555"/><circle cx="655.7" cy="208.8" r="2" fill="#225555"/><circle cx="681.4" cy="120.8" r="2" fill="#225555"/><circle cx="707.1" cy="121.5" r="2" fill="#225555"/><circle cx="732.8" cy="121.8" r="2" fill="#225555"/><circle cx="758.6" cy="121.5" r="2" fill="#225555"/><circle cx="784.3" cy="119.7" r="2" fill="#225555"/><circle cx="810.0" cy="121.3" r="2" fill="#225555"/><rect x="820" y="154" width="10" height="10" fill="#225555"/><text x="834" y="163" font-size="10" fill="#444">hub-200</text><path d="M64.0,131.2 L89.7,130.8 L115.4,128.8 L141.2,129.1 L166.9,128.7 L192.6,130.4 L218.3,128.5 L244.1,129.4 L269.8,131.1 L295.5,130.3 L321.2,128.1 L347.0,129.3 L372.7,127.7 L398.4,130.4 L424.1,128.9 L449.9,132.6 L475.6,131.1 L501.3,128.2 L527.0,130.7 L552.8,129.4 L578.5,130.5 L604.2,132.3 L629.9,129.2 L655.7,210.1 L681.4,120.9 L707.1,121.3 L732.8,121.3 L758.6,121.6 L784.3,121.1 L810.0,121.3" fill="none" stroke="#552222" stroke-width="1.6"/><circle cx="64.0" cy="131.2" r="2" fill="#552222"/><circle cx="89.7" cy="130.8" r="2" fill="#552222"/><circle cx="115.4" cy="128.8" r="2" fill="#552222"/><circle cx="141.2" cy="129.1" r="2" fill="#552222"/><circle cx="166.9" cy="128.7" r="2" fill="#552222"/><circle cx="192.6" cy="130.4" r="2" fill="#552222"/><circle cx="218.3" cy="128.5" r="2" fill="#552222"/><circle cx="244.1" cy="129.4" r="2" fill="#552222"/><circle cx="269.8" cy="131.1" r="2" fill="#552222"/><circle cx="295.5" cy="130.3" r="2" fill="#552222"/><circle cx="321.2" cy="128.1" r="2" fill="#552222"/><circle cx="347.0" cy="129.3" r="2" fill="#552222"/><circle cx="372.7" cy="127.7" r="2" fill="#552222"/><circle cx="398.4" cy="130.4" r="2" fill="#552222"/><circle cx="424.1" cy="128.9" r="2" fill="#552222"/><circle cx="449.9" cy="132.6" r="2" fill="#552222"/><circle cx="475.6" cy="131.1" r="2" fill="#552222"/><circle cx="501.3" cy="128.2" r="2" fill="#552222"/><circle cx="527.0" cy="130.7" r="2" fill="#552222"/><circle cx="552.8" cy="129.4" r="2" fill="#552222"/><circle cx="578.5" cy="130.5" r="2" fill="#552222"/><circle cx="604.2" cy="132.3" r="2" fill="#552222"/><circle cx="629.9" cy="129.2" r="2" fill="#552222"/><circle cx="655.7" cy="210.1" r="2" fill="#552222"/><circle cx="681.4" cy="120.9" r="2" fill="#552222"/><circle cx="707.1" cy="121.3" r="2" fill="#552222"/><circle cx="732.8" cy="121.3" r="2" fill="#552222"/><circle cx="758.6" cy="121.6" r="2" fill="#552222"/><circle cx="784.3" cy="121.1" r="2" fill="#552222"/><circle cx="810.0" cy="121.3" r="2" fill="#552222"/><rect x="820" y="169" width="10" height="10" fill="#552222"/><text x="834" y="178" font-size="10" fill="#444">hooked-200</text><path d="M64.0,190.2 L89.7,188.2 L115.4,188.6 L141.2,190.2 L166.9,186.7 L192.6,192.3 L218.3,189.5 L244.1,189.0 L269.8,190.2 L295.5,188.8 L321.2,188.8 L347.0,190.2 L372.7,188.8 L398.4,191.6 L424.1,189.5 L449.9,190.9 L475.6,190.9 L501.3,190.2 L527.0,190.9 L552.8,189.2 L578.5,192.3 L604.2,192.3 L629.9,190.2 L655.7,246.1 L681.4,181.9 L707.1,180.4 L732.8,180.4 L758.6,181.4 L784.3,179.4 L810.0,180.9" fill="none" stroke="#555522" stroke-width="1.6"/><circle cx="64.0" cy="190.2" r="2" fill="#555522"/><circle cx="89.7" cy="188.2" r="2" fill="#555522"/><circle cx="115.4" cy="188.6" r="2" fill="#555522"/><circle cx="141.2" cy="190.2" r="2" fill="#555522"/><circle cx="166.9" cy="186.7" r="2" fill="#555522"/><circle cx="192.6" cy="192.3" r="2" fill="#555522"/><circle cx="218.3" cy="189.5" r="2" fill="#555522"/><circle cx="244.1" cy="189.0" r="2" fill="#555522"/><circle cx="269.8" cy="190.2" r="2" fill="#555522"/><circle cx="295.5" cy="188.8" r="2" fill="#555522"/><circle cx="321.2" cy="188.8" r="2" fill="#555522"/><circle cx="347.0" cy="190.2" r="2" fill="#555522"/><circle cx="372.7" cy="188.8" r="2" fill="#555522"/><circle cx="398.4" cy="191.6" r="2" fill="#555522"/><circle cx="424.1" cy="189.5" r="2" fill="#555522"/><circle cx="449.9" cy="190.9" r="2" fill="#555522"/><circle cx="475.6" cy="190.9" r="2" fill="#555522"/><circle cx="501.3" cy="190.2" r="2" fill="#555522"/><circle cx="527.0" cy="190.9" r="2" fill="#555522"/><circle cx="552.8" cy="189.2" r="2" fill="#555522"/><circle cx="578.5" cy="192.3" r="2" fill="#555522"/><circle cx="604.2" cy="192.3" r="2" fill="#555522"/><circle cx="629.9" cy="190.2" r="2" fill="#555522"/><circle cx="655.7" cy="246.1" r="2" fill="#555522"/><circle cx="681.4" cy="181.9" r="2" fill="#555522"/><circle cx="707.1" cy="180.4" r="2" fill="#555522"/><circle cx="732.8" cy="180.4" r="2" fill="#555522"/><circle cx="758.6" cy="181.4" r="2" fill="#555522"/><circle cx="784.3" cy="179.4" r="2" fill="#555522"/><circle cx="810.0" cy="180.9" r="2" fill="#555522"/><rect x="820" y="184" width="10" height="10" fill="#555522"/><text x="834" y="193" font-size="10" fill="#444">messy-1000</text><path d="M64.0,246.1 L89.7,246.1 L115.4,246.6 L141.2,246.1 L166.9,244.7 L192.6,246.1 L218.3,246.1 L244.1,244.7 L269.8,246.1 L295.5,246.1 L321.2,246.1 L347.0,246.1 L372.7,246.1 L398.4,246.1 L424.1,246.1 L449.9,246.1 L475.6,246.1 L501.3,246.1 L527.0,246.1 L552.8,246.1 L578.5,246.1 L604.2,246.1 L629.9,246.1 L655.7,297.6 L681.4,228.7 L707.1,228.7 L732.8,228.7 L758.6,228.7 L784.3,228.7 L810.0,228.7" fill="none" stroke="#8855AA" stroke-width="1.6"/><circle cx="64.0" cy="246.1" r="2" fill="#8855AA"/><circle cx="89.7" cy="246.1" r="2" fill="#8855AA"/><circle cx="115.4" cy="246.6" r="2" fill="#8855AA"/><circle cx="141.2" cy="246.1" r="2" fill="#8855AA"/><circle cx="166.9" cy="244.7" r="2" fill="#8855AA"/><circle cx="192.6" cy="246.1" r="2" fill="#8855AA"/><circle cx="218.3" cy="246.1" r="2" fill="#8855AA"/><circle cx="244.1" cy="244.7" r="2" fill="#8855AA"/><circle cx="269.8" cy="246.1" r="2" fill="#8855AA"/><circle cx="295.5" cy="246.1" r="2" fill="#8855AA"/><circle cx="321.2" cy="246.1" r="2" fill="#8855AA"/><circle cx="347.0" cy="246.1" r="2" fill="#8855AA"/><circle cx="372.7" cy="246.1" r="2" fill="#8855AA"/><circle cx="398.4" cy="246.1" r="2" fill="#8855AA"/><circle cx="424.1" cy="246.1" r="2" fill="#8855AA"/><circle cx="449.9" cy="246.1" r="2" fill="#8855AA"/><circle cx="475.6" cy="246.1" r="2" fill="#8855AA"/><circle cx="501.3" cy="246.1" r="2" fill="#8855AA"/><circle cx="527.0" cy="246.1" r="2" fill="#8855AA"/><circle cx="552.8" cy="246.1" r="2" fill="#8855AA"/><circle cx="578.5" cy="246.1" r="2" fill="#8855AA"/><circle cx="604.2" cy="246.1" r="2" fill="#8855AA"/><circle cx="629.9" cy="246.1" r="2" fill="#8855AA"/><circle cx="655.7" cy="297.6" r="2" fill="#8855AA"/><circle cx="681.4" cy="228.7" r="2" fill="#8855AA"/><circle cx="707.1" cy="228.7" r="2" fill="#8855AA"/><circle cx="732.8" cy="228.7" r="2" fill="#8855AA"/><circle cx="758.6" cy="228.7" r="2" fill="#8855AA"/><circle cx="784.3" cy="228.7" r="2" fill="#8855AA"/><circle cx="810.0" cy="228.7" r="2" fill="#8855AA"/><rect x="820" y="199" width="10" height="10" fill="#8855AA"/><text x="834" y="208" font-size="10" fill="#444">messy-5000</text></svg>