<svg width="960" height="372" xmlns="http://www.w3.org/2000/svg"><rect width="960" height="372" fill="#ffffff"/><text x="64" y="20" font-size="15" font-weight="bold" fill="#333">edges_between() — ops/sec (log scale) by PR / release, c7g.medium</text><line x1="64" y1="297.3805218920668" x2="810" y2="297.3805218920668" stroke="#eee"/><text x="58" y="301.3805218920668" font-size="10" text-anchor="end" fill="#888">1e2</text><line x1="64" y1="218.44769376839338" x2="810" y2="218.44769376839338" stroke="#eee"/><text x="58" y="222.44769376839338" font-size="10" text-anchor="end" fill="#888">1e3</text><line x1="64" y1="139.51486564472" x2="810" y2="139.51486564472" stroke="#eee"/><text x="58" y="143.51486564472" font-size="10" text-anchor="end" fill="#888">1e4</text><line x1="64" y1="60.58203752104663" x2="810" y2="60.58203752104663" stroke="#eee"/><text x="58" y="64.58203752104663" font-size="10" text-anchor="end" fill="#888">1e5</text><text x="64.0" y="340" font-size="9" text-anchor="middle" fill="#888">598</text><text x="115.4" y="340" font-size="9" text-anchor="middle" fill="#888">600</text><text x="166.9" y="340" font-size="9" text-anchor="middle" fill="#888">602</text><text x="218.3" y="340" font-size="9" text-anchor="middle" fill="#888">604</text><text x="269.8" y="340" font-size="9" text-anchor="middle" fill="#888">611</text><text x="321.2" y="340" font-size="9" text-anchor="middle" fill="#888">616</text><text x="372.7" y="340" font-size="9" text-anchor="middle" fill="#888">618</text><text x="424.1" y="340" font-size="9" text-anchor="middle" fill="#888">634</text><text x="475.6" y="340" font-size="9" text-anchor="middle" fill="#888">649</text><text x="527.0" y="340" font-size="9" text-anchor="middle" fill="#888">674</text><text x="578.5" y="340" font-size="9" text-anchor="middle" fill="#888">679</text><text x="629.9" y="340" font-size="9" text-anchor="middle" fill="#888">681</text><text x="681.4" y="340" font-size="9" text-anchor="end" fill="#a40" transform="rotate(-35 681.4 340)">v5.143.30</text><text x="732.8" y="340" font-size="9" text-anchor="end" fill="#a40" transform="rotate(-35 732.8 340)">v5.143.33</text><text x="784.3" y="340" font-size="9" text-anchor="end" fill="#a40" transform="rotate(-35 784.3 340)">v5.143.35</text><path d="M64.0,62.0 L89.7,61.9 L115.4,61.5 L141.2,61.9 L166.9,62.4 L192.6,63.0 L218.3,61.7 L244.1,61.8 L269.8,62.4 L295.5,62.3 L321.2,62.1 L347.0,62.2 L372.7,61.6 L398.4,62.0 L424.1,62.4 L449.9,38.2 L475.6,34.0 L501.3,36.4 L527.0,37.8 L552.8,34.8 L578.5,37.2 L604.2,35.3 L629.9,36.1 L655.7,42.4 L681.4,43.9 L707.1,46.8 L732.8,42.3 L758.6,45.6 L784.3,44.7 L810.0,42.7" fill="none" stroke="#4477AA" stroke-width="1.6"/><circle cx="64.0" cy="62.0" r="2" fill="#4477AA"/><circle cx="89.7" cy="61.9" r="2" fill="#4477AA"/><circle cx="115.4" cy="61.5" r="2" fill="#4477AA"/><circle cx="141.2" cy="61.9" r="2" fill="#4477AA"/><circle cx="166.9" cy="62.4" r="2" fill="#4477AA"/><circle cx="192.6" cy="63.0" r="2" fill="#4477AA"/><circle cx="218.3" cy="61.7" r="2" fill="#4477AA"/><circle cx="244.1" cy="61.8" r="2" fill="#4477AA"/><circle cx="269.8" cy="62.4" r="2" fill="#4477AA"/><circle cx="295.5" cy="62.3" r="2" fill="#4477AA"/><circle cx="321.2" cy="62.1" r="2" fill="#4477AA"/><circle cx="347.0" cy="62.2" r="2" fill="#4477AA"/><circle cx="372.7" cy="61.6" r="2" fill="#4477AA"/><circle cx="398.4" cy="62.0" r="2" fill="#4477AA"/><circle cx="424.1" cy="62.4" r="2" fill="#4477AA"/><circle cx="449.9" cy="38.2" r="2" fill="#4477AA"/><circle cx="475.6" cy="34.0" r="2" fill="#4477AA"/><circle cx="501.3" cy="36.4" r="2" fill="#4477AA"/><circle cx="527.0" cy="37.8" r="2" fill="#4477AA"/><circle cx="552.8" cy="34.8" r="2" fill="#4477AA"/><circle cx="578.5" cy="37.2" r="2" fill="#4477AA"/><circle cx="604.2" cy="35.3" r="2" fill="#4477AA"/><circle cx="629.9" cy="36.1" r="2" fill="#4477AA"/><circle cx="655.7" cy="42.4" r="2" fill="#4477AA"/><circle cx="681.4" cy="43.9" r="2" fill="#4477AA"/><circle cx="707.1" cy="46.8" r="2" fill="#4477AA"/><circle cx="732.8" cy="42.3" r="2" fill="#4477AA"/><circle cx="758.6" cy="45.6" r="2" fill="#4477AA"/><circle cx="784.3" cy="44.7" r="2" fill="#4477AA"/><circle cx="810.0" cy="42.7" r="2" fill="#4477AA"/><rect x="820" y="34" width="10" height="10" fill="#4477AA"/><text x="834" y="43" font-size="10" fill="#444">chain-10</text><path d="M64.0,95.2 L89.7,95.3 L115.4,95.3 L141.2,95.3 L166.9,94.9 L192.6,95.1 L218.3,95.1 L244.1,95.2 L269.8,95.3 L295.5,95.4 L321.2,95.7 L347.0,95.2 L372.7,95.0 L398.4,95.1 L424.1,95.1 L449.9,38.9 L475.6,41.1 L501.3,41.3 L527.0,41.4 L552.8,40.1 L578.5,39.3 L604.2,40.2 L629.9,38.8 L655.7,40.2 L681.4,47.0 L707.1,46.7 L732.8,46.1 L758.6,45.1 L784.3,46.5 L810.0,46.2" fill="none" stroke="#EE6677" stroke-width="1.6"/><circle cx="64.0" cy="95.2" r="2" fill="#EE6677"/><circle cx="89.7" cy="95.3" r="2" fill="#EE6677"/><circle cx="115.4" cy="95.3" r="2" fill="#EE6677"/><circle cx="141.2" cy="95.3" r="2" fill="#EE6677"/><circle cx="166.9" cy="94.9" r="2" fill="#EE6677"/><circle cx="192.6" cy="95.1" r="2" fill="#EE6677"/><circle cx="218.3" cy="95.1" r="2" fill="#EE6677"/><circle cx="244.1" cy="95.2" r="2" fill="#EE6677"/><circle cx="269.8" cy="95.3" r="2" fill="#EE6677"/><circle cx="295.5" cy="95.4" r="2" fill="#EE6677"/><circle cx="321.2" cy="95.7" r="2" fill="#EE6677"/><circle cx="347.0" cy="95.2" r="2" fill="#EE6677"/><circle cx="372.7" cy="95.0" r="2" fill="#EE6677"/><circle cx="398.4" cy="95.1" r="2" fill="#EE6677"/><circle cx="424.1" cy="95.1" r="2" fill="#EE6677"/><circle cx="449.9" cy="38.9" r="2" fill="#EE6677"/><circle cx="475.6" cy="41.1" r="2" fill="#EE6677"/><circle cx="501.3" cy="41.3" r="2" fill="#EE6677"/><circle cx="527.0" cy="41.4" r="2" fill="#EE6677"/><circle cx="552.8" cy="40.1" r="2" fill="#EE6677"/><circle cx="578.5" cy="39.3" r="2" fill="#EE6677"/><circle cx="604.2" cy="40.2" r="2" fill="#EE6677"/><circle cx="629.9" cy="38.8" r="2" fill="#EE6677"/><circle cx="655.7" cy="40.2" r="2" fill="#EE6677"/><circle cx="681.4" cy="47.0" r="2" fill="#EE6677"/><circle cx="707.1" cy="46.7" r="2" fill="#EE6677"/><circle cx="732.8" cy="46.1" r="2" fill="#EE6677"/><circle cx="758.6" cy="45.1" r="2" fill="#EE6677"/><circle cx="784.3" cy="46.5" r="2" fill="#EE6677"/><circle cx="810.0" cy="46.2" r="2" fill="#EE6677"/><rect x="820" y="49" width="10" height="10" fill="#EE6677"/><text x="834" y="58" font-size="10" fill="#444">chain-50</text><path d="M64.0,132.3 L89.7,132.3 L115.4,132.2 L141.2,132.3 L166.9,132.6 L192.6,132.2 L218.3,132.2 L244.1,132.2 L269.8,132.7 L295.5,132.2 L321.2,132.2 L347.0,132.2 L372.7,132.1 L398.4,132.7 L424.1,132.2 L449.9,44.7 L475.6,43.2 L501.3,44.9 L527.0,43.8 L552.8,43.5 L578.5,44.0 L604.2,44.0 L629.9,44.5 L655.7,44.3 L681.4,52.7 L707.1,51.8 L732.8,51.9 L758.6,51.6 L784.3,51.3 L810.0,51.2" fill="none" stroke="#228833" stroke-width="1.6"/><circle cx="64.0" cy="132.3" r="2" fill="#228833"/><circle cx="89.7" cy="132.3" r="2" fill="#228833"/><circle cx="115.4" cy="132.2" r="2" fill="#228833"/><circle cx="141.2" cy="132.3" r="2" fill="#228833"/><circle cx="166.9" cy="132.6" r="2" fill="#228833"/><circle cx="192.6" cy="132.2" r="2" fill="#228833"/><circle cx="218.3" cy="132.2" r="2" fill="#228833"/><circle cx="244.1" cy="132.2" r="2" fill="#228833"/><circle cx="269.8" cy="132.7" r="2" fill="#228833"/><circle cx="295.5" cy="132.2" r="2" fill="#228833"/><circle cx="321.2" cy="132.2" r="2" fill="#228833"/><circle cx="347.0" cy="132.2" r="2" fill="#228833"/><circle cx="372.7" cy="132.1" r="2" fill="#228833"/><circle cx="398.4" cy="132.7" r="2" fill="#228833"/><circle cx="424.1" cy="132.2" r="2" fill="#228833"/><circle cx="449.9" cy="44.7" r="2" fill="#228833"/><circle cx="475.6" cy="43.2" r="2" fill="#228833"/><circle cx="501.3" cy="44.9" r="2" fill="#228833"/><circle cx="527.0" cy="43.8" r="2" fill="#228833"/><circle cx="552.8" cy="43.5" r="2" fill="#228833"/><circle cx="578.5" cy="44.0" r="2" fill="#228833"/><circle cx="604.2" cy="44.0" r="2" fill="#228833"/><circle cx="629.9" cy="44.5" r="2" fill="#228833"/><circle cx="655.7" cy="44.3" r="2" fill="#228833"/><circle cx="681.4" cy="52.7" r="2" fill="#228833"/><circle cx="707.1" cy="51.8" r="2" fill="#228833"/><circle cx="732.8" cy="51.9" r="2" fill="#228833"/><circle cx="758.6" cy="51.6" r="2" fill="#228833"/><circle cx="784.3" cy="51.3" r="2" fill="#228833"/><circle cx="810.0" cy="51.2" r="2" fill="#228833"/><rect x="820" y="64" width="10" height="10" fill="#228833"/><text x="834" y="73" font-size="10" fill="#444">chain-200</text><path d="M64.0,178.4 L89.7,178.3 L115.4,178.4 L141.2,178.5 L166.9,178.1 L192.6,178.3 L218.3,179.2 L244.1,178.6 L269.8,178.3 L295.5,178.5 L321.2,178.4 L347.0,178.5 L372.7,178.3 L398.4,178.1 L424.1,179.1 L449.9,49.8 L475.6,49.7 L501.3,50.2 L527.0,49.5 L552.8,47.4 L578.5,48.3 L604.2,49.3 L629.9,50.2 L655.7,49.3 L681.4,55.9 L707.1,54.2 L732.8,53.6 L758.6,54.9 L784.3,55.6 L810.0,54.8" fill="none" stroke="#CCBB44" stroke-width="1.6"/><circle cx="64.0" cy="178.4" r="2" fill="#CCBB44"/><circle cx="89.7" cy="178.3" r="2" fill="#CCBB44"/><circle cx="115.4" cy="178.4" r="2" fill="#CCBB44"/><circle cx="141.2" cy="178.5" r="2" fill="#CCBB44"/><circle cx="166.9" cy="178.1" r="2" fill="#CCBB44"/><circle cx="192.6" cy="178.3" r="2" fill="#CCBB44"/><circle cx="218.3" cy="179.2" r="2" fill="#CCBB44"/><circle cx="244.1" cy="178.6" r="2" fill="#CCBB44"/><circle cx="269.8" cy="178.3" r="2" fill="#CCBB44"/><circle cx="295.5" cy="178.5" r="2" fill="#CCBB44"/><circle cx="321.2" cy="178.4" r="2" fill="#CCBB44"/><circle cx="347.0" cy="178.5" r="2" fill="#CCBB44"/><circle cx="372.7" cy="178.3" r="2" fill="#CCBB44"/><circle cx="398.4" cy="178.1" r="2" fill="#CCBB44"/><circle cx="424.1" cy="179.1" r="2" fill="#CCBB44"/><circle cx="449.9" cy="49.8" r="2" fill="#CCBB44"/><circle cx="475.6" cy="49.7" r="2" fill="#CCBB44"/><circle cx="501.3" cy="50.2" r="2" fill="#CCBB44"/><circle cx="527.0" cy="49.5" r="2" fill="#CCBB44"/><circle cx="552.8" cy="47.4" r="2" fill="#CCBB44"/><circle cx="578.5" cy="48.3" r="2" fill="#CCBB44"/><circle cx="604.2" cy="49.3" r="2" fill="#CCBB44"/><circle cx="629.9" cy="50.2" r="2" fill="#CCBB44"/><circle cx="655.7" cy="49.3" r="2" fill="#CCBB44"/><circle cx="681.4" cy="55.9" r="2" fill="#CCBB44"/><circle cx="707.1" cy="54.2" r="2" fill="#CCBB44"/><circle cx="732.8" cy="53.6" r="2" fill="#CCBB44"/><circle cx="758.6" cy="54.9" r="2" fill="#CCBB44"/><circle cx="784.3" cy="55.6" r="2" fill="#CCBB44"/><circle cx="810.0" cy="54.8" r="2" fill="#CCBB44"/><rect x="820" y="79" width="10" height="10" fill="#CCBB44"/><text x="834" y="88" font-size="10" fill="#444">chain-1000</text><path d="M64.0,122.6 L89.7,122.7 L115.4,122.6 L141.2,122.8 L166.9,122.6 L192.6,122.6 L218.3,122.7 L244.1,122.8 L269.8,122.7 L295.5,122.7 L321.2,122.7 L347.0,122.7 L372.7,123.1 L398.4,122.7 L424.1,122.6 L449.9,70.0 L475.6,68.4 L501.3,69.6 L527.0,70.0 L552.8,68.5 L578.5,69.5 L604.2,70.3 L629.9,69.5 L655.7,69.4 L681.4,81.8 L707.1,82.6 L732.8,81.1 L758.6,82.0 L784.3,81.9 L810.0,81.8" fill="none" stroke="#66CCEE" stroke-width="1.6"/><circle cx="64.0" cy="122.6" r="2" fill="#66CCEE"/><circle cx="89.7" cy="122.7" r="2" fill="#66CCEE"/><circle cx="115.4" cy="122.6" r="2" fill="#66CCEE"/><circle cx="141.2" cy="122.8" r="2" fill="#66CCEE"/><circle cx="166.9" cy="122.6" r="2" fill="#66CCEE"/><circle cx="192.6" cy="122.6" r="2" fill="#66CCEE"/><circle cx="218.3" cy="122.7" r="2" fill="#66CCEE"/><circle cx="244.1" cy="122.8" r="2" fill="#66CCEE"/><circle cx="269.8" cy="122.7" r="2" fill="#66CCEE"/><circle cx="295.5" cy="122.7" r="2" fill="#66CCEE"/><circle cx="321.2" cy="122.7" r="2" fill="#66CCEE"/><circle cx="347.0" cy="122.7" r="2" fill="#66CCEE"/><circle cx="372.7" cy="123.1" r="2" fill="#66CCEE"/><circle cx="398.4" cy="122.7" r="2" fill="#66CCEE"/><circle cx="424.1" cy="122.6" r="2" fill="#66CCEE"/><circle cx="449.9" cy="70.0" r="2" fill="#66CCEE"/><circle cx="475.6" cy="68.4" r="2" fill="#66CCEE"/><circle cx="501.3" cy="69.6" r="2" fill="#66CCEE"/><circle cx="527.0" cy="70.0" r="2" fill="#66CCEE"/><circle cx="552.8" cy="68.5" r="2" fill="#66CCEE"/><circle cx="578.5" cy="69.5" r="2" fill="#66CCEE"/><circle cx="604.2" cy="70.3" r="2" fill="#66CCEE"/><circle cx="629.9" cy="69.5" r="2" fill="#66CCEE"/><circle cx="655.7" cy="69.4" r="2" fill="#66CCEE"/><circle cx="681.4" cy="81.8" r="2" fill="#66CCEE"/><circle cx="707.1" cy="82.6" r="2" fill="#66CCEE"/><circle cx="732.8" cy="81.1" r="2" fill="#66CCEE"/><circle cx="758.6" cy="82.0" r="2" fill="#66CCEE"/><circle cx="784.3" cy="81.9" r="2" fill="#66CCEE"/><circle cx="810.0" cy="81.8" r="2" fill="#66CCEE"/><rect x="820" y="94" width="10" height="10" fill="#66CCEE"/><text x="834" y="103" font-size="10" fill="#444">dense-10</text><path d="M64.0,227.6 L89.7,227.1 L115.4,227.3 L141.2,227.4 L166.9,227.2 L192.6,227.2 L218.3,227.3 L244.1,227.2 L269.8,227.4 L295.5,227.6 L321.2,227.1 L347.0,227.2 L372.7,227.4 L398.4,227.1 L424.1,227.3 L449.9,108.9 L475.6,108.7 L501.3,108.6 L527.0,108.7 L552.8,108.2 L578.5,108.6 L604.2,110.8 L629.9,109.9 L655.7,112.1 L681.4,129.9 L707.1,129.6 L732.8,130.1 L758.6,129.3 L784.3,129.6 L810.0,129.4" fill="none" stroke="#AA3377" stroke-width="1.6"/><circle cx="64.0" cy="227.6" r="2" fill="#AA3377"/><circle cx="89.7" cy="227.1" r="2" fill="#AA3377"/><circle cx="115.4" cy="227.3" r="2" fill="#AA3377"/><circle cx="141.2" cy="227.4" r="2" fill="#AA3377"/><circle cx="166.9" cy="227.2" r="2" fill="#AA3377"/><circle cx="192.6" cy="227.2" r="2" fill="#AA3377"/><circle cx="218.3" cy="227.3" r="2" fill="#AA3377"/><circle cx="244.1" cy="227.2" r="2" fill="#AA3377"/><circle cx="269.8" cy="227.4" r="2" fill="#AA3377"/><circle cx="295.5" cy="227.6" r="2" fill="#AA3377"/><circle cx="321.2" cy="227.1" r="2" fill="#AA3377"/><circle cx="347.0" cy="227.2" r="2" fill="#AA3377"/><circle cx="372.7" cy="227.4" r="2" fill="#AA3377"/><circle cx="398.4" cy="227.1" r="2" fill="#AA3377"/><circle cx="424.1" cy="227.3" r="2" fill="#AA3377"/><circle cx="449.9" cy="108.9" r="2" fill="#AA3377"/><circle cx="475.6" cy="108.7" r="2" fill="#AA3377"/><circle cx="501.3" cy="108.6" r="2" fill="#AA3377"/><circle cx="527.0" cy="108.7" r="2" fill="#AA3377"/><circle cx="552.8" cy="108.2" r="2" fill="#AA3377"/><circle cx="578.5" cy="108.6" r="2" fill="#AA3377"/><circle cx="604.2" cy="110.8" r="2" fill="#AA3377"/><circle cx="629.9" cy="109.9" r="2" fill="#AA3377"/><circle cx="655.7" cy="112.1" r="2" fill="#AA3377"/><circle cx="681.4" cy="129.9" r="2" fill="#AA3377"/><circle cx="707.1" cy="129.6" r="2" fill="#AA3377"/><circle cx="732.8" cy="130.1" r="2" fill="#AA3377"/><circle cx="758.6" cy="129.3" r="2" fill="#AA3377"/><circle cx="784.3" cy="129.6" r="2" fill="#AA3377"/><circle cx="810.0" cy="129.4" r="2" fill="#AA3377"/><rect x="820" y="109" width="10" height="10" fill="#AA3377"/><text x="834" y="118" font-size="10" fill="#444">dense-50</text><path d="M64.0,323.3 L89.7,322.5 L115.4,322.2 L141.2,322.5 L166.9,323.4 L192.6,321.8 L218.3,322.5 L244.1,322.8 L269.8,324.0 L295.5,324.0 L321.2,322.5 L347.0,323.3 L372.7,321.8 L398.4,322.5 L424.1,322.5 L449.9,147.8 L475.6,150.3 L501.3,150.3 L527.0,151.4 L552.8,151.6 L578.5,150.2 L604.2,150.8 L629.9,150.6 L655.7,163.9 L681.4,181.7 L707.1,180.1 L732.8,181.6 L758.6,180.7 L784.3,181.2 L810.0,180.3" fill="none" stroke="#BBBBBB" stroke-width="1.6"/><circle cx="64.0" cy="323.3" r="2" fill="#BBBBBB"/><circle cx="89.7" cy="322.5" r="2" fill="#BBBBBB"/><circle cx="115.4" cy="322.2" r="2" fill="#BBBBBB"/><circle cx="141.2" cy="322.5" r="2" fill="#BBBBBB"/><circle cx="166.9" cy="323.4" r="2" fill="#BBBBBB"/><circle cx="192.6" cy="321.8" r="2" fill="#BBBBBB"/><circle cx="218.3" cy="322.5" r="2" fill="#BBBBBB"/><circle cx="244.1" cy="322.8" r="2" fill="#BBBBBB"/><circle cx="269.8" cy="324.0" r="2" fill="#BBBBBB"/><circle cx="295.5" cy="324.0" r="2" fill="#BBBBBB"/><circle cx="321.2" cy="322.5" r="2" fill="#BBBBBB"/><circle cx="347.0" cy="323.3" r="2" fill="#BBBBBB"/><circle cx="372.7" cy="321.8" r="2" fill="#BBBBBB"/><circle cx="398.4" cy="322.5" r="2" fill="#BBBBBB"/><circle cx="424.1" cy="322.5" r="2" fill="#BBBBBB"/><circle cx="449.9" cy="147.8" r="2" fill="#BBBBBB"/><circle cx="475.6" cy="150.3" r="2" fill="#BBBBBB"/><circle cx="501.3" cy="150.3" r="2" fill="#BBBBBB"/><circle cx="527.0" cy="151.4" r="2" fill="#BBBBBB"/><circle cx="552.8" cy="151.6" r="2" fill="#BBBBBB"/><circle cx="578.5" cy="150.2" r="2" fill="#BBBBBB"/><circle cx="604.2" cy="150.8" r="2" fill="#BBBBBB"/><circle cx="629.9" cy="150.6" r="2" fill="#BBBBBB"/><circle cx="655.7" cy="163.9" r="2" fill="#BBBBBB"/><circle cx="681.4" cy="181.7" r="2" fill="#BBBBBB"/><circle cx="707.1" cy="180.1" r="2" fill="#BBBBBB"/><circle cx="732.8" cy="181.6" r="2" fill="#BBBBBB"/><circle cx="758.6" cy="180.7" r="2" fill="#BBBBBB"/><circle cx="784.3" cy="181.2" r="2" fill="#BBBBBB"/><circle cx="810.0" cy="180.3" r="2" fill="#BBBBBB"/><rect x="820" y="124" width="10" height="10" fill="#BBBBBB"/><text x="834" y="133" font-size="10" fill="#444">dense-200</text><path d="M64.0,119.8 L89.7,119.7 L115.4,119.7 L141.2,119.7 L166.9,119.7 L192.6,119.8 L218.3,120.0 L244.1,120.4 L269.8,119.9 L295.5,119.8 L321.2,119.9 L347.0,119.8 L372.7,119.5 L398.4,119.7 L424.1,119.8 L449.9,83.8 L475.6,85.6 L501.3,85.1 L527.0,85.7 L552.8,85.4 L578.5,87.0 L604.2,86.0 L629.9,85.6 L655.7,84.9 L681.4,105.8 L707.1,106.4 L732.8,105.5 L758.6,106.7 L784.3,105.8 L810.0,106.1" fill="none" stroke="#222255" stroke-width="1.6"/><circle cx="64.0" cy="119.8" r="2" fill="#222255"/><circle cx="89.7" cy="119.7" r="2" fill="#222255"/><circle cx="115.4" cy="119.7" r="2" fill="#222255"/><circle cx="141.2" cy="119.7" r="2" fill="#222255"/><circle cx="166.9" cy="119.7" r="2" fill="#222255"/><circle cx="192.6" cy="119.8" r="2" fill="#222255"/><circle cx="218.3" cy="120.0" r="2" fill="#222255"/><circle cx="244.1" cy="120.4" r="2" fill="#222255"/><circle cx="269.8" cy="119.9" r="2" fill="#222255"/><circle cx="295.5" cy="119.8" r="2" fill="#222255"/><circle cx="321.2" cy="119.9" r="2" fill="#222255"/><circle cx="347.0" cy="119.8" r="2" fill="#222255"/><circle cx="372.7" cy="119.5" r="2" fill="#222255"/><circle cx="398.4" cy="119.7" r="2" fill="#222255"/><circle cx="424.1" cy="119.8" r="2" fill="#222255"/><circle cx="449.9" cy="83.8" r="2" fill="#222255"/><circle cx="475.6" cy="85.6" r="2" fill="#222255"/><circle cx="501.3" cy="85.1" r="2" fill="#222255"/><circle cx="527.0" cy="85.7" r="2" fill="#222255"/><circle cx="552.8" cy="85.4" r="2" fill="#222255"/><circle cx="578.5" cy="87.0" r="2" fill="#222255"/><circle cx="604.2" cy="86.0" r="2" fill="#222255"/><circle cx="629.9" cy="85.6" r="2" fill="#222255"/><circle cx="655.7" cy="84.9" r="2" fill="#222255"/><circle cx="681.4" cy="105.8" r="2" fill="#222255"/><circle cx="707.1" cy="106.4" r="2" fill="#222255"/><circle cx="732.8" cy="105.5" r="2" fill="#222255"/><circle cx="758.6" cy="106.7" r="2" fill="#222255"/><circle cx="784.3" cy="105.8" r="2" fill="#222255"/><circle cx="810.0" cy="106.1" r="2" fill="#222255"/><rect x="820" y="139" width="10" height="10" fill="#222255"/><text x="834" y="148" font-size="10" fill="#444">hub-50</text><path d="M64.0,163.1 L89.7,163.0 L115.4,163.6 L141.2,163.4 L166.9,163.8 L192.6,163.0 L218.3,163.2 L244.1,163.1 L269.8,163.1 L295.5,162.4 L321.2,163.0 L347.0,163.2 L372.7,163.0 L398.4,163.4 L424.1,163.5 L449.9,118.4 L475.6,118.7 L501.3,118.3 L527.0,118.8 L552.8,118.2 L578.5,118.2 L604.2,117.8 L629.9,118.9 L655.7,119.9 L681.4,149.7 L707.1,149.3 L732.8,147.9 L758.6,148.2 L784.3,148.3 L810.0,148.7" fill="none" stroke="#225555" stroke-width="1.6"/><circle cx="64.0" cy="163.1" r="2" fill="#225555"/><circle cx="89.7" cy="163.0" r="2" fill="#225555"/><circle cx="115.4" cy="163.6" r="2" fill="#225555"/><circle cx="141.2" cy="163.4" r="2" fill="#225555"/><circle cx="166.9" cy="163.8" r="2" fill="#225555"/><circle cx="192.6" cy="163.0" r="2" fill="#225555"/><circle cx="218.3" cy="163.2" r="2" fill="#225555"/><circle cx="244.1" cy="163.1" r="2" fill="#225555"/><circle cx="269.8" cy="163.1" r="2" fill="#225555"/><circle cx="295.5" cy="162.4" r="2" fill="#225555"/><circle cx="321.2" cy="163.0" r="2" fill="#225555"/><circle cx="347.0" cy="163.2" r="2" fill="#225555"/><circle cx="372.7" cy="163.0" r="2" fill="#225555"/><circle cx="398.4" cy="163.4" r="2" fill="#225555"/><circle cx="424.1" cy="163.5" r="2" fill="#225555"/><circle cx="449.9" cy="118.4" r="2" fill="#225555"/><circle cx="475.6" cy="118.7" r="2" fill="#225555"/><circle cx="501.3" cy="118.3" r="2" fill="#225555"/><circle cx="527.0" cy="118.8" r="2" fill="#225555"/><circle cx="552.8" cy="118.2" r="2" fill="#225555"/><circle cx="578.5" cy="118.2" r="2" fill="#225555"/><circle cx="604.2" cy="117.8" r="2" fill="#225555"/><circle cx="629.9" cy="118.9" r="2" fill="#225555"/><circle cx="655.7" cy="119.9" r="2" fill="#225555"/><circle cx="681.4" cy="149.7" r="2" fill="#225555"/><circle cx="707.1" cy="149.3" r="2" fill="#225555"/><circle cx="732.8" cy="147.9" r="2" fill="#225555"/><circle cx="758.6" cy="148.2" r="2" fill="#225555"/><circle cx="784.3" cy="148.3" r="2" fill="#225555"/><circle cx="810.0" cy="148.7" r="2" fill="#225555"/><rect x="820" y="154" width="10" height="10" fill="#225555"/><text x="834" y="163" font-size="10" fill="#444">hub-200</text><path d="M64.0,161.9 L89.7,162.0 L115.4,161.9 L141.2,161.9 L166.9,162.1 L192.6,162.1 L218.3,162.0 L244.1,162.5 L269.8,162.1 L295.5,162.4 L321.2,162.0 L347.0,162.0 L372.7,162.3 L398.4,162.2 L424.1,162.3 L449.9,119.1 L475.6,118.9 L501.3,118.2 L527.0,118.5 L552.8,117.7 L578.5,118.5 L604.2,117.7 L629.9,119.2 L655.7,118.3 L681.4,151.7 L707.1,151.3 L732.8,150.2 L758.6,154.3 L784.3,154.4 L810.0,151.6" fill="none" stroke="#552222" stroke-width="1.6"/><circle cx="64.0" cy="161.9" r="2" fill="#552222"/><circle cx="89.7" cy="162.0" r="2" fill="#552222"/><circle cx="115.4" cy="161.9" r="2" fill="#552222"/><circle cx="141.2" cy="161.9" r="2" fill="#552222"/><circle cx="166.9" cy="162.1" r="2" fill="#552222"/><circle cx="192.6" cy="162.1" r="2" fill="#552222"/><circle cx="218.3" cy="162.0" r="2" fill="#552222"/><circle cx="244.1" cy="162.5" r="2" fill="#552222"/><circle cx="269.8" cy="162.1" r="2" fill="#552222"/><circle cx="295.5" cy="162.4" r="2" fill="#552222"/><circle cx="321.2" cy="162.0" r="2" fill="#552222"/><circle cx="347.0" cy="162.0" r="2" fill="#552222"/><circle cx="372.7" cy="162.3" r="2" fill="#552222"/><circle cx="398.4" cy="162.2" r="2" fill="#552222"/><circle cx="424.1" cy="162.3" r="2" fill="#552222"/><circle cx="449.9" cy="119.1" r="2" fill="#552222"/><circle cx="475.6" cy="118.9" r="2" fill="#552222"/><circle cx="501.3" cy="118.2" r="2" fill="#552222"/><circle cx="527.0" cy="118.5" r="2" fill="#552222"/><circle cx="552.8" cy="117.7" r="2" fill="#552222"/><circle cx="578.5" cy="118.5" r="2" fill="#552222"/><circle cx="604.2" cy="117.7" r="2" fill="#552222"/><circle cx="629.9" cy="119.2" r="2" fill="#552222"/><circle cx="655.7" cy="118.3" r="2" fill="#552222"/><circle cx="681.4" cy="151.7" r="2" fill="#552222"/><circle cx="707.1" cy="151.3" r="2" fill="#552222"/><circle cx="732.8" cy="150.2" r="2" fill="#552222"/><circle cx="758.6" cy="154.3" r="2" fill="#552222"/><circle cx="784.3" cy="154.4" r="2" fill="#552222"/><circle cx="810.0" cy="151.6" r="2" fill="#552222"/><rect x="820" y="169" width="10" height="10" fill="#552222"/><text x="834" y="178" font-size="10" fill="#444">hooked-200</text><path d="M64.0,221.9 L89.7,222.0 L115.4,221.9 L141.2,222.1 L166.9,222.2 L192.6,222.0 L218.3,221.9 L244.1,222.0 L269.8,222.1 L295.5,223.0 L321.2,221.9 L347.0,221.9 L372.7,222.3 L398.4,221.9 L424.1,221.9 L449.9,49.7 L475.6,44.8 L501.3,46.1 L527.0,43.9 L552.8,47.5 L578.5,44.4 L604.2,46.5 L629.9,46.9 L655.7,49.1 L681.4,62.7 L707.1,60.3 L732.8,65.4 L758.6,62.7 L784.3,60.5 L810.0,59.6" fill="none" stroke="#555522" stroke-width="1.6"/><circle cx="64.0" cy="221.9" r="2" fill="#555522"/><circle cx="89.7" cy="222.0" r="2" fill="#555522"/><circle cx="115.4" cy="221.9" r="2" fill="#555522"/><circle cx="141.2" cy="222.1" r="2" fill="#555522"/><circle cx="166.9" cy="222.2" r="2" fill="#555522"/><circle cx="192.6" cy="222.0" r="2" fill="#555522"/><circle cx="218.3" cy="221.9" r="2" fill="#555522"/><circle cx="244.1" cy="222.0" r="2" fill="#555522"/><circle cx="269.8" cy="222.1" r="2" fill="#555522"/><circle cx="295.5" cy="223.0" r="2" fill="#555522"/><circle cx="321.2" cy="221.9" r="2" fill="#555522"/><circle cx="347.0" cy="221.9" r="2" fill="#555522"/><circle cx="372.7" cy="222.3" r="2" fill="#555522"/><circle cx="398.4" cy="221.9" r="2" fill="#555522"/><circle cx="424.1" cy="221.9" r="2" fill="#555522"/><circle cx="449.9" cy="49.7" r="2" fill="#555522"/><circle cx="475.6" cy="44.8" r="2" fill="#555522"/><circle cx="501.3" cy="46.1" r="2" fill="#555522"/><circle cx="527.0" cy="43.9" r="2" fill="#555522"/><circle cx="552.8" cy="47.5" r="2" fill="#555522"/><circle cx="578.5" cy="44.4" r="2" fill="#555522"/><circle cx="604.2" cy="46.5" r="2" fill="#555522"/><circle cx="629.9" cy="46.9" r="2" fill="#555522"/><circle cx="655.7" cy="49.1" r="2" fill="#555522"/><circle cx="681.4" cy="62.7" r="2" fill="#555522"/><circle cx="707.1" cy="60.3" r="2" fill="#555522"/><circle cx="732.8" cy="65.4" r="2" fill="#555522"/><circle cx="758.6" cy="62.7" r="2" fill="#555522"/><circle cx="784.3" cy="60.5" r="2" fill="#555522"/><circle cx="810.0" cy="59.6" r="2" fill="#555522"/><rect x="820" y="184" width="10" height="10" fill="#555522"/><text x="834" y="193" font-size="10" fill="#444">messy-1000</text><path d="M64.0,290.8 L89.7,290.6 L115.4,290.5 L141.2,290.6 L166.9,290.5 L192.6,290.6 L218.3,290.3 L244.1,290.4 L269.8,290.8 L295.5,290.6 L321.2,290.6 L347.0,290.8 L372.7,290.3 L398.4,290.6 L424.1,290.3 L449.9,44.2 L475.6,43.0 L501.3,43.6 L527.0,41.8 L552.8,41.1 L578.5,45.8 L604.2,44.6 L629.9,41.6 L655.7,44.1 L681.4,55.3 L707.1,58.9 L732.8,55.9 L758.6,56.5 L784.3,55.1 L810.0,58.8" fill="none" stroke="#8855AA" stroke-width="1.6"/><circle cx="64.0" cy="290.8" r="2" fill="#8855AA"/><circle cx="89.7" cy="290.6" r="2" fill="#8855AA"/><circle cx="115.4" cy="290.5" r="2" fill="#8855AA"/><circle cx="141.2" cy="290.6" r="2" fill="#8855AA"/><circle cx="166.9" cy="290.5" r="2" fill="#8855AA"/><circle cx="192.6" cy="290.6" r="2" fill="#8855AA"/><circle cx="218.3" cy="290.3" r="2" fill="#8855AA"/><circle cx="244.1" cy="290.4" r="2" fill="#8855AA"/><circle cx="269.8" cy="290.8" r="2" fill="#8855AA"/><circle cx="295.5" cy="290.6" r="2" fill="#8855AA"/><circle cx="321.2" cy="290.6" r="2" fill="#8855AA"/><circle cx="347.0" cy="290.8" r="2" fill="#8855AA"/><circle cx="372.7" cy="290.3" r="2" fill="#8855AA"/><circle cx="398.4" cy="290.6" r="2" fill="#8855AA"/><circle cx="424.1" cy="290.3" r="2" fill="#8855AA"/><circle cx="449.9" cy="44.2" r="2" fill="#8855AA"/><circle cx="475.6" cy="43.0" r="2" fill="#8855AA"/><circle cx="501.3" cy="43.6" r="2" fill="#8855AA"/><circle cx="527.0" cy="41.8" r="2" fill="#8855AA"/><circle cx="552.8" cy="41.1" r="2" fill="#8855AA"/><circle cx="578.5" cy="45.8" r="2" fill="#8855AA"/><circle cx="604.2" cy="44.6" r="2" fill="#8855AA"/><circle cx="629.9" cy="41.6" r="2" fill="#8855AA"/><circle cx="655.7" cy="44.1" r="2" fill="#8855AA"/><circle cx="681.4" cy="55.3" r="2" fill="#8855AA"/><circle cx="707.1" cy="58.9" r="2" fill="#8855AA"/><circle cx="732.8" cy="55.9" r="2" fill="#8855AA"/><circle cx="758.6" cy="56.5" r="2" fill="#8855AA"/><circle cx="784.3" cy="55.1" r="2" fill="#8855AA"/><circle cx="810.0" cy="58.8" r="2" fill="#8855AA"/><rect x="820" y="199" width="10" height="10" fill="#8855AA"/><text x="834" y="208" font-size="10" fill="#444">messy-5000</text></svg>