<svg width="960" height="372" xmlns="http://www.w3.org/2000/svg"><rect width="960" height="372" fill="#ffffff"/><text x="64" y="20" font-size="15" font-weight="bold" fill="#333">has_state() — ops/sec (log scale) by PR / release, c7g.medium</text><text x="64.0" y="340" font-size="9" text-anchor="middle" fill="#888">598</text><text x="115.4" y="340" font-size="9" text-anchor="middle" fill="#888">600</text><text x="166.9" y="340" font-size="9" text-anchor="middle" fill="#888">602</text><text x="218.3" y="340" font-size="9" text-anchor="middle" fill="#888">604</text><text x="269.8" y="340" font-size="9" text-anchor="middle" fill="#888">611</text><text x="321.2" y="340" font-size="9" text-anchor="middle" fill="#888">616</text><text x="372.7" y="340" font-size="9" text-anchor="middle" fill="#888">618</text><text x="424.1" y="340" font-size="9" text-anchor="middle" fill="#888">634</text><text x="475.6" y="340" font-size="9" text-anchor="middle" fill="#888">649</text><text x="527.0" y="340" font-size="9" text-anchor="middle" fill="#888">674</text><text x="578.5" y="340" font-size="9" text-anchor="middle" fill="#888">679</text><text x="629.9" y="340" font-size="9" text-anchor="middle" fill="#888">681</text><text x="681.4" y="340" font-size="9" text-anchor="end" fill="#a40" transform="rotate(-35 681.4 340)">v5.143.30</text><text x="732.8" y="340" font-size="9" text-anchor="end" fill="#a40" transform="rotate(-35 732.8 340)">v5.143.33</text><text x="784.3" y="340" font-size="9" text-anchor="end" fill="#a40" transform="rotate(-35 784.3 340)">v5.143.35</text><path d="M64.0,48.6 L89.7,52.0 L115.4,44.7 L141.2,42.7 L166.9,37.7 L192.6,51.3 L218.3,48.8 L244.1,48.0 L269.8,50.8 L295.5,44.3 L321.2,44.4 L347.0,56.8 L372.7,47.2 L398.4,44.0 L424.1,47.2 L449.9,52.8 L475.6,37.8 L501.3,55.3 L527.0,47.2 L552.8,43.4 L578.5,47.1 L604.2,48.4 L629.9,49.4 L655.7,46.1 L681.4,40.1 L707.1,57.5 L732.8,55.4 L758.6,48.3 L784.3,48.3 L810.0,60.0" fill="none" stroke="#4477AA" stroke-width="1.6"/><circle cx="64.0" cy="48.6" r="2" fill="#4477AA"/><circle cx="89.7" cy="52.0" r="2" fill="#4477AA"/><circle cx="115.4" cy="44.7" r="2" fill="#4477AA"/><circle cx="141.2" cy="42.7" r="2" fill="#4477AA"/><circle cx="166.9" cy="37.7" r="2" fill="#4477AA"/><circle cx="192.6" cy="51.3" r="2" fill="#4477AA"/><circle cx="218.3" cy="48.8" r="2" fill="#4477AA"/><circle cx="244.1" cy="48.0" r="2" fill="#4477AA"/><circle cx="269.8" cy="50.8" r="2" fill="#4477AA"/><circle cx="295.5" cy="44.3" r="2" fill="#4477AA"/><circle cx="321.2" cy="44.4" r="2" fill="#4477AA"/><circle cx="347.0" cy="56.8" r="2" fill="#4477AA"/><circle cx="372.7" cy="47.2" r="2" fill="#4477AA"/><circle cx="398.4" cy="44.0" r="2" fill="#4477AA"/><circle cx="424.1" cy="47.2" r="2" fill="#4477AA"/><circle cx="449.9" cy="52.8" r="2" fill="#4477AA"/><circle cx="475.6" cy="37.8" r="2" fill="#4477AA"/><circle cx="501.3" cy="55.3" r="2" fill="#4477AA"/><circle cx="527.0" cy="47.2" r="2" fill="#4477AA"/><circle cx="552.8" cy="43.4" r="2" fill="#4477AA"/><circle cx="578.5" cy="47.1" r="2" fill="#4477AA"/><circle cx="604.2" cy="48.4" r="2" fill="#4477AA"/><circle cx="629.9" cy="49.4" r="2" fill="#4477AA"/><circle cx="655.7" cy="46.1" r="2" fill="#4477AA"/><circle cx="681.4" cy="40.1" r="2" fill="#4477AA"/><circle cx="707.1" cy="57.5" r="2" fill="#4477AA"/><circle cx="732.8" cy="55.4" r="2" fill="#4477AA"/><circle cx="758.6" cy="48.3" r="2" fill="#4477AA"/><circle cx="784.3" cy="48.3" r="2" fill="#4477AA"/><circle cx="810.0" cy="60.0" r="2" fill="#4477AA"/><rect x="820" y="34" width="10" height="10" fill="#4477AA"/><text x="834" y="43" font-size="10" fill="#444">chain-10</text><path d="M64.0,52.2 L89.7,51.5 L115.4,46.2 L141.2,49.7 L166.9,36.5 L192.6,53.3 L218.3,51.4 L244.1,52.8 L269.8,60.2 L295.5,46.7 L321.2,54.9 L347.0,58.2 L372.7,52.4 L398.4,51.9 L424.1,50.7 L449.9,57.0 L475.6,59.5 L501.3,69.9 L527.0,53.6 L552.8,51.6 L578.5,52.8 L604.2,48.4 L629.9,54.2 L655.7,47.1 L681.4,324.0 L707.1,64.4 L732.8,59.6 L758.6,62.2 L784.3,50.1 L810.0,73.8" fill="none" stroke="#EE6677" stroke-width="1.6"/><circle cx="64.0" cy="52.2" r="2" fill="#EE6677"/><circle cx="89.7" cy="51.5" r="2" fill="#EE6677"/><circle cx="115.4" cy="46.2" r="2" fill="#EE6677"/><circle cx="141.2" cy="49.7" r="2" fill="#EE6677"/><circle cx="166.9" cy="36.5" r="2" fill="#EE6677"/><circle cx="192.6" cy="53.3" r="2" fill="#EE6677"/><circle cx="218.3" cy="51.4" r="2" fill="#EE6677"/><circle cx="244.1" cy="52.8" r="2" fill="#EE6677"/><circle cx="269.8" cy="60.2" r="2" fill="#EE6677"/><circle cx="295.5" cy="46.7" r="2" fill="#EE6677"/><circle cx="321.2" cy="54.9" r="2" fill="#EE6677"/><circle cx="347.0" cy="58.2" r="2" fill="#EE6677"/><circle cx="372.7" cy="52.4" r="2" fill="#EE6677"/><circle cx="398.4" cy="51.9" r="2" fill="#EE6677"/><circle cx="424.1" cy="50.7" r="2" fill="#EE6677"/><circle cx="449.9" cy="57.0" r="2" fill="#EE6677"/><circle cx="475.6" cy="59.5" r="2" fill="#EE6677"/><circle cx="501.3" cy="69.9" r="2" fill="#EE6677"/><circle cx="527.0" cy="53.6" r="2" fill="#EE6677"/><circle cx="552.8" cy="51.6" r="2" fill="#EE6677"/><circle cx="578.5" cy="52.8" r="2" fill="#EE6677"/><circle cx="604.2" cy="48.4" r="2" fill="#EE6677"/><circle cx="629.9" cy="54.2" r="2" fill="#EE6677"/><circle cx="655.7" cy="47.1" r="2" fill="#EE6677"/><circle cx="681.4" cy="324.0" r="2" fill="#EE6677"/><circle cx="707.1" cy="64.4" r="2" fill="#EE6677"/><circle cx="732.8" cy="59.6" r="2" fill="#EE6677"/><circle cx="758.6" cy="62.2" r="2" fill="#EE6677"/><circle cx="784.3" cy="50.1" r="2" fill="#EE6677"/><circle cx="810.0" cy="73.8" r="2" fill="#EE6677"/><rect x="820" y="49" width="10" height="10" fill="#EE6677"/><text x="834" y="58" font-size="10" fill="#444">chain-50</text><path d="M64.0,59.0 L89.7,53.5 L115.4,56.7 L141.2,56.3 L166.9,43.8 L192.6,55.6 L218.3,54.5 L244.1,59.0 L269.8,60.9 L295.5,51.8 L321.2,59.6 L347.0,61.4 L372.7,63.0 L398.4,56.6 L424.1,56.3 L449.9,62.9 L475.6,61.2 L501.3,66.5 L527.0,56.2 L552.8,52.5 L578.5,56.9 L604.2,68.7 L629.9,57.4 L655.7,53.6 L681.4,59.7 L707.1,54.3 L732.8,70.3 L758.6,55.6 L784.3,53.3 L810.0,66.4" fill="none" stroke="#228833" stroke-width="1.6"/><circle cx="64.0" cy="59.0" r="2" fill="#228833"/><circle cx="89.7" cy="53.5" r="2" fill="#228833"/><circle cx="115.4" cy="56.7" r="2" fill="#228833"/><circle cx="141.2" cy="56.3" r="2" fill="#228833"/><circle cx="166.9" cy="43.8" r="2" fill="#228833"/><circle cx="192.6" cy="55.6" r="2" fill="#228833"/><circle cx="218.3" cy="54.5" r="2" fill="#228833"/><circle cx="244.1" cy="59.0" r="2" fill="#228833"/><circle cx="269.8" cy="60.9" r="2" fill="#228833"/><circle cx="295.5" cy="51.8" r="2" fill="#228833"/><circle cx="321.2" cy="59.6" r="2" fill="#228833"/><circle cx="347.0" cy="61.4" r="2" fill="#228833"/><circle cx="372.7" cy="63.0" r="2" fill="#228833"/><circle cx="398.4" cy="56.6" r="2" fill="#228833"/><circle cx="424.1" cy="56.3" r="2" fill="#228833"/><circle cx="449.9" cy="62.9" r="2" fill="#228833"/><circle cx="475.6" cy="61.2" r="2" fill="#228833"/><circle cx="501.3" cy="66.5" r="2" fill="#228833"/><circle cx="527.0" cy="56.2" r="2" fill="#228833"/><circle cx="552.8" cy="52.5" r="2" fill="#228833"/><circle cx="578.5" cy="56.9" r="2" fill="#228833"/><circle cx="604.2" cy="68.7" r="2" fill="#228833"/><circle cx="629.9" cy="57.4" r="2" fill="#228833"/><circle cx="655.7" cy="53.6" r="2" fill="#228833"/><circle cx="681.4" cy="59.7" r="2" fill="#228833"/><circle cx="707.1" cy="54.3" r="2" fill="#228833"/><circle cx="732.8" cy="70.3" r="2" fill="#228833"/><circle cx="758.6" cy="55.6" r="2" fill="#228833"/><circle cx="784.3" cy="53.3" r="2" fill="#228833"/><circle cx="810.0" cy="66.4" r="2" fill="#228833"/><rect x="820" y="64" width="10" height="10" fill="#228833"/><text x="834" y="73" font-size="10" fill="#444">chain-200</text><path d="M64.0,61.3 L89.7,57.3 L115.4,50.0 L141.2,57.7 L166.9,46.0 L192.6,65.2 L218.3,53.4 L244.1,67.2 L269.8,60.2 L295.5,60.4 L321.2,61.8 L347.0,60.6 L372.7,56.3 L398.4,56.8 L424.1,54.3 L449.9,64.2 L475.6,59.3 L501.3,66.0 L527.0,65.1 L552.8,57.9 L578.5,58.8 L604.2,60.1 L629.9,66.8 L655.7,60.4 L681.4,68.2 L707.1,64.9 L732.8,69.3 L758.6,57.0 L784.3,65.0 L810.0,77.2" fill="none" stroke="#CCBB44" stroke-width="1.6"/><circle cx="64.0" cy="61.3" r="2" fill="#CCBB44"/><circle cx="89.7" cy="57.3" r="2" fill="#CCBB44"/><circle cx="115.4" cy="50.0" r="2" fill="#CCBB44"/><circle cx="141.2" cy="57.7" r="2" fill="#CCBB44"/><circle cx="166.9" cy="46.0" r="2" fill="#CCBB44"/><circle cx="192.6" cy="65.2" r="2" fill="#CCBB44"/><circle cx="218.3" cy="53.4" r="2" fill="#CCBB44"/><circle cx="244.1" cy="67.2" r="2" fill="#CCBB44"/><circle cx="269.8" cy="60.2" r="2" fill="#CCBB44"/><circle cx="295.5" cy="60.4" r="2" fill="#CCBB44"/><circle cx="321.2" cy="61.8" r="2" fill="#CCBB44"/><circle cx="347.0" cy="60.6" r="2" fill="#CCBB44"/><circle cx="372.7" cy="56.3" r="2" fill="#CCBB44"/><circle cx="398.4" cy="56.8" r="2" fill="#CCBB44"/><circle cx="424.1" cy="54.3" r="2" fill="#CCBB44"/><circle cx="449.9" cy="64.2" r="2" fill="#CCBB44"/><circle cx="475.6" cy="59.3" r="2" fill="#CCBB44"/><circle cx="501.3" cy="66.0" r="2" fill="#CCBB44"/><circle cx="527.0" cy="65.1" r="2" fill="#CCBB44"/><circle cx="552.8" cy="57.9" r="2" fill="#CCBB44"/><circle cx="578.5" cy="58.8" r="2" fill="#CCBB44"/><circle cx="604.2" cy="60.1" r="2" fill="#CCBB44"/><circle cx="629.9" cy="66.8" r="2" fill="#CCBB44"/><circle cx="655.7" cy="60.4" r="2" fill="#CCBB44"/><circle cx="681.4" cy="68.2" r="2" fill="#CCBB44"/><circle cx="707.1" cy="64.9" r="2" fill="#CCBB44"/><circle cx="732.8" cy="69.3" r="2" fill="#CCBB44"/><circle cx="758.6" cy="57.0" r="2" fill="#CCBB44"/><circle cx="784.3" cy="65.0" r="2" fill="#CCBB44"/><circle cx="810.0" cy="77.2" r="2" fill="#CCBB44"/><rect x="820" y="79" width="10" height="10" fill="#CCBB44"/><text x="834" y="88" font-size="10" fill="#444">chain-1000</text><path d="M64.0,48.2 L89.7,46.2 L115.4,43.9 L141.2,41.6 L166.9,37.0 L192.6,50.2 L218.3,43.5 L244.1,49.8 L269.8,44.7 L295.5,44.0 L321.2,45.6 L347.0,43.4 L372.7,51.9 L398.4,47.4 L424.1,50.1 L449.9,57.9 L475.6,45.9 L501.3,57.2 L527.0,53.8 L552.8,48.4 L578.5,54.6 L604.2,53.4 L629.9,47.5 L655.7,47.5 L681.4,46.6 L707.1,68.5 L732.8,49.2 L758.6,56.8 L784.3,65.5 L810.0,58.2" fill="none" stroke="#66CCEE" stroke-width="1.6"/><circle cx="64.0" cy="48.2" r="2" fill="#66CCEE"/><circle cx="89.7" cy="46.2" r="2" fill="#66CCEE"/><circle cx="115.4" cy="43.9" r="2" fill="#66CCEE"/><circle cx="141.2" cy="41.6" r="2" fill="#66CCEE"/><circle cx="166.9" cy="37.0" r="2" fill="#66CCEE"/><circle cx="192.6" cy="50.2" r="2" fill="#66CCEE"/><circle cx="218.3" cy="43.5" r="2" fill="#66CCEE"/><circle cx="244.1" cy="49.8" r="2" fill="#66CCEE"/><circle cx="269.8" cy="44.7" r="2" fill="#66CCEE"/><circle cx="295.5" cy="44.0" r="2" fill="#66CCEE"/><circle cx="321.2" cy="45.6" r="2" fill="#66CCEE"/><circle cx="347.0" cy="43.4" r="2" fill="#66CCEE"/><circle cx="372.7" cy="51.9" r="2" fill="#66CCEE"/><circle cx="398.4" cy="47.4" r="2" fill="#66CCEE"/><circle cx="424.1" cy="50.1" r="2" fill="#66CCEE"/><circle cx="449.9" cy="57.9" r="2" fill="#66CCEE"/><circle cx="475.6" cy="45.9" r="2" fill="#66CCEE"/><circle cx="501.3" cy="57.2" r="2" fill="#66CCEE"/><circle cx="527.0" cy="53.8" r="2" fill="#66CCEE"/><circle cx="552.8" cy="48.4" r="2" fill="#66CCEE"/><circle cx="578.5" cy="54.6" r="2" fill="#66CCEE"/><circle cx="604.2" cy="53.4" r="2" fill="#66CCEE"/><circle cx="629.9" cy="47.5" r="2" fill="#66CCEE"/><circle cx="655.7" cy="47.5" r="2" fill="#66CCEE"/><circle cx="681.4" cy="46.6" r="2" fill="#66CCEE"/><circle cx="707.1" cy="68.5" r="2" fill="#66CCEE"/><circle cx="732.8" cy="49.2" r="2" fill="#66CCEE"/><circle cx="758.6" cy="56.8" r="2" fill="#66CCEE"/><circle cx="784.3" cy="65.5" r="2" fill="#66CCEE"/><circle cx="810.0" cy="58.2" r="2" fill="#66CCEE"/><rect x="820" y="94" width="10" height="10" fill="#66CCEE"/><text x="834" y="103" font-size="10" fill="#444">dense-10</text><path d="M64.0,52.9 L89.7,46.3 L115.4,38.9 L141.2,45.9 L166.9,39.0 L192.6,48.7 L218.3,48.8 L244.1,53.6 L269.8,55.2 L295.5,52.9 L321.2,49.6 L347.0,58.6 L372.7,55.1 L398.4,52.7 L424.1,46.9 L449.9,52.7 L475.6,53.8 L501.3,57.6 L527.0,54.3 L552.8,54.2 L578.5,49.4 L604.2,49.8 L629.9,59.6 L655.7,45.6 L681.4,46.3 L707.1,53.5 L732.8,67.6 L758.6,48.3 L784.3,54.0 L810.0,56.1" fill="none" stroke="#AA3377" stroke-width="1.6"/><circle cx="64.0" cy="52.9" r="2" fill="#AA3377"/><circle cx="89.7" cy="46.3" r="2" fill="#AA3377"/><circle cx="115.4" cy="38.9" r="2" fill="#AA3377"/><circle cx="141.2" cy="45.9" r="2" fill="#AA3377"/><circle cx="166.9" cy="39.0" r="2" fill="#AA3377"/><circle cx="192.6" cy="48.7" r="2" fill="#AA3377"/><circle cx="218.3" cy="48.8" r="2" fill="#AA3377"/><circle cx="244.1" cy="53.6" r="2" fill="#AA3377"/><circle cx="269.8" cy="55.2" r="2" fill="#AA3377"/><circle cx="295.5" cy="52.9" r="2" fill="#AA3377"/><circle cx="321.2" cy="49.6" r="2" fill="#AA3377"/><circle cx="347.0" cy="58.6" r="2" fill="#AA3377"/><circle cx="372.7" cy="55.1" r="2" fill="#AA3377"/><circle cx="398.4" cy="52.7" r="2" fill="#AA3377"/><circle cx="424.1" cy="46.9" r="2" fill="#AA3377"/><circle cx="449.9" cy="52.7" r="2" fill="#AA3377"/><circle cx="475.6" cy="53.8" r="2" fill="#AA3377"/><circle cx="501.3" cy="57.6" r="2" fill="#AA3377"/><circle cx="527.0" cy="54.3" r="2" fill="#AA3377"/><circle cx="552.8" cy="54.2" r="2" fill="#AA3377"/><circle cx="578.5" cy="49.4" r="2" fill="#AA3377"/><circle cx="604.2" cy="49.8" r="2" fill="#AA3377"/><circle cx="629.9" cy="59.6" r="2" fill="#AA3377"/><circle cx="655.7" cy="45.6" r="2" fill="#AA3377"/><circle cx="681.4" cy="46.3" r="2" fill="#AA3377"/><circle cx="707.1" cy="53.5" r="2" fill="#AA3377"/><circle cx="732.8" cy="67.6" r="2" fill="#AA3377"/><circle cx="758.6" cy="48.3" r="2" fill="#AA3377"/><circle cx="784.3" cy="54.0" r="2" fill="#AA3377"/><circle cx="810.0" cy="56.1" r="2" fill="#AA3377"/><rect x="820" y="109" width="10" height="10" fill="#AA3377"/><text x="834" y="118" font-size="10" fill="#444">dense-50</text><path d="M64.0,60.4 L89.7,56.6 L115.4,49.1 L141.2,55.9 L166.9,45.6 L192.6,59.1 L218.3,55.2 L244.1,58.0 L269.8,59.1 L295.5,56.3 L321.2,58.5 L347.0,77.6 L372.7,56.2 L398.4,58.0 L424.1,48.9 L449.9,62.4 L475.6,52.8 L501.3,73.0 L527.0,58.7 L552.8,60.0 L578.5,59.8 L604.2,56.7 L629.9,55.6 L655.7,52.7 L681.4,60.4 L707.1,62.6 L732.8,62.0 L758.6,55.1 L784.3,67.1 L810.0,65.6" fill="none" stroke="#BBBBBB" stroke-width="1.6"/><circle cx="64.0" cy="60.4" r="2" fill="#BBBBBB"/><circle cx="89.7" cy="56.6" r="2" fill="#BBBBBB"/><circle cx="115.4" cy="49.1" r="2" fill="#BBBBBB"/><circle cx="141.2" cy="55.9" r="2" fill="#BBBBBB"/><circle cx="166.9" cy="45.6" r="2" fill="#BBBBBB"/><circle cx="192.6" cy="59.1" r="2" fill="#BBBBBB"/><circle cx="218.3" cy="55.2" r="2" fill="#BBBBBB"/><circle cx="244.1" cy="58.0" r="2" fill="#BBBBBB"/><circle cx="269.8" cy="59.1" r="2" fill="#BBBBBB"/><circle cx="295.5" cy="56.3" r="2" fill="#BBBBBB"/><circle cx="321.2" cy="58.5" r="2" fill="#BBBBBB"/><circle cx="347.0" cy="77.6" r="2" fill="#BBBBBB"/><circle cx="372.7" cy="56.2" r="2" fill="#BBBBBB"/><circle cx="398.4" cy="58.0" r="2" fill="#BBBBBB"/><circle cx="424.1" cy="48.9" r="2" fill="#BBBBBB"/><circle cx="449.9" cy="62.4" r="2" fill="#BBBBBB"/><circle cx="475.6" cy="52.8" r="2" fill="#BBBBBB"/><circle cx="501.3" cy="73.0" r="2" fill="#BBBBBB"/><circle cx="527.0" cy="58.7" r="2" fill="#BBBBBB"/><circle cx="552.8" cy="60.0" r="2" fill="#BBBBBB"/><circle cx="578.5" cy="59.8" r="2" fill="#BBBBBB"/><circle cx="604.2" cy="56.7" r="2" fill="#BBBBBB"/><circle cx="629.9" cy="55.6" r="2" fill="#BBBBBB"/><circle cx="655.7" cy="52.7" r="2" fill="#BBBBBB"/><circle cx="681.4" cy="60.4" r="2" fill="#BBBBBB"/><circle cx="707.1" cy="62.6" r="2" fill="#BBBBBB"/><circle cx="732.8" cy="62.0" r="2" fill="#BBBBBB"/><circle cx="758.6" cy="55.1" r="2" fill="#BBBBBB"/><circle cx="784.3" cy="67.1" r="2" fill="#BBBBBB"/><circle cx="810.0" cy="65.6" r="2" fill="#BBBBBB"/><rect x="820" y="124" width="10" height="10" fill="#BBBBBB"/><text x="834" y="133" font-size="10" fill="#444">dense-200</text><path d="M64.0,49.5 L89.7,42.5 L115.4,44.6 L141.2,43.9 L166.9,55.2 L192.6,57.6 L218.3,42.0 L244.1,49.5 L269.8,56.4 L295.5,36.8 L321.2,51.0 L347.0,59.7 L372.7,70.2 L398.4,52.3 L424.1,43.7 L449.9,53.5 L475.6,61.6 L501.3,62.6 L527.0,55.2 L552.8,51.4 L578.5,59.4 L604.2,56.9 L629.9,56.0 L655.7,46.3 L681.4,46.0 L707.1,54.7 L732.8,56.3 L758.6,41.6 L784.3,48.6 L810.0,58.2" fill="none" stroke="#222255" stroke-width="1.6"/><circle cx="64.0" cy="49.5" r="2" fill="#222255"/><circle cx="89.7" cy="42.5" r="2" fill="#222255"/><circle cx="115.4" cy="44.6" r="2" fill="#222255"/><circle cx="141.2" cy="43.9" r="2" fill="#222255"/><circle cx="166.9" cy="55.2" r="2" fill="#222255"/><circle cx="192.6" cy="57.6" r="2" fill="#222255"/><circle cx="218.3" cy="42.0" r="2" fill="#222255"/><circle cx="244.1" cy="49.5" r="2" fill="#222255"/><circle cx="269.8" cy="56.4" r="2" fill="#222255"/><circle cx="295.5" cy="36.8" r="2" fill="#222255"/><circle cx="321.2" cy="51.0" r="2" fill="#222255"/><circle cx="347.0" cy="59.7" r="2" fill="#222255"/><circle cx="372.7" cy="70.2" r="2" fill="#222255"/><circle cx="398.4" cy="52.3" r="2" fill="#222255"/><circle cx="424.1" cy="43.7" r="2" fill="#222255"/><circle cx="449.9" cy="53.5" r="2" fill="#222255"/><circle cx="475.6" cy="61.6" r="2" fill="#222255"/><circle cx="501.3" cy="62.6" r="2" fill="#222255"/><circle cx="527.0" cy="55.2" r="2" fill="#222255"/><circle cx="552.8" cy="51.4" r="2" fill="#222255"/><circle cx="578.5" cy="59.4" r="2" fill="#222255"/><circle cx="604.2" cy="56.9" r="2" fill="#222255"/><circle cx="629.9" cy="56.0" r="2" fill="#222255"/><circle cx="655.7" cy="46.3" r="2" fill="#222255"/><circle cx="681.4" cy="46.0" r="2" fill="#222255"/><circle cx="707.1" cy="54.7" r="2" fill="#222255"/><circle cx="732.8" cy="56.3" r="2" fill="#222255"/><circle cx="758.6" cy="41.6" r="2" fill="#222255"/><circle cx="784.3" cy="48.6" r="2" fill="#222255"/><circle cx="810.0" cy="58.2" r="2" fill="#222255"/><rect x="820" y="139" width="10" height="10" fill="#222255"/><text x="834" y="148" font-size="10" fill="#444">hub-50</text><path d="M64.0,58.5 L89.7,67.2 L115.4,53.6 L141.2,60.0 L166.9,43.1 L192.6,61.8 L218.3,56.4 L244.1,58.3 L269.8,57.8 L295.5,51.7 L321.2,54.7 L347.0,50.0 L372.7,47.0 L398.4,61.5 L424.1,45.9 L449.9,55.5 L475.6,60.1 L501.3,58.3 L527.0,64.5 L552.8,45.8 L578.5,65.2 L604.2,50.9 L629.9,65.7 L655.7,58.0 L681.4,53.3 L707.1,59.5 L732.8,55.2 L758.6,47.0 L784.3,52.5 L810.0,65.3" fill="none" stroke="#225555" stroke-width="1.6"/><circle cx="64.0" cy="58.5" r="2" fill="#225555"/><circle cx="89.7" cy="67.2" r="2" fill="#225555"/><circle cx="115.4" cy="53.6" r="2" fill="#225555"/><circle cx="141.2" cy="60.0" r="2" fill="#225555"/><circle cx="166.9" cy="43.1" r="2" fill="#225555"/><circle cx="192.6" cy="61.8" r="2" fill="#225555"/><circle cx="218.3" cy="56.4" r="2" fill="#225555"/><circle cx="244.1" cy="58.3" r="2" fill="#225555"/><circle cx="269.8" cy="57.8" r="2" fill="#225555"/><circle cx="295.5" cy="51.7" r="2" fill="#225555"/><circle cx="321.2" cy="54.7" r="2" fill="#225555"/><circle cx="347.0" cy="50.0" r="2" fill="#225555"/><circle cx="372.7" cy="47.0" r="2" fill="#225555"/><circle cx="398.4" cy="61.5" r="2" fill="#225555"/><circle cx="424.1" cy="45.9" r="2" fill="#225555"/><circle cx="449.9" cy="55.5" r="2" fill="#225555"/><circle cx="475.6" cy="60.1" r="2" fill="#225555"/><circle cx="501.3" cy="58.3" r="2" fill="#225555"/><circle cx="527.0" cy="64.5" r="2" fill="#225555"/><circle cx="552.8" cy="45.8" r="2" fill="#225555"/><circle cx="578.5" cy="65.2" r="2" fill="#225555"/><circle cx="604.2" cy="50.9" r="2" fill="#225555"/><circle cx="629.9" cy="65.7" r="2" fill="#225555"/><circle cx="655.7" cy="58.0" r="2" fill="#225555"/><circle cx="681.4" cy="53.3" r="2" fill="#225555"/><circle cx="707.1" cy="59.5" r="2" fill="#225555"/><circle cx="732.8" cy="55.2" r="2" fill="#225555"/><circle cx="758.6" cy="47.0" r="2" fill="#225555"/><circle cx="784.3" cy="52.5" r="2" fill="#225555"/><circle cx="810.0" cy="65.3" r="2" fill="#225555"/><rect x="820" y="154" width="10" height="10" fill="#225555"/><text x="834" y="163" font-size="10" fill="#444">hub-200</text><path d="M64.0,54.7 L89.7,52.6 L115.4,57.1 L141.2,50.5 L166.9,48.1 L192.6,58.6 L218.3,56.7 L244.1,53.5 L269.8,68.9 L295.5,44.9 L321.2,51.2 L347.0,52.9 L372.7,50.8 L398.4,56.1 L424.1,48.0 L449.9,58.4 L475.6,64.0 L501.3,59.3 L527.0,61.5 L552.8,50.2 L578.5,61.6 L604.2,49.0 L629.9,63.8 L655.7,53.4 L681.4,47.8 L707.1,61.3 L732.8,47.5 L758.6,57.6 L784.3,48.8 L810.0,64.7" fill="none" stroke="#552222" stroke-width="1.6"/><circle cx="64.0" cy="54.7" r="2" fill="#552222"/><circle cx="89.7" cy="52.6" r="2" fill="#552222"/><circle cx="115.4" cy="57.1" r="2" fill="#552222"/><circle cx="141.2" cy="50.5" r="2" fill="#552222"/><circle cx="166.9" cy="48.1" r="2" fill="#552222"/><circle cx="192.6" cy="58.6" r="2" fill="#552222"/><circle cx="218.3" cy="56.7" r="2" fill="#552222"/><circle cx="244.1" cy="53.5" r="2" fill="#552222"/><circle cx="269.8" cy="68.9" r="2" fill="#552222"/><circle cx="295.5" cy="44.9" r="2" fill="#552222"/><circle cx="321.2" cy="51.2" r="2" fill="#552222"/><circle cx="347.0" cy="52.9" r="2" fill="#552222"/><circle cx="372.7" cy="50.8" r="2" fill="#552222"/><circle cx="398.4" cy="56.1" r="2" fill="#552222"/><circle cx="424.1" cy="48.0" r="2" fill="#552222"/><circle cx="449.9" cy="58.4" r="2" fill="#552222"/><circle cx="475.6" cy="64.0" r="2" fill="#552222"/><circle cx="501.3" cy="59.3" r="2" fill="#552222"/><circle cx="527.0" cy="61.5" r="2" fill="#552222"/><circle cx="552.8" cy="50.2" r="2" fill="#552222"/><circle cx="578.5" cy="61.6" r="2" fill="#552222"/><circle cx="604.2" cy="49.0" r="2" fill="#552222"/><circle cx="629.9" cy="63.8" r="2" fill="#552222"/><circle cx="655.7" cy="53.4" r="2" fill="#552222"/><circle cx="681.4" cy="47.8" r="2" fill="#552222"/><circle cx="707.1" cy="61.3" r="2" fill="#552222"/><circle cx="732.8" cy="47.5" r="2" fill="#552222"/><circle cx="758.6" cy="57.6" r="2" fill="#552222"/><circle cx="784.3" cy="48.8" r="2" fill="#552222"/><circle cx="810.0" cy="64.7" r="2" fill="#552222"/><rect x="820" y="169" width="10" height="10" fill="#552222"/><text x="834" y="178" font-size="10" fill="#444">hooked-200</text><path d="M64.0,57.0 L89.7,48.5 L115.4,35.9 L141.2,45.5 L166.9,39.5 L192.6,69.6 L218.3,44.9 L244.1,51.5 L269.8,46.9 L295.5,52.4 L321.2,46.8 L347.0,48.5 L372.7,45.6 L398.4,41.0 L424.1,40.1 L449.9,58.3 L475.6,50.5 L501.3,46.2 L527.0,43.7 L552.8,48.8 L578.5,46.2 L604.2,47.6 L629.9,69.5 L655.7,46.7 L681.4,46.8 L707.1,54.0 L732.8,56.9 L758.6,52.5 L784.3,51.7 L810.0,54.6" fill="none" stroke="#555522" stroke-width="1.6"/><circle cx="64.0" cy="57.0" r="2" fill="#555522"/><circle cx="89.7" cy="48.5" r="2" fill="#555522"/><circle cx="115.4" cy="35.9" r="2" fill="#555522"/><circle cx="141.2" cy="45.5" r="2" fill="#555522"/><circle cx="166.9" cy="39.5" r="2" fill="#555522"/><circle cx="192.6" cy="69.6" r="2" fill="#555522"/><circle cx="218.3" cy="44.9" r="2" fill="#555522"/><circle cx="244.1" cy="51.5" r="2" fill="#555522"/><circle cx="269.8" cy="46.9" r="2" fill="#555522"/><circle cx="295.5" cy="52.4" r="2" fill="#555522"/><circle cx="321.2" cy="46.8" r="2" fill="#555522"/><circle cx="347.0" cy="48.5" r="2" fill="#555522"/><circle cx="372.7" cy="45.6" r="2" fill="#555522"/><circle cx="398.4" cy="41.0" r="2" fill="#555522"/><circle cx="424.1" cy="40.1" r="2" fill="#555522"/><circle cx="449.9" cy="58.3" r="2" fill="#555522"/><circle cx="475.6" cy="50.5" r="2" fill="#555522"/><circle cx="501.3" cy="46.2" r="2" fill="#555522"/><circle cx="527.0" cy="43.7" r="2" fill="#555522"/><circle cx="552.8" cy="48.8" r="2" fill="#555522"/><circle cx="578.5" cy="46.2" r="2" fill="#555522"/><circle cx="604.2" cy="47.6" r="2" fill="#555522"/><circle cx="629.9" cy="69.5" r="2" fill="#555522"/><circle cx="655.7" cy="46.7" r="2" fill="#555522"/><circle cx="681.4" cy="46.8" r="2" fill="#555522"/><circle cx="707.1" cy="54.0" r="2" fill="#555522"/><circle cx="732.8" cy="56.9" r="2" fill="#555522"/><circle cx="758.6" cy="52.5" r="2" fill="#555522"/><circle cx="784.3" cy="51.7" r="2" fill="#555522"/><circle cx="810.0" cy="54.6" r="2" fill="#555522"/><rect x="820" y="184" width="10" height="10" fill="#555522"/><text x="834" y="193" font-size="10" fill="#444">messy-1000</text><path d="M64.0,50.8 L89.7,42.5 L115.4,41.3 L141.2,40.9 L166.9,40.5 L192.6,51.4 L218.3,37.5 L244.1,47.9 L269.8,48.0 L295.5,37.5 L321.2,58.3 L347.0,44.1 L372.7,37.1 L398.4,47.9 L424.1,42.2 L449.9,72.9 L475.6,48.7 L501.3,54.5 L527.0,34.0 L552.8,40.9 L578.5,56.6 L604.2,44.0 L629.9,51.7 L655.7,43.9 L681.4,51.9 L707.1,54.5 L732.8,44.3 L758.6,42.9 L784.3,44.3 L810.0,61.3" fill="none" stroke="#8855AA" stroke-width="1.6"/><circle cx="64.0" cy="50.8" r="2" fill="#8855AA"/><circle cx="89.7" cy="42.5" r="2" fill="#8855AA"/><circle cx="115.4" cy="41.3" r="2" fill="#8855AA"/><circle cx="141.2" cy="40.9" r="2" fill="#8855AA"/><circle cx="166.9" cy="40.5" r="2" fill="#8855AA"/><circle cx="192.6" cy="51.4" r="2" fill="#8855AA"/><circle cx="218.3" cy="37.5" r="2" fill="#8855AA"/><circle cx="244.1" cy="47.9" r="2" fill="#8855AA"/><circle cx="269.8" cy="48.0" r="2" fill="#8855AA"/><circle cx="295.5" cy="37.5" r="2" fill="#8855AA"/><circle cx="321.2" cy="58.3" r="2" fill="#8855AA"/><circle cx="347.0" cy="44.1" r="2" fill="#8855AA"/><circle cx="372.7" cy="37.1" r="2" fill="#8855AA"/><circle cx="398.4" cy="47.9" r="2" fill="#8855AA"/><circle cx="424.1" cy="42.2" r="2" fill="#8855AA"/><circle cx="449.9" cy="72.9" r="2" fill="#8855AA"/><circle cx="475.6" cy="48.7" r="2" fill="#8855AA"/><circle cx="501.3" cy="54.5" r="2" fill="#8855AA"/><circle cx="527.0" cy="34.0" r="2" fill="#8855AA"/><circle cx="552.8" cy="40.9" r="2" fill="#8855AA"/><circle cx="578.5" cy="56.6" r="2" fill="#8855AA"/><circle cx="604.2" cy="44.0" r="2" fill="#8855AA"/><circle cx="629.9" cy="51.7" r="2" fill="#8855AA"/><circle cx="655.7" cy="43.9" r="2" fill="#8855AA"/><circle cx="681.4" cy="51.9" r="2" fill="#8855AA"/><circle cx="707.1" cy="54.5" r="2" fill="#8855AA"/><circle cx="732.8" cy="44.3" r="2" fill="#8855AA"/><circle cx="758.6" cy="42.9" r="2" fill="#8855AA"/><circle cx="784.3" cy="44.3" r="2" fill="#8855AA"/><circle cx="810.0" cy="61.3" r="2" fill="#8855AA"/><rect x="820" y="199" width="10" height="10" fill="#8855AA"/><text x="834" y="208" font-size="10" fill="#444">messy-5000</text></svg>