<svg width="960" height="372" xmlns="http://www.w3.org/2000/svg"><rect width="960" height="372" fill="#ffffff"/><text x="64" y="20" font-size="15" font-weight="bold" fill="#333">transition() — ops/sec (log scale) by PR / release, c7g.medium</text><line x1="64" y1="124.25384085364578" x2="810" y2="124.25384085364578" stroke="#eee"/><text x="58" y="128.25384085364578" font-size="10" text-anchor="end" fill="#888">1e5</text><text x="64.0" y="340" font-size="9" text-anchor="middle" fill="#888">598</text><text x="115.4" y="340" font-size="9" text-anchor="middle" fill="#888">600</text><text x="166.9" y="340" font-size="9" text-anchor="middle" fill="#888">602</text><text x="218.3" y="340" font-size="9" text-anchor="middle" fill="#888">604</text><text x="269.8" y="340" font-size="9" text-anchor="middle" fill="#888">611</text><text x="321.2" y="340" font-size="9" text-anchor="middle" fill="#888">616</text><text x="372.7" y="340" font-size="9" text-anchor="middle" fill="#888">618</text><text x="424.1" y="340" font-size="9" text-anchor="middle" fill="#888">634</text><text x="475.6" y="340" font-size="9" text-anchor="middle" fill="#888">649</text><text x="527.0" y="340" font-size="9" text-anchor="middle" fill="#888">674</text><text x="578.5" y="340" font-size="9" text-anchor="middle" fill="#888">679</text><text x="629.9" y="340" font-size="9" text-anchor="middle" fill="#888">681</text><text x="681.4" y="340" font-size="9" text-anchor="end" fill="#a40" transform="rotate(-35 681.4 340)">v5.143.30</text><text x="732.8" y="340" font-size="9" text-anchor="end" fill="#a40" transform="rotate(-35 732.8 340)">v5.143.33</text><text x="784.3" y="340" font-size="9" text-anchor="end" fill="#a40" transform="rotate(-35 784.3 340)">v5.143.35</text><path d="M64.0,47.0 L89.7,58.7 L115.4,52.6 L141.2,41.7 L166.9,50.9 L192.6,42.5 L218.3,53.1 L244.1,44.7 L269.8,48.1 L295.5,46.8 L321.2,41.5 L347.0,43.1 L372.7,49.2 L398.4,43.1 L424.1,51.4 L449.9,56.2 L475.6,43.7 L501.3,51.6 L527.0,55.5 L552.8,51.2 L578.5,55.0 L604.2,34.0 L629.9,47.8 L655.7,73.3 L681.4,102.4 L707.1,106.2 L732.8,98.1 L758.6,103.3 L784.3,104.0 L810.0,98.7" fill="none" stroke="#4477AA" stroke-width="1.6"/><circle cx="64.0" cy="47.0" r="2" fill="#4477AA"/><circle cx="89.7" cy="58.7" r="2" fill="#4477AA"/><circle cx="115.4" cy="52.6" r="2" fill="#4477AA"/><circle cx="141.2" cy="41.7" r="2" fill="#4477AA"/><circle cx="166.9" cy="50.9" r="2" fill="#4477AA"/><circle cx="192.6" cy="42.5" r="2" fill="#4477AA"/><circle cx="218.3" cy="53.1" r="2" fill="#4477AA"/><circle cx="244.1" cy="44.7" r="2" fill="#4477AA"/><circle cx="269.8" cy="48.1" r="2" fill="#4477AA"/><circle cx="295.5" cy="46.8" r="2" fill="#4477AA"/><circle cx="321.2" cy="41.5" r="2" fill="#4477AA"/><circle cx="347.0" cy="43.1" r="2" fill="#4477AA"/><circle cx="372.7" cy="49.2" r="2" fill="#4477AA"/><circle cx="398.4" cy="43.1" r="2" fill="#4477AA"/><circle cx="424.1" cy="51.4" r="2" fill="#4477AA"/><circle cx="449.9" cy="56.2" r="2" fill="#4477AA"/><circle cx="475.6" cy="43.7" r="2" fill="#4477AA"/><circle cx="501.3" cy="51.6" r="2" fill="#4477AA"/><circle cx="527.0" cy="55.5" r="2" fill="#4477AA"/><circle cx="552.8" cy="51.2" r="2" fill="#4477AA"/><circle cx="578.5" cy="55.0" r="2" fill="#4477AA"/><circle cx="604.2" cy="34.0" r="2" fill="#4477AA"/><circle cx="629.9" cy="47.8" r="2" fill="#4477AA"/><circle cx="655.7" cy="73.3" r="2" fill="#4477AA"/><circle cx="681.4" cy="102.4" r="2" fill="#4477AA"/><circle cx="707.1" cy="106.2" r="2" fill="#4477AA"/><circle cx="732.8" cy="98.1" r="2" fill="#4477AA"/><circle cx="758.6" cy="103.3" r="2" fill="#4477AA"/><circle cx="784.3" cy="104.0" r="2" fill="#4477AA"/><circle cx="810.0" cy="98.7" r="2" fill="#4477AA"/><rect x="820" y="34" width="10" height="10" fill="#4477AA"/><text x="834" y="43" font-size="10" fill="#444">chain-10</text><path d="M64.0,69.8 L89.7,64.8 L115.4,54.5 L141.2,58.5 L166.9,55.1 L192.6,62.7 L218.3,61.6 L244.1,54.8 L269.8,64.9 L295.5,62.4 L321.2,60.7 L347.0,67.6 L372.7,62.4 L398.4,60.2 L424.1,67.3 L449.9,58.4 L475.6,68.9 L501.3,69.9 L527.0,66.6 L552.8,64.7 L578.5,59.7 L604.2,56.1 L629.9,61.2 L655.7,62.5 L681.4,106.6 L707.1,107.2 L732.8,104.8 L758.6,101.3 L784.3,105.0 L810.0,106.5" fill="none" stroke="#EE6677" stroke-width="1.6"/><circle cx="64.0" cy="69.8" r="2" fill="#EE6677"/><circle cx="89.7" cy="64.8" r="2" fill="#EE6677"/><circle cx="115.4" cy="54.5" r="2" fill="#EE6677"/><circle cx="141.2" cy="58.5" r="2" fill="#EE6677"/><circle cx="166.9" cy="55.1" r="2" fill="#EE6677"/><circle cx="192.6" cy="62.7" r="2" fill="#EE6677"/><circle cx="218.3" cy="61.6" r="2" fill="#EE6677"/><circle cx="244.1" cy="54.8" r="2" fill="#EE6677"/><circle cx="269.8" cy="64.9" r="2" fill="#EE6677"/><circle cx="295.5" cy="62.4" r="2" fill="#EE6677"/><circle cx="321.2" cy="60.7" r="2" fill="#EE6677"/><circle cx="347.0" cy="67.6" r="2" fill="#EE6677"/><circle cx="372.7" cy="62.4" r="2" fill="#EE6677"/><circle cx="398.4" cy="60.2" r="2" fill="#EE6677"/><circle cx="424.1" cy="67.3" r="2" fill="#EE6677"/><circle cx="449.9" cy="58.4" r="2" fill="#EE6677"/><circle cx="475.6" cy="68.9" r="2" fill="#EE6677"/><circle cx="501.3" cy="69.9" r="2" fill="#EE6677"/><circle cx="527.0" cy="66.6" r="2" fill="#EE6677"/><circle cx="552.8" cy="64.7" r="2" fill="#EE6677"/><circle cx="578.5" cy="59.7" r="2" fill="#EE6677"/><circle cx="604.2" cy="56.1" r="2" fill="#EE6677"/><circle cx="629.9" cy="61.2" r="2" fill="#EE6677"/><circle cx="655.7" cy="62.5" r="2" fill="#EE6677"/><circle cx="681.4" cy="106.6" r="2" fill="#EE6677"/><circle cx="707.1" cy="107.2" r="2" fill="#EE6677"/><circle cx="732.8" cy="104.8" r="2" fill="#EE6677"/><circle cx="758.6" cy="101.3" r="2" fill="#EE6677"/><circle cx="784.3" cy="105.0" r="2" fill="#EE6677"/><circle cx="810.0" cy="106.5" r="2" fill="#EE6677"/><rect x="820" y="49" width="10" height="10" fill="#EE6677"/><text x="834" y="58" font-size="10" fill="#444">chain-50</text><path d="M64.0,78.9 L89.7,78.1 L115.4,77.0 L141.2,77.3 L166.9,74.1 L192.6,74.4 L218.3,84.4 L244.1,79.2 L269.8,78.5 L295.5,77.8 L321.2,80.6 L347.0,82.6 L372.7,75.3 L398.4,82.7 L424.1,82.3 L449.9,79.6 L475.6,81.1 L501.3,82.7 L527.0,79.8 L552.8,78.1 L578.5,80.3 L604.2,60.9 L629.9,78.9 L655.7,76.3 L681.4,128.1 L707.1,126.4 L732.8,127.5 L758.6,128.2 L784.3,125.3 L810.0,124.1" fill="none" stroke="#228833" stroke-width="1.6"/><circle cx="64.0" cy="78.9" r="2" fill="#228833"/><circle cx="89.7" cy="78.1" r="2" fill="#228833"/><circle cx="115.4" cy="77.0" r="2" fill="#228833"/><circle cx="141.2" cy="77.3" r="2" fill="#228833"/><circle cx="166.9" cy="74.1" r="2" fill="#228833"/><circle cx="192.6" cy="74.4" r="2" fill="#228833"/><circle cx="218.3" cy="84.4" r="2" fill="#228833"/><circle cx="244.1" cy="79.2" r="2" fill="#228833"/><circle cx="269.8" cy="78.5" r="2" fill="#228833"/><circle cx="295.5" cy="77.8" r="2" fill="#228833"/><circle cx="321.2" cy="80.6" r="2" fill="#228833"/><circle cx="347.0" cy="82.6" r="2" fill="#228833"/><circle cx="372.7" cy="75.3" r="2" fill="#228833"/><circle cx="398.4" cy="82.7" r="2" fill="#228833"/><circle cx="424.1" cy="82.3" r="2" fill="#228833"/><circle cx="449.9" cy="79.6" r="2" fill="#228833"/><circle cx="475.6" cy="81.1" r="2" fill="#228833"/><circle cx="501.3" cy="82.7" r="2" fill="#228833"/><circle cx="527.0" cy="79.8" r="2" fill="#228833"/><circle cx="552.8" cy="78.1" r="2" fill="#228833"/><circle cx="578.5" cy="80.3" r="2" fill="#228833"/><circle cx="604.2" cy="60.9" r="2" fill="#228833"/><circle cx="629.9" cy="78.9" r="2" fill="#228833"/><circle cx="655.7" cy="76.3" r="2" fill="#228833"/><circle cx="681.4" cy="128.1" r="2" fill="#228833"/><circle cx="707.1" cy="126.4" r="2" fill="#228833"/><circle cx="732.8" cy="127.5" r="2" fill="#228833"/><circle cx="758.6" cy="128.2" r="2" fill="#228833"/><circle cx="784.3" cy="125.3" r="2" fill="#228833"/><circle cx="810.0" cy="124.1" r="2" fill="#228833"/><rect x="820" y="64" width="10" height="10" fill="#228833"/><text x="834" y="73" font-size="10" fill="#444">chain-200</text><path d="M64.0,95.0 L89.7,96.2 L115.4,92.5 L141.2,95.8 L166.9,93.7 L192.6,93.9 L218.3,90.7 L244.1,94.8 L269.8,97.8 L295.5,93.6 L321.2,93.8 L347.0,93.5 L372.7,93.8 L398.4,97.3 L424.1,94.4 L449.9,96.3 L475.6,96.4 L501.3,97.6 L527.0,93.9 L552.8,92.6 L578.5,91.8 L604.2,81.7 L629.9,104.4 L655.7,97.0 L681.4,150.2 L707.1,145.7 L732.8,144.9 L758.6,152.0 L784.3,151.0 L810.0,148.0" fill="none" stroke="#CCBB44" stroke-width="1.6"/><circle cx="64.0" cy="95.0" r="2" fill="#CCBB44"/><circle cx="89.7" cy="96.2" r="2" fill="#CCBB44"/><circle cx="115.4" cy="92.5" r="2" fill="#CCBB44"/><circle cx="141.2" cy="95.8" r="2" fill="#CCBB44"/><circle cx="166.9" cy="93.7" r="2" fill="#CCBB44"/><circle cx="192.6" cy="93.9" r="2" fill="#CCBB44"/><circle cx="218.3" cy="90.7" r="2" fill="#CCBB44"/><circle cx="244.1" cy="94.8" r="2" fill="#CCBB44"/><circle cx="269.8" cy="97.8" r="2" fill="#CCBB44"/><circle cx="295.5" cy="93.6" r="2" fill="#CCBB44"/><circle cx="321.2" cy="93.8" r="2" fill="#CCBB44"/><circle cx="347.0" cy="93.5" r="2" fill="#CCBB44"/><circle cx="372.7" cy="93.8" r="2" fill="#CCBB44"/><circle cx="398.4" cy="97.3" r="2" fill="#CCBB44"/><circle cx="424.1" cy="94.4" r="2" fill="#CCBB44"/><circle cx="449.9" cy="96.3" r="2" fill="#CCBB44"/><circle cx="475.6" cy="96.4" r="2" fill="#CCBB44"/><circle cx="501.3" cy="97.6" r="2" fill="#CCBB44"/><circle cx="527.0" cy="93.9" r="2" fill="#CCBB44"/><circle cx="552.8" cy="92.6" r="2" fill="#CCBB44"/><circle cx="578.5" cy="91.8" r="2" fill="#CCBB44"/><circle cx="604.2" cy="81.7" r="2" fill="#CCBB44"/><circle cx="629.9" cy="104.4" r="2" fill="#CCBB44"/><circle cx="655.7" cy="97.0" r="2" fill="#CCBB44"/><circle cx="681.4" cy="150.2" r="2" fill="#CCBB44"/><circle cx="707.1" cy="145.7" r="2" fill="#CCBB44"/><circle cx="732.8" cy="144.9" r="2" fill="#CCBB44"/><circle cx="758.6" cy="152.0" r="2" fill="#CCBB44"/><circle cx="784.3" cy="151.0" r="2" fill="#CCBB44"/><circle cx="810.0" cy="148.0" r="2" fill="#CCBB44"/><rect x="820" y="79" width="10" height="10" fill="#CCBB44"/><text x="834" y="88" font-size="10" fill="#444">chain-1000</text><path d="M64.0,54.3 L89.7,70.5 L115.4,65.9 L141.2,46.8 L166.9,54.2 L192.6,47.4 L218.3,65.9 L244.1,50.0 L269.8,56.3 L295.5,54.9 L321.2,43.6 L347.0,48.0 L372.7,61.0 L398.4,47.8 L424.1,59.2 L449.9,63.9 L475.6,47.9 L501.3,60.6 L527.0,67.2 L552.8,56.2 L578.5,65.5 L604.2,43.1 L629.9,55.5 L655.7,84.5 L681.4,94.9 L707.1,105.2 L732.8,92.0 L758.6,98.9 L784.3,100.7 L810.0,91.7" fill="none" stroke="#66CCEE" stroke-width="1.6"/><circle cx="64.0" cy="54.3" r="2" fill="#66CCEE"/><circle cx="89.7" cy="70.5" r="2" fill="#66CCEE"/><circle cx="115.4" cy="65.9" r="2" fill="#66CCEE"/><circle cx="141.2" cy="46.8" r="2" fill="#66CCEE"/><circle cx="166.9" cy="54.2" r="2" fill="#66CCEE"/><circle cx="192.6" cy="47.4" r="2" fill="#66CCEE"/><circle cx="218.3" cy="65.9" r="2" fill="#66CCEE"/><circle cx="244.1" cy="50.0" r="2" fill="#66CCEE"/><circle cx="269.8" cy="56.3" r="2" fill="#66CCEE"/><circle cx="295.5" cy="54.9" r="2" fill="#66CCEE"/><circle cx="321.2" cy="43.6" r="2" fill="#66CCEE"/><circle cx="347.0" cy="48.0" r="2" fill="#66CCEE"/><circle cx="372.7" cy="61.0" r="2" fill="#66CCEE"/><circle cx="398.4" cy="47.8" r="2" fill="#66CCEE"/><circle cx="424.1" cy="59.2" r="2" fill="#66CCEE"/><circle cx="449.9" cy="63.9" r="2" fill="#66CCEE"/><circle cx="475.6" cy="47.9" r="2" fill="#66CCEE"/><circle cx="501.3" cy="60.6" r="2" fill="#66CCEE"/><circle cx="527.0" cy="67.2" r="2" fill="#66CCEE"/><circle cx="552.8" cy="56.2" r="2" fill="#66CCEE"/><circle cx="578.5" cy="65.5" r="2" fill="#66CCEE"/><circle cx="604.2" cy="43.1" r="2" fill="#66CCEE"/><circle cx="629.9" cy="55.5" r="2" fill="#66CCEE"/><circle cx="655.7" cy="84.5" r="2" fill="#66CCEE"/><circle cx="681.4" cy="94.9" r="2" fill="#66CCEE"/><circle cx="707.1" cy="105.2" r="2" fill="#66CCEE"/><circle cx="732.8" cy="92.0" r="2" fill="#66CCEE"/><circle cx="758.6" cy="98.9" r="2" fill="#66CCEE"/><circle cx="784.3" cy="100.7" r="2" fill="#66CCEE"/><circle cx="810.0" cy="91.7" r="2" fill="#66CCEE"/><rect x="820" y="94" width="10" height="10" fill="#66CCEE"/><text x="834" y="103" font-size="10" fill="#444">dense-10</text><path d="M64.0,91.8 L89.7,91.0 L115.4,74.9 L141.2,78.1 L166.9,77.8 L192.6,82.8 L218.3,86.2 L244.1,74.4 L269.8,89.1 L295.5,80.3 L321.2,85.1 L347.0,91.0 L372.7,92.3 L398.4,88.2 L424.1,91.5 L449.9,78.3 L475.6,100.1 L501.3,101.6 L527.0,98.1 L552.8,98.3 L578.5,84.6 L604.2,82.7 L629.9,83.0 L655.7,89.2 L681.4,116.3 L707.1,117.0 L732.8,117.7 L758.6,110.6 L784.3,114.1 L810.0,113.9" fill="none" stroke="#AA3377" stroke-width="1.6"/><circle cx="64.0" cy="91.8" r="2" fill="#AA3377"/><circle cx="89.7" cy="91.0" r="2" fill="#AA3377"/><circle cx="115.4" cy="74.9" r="2" fill="#AA3377"/><circle cx="141.2" cy="78.1" r="2" fill="#AA3377"/><circle cx="166.9" cy="77.8" r="2" fill="#AA3377"/><circle cx="192.6" cy="82.8" r="2" fill="#AA3377"/><circle cx="218.3" cy="86.2" r="2" fill="#AA3377"/><circle cx="244.1" cy="74.4" r="2" fill="#AA3377"/><circle cx="269.8" cy="89.1" r="2" fill="#AA3377"/><circle cx="295.5" cy="80.3" r="2" fill="#AA3377"/><circle cx="321.2" cy="85.1" r="2" fill="#AA3377"/><circle cx="347.0" cy="91.0" r="2" fill="#AA3377"/><circle cx="372.7" cy="92.3" r="2" fill="#AA3377"/><circle cx="398.4" cy="88.2" r="2" fill="#AA3377"/><circle cx="424.1" cy="91.5" r="2" fill="#AA3377"/><circle cx="449.9" cy="78.3" r="2" fill="#AA3377"/><circle cx="475.6" cy="100.1" r="2" fill="#AA3377"/><circle cx="501.3" cy="101.6" r="2" fill="#AA3377"/><circle cx="527.0" cy="98.1" r="2" fill="#AA3377"/><circle cx="552.8" cy="98.3" r="2" fill="#AA3377"/><circle cx="578.5" cy="84.6" r="2" fill="#AA3377"/><circle cx="604.2" cy="82.7" r="2" fill="#AA3377"/><circle cx="629.9" cy="83.0" r="2" fill="#AA3377"/><circle cx="655.7" cy="89.2" r="2" fill="#AA3377"/><circle cx="681.4" cy="116.3" r="2" fill="#AA3377"/><circle cx="707.1" cy="117.0" r="2" fill="#AA3377"/><circle cx="732.8" cy="117.7" r="2" fill="#AA3377"/><circle cx="758.6" cy="110.6" r="2" fill="#AA3377"/><circle cx="784.3" cy="114.1" r="2" fill="#AA3377"/><circle cx="810.0" cy="113.9" r="2" fill="#AA3377"/><rect x="820" y="109" width="10" height="10" fill="#AA3377"/><text x="834" y="118" font-size="10" fill="#444">dense-50</text><path d="M64.0,124.9 L89.7,121.8 L115.4,121.5 L141.2,123.5 L166.9,118.7 L192.6,120.7 L218.3,126.0 L244.1,125.2 L269.8,124.2 L295.5,120.1 L321.2,125.2 L347.0,127.1 L372.7,122.9 L398.4,129.6 L424.1,123.1 L449.9,126.4 L475.6,123.8 L501.3,128.9 L527.0,122.7 L552.8,124.4 L578.5,125.9 L604.2,111.5 L629.9,124.5 L655.7,120.1 L681.4,153.8 L707.1,154.6 L732.8,153.3 L758.6,155.7 L784.3,153.1 L810.0,153.2" fill="none" stroke="#BBBBBB" stroke-width="1.6"/><circle cx="64.0" cy="124.9" r="2" fill="#BBBBBB"/><circle cx="89.7" cy="121.8" r="2" fill="#BBBBBB"/><circle cx="115.4" cy="121.5" r="2" fill="#BBBBBB"/><circle cx="141.2" cy="123.5" r="2" fill="#BBBBBB"/><circle cx="166.9" cy="118.7" r="2" fill="#BBBBBB"/><circle cx="192.6" cy="120.7" r="2" fill="#BBBBBB"/><circle cx="218.3" cy="126.0" r="2" fill="#BBBBBB"/><circle cx="244.1" cy="125.2" r="2" fill="#BBBBBB"/><circle cx="269.8" cy="124.2" r="2" fill="#BBBBBB"/><circle cx="295.5" cy="120.1" r="2" fill="#BBBBBB"/><circle cx="321.2" cy="125.2" r="2" fill="#BBBBBB"/><circle cx="347.0" cy="127.1" r="2" fill="#BBBBBB"/><circle cx="372.7" cy="122.9" r="2" fill="#BBBBBB"/><circle cx="398.4" cy="129.6" r="2" fill="#BBBBBB"/><circle cx="424.1" cy="123.1" r="2" fill="#BBBBBB"/><circle cx="449.9" cy="126.4" r="2" fill="#BBBBBB"/><circle cx="475.6" cy="123.8" r="2" fill="#BBBBBB"/><circle cx="501.3" cy="128.9" r="2" fill="#BBBBBB"/><circle cx="527.0" cy="122.7" r="2" fill="#BBBBBB"/><circle cx="552.8" cy="124.4" r="2" fill="#BBBBBB"/><circle cx="578.5" cy="125.9" r="2" fill="#BBBBBB"/><circle cx="604.2" cy="111.5" r="2" fill="#BBBBBB"/><circle cx="629.9" cy="124.5" r="2" fill="#BBBBBB"/><circle cx="655.7" cy="120.1" r="2" fill="#BBBBBB"/><circle cx="681.4" cy="153.8" r="2" fill="#BBBBBB"/><circle cx="707.1" cy="154.6" r="2" fill="#BBBBBB"/><circle cx="732.8" cy="153.3" r="2" fill="#BBBBBB"/><circle cx="758.6" cy="155.7" r="2" fill="#BBBBBB"/><circle cx="784.3" cy="153.1" r="2" fill="#BBBBBB"/><circle cx="810.0" cy="153.2" r="2" fill="#BBBBBB"/><rect x="820" y="124" width="10" height="10" fill="#BBBBBB"/><text x="834" y="133" font-size="10" fill="#444">dense-200</text><path d="M64.0,82.6 L89.7,76.8 L115.4,74.4 L141.2,69.2 L166.9,68.2 L192.6,79.6 L218.3,70.6 L244.1,64.7 L269.8,88.6 L295.5,72.5 L321.2,73.1 L347.0,80.3 L372.7,82.7 L398.4,74.6 L424.1,79.2 L449.9,62.3 L475.6,88.4 L501.3,82.2 L527.0,82.3 L552.8,78.1 L578.5,79.5 L604.2,73.9 L629.9,70.5 L655.7,75.4 L681.4,100.2 L707.1,107.2 L732.8,100.2 L758.6,100.9 L784.3,100.8 L810.0,101.0" fill="none" stroke="#222255" stroke-width="1.6"/><circle cx="64.0" cy="82.6" r="2" fill="#222255"/><circle cx="89.7" cy="76.8" r="2" fill="#222255"/><circle cx="115.4" cy="74.4" r="2" fill="#222255"/><circle cx="141.2" cy="69.2" r="2" fill="#222255"/><circle cx="166.9" cy="68.2" r="2" fill="#222255"/><circle cx="192.6" cy="79.6" r="2" fill="#222255"/><circle cx="218.3" cy="70.6" r="2" fill="#222255"/><circle cx="244.1" cy="64.7" r="2" fill="#222255"/><circle cx="269.8" cy="88.6" r="2" fill="#222255"/><circle cx="295.5" cy="72.5" r="2" fill="#222255"/><circle cx="321.2" cy="73.1" r="2" fill="#222255"/><circle cx="347.0" cy="80.3" r="2" fill="#222255"/><circle cx="372.7" cy="82.7" r="2" fill="#222255"/><circle cx="398.4" cy="74.6" r="2" fill="#222255"/><circle cx="424.1" cy="79.2" r="2" fill="#222255"/><circle cx="449.9" cy="62.3" r="2" fill="#222255"/><circle cx="475.6" cy="88.4" r="2" fill="#222255"/><circle cx="501.3" cy="82.2" r="2" fill="#222255"/><circle cx="527.0" cy="82.3" r="2" fill="#222255"/><circle cx="552.8" cy="78.1" r="2" fill="#222255"/><circle cx="578.5" cy="79.5" r="2" fill="#222255"/><circle cx="604.2" cy="73.9" r="2" fill="#222255"/><circle cx="629.9" cy="70.5" r="2" fill="#222255"/><circle cx="655.7" cy="75.4" r="2" fill="#222255"/><circle cx="681.4" cy="100.2" r="2" fill="#222255"/><circle cx="707.1" cy="107.2" r="2" fill="#222255"/><circle cx="732.8" cy="100.2" r="2" fill="#222255"/><circle cx="758.6" cy="100.9" r="2" fill="#222255"/><circle cx="784.3" cy="100.8" r="2" fill="#222255"/><circle cx="810.0" cy="101.0" r="2" fill="#222255"/><rect x="820" y="139" width="10" height="10" fill="#222255"/><text x="834" y="148" font-size="10" fill="#444">hub-50</text><path d="M64.0,80.8 L89.7,91.2 L115.4,83.7 L141.2,79.8 L166.9,88.3 L192.6,83.2 L218.3,97.6 L244.1,86.4 L269.8,85.9 L295.5,84.8 L321.2,85.8 L347.0,91.8 L372.7,80.7 L398.4,93.3 L424.1,82.2 L449.9,91.9 L475.6,98.6 L501.3,92.5 L527.0,95.4 L552.8,79.6 L578.5,94.3 L604.2,64.6 L629.9,91.8 L655.7,80.8 L681.4,123.0 L707.1,122.1 L732.8,118.1 L758.6,119.4 L784.3,118.7 L810.0,122.4" fill="none" stroke="#225555" stroke-width="1.6"/><circle cx="64.0" cy="80.8" r="2" fill="#225555"/><circle cx="89.7" cy="91.2" r="2" fill="#225555"/><circle cx="115.4" cy="83.7" r="2" fill="#225555"/><circle cx="141.2" cy="79.8" r="2" fill="#225555"/><circle cx="166.9" cy="88.3" r="2" fill="#225555"/><circle cx="192.6" cy="83.2" r="2" fill="#225555"/><circle cx="218.3" cy="97.6" r="2" fill="#225555"/><circle cx="244.1" cy="86.4" r="2" fill="#225555"/><circle cx="269.8" cy="85.9" r="2" fill="#225555"/><circle cx="295.5" cy="84.8" r="2" fill="#225555"/><circle cx="321.2" cy="85.8" r="2" fill="#225555"/><circle cx="347.0" cy="91.8" r="2" fill="#225555"/><circle cx="372.7" cy="80.7" r="2" fill="#225555"/><circle cx="398.4" cy="93.3" r="2" fill="#225555"/><circle cx="424.1" cy="82.2" r="2" fill="#225555"/><circle cx="449.9" cy="91.9" r="2" fill="#225555"/><circle cx="475.6" cy="98.6" r="2" fill="#225555"/><circle cx="501.3" cy="92.5" r="2" fill="#225555"/><circle cx="527.0" cy="95.4" r="2" fill="#225555"/><circle cx="552.8" cy="79.6" r="2" fill="#225555"/><circle cx="578.5" cy="94.3" r="2" fill="#225555"/><circle cx="604.2" cy="64.6" r="2" fill="#225555"/><circle cx="629.9" cy="91.8" r="2" fill="#225555"/><circle cx="655.7" cy="80.8" r="2" fill="#225555"/><circle cx="681.4" cy="123.0" r="2" fill="#225555"/><circle cx="707.1" cy="122.1" r="2" fill="#225555"/><circle cx="732.8" cy="118.1" r="2" fill="#225555"/><circle cx="758.6" cy="119.4" r="2" fill="#225555"/><circle cx="784.3" cy="118.7" r="2" fill="#225555"/><circle cx="810.0" cy="122.4" r="2" fill="#225555"/><rect x="820" y="154" width="10" height="10" fill="#225555"/><text x="834" y="163" font-size="10" fill="#444">hub-200</text><path d="M64.0,319.1 L89.7,321.7 L115.4,321.3 L141.2,324.0 L166.9,321.9 L192.6,320.9 L218.3,322.8 L244.1,321.8 L269.8,321.4 L295.5,321.1 L321.2,320.9 L347.0,322.1 L372.7,320.1 L398.4,322.6 L424.1,320.1 L449.9,321.1 L475.6,250.8 L501.3,249.2 L527.0,251.1 L552.8,243.3 L578.5,250.0 L604.2,230.1 L629.9,249.7 L655.7,242.2 L681.4,232.2 L707.1,231.5 L732.8,227.8 L758.6,229.5 L784.3,228.5 L810.0,229.1" fill="none" stroke="#552222" stroke-width="1.6"/><circle cx="64.0" cy="319.1" r="2" fill="#552222"/><circle cx="89.7" cy="321.7" r="2" fill="#552222"/><circle cx="115.4" cy="321.3" r="2" fill="#552222"/><circle cx="141.2" cy="324.0" r="2" fill="#552222"/><circle cx="166.9" cy="321.9" r="2" fill="#552222"/><circle cx="192.6" cy="320.9" r="2" fill="#552222"/><circle cx="218.3" cy="322.8" r="2" fill="#552222"/><circle cx="244.1" cy="321.8" r="2" fill="#552222"/><circle cx="269.8" cy="321.4" r="2" fill="#552222"/><circle cx="295.5" cy="321.1" r="2" fill="#552222"/><circle cx="321.2" cy="320.9" r="2" fill="#552222"/><circle cx="347.0" cy="322.1" r="2" fill="#552222"/><circle cx="372.7" cy="320.1" r="2" fill="#552222"/><circle cx="398.4" cy="322.6" r="2" fill="#552222"/><circle cx="424.1" cy="320.1" r="2" fill="#552222"/><circle cx="449.9" cy="321.1" r="2" fill="#552222"/><circle cx="475.6" cy="250.8" r="2" fill="#552222"/><circle cx="501.3" cy="249.2" r="2" fill="#552222"/><circle cx="527.0" cy="251.1" r="2" fill="#552222"/><circle cx="552.8" cy="243.3" r="2" fill="#552222"/><circle cx="578.5" cy="250.0" r="2" fill="#552222"/><circle cx="604.2" cy="230.1" r="2" fill="#552222"/><circle cx="629.9" cy="249.7" r="2" fill="#552222"/><circle cx="655.7" cy="242.2" r="2" fill="#552222"/><circle cx="681.4" cy="232.2" r="2" fill="#552222"/><circle cx="707.1" cy="231.5" r="2" fill="#552222"/><circle cx="732.8" cy="227.8" r="2" fill="#552222"/><circle cx="758.6" cy="229.5" r="2" fill="#552222"/><circle cx="784.3" cy="228.5" r="2" fill="#552222"/><circle cx="810.0" cy="229.1" r="2" fill="#552222"/><rect x="820" y="169" width="10" height="10" fill="#552222"/><text x="834" y="178" font-size="10" fill="#444">hooked-200</text><path d="M64.0,79.8 L89.7,80.7 L115.4,84.9 L141.2,68.6 L166.9,81.2 L192.6,91.9 L218.3,58.7 L244.1,72.3 L269.8,82.2 L295.5,64.3 L321.2,80.1 L347.0,72.5 L372.7,85.1 L398.4,71.0 L424.1,85.5 L449.9,95.3 L475.6,70.5 L501.3,66.3 L527.0,65.5 L552.8,75.8 L578.5,69.2 L604.2,82.1 L629.9,81.7 L655.7,85.4 L681.4,139.4 L707.1,118.2 L732.8,137.1 L758.6,129.3 L784.3,122.5 L810.0,119.1" fill="none" stroke="#555522" stroke-width="1.6"/><circle cx="64.0" cy="79.8" r="2" fill="#555522"/><circle cx="89.7" cy="80.7" r="2" fill="#555522"/><circle cx="115.4" cy="84.9" r="2" fill="#555522"/><circle cx="141.2" cy="68.6" r="2" fill="#555522"/><circle cx="166.9" cy="81.2" r="2" fill="#555522"/><circle cx="192.6" cy="91.9" r="2" fill="#555522"/><circle cx="218.3" cy="58.7" r="2" fill="#555522"/><circle cx="244.1" cy="72.3" r="2" fill="#555522"/><circle cx="269.8" cy="82.2" r="2" fill="#555522"/><circle cx="295.5" cy="64.3" r="2" fill="#555522"/><circle cx="321.2" cy="80.1" r="2" fill="#555522"/><circle cx="347.0" cy="72.5" r="2" fill="#555522"/><circle cx="372.7" cy="85.1" r="2" fill="#555522"/><circle cx="398.4" cy="71.0" r="2" fill="#555522"/><circle cx="424.1" cy="85.5" r="2" fill="#555522"/><circle cx="449.9" cy="95.3" r="2" fill="#555522"/><circle cx="475.6" cy="70.5" r="2" fill="#555522"/><circle cx="501.3" cy="66.3" r="2" fill="#555522"/><circle cx="527.0" cy="65.5" r="2" fill="#555522"/><circle cx="552.8" cy="75.8" r="2" fill="#555522"/><circle cx="578.5" cy="69.2" r="2" fill="#555522"/><circle cx="604.2" cy="82.1" r="2" fill="#555522"/><circle cx="629.9" cy="81.7" r="2" fill="#555522"/><circle cx="655.7" cy="85.4" r="2" fill="#555522"/><circle cx="681.4" cy="139.4" r="2" fill="#555522"/><circle cx="707.1" cy="118.2" r="2" fill="#555522"/><circle cx="732.8" cy="137.1" r="2" fill="#555522"/><circle cx="758.6" cy="129.3" r="2" fill="#555522"/><circle cx="784.3" cy="122.5" r="2" fill="#555522"/><circle cx="810.0" cy="119.1" r="2" fill="#555522"/><rect x="820" y="184" width="10" height="10" fill="#555522"/><text x="834" y="193" font-size="10" fill="#444">messy-1000</text><path d="M64.0,84.2 L89.7,79.7 L115.4,71.5 L141.2,63.5 L166.9,56.8 L192.6,56.0 L218.3,62.9 L244.1,78.4 L269.8,65.7 L295.5,88.0 L321.2,79.1 L347.0,81.1 L372.7,76.5 L398.4,91.4 L424.1,74.5 L449.9,76.5 L475.6,67.4 L501.3,75.7 L527.0,80.6 L552.8,75.9 L578.5,92.5 L604.2,66.2 L629.9,45.8 L655.7,79.7 L681.4,129.9 L707.1,111.3 L732.8,107.6 L758.6,106.5 L784.3,104.8 L810.0,119.0" fill="none" stroke="#8855AA" stroke-width="1.6"/><circle cx="64.0" cy="84.2" r="2" fill="#8855AA"/><circle cx="89.7" cy="79.7" r="2" fill="#8855AA"/><circle cx="115.4" cy="71.5" r="2" fill="#8855AA"/><circle cx="141.2" cy="63.5" r="2" fill="#8855AA"/><circle cx="166.9" cy="56.8" r="2" fill="#8855AA"/><circle cx="192.6" cy="56.0" r="2" fill="#8855AA"/><circle cx="218.3" cy="62.9" r="2" fill="#8855AA"/><circle cx="244.1" cy="78.4" r="2" fill="#8855AA"/><circle cx="269.8" cy="65.7" r="2" fill="#8855AA"/><circle cx="295.5" cy="88.0" r="2" fill="#8855AA"/><circle cx="321.2" cy="79.1" r="2" fill="#8855AA"/><circle cx="347.0" cy="81.1" r="2" fill="#8855AA"/><circle cx="372.7" cy="76.5" r="2" fill="#8855AA"/><circle cx="398.4" cy="91.4" r="2" fill="#8855AA"/><circle cx="424.1" cy="74.5" r="2" fill="#8855AA"/><circle cx="449.9" cy="76.5" r="2" fill="#8855AA"/><circle cx="475.6" cy="67.4" r="2" fill="#8855AA"/><circle cx="501.3" cy="75.7" r="2" fill="#8855AA"/><circle cx="527.0" cy="80.6" r="2" fill="#8855AA"/><circle cx="552.8" cy="75.9" r="2" fill="#8855AA"/><circle cx="578.5" cy="92.5" r="2" fill="#8855AA"/><circle cx="604.2" cy="66.2" r="2" fill="#8855AA"/><circle cx="629.9" cy="45.8" r="2" fill="#8855AA"/><circle cx="655.7" cy="79.7" r="2" fill="#8855AA"/><circle cx="681.4" cy="129.9" r="2" fill="#8855AA"/><circle cx="707.1" cy="111.3" r="2" fill="#8855AA"/><circle cx="732.8" cy="107.6" r="2" fill="#8855AA"/><circle cx="758.6" cy="106.5" r="2" fill="#8855AA"/><circle cx="784.3" cy="104.8" r="2" fill="#8855AA"/><circle cx="810.0" cy="119.0" r="2" fill="#8855AA"/><rect x="820" y="199" width="10" height="10" fill="#8855AA"/><text x="834" y="208" font-size="10" fill="#444">messy-5000</text></svg>