<svg width="1480" height="1640" xmlns="http://www.w3.org/2000/svg" font-family="system-ui,sans-serif">
<rect width="1480" height="1640" fill="#ffffff"/>
<text x="16" y="24" font-size="17" font-weight="bold" fill="#1a1a1a">jssm performance trend — graviton runners (perf_results branch)</text>
<text x="16" y="44" font-size="11" fill="#666">0 measured PRs and 1 measured releases (v5.145.4 → v5.145.4) (latest jssm 5.145.4). Source: StoneCypher/jssm branch perf_results, instance c8g.medium. Data through 20260623-105354.</text>
<g transform="translate(0 56)"><rect width="720" height="372" fill="#ffffff"/><text x="64" y="20" font-size="15" font-weight="bold" fill="#333">construct() — ops/sec (log scale) by PR / release, c8g.medium</text><line x1="64" y1="306.5" x2="570" y2="306.5" stroke="#d8d8d8"/><line x1="64" y1="296.3" x2="570" y2="296.3" stroke="#d8d8d8"/><line x1="64" y1="289.1" x2="570" y2="289.1" stroke="#d8d8d8"/><line x1="64" y1="283.5" x2="570" y2="283.5" stroke="#d8d8d8"/><line x1="64" y1="278.9" x2="570" y2="278.9" stroke="#d8d8d8"/><line x1="64" y1="275.0" x2="570" y2="275.0" stroke="#d8d8d8"/><line x1="64" y1="271.6" x2="570" y2="271.6" stroke="#d8d8d8"/><line x1="64" y1="268.7" x2="570" y2="268.7" stroke="#d8d8d8"/><line x1="64" y1="248.5" x2="570" y2="248.5" stroke="#d8d8d8"/><line x1="64" y1="238.3" x2="570" y2="238.3" stroke="#d8d8d8"/><line x1="64" y1="231.1" x2="570" y2="231.1" stroke="#d8d8d8"/><line x1="64" y1="225.5" x2="570" y2="225.5" stroke="#d8d8d8"/><line x1="64" y1="220.9" x2="570" y2="220.9" stroke="#d8d8d8"/><line x1="64" y1="217.0" x2="570" y2="217.0" stroke="#d8d8d8"/><line x1="64" y1="213.6" x2="570" y2="213.6" stroke="#d8d8d8"/><line x1="64" y1="210.7" x2="570" y2="210.7" stroke="#d8d8d8"/><line x1="64" y1="190.5" x2="570" y2="190.5" stroke="#d8d8d8"/><line x1="64" y1="180.3" x2="570" y2="180.3" stroke="#d8d8d8"/><line x1="64" y1="173.1" x2="570" y2="173.1" stroke="#d8d8d8"/><line x1="64" y1="167.5" x2="570" y2="167.5" stroke="#d8d8d8"/><line x1="64" y1="162.9" x2="570" y2="162.9" stroke="#d8d8d8"/><line x1="64" y1="159.0" x2="570" y2="159.0" stroke="#d8d8d8"/><line x1="64" y1="155.6" x2="570" y2="155.6" stroke="#d8d8d8"/><line x1="64" y1="152.7" x2="570" y2="152.7" stroke="#d8d8d8"/><line x1="64" y1="132.5" x2="570" y2="132.5" stroke="#d8d8d8"/><line x1="64" y1="122.3" x2="570" y2="122.3" stroke="#d8d8d8"/><line x1="64" y1="115.1" x2="570" y2="115.1" stroke="#d8d8d8"/><line x1="64" y1="109.5" x2="570" y2="109.5" stroke="#d8d8d8"/><line x1="64" y1="104.9" x2="570" y2="104.9" stroke="#d8d8d8"/><line x1="64" y1="101.0" x2="570" y2="101.0" stroke="#d8d8d8"/><line x1="64" y1="97.6" x2="570" y2="97.6" stroke="#d8d8d8"/><line x1="64" y1="94.7" x2="570" y2="94.7" stroke="#d8d8d8"/><line x1="64" y1="74.5" x2="570" y2="74.5" stroke="#d8d8d8"/><line x1="64" y1="64.3" x2="570" y2="64.3" stroke="#d8d8d8"/><line x1="64" y1="57.1" x2="570" y2="57.1" stroke="#d8d8d8"/><line x1="64" y1="51.5" x2="570" y2="51.5" stroke="#d8d8d8"/><line x1="64" y1="46.9" x2="570" y2="46.9" stroke="#d8d8d8"/><line x1="64" y1="43.0" x2="570" y2="43.0" stroke="#d8d8d8"/><line x1="64" y1="39.6" x2="570" y2="39.6" stroke="#d8d8d8"/><line x1="64" y1="36.7" x2="570" y2="36.7" stroke="#d8d8d8"/><line x1="64.0" y1="34" x2="64.0" y2="324" stroke="#d0d0d0"/><line x1="64" y1="324" x2="570" y2="324" stroke="#b0b0b0"/><text x="58" y="328" font-size="10" text-anchor="end" fill="#888">1e0</text><line x1="64" y1="266" x2="570" y2="266" stroke="#b0b0b0"/><text x="58" y="270" font-size="10" text-anchor="end" fill="#888">1e1</text><line x1="64" y1="208" x2="570" y2="208" stroke="#b0b0b0"/><text x="58" y="212" font-size="10" text-anchor="end" fill="#888">1e2</text><line x1="64" y1="150" x2="570" y2="150" stroke="#b0b0b0"/><text x="58" y="154" font-size="10" text-anchor="end" fill="#888">1e3</text><line x1="64" y1="92" x2="570" y2="92" stroke="#b0b0b0"/><text x="58" y="96" font-size="10" text-anchor="end" fill="#888">1e4</text><line x1="64" y1="34" x2="570" y2="34" stroke="#b0b0b0"/><text x="58" y="38" font-size="10" text-anchor="end" fill="#888">1e5</text><text x="64.0" y="327.2" font-size="4" text-anchor="end" fill="#aa4400" transform="rotate(-80 64.0 327.2)">v5.145.4</text><circle cx="64.0" cy="82.7" r="2" fill="#4477AA"/><rect x="580" y="34" width="10" height="10" fill="#4477AA"/><text x="594" y="43" font-size="10" fill="#444">chain-10</text><circle cx="64.0" cy="112.2" r="2" fill="#EE6677"/><rect x="580" y="49" width="10" height="10" fill="#EE6677"/><text x="594" y="58" font-size="10" fill="#444">chain-50</text><circle cx="64.0" cy="144.4" r="2" fill="#228833"/><rect x="580" y="64" width="10" height="10" fill="#228833"/><text x="594" y="73" font-size="10" fill="#444">chain-200</text><circle cx="64.0" cy="185.1" r="2" fill="#CCBB44"/><rect x="580" y="79" width="10" height="10" fill="#CCBB44"/><text x="594" y="88" font-size="10" fill="#444">chain-1000</text><circle cx="64.0" cy="118.7" r="2" fill="#66CCEE"/><rect x="580" y="94" width="10" height="10" fill="#66CCEE"/><text x="594" y="103" font-size="10" fill="#444">dense-10</text><circle cx="64.0" cy="200.8" r="2" fill="#AA3377"/><rect x="580" y="109" width="10" height="10" fill="#AA3377"/><text x="594" y="118" font-size="10" fill="#444">dense-50</text><circle cx="64.0" cy="278.9" r="2" fill="#BBBBBB"/><rect x="580" y="124" width="10" height="10" fill="#BBBBBB"/><text x="594" y="133" font-size="10" fill="#444">dense-200</text><circle cx="64.0" cy="125.8" r="2" fill="#222255"/><rect x="580" y="139" width="10" height="10" fill="#222255"/><text x="594" y="148" font-size="10" fill="#444">hub-50</text><circle cx="64.0" cy="159.1" r="2" fill="#225555"/><rect x="580" y="154" width="10" height="10" fill="#225555"/><text x="594" y="163" font-size="10" fill="#444">hub-200</text><circle cx="64.0" cy="158.8" r="2" fill="#552222"/><rect x="580" y="169" width="10" height="10" fill="#552222"/><text x="594" y="178" font-size="10" fill="#444">hooked-200</text><circle cx="64.0" cy="210.7" r="2" fill="#555522"/><rect x="580" y="184" width="10" height="10" fill="#555522"/><text x="594" y="193" font-size="10" fill="#444">messy-1000</text><circle cx="64.0" cy="254.2" r="2" fill="#8855AA"/><rect x="580" y="199" width="10" height="10" fill="#8855AA"/><text x="594" y="208" font-size="10" fill="#444">messy-5000</text></g>
<g transform="translate(760 56)"><rect width="720" height="372" fill="#ffffff"/><text x="64" y="20" font-size="15" font-weight="bold" fill="#333">transition() — ops/sec (log scale) by PR / release, c8g.medium</text><line x1="64" y1="309.5" x2="570" y2="309.5" stroke="#d8d8d8"/><line x1="64" y1="300.9" x2="570" y2="300.9" stroke="#d8d8d8"/><line x1="64" y1="294.9" x2="570" y2="294.9" stroke="#d8d8d8"/><line x1="64" y1="290.2" x2="570" y2="290.2" stroke="#d8d8d8"/><line x1="64" y1="286.4" x2="570" y2="286.4" stroke="#d8d8d8"/><line x1="64" y1="283.2" x2="570" y2="283.2" stroke="#d8d8d8"/><line x1="64" y1="280.4" x2="570" y2="280.4" stroke="#d8d8d8"/><line x1="64" y1="277.9" x2="570" y2="277.9" stroke="#d8d8d8"/><line x1="64" y1="261.1" x2="570" y2="261.1" stroke="#d8d8d8"/><line x1="64" y1="252.6" x2="570" y2="252.6" stroke="#d8d8d8"/><line x1="64" y1="246.6" x2="570" y2="246.6" stroke="#d8d8d8"/><line x1="64" y1="241.9" x2="570" y2="241.9" stroke="#d8d8d8"/><line x1="64" y1="238.1" x2="570" y2="238.1" stroke="#d8d8d8"/><line x1="64" y1="234.8" x2="570" y2="234.8" stroke="#d8d8d8"/><line x1="64" y1="232.0" x2="570" y2="232.0" stroke="#d8d8d8"/><line x1="64" y1="229.5" x2="570" y2="229.5" stroke="#d8d8d8"/><line x1="64" y1="212.8" x2="570" y2="212.8" stroke="#d8d8d8"/><line x1="64" y1="204.3" x2="570" y2="204.3" stroke="#d8d8d8"/><line x1="64" y1="198.2" x2="570" y2="198.2" stroke="#d8d8d8"/><line x1="64" y1="193.5" x2="570" y2="193.5" stroke="#d8d8d8"/><line x1="64" y1="189.7" x2="570" y2="189.7" stroke="#d8d8d8"/><line x1="64" y1="186.5" x2="570" y2="186.5" stroke="#d8d8d8"/><line x1="64" y1="183.7" x2="570" y2="183.7" stroke="#d8d8d8"/><line x1="64" y1="181.2" x2="570" y2="181.2" stroke="#d8d8d8"/><line x1="64" y1="164.5" x2="570" y2="164.5" stroke="#d8d8d8"/><line x1="64" y1="155.9" x2="570" y2="155.9" stroke="#d8d8d8"/><line x1="64" y1="149.9" x2="570" y2="149.9" stroke="#d8d8d8"/><line x1="64" y1="145.2" x2="570" y2="145.2" stroke="#d8d8d8"/><line x1="64" y1="141.4" x2="570" y2="141.4" stroke="#d8d8d8"/><line x1="64" y1="138.2" x2="570" y2="138.2" stroke="#d8d8d8"/><line x1="64" y1="135.4" x2="570" y2="135.4" stroke="#d8d8d8"/><line x1="64" y1="132.9" x2="570" y2="132.9" stroke="#d8d8d8"/><line x1="64" y1="116.1" x2="570" y2="116.1" stroke="#d8d8d8"/><line x1="64" y1="107.6" x2="570" y2="107.6" stroke="#d8d8d8"/><line x1="64" y1="101.6" x2="570" y2="101.6" stroke="#d8d8d8"/><line x1="64" y1="96.9" x2="570" y2="96.9" stroke="#d8d8d8"/><line x1="64" y1="93.1" x2="570" y2="93.1" stroke="#d8d8d8"/><line x1="64" y1="89.8" x2="570" y2="89.8" stroke="#d8d8d8"/><line x1="64" y1="87.0" x2="570" y2="87.0" stroke="#d8d8d8"/><line x1="64" y1="84.5" x2="570" y2="84.5" stroke="#d8d8d8"/><line x1="64" y1="67.8" x2="570" y2="67.8" stroke="#d8d8d8"/><line x1="64" y1="59.3" x2="570" y2="59.3" stroke="#d8d8d8"/><line x1="64" y1="53.2" x2="570" y2="53.2" stroke="#d8d8d8"/><line x1="64" y1="48.5" x2="570" y2="48.5" stroke="#d8d8d8"/><line x1="64" y1="44.7" x2="570" y2="44.7" stroke="#d8d8d8"/><line x1="64" y1="41.5" x2="570" y2="41.5" stroke="#d8d8d8"/><line x1="64" y1="38.7" x2="570" y2="38.7" stroke="#d8d8d8"/><line x1="64" y1="36.2" x2="570" y2="36.2" stroke="#d8d8d8"/><line x1="64.0" y1="34" x2="64.0" y2="324" stroke="#d0d0d0"/><line x1="64" y1="324" x2="570" y2="324" stroke="#b0b0b0"/><text x="58" y="328" font-size="10" text-anchor="end" fill="#888">1e0</text><line x1="64" y1="275.6666666666667" x2="570" y2="275.6666666666667" stroke="#b0b0b0"/><text x="58" y="279.6666666666667" font-size="10" text-anchor="end" fill="#888">1e1</text><line x1="64" y1="227.33333333333334" x2="570" y2="227.33333333333334" stroke="#b0b0b0"/><text x="58" y="231.33333333333334" font-size="10" text-anchor="end" fill="#888">1e2</text><line x1="64" y1="179" x2="570" y2="179" stroke="#b0b0b0"/><text x="58" y="183" font-size="10" text-anchor="end" fill="#888">1e3</text><line x1="64" y1="130.66666666666669" x2="570" y2="130.66666666666669" stroke="#b0b0b0"/><text x="58" y="134.66666666666669" font-size="10" text-anchor="end" fill="#888">1e4</text><line x1="64" y1="82.33333333333331" x2="570" y2="82.33333333333331" stroke="#b0b0b0"/><text x="58" y="86.33333333333331" font-size="10" text-anchor="end" fill="#888">1e5</text><line x1="64" y1="34" x2="570" y2="34" stroke="#b0b0b0"/><text x="58" y="38" font-size="10" text-anchor="end" fill="#888">1e6</text><text x="64.0" y="327.2" font-size="4" text-anchor="end" fill="#aa4400" transform="rotate(-80 64.0 327.2)">v5.145.4</text><circle cx="64.0" cy="73.1" r="2" fill="#4477AA"/><rect x="580" y="34" width="10" height="10" fill="#4477AA"/><text x="594" y="43" font-size="10" fill="#444">chain-10</text><circle cx="64.0" cy="74.7" r="2" fill="#EE6677"/><rect x="580" y="49" width="10" height="10" fill="#EE6677"/><text x="594" y="58" font-size="10" fill="#444">chain-50</text><circle cx="64.0" cy="75.5" r="2" fill="#228833"/><rect x="580" y="64" width="10" height="10" fill="#228833"/><text x="594" y="73" font-size="10" fill="#444">chain-200</text><circle cx="64.0" cy="78.1" r="2" fill="#CCBB44"/><rect x="580" y="79" width="10" height="10" fill="#CCBB44"/><text x="594" y="88" font-size="10" fill="#444">chain-1000</text><circle cx="64.0" cy="73.5" r="2" fill="#66CCEE"/><rect x="580" y="94" width="10" height="10" fill="#66CCEE"/><text x="594" y="103" font-size="10" fill="#444">dense-10</text><circle cx="64.0" cy="77.2" r="2" fill="#AA3377"/><rect x="580" y="109" width="10" height="10" fill="#AA3377"/><text x="594" y="118" font-size="10" fill="#444">dense-50</text><circle cx="64.0" cy="79.9" r="2" fill="#BBBBBB"/><rect x="580" y="124" width="10" height="10" fill="#BBBBBB"/><text x="594" y="133" font-size="10" fill="#444">dense-200</text><circle cx="64.0" cy="75.8" r="2" fill="#222255"/><rect x="580" y="139" width="10" height="10" fill="#222255"/><text x="594" y="148" font-size="10" fill="#444">hub-50</text><circle cx="64.0" cy="76.8" r="2" fill="#225555"/><rect x="580" y="154" width="10" height="10" fill="#225555"/><text x="594" y="163" font-size="10" fill="#444">hub-200</text><circle cx="64.0" cy="93.1" r="2" fill="#552222"/><rect x="580" y="169" width="10" height="10" fill="#552222"/><text x="594" y="178" font-size="10" fill="#444">hooked-200</text><circle cx="64.0" cy="74.8" r="2" fill="#555522"/><rect x="580" y="184" width="10" height="10" fill="#555522"/><text x="594" y="193" font-size="10" fill="#444">messy-1000</text><circle cx="64.0" cy="75.3" r="2" fill="#8855AA"/><rect x="580" y="199" width="10" height="10" fill="#8855AA"/><text x="594" y="208" font-size="10" fill="#444">messy-5000</text></g>
<g transform="translate(0 460)"><rect width="720" height="372" fill="#ffffff"/><text x="64" y="20" font-size="15" font-weight="bold" fill="#333">action() — ops/sec (log scale) by PR / release, c8g.medium</text><line x1="64" y1="309.5" x2="570" y2="309.5" stroke="#d8d8d8"/><line x1="64" y1="300.9" x2="570" y2="300.9" stroke="#d8d8d8"/><line x1="64" y1="294.9" x2="570" y2="294.9" stroke="#d8d8d8"/><line x1="64" y1="290.2" x2="570" y2="290.2" stroke="#d8d8d8"/><line x1="64" y1="286.4" x2="570" y2="286.4" stroke="#d8d8d8"/><line x1="64" y1="283.2" x2="570" y2="283.2" stroke="#d8d8d8"/><line x1="64" y1="280.4" x2="570" y2="280.4" stroke="#d8d8d8"/><line x1="64" y1="277.9" x2="570" y2="277.9" stroke="#d8d8d8"/><line x1="64" y1="261.1" x2="570" y2="261.1" stroke="#d8d8d8"/><line x1="64" y1="252.6" x2="570" y2="252.6" stroke="#d8d8d8"/><line x1="64" y1="246.6" x2="570" y2="246.6" stroke="#d8d8d8"/><line x1="64" y1="241.9" x2="570" y2="241.9" stroke="#d8d8d8"/><line x1="64" y1="238.1" x2="570" y2="238.1" stroke="#d8d8d8"/><line x1="64" y1="234.8" x2="570" y2="234.8" stroke="#d8d8d8"/><line x1="64" y1="232.0" x2="570" y2="232.0" stroke="#d8d8d8"/><line x1="64" y1="229.5" x2="570" y2="229.5" stroke="#d8d8d8"/><line x1="64" y1="212.8" x2="570" y2="212.8" stroke="#d8d8d8"/><line x1="64" y1="204.3" x2="570" y2="204.3" stroke="#d8d8d8"/><line x1="64" y1="198.2" x2="570" y2="198.2" stroke="#d8d8d8"/><line x1="64" y1="193.5" x2="570" y2="193.5" stroke="#d8d8d8"/><line x1="64" y1="189.7" x2="570" y2="189.7" stroke="#d8d8d8"/><line x1="64" y1="186.5" x2="570" y2="186.5" stroke="#d8d8d8"/><line x1="64" y1="183.7" x2="570" y2="183.7" stroke="#d8d8d8"/><line x1="64" y1="181.2" x2="570" y2="181.2" stroke="#d8d8d8"/><line x1="64" y1="164.5" x2="570" y2="164.5" stroke="#d8d8d8"/><line x1="64" y1="155.9" x2="570" y2="155.9" stroke="#d8d8d8"/><line x1="64" y1="149.9" x2="570" y2="149.9" stroke="#d8d8d8"/><line x1="64" y1="145.2" x2="570" y2="145.2" stroke="#d8d8d8"/><line x1="64" y1="141.4" x2="570" y2="141.4" stroke="#d8d8d8"/><line x1="64" y1="138.2" x2="570" y2="138.2" stroke="#d8d8d8"/><line x1="64" y1="135.4" x2="570" y2="135.4" stroke="#d8d8d8"/><line x1="64" y1="132.9" x2="570" y2="132.9" stroke="#d8d8d8"/><line x1="64" y1="116.1" x2="570" y2="116.1" stroke="#d8d8d8"/><line x1="64" y1="107.6" x2="570" y2="107.6" stroke="#d8d8d8"/><line x1="64" y1="101.6" x2="570" y2="101.6" stroke="#d8d8d8"/><line x1="64" y1="96.9" x2="570" y2="96.9" stroke="#d8d8d8"/><line x1="64" y1="93.1" x2="570" y2="93.1" stroke="#d8d8d8"/><line x1="64" y1="89.8" x2="570" y2="89.8" stroke="#d8d8d8"/><line x1="64" y1="87.0" x2="570" y2="87.0" stroke="#d8d8d8"/><line x1="64" y1="84.5" x2="570" y2="84.5" stroke="#d8d8d8"/><line x1="64" y1="67.8" x2="570" y2="67.8" stroke="#d8d8d8"/><line x1="64" y1="59.3" x2="570" y2="59.3" stroke="#d8d8d8"/><line x1="64" y1="53.2" x2="570" y2="53.2" stroke="#d8d8d8"/><line x1="64" y1="48.5" x2="570" y2="48.5" stroke="#d8d8d8"/><line x1="64" y1="44.7" x2="570" y2="44.7" stroke="#d8d8d8"/><line x1="64" y1="41.5" x2="570" y2="41.5" stroke="#d8d8d8"/><line x1="64" y1="38.7" x2="570" y2="38.7" stroke="#d8d8d8"/><line x1="64" y1="36.2" x2="570" y2="36.2" stroke="#d8d8d8"/><line x1="64.0" y1="34" x2="64.0" y2="324" stroke="#d0d0d0"/><line x1="64" y1="324" x2="570" y2="324" stroke="#b0b0b0"/><text x="58" y="328" font-size="10" text-anchor="end" fill="#888">1e0</text><line x1="64" y1="275.6666666666667" x2="570" y2="275.6666666666667" stroke="#b0b0b0"/><text x="58" y="279.6666666666667" font-size="10" text-anchor="end" fill="#888">1e1</text><line x1="64" y1="227.33333333333334" x2="570" y2="227.33333333333334" stroke="#b0b0b0"/><text x="58" y="231.33333333333334" font-size="10" text-anchor="end" fill="#888">1e2</text><line x1="64" y1="179" x2="570" y2="179" stroke="#b0b0b0"/><text x="58" y="183" font-size="10" text-anchor="end" fill="#888">1e3</text><line x1="64" y1="130.66666666666669" x2="570" y2="130.66666666666669" stroke="#b0b0b0"/><text x="58" y="134.66666666666669" font-size="10" text-anchor="end" fill="#888">1e4</text><line x1="64" y1="82.33333333333331" x2="570" y2="82.33333333333331" stroke="#b0b0b0"/><text x="58" y="86.33333333333331" font-size="10" text-anchor="end" fill="#888">1e5</text><line x1="64" y1="34" x2="570" y2="34" stroke="#b0b0b0"/><text x="58" y="38" font-size="10" text-anchor="end" fill="#888">1e6</text><text x="64.0" y="327.2" font-size="4" text-anchor="end" fill="#aa4400" transform="rotate(-80 64.0 327.2)">v5.145.4</text><circle cx="64.0" cy="76.6" r="2" fill="#4477AA"/><rect x="580" y="34" width="10" height="10" fill="#4477AA"/><text x="594" y="43" font-size="10" fill="#444">chain-10</text><circle cx="64.0" cy="77.7" r="2" fill="#EE6677"/><rect x="580" y="49" width="10" height="10" fill="#EE6677"/><text x="594" y="58" font-size="10" fill="#444">chain-50</text><circle cx="64.0" cy="78.5" r="2" fill="#228833"/><rect x="580" y="64" width="10" height="10" fill="#228833"/><text x="594" y="73" font-size="10" fill="#444">chain-200</text><circle cx="64.0" cy="81.4" r="2" fill="#CCBB44"/><rect x="580" y="79" width="10" height="10" fill="#CCBB44"/><text x="594" y="88" font-size="10" fill="#444">chain-1000</text><circle cx="64.0" cy="77.6" r="2" fill="#66CCEE"/><rect x="580" y="94" width="10" height="10" fill="#66CCEE"/><text x="594" y="103" font-size="10" fill="#444">dense-10</text><circle cx="64.0" cy="80.8" r="2" fill="#AA3377"/><rect x="580" y="109" width="10" height="10" fill="#AA3377"/><text x="594" y="118" font-size="10" fill="#444">dense-50</text><circle cx="64.0" cy="86.0" r="2" fill="#BBBBBB"/><rect x="580" y="124" width="10" height="10" fill="#BBBBBB"/><text x="594" y="133" font-size="10" fill="#444">dense-200</text><circle cx="64.0" cy="77.3" r="2" fill="#222255"/><rect x="580" y="139" width="10" height="10" fill="#222255"/><text x="594" y="148" font-size="10" fill="#444">hub-50</text><circle cx="64.0" cy="78.9" r="2" fill="#225555"/><rect x="580" y="154" width="10" height="10" fill="#225555"/><text x="594" y="163" font-size="10" fill="#444">hub-200</text><circle cx="64.0" cy="100.3" r="2" fill="#552222"/><rect x="580" y="169" width="10" height="10" fill="#552222"/><text x="594" y="178" font-size="10" fill="#444">hooked-200</text></g>
<g transform="translate(760 460)"><rect width="720" height="372" fill="#ffffff"/><text x="64" y="20" font-size="15" font-weight="bold" fill="#333">edges_between() — ops/sec (log scale) by PR / release, c8g.medium</text><line x1="64" y1="309.5" x2="570" y2="309.5" stroke="#d8d8d8"/><line x1="64" y1="300.9" x2="570" y2="300.9" stroke="#d8d8d8"/><line x1="64" y1="294.9" x2="570" y2="294.9" stroke="#d8d8d8"/><line x1="64" y1="290.2" x2="570" y2="290.2" stroke="#d8d8d8"/><line x1="64" y1="286.4" x2="570" y2="286.4" stroke="#d8d8d8"/><line x1="64" y1="283.2" x2="570" y2="283.2" stroke="#d8d8d8"/><line x1="64" y1="280.4" x2="570" y2="280.4" stroke="#d8d8d8"/><line x1="64" y1="277.9" x2="570" y2="277.9" stroke="#d8d8d8"/><line x1="64" y1="261.1" x2="570" y2="261.1" stroke="#d8d8d8"/><line x1="64" y1="252.6" x2="570" y2="252.6" stroke="#d8d8d8"/><line x1="64" y1="246.6" x2="570" y2="246.6" stroke="#d8d8d8"/><line x1="64" y1="241.9" x2="570" y2="241.9" stroke="#d8d8d8"/><line x1="64" y1="238.1" x2="570" y2="238.1" stroke="#d8d8d8"/><line x1="64" y1="234.8" x2="570" y2="234.8" stroke="#d8d8d8"/><line x1="64" y1="232.0" x2="570" y2="232.0" stroke="#d8d8d8"/><line x1="64" y1="229.5" x2="570" y2="229.5" stroke="#d8d8d8"/><line x1="64" y1="212.8" x2="570" y2="212.8" stroke="#d8d8d8"/><line x1="64" y1="204.3" x2="570" y2="204.3" stroke="#d8d8d8"/><line x1="64" y1="198.2" x2="570" y2="198.2" stroke="#d8d8d8"/><line x1="64" y1="193.5" x2="570" y2="193.5" stroke="#d8d8d8"/><line x1="64" y1="189.7" x2="570" y2="189.7" stroke="#d8d8d8"/><line x1="64" y1="186.5" x2="570" y2="186.5" stroke="#d8d8d8"/><line x1="64" y1="183.7" x2="570" y2="183.7" stroke="#d8d8d8"/><line x1="64" y1="181.2" x2="570" y2="181.2" stroke="#d8d8d8"/><line x1="64" y1="164.5" x2="570" y2="164.5" stroke="#d8d8d8"/><line x1="64" y1="155.9" x2="570" y2="155.9" stroke="#d8d8d8"/><line x1="64" y1="149.9" x2="570" y2="149.9" stroke="#d8d8d8"/><line x1="64" y1="145.2" x2="570" y2="145.2" stroke="#d8d8d8"/><line x1="64" y1="141.4" x2="570" y2="141.4" stroke="#d8d8d8"/><line x1="64" y1="138.2" x2="570" y2="138.2" stroke="#d8d8d8"/><line x1="64" y1="135.4" x2="570" y2="135.4" stroke="#d8d8d8"/><line x1="64" y1="132.9" x2="570" y2="132.9" stroke="#d8d8d8"/><line x1="64" y1="116.1" x2="570" y2="116.1" stroke="#d8d8d8"/><line x1="64" y1="107.6" x2="570" y2="107.6" stroke="#d8d8d8"/><line x1="64" y1="101.6" x2="570" y2="101.6" stroke="#d8d8d8"/><line x1="64" y1="96.9" x2="570" y2="96.9" stroke="#d8d8d8"/><line x1="64" y1="93.1" x2="570" y2="93.1" stroke="#d8d8d8"/><line x1="64" y1="89.8" x2="570" y2="89.8" stroke="#d8d8d8"/><line x1="64" y1="87.0" x2="570" y2="87.0" stroke="#d8d8d8"/><line x1="64" y1="84.5" x2="570" y2="84.5" stroke="#d8d8d8"/><line x1="64" y1="67.8" x2="570" y2="67.8" stroke="#d8d8d8"/><line x1="64" y1="59.3" x2="570" y2="59.3" stroke="#d8d8d8"/><line x1="64" y1="53.2" x2="570" y2="53.2" stroke="#d8d8d8"/><line x1="64" y1="48.5" x2="570" y2="48.5" stroke="#d8d8d8"/><line x1="64" y1="44.7" x2="570" y2="44.7" stroke="#d8d8d8"/><line x1="64" y1="41.5" x2="570" y2="41.5" stroke="#d8d8d8"/><line x1="64" y1="38.7" x2="570" y2="38.7" stroke="#d8d8d8"/><line x1="64" y1="36.2" x2="570" y2="36.2" stroke="#d8d8d8"/><line x1="64.0" y1="34" x2="64.0" y2="324" stroke="#d0d0d0"/><line x1="64" y1="324" x2="570" y2="324" stroke="#b0b0b0"/><text x="58" y="328" font-size="10" text-anchor="end" fill="#888">1e0</text><line x1="64" y1="275.6666666666667" x2="570" y2="275.6666666666667" stroke="#b0b0b0"/><text x="58" y="279.6666666666667" font-size="10" text-anchor="end" fill="#888">1e1</text><line x1="64" y1="227.33333333333334" x2="570" y2="227.33333333333334" stroke="#b0b0b0"/><text x="58" y="231.33333333333334" font-size="10" text-anchor="end" fill="#888">1e2</text><line x1="64" y1="179" x2="570" y2="179" stroke="#b0b0b0"/><text x="58" y="183" font-size="10" text-anchor="end" fill="#888">1e3</text><line x1="64" y1="130.66666666666669" x2="570" y2="130.66666666666669" stroke="#b0b0b0"/><text x="58" y="134.66666666666669" font-size="10" text-anchor="end" fill="#888">1e4</text><line x1="64" y1="82.33333333333331" x2="570" y2="82.33333333333331" stroke="#b0b0b0"/><text x="58" y="86.33333333333331" font-size="10" text-anchor="end" fill="#888">1e5</text><line x1="64" y1="34" x2="570" y2="34" stroke="#b0b0b0"/><text x="58" y="38" font-size="10" text-anchor="end" fill="#888">1e6</text><text x="64.0" y="327.2" font-size="4" text-anchor="end" fill="#aa4400" transform="rotate(-80 64.0 327.2)">v5.145.4</text><circle cx="64.0" cy="66.6" r="2" fill="#4477AA"/><rect x="580" y="34" width="10" height="10" fill="#4477AA"/><text x="594" y="43" font-size="10" fill="#444">chain-10</text><circle cx="64.0" cy="69.1" r="2" fill="#EE6677"/><rect x="580" y="49" width="10" height="10" fill="#EE6677"/><text x="594" y="58" font-size="10" fill="#444">chain-50</text><circle cx="64.0" cy="69.2" r="2" fill="#228833"/><rect x="580" y="64" width="10" height="10" fill="#228833"/><text x="594" y="73" font-size="10" fill="#444">chain-200</text><circle cx="64.0" cy="70.1" r="2" fill="#CCBB44"/><rect x="580" y="79" width="10" height="10" fill="#CCBB44"/><text x="594" y="88" font-size="10" fill="#444">chain-1000</text><circle cx="64.0" cy="89.5" r="2" fill="#66CCEE"/><rect x="580" y="94" width="10" height="10" fill="#66CCEE"/><text x="594" y="103" font-size="10" fill="#444">dense-10</text><circle cx="64.0" cy="122.5" r="2" fill="#AA3377"/><rect x="580" y="109" width="10" height="10" fill="#AA3377"/><text x="594" y="118" font-size="10" fill="#444">dense-50</text><circle cx="64.0" cy="151.9" r="2" fill="#BBBBBB"/><rect x="580" y="124" width="10" height="10" fill="#BBBBBB"/><text x="594" y="133" font-size="10" fill="#444">dense-200</text><circle cx="64.0" cy="106.5" r="2" fill="#222255"/><rect x="580" y="139" width="10" height="10" fill="#222255"/><text x="594" y="148" font-size="10" fill="#444">hub-50</text><circle cx="64.0" cy="133.6" r="2" fill="#225555"/><rect x="580" y="154" width="10" height="10" fill="#225555"/><text x="594" y="163" font-size="10" fill="#444">hub-200</text><circle cx="64.0" cy="132.1" r="2" fill="#552222"/><rect x="580" y="169" width="10" height="10" fill="#552222"/><text x="594" y="178" font-size="10" fill="#444">hooked-200</text><circle cx="64.0" cy="75.9" r="2" fill="#555522"/><rect x="580" y="184" width="10" height="10" fill="#555522"/><text x="594" y="193" font-size="10" fill="#444">messy-1000</text><circle cx="64.0" cy="76.1" r="2" fill="#8855AA"/><rect x="580" y="199" width="10" height="10" fill="#8855AA"/><text x="594" y="208" font-size="10" fill="#444">messy-5000</text></g>
<g transform="translate(0 864)"><rect width="720" height="372" fill="#ffffff"/><text x="64" y="20" font-size="15" font-weight="bold" fill="#333">has_state() — ops/sec (log scale) by PR / release, c8g.medium</text><line x1="64" y1="313.1" x2="570" y2="313.1" stroke="#d8d8d8"/><line x1="64" y1="306.7" x2="570" y2="306.7" stroke="#d8d8d8"/><line x1="64" y1="302.2" x2="570" y2="302.2" stroke="#d8d8d8"/><line x1="64" y1="298.7" x2="570" y2="298.7" stroke="#d8d8d8"/><line x1="64" y1="295.8" x2="570" y2="295.8" stroke="#d8d8d8"/><line x1="64" y1="293.4" x2="570" y2="293.4" stroke="#d8d8d8"/><line x1="64" y1="291.3" x2="570" y2="291.3" stroke="#d8d8d8"/><line x1="64" y1="289.4" x2="570" y2="289.4" stroke="#d8d8d8"/><line x1="64" y1="276.8" x2="570" y2="276.8" stroke="#d8d8d8"/><line x1="64" y1="270.5" x2="570" y2="270.5" stroke="#d8d8d8"/><line x1="64" y1="265.9" x2="570" y2="265.9" stroke="#d8d8d8"/><line x1="64" y1="262.4" x2="570" y2="262.4" stroke="#d8d8d8"/><line x1="64" y1="259.5" x2="570" y2="259.5" stroke="#d8d8d8"/><line x1="64" y1="257.1" x2="570" y2="257.1" stroke="#d8d8d8"/><line x1="64" y1="255.0" x2="570" y2="255.0" stroke="#d8d8d8"/><line x1="64" y1="253.2" x2="570" y2="253.2" stroke="#d8d8d8"/><line x1="64" y1="240.6" x2="570" y2="240.6" stroke="#d8d8d8"/><line x1="64" y1="234.2" x2="570" y2="234.2" stroke="#d8d8d8"/><line x1="64" y1="229.7" x2="570" y2="229.7" stroke="#d8d8d8"/><line x1="64" y1="226.2" x2="570" y2="226.2" stroke="#d8d8d8"/><line x1="64" y1="223.3" x2="570" y2="223.3" stroke="#d8d8d8"/><line x1="64" y1="220.9" x2="570" y2="220.9" stroke="#d8d8d8"/><line x1="64" y1="218.8" x2="570" y2="218.8" stroke="#d8d8d8"/><line x1="64" y1="216.9" x2="570" y2="216.9" stroke="#d8d8d8"/><line x1="64" y1="204.3" x2="570" y2="204.3" stroke="#d8d8d8"/><line x1="64" y1="198.0" x2="570" y2="198.0" stroke="#d8d8d8"/><line x1="64" y1="193.4" x2="570" y2="193.4" stroke="#d8d8d8"/><line x1="64" y1="189.9" x2="570" y2="189.9" stroke="#d8d8d8"/><line x1="64" y1="187.0" x2="570" y2="187.0" stroke="#d8d8d8"/><line x1="64" y1="184.6" x2="570" y2="184.6" stroke="#d8d8d8"/><line x1="64" y1="182.5" x2="570" y2="182.5" stroke="#d8d8d8"/><line x1="64" y1="180.7" x2="570" y2="180.7" stroke="#d8d8d8"/><line x1="64" y1="168.1" x2="570" y2="168.1" stroke="#d8d8d8"/><line x1="64" y1="161.7" x2="570" y2="161.7" stroke="#d8d8d8"/><line x1="64" y1="157.2" x2="570" y2="157.2" stroke="#d8d8d8"/><line x1="64" y1="153.7" x2="570" y2="153.7" stroke="#d8d8d8"/><line x1="64" y1="150.8" x2="570" y2="150.8" stroke="#d8d8d8"/><line x1="64" y1="148.4" x2="570" y2="148.4" stroke="#d8d8d8"/><line x1="64" y1="146.3" x2="570" y2="146.3" stroke="#d8d8d8"/><line x1="64" y1="144.4" x2="570" y2="144.4" stroke="#d8d8d8"/><line x1="64" y1="131.8" x2="570" y2="131.8" stroke="#d8d8d8"/><line x1="64" y1="125.5" x2="570" y2="125.5" stroke="#d8d8d8"/><line x1="64" y1="120.9" x2="570" y2="120.9" stroke="#d8d8d8"/><line x1="64" y1="117.4" x2="570" y2="117.4" stroke="#d8d8d8"/><line x1="64" y1="114.5" x2="570" y2="114.5" stroke="#d8d8d8"/><line x1="64" y1="112.1" x2="570" y2="112.1" stroke="#d8d8d8"/><line x1="64" y1="110.0" x2="570" y2="110.0" stroke="#d8d8d8"/><line x1="64" y1="108.2" x2="570" y2="108.2" stroke="#d8d8d8"/><line x1="64" y1="95.6" x2="570" y2="95.6" stroke="#d8d8d8"/><line x1="64" y1="89.2" x2="570" y2="89.2" stroke="#d8d8d8"/><line x1="64" y1="84.7" x2="570" y2="84.7" stroke="#d8d8d8"/><line x1="64" y1="81.2" x2="570" y2="81.2" stroke="#d8d8d8"/><line x1="64" y1="78.3" x2="570" y2="78.3" stroke="#d8d8d8"/><line x1="64" y1="75.9" x2="570" y2="75.9" stroke="#d8d8d8"/><line x1="64" y1="73.8" x2="570" y2="73.8" stroke="#d8d8d8"/><line x1="64" y1="71.9" x2="570" y2="71.9" stroke="#d8d8d8"/><line x1="64" y1="59.3" x2="570" y2="59.3" stroke="#d8d8d8"/><line x1="64" y1="53.0" x2="570" y2="53.0" stroke="#d8d8d8"/><line x1="64" y1="48.4" x2="570" y2="48.4" stroke="#d8d8d8"/><line x1="64" y1="44.9" x2="570" y2="44.9" stroke="#d8d8d8"/><line x1="64" y1="42.0" x2="570" y2="42.0" stroke="#d8d8d8"/><line x1="64" y1="39.6" x2="570" y2="39.6" stroke="#d8d8d8"/><line x1="64" y1="37.5" x2="570" y2="37.5" stroke="#d8d8d8"/><line x1="64" y1="35.7" x2="570" y2="35.7" stroke="#d8d8d8"/><line x1="64.0" y1="34" x2="64.0" y2="324" stroke="#d0d0d0"/><line x1="64" y1="324" x2="570" y2="324" stroke="#b0b0b0"/><text x="58" y="328" font-size="10" text-anchor="end" fill="#888">1e0</text><line x1="64" y1="287.75" x2="570" y2="287.75" stroke="#b0b0b0"/><text x="58" y="291.75" font-size="10" text-anchor="end" fill="#888">1e1</text><line x1="64" y1="251.5" x2="570" y2="251.5" stroke="#b0b0b0"/><text x="58" y="255.5" font-size="10" text-anchor="end" fill="#888">1e2</text><line x1="64" y1="215.25" x2="570" y2="215.25" stroke="#b0b0b0"/><text x="58" y="219.25" font-size="10" text-anchor="end" fill="#888">1e3</text><line x1="64" y1="179" x2="570" y2="179" stroke="#b0b0b0"/><text x="58" y="183" font-size="10" text-anchor="end" fill="#888">1e4</text><line x1="64" y1="142.75" x2="570" y2="142.75" stroke="#b0b0b0"/><text x="58" y="146.75" font-size="10" text-anchor="end" fill="#888">1e5</text><line x1="64" y1="106.5" x2="570" y2="106.5" stroke="#b0b0b0"/><text x="58" y="110.5" font-size="10" text-anchor="end" fill="#888">1e6</text><line x1="64" y1="70.25" x2="570" y2="70.25" stroke="#b0b0b0"/><text x="58" y="74.25" font-size="10" text-anchor="end" fill="#888">1e7</text><line x1="64" y1="34" x2="570" y2="34" stroke="#b0b0b0"/><text x="58" y="38" font-size="10" text-anchor="end" fill="#888">1e8</text><text x="64.0" y="327.2" font-size="4" text-anchor="end" fill="#aa4400" transform="rotate(-80 64.0 327.2)">v5.145.4</text><circle cx="64.0" cy="60.5" r="2" fill="#4477AA"/><rect x="580" y="34" width="10" height="10" fill="#4477AA"/><text x="594" y="43" font-size="10" fill="#444">chain-10</text><circle cx="64.0" cy="60.6" r="2" fill="#EE6677"/><rect x="580" y="49" width="10" height="10" fill="#EE6677"/><text x="594" y="58" font-size="10" fill="#444">chain-50</text><circle cx="64.0" cy="60.5" r="2" fill="#228833"/><rect x="580" y="64" width="10" height="10" fill="#228833"/><text x="594" y="73" font-size="10" fill="#444">chain-200</text><circle cx="64.0" cy="60.5" r="2" fill="#CCBB44"/><rect x="580" y="79" width="10" height="10" fill="#CCBB44"/><text x="594" y="88" font-size="10" fill="#444">chain-1000</text><circle cx="64.0" cy="60.8" r="2" fill="#66CCEE"/><rect x="580" y="94" width="10" height="10" fill="#66CCEE"/><text x="594" y="103" font-size="10" fill="#444">dense-10</text><circle cx="64.0" cy="60.7" r="2" fill="#AA3377"/><rect x="580" y="109" width="10" height="10" fill="#AA3377"/><text x="594" y="118" font-size="10" fill="#444">dense-50</text><circle cx="64.0" cy="60.8" r="2" fill="#BBBBBB"/><rect x="580" y="124" width="10" height="10" fill="#BBBBBB"/><text x="594" y="133" font-size="10" fill="#444">dense-200</text><circle cx="64.0" cy="60.8" r="2" fill="#222255"/><rect x="580" y="139" width="10" height="10" fill="#222255"/><text x="594" y="148" font-size="10" fill="#444">hub-50</text><circle cx="64.0" cy="60.6" r="2" fill="#225555"/><rect x="580" y="154" width="10" height="10" fill="#225555"/><text x="594" y="163" font-size="10" fill="#444">hub-200</text><circle cx="64.0" cy="61.0" r="2" fill="#552222"/><rect x="580" y="169" width="10" height="10" fill="#552222"/><text x="594" y="178" font-size="10" fill="#444">hooked-200</text><circle cx="64.0" cy="60.7" r="2" fill="#555522"/><rect x="580" y="184" width="10" height="10" fill="#555522"/><text x="594" y="193" font-size="10" fill="#444">messy-1000</text><circle cx="64.0" cy="60.6" r="2" fill="#8855AA"/><rect x="580" y="199" width="10" height="10" fill="#8855AA"/><text x="594" y="208" font-size="10" fill="#444">messy-5000</text></g>
<g transform="translate(760 864)"><rect width="720" height="372" fill="#ffffff"/><text x="64" y="20" font-size="15" font-weight="bold" fill="#333">list_exit_actions() — ops/sec (log scale) by PR / release, c8g.medium</text><line x1="64" y1="309.5" x2="570" y2="309.5" stroke="#d8d8d8"/><line x1="64" y1="300.9" x2="570" y2="300.9" stroke="#d8d8d8"/><line x1="64" y1="294.9" x2="570" y2="294.9" stroke="#d8d8d8"/><line x1="64" y1="290.2" x2="570" y2="290.2" stroke="#d8d8d8"/><line x1="64" y1="286.4" x2="570" y2="286.4" stroke="#d8d8d8"/><line x1="64" y1="283.2" x2="570" y2="283.2" stroke="#d8d8d8"/><line x1="64" y1="280.4" x2="570" y2="280.4" stroke="#d8d8d8"/><line x1="64" y1="277.9" x2="570" y2="277.9" stroke="#d8d8d8"/><line x1="64" y1="261.1" x2="570" y2="261.1" stroke="#d8d8d8"/><line x1="64" y1="252.6" x2="570" y2="252.6" stroke="#d8d8d8"/><line x1="64" y1="246.6" x2="570" y2="246.6" stroke="#d8d8d8"/><line x1="64" y1="241.9" x2="570" y2="241.9" stroke="#d8d8d8"/><line x1="64" y1="238.1" x2="570" y2="238.1" stroke="#d8d8d8"/><line x1="64" y1="234.8" x2="570" y2="234.8" stroke="#d8d8d8"/><line x1="64" y1="232.0" x2="570" y2="232.0" stroke="#d8d8d8"/><line x1="64" y1="229.5" x2="570" y2="229.5" stroke="#d8d8d8"/><line x1="64" y1="212.8" x2="570" y2="212.8" stroke="#d8d8d8"/><line x1="64" y1="204.3" x2="570" y2="204.3" stroke="#d8d8d8"/><line x1="64" y1="198.2" x2="570" y2="198.2" stroke="#d8d8d8"/><line x1="64" y1="193.5" x2="570" y2="193.5" stroke="#d8d8d8"/><line x1="64" y1="189.7" x2="570" y2="189.7" stroke="#d8d8d8"/><line x1="64" y1="186.5" x2="570" y2="186.5" stroke="#d8d8d8"/><line x1="64" y1="183.7" x2="570" y2="183.7" stroke="#d8d8d8"/><line x1="64" y1="181.2" x2="570" y2="181.2" stroke="#d8d8d8"/><line x1="64" y1="164.5" x2="570" y2="164.5" stroke="#d8d8d8"/><line x1="64" y1="155.9" x2="570" y2="155.9" stroke="#d8d8d8"/><line x1="64" y1="149.9" x2="570" y2="149.9" stroke="#d8d8d8"/><line x1="64" y1="145.2" x2="570" y2="145.2" stroke="#d8d8d8"/><line x1="64" y1="141.4" x2="570" y2="141.4" stroke="#d8d8d8"/><line x1="64" y1="138.2" x2="570" y2="138.2" stroke="#d8d8d8"/><line x1="64" y1="135.4" x2="570" y2="135.4" stroke="#d8d8d8"/><line x1="64" y1="132.9" x2="570" y2="132.9" stroke="#d8d8d8"/><line x1="64" y1="116.1" x2="570" y2="116.1" stroke="#d8d8d8"/><line x1="64" y1="107.6" x2="570" y2="107.6" stroke="#d8d8d8"/><line x1="64" y1="101.6" x2="570" y2="101.6" stroke="#d8d8d8"/><line x1="64" y1="96.9" x2="570" y2="96.9" stroke="#d8d8d8"/><line x1="64" y1="93.1" x2="570" y2="93.1" stroke="#d8d8d8"/><line x1="64" y1="89.8" x2="570" y2="89.8" stroke="#d8d8d8"/><line x1="64" y1="87.0" x2="570" y2="87.0" stroke="#d8d8d8"/><line x1="64" y1="84.5" x2="570" y2="84.5" stroke="#d8d8d8"/><line x1="64" y1="67.8" x2="570" y2="67.8" stroke="#d8d8d8"/><line x1="64" y1="59.3" x2="570" y2="59.3" stroke="#d8d8d8"/><line x1="64" y1="53.2" x2="570" y2="53.2" stroke="#d8d8d8"/><line x1="64" y1="48.5" x2="570" y2="48.5" stroke="#d8d8d8"/><line x1="64" y1="44.7" x2="570" y2="44.7" stroke="#d8d8d8"/><line x1="64" y1="41.5" x2="570" y2="41.5" stroke="#d8d8d8"/><line x1="64" y1="38.7" x2="570" y2="38.7" stroke="#d8d8d8"/><line x1="64" y1="36.2" x2="570" y2="36.2" stroke="#d8d8d8"/><line x1="64.0" y1="34" x2="64.0" y2="324" stroke="#d0d0d0"/><line x1="64" y1="324" x2="570" y2="324" stroke="#b0b0b0"/><text x="58" y="328" font-size="10" text-anchor="end" fill="#888">1e0</text><line x1="64" y1="275.6666666666667" x2="570" y2="275.6666666666667" stroke="#b0b0b0"/><text x="58" y="279.6666666666667" font-size="10" text-anchor="end" fill="#888">1e1</text><line x1="64" y1="227.33333333333334" x2="570" y2="227.33333333333334" stroke="#b0b0b0"/><text x="58" y="231.33333333333334" font-size="10" text-anchor="end" fill="#888">1e2</text><line x1="64" y1="179" x2="570" y2="179" stroke="#b0b0b0"/><text x="58" y="183" font-size="10" text-anchor="end" fill="#888">1e3</text><line x1="64" y1="130.66666666666669" x2="570" y2="130.66666666666669" stroke="#b0b0b0"/><text x="58" y="134.66666666666669" font-size="10" text-anchor="end" fill="#888">1e4</text><line x1="64" y1="82.33333333333331" x2="570" y2="82.33333333333331" stroke="#b0b0b0"/><text x="58" y="86.33333333333331" font-size="10" text-anchor="end" fill="#888">1e5</text><line x1="64" y1="34" x2="570" y2="34" stroke="#b0b0b0"/><text x="58" y="38" font-size="10" text-anchor="end" fill="#888">1e6</text><text x="64.0" y="327.2" font-size="4" text-anchor="end" fill="#aa4400" transform="rotate(-80 64.0 327.2)">v5.145.4</text><circle cx="64.0" cy="59.0" r="2" fill="#4477AA"/><rect x="580" y="34" width="10" height="10" fill="#4477AA"/><text x="594" y="43" font-size="10" fill="#444">chain-10</text><circle cx="64.0" cy="60.8" r="2" fill="#EE6677"/><rect x="580" y="49" width="10" height="10" fill="#EE6677"/><text x="594" y="58" font-size="10" fill="#444">chain-50</text><circle cx="64.0" cy="60.3" r="2" fill="#228833"/><rect x="580" y="64" width="10" height="10" fill="#228833"/><text x="594" y="73" font-size="10" fill="#444">chain-200</text><circle cx="64.0" cy="61.1" r="2" fill="#CCBB44"/><rect x="580" y="79" width="10" height="10" fill="#CCBB44"/><text x="594" y="88" font-size="10" fill="#444">chain-1000</text><circle cx="64.0" cy="67.6" r="2" fill="#66CCEE"/><rect x="580" y="94" width="10" height="10" fill="#66CCEE"/><text x="594" y="103" font-size="10" fill="#444">dense-10</text><circle cx="64.0" cy="90.8" r="2" fill="#AA3377"/><rect x="580" y="109" width="10" height="10" fill="#AA3377"/><text x="594" y="118" font-size="10" fill="#444">dense-50</text><circle cx="64.0" cy="117.1" r="2" fill="#BBBBBB"/><rect x="580" y="124" width="10" height="10" fill="#BBBBBB"/><text x="594" y="133" font-size="10" fill="#444">dense-200</text><circle cx="64.0" cy="81.4" r="2" fill="#222255"/><rect x="580" y="139" width="10" height="10" fill="#222255"/><text x="594" y="148" font-size="10" fill="#444">hub-50</text><circle cx="64.0" cy="103.4" r="2" fill="#225555"/><rect x="580" y="154" width="10" height="10" fill="#225555"/><text x="594" y="163" font-size="10" fill="#444">hub-200</text><circle cx="64.0" cy="103.5" r="2" fill="#552222"/><rect x="580" y="169" width="10" height="10" fill="#552222"/><text x="594" y="178" font-size="10" fill="#444">hooked-200</text></g>
<g transform="translate(0 1268)"><rect width="720" height="372" fill="#ffffff"/><text x="64" y="20" font-size="15" font-weight="bold" fill="#333">probable_action_exits() — ops/sec (log scale) by PR / release, c8g.medium</text><line x1="64" y1="309.5" x2="570" y2="309.5" stroke="#d8d8d8"/><line x1="64" y1="300.9" x2="570" y2="300.9" stroke="#d8d8d8"/><line x1="64" y1="294.9" x2="570" y2="294.9" stroke="#d8d8d8"/><line x1="64" y1="290.2" x2="570" y2="290.2" stroke="#d8d8d8"/><line x1="64" y1="286.4" x2="570" y2="286.4" stroke="#d8d8d8"/><line x1="64" y1="283.2" x2="570" y2="283.2" stroke="#d8d8d8"/><line x1="64" y1="280.4" x2="570" y2="280.4" stroke="#d8d8d8"/><line x1="64" y1="277.9" x2="570" y2="277.9" stroke="#d8d8d8"/><line x1="64" y1="261.1" x2="570" y2="261.1" stroke="#d8d8d8"/><line x1="64" y1="252.6" x2="570" y2="252.6" stroke="#d8d8d8"/><line x1="64" y1="246.6" x2="570" y2="246.6" stroke="#d8d8d8"/><line x1="64" y1="241.9" x2="570" y2="241.9" stroke="#d8d8d8"/><line x1="64" y1="238.1" x2="570" y2="238.1" stroke="#d8d8d8"/><line x1="64" y1="234.8" x2="570" y2="234.8" stroke="#d8d8d8"/><line x1="64" y1="232.0" x2="570" y2="232.0" stroke="#d8d8d8"/><line x1="64" y1="229.5" x2="570" y2="229.5" stroke="#d8d8d8"/><line x1="64" y1="212.8" x2="570" y2="212.8" stroke="#d8d8d8"/><line x1="64" y1="204.3" x2="570" y2="204.3" stroke="#d8d8d8"/><line x1="64" y1="198.2" x2="570" y2="198.2" stroke="#d8d8d8"/><line x1="64" y1="193.5" x2="570" y2="193.5" stroke="#d8d8d8"/><line x1="64" y1="189.7" x2="570" y2="189.7" stroke="#d8d8d8"/><line x1="64" y1="186.5" x2="570" y2="186.5" stroke="#d8d8d8"/><line x1="64" y1="183.7" x2="570" y2="183.7" stroke="#d8d8d8"/><line x1="64" y1="181.2" x2="570" y2="181.2" stroke="#d8d8d8"/><line x1="64" y1="164.5" x2="570" y2="164.5" stroke="#d8d8d8"/><line x1="64" y1="155.9" x2="570" y2="155.9" stroke="#d8d8d8"/><line x1="64" y1="149.9" x2="570" y2="149.9" stroke="#d8d8d8"/><line x1="64" y1="145.2" x2="570" y2="145.2" stroke="#d8d8d8"/><line x1="64" y1="141.4" x2="570" y2="141.4" stroke="#d8d8d8"/><line x1="64" y1="138.2" x2="570" y2="138.2" stroke="#d8d8d8"/><line x1="64" y1="135.4" x2="570" y2="135.4" stroke="#d8d8d8"/><line x1="64" y1="132.9" x2="570" y2="132.9" stroke="#d8d8d8"/><line x1="64" y1="116.1" x2="570" y2="116.1" stroke="#d8d8d8"/><line x1="64" y1="107.6" x2="570" y2="107.6" stroke="#d8d8d8"/><line x1="64" y1="101.6" x2="570" y2="101.6" stroke="#d8d8d8"/><line x1="64" y1="96.9" x2="570" y2="96.9" stroke="#d8d8d8"/><line x1="64" y1="93.1" x2="570" y2="93.1" stroke="#d8d8d8"/><line x1="64" y1="89.8" x2="570" y2="89.8" stroke="#d8d8d8"/><line x1="64" y1="87.0" x2="570" y2="87.0" stroke="#d8d8d8"/><line x1="64" y1="84.5" x2="570" y2="84.5" stroke="#d8d8d8"/><line x1="64" y1="67.8" x2="570" y2="67.8" stroke="#d8d8d8"/><line x1="64" y1="59.3" x2="570" y2="59.3" stroke="#d8d8d8"/><line x1="64" y1="53.2" x2="570" y2="53.2" stroke="#d8d8d8"/><line x1="64" y1="48.5" x2="570" y2="48.5" stroke="#d8d8d8"/><line x1="64" y1="44.7" x2="570" y2="44.7" stroke="#d8d8d8"/><line x1="64" y1="41.5" x2="570" y2="41.5" stroke="#d8d8d8"/><line x1="64" y1="38.7" x2="570" y2="38.7" stroke="#d8d8d8"/><line x1="64" y1="36.2" x2="570" y2="36.2" stroke="#d8d8d8"/><line x1="64.0" y1="34" x2="64.0" y2="324" stroke="#d0d0d0"/><line x1="64" y1="324" x2="570" y2="324" stroke="#b0b0b0"/><text x="58" y="328" font-size="10" text-anchor="end" fill="#888">1e0</text><line x1="64" y1="275.6666666666667" x2="570" y2="275.6666666666667" stroke="#b0b0b0"/><text x="58" y="279.6666666666667" font-size="10" text-anchor="end" fill="#888">1e1</text><line x1="64" y1="227.33333333333334" x2="570" y2="227.33333333333334" stroke="#b0b0b0"/><text x="58" y="231.33333333333334" font-size="10" text-anchor="end" fill="#888">1e2</text><line x1="64" y1="179" x2="570" y2="179" stroke="#b0b0b0"/><text x="58" y="183" font-size="10" text-anchor="end" fill="#888">1e3</text><line x1="64" y1="130.66666666666669" x2="570" y2="130.66666666666669" stroke="#b0b0b0"/><text x="58" y="134.66666666666669" font-size="10" text-anchor="end" fill="#888">1e4</text><line x1="64" y1="82.33333333333331" x2="570" y2="82.33333333333331" stroke="#b0b0b0"/><text x="58" y="86.33333333333331" font-size="10" text-anchor="end" fill="#888">1e5</text><line x1="64" y1="34" x2="570" y2="34" stroke="#b0b0b0"/><text x="58" y="38" font-size="10" text-anchor="end" fill="#888">1e6</text><text x="64.0" y="327.2" font-size="4" text-anchor="end" fill="#aa4400" transform="rotate(-80 64.0 327.2)">v5.145.4</text><circle cx="64.0" cy="72.9" r="2" fill="#4477AA"/><rect x="580" y="34" width="10" height="10" fill="#4477AA"/><text x="594" y="43" font-size="10" fill="#444">chain-10</text><circle cx="64.0" cy="74.5" r="2" fill="#EE6677"/><rect x="580" y="49" width="10" height="10" fill="#EE6677"/><text x="594" y="58" font-size="10" fill="#444">chain-50</text><circle cx="64.0" cy="74.4" r="2" fill="#228833"/><rect x="580" y="64" width="10" height="10" fill="#228833"/><text x="594" y="73" font-size="10" fill="#444">chain-200</text><circle cx="64.0" cy="75.0" r="2" fill="#CCBB44"/><rect x="580" y="79" width="10" height="10" fill="#CCBB44"/><text x="594" y="88" font-size="10" fill="#444">chain-1000</text><circle cx="64.0" cy="99.5" r="2" fill="#66CCEE"/><rect x="580" y="94" width="10" height="10" fill="#66CCEE"/><text x="594" y="103" font-size="10" fill="#444">dense-10</text><circle cx="64.0" cy="134.4" r="2" fill="#AA3377"/><rect x="580" y="109" width="10" height="10" fill="#AA3377"/><text x="594" y="118" font-size="10" fill="#444">dense-50</text><circle cx="64.0" cy="168.7" r="2" fill="#BBBBBB"/><rect x="580" y="124" width="10" height="10" fill="#BBBBBB"/><text x="594" y="133" font-size="10" fill="#444">dense-200</text><circle cx="64.0" cy="120.5" r="2" fill="#222255"/><rect x="580" y="139" width="10" height="10" fill="#222255"/><text x="594" y="148" font-size="10" fill="#444">hub-50</text><circle cx="64.0" cy="148.3" r="2" fill="#225555"/><rect x="580" y="154" width="10" height="10" fill="#225555"/><text x="594" y="163" font-size="10" fill="#444">hub-200</text><circle cx="64.0" cy="148.3" r="2" fill="#552222"/><rect x="580" y="169" width="10" height="10" fill="#552222"/><text x="594" y="178" font-size="10" fill="#444">hooked-200</text></g>
</svg>