<svg width="720" height="372" xmlns="http://www.w3.org/2000/svg"><rect width="720" height="372" fill="#ffffff"/><text x="64" y="20" font-size="15" font-weight="bold" fill="#333">probable_action_exits() — ops/sec (log scale) by PR / release, c8g.medium</text><line x1="70.3" y1="34" x2="70.3" y2="324" stroke="#e8e8e8"/><line x1="76.7" y1="34" x2="76.7" y2="324" stroke="#e8e8e8"/><line x1="83.0" y1="34" x2="83.0" y2="324" stroke="#e8e8e8"/><line x1="89.3" y1="34" x2="89.3" y2="324" stroke="#e8e8e8"/><line x1="101.9" y1="34" x2="101.9" y2="324" stroke="#e8e8e8"/><line x1="108.3" y1="34" x2="108.3" y2="324" stroke="#e8e8e8"/><line x1="114.6" y1="34" x2="114.6" y2="324" stroke="#e8e8e8"/><line x1="120.9" y1="34" x2="120.9" y2="324" stroke="#e8e8e8"/><line x1="133.6" y1="34" x2="133.6" y2="324" stroke="#e8e8e8"/><line x1="139.9" y1="34" x2="139.9" y2="324" stroke="#e8e8e8"/><line x1="146.2" y1="34" x2="146.2" y2="324" stroke="#e8e8e8"/><line x1="152.6" y1="34" x2="152.6" y2="324" stroke="#e8e8e8"/><line x1="165.2" y1="34" x2="165.2" y2="324" stroke="#e8e8e8"/><line x1="171.5" y1="34" x2="171.5" y2="324" stroke="#e8e8e8"/><line x1="177.9" y1="34" x2="177.9" y2="324" stroke="#e8e8e8"/><line x1="184.2" y1="34" x2="184.2" y2="324" stroke="#e8e8e8"/><line x1="196.8" y1="34" x2="196.8" y2="324" stroke="#e8e8e8"/><line x1="203.2" y1="34" x2="203.2" y2="324" stroke="#e8e8e8"/><line x1="209.5" y1="34" x2="209.5" y2="324" stroke="#e8e8e8"/><line x1="215.8" y1="34" x2="215.8" y2="324" stroke="#e8e8e8"/><line x1="228.5" y1="34" x2="228.5" y2="324" stroke="#e8e8e8"/><line x1="234.8" y1="34" x2="234.8" y2="324" stroke="#e8e8e8"/><line x1="241.1" y1="34" x2="241.1" y2="324" stroke="#e8e8e8"/><line x1="247.4" y1="34" x2="247.4" y2="324" stroke="#e8e8e8"/><line x1="260.1" y1="34" x2="260.1" y2="324" stroke="#e8e8e8"/><line x1="266.4" y1="34" x2="266.4" y2="324" stroke="#e8e8e8"/><line x1="272.7" y1="34" x2="272.7" y2="324" stroke="#e8e8e8"/><line x1="279.0" y1="34" x2="279.0" y2="324" stroke="#e8e8e8"/><line x1="291.7" y1="34" x2="291.7" y2="324" stroke="#e8e8e8"/><line x1="298.0" y1="34" x2="298.0" y2="324" stroke="#e8e8e8"/><line x1="304.4" y1="34" x2="304.4" y2="324" stroke="#e8e8e8"/><line x1="310.7" y1="34" x2="310.7" y2="324" stroke="#e8e8e8"/><line x1="323.3" y1="34" x2="323.3" y2="324" stroke="#e8e8e8"/><line x1="329.7" y1="34" x2="329.7" y2="324" stroke="#e8e8e8"/><line x1="336.0" y1="34" x2="336.0" y2="324" stroke="#e8e8e8"/><line x1="342.3" y1="34" x2="342.3" y2="324" stroke="#e8e8e8"/><line x1="354.9" y1="34" x2="354.9" y2="324" stroke="#e8e8e8"/><line x1="361.3" y1="34" x2="361.3" y2="324" stroke="#e8e8e8"/><line x1="367.6" y1="34" x2="367.6" y2="324" stroke="#e8e8e8"/><line x1="373.9" y1="34" x2="373.9" y2="324" stroke="#e8e8e8"/><line x1="386.6" y1="34" x2="386.6" y2="324" stroke="#e8e8e8"/><line x1="392.9" y1="34" x2="392.9" y2="324" stroke="#e8e8e8"/><line x1="399.2" y1="34" x2="399.2" y2="324" stroke="#e8e8e8"/><line x1="405.6" y1="34" x2="405.6" y2="324" stroke="#e8e8e8"/><line x1="418.2" y1="34" x2="418.2" y2="324" stroke="#e8e8e8"/><line x1="424.5" y1="34" x2="424.5" y2="324" stroke="#e8e8e8"/><line x1="430.8" y1="34" x2="430.8" y2="324" stroke="#e8e8e8"/><line x1="437.2" y1="34" x2="437.2" y2="324" stroke="#e8e8e8"/><line x1="449.8" y1="34" x2="449.8" y2="324" stroke="#e8e8e8"/><line x1="456.2" y1="34" x2="456.2" y2="324" stroke="#e8e8e8"/><line x1="462.5" y1="34" x2="462.5" y2="324" stroke="#e8e8e8"/><line x1="468.8" y1="34" x2="468.8" y2="324" stroke="#e8e8e8"/><line x1="481.4" y1="34" x2="481.4" y2="324" stroke="#e8e8e8"/><line x1="487.8" y1="34" x2="487.8" y2="324" stroke="#e8e8e8"/><line x1="494.1" y1="34" x2="494.1" y2="324" stroke="#e8e8e8"/><line x1="500.4" y1="34" x2="500.4" y2="324" stroke="#e8e8e8"/><line x1="513.1" y1="34" x2="513.1" y2="324" stroke="#e8e8e8"/><line x1="519.4" y1="34" x2="519.4" y2="324" stroke="#e8e8e8"/><line x1="525.7" y1="34" x2="525.7" y2="324" stroke="#e8e8e8"/><line x1="532.0" y1="34" x2="532.0" y2="324" stroke="#e8e8e8"/><line x1="544.7" y1="34" x2="544.7" y2="324" stroke="#e8e8e8"/><line x1="551.0" y1="34" x2="551.0" y2="324" stroke="#e8e8e8"/><line x1="557.3" y1="34" x2="557.3" y2="324" stroke="#e8e8e8"/><line x1="563.7" y1="34" x2="563.7" y2="324" stroke="#e8e8e8"/><line x1="64" y1="309.5" x2="570" y2="309.5" stroke="#d8d8d8"/><line x1="64" y1="300.9" x2="570" y2="300.9" stroke="#d8d8d8"/><line x1="64" y1="294.9" x2="570" y2="294.9" stroke="#d8d8d8"/><line x1="64" y1="290.2" x2="570" y2="290.2" stroke="#d8d8d8"/><line x1="64" y1="286.4" x2="570" y2="286.4" stroke="#d8d8d8"/><line x1="64" y1="283.2" x2="570" y2="283.2" stroke="#d8d8d8"/><line x1="64" y1="280.4" x2="570" y2="280.4" stroke="#d8d8d8"/><line x1="64" y1="277.9" x2="570" y2="277.9" stroke="#d8d8d8"/><line x1="64" y1="261.1" x2="570" y2="261.1" stroke="#d8d8d8"/><line x1="64" y1="252.6" x2="570" y2="252.6" stroke="#d8d8d8"/><line x1="64" y1="246.6" x2="570" y2="246.6" stroke="#d8d8d8"/><line x1="64" y1="241.9" x2="570" y2="241.9" stroke="#d8d8d8"/><line x1="64" y1="238.1" x2="570" y2="238.1" stroke="#d8d8d8"/><line x1="64" y1="234.8" x2="570" y2="234.8" stroke="#d8d8d8"/><line x1="64" y1="232.0" x2="570" y2="232.0" stroke="#d8d8d8"/><line x1="64" y1="229.5" x2="570" y2="229.5" stroke="#d8d8d8"/><line x1="64" y1="212.8" x2="570" y2="212.8" stroke="#d8d8d8"/><line x1="64" y1="204.3" x2="570" y2="204.3" stroke="#d8d8d8"/><line x1="64" y1="198.2" x2="570" y2="198.2" stroke="#d8d8d8"/><line x1="64" y1="193.5" x2="570" y2="193.5" stroke="#d8d8d8"/><line x1="64" y1="189.7" x2="570" y2="189.7" stroke="#d8d8d8"/><line x1="64" y1="186.5" x2="570" y2="186.5" stroke="#d8d8d8"/><line x1="64" y1="183.7" x2="570" y2="183.7" stroke="#d8d8d8"/><line x1="64" y1="181.2" x2="570" y2="181.2" stroke="#d8d8d8"/><line x1="64" y1="164.5" x2="570" y2="164.5" stroke="#d8d8d8"/><line x1="64" y1="155.9" x2="570" y2="155.9" stroke="#d8d8d8"/><line x1="64" y1="149.9" x2="570" y2="149.9" stroke="#d8d8d8"/><line x1="64" y1="145.2" x2="570" y2="145.2" stroke="#d8d8d8"/><line x1="64" y1="141.4" x2="570" y2="141.4" stroke="#d8d8d8"/><line x1="64" y1="138.2" x2="570" y2="138.2" stroke="#d8d8d8"/><line x1="64" y1="135.4" x2="570" y2="135.4" stroke="#d8d8d8"/><line x1="64" y1="132.9" x2="570" y2="132.9" stroke="#d8d8d8"/><line x1="64" y1="116.1" x2="570" y2="116.1" stroke="#d8d8d8"/><line x1="64" y1="107.6" x2="570" y2="107.6" stroke="#d8d8d8"/><line x1="64" y1="101.6" x2="570" y2="101.6" stroke="#d8d8d8"/><line x1="64" y1="96.9" x2="570" y2="96.9" stroke="#d8d8d8"/><line x1="64" y1="93.1" x2="570" y2="93.1" stroke="#d8d8d8"/><line x1="64" y1="89.8" x2="570" y2="89.8" stroke="#d8d8d8"/><line x1="64" y1="87.0" x2="570" y2="87.0" stroke="#d8d8d8"/><line x1="64" y1="84.5" x2="570" y2="84.5" stroke="#d8d8d8"/><line x1="64" y1="67.8" x2="570" y2="67.8" stroke="#d8d8d8"/><line x1="64" y1="59.3" x2="570" y2="59.3" stroke="#d8d8d8"/><line x1="64" y1="53.2" x2="570" y2="53.2" stroke="#d8d8d8"/><line x1="64" y1="48.5" x2="570" y2="48.5" stroke="#d8d8d8"/><line x1="64" y1="44.7" x2="570" y2="44.7" stroke="#d8d8d8"/><line x1="64" y1="41.5" x2="570" y2="41.5" stroke="#d8d8d8"/><line x1="64" y1="38.7" x2="570" y2="38.7" stroke="#d8d8d8"/><line x1="64" y1="36.2" x2="570" y2="36.2" stroke="#d8d8d8"/><line x1="64.0" y1="34" x2="64.0" y2="324" stroke="#d0d0d0"/><line x1="95.6" y1="34" x2="95.6" y2="324" stroke="#d0d0d0"/><line x1="127.3" y1="34" x2="127.3" y2="324" stroke="#d0d0d0"/><line x1="158.9" y1="34" x2="158.9" y2="324" stroke="#d0d0d0"/><line x1="190.5" y1="34" x2="190.5" y2="324" stroke="#d0d0d0"/><line x1="222.1" y1="34" x2="222.1" y2="324" stroke="#d0d0d0"/><line x1="253.8" y1="34" x2="253.8" y2="324" stroke="#d0d0d0"/><line x1="285.4" y1="34" x2="285.4" y2="324" stroke="#d0d0d0"/><line x1="317.0" y1="34" x2="317.0" y2="324" stroke="#d0d0d0"/><line x1="348.6" y1="34" x2="348.6" y2="324" stroke="#d0d0d0"/><line x1="380.3" y1="34" x2="380.3" y2="324" stroke="#d0d0d0"/><line x1="411.9" y1="34" x2="411.9" y2="324" stroke="#d0d0d0"/><line x1="443.5" y1="34" x2="443.5" y2="324" stroke="#d0d0d0"/><line x1="475.1" y1="34" x2="475.1" y2="324" stroke="#d0d0d0"/><line x1="506.8" y1="34" x2="506.8" y2="324" stroke="#d0d0d0"/><line x1="538.4" y1="34" x2="538.4" y2="324" stroke="#d0d0d0"/><line x1="570.0" y1="34" x2="570.0" y2="324" stroke="#d0d0d0"/><line x1="64" y1="324" x2="570" y2="324" stroke="#b0b0b0"/><text x="58" y="328" font-size="10" text-anchor="end" fill="#888">1e0</text><line x1="64" y1="275.6666666666667" x2="570" y2="275.6666666666667" stroke="#b0b0b0"/><text x="58" y="279.6666666666667" font-size="10" text-anchor="end" fill="#888">1e1</text><line x1="64" y1="227.33333333333334" x2="570" y2="227.33333333333334" stroke="#b0b0b0"/><text x="58" y="231.33333333333334" font-size="10" text-anchor="end" fill="#888">1e2</text><line x1="64" y1="179" x2="570" y2="179" stroke="#b0b0b0"/><text x="58" y="183" font-size="10" text-anchor="end" fill="#888">1e3</text><line x1="64" y1="130.66666666666669" x2="570" y2="130.66666666666669" stroke="#b0b0b0"/><text x="58" y="134.66666666666669" font-size="10" text-anchor="end" fill="#888">1e4</text><line x1="64" y1="82.33333333333331" x2="570" y2="82.33333333333331" stroke="#b0b0b0"/><text x="58" y="86.33333333333331" font-size="10" text-anchor="end" fill="#888">1e5</text><line x1="64" y1="34" x2="570" y2="34" stroke="#b0b0b0"/><text x="58" y="38" font-size="10" text-anchor="end" fill="#888">1e6</text><text x="64.0" y="327.2" font-size="4" text-anchor="end" fill="#aa4400" transform="rotate(-80 64.0 327.2)">v5.130.0</text><text x="70.3" y="327.2" font-size="4" text-anchor="end" fill="#aa4400" transform="rotate(-80 70.3 327.2)">v5.131.0</text><text x="76.7" y="327.2" font-size="4" text-anchor="end" fill="#aa4400" transform="rotate(-80 76.7 327.2)">v5.132.0</text><text x="83.0" y="327.2" font-size="4" text-anchor="end" fill="#aa4400" transform="rotate(-80 83.0 327.2)">v5.133.0</text><text x="89.3" y="327.2" font-size="4" text-anchor="end" fill="#aa4400" transform="rotate(-80 89.3 327.2)">v5.134.0</text><text x="95.6" y="327.2" font-size="4" text-anchor="end" fill="#aa4400" transform="rotate(-80 95.6 327.2)">v5.135.0</text><text x="101.9" y="327.2" font-size="4" text-anchor="end" fill="#aa4400" transform="rotate(-80 101.9 327.2)">v5.136.0</text><text x="108.3" y="327.2" font-size="4" text-anchor="end" fill="#aa4400" transform="rotate(-80 108.3 327.2)">v5.137.0</text><text x="114.6" y="327.2" font-size="4" text-anchor="end" fill="#aa4400" transform="rotate(-80 114.6 327.2)">v5.138.0</text><text x="120.9" y="327.2" font-size="4" text-anchor="end" fill="#aa4400" transform="rotate(-80 120.9 327.2)">v5.139.0</text><text x="127.3" y="327.2" font-size="4" text-anchor="end" fill="#aa4400" transform="rotate(-80 127.3 327.2)">v5.141.0</text><text x="133.6" y="327.2" font-size="4" text-anchor="end" fill="#d6a382" transform="rotate(-80 133.6 327.2)">v5.141.1</text><text x="139.9" y="327.2" font-size="4" text-anchor="end" fill="#d6a382" transform="rotate(-80 139.9 327.2)">v5.141.2</text><text x="146.2" y="327.2" font-size="4" text-anchor="end" fill="#d6a382" transform="rotate(-80 146.2 327.2)">v5.141.3</text><text x="152.6" y="327.2" font-size="4" text-anchor="end" fill="#d6a382" transform="rotate(-80 152.6 327.2)">v5.141.4</text><text x="158.9" y="327.2" font-size="4" text-anchor="end" fill="#d6a382" transform="rotate(-80 158.9 327.2)">v5.141.5</text><text x="165.2" y="327.2" font-size="4" text-anchor="end" fill="#d6a382" transform="rotate(-80 165.2 327.2)">v5.141.6</text><text x="171.5" y="327.2" font-size="4" text-anchor="end" fill="#d6a382" transform="rotate(-80 171.5 327.2)">v5.141.8</text><text x="177.9" y="327.2" font-size="4" text-anchor="end" fill="#d6a382" transform="rotate(-80 177.9 327.2)">v5.141.9</text><text x="184.2" y="327.2" font-size="4" text-anchor="end" fill="#d6a382" transform="rotate(-80 184.2 327.2)">v5.141.10</text><text x="190.5" y="327.2" font-size="4" text-anchor="end" fill="#d6a382" transform="rotate(-80 190.5 327.2)">v5.141.11</text><text x="196.8" y="327.2" font-size="4" text-anchor="end" fill="#d6a382" transform="rotate(-80 196.8 327.2)">v5.141.12</text><text x="203.2" y="327.2" font-size="4" text-anchor="end" fill="#d6a382" transform="rotate(-80 203.2 327.2)">v5.141.13</text><text x="209.5" y="327.2" font-size="4" text-anchor="end" fill="#d6a382" transform="rotate(-80 209.5 327.2)">v5.141.14</text><text x="215.8" y="327.2" font-size="4" text-anchor="end" fill="#aa4400" transform="rotate(-80 215.8 327.2)">v5.142.0</text><text x="222.1" y="327.2" font-size="4" text-anchor="end" fill="#d6a382" transform="rotate(-80 222.1 327.2)">v5.142.1</text><text x="228.5" y="327.2" font-size="4" text-anchor="end" fill="#d6a382" transform="rotate(-80 228.5 327.2)">v5.142.2</text><text x="234.8" y="327.2" font-size="4" text-anchor="end" fill="#d6a382" transform="rotate(-80 234.8 327.2)">v5.142.3</text><text x="241.1" y="327.2" font-size="4" text-anchor="end" fill="#d6a382" transform="rotate(-80 241.1 327.2)">v5.142.4</text><text x="247.4" y="327.2" font-size="4" text-anchor="end" fill="#aa4400" transform="rotate(-80 247.4 327.2)">v5.143.0</text><text x="253.8" y="327.2" font-size="4" text-anchor="end" fill="#d6a382" transform="rotate(-80 253.8 327.2)">v5.143.1</text><text x="260.1" y="327.2" font-size="4" text-anchor="end" fill="#d6a382" transform="rotate(-80 260.1 327.2)">v5.143.2</text><text x="266.4" y="327.2" font-size="4" text-anchor="end" fill="#d6a382" transform="rotate(-80 266.4 327.2)">v5.143.3</text><text x="272.7" y="327.2" font-size="4" text-anchor="end" fill="#d6a382" transform="rotate(-80 272.7 327.2)">v5.143.4</text><text x="279.0" y="327.2" font-size="4" text-anchor="end" fill="#d6a382" transform="rotate(-80 279.0 327.2)">v5.143.5</text><text x="285.4" y="327.2" font-size="4" text-anchor="end" fill="#d6a382" transform="rotate(-80 285.4 327.2)">v5.143.6</text><text x="291.7" y="327.2" font-size="4" text-anchor="end" fill="#d6a382" transform="rotate(-80 291.7 327.2)">v5.143.7</text><text x="298.0" y="327.2" font-size="4" text-anchor="end" fill="#d6a382" transform="rotate(-80 298.0 327.2)">v5.143.8</text><text x="304.4" y="327.2" font-size="4" text-anchor="end" fill="#d6a382" transform="rotate(-80 304.4 327.2)">v5.143.9</text><text x="310.7" y="327.2" font-size="4" text-anchor="end" fill="#d6a382" transform="rotate(-80 310.7 327.2)">v5.143.10</text><text x="317.0" y="327.2" font-size="4" text-anchor="end" fill="#d6a382" transform="rotate(-80 317.0 327.2)">v5.143.11</text><text x="323.3" y="327.2" font-size="4" text-anchor="end" fill="#d6a382" transform="rotate(-80 323.3 327.2)">v5.143.12</text><text x="329.7" y="327.2" font-size="4" text-anchor="end" fill="#d6a382" transform="rotate(-80 329.7 327.2)">v5.143.15</text><text x="336.0" y="327.2" font-size="4" text-anchor="end" fill="#d6a382" transform="rotate(-80 336.0 327.2)">v5.143.16</text><text x="342.3" y="327.2" font-size="4" text-anchor="end" fill="#d6a382" transform="rotate(-80 342.3 327.2)">v5.143.20</text><text x="348.6" y="327.2" font-size="4" text-anchor="end" fill="#d6a382" transform="rotate(-80 348.6 327.2)">v5.143.21</text><text x="354.9" y="327.2" font-size="4" text-anchor="end" fill="#d6a382" transform="rotate(-80 354.9 327.2)">v5.143.22</text><text x="361.3" y="327.2" font-size="4" text-anchor="end" fill="#d6a382" transform="rotate(-80 361.3 327.2)">v5.143.23</text><text x="367.6" y="327.2" font-size="4" text-anchor="end" fill="#d6a382" transform="rotate(-80 367.6 327.2)">v5.143.24</text><text x="373.9" y="327.2" font-size="4" text-anchor="end" fill="#d6a382" transform="rotate(-80 373.9 327.2)">v5.143.25</text><text x="380.3" y="327.2" font-size="4" text-anchor="end" fill="#d6a382" transform="rotate(-80 380.3 327.2)">v5.143.26</text><text x="386.6" y="327.2" font-size="4" text-anchor="end" fill="#d6a382" transform="rotate(-80 386.6 327.2)">v5.143.27</text><text x="392.9" y="327.2" font-size="4" text-anchor="end" fill="#d6a382" transform="rotate(-80 392.9 327.2)">v5.143.28</text><text x="399.2" y="327.2" font-size="4" text-anchor="end" fill="#d6a382" transform="rotate(-80 399.2 327.2)">v5.143.29</text><text x="405.6" y="327.2" font-size="4" text-anchor="end" fill="#d6a382" transform="rotate(-80 405.6 327.2)">v5.143.30</text><text x="411.9" y="327.2" font-size="4" text-anchor="end" fill="#d6a382" transform="rotate(-80 411.9 327.2)">v5.143.31</text><text x="418.2" y="327.2" font-size="4" text-anchor="end" fill="#d6a382" transform="rotate(-80 418.2 327.2)">v5.143.33</text><text x="424.5" y="327.2" font-size="4" text-anchor="end" fill="#d6a382" transform="rotate(-80 424.5 327.2)">v5.143.34</text><text x="430.8" y="327.2" font-size="4" text-anchor="end" fill="#d6a382" transform="rotate(-80 430.8 327.2)">v5.143.35</text><text x="437.2" y="327.2" font-size="4" text-anchor="end" fill="#aa4400" transform="rotate(-80 437.2 327.2)">v5.144.0</text><text x="443.5" y="327.2" font-size="4" text-anchor="end" fill="#d6a382" transform="rotate(-80 443.5 327.2)">v5.144.1</text><text x="449.8" y="327.2" font-size="4" text-anchor="end" fill="#d6a382" transform="rotate(-80 449.8 327.2)">v5.144.2</text><text x="456.2" y="327.2" font-size="4" text-anchor="end" fill="#d6a382" transform="rotate(-80 456.2 327.2)">v5.144.3</text><text x="462.5" y="327.2" font-size="4" text-anchor="end" fill="#d6a382" transform="rotate(-80 462.5 327.2)">v5.144.4</text><text x="468.8" y="327.2" font-size="4" text-anchor="end" fill="#d6a382" transform="rotate(-80 468.8 327.2)">v5.144.5</text><text x="475.1" y="327.2" font-size="4" text-anchor="end" fill="#d6a382" transform="rotate(-80 475.1 327.2)">v5.144.7</text><text x="481.4" y="327.2" font-size="4" text-anchor="end" fill="#d6a382" transform="rotate(-80 481.4 327.2)">v5.144.8</text><text x="487.8" y="327.2" font-size="4" text-anchor="end" fill="#aa4400" transform="rotate(-80 487.8 327.2)">v5.145.0</text><text x="494.1" y="327.2" font-size="4" text-anchor="end" fill="#d6a382" transform="rotate(-80 494.1 327.2)">v5.145.1</text><text x="500.4" y="327.2" font-size="4" text-anchor="end" fill="#d6a382" transform="rotate(-80 500.4 327.2)">v5.145.2</text><text x="506.8" y="327.2" font-size="4" text-anchor="end" fill="#d6a382" transform="rotate(-80 506.8 327.2)">v5.145.3</text><text x="513.1" y="327.2" font-size="4" text-anchor="end" fill="#d6a382" transform="rotate(-80 513.1 327.2)">v5.145.4</text><text x="519.4" y="327.2" font-size="4" text-anchor="end" fill="#d6a382" transform="rotate(-80 519.4 327.2)">v5.145.6</text><text x="525.7" y="327.2" font-size="4" text-anchor="end" fill="#aa4400" transform="rotate(-80 525.7 327.2)">v5.146.0</text><text x="532.0" y="327.2" font-size="4" text-anchor="end" fill="#aa4400" transform="rotate(-80 532.0 327.2)">v5.147.0</text><text x="538.4" y="327.2" font-size="4" text-anchor="end" fill="#d6a382" transform="rotate(-80 538.4 327.2)">v5.147.1</text><text x="544.7" y="327.2" font-size="4" text-anchor="end" fill="#d6a382" transform="rotate(-80 544.7 327.2)">v5.147.2</text><text x="551.0" y="327.2" font-size="4" text-anchor="end" fill="#d6a382" transform="rotate(-80 551.0 327.2)">v5.147.3</text><text x="557.3" y="327.2" font-size="4" text-anchor="end" fill="#d6a382" transform="rotate(-80 557.3 327.2)">v5.147.4</text><text x="563.7" y="327.2" font-size="4" text-anchor="end" fill="#d6a382" transform="rotate(-80 563.7 327.2)">v5.147.5</text><text x="570.0" y="327.2" font-size="4" text-anchor="end" fill="#d6a382" transform="rotate(-80 570.0 327.2)">v5.147.6</text><path d="M456.2,73.7 L462.5,74.3 L468.8,73.0 L475.1,73.7 L481.4,73.4 L487.8,73.6 L494.1,74.1 L500.4,73.8 L506.8,72.8 L513.1,72.9 L519.4,74.0 L525.7,74.5 L532.0,73.8 L538.4,73.0 L544.7,73.8 L551.0,74.8 L557.3,73.2 L563.7,73.0 L570.0,73.4" fill="none" stroke="#4477AA" stroke-width="1.6"/><circle cx="456.2" cy="73.7" r="2" fill="#4477AA"/><circle cx="462.5" cy="74.3" r="2" fill="#4477AA"/><circle cx="468.8" cy="73.0" r="2" fill="#4477AA"/><circle cx="475.1" cy="73.7" r="2" fill="#4477AA"/><circle cx="481.4" cy="73.4" r="2" fill="#4477AA"/><circle cx="487.8" cy="73.6" r="2" fill="#4477AA"/><circle cx="494.1" cy="74.1" r="2" fill="#4477AA"/><circle cx="500.4" cy="73.8" r="2" fill="#4477AA"/><circle cx="506.8" cy="72.8" r="2" fill="#4477AA"/><circle cx="513.1" cy="72.9" r="2" fill="#4477AA"/><circle cx="519.4" cy="74.0" r="2" fill="#4477AA"/><circle cx="525.7" cy="74.5" r="2" fill="#4477AA"/><circle cx="532.0" cy="73.8" r="2" fill="#4477AA"/><circle cx="538.4" cy="73.0" r="2" fill="#4477AA"/><circle cx="544.7" cy="73.8" r="2" fill="#4477AA"/><circle cx="551.0" cy="74.8" r="2" fill="#4477AA"/><circle cx="557.3" cy="73.2" r="2" fill="#4477AA"/><circle cx="563.7" cy="73.0" r="2" fill="#4477AA"/><circle cx="570.0" cy="73.4" r="2" fill="#4477AA"/><rect x="580" y="34" width="10" height="10" fill="#4477AA"/><text x="594" y="43" font-size="10" fill="#444">chain-10</text><path d="M456.2,73.6 L462.5,75.5 L468.8,73.5 L475.1,74.7 L481.4,73.8 L487.8,74.0 L494.1,74.4 L500.4,74.4 L506.8,73.6 L513.1,74.5 L519.4,74.7 L525.7,75.4 L532.0,74.4 L538.4,74.5 L544.7,73.8 L551.0,75.2 L557.3,74.1 L563.7,74.2 L570.0,74.9" fill="none" stroke="#EE6677" stroke-width="1.6"/><circle cx="456.2" cy="73.6" r="2" fill="#EE6677"/><circle cx="462.5" cy="75.5" r="2" fill="#EE6677"/><circle cx="468.8" cy="73.5" r="2" fill="#EE6677"/><circle cx="475.1" cy="74.7" r="2" fill="#EE6677"/><circle cx="481.4" cy="73.8" r="2" fill="#EE6677"/><circle cx="487.8" cy="74.0" r="2" fill="#EE6677"/><circle cx="494.1" cy="74.4" r="2" fill="#EE6677"/><circle cx="500.4" cy="74.4" r="2" fill="#EE6677"/><circle cx="506.8" cy="73.6" r="2" fill="#EE6677"/><circle cx="513.1" cy="74.5" r="2" fill="#EE6677"/><circle cx="519.4" cy="74.7" r="2" fill="#EE6677"/><circle cx="525.7" cy="75.4" r="2" fill="#EE6677"/><circle cx="532.0" cy="74.4" r="2" fill="#EE6677"/><circle cx="538.4" cy="74.5" r="2" fill="#EE6677"/><circle cx="544.7" cy="73.8" r="2" fill="#EE6677"/><circle cx="551.0" cy="75.2" r="2" fill="#EE6677"/><circle cx="557.3" cy="74.1" r="2" fill="#EE6677"/><circle cx="563.7" cy="74.2" r="2" fill="#EE6677"/><circle cx="570.0" cy="74.9" r="2" fill="#EE6677"/><rect x="580" y="49" width="10" height="10" fill="#EE6677"/><text x="594" y="58" font-size="10" fill="#444">chain-50</text><path d="M456.2,74.2 L462.5,76.4 L468.8,74.2 L475.1,75.1 L481.4,74.1 L487.8,74.3 L494.1,74.5 L500.4,74.4 L506.8,73.8 L513.1,74.4 L519.4,75.0 L525.7,75.7 L532.0,74.1 L538.4,74.8 L544.7,74.2 L551.0,76.0 L557.3,74.3 L563.7,75.1 L570.0,76.0" fill="none" stroke="#228833" stroke-width="1.6"/><circle cx="456.2" cy="74.2" r="2" fill="#228833"/><circle cx="462.5" cy="76.4" r="2" fill="#228833"/><circle cx="468.8" cy="74.2" r="2" fill="#228833"/><circle cx="475.1" cy="75.1" r="2" fill="#228833"/><circle cx="481.4" cy="74.1" r="2" fill="#228833"/><circle cx="487.8" cy="74.3" r="2" fill="#228833"/><circle cx="494.1" cy="74.5" r="2" fill="#228833"/><circle cx="500.4" cy="74.4" r="2" fill="#228833"/><circle cx="506.8" cy="73.8" r="2" fill="#228833"/><circle cx="513.1" cy="74.4" r="2" fill="#228833"/><circle cx="519.4" cy="75.0" r="2" fill="#228833"/><circle cx="525.7" cy="75.7" r="2" fill="#228833"/><circle cx="532.0" cy="74.1" r="2" fill="#228833"/><circle cx="538.4" cy="74.8" r="2" fill="#228833"/><circle cx="544.7" cy="74.2" r="2" fill="#228833"/><circle cx="551.0" cy="76.0" r="2" fill="#228833"/><circle cx="557.3" cy="74.3" r="2" fill="#228833"/><circle cx="563.7" cy="75.1" r="2" fill="#228833"/><circle cx="570.0" cy="76.0" r="2" fill="#228833"/><rect x="580" y="64" width="10" height="10" fill="#228833"/><text x="594" y="73" font-size="10" fill="#444">chain-200</text><path d="M456.2,75.0 L462.5,77.2 L468.8,74.9 L475.1,75.7 L481.4,74.9 L487.8,75.0 L494.1,75.3 L500.4,75.5 L506.8,74.9 L513.1,75.0 L519.4,76.2 L525.7,76.5 L532.0,75.3 L538.4,76.0 L544.7,75.2 L551.0,77.5 L557.3,75.8 L563.7,75.5 L570.0,77.0" fill="none" stroke="#CCBB44" stroke-width="1.6"/><circle cx="456.2" cy="75.0" r="2" fill="#CCBB44"/><circle cx="462.5" cy="77.2" r="2" fill="#CCBB44"/><circle cx="468.8" cy="74.9" r="2" fill="#CCBB44"/><circle cx="475.1" cy="75.7" r="2" fill="#CCBB44"/><circle cx="481.4" cy="74.9" r="2" fill="#CCBB44"/><circle cx="487.8" cy="75.0" r="2" fill="#CCBB44"/><circle cx="494.1" cy="75.3" r="2" fill="#CCBB44"/><circle cx="500.4" cy="75.5" r="2" fill="#CCBB44"/><circle cx="506.8" cy="74.9" r="2" fill="#CCBB44"/><circle cx="513.1" cy="75.0" r="2" fill="#CCBB44"/><circle cx="519.4" cy="76.2" r="2" fill="#CCBB44"/><circle cx="525.7" cy="76.5" r="2" fill="#CCBB44"/><circle cx="532.0" cy="75.3" r="2" fill="#CCBB44"/><circle cx="538.4" cy="76.0" r="2" fill="#CCBB44"/><circle cx="544.7" cy="75.2" r="2" fill="#CCBB44"/><circle cx="551.0" cy="77.5" r="2" fill="#CCBB44"/><circle cx="557.3" cy="75.8" r="2" fill="#CCBB44"/><circle cx="563.7" cy="75.5" r="2" fill="#CCBB44"/><circle cx="570.0" cy="77.0" r="2" fill="#CCBB44"/><rect x="580" y="79" width="10" height="10" fill="#CCBB44"/><text x="594" y="88" font-size="10" fill="#444">chain-1000</text><path d="M456.2,98.8 L462.5,102.3 L468.8,99.0 L475.1,100.0 L481.4,99.4 L487.8,99.6 L494.1,100.1 L500.4,99.8 L506.8,99.0 L513.1,99.5 L519.4,100.3 L525.7,101.7 L532.0,99.1 L538.4,99.9 L544.7,99.0 L551.0,102.1 L557.3,99.6 L563.7,99.9 L570.0,100.3" fill="none" stroke="#66CCEE" stroke-width="1.6"/><circle cx="456.2" cy="98.8" r="2" fill="#66CCEE"/><circle cx="462.5" cy="102.3" r="2" fill="#66CCEE"/><circle cx="468.8" cy="99.0" r="2" fill="#66CCEE"/><circle cx="475.1" cy="100.0" r="2" fill="#66CCEE"/><circle cx="481.4" cy="99.4" r="2" fill="#66CCEE"/><circle cx="487.8" cy="99.6" r="2" fill="#66CCEE"/><circle cx="494.1" cy="100.1" r="2" fill="#66CCEE"/><circle cx="500.4" cy="99.8" r="2" fill="#66CCEE"/><circle cx="506.8" cy="99.0" r="2" fill="#66CCEE"/><circle cx="513.1" cy="99.5" r="2" fill="#66CCEE"/><circle cx="519.4" cy="100.3" r="2" fill="#66CCEE"/><circle cx="525.7" cy="101.7" r="2" fill="#66CCEE"/><circle cx="532.0" cy="99.1" r="2" fill="#66CCEE"/><circle cx="538.4" cy="99.9" r="2" fill="#66CCEE"/><circle cx="544.7" cy="99.0" r="2" fill="#66CCEE"/><circle cx="551.0" cy="102.1" r="2" fill="#66CCEE"/><circle cx="557.3" cy="99.6" r="2" fill="#66CCEE"/><circle cx="563.7" cy="99.9" r="2" fill="#66CCEE"/><circle cx="570.0" cy="100.3" r="2" fill="#66CCEE"/><rect x="580" y="94" width="10" height="10" fill="#66CCEE"/><text x="594" y="103" font-size="10" fill="#444">dense-10</text><path d="M456.2,133.8 L462.5,138.2 L468.8,133.9 L475.1,135.5 L481.4,133.9 L487.8,135.0 L494.1,134.5 L500.4,135.4 L506.8,134.1 L513.1,134.4 L519.4,135.4 L525.7,137.1 L532.0,134.0 L538.4,135.4 L544.7,134.6 L551.0,137.8 L557.3,134.9 L563.7,135.2 L570.0,136.2" fill="none" stroke="#AA3377" stroke-width="1.6"/><circle cx="456.2" cy="133.8" r="2" fill="#AA3377"/><circle cx="462.5" cy="138.2" r="2" fill="#AA3377"/><circle cx="468.8" cy="133.9" r="2" fill="#AA3377"/><circle cx="475.1" cy="135.5" r="2" fill="#AA3377"/><circle cx="481.4" cy="133.9" r="2" fill="#AA3377"/><circle cx="487.8" cy="135.0" r="2" fill="#AA3377"/><circle cx="494.1" cy="134.5" r="2" fill="#AA3377"/><circle cx="500.4" cy="135.4" r="2" fill="#AA3377"/><circle cx="506.8" cy="134.1" r="2" fill="#AA3377"/><circle cx="513.1" cy="134.4" r="2" fill="#AA3377"/><circle cx="519.4" cy="135.4" r="2" fill="#AA3377"/><circle cx="525.7" cy="137.1" r="2" fill="#AA3377"/><circle cx="532.0" cy="134.0" r="2" fill="#AA3377"/><circle cx="538.4" cy="135.4" r="2" fill="#AA3377"/><circle cx="544.7" cy="134.6" r="2" fill="#AA3377"/><circle cx="551.0" cy="137.8" r="2" fill="#AA3377"/><circle cx="557.3" cy="134.9" r="2" fill="#AA3377"/><circle cx="563.7" cy="135.2" r="2" fill="#AA3377"/><circle cx="570.0" cy="136.2" r="2" fill="#AA3377"/><rect x="580" y="109" width="10" height="10" fill="#AA3377"/><text x="594" y="118" font-size="10" fill="#444">dense-50</text><path d="M456.2,167.3 L462.5,171.8 L468.8,167.7 L475.1,180.8 L481.4,175.4 L487.8,167.3 L494.1,173.9 L500.4,167.3 L506.8,164.1 L513.1,168.7 L519.4,169.3 L525.7,171.6 L532.0,172.6 L538.4,170.6 L544.7,176.6 L551.0,178.0 L557.3,170.8 L563.7,171.2 L570.0,173.5" fill="none" stroke="#BBBBBB" stroke-width="1.6"/><circle cx="456.2" cy="167.3" r="2" fill="#BBBBBB"/><circle cx="462.5" cy="171.8" r="2" fill="#BBBBBB"/><circle cx="468.8" cy="167.7" r="2" fill="#BBBBBB"/><circle cx="475.1" cy="180.8" r="2" fill="#BBBBBB"/><circle cx="481.4" cy="175.4" r="2" fill="#BBBBBB"/><circle cx="487.8" cy="167.3" r="2" fill="#BBBBBB"/><circle cx="494.1" cy="173.9" r="2" fill="#BBBBBB"/><circle cx="500.4" cy="167.3" r="2" fill="#BBBBBB"/><circle cx="506.8" cy="164.1" r="2" fill="#BBBBBB"/><circle cx="513.1" cy="168.7" r="2" fill="#BBBBBB"/><circle cx="519.4" cy="169.3" r="2" fill="#BBBBBB"/><circle cx="525.7" cy="171.6" r="2" fill="#BBBBBB"/><circle cx="532.0" cy="172.6" r="2" fill="#BBBBBB"/><circle cx="538.4" cy="170.6" r="2" fill="#BBBBBB"/><circle cx="544.7" cy="176.6" r="2" fill="#BBBBBB"/><circle cx="551.0" cy="178.0" r="2" fill="#BBBBBB"/><circle cx="557.3" cy="170.8" r="2" fill="#BBBBBB"/><circle cx="563.7" cy="171.2" r="2" fill="#BBBBBB"/><circle cx="570.0" cy="173.5" r="2" fill="#BBBBBB"/><rect x="580" y="124" width="10" height="10" fill="#BBBBBB"/><text x="594" y="133" font-size="10" fill="#444">dense-200</text><path d="M456.2,119.4 L462.5,122.9 L468.8,119.2 L475.1,120.4 L481.4,119.1 L487.8,119.8 L494.1,120.0 L500.4,120.5 L506.8,119.3 L513.1,120.5 L519.4,120.6 L525.7,121.9 L532.0,119.4 L538.4,120.7 L544.7,119.3 L551.0,122.7 L557.3,120.1 L563.7,120.6 L570.0,121.0" fill="none" stroke="#222255" stroke-width="1.6"/><circle cx="456.2" cy="119.4" r="2" fill="#222255"/><circle cx="462.5" cy="122.9" r="2" fill="#222255"/><circle cx="468.8" cy="119.2" r="2" fill="#222255"/><circle cx="475.1" cy="120.4" r="2" fill="#222255"/><circle cx="481.4" cy="119.1" r="2" fill="#222255"/><circle cx="487.8" cy="119.8" r="2" fill="#222255"/><circle cx="494.1" cy="120.0" r="2" fill="#222255"/><circle cx="500.4" cy="120.5" r="2" fill="#222255"/><circle cx="506.8" cy="119.3" r="2" fill="#222255"/><circle cx="513.1" cy="120.5" r="2" fill="#222255"/><circle cx="519.4" cy="120.6" r="2" fill="#222255"/><circle cx="525.7" cy="121.9" r="2" fill="#222255"/><circle cx="532.0" cy="119.4" r="2" fill="#222255"/><circle cx="538.4" cy="120.7" r="2" fill="#222255"/><circle cx="544.7" cy="119.3" r="2" fill="#222255"/><circle cx="551.0" cy="122.7" r="2" fill="#222255"/><circle cx="557.3" cy="120.1" r="2" fill="#222255"/><circle cx="563.7" cy="120.6" r="2" fill="#222255"/><circle cx="570.0" cy="121.0" r="2" fill="#222255"/><rect x="580" y="139" width="10" height="10" fill="#222255"/><text x="594" y="148" font-size="10" fill="#444">hub-50</text><path d="M456.2,147.4 L462.5,152.0 L468.8,147.7 L475.1,149.5 L481.4,147.7 L487.8,148.2 L494.1,148.3 L500.4,149.1 L506.8,147.7 L513.1,148.3 L519.4,149.4 L525.7,151.4 L532.0,147.6 L538.4,149.2 L544.7,148.0 L551.0,152.6 L557.3,148.5 L563.7,149.0 L570.0,149.9" fill="none" stroke="#225555" stroke-width="1.6"/><circle cx="456.2" cy="147.4" r="2" fill="#225555"/><circle cx="462.5" cy="152.0" r="2" fill="#225555"/><circle cx="468.8" cy="147.7" r="2" fill="#225555"/><circle cx="475.1" cy="149.5" r="2" fill="#225555"/><circle cx="481.4" cy="147.7" r="2" fill="#225555"/><circle cx="487.8" cy="148.2" r="2" fill="#225555"/><circle cx="494.1" cy="148.3" r="2" fill="#225555"/><circle cx="500.4" cy="149.1" r="2" fill="#225555"/><circle cx="506.8" cy="147.7" r="2" fill="#225555"/><circle cx="513.1" cy="148.3" r="2" fill="#225555"/><circle cx="519.4" cy="149.4" r="2" fill="#225555"/><circle cx="525.7" cy="151.4" r="2" fill="#225555"/><circle cx="532.0" cy="147.6" r="2" fill="#225555"/><circle cx="538.4" cy="149.2" r="2" fill="#225555"/><circle cx="544.7" cy="148.0" r="2" fill="#225555"/><circle cx="551.0" cy="152.6" r="2" fill="#225555"/><circle cx="557.3" cy="148.5" r="2" fill="#225555"/><circle cx="563.7" cy="149.0" r="2" fill="#225555"/><circle cx="570.0" cy="149.9" r="2" fill="#225555"/><rect x="580" y="154" width="10" height="10" fill="#225555"/><text x="594" y="163" font-size="10" fill="#444">hub-200</text><path d="M456.2,147.6 L462.5,152.3 L468.8,147.7 L475.1,149.0 L481.4,147.5 L487.8,148.5 L494.1,148.8 L500.4,149.2 L506.8,147.8 L513.1,148.3 L519.4,149.4 L525.7,151.3 L532.0,147.5 L538.4,149.6 L544.7,148.5 L551.0,152.1 L557.3,148.0 L563.7,149.3 L570.0,149.9" fill="none" stroke="#552222" stroke-width="1.6"/><circle cx="456.2" cy="147.6" r="2" fill="#552222"/><circle cx="462.5" cy="152.3" r="2" fill="#552222"/><circle cx="468.8" cy="147.7" r="2" fill="#552222"/><circle cx="475.1" cy="149.0" r="2" fill="#552222"/><circle cx="481.4" cy="147.5" r="2" fill="#552222"/><circle cx="487.8" cy="148.5" r="2" fill="#552222"/><circle cx="494.1" cy="148.8" r="2" fill="#552222"/><circle cx="500.4" cy="149.2" r="2" fill="#552222"/><circle cx="506.8" cy="147.8" r="2" fill="#552222"/><circle cx="513.1" cy="148.3" r="2" fill="#552222"/><circle cx="519.4" cy="149.4" r="2" fill="#552222"/><circle cx="525.7" cy="151.3" r="2" fill="#552222"/><circle cx="532.0" cy="147.5" r="2" fill="#552222"/><circle cx="538.4" cy="149.6" r="2" fill="#552222"/><circle cx="544.7" cy="148.5" r="2" fill="#552222"/><circle cx="551.0" cy="152.1" r="2" fill="#552222"/><circle cx="557.3" cy="148.0" r="2" fill="#552222"/><circle cx="563.7" cy="149.3" r="2" fill="#552222"/><circle cx="570.0" cy="149.9" r="2" fill="#552222"/><rect x="580" y="169" width="10" height="10" fill="#552222"/><text x="594" y="178" font-size="10" fill="#444">hooked-200</text></svg>