<svg width="720" height="372" xmlns="http://www.w3.org/2000/svg"><rect width="720" height="372" fill="#ffffff"/><text x="64" y="20" font-size="15" font-weight="bold" fill="#333">action() — ops/sec (linear scale, last 50) by PR / release, c8g.medium</text><line x1="74.3" y1="34" x2="74.3" y2="324" stroke="#e8e8e8"/><line x1="84.7" y1="34" x2="84.7" y2="324" stroke="#e8e8e8"/><line x1="95.0" y1="34" x2="95.0" y2="324" stroke="#e8e8e8"/><line x1="105.3" y1="34" x2="105.3" y2="324" stroke="#e8e8e8"/><line x1="126.0" y1="34" x2="126.0" y2="324" stroke="#e8e8e8"/><line x1="136.3" y1="34" x2="136.3" y2="324" stroke="#e8e8e8"/><line x1="146.6" y1="34" x2="146.6" y2="324" stroke="#e8e8e8"/><line x1="156.9" y1="34" x2="156.9" y2="324" stroke="#e8e8e8"/><line x1="177.6" y1="34" x2="177.6" y2="324" stroke="#e8e8e8"/><line x1="187.9" y1="34" x2="187.9" y2="324" stroke="#e8e8e8"/><line x1="198.2" y1="34" x2="198.2" y2="324" stroke="#e8e8e8"/><line x1="208.6" y1="34" x2="208.6" y2="324" stroke="#e8e8e8"/><line x1="229.2" y1="34" x2="229.2" y2="324" stroke="#e8e8e8"/><line x1="239.6" y1="34" x2="239.6" y2="324" stroke="#e8e8e8"/><line x1="249.9" y1="34" x2="249.9" y2="324" stroke="#e8e8e8"/><line x1="260.2" y1="34" x2="260.2" y2="324" stroke="#e8e8e8"/><line x1="280.9" y1="34" x2="280.9" y2="324" stroke="#e8e8e8"/><line x1="291.2" y1="34" x2="291.2" y2="324" stroke="#e8e8e8"/><line x1="301.5" y1="34" x2="301.5" y2="324" stroke="#e8e8e8"/><line x1="311.8" y1="34" x2="311.8" y2="324" stroke="#e8e8e8"/><line x1="332.5" y1="34" x2="332.5" y2="324" stroke="#e8e8e8"/><line x1="342.8" y1="34" x2="342.8" y2="324" stroke="#e8e8e8"/><line x1="353.1" y1="34" x2="353.1" y2="324" stroke="#e8e8e8"/><line x1="363.5" y1="34" x2="363.5" y2="324" stroke="#e8e8e8"/><line x1="384.1" y1="34" x2="384.1" y2="324" stroke="#e8e8e8"/><line x1="394.4" y1="34" x2="394.4" y2="324" stroke="#e8e8e8"/><line x1="404.8" y1="34" x2="404.8" y2="324" stroke="#e8e8e8"/><line x1="415.1" y1="34" x2="415.1" y2="324" stroke="#e8e8e8"/><line x1="435.8" y1="34" x2="435.8" y2="324" stroke="#e8e8e8"/><line x1="446.1" y1="34" x2="446.1" y2="324" stroke="#e8e8e8"/><line x1="456.4" y1="34" x2="456.4" y2="324" stroke="#e8e8e8"/><line x1="466.7" y1="34" x2="466.7" y2="324" stroke="#e8e8e8"/><line x1="487.4" y1="34" x2="487.4" y2="324" stroke="#e8e8e8"/><line x1="497.7" y1="34" x2="497.7" y2="324" stroke="#e8e8e8"/><line x1="508.0" y1="34" x2="508.0" y2="324" stroke="#e8e8e8"/><line x1="518.4" y1="34" x2="518.4" y2="324" stroke="#e8e8e8"/><line x1="539.0" y1="34" x2="539.0" y2="324" stroke="#e8e8e8"/><line x1="549.3" y1="34" x2="549.3" y2="324" stroke="#e8e8e8"/><line x1="559.7" y1="34" x2="559.7" y2="324" stroke="#e8e8e8"/><line x1="570.0" y1="34" x2="570.0" y2="324" stroke="#e8e8e8"/><line x1="64.0" y1="34" x2="64.0" y2="324" stroke="#d0d0d0"/><line x1="115.6" y1="34" x2="115.6" y2="324" stroke="#d0d0d0"/><line x1="167.3" y1="34" x2="167.3" y2="324" stroke="#d0d0d0"/><line x1="218.9" y1="34" x2="218.9" y2="324" stroke="#d0d0d0"/><line x1="270.5" y1="34" x2="270.5" y2="324" stroke="#d0d0d0"/><line x1="322.2" y1="34" x2="322.2" y2="324" stroke="#d0d0d0"/><line x1="373.8" y1="34" x2="373.8" y2="324" stroke="#d0d0d0"/><line x1="425.4" y1="34" x2="425.4" y2="324" stroke="#d0d0d0"/><line x1="477.1" y1="34" x2="477.1" y2="324" stroke="#d0d0d0"/><line x1="528.7" y1="34" x2="528.7" y2="324" stroke="#d0d0d0"/><line x1="64" y1="324.0" x2="570" y2="324.0" stroke="#b0b0b0"/><text x="58" y="328.0" font-size="10" text-anchor="end" fill="#888">3.3M</text><line x1="64" y1="266.0" x2="570" y2="266.0" stroke="#b0b0b0"/><text x="58" y="270.0" font-size="10" text-anchor="end" fill="#888">6.9M</text><line x1="64" y1="208.0" x2="570" y2="208.0" stroke="#b0b0b0"/><text x="58" y="212.0" font-size="10" text-anchor="end" fill="#888">10.4M</text><line x1="64" y1="150.0" x2="570" y2="150.0" stroke="#b0b0b0"/><text x="58" y="154.0" font-size="10" text-anchor="end" fill="#888">14M</text><line x1="64" y1="92.0" x2="570" y2="92.0" stroke="#b0b0b0"/><text x="58" y="96.0" font-size="10" text-anchor="end" fill="#888">17.6M</text><line x1="64" y1="34.0" x2="570" y2="34.0" stroke="#b0b0b0"/><text x="58" y="38.0" font-size="10" text-anchor="end" fill="#888">21.1M</text><text x="64.0" y="327.2" font-size="4" text-anchor="end" fill="#aa4400" transform="rotate(-80 64.0 327.2)">v5.149.1</text><text x="74.3" y="327.2" font-size="4" text-anchor="end" fill="#d6a382" transform="rotate(-80 74.3 327.2)">v5.149.2</text><text x="84.7" y="327.2" font-size="4" text-anchor="end" fill="#aa4400" transform="rotate(-80 84.7 327.2)">v5.150.0</text><text x="95.0" y="327.2" font-size="4" text-anchor="end" fill="#d6a382" transform="rotate(-80 95.0 327.2)">v5.150.1</text><text x="105.3" y="327.2" font-size="4" text-anchor="end" fill="#aa4400" transform="rotate(-80 105.3 327.2)">v5.151.0</text><text x="115.6" y="327.2" font-size="4" text-anchor="end" fill="#d6a382" transform="rotate(-80 115.6 327.2)">v5.151.1</text><text x="126.0" y="327.2" font-size="4" text-anchor="end" fill="#d6a382" transform="rotate(-80 126.0 327.2)">v5.151.2</text><text x="136.3" y="327.2" font-size="4" text-anchor="end" fill="#aa4400" transform="rotate(-80 136.3 327.2)">v5.152.0</text><text x="146.6" y="327.2" font-size="4" text-anchor="end" fill="#aa4400" transform="rotate(-80 146.6 327.2)">v5.153.0</text><text x="156.9" y="327.2" font-size="4" text-anchor="end" fill="#aa4400" transform="rotate(-80 156.9 327.2)">v5.154.0</text><text x="167.3" y="327.2" font-size="4" text-anchor="end" fill="#aa4400" transform="rotate(-80 167.3 327.2)">v5.155.0</text><text x="177.6" y="327.2" font-size="4" text-anchor="end" fill="#d6a382" transform="rotate(-80 177.6 327.2)">v5.155.1</text><text x="187.9" y="327.2" font-size="4" text-anchor="end" fill="#aa4400" transform="rotate(-80 187.9 327.2)">v5.156.0</text><text x="198.2" y="327.2" font-size="4" text-anchor="end" fill="#d6a382" transform="rotate(-80 198.2 327.2)">v5.156.1</text><text x="208.6" y="327.2" font-size="4" text-anchor="end" fill="#aa4400" transform="rotate(-80 208.6 327.2)">v5.157.0</text><text x="218.9" y="327.2" font-size="4" text-anchor="end" fill="#d6a382" transform="rotate(-80 218.9 327.2)">v5.157.1</text><text x="229.2" y="327.2" font-size="4" text-anchor="end" fill="#d6a382" transform="rotate(-80 229.2 327.2)">v5.157.2</text><text x="239.6" y="327.2" font-size="4" text-anchor="end" fill="#d6a382" transform="rotate(-80 239.6 327.2)">v5.157.3</text><text x="249.9" y="327.2" font-size="4" text-anchor="end" fill="#d6a382" transform="rotate(-80 249.9 327.2)">v5.157.4</text><text x="260.2" y="327.2" font-size="4" text-anchor="end" fill="#d6a382" transform="rotate(-80 260.2 327.2)">v5.157.5</text><text x="270.5" y="327.2" font-size="4" text-anchor="end" fill="#d6a382" transform="rotate(-80 270.5 327.2)">v5.157.6</text><text x="280.9" y="327.2" font-size="4" text-anchor="end" fill="#d6a382" transform="rotate(-80 280.9 327.2)">v5.157.7</text><text x="291.2" y="327.2" font-size="4" text-anchor="end" fill="#d6a382" transform="rotate(-80 291.2 327.2)">v5.157.8</text><text x="301.5" y="327.2" font-size="4" text-anchor="end" fill="#d6a382" transform="rotate(-80 301.5 327.2)">v5.157.9</text><text x="311.8" y="327.2" font-size="4" text-anchor="end" fill="#d6a382" transform="rotate(-80 311.8 327.2)">v5.157.10</text><text x="322.2" y="327.2" font-size="4" text-anchor="end" fill="#d6a382" transform="rotate(-80 322.2 327.2)">v5.157.11</text><text x="332.5" y="327.2" font-size="4" text-anchor="end" fill="#d6a382" transform="rotate(-80 332.5 327.2)">v5.157.12</text><text x="342.8" y="327.2" font-size="4" text-anchor="end" fill="#d6a382" transform="rotate(-80 342.8 327.2)">v5.157.13</text><text x="353.1" y="327.2" font-size="4" text-anchor="end" fill="#d6a382" transform="rotate(-80 353.1 327.2)">v5.157.14</text><text x="363.5" y="327.2" font-size="4" text-anchor="end" fill="#d6a382" transform="rotate(-80 363.5 327.2)">v5.157.15</text><text x="373.8" y="327.2" font-size="4" text-anchor="end" fill="#d6a382" transform="rotate(-80 373.8 327.2)">v5.157.16</text><text x="384.1" y="327.2" font-size="4" text-anchor="end" fill="#d6a382" transform="rotate(-80 384.1 327.2)">v5.157.17</text><text x="394.4" y="327.2" font-size="4" text-anchor="end" fill="#d6a382" transform="rotate(-80 394.4 327.2)">v5.157.18</text><text x="404.8" y="327.2" font-size="4" text-anchor="end" fill="#aa4400" transform="rotate(-80 404.8 327.2)">v5.158.0</text><text x="415.1" y="327.2" font-size="4" text-anchor="end" fill="#d6a382" transform="rotate(-80 415.1 327.2)">v5.158.1</text><text x="425.4" y="327.2" font-size="4" text-anchor="end" fill="#d6a382" transform="rotate(-80 425.4 327.2)">v5.158.2</text><text x="435.8" y="327.2" font-size="4" text-anchor="end" fill="#aa4400" transform="rotate(-80 435.8 327.2)">v5.159.0</text><text x="446.1" y="327.2" font-size="4" text-anchor="end" fill="#d6a382" transform="rotate(-80 446.1 327.2)">v5.159.1</text><text x="456.4" y="327.2" font-size="4" text-anchor="end" fill="#d6a382" transform="rotate(-80 456.4 327.2)">v5.159.2</text><text x="466.7" y="327.2" font-size="4" text-anchor="end" fill="#aa4400" transform="rotate(-80 466.7 327.2)">v5.160.0</text><text x="477.1" y="327.2" font-size="4" text-anchor="end" fill="#aa4400" transform="rotate(-80 477.1 327.2)">v5.161.0</text><text x="487.4" y="327.2" font-size="4" text-anchor="end" fill="#aa4400" transform="rotate(-80 487.4 327.2)">v5.162.0</text><text x="497.7" y="327.2" font-size="4" text-anchor="end" fill="#d6a382" transform="rotate(-80 497.7 327.2)">v5.162.1</text><text x="508.0" y="327.2" font-size="4" text-anchor="end" fill="#d6a382" transform="rotate(-80 508.0 327.2)">v5.162.2</text><text x="518.4" y="327.2" font-size="4" text-anchor="end" fill="#d6a382" transform="rotate(-80 518.4 327.2)">v5.162.3</text><text x="528.7" y="327.2" font-size="4" text-anchor="end" fill="#d6a382" transform="rotate(-80 528.7 327.2)">v5.162.4</text><text x="539.0" y="327.2" font-size="4" text-anchor="end" fill="#d6a382" transform="rotate(-80 539.0 327.2)">v5.162.5</text><text x="549.3" y="327.2" font-size="4" text-anchor="end" fill="#d6a382" transform="rotate(-80 549.3 327.2)">v5.162.6</text><text x="559.7" y="327.2" font-size="4" text-anchor="end" fill="#d6a382" transform="rotate(-80 559.7 327.2)">v5.162.7</text><text x="570.0" y="327.2" font-size="4" text-anchor="end" fill="#d6a382" transform="rotate(-80 570.0 327.2)">v5.162.8</text><path d="M64.0,156.7 L74.3,158.3 L84.7,154.2 L95.0,152.4 L105.3,154.1 L115.6,160.3 L126.0,156.4 L136.3,154.5 L146.6,155.9 L156.9,156.9 L167.3,154.6 L177.6,158.1 L187.9,150.9 L198.2,155.2 L208.6,158.5 L218.9,141.4 L229.2,140.8 L239.6,137.6 L249.9,145.8 L260.2,83.2 L270.5,73.6 L280.9,72.3 L291.2,73.2 L301.5,72.0 L311.8,65.3 L322.2,69.7 L332.5,65.2 L342.8,71.1 L353.1,67.0 L363.5,64.1 L373.8,70.5 L384.1,71.4 L394.4,72.0 L404.8,70.8 L415.1,77.8 L425.4,81.5 L435.8,68.3 L446.1,71.7 L456.4,66.4 L466.7,70.6 L477.1,72.1 L487.4,78.5 L497.7,64.1 L508.0,64.7 L518.4,70.7 L528.7,67.9 L539.0,80.5 L549.3,72.6 L559.7,76.5 L570.0,173.0" fill="none" stroke="#4477AA" stroke-width="1.6"/><circle cx="64.0" cy="156.7" r="2" fill="#4477AA"/><circle cx="74.3" cy="158.3" r="2" fill="#4477AA"/><circle cx="84.7" cy="154.2" r="2" fill="#4477AA"/><circle cx="95.0" cy="152.4" r="2" fill="#4477AA"/><circle cx="105.3" cy="154.1" r="2" fill="#4477AA"/><circle cx="115.6" cy="160.3" r="2" fill="#4477AA"/><circle cx="126.0" cy="156.4" r="2" fill="#4477AA"/><circle cx="136.3" cy="154.5" r="2" fill="#4477AA"/><circle cx="146.6" cy="155.9" r="2" fill="#4477AA"/><circle cx="156.9" cy="156.9" r="2" fill="#4477AA"/><circle cx="167.3" cy="154.6" r="2" fill="#4477AA"/><circle cx="177.6" cy="158.1" r="2" fill="#4477AA"/><circle cx="187.9" cy="150.9" r="2" fill="#4477AA"/><circle cx="198.2" cy="155.2" r="2" fill="#4477AA"/><circle cx="208.6" cy="158.5" r="2" fill="#4477AA"/><circle cx="218.9" cy="141.4" r="2" fill="#4477AA"/><circle cx="229.2" cy="140.8" r="2" fill="#4477AA"/><circle cx="239.6" cy="137.6" r="2" fill="#4477AA"/><circle cx="249.9" cy="145.8" r="2" fill="#4477AA"/><circle cx="260.2" cy="83.2" r="2" fill="#4477AA"/><circle cx="270.5" cy="73.6" r="2" fill="#4477AA"/><circle cx="280.9" cy="72.3" r="2" fill="#4477AA"/><circle cx="291.2" cy="73.2" r="2" fill="#4477AA"/><circle cx="301.5" cy="72.0" r="2" fill="#4477AA"/><circle cx="311.8" cy="65.3" r="2" fill="#4477AA"/><circle cx="322.2" cy="69.7" r="2" fill="#4477AA"/><circle cx="332.5" cy="65.2" r="2" fill="#4477AA"/><circle cx="342.8" cy="71.1" r="2" fill="#4477AA"/><circle cx="353.1" cy="67.0" r="2" fill="#4477AA"/><circle cx="363.5" cy="64.1" r="2" fill="#4477AA"/><circle cx="373.8" cy="70.5" r="2" fill="#4477AA"/><circle cx="384.1" cy="71.4" r="2" fill="#4477AA"/><circle cx="394.4" cy="72.0" r="2" fill="#4477AA"/><circle cx="404.8" cy="70.8" r="2" fill="#4477AA"/><circle cx="415.1" cy="77.8" r="2" fill="#4477AA"/><circle cx="425.4" cy="81.5" r="2" fill="#4477AA"/><circle cx="435.8" cy="68.3" r="2" fill="#4477AA"/><circle cx="446.1" cy="71.7" r="2" fill="#4477AA"/><circle cx="456.4" cy="66.4" r="2" fill="#4477AA"/><circle cx="466.7" cy="70.6" r="2" fill="#4477AA"/><circle cx="477.1" cy="72.1" r="2" fill="#4477AA"/><circle cx="487.4" cy="78.5" r="2" fill="#4477AA"/><circle cx="497.7" cy="64.1" r="2" fill="#4477AA"/><circle cx="508.0" cy="64.7" r="2" fill="#4477AA"/><circle cx="518.4" cy="70.7" r="2" fill="#4477AA"/><circle cx="528.7" cy="67.9" r="2" fill="#4477AA"/><circle cx="539.0" cy="80.5" r="2" fill="#4477AA"/><circle cx="549.3" cy="72.6" r="2" fill="#4477AA"/><circle cx="559.7" cy="76.5" r="2" fill="#4477AA"/><circle cx="570.0" cy="173.0" r="2" fill="#4477AA"/><rect x="580" y="34" width="10" height="10" fill="#4477AA"/><text x="594" y="43" font-size="10" fill="#444">chain-10</text><path d="M64.0,163.3 L74.3,166.0 L84.7,164.1 L95.0,167.1 L105.3,170.2 L115.6,168.1 L126.0,169.3 L136.3,164.2 L146.6,167.1 L156.9,174.6 L167.3,167.2 L177.6,165.3 L187.9,166.6 L198.2,169.3 L208.6,163.1 L218.9,150.2 L229.2,151.4 L239.6,153.3 L249.9,152.0 L260.2,83.9 L270.5,87.2 L280.9,81.9 L291.2,81.9 L301.5,82.0 L311.8,86.7 L322.2,83.8 L332.5,85.0 L342.8,84.3 L353.1,81.9 L363.5,82.3 L373.8,86.9 L384.1,87.5 L394.4,87.4 L404.8,84.2 L415.1,83.9 L425.4,90.7 L435.8,88.8 L446.1,89.7 L456.4,78.7 L466.7,86.2 L477.1,82.4 L487.4,83.7 L497.7,81.8 L508.0,85.1 L518.4,80.2 L528.7,82.9 L539.0,86.8 L549.3,88.3 L559.7,88.0 L570.0,181.2" fill="none" stroke="#EE6677" stroke-width="1.6"/><circle cx="64.0" cy="163.3" r="2" fill="#EE6677"/><circle cx="74.3" cy="166.0" r="2" fill="#EE6677"/><circle cx="84.7" cy="164.1" r="2" fill="#EE6677"/><circle cx="95.0" cy="167.1" r="2" fill="#EE6677"/><circle cx="105.3" cy="170.2" r="2" fill="#EE6677"/><circle cx="115.6" cy="168.1" r="2" fill="#EE6677"/><circle cx="126.0" cy="169.3" r="2" fill="#EE6677"/><circle cx="136.3" cy="164.2" r="2" fill="#EE6677"/><circle cx="146.6" cy="167.1" r="2" fill="#EE6677"/><circle cx="156.9" cy="174.6" r="2" fill="#EE6677"/><circle cx="167.3" cy="167.2" r="2" fill="#EE6677"/><circle cx="177.6" cy="165.3" r="2" fill="#EE6677"/><circle cx="187.9" cy="166.6" r="2" fill="#EE6677"/><circle cx="198.2" cy="169.3" r="2" fill="#EE6677"/><circle cx="208.6" cy="163.1" r="2" fill="#EE6677"/><circle cx="218.9" cy="150.2" r="2" fill="#EE6677"/><circle cx="229.2" cy="151.4" r="2" fill="#EE6677"/><circle cx="239.6" cy="153.3" r="2" fill="#EE6677"/><circle cx="249.9" cy="152.0" r="2" fill="#EE6677"/><circle cx="260.2" cy="83.9" r="2" fill="#EE6677"/><circle cx="270.5" cy="87.2" r="2" fill="#EE6677"/><circle cx="280.9" cy="81.9" r="2" fill="#EE6677"/><circle cx="291.2" cy="81.9" r="2" fill="#EE6677"/><circle cx="301.5" cy="82.0" r="2" fill="#EE6677"/><circle cx="311.8" cy="86.7" r="2" fill="#EE6677"/><circle cx="322.2" cy="83.8" r="2" fill="#EE6677"/><circle cx="332.5" cy="85.0" r="2" fill="#EE6677"/><circle cx="342.8" cy="84.3" r="2" fill="#EE6677"/><circle cx="353.1" cy="81.9" r="2" fill="#EE6677"/><circle cx="363.5" cy="82.3" r="2" fill="#EE6677"/><circle cx="373.8" cy="86.9" r="2" fill="#EE6677"/><circle cx="384.1" cy="87.5" r="2" fill="#EE6677"/><circle cx="394.4" cy="87.4" r="2" fill="#EE6677"/><circle cx="404.8" cy="84.2" r="2" fill="#EE6677"/><circle cx="415.1" cy="83.9" r="2" fill="#EE6677"/><circle cx="425.4" cy="90.7" r="2" fill="#EE6677"/><circle cx="435.8" cy="88.8" r="2" fill="#EE6677"/><circle cx="446.1" cy="89.7" r="2" fill="#EE6677"/><circle cx="456.4" cy="78.7" r="2" fill="#EE6677"/><circle cx="466.7" cy="86.2" r="2" fill="#EE6677"/><circle cx="477.1" cy="82.4" r="2" fill="#EE6677"/><circle cx="487.4" cy="83.7" r="2" fill="#EE6677"/><circle cx="497.7" cy="81.8" r="2" fill="#EE6677"/><circle cx="508.0" cy="85.1" r="2" fill="#EE6677"/><circle cx="518.4" cy="80.2" r="2" fill="#EE6677"/><circle cx="528.7" cy="82.9" r="2" fill="#EE6677"/><circle cx="539.0" cy="86.8" r="2" fill="#EE6677"/><circle cx="549.3" cy="88.3" r="2" fill="#EE6677"/><circle cx="559.7" cy="88.0" r="2" fill="#EE6677"/><circle cx="570.0" cy="181.2" r="2" fill="#EE6677"/><rect x="580" y="49" width="10" height="10" fill="#EE6677"/><text x="594" y="58" font-size="10" fill="#444">chain-50</text><path d="M64.0,173.3 L74.3,175.3 L84.7,178.9 L95.0,176.0 L105.3,186.9 L115.6,176.3 L126.0,177.6 L136.3,175.8 L146.6,177.4 L156.9,178.1 L167.3,178.3 L177.6,173.6 L187.9,175.3 L198.2,178.0 L208.6,173.8 L218.9,158.8 L229.2,170.9 L239.6,163.4 L249.9,162.2 L260.2,102.6 L270.5,104.6 L280.9,102.3 L291.2,99.3 L301.5,100.9 L311.8,99.3 L322.2,98.4 L332.5,99.8 L342.8,98.0 L353.1,101.4 L363.5,99.0 L373.8,101.8 L384.1,102.7 L394.4,103.3 L404.8,98.9 L415.1,103.6 L425.4,99.2 L435.8,104.7 L446.1,108.2 L456.4,102.2 L466.7,100.9 L477.1,100.1 L487.4,100.8 L497.7,106.1 L508.0,96.8 L518.4,98.5 L528.7,102.6 L539.0,102.2 L549.3,107.8 L559.7,113.1 L570.0,190.2" fill="none" stroke="#228833" stroke-width="1.6"/><circle cx="64.0" cy="173.3" r="2" fill="#228833"/><circle cx="74.3" cy="175.3" r="2" fill="#228833"/><circle cx="84.7" cy="178.9" r="2" fill="#228833"/><circle cx="95.0" cy="176.0" r="2" fill="#228833"/><circle cx="105.3" cy="186.9" r="2" fill="#228833"/><circle cx="115.6" cy="176.3" r="2" fill="#228833"/><circle cx="126.0" cy="177.6" r="2" fill="#228833"/><circle cx="136.3" cy="175.8" r="2" fill="#228833"/><circle cx="146.6" cy="177.4" r="2" fill="#228833"/><circle cx="156.9" cy="178.1" r="2" fill="#228833"/><circle cx="167.3" cy="178.3" r="2" fill="#228833"/><circle cx="177.6" cy="173.6" r="2" fill="#228833"/><circle cx="187.9" cy="175.3" r="2" fill="#228833"/><circle cx="198.2" cy="178.0" r="2" fill="#228833"/><circle cx="208.6" cy="173.8" r="2" fill="#228833"/><circle cx="218.9" cy="158.8" r="2" fill="#228833"/><circle cx="229.2" cy="170.9" r="2" fill="#228833"/><circle cx="239.6" cy="163.4" r="2" fill="#228833"/><circle cx="249.9" cy="162.2" r="2" fill="#228833"/><circle cx="260.2" cy="102.6" r="2" fill="#228833"/><circle cx="270.5" cy="104.6" r="2" fill="#228833"/><circle cx="280.9" cy="102.3" r="2" fill="#228833"/><circle cx="291.2" cy="99.3" r="2" fill="#228833"/><circle cx="301.5" cy="100.9" r="2" fill="#228833"/><circle cx="311.8" cy="99.3" r="2" fill="#228833"/><circle cx="322.2" cy="98.4" r="2" fill="#228833"/><circle cx="332.5" cy="99.8" r="2" fill="#228833"/><circle cx="342.8" cy="98.0" r="2" fill="#228833"/><circle cx="353.1" cy="101.4" r="2" fill="#228833"/><circle cx="363.5" cy="99.0" r="2" fill="#228833"/><circle cx="373.8" cy="101.8" r="2" fill="#228833"/><circle cx="384.1" cy="102.7" r="2" fill="#228833"/><circle cx="394.4" cy="103.3" r="2" fill="#228833"/><circle cx="404.8" cy="98.9" r="2" fill="#228833"/><circle cx="415.1" cy="103.6" r="2" fill="#228833"/><circle cx="425.4" cy="99.2" r="2" fill="#228833"/><circle cx="435.8" cy="104.7" r="2" fill="#228833"/><circle cx="446.1" cy="108.2" r="2" fill="#228833"/><circle cx="456.4" cy="102.2" r="2" fill="#228833"/><circle cx="466.7" cy="100.9" r="2" fill="#228833"/><circle cx="477.1" cy="100.1" r="2" fill="#228833"/><circle cx="487.4" cy="100.8" r="2" fill="#228833"/><circle cx="497.7" cy="106.1" r="2" fill="#228833"/><circle cx="508.0" cy="96.8" r="2" fill="#228833"/><circle cx="518.4" cy="98.5" r="2" fill="#228833"/><circle cx="528.7" cy="102.6" r="2" fill="#228833"/><circle cx="539.0" cy="102.2" r="2" fill="#228833"/><circle cx="549.3" cy="107.8" r="2" fill="#228833"/><circle cx="559.7" cy="113.1" r="2" fill="#228833"/><circle cx="570.0" cy="190.2" r="2" fill="#228833"/><rect x="580" y="64" width="10" height="10" fill="#228833"/><text x="594" y="73" font-size="10" fill="#444">chain-200</text><path d="M64.0,192.8 L74.3,193.8 L84.7,193.4 L95.0,196.1 L105.3,201.2 L115.6,193.9 L126.0,192.1 L136.3,198.7 L146.6,199.5 L156.9,195.9 L167.3,196.3 L177.6,196.8 L187.9,195.9 L198.2,194.6 L208.6,194.3 L218.9,185.3 L229.2,186.6 L239.6,186.5 L249.9,182.9 L260.2,125.5 L270.5,123.6 L280.9,121.6 L291.2,127.0 L301.5,124.7 L311.8,121.7 L322.2,124.7 L332.5,128.2 L342.8,127.9 L353.1,119.3 L363.5,134.6 L373.8,122.6 L384.1,122.5 L394.4,124.0 L404.8,119.6 L415.1,127.5 L425.4,123.5 L435.8,122.9 L446.1,123.8 L456.4,128.7 L466.7,124.9 L477.1,120.1 L487.4,128.0 L497.7,120.9 L508.0,128.9 L518.4,126.6 L528.7,130.4 L539.0,125.1 L549.3,131.6 L559.7,127.0 L570.0,207.6" fill="none" stroke="#CCBB44" stroke-width="1.6"/><circle cx="64.0" cy="192.8" r="2" fill="#CCBB44"/><circle cx="74.3" cy="193.8" r="2" fill="#CCBB44"/><circle cx="84.7" cy="193.4" r="2" fill="#CCBB44"/><circle cx="95.0" cy="196.1" r="2" fill="#CCBB44"/><circle cx="105.3" cy="201.2" r="2" fill="#CCBB44"/><circle cx="115.6" cy="193.9" r="2" fill="#CCBB44"/><circle cx="126.0" cy="192.1" r="2" fill="#CCBB44"/><circle cx="136.3" cy="198.7" r="2" fill="#CCBB44"/><circle cx="146.6" cy="199.5" r="2" fill="#CCBB44"/><circle cx="156.9" cy="195.9" r="2" fill="#CCBB44"/><circle cx="167.3" cy="196.3" r="2" fill="#CCBB44"/><circle cx="177.6" cy="196.8" r="2" fill="#CCBB44"/><circle cx="187.9" cy="195.9" r="2" fill="#CCBB44"/><circle cx="198.2" cy="194.6" r="2" fill="#CCBB44"/><circle cx="208.6" cy="194.3" r="2" fill="#CCBB44"/><circle cx="218.9" cy="185.3" r="2" fill="#CCBB44"/><circle cx="229.2" cy="186.6" r="2" fill="#CCBB44"/><circle cx="239.6" cy="186.5" r="2" fill="#CCBB44"/><circle cx="249.9" cy="182.9" r="2" fill="#CCBB44"/><circle cx="260.2" cy="125.5" r="2" fill="#CCBB44"/><circle cx="270.5" cy="123.6" r="2" fill="#CCBB44"/><circle cx="280.9" cy="121.6" r="2" fill="#CCBB44"/><circle cx="291.2" cy="127.0" r="2" fill="#CCBB44"/><circle cx="301.5" cy="124.7" r="2" fill="#CCBB44"/><circle cx="311.8" cy="121.7" r="2" fill="#CCBB44"/><circle cx="322.2" cy="124.7" r="2" fill="#CCBB44"/><circle cx="332.5" cy="128.2" r="2" fill="#CCBB44"/><circle cx="342.8" cy="127.9" r="2" fill="#CCBB44"/><circle cx="353.1" cy="119.3" r="2" fill="#CCBB44"/><circle cx="363.5" cy="134.6" r="2" fill="#CCBB44"/><circle cx="373.8" cy="122.6" r="2" fill="#CCBB44"/><circle cx="384.1" cy="122.5" r="2" fill="#CCBB44"/><circle cx="394.4" cy="124.0" r="2" fill="#CCBB44"/><circle cx="404.8" cy="119.6" r="2" fill="#CCBB44"/><circle cx="415.1" cy="127.5" r="2" fill="#CCBB44"/><circle cx="425.4" cy="123.5" r="2" fill="#CCBB44"/><circle cx="435.8" cy="122.9" r="2" fill="#CCBB44"/><circle cx="446.1" cy="123.8" r="2" fill="#CCBB44"/><circle cx="456.4" cy="128.7" r="2" fill="#CCBB44"/><circle cx="466.7" cy="124.9" r="2" fill="#CCBB44"/><circle cx="477.1" cy="120.1" r="2" fill="#CCBB44"/><circle cx="487.4" cy="128.0" r="2" fill="#CCBB44"/><circle cx="497.7" cy="120.9" r="2" fill="#CCBB44"/><circle cx="508.0" cy="128.9" r="2" fill="#CCBB44"/><circle cx="518.4" cy="126.6" r="2" fill="#CCBB44"/><circle cx="528.7" cy="130.4" r="2" fill="#CCBB44"/><circle cx="539.0" cy="125.1" r="2" fill="#CCBB44"/><circle cx="549.3" cy="131.6" r="2" fill="#CCBB44"/><circle cx="559.7" cy="127.0" r="2" fill="#CCBB44"/><circle cx="570.0" cy="207.6" r="2" fill="#CCBB44"/><rect x="580" y="79" width="10" height="10" fill="#CCBB44"/><text x="594" y="88" font-size="10" fill="#444">chain-1000</text><path d="M64.0,159.9 L74.3,160.6 L84.7,162.6 L95.0,165.5 L105.3,160.6 L115.6,169.6 L126.0,166.0 L136.3,153.7 L146.6,165.5 L156.9,160.9 L167.3,167.8 L177.6,164.5 L187.9,156.8 L198.2,163.5 L208.6,171.9 L218.9,156.7 L229.2,156.1 L239.6,158.0 L249.9,152.6 L260.2,72.7 L270.5,81.8 L280.9,79.7 L291.2,78.0 L301.5,84.3 L311.8,74.9 L322.2,79.2 L332.5,81.9 L342.8,71.0 L353.1,79.4 L363.5,70.9 L373.8,90.9 L384.1,83.6 L394.4,81.2 L404.8,82.5 L415.1,71.0 L425.4,78.6 L435.8,81.9 L446.1,88.0 L456.4,82.1 L466.7,77.0 L477.1,86.2 L487.4,85.3 L497.7,75.9 L508.0,82.3 L518.4,82.7 L528.7,79.2 L539.0,71.5 L549.3,74.1 L559.7,88.5 L570.0,175.7" fill="none" stroke="#66CCEE" stroke-width="1.6"/><circle cx="64.0" cy="159.9" r="2" fill="#66CCEE"/><circle cx="74.3" cy="160.6" r="2" fill="#66CCEE"/><circle cx="84.7" cy="162.6" r="2" fill="#66CCEE"/><circle cx="95.0" cy="165.5" r="2" fill="#66CCEE"/><circle cx="105.3" cy="160.6" r="2" fill="#66CCEE"/><circle cx="115.6" cy="169.6" r="2" fill="#66CCEE"/><circle cx="126.0" cy="166.0" r="2" fill="#66CCEE"/><circle cx="136.3" cy="153.7" r="2" fill="#66CCEE"/><circle cx="146.6" cy="165.5" r="2" fill="#66CCEE"/><circle cx="156.9" cy="160.9" r="2" fill="#66CCEE"/><circle cx="167.3" cy="167.8" r="2" fill="#66CCEE"/><circle cx="177.6" cy="164.5" r="2" fill="#66CCEE"/><circle cx="187.9" cy="156.8" r="2" fill="#66CCEE"/><circle cx="198.2" cy="163.5" r="2" fill="#66CCEE"/><circle cx="208.6" cy="171.9" r="2" fill="#66CCEE"/><circle cx="218.9" cy="156.7" r="2" fill="#66CCEE"/><circle cx="229.2" cy="156.1" r="2" fill="#66CCEE"/><circle cx="239.6" cy="158.0" r="2" fill="#66CCEE"/><circle cx="249.9" cy="152.6" r="2" fill="#66CCEE"/><circle cx="260.2" cy="72.7" r="2" fill="#66CCEE"/><circle cx="270.5" cy="81.8" r="2" fill="#66CCEE"/><circle cx="280.9" cy="79.7" r="2" fill="#66CCEE"/><circle cx="291.2" cy="78.0" r="2" fill="#66CCEE"/><circle cx="301.5" cy="84.3" r="2" fill="#66CCEE"/><circle cx="311.8" cy="74.9" r="2" fill="#66CCEE"/><circle cx="322.2" cy="79.2" r="2" fill="#66CCEE"/><circle cx="332.5" cy="81.9" r="2" fill="#66CCEE"/><circle cx="342.8" cy="71.0" r="2" fill="#66CCEE"/><circle cx="353.1" cy="79.4" r="2" fill="#66CCEE"/><circle cx="363.5" cy="70.9" r="2" fill="#66CCEE"/><circle cx="373.8" cy="90.9" r="2" fill="#66CCEE"/><circle cx="384.1" cy="83.6" r="2" fill="#66CCEE"/><circle cx="394.4" cy="81.2" r="2" fill="#66CCEE"/><circle cx="404.8" cy="82.5" r="2" fill="#66CCEE"/><circle cx="415.1" cy="71.0" r="2" fill="#66CCEE"/><circle cx="425.4" cy="78.6" r="2" fill="#66CCEE"/><circle cx="435.8" cy="81.9" r="2" fill="#66CCEE"/><circle cx="446.1" cy="88.0" r="2" fill="#66CCEE"/><circle cx="456.4" cy="82.1" r="2" fill="#66CCEE"/><circle cx="466.7" cy="77.0" r="2" fill="#66CCEE"/><circle cx="477.1" cy="86.2" r="2" fill="#66CCEE"/><circle cx="487.4" cy="85.3" r="2" fill="#66CCEE"/><circle cx="497.7" cy="75.9" r="2" fill="#66CCEE"/><circle cx="508.0" cy="82.3" r="2" fill="#66CCEE"/><circle cx="518.4" cy="82.7" r="2" fill="#66CCEE"/><circle cx="528.7" cy="79.2" r="2" fill="#66CCEE"/><circle cx="539.0" cy="71.5" r="2" fill="#66CCEE"/><circle cx="549.3" cy="74.1" r="2" fill="#66CCEE"/><circle cx="559.7" cy="88.5" r="2" fill="#66CCEE"/><circle cx="570.0" cy="175.7" r="2" fill="#66CCEE"/><rect x="580" y="94" width="10" height="10" fill="#66CCEE"/><text x="594" y="103" font-size="10" fill="#444">dense-10</text><path d="M64.0,184.6 L74.3,189.2 L84.7,188.3 L95.0,190.4 L105.3,194.5 L115.6,188.0 L126.0,190.9 L136.3,186.0 L146.6,201.6 L156.9,188.2 L167.3,189.6 L177.6,186.9 L187.9,189.0 L198.2,192.2 L208.6,191.8 L218.9,179.4 L229.2,185.6 L239.6,185.7 L249.9,183.2 L260.2,110.9 L270.5,126.1 L280.9,115.2 L291.2,116.0 L301.5,122.1 L311.8,119.3 L322.2,118.5 L332.5,118.8 L342.8,115.5 L353.1,120.3 L363.5,117.8 L373.8,117.5 L384.1,122.8 L394.4,127.3 L404.8,119.4 L415.1,125.6 L425.4,117.3 L435.8,120.9 L446.1,118.3 L456.4,123.4 L466.7,123.2 L477.1,133.8 L487.4,137.9 L497.7,130.2 L508.0,124.7 L518.4,133.6 L528.7,120.9 L539.0,116.7 L549.3,126.7 L559.7,124.1 L570.0,209.1" fill="none" stroke="#AA3377" stroke-width="1.6"/><circle cx="64.0" cy="184.6" r="2" fill="#AA3377"/><circle cx="74.3" cy="189.2" r="2" fill="#AA3377"/><circle cx="84.7" cy="188.3" r="2" fill="#AA3377"/><circle cx="95.0" cy="190.4" r="2" fill="#AA3377"/><circle cx="105.3" cy="194.5" r="2" fill="#AA3377"/><circle cx="115.6" cy="188.0" r="2" fill="#AA3377"/><circle cx="126.0" cy="190.9" r="2" fill="#AA3377"/><circle cx="136.3" cy="186.0" r="2" fill="#AA3377"/><circle cx="146.6" cy="201.6" r="2" fill="#AA3377"/><circle cx="156.9" cy="188.2" r="2" fill="#AA3377"/><circle cx="167.3" cy="189.6" r="2" fill="#AA3377"/><circle cx="177.6" cy="186.9" r="2" fill="#AA3377"/><circle cx="187.9" cy="189.0" r="2" fill="#AA3377"/><circle cx="198.2" cy="192.2" r="2" fill="#AA3377"/><circle cx="208.6" cy="191.8" r="2" fill="#AA3377"/><circle cx="218.9" cy="179.4" r="2" fill="#AA3377"/><circle cx="229.2" cy="185.6" r="2" fill="#AA3377"/><circle cx="239.6" cy="185.7" r="2" fill="#AA3377"/><circle cx="249.9" cy="183.2" r="2" fill="#AA3377"/><circle cx="260.2" cy="110.9" r="2" fill="#AA3377"/><circle cx="270.5" cy="126.1" r="2" fill="#AA3377"/><circle cx="280.9" cy="115.2" r="2" fill="#AA3377"/><circle cx="291.2" cy="116.0" r="2" fill="#AA3377"/><circle cx="301.5" cy="122.1" r="2" fill="#AA3377"/><circle cx="311.8" cy="119.3" r="2" fill="#AA3377"/><circle cx="322.2" cy="118.5" r="2" fill="#AA3377"/><circle cx="332.5" cy="118.8" r="2" fill="#AA3377"/><circle cx="342.8" cy="115.5" r="2" fill="#AA3377"/><circle cx="353.1" cy="120.3" r="2" fill="#AA3377"/><circle cx="363.5" cy="117.8" r="2" fill="#AA3377"/><circle cx="373.8" cy="117.5" r="2" fill="#AA3377"/><circle cx="384.1" cy="122.8" r="2" fill="#AA3377"/><circle cx="394.4" cy="127.3" r="2" fill="#AA3377"/><circle cx="404.8" cy="119.4" r="2" fill="#AA3377"/><circle cx="415.1" cy="125.6" r="2" fill="#AA3377"/><circle cx="425.4" cy="117.3" r="2" fill="#AA3377"/><circle cx="435.8" cy="120.9" r="2" fill="#AA3377"/><circle cx="446.1" cy="118.3" r="2" fill="#AA3377"/><circle cx="456.4" cy="123.4" r="2" fill="#AA3377"/><circle cx="466.7" cy="123.2" r="2" fill="#AA3377"/><circle cx="477.1" cy="133.8" r="2" fill="#AA3377"/><circle cx="487.4" cy="137.9" r="2" fill="#AA3377"/><circle cx="497.7" cy="130.2" r="2" fill="#AA3377"/><circle cx="508.0" cy="124.7" r="2" fill="#AA3377"/><circle cx="518.4" cy="133.6" r="2" fill="#AA3377"/><circle cx="528.7" cy="120.9" r="2" fill="#AA3377"/><circle cx="539.0" cy="116.7" r="2" fill="#AA3377"/><circle cx="549.3" cy="126.7" r="2" fill="#AA3377"/><circle cx="559.7" cy="124.1" r="2" fill="#AA3377"/><circle cx="570.0" cy="209.1" r="2" fill="#AA3377"/><rect x="580" y="109" width="10" height="10" fill="#AA3377"/><text x="594" y="118" font-size="10" fill="#444">dense-50</text><path d="M64.0,238.3 L74.3,241.8 L84.7,238.3 L95.0,240.3 L105.3,241.6 L115.6,239.6 L126.0,238.5 L136.3,239.2 L146.6,242.4 L156.9,243.8 L167.3,240.7 L177.6,242.2 L187.9,242.0 L198.2,239.4 L208.6,241.7 L218.9,230.1 L229.2,233.4 L239.6,237.1 L249.9,236.0 L260.2,175.1 L270.5,174.0 L280.9,176.2 L291.2,175.0 L301.5,176.3 L311.8,174.0 L322.2,178.8 L332.5,177.3 L342.8,174.1 L353.1,174.6 L363.5,177.2 L373.8,178.4 L384.1,177.8 L394.4,175.9 L404.8,175.2 L415.1,177.8 L425.4,181.9 L435.8,178.6 L446.1,176.3 L456.4,180.6 L466.7,177.1 L477.1,179.5 L487.4,177.7 L497.7,177.9 L508.0,174.8 L518.4,179.2 L528.7,173.9 L539.0,177.6 L549.3,174.8 L559.7,179.0 L570.0,234.9" fill="none" stroke="#BBBBBB" stroke-width="1.6"/><circle cx="64.0" cy="238.3" r="2" fill="#BBBBBB"/><circle cx="74.3" cy="241.8" r="2" fill="#BBBBBB"/><circle cx="84.7" cy="238.3" r="2" fill="#BBBBBB"/><circle cx="95.0" cy="240.3" r="2" fill="#BBBBBB"/><circle cx="105.3" cy="241.6" r="2" fill="#BBBBBB"/><circle cx="115.6" cy="239.6" r="2" fill="#BBBBBB"/><circle cx="126.0" cy="238.5" r="2" fill="#BBBBBB"/><circle cx="136.3" cy="239.2" r="2" fill="#BBBBBB"/><circle cx="146.6" cy="242.4" r="2" fill="#BBBBBB"/><circle cx="156.9" cy="243.8" r="2" fill="#BBBBBB"/><circle cx="167.3" cy="240.7" r="2" fill="#BBBBBB"/><circle cx="177.6" cy="242.2" r="2" fill="#BBBBBB"/><circle cx="187.9" cy="242.0" r="2" fill="#BBBBBB"/><circle cx="198.2" cy="239.4" r="2" fill="#BBBBBB"/><circle cx="208.6" cy="241.7" r="2" fill="#BBBBBB"/><circle cx="218.9" cy="230.1" r="2" fill="#BBBBBB"/><circle cx="229.2" cy="233.4" r="2" fill="#BBBBBB"/><circle cx="239.6" cy="237.1" r="2" fill="#BBBBBB"/><circle cx="249.9" cy="236.0" r="2" fill="#BBBBBB"/><circle cx="260.2" cy="175.1" r="2" fill="#BBBBBB"/><circle cx="270.5" cy="174.0" r="2" fill="#BBBBBB"/><circle cx="280.9" cy="176.2" r="2" fill="#BBBBBB"/><circle cx="291.2" cy="175.0" r="2" fill="#BBBBBB"/><circle cx="301.5" cy="176.3" r="2" fill="#BBBBBB"/><circle cx="311.8" cy="174.0" r="2" fill="#BBBBBB"/><circle cx="322.2" cy="178.8" r="2" fill="#BBBBBB"/><circle cx="332.5" cy="177.3" r="2" fill="#BBBBBB"/><circle cx="342.8" cy="174.1" r="2" fill="#BBBBBB"/><circle cx="353.1" cy="174.6" r="2" fill="#BBBBBB"/><circle cx="363.5" cy="177.2" r="2" fill="#BBBBBB"/><circle cx="373.8" cy="178.4" r="2" fill="#BBBBBB"/><circle cx="384.1" cy="177.8" r="2" fill="#BBBBBB"/><circle cx="394.4" cy="175.9" r="2" fill="#BBBBBB"/><circle cx="404.8" cy="175.2" r="2" fill="#BBBBBB"/><circle cx="415.1" cy="177.8" r="2" fill="#BBBBBB"/><circle cx="425.4" cy="181.9" r="2" fill="#BBBBBB"/><circle cx="435.8" cy="178.6" r="2" fill="#BBBBBB"/><circle cx="446.1" cy="176.3" r="2" fill="#BBBBBB"/><circle cx="456.4" cy="180.6" r="2" fill="#BBBBBB"/><circle cx="466.7" cy="177.1" r="2" fill="#BBBBBB"/><circle cx="477.1" cy="179.5" r="2" fill="#BBBBBB"/><circle cx="487.4" cy="177.7" r="2" fill="#BBBBBB"/><circle cx="497.7" cy="177.9" r="2" fill="#BBBBBB"/><circle cx="508.0" cy="174.8" r="2" fill="#BBBBBB"/><circle cx="518.4" cy="179.2" r="2" fill="#BBBBBB"/><circle cx="528.7" cy="173.9" r="2" fill="#BBBBBB"/><circle cx="539.0" cy="177.6" r="2" fill="#BBBBBB"/><circle cx="549.3" cy="174.8" r="2" fill="#BBBBBB"/><circle cx="559.7" cy="179.0" r="2" fill="#BBBBBB"/><circle cx="570.0" cy="234.9" r="2" fill="#BBBBBB"/><rect x="580" y="124" width="10" height="10" fill="#BBBBBB"/><text x="594" y="133" font-size="10" fill="#444">dense-200</text><path d="M64.0,159.5 L74.3,163.4 L84.7,164.4 L95.0,166.7 L105.3,162.6 L115.6,163.2 L126.0,164.0 L136.3,161.4 L146.6,169.4 L156.9,162.1 L167.3,164.0 L177.6,162.3 L187.9,164.6 L198.2,163.8 L208.6,158.8 L218.9,143.8 L229.2,146.6 L239.6,148.4 L249.9,141.0 L260.2,63.1 L270.5,62.0 L280.9,66.5 L291.2,65.8 L301.5,69.9 L311.8,63.7 L322.2,65.9 L332.5,64.7 L342.8,64.6 L353.1,58.2 L363.5,71.7 L373.8,70.4 L384.1,68.5 L394.4,65.9 L404.8,64.6 L415.1,62.1 L425.4,68.6 L435.8,61.5 L446.1,68.6 L456.4,60.0 L466.7,63.5 L477.1,59.3 L487.4,59.0 L497.7,66.3 L508.0,60.7 L518.4,59.0 L528.7,62.6 L539.0,67.4 L549.3,68.4 L559.7,72.3 L570.0,178.1" fill="none" stroke="#222255" stroke-width="1.6"/><circle cx="64.0" cy="159.5" r="2" fill="#222255"/><circle cx="74.3" cy="163.4" r="2" fill="#222255"/><circle cx="84.7" cy="164.4" r="2" fill="#222255"/><circle cx="95.0" cy="166.7" r="2" fill="#222255"/><circle cx="105.3" cy="162.6" r="2" fill="#222255"/><circle cx="115.6" cy="163.2" r="2" fill="#222255"/><circle cx="126.0" cy="164.0" r="2" fill="#222255"/><circle cx="136.3" cy="161.4" r="2" fill="#222255"/><circle cx="146.6" cy="169.4" r="2" fill="#222255"/><circle cx="156.9" cy="162.1" r="2" fill="#222255"/><circle cx="167.3" cy="164.0" r="2" fill="#222255"/><circle cx="177.6" cy="162.3" r="2" fill="#222255"/><circle cx="187.9" cy="164.6" r="2" fill="#222255"/><circle cx="198.2" cy="163.8" r="2" fill="#222255"/><circle cx="208.6" cy="158.8" r="2" fill="#222255"/><circle cx="218.9" cy="143.8" r="2" fill="#222255"/><circle cx="229.2" cy="146.6" r="2" fill="#222255"/><circle cx="239.6" cy="148.4" r="2" fill="#222255"/><circle cx="249.9" cy="141.0" r="2" fill="#222255"/><circle cx="260.2" cy="63.1" r="2" fill="#222255"/><circle cx="270.5" cy="62.0" r="2" fill="#222255"/><circle cx="280.9" cy="66.5" r="2" fill="#222255"/><circle cx="291.2" cy="65.8" r="2" fill="#222255"/><circle cx="301.5" cy="69.9" r="2" fill="#222255"/><circle cx="311.8" cy="63.7" r="2" fill="#222255"/><circle cx="322.2" cy="65.9" r="2" fill="#222255"/><circle cx="332.5" cy="64.7" r="2" fill="#222255"/><circle cx="342.8" cy="64.6" r="2" fill="#222255"/><circle cx="353.1" cy="58.2" r="2" fill="#222255"/><circle cx="363.5" cy="71.7" r="2" fill="#222255"/><circle cx="373.8" cy="70.4" r="2" fill="#222255"/><circle cx="384.1" cy="68.5" r="2" fill="#222255"/><circle cx="394.4" cy="65.9" r="2" fill="#222255"/><circle cx="404.8" cy="64.6" r="2" fill="#222255"/><circle cx="415.1" cy="62.1" r="2" fill="#222255"/><circle cx="425.4" cy="68.6" r="2" fill="#222255"/><circle cx="435.8" cy="61.5" r="2" fill="#222255"/><circle cx="446.1" cy="68.6" r="2" fill="#222255"/><circle cx="456.4" cy="60.0" r="2" fill="#222255"/><circle cx="466.7" cy="63.5" r="2" fill="#222255"/><circle cx="477.1" cy="59.3" r="2" fill="#222255"/><circle cx="487.4" cy="59.0" r="2" fill="#222255"/><circle cx="497.7" cy="66.3" r="2" fill="#222255"/><circle cx="508.0" cy="60.7" r="2" fill="#222255"/><circle cx="518.4" cy="59.0" r="2" fill="#222255"/><circle cx="528.7" cy="62.6" r="2" fill="#222255"/><circle cx="539.0" cy="67.4" r="2" fill="#222255"/><circle cx="549.3" cy="68.4" r="2" fill="#222255"/><circle cx="559.7" cy="72.3" r="2" fill="#222255"/><circle cx="570.0" cy="178.1" r="2" fill="#222255"/><rect x="580" y="139" width="10" height="10" fill="#222255"/><text x="594" y="148" font-size="10" fill="#444">hub-50</text><path d="M64.0,167.8 L74.3,170.6 L84.7,169.9 L95.0,168.4 L105.3,168.8 L115.6,171.0 L126.0,168.9 L136.3,170.1 L146.6,173.1 L156.9,172.7 L167.3,171.3 L177.6,170.3 L187.9,171.8 L198.2,168.4 L208.6,172.9 L218.9,156.3 L229.2,152.4 L239.6,152.3 L249.9,150.1 L260.2,71.6 L270.5,66.5 L280.9,68.2 L291.2,70.2 L301.5,68.9 L311.8,74.1 L322.2,69.6 L332.5,66.6 L342.8,64.7 L353.1,68.3 L363.5,68.2 L373.8,67.4 L384.1,69.1 L394.4,64.9 L404.8,67.5 L415.1,70.2 L425.4,70.8 L435.8,65.7 L446.1,71.9 L456.4,66.6 L466.7,63.4 L477.1,64.5 L487.4,65.9 L497.7,68.1 L508.0,69.3 L518.4,66.0 L528.7,69.1 L539.0,66.9 L549.3,72.3 L559.7,71.1 L570.0,187.1" fill="none" stroke="#225555" stroke-width="1.6"/><circle cx="64.0" cy="167.8" r="2" fill="#225555"/><circle cx="74.3" cy="170.6" r="2" fill="#225555"/><circle cx="84.7" cy="169.9" r="2" fill="#225555"/><circle cx="95.0" cy="168.4" r="2" fill="#225555"/><circle cx="105.3" cy="168.8" r="2" fill="#225555"/><circle cx="115.6" cy="171.0" r="2" fill="#225555"/><circle cx="126.0" cy="168.9" r="2" fill="#225555"/><circle cx="136.3" cy="170.1" r="2" fill="#225555"/><circle cx="146.6" cy="173.1" r="2" fill="#225555"/><circle cx="156.9" cy="172.7" r="2" fill="#225555"/><circle cx="167.3" cy="171.3" r="2" fill="#225555"/><circle cx="177.6" cy="170.3" r="2" fill="#225555"/><circle cx="187.9" cy="171.8" r="2" fill="#225555"/><circle cx="198.2" cy="168.4" r="2" fill="#225555"/><circle cx="208.6" cy="172.9" r="2" fill="#225555"/><circle cx="218.9" cy="156.3" r="2" fill="#225555"/><circle cx="229.2" cy="152.4" r="2" fill="#225555"/><circle cx="239.6" cy="152.3" r="2" fill="#225555"/><circle cx="249.9" cy="150.1" r="2" fill="#225555"/><circle cx="260.2" cy="71.6" r="2" fill="#225555"/><circle cx="270.5" cy="66.5" r="2" fill="#225555"/><circle cx="280.9" cy="68.2" r="2" fill="#225555"/><circle cx="291.2" cy="70.2" r="2" fill="#225555"/><circle cx="301.5" cy="68.9" r="2" fill="#225555"/><circle cx="311.8" cy="74.1" r="2" fill="#225555"/><circle cx="322.2" cy="69.6" r="2" fill="#225555"/><circle cx="332.5" cy="66.6" r="2" fill="#225555"/><circle cx="342.8" cy="64.7" r="2" fill="#225555"/><circle cx="353.1" cy="68.3" r="2" fill="#225555"/><circle cx="363.5" cy="68.2" r="2" fill="#225555"/><circle cx="373.8" cy="67.4" r="2" fill="#225555"/><circle cx="384.1" cy="69.1" r="2" fill="#225555"/><circle cx="394.4" cy="64.9" r="2" fill="#225555"/><circle cx="404.8" cy="67.5" r="2" fill="#225555"/><circle cx="415.1" cy="70.2" r="2" fill="#225555"/><circle cx="425.4" cy="70.8" r="2" fill="#225555"/><circle cx="435.8" cy="65.7" r="2" fill="#225555"/><circle cx="446.1" cy="71.9" r="2" fill="#225555"/><circle cx="456.4" cy="66.6" r="2" fill="#225555"/><circle cx="466.7" cy="63.4" r="2" fill="#225555"/><circle cx="477.1" cy="64.5" r="2" fill="#225555"/><circle cx="487.4" cy="65.9" r="2" fill="#225555"/><circle cx="497.7" cy="68.1" r="2" fill="#225555"/><circle cx="508.0" cy="69.3" r="2" fill="#225555"/><circle cx="518.4" cy="66.0" r="2" fill="#225555"/><circle cx="528.7" cy="69.1" r="2" fill="#225555"/><circle cx="539.0" cy="66.9" r="2" fill="#225555"/><circle cx="549.3" cy="72.3" r="2" fill="#225555"/><circle cx="559.7" cy="71.1" r="2" fill="#225555"/><circle cx="570.0" cy="187.1" r="2" fill="#225555"/><rect x="580" y="154" width="10" height="10" fill="#225555"/><text x="594" y="163" font-size="10" fill="#444">hub-200</text><path d="M64.0,297.9 L74.3,298.9 L84.7,298.7 L95.0,297.0 L105.3,298.3 L115.6,299.2 L126.0,297.7 L136.3,298.7 L146.6,298.0 L156.9,299.8 L167.3,298.4 L177.6,297.8 L187.9,297.5 L198.2,298.5 L208.6,298.3 L218.9,284.0 L229.2,281.5 L239.6,280.1 L249.9,284.2 L260.2,258.5 L270.5,257.8 L280.9,257.2 L291.2,256.1 L301.5,256.2 L311.8,256.4 L322.2,257.5 L332.5,255.9 L342.8,259.2 L353.1,257.2 L363.5,257.5 L373.8,254.5 L384.1,257.2 L394.4,258.1 L404.8,257.4 L415.1,258.0 L425.4,260.0 L435.8,256.5 L446.1,257.4 L456.4,258.9 L466.7,257.6 L477.1,256.6 L487.4,256.1 L497.7,257.8 L508.0,254.6 L518.4,253.5 L528.7,259.2 L539.0,253.3 L549.3,258.0 L559.7,256.2 L570.0,288.3" fill="none" stroke="#552222" stroke-width="1.6"/><circle cx="64.0" cy="297.9" r="2" fill="#552222"/><circle cx="74.3" cy="298.9" r="2" fill="#552222"/><circle cx="84.7" cy="298.7" r="2" fill="#552222"/><circle cx="95.0" cy="297.0" r="2" fill="#552222"/><circle cx="105.3" cy="298.3" r="2" fill="#552222"/><circle cx="115.6" cy="299.2" r="2" fill="#552222"/><circle cx="126.0" cy="297.7" r="2" fill="#552222"/><circle cx="136.3" cy="298.7" r="2" fill="#552222"/><circle cx="146.6" cy="298.0" r="2" fill="#552222"/><circle cx="156.9" cy="299.8" r="2" fill="#552222"/><circle cx="167.3" cy="298.4" r="2" fill="#552222"/><circle cx="177.6" cy="297.8" r="2" fill="#552222"/><circle cx="187.9" cy="297.5" r="2" fill="#552222"/><circle cx="198.2" cy="298.5" r="2" fill="#552222"/><circle cx="208.6" cy="298.3" r="2" fill="#552222"/><circle cx="218.9" cy="284.0" r="2" fill="#552222"/><circle cx="229.2" cy="281.5" r="2" fill="#552222"/><circle cx="239.6" cy="280.1" r="2" fill="#552222"/><circle cx="249.9" cy="284.2" r="2" fill="#552222"/><circle cx="260.2" cy="258.5" r="2" fill="#552222"/><circle cx="270.5" cy="257.8" r="2" fill="#552222"/><circle cx="280.9" cy="257.2" r="2" fill="#552222"/><circle cx="291.2" cy="256.1" r="2" fill="#552222"/><circle cx="301.5" cy="256.2" r="2" fill="#552222"/><circle cx="311.8" cy="256.4" r="2" fill="#552222"/><circle cx="322.2" cy="257.5" r="2" fill="#552222"/><circle cx="332.5" cy="255.9" r="2" fill="#552222"/><circle cx="342.8" cy="259.2" r="2" fill="#552222"/><circle cx="353.1" cy="257.2" r="2" fill="#552222"/><circle cx="363.5" cy="257.5" r="2" fill="#552222"/><circle cx="373.8" cy="254.5" r="2" fill="#552222"/><circle cx="384.1" cy="257.2" r="2" fill="#552222"/><circle cx="394.4" cy="258.1" r="2" fill="#552222"/><circle cx="404.8" cy="257.4" r="2" fill="#552222"/><circle cx="415.1" cy="258.0" r="2" fill="#552222"/><circle cx="425.4" cy="260.0" r="2" fill="#552222"/><circle cx="435.8" cy="256.5" r="2" fill="#552222"/><circle cx="446.1" cy="257.4" r="2" fill="#552222"/><circle cx="456.4" cy="258.9" r="2" fill="#552222"/><circle cx="466.7" cy="257.6" r="2" fill="#552222"/><circle cx="477.1" cy="256.6" r="2" fill="#552222"/><circle cx="487.4" cy="256.1" r="2" fill="#552222"/><circle cx="497.7" cy="257.8" r="2" fill="#552222"/><circle cx="508.0" cy="254.6" r="2" fill="#552222"/><circle cx="518.4" cy="253.5" r="2" fill="#552222"/><circle cx="528.7" cy="259.2" r="2" fill="#552222"/><circle cx="539.0" cy="253.3" r="2" fill="#552222"/><circle cx="549.3" cy="258.0" r="2" fill="#552222"/><circle cx="559.7" cy="256.2" r="2" fill="#552222"/><circle cx="570.0" cy="288.3" r="2" fill="#552222"/><rect x="580" y="169" width="10" height="10" fill="#552222"/><text x="594" y="178" font-size="10" fill="#444">hooked-200</text></svg>