<svg width="720" height="372" xmlns="http://www.w3.org/2000/svg"><rect width="720" height="372" fill="#ffffff"/><text x="64" y="20" font-size="15" font-weight="bold" fill="#333">action() — ops/sec (linear scale, last 50) by PR / release, c8g.medium</text><line x1="74.3" y1="34" x2="74.3" y2="324" stroke="#e8e8e8"/><line x1="84.7" y1="34" x2="84.7" y2="324" stroke="#e8e8e8"/><line x1="95.0" y1="34" x2="95.0" y2="324" stroke="#e8e8e8"/><line x1="105.3" y1="34" x2="105.3" y2="324" stroke="#e8e8e8"/><line x1="126.0" y1="34" x2="126.0" y2="324" stroke="#e8e8e8"/><line x1="136.3" y1="34" x2="136.3" y2="324" stroke="#e8e8e8"/><line x1="146.6" y1="34" x2="146.6" y2="324" stroke="#e8e8e8"/><line x1="156.9" y1="34" x2="156.9" y2="324" stroke="#e8e8e8"/><line x1="177.6" y1="34" x2="177.6" y2="324" stroke="#e8e8e8"/><line x1="187.9" y1="34" x2="187.9" y2="324" stroke="#e8e8e8"/><line x1="198.2" y1="34" x2="198.2" y2="324" stroke="#e8e8e8"/><line x1="208.6" y1="34" x2="208.6" y2="324" stroke="#e8e8e8"/><line x1="229.2" y1="34" x2="229.2" y2="324" stroke="#e8e8e8"/><line x1="239.6" y1="34" x2="239.6" y2="324" stroke="#e8e8e8"/><line x1="249.9" y1="34" x2="249.9" y2="324" stroke="#e8e8e8"/><line x1="260.2" y1="34" x2="260.2" y2="324" stroke="#e8e8e8"/><line x1="280.9" y1="34" x2="280.9" y2="324" stroke="#e8e8e8"/><line x1="291.2" y1="34" x2="291.2" y2="324" stroke="#e8e8e8"/><line x1="301.5" y1="34" x2="301.5" y2="324" stroke="#e8e8e8"/><line x1="311.8" y1="34" x2="311.8" y2="324" stroke="#e8e8e8"/><line x1="332.5" y1="34" x2="332.5" y2="324" stroke="#e8e8e8"/><line x1="342.8" y1="34" x2="342.8" y2="324" stroke="#e8e8e8"/><line x1="353.1" y1="34" x2="353.1" y2="324" stroke="#e8e8e8"/><line x1="363.5" y1="34" x2="363.5" y2="324" stroke="#e8e8e8"/><line x1="384.1" y1="34" x2="384.1" y2="324" stroke="#e8e8e8"/><line x1="394.4" y1="34" x2="394.4" y2="324" stroke="#e8e8e8"/><line x1="404.8" y1="34" x2="404.8" y2="324" stroke="#e8e8e8"/><line x1="415.1" y1="34" x2="415.1" y2="324" stroke="#e8e8e8"/><line x1="435.8" y1="34" x2="435.8" y2="324" stroke="#e8e8e8"/><line x1="446.1" y1="34" x2="446.1" y2="324" stroke="#e8e8e8"/><line x1="456.4" y1="34" x2="456.4" y2="324" stroke="#e8e8e8"/><line x1="466.7" y1="34" x2="466.7" y2="324" stroke="#e8e8e8"/><line x1="487.4" y1="34" x2="487.4" y2="324" stroke="#e8e8e8"/><line x1="497.7" y1="34" x2="497.7" y2="324" stroke="#e8e8e8"/><line x1="508.0" y1="34" x2="508.0" y2="324" stroke="#e8e8e8"/><line x1="518.4" y1="34" x2="518.4" y2="324" stroke="#e8e8e8"/><line x1="539.0" y1="34" x2="539.0" y2="324" stroke="#e8e8e8"/><line x1="549.3" y1="34" x2="549.3" y2="324" stroke="#e8e8e8"/><line x1="559.7" y1="34" x2="559.7" y2="324" stroke="#e8e8e8"/><line x1="570.0" y1="34" x2="570.0" y2="324" stroke="#e8e8e8"/><line x1="64.0" y1="34" x2="64.0" y2="324" stroke="#d0d0d0"/><line x1="115.6" y1="34" x2="115.6" y2="324" stroke="#d0d0d0"/><line x1="167.3" y1="34" x2="167.3" y2="324" stroke="#d0d0d0"/><line x1="218.9" y1="34" x2="218.9" y2="324" stroke="#d0d0d0"/><line x1="270.5" y1="34" x2="270.5" y2="324" stroke="#d0d0d0"/><line x1="322.2" y1="34" x2="322.2" y2="324" stroke="#d0d0d0"/><line x1="373.8" y1="34" x2="373.8" y2="324" stroke="#d0d0d0"/><line x1="425.4" y1="34" x2="425.4" y2="324" stroke="#d0d0d0"/><line x1="477.1" y1="34" x2="477.1" y2="324" stroke="#d0d0d0"/><line x1="528.7" y1="34" x2="528.7" y2="324" stroke="#d0d0d0"/><line x1="64" y1="324.0" x2="570" y2="324.0" stroke="#b0b0b0"/><text x="58" y="328.0" font-size="10" text-anchor="end" fill="#888">3.7M</text><line x1="64" y1="266.0" x2="570" y2="266.0" stroke="#b0b0b0"/><text x="58" y="270.0" font-size="10" text-anchor="end" fill="#888">7.2M</text><line x1="64" y1="208.0" x2="570" y2="208.0" stroke="#b0b0b0"/><text x="58" y="212.0" font-size="10" text-anchor="end" fill="#888">10.6M</text><line x1="64" y1="150.0" x2="570" y2="150.0" stroke="#b0b0b0"/><text x="58" y="154.0" font-size="10" text-anchor="end" fill="#888">14.1M</text><line x1="64" y1="92.0" x2="570" y2="92.0" stroke="#b0b0b0"/><text x="58" y="96.0" font-size="10" text-anchor="end" fill="#888">17.6M</text><line x1="64" y1="34.0" x2="570" y2="34.0" stroke="#b0b0b0"/><text x="58" y="38.0" font-size="10" text-anchor="end" fill="#888">21.1M</text><text x="64.0" y="327.2" font-size="4" text-anchor="end" fill="#aa4400" transform="rotate(-80 64.0 327.2)">v5.157.2</text><text x="74.3" y="327.2" font-size="4" text-anchor="end" fill="#d6a382" transform="rotate(-80 74.3 327.2)">v5.157.3</text><text x="84.7" y="327.2" font-size="4" text-anchor="end" fill="#d6a382" transform="rotate(-80 84.7 327.2)">v5.157.4</text><text x="95.0" y="327.2" font-size="4" text-anchor="end" fill="#d6a382" transform="rotate(-80 95.0 327.2)">v5.157.5</text><text x="105.3" y="327.2" font-size="4" text-anchor="end" fill="#d6a382" transform="rotate(-80 105.3 327.2)">v5.157.6</text><text x="115.6" y="327.2" font-size="4" text-anchor="end" fill="#d6a382" transform="rotate(-80 115.6 327.2)">v5.157.7</text><text x="126.0" y="327.2" font-size="4" text-anchor="end" fill="#d6a382" transform="rotate(-80 126.0 327.2)">v5.157.8</text><text x="136.3" y="327.2" font-size="4" text-anchor="end" fill="#d6a382" transform="rotate(-80 136.3 327.2)">v5.157.9</text><text x="146.6" y="327.2" font-size="4" text-anchor="end" fill="#d6a382" transform="rotate(-80 146.6 327.2)">v5.157.10</text><text x="156.9" y="327.2" font-size="4" text-anchor="end" fill="#d6a382" transform="rotate(-80 156.9 327.2)">v5.157.11</text><text x="167.3" y="327.2" font-size="4" text-anchor="end" fill="#d6a382" transform="rotate(-80 167.3 327.2)">v5.157.12</text><text x="177.6" y="327.2" font-size="4" text-anchor="end" fill="#d6a382" transform="rotate(-80 177.6 327.2)">v5.157.13</text><text x="187.9" y="327.2" font-size="4" text-anchor="end" fill="#d6a382" transform="rotate(-80 187.9 327.2)">v5.157.14</text><text x="198.2" y="327.2" font-size="4" text-anchor="end" fill="#d6a382" transform="rotate(-80 198.2 327.2)">v5.157.15</text><text x="208.6" y="327.2" font-size="4" text-anchor="end" fill="#d6a382" transform="rotate(-80 208.6 327.2)">v5.157.16</text><text x="218.9" y="327.2" font-size="4" text-anchor="end" fill="#d6a382" transform="rotate(-80 218.9 327.2)">v5.157.17</text><text x="229.2" y="327.2" font-size="4" text-anchor="end" fill="#d6a382" transform="rotate(-80 229.2 327.2)">v5.157.18</text><text x="239.6" y="327.2" font-size="4" text-anchor="end" fill="#aa4400" transform="rotate(-80 239.6 327.2)">v5.158.0</text><text x="249.9" y="327.2" font-size="4" text-anchor="end" fill="#d6a382" transform="rotate(-80 249.9 327.2)">v5.158.1</text><text x="260.2" y="327.2" font-size="4" text-anchor="end" fill="#d6a382" transform="rotate(-80 260.2 327.2)">v5.158.2</text><text x="270.5" y="327.2" font-size="4" text-anchor="end" fill="#aa4400" transform="rotate(-80 270.5 327.2)">v5.159.0</text><text x="280.9" y="327.2" font-size="4" text-anchor="end" fill="#d6a382" transform="rotate(-80 280.9 327.2)">v5.159.1</text><text x="291.2" y="327.2" font-size="4" text-anchor="end" fill="#d6a382" transform="rotate(-80 291.2 327.2)">v5.159.2</text><text x="301.5" y="327.2" font-size="4" text-anchor="end" fill="#aa4400" transform="rotate(-80 301.5 327.2)">v5.160.0</text><text x="311.8" y="327.2" font-size="4" text-anchor="end" fill="#aa4400" transform="rotate(-80 311.8 327.2)">v5.161.0</text><text x="322.2" y="327.2" font-size="4" text-anchor="end" fill="#aa4400" transform="rotate(-80 322.2 327.2)">v5.162.0</text><text x="332.5" y="327.2" font-size="4" text-anchor="end" fill="#d6a382" transform="rotate(-80 332.5 327.2)">v5.162.1</text><text x="342.8" y="327.2" font-size="4" text-anchor="end" fill="#d6a382" transform="rotate(-80 342.8 327.2)">v5.162.2</text><text x="353.1" y="327.2" font-size="4" text-anchor="end" fill="#d6a382" transform="rotate(-80 353.1 327.2)">v5.162.3</text><text x="363.5" y="327.2" font-size="4" text-anchor="end" fill="#d6a382" transform="rotate(-80 363.5 327.2)">v5.162.4</text><text x="373.8" y="327.2" font-size="4" text-anchor="end" fill="#d6a382" transform="rotate(-80 373.8 327.2)">v5.162.5</text><text x="384.1" y="327.2" font-size="4" text-anchor="end" fill="#d6a382" transform="rotate(-80 384.1 327.2)">v5.162.6</text><text x="394.4" y="327.2" font-size="4" text-anchor="end" fill="#d6a382" transform="rotate(-80 394.4 327.2)">v5.162.7</text><text x="404.8" y="327.2" font-size="4" text-anchor="end" fill="#d6a382" transform="rotate(-80 404.8 327.2)">v5.162.8</text><text x="415.1" y="327.2" font-size="4" text-anchor="end" fill="#d6a382" transform="rotate(-80 415.1 327.2)">v5.162.9</text><text x="425.4" y="327.2" font-size="4" text-anchor="end" fill="#d6a382" transform="rotate(-80 425.4 327.2)">v5.162.10</text><text x="435.8" y="327.2" font-size="4" text-anchor="end" fill="#d6a382" transform="rotate(-80 435.8 327.2)">v5.162.11</text><text x="446.1" y="327.2" font-size="4" text-anchor="end" fill="#d6a382" transform="rotate(-80 446.1 327.2)">v5.162.12</text><text x="456.4" y="327.2" font-size="4" text-anchor="end" fill="#d6a382" transform="rotate(-80 456.4 327.2)">v5.162.13</text><text x="466.7" y="327.2" font-size="4" text-anchor="end" fill="#d6a382" transform="rotate(-80 466.7 327.2)">v5.162.15</text><text x="477.1" y="327.2" font-size="4" text-anchor="end" fill="#d6a382" transform="rotate(-80 477.1 327.2)">v5.162.16</text><text x="487.4" y="327.2" font-size="4" text-anchor="end" fill="#d6a382" transform="rotate(-80 487.4 327.2)">v5.162.17</text><text x="497.7" y="327.2" font-size="4" text-anchor="end" fill="#d6a382" transform="rotate(-80 497.7 327.2)">v5.162.18</text><text x="508.0" y="327.2" font-size="4" text-anchor="end" fill="#d6a382" transform="rotate(-80 508.0 327.2)">v5.162.19</text><text x="518.4" y="327.2" font-size="4" text-anchor="end" fill="#d6a382" transform="rotate(-80 518.4 327.2)">v5.162.20</text><text x="528.7" y="327.2" font-size="4" text-anchor="end" fill="#d6a382" transform="rotate(-80 528.7 327.2)">v5.162.21</text><text x="539.0" y="327.2" font-size="4" text-anchor="end" fill="#d6a382" transform="rotate(-80 539.0 327.2)">v5.162.22</text><text x="549.3" y="327.2" font-size="4" text-anchor="end" fill="#d6a382" transform="rotate(-80 549.3 327.2)">v5.162.23</text><text x="559.7" y="327.2" font-size="4" text-anchor="end" fill="#d6a382" transform="rotate(-80 559.7 327.2)">v5.162.24</text><text x="570.0" y="327.2" font-size="4" text-anchor="end" fill="#d6a382" transform="rotate(-80 570.0 327.2)">v5.162.25</text><path d="M64.0,142.8 L74.3,139.4 L84.7,147.9 L95.0,83.8 L105.3,73.9 L115.6,72.6 L126.0,73.6 L136.3,72.3 L146.6,65.5 L156.9,70.0 L167.3,65.4 L177.6,71.4 L187.9,67.3 L198.2,64.2 L208.6,70.8 L218.9,71.7 L229.2,72.3 L239.6,71.1 L249.9,78.3 L260.2,82.1 L270.5,68.6 L280.9,72.0 L291.2,66.6 L301.5,70.9 L311.8,72.5 L322.2,78.9 L332.5,64.3 L342.8,64.9 L353.1,71.0 L363.5,68.1 L373.8,81.0 L384.1,72.9 L394.4,76.9 L404.8,175.6 L415.1,175.3 L425.4,180.4 L435.8,177.8 L446.1,173.9 L456.4,177.2 L466.7,188.6 L477.1,179.3 L487.4,179.7 L497.7,177.7 L508.0,176.5 L518.4,175.3 L528.7,175.2 L539.0,173.0 L549.3,175.2 L559.7,177.5 L570.0,174.4" fill="none" stroke="#4477AA" stroke-width="1.6"/><circle cx="64.0" cy="142.8" r="2" fill="#4477AA"/><circle cx="74.3" cy="139.4" r="2" fill="#4477AA"/><circle cx="84.7" cy="147.9" r="2" fill="#4477AA"/><circle cx="95.0" cy="83.8" r="2" fill="#4477AA"/><circle cx="105.3" cy="73.9" r="2" fill="#4477AA"/><circle cx="115.6" cy="72.6" r="2" fill="#4477AA"/><circle cx="126.0" cy="73.6" r="2" fill="#4477AA"/><circle cx="136.3" cy="72.3" r="2" fill="#4477AA"/><circle cx="146.6" cy="65.5" r="2" fill="#4477AA"/><circle cx="156.9" cy="70.0" r="2" fill="#4477AA"/><circle cx="167.3" cy="65.4" r="2" fill="#4477AA"/><circle cx="177.6" cy="71.4" r="2" fill="#4477AA"/><circle cx="187.9" cy="67.3" r="2" fill="#4477AA"/><circle cx="198.2" cy="64.2" r="2" fill="#4477AA"/><circle cx="208.6" cy="70.8" r="2" fill="#4477AA"/><circle cx="218.9" cy="71.7" r="2" fill="#4477AA"/><circle cx="229.2" cy="72.3" r="2" fill="#4477AA"/><circle cx="239.6" cy="71.1" r="2" fill="#4477AA"/><circle cx="249.9" cy="78.3" r="2" fill="#4477AA"/><circle cx="260.2" cy="82.1" r="2" fill="#4477AA"/><circle cx="270.5" cy="68.6" r="2" fill="#4477AA"/><circle cx="280.9" cy="72.0" r="2" fill="#4477AA"/><circle cx="291.2" cy="66.6" r="2" fill="#4477AA"/><circle cx="301.5" cy="70.9" r="2" fill="#4477AA"/><circle cx="311.8" cy="72.5" r="2" fill="#4477AA"/><circle cx="322.2" cy="78.9" r="2" fill="#4477AA"/><circle cx="332.5" cy="64.3" r="2" fill="#4477AA"/><circle cx="342.8" cy="64.9" r="2" fill="#4477AA"/><circle cx="353.1" cy="71.0" r="2" fill="#4477AA"/><circle cx="363.5" cy="68.1" r="2" fill="#4477AA"/><circle cx="373.8" cy="81.0" r="2" fill="#4477AA"/><circle cx="384.1" cy="72.9" r="2" fill="#4477AA"/><circle cx="394.4" cy="76.9" r="2" fill="#4477AA"/><circle cx="404.8" cy="175.6" r="2" fill="#4477AA"/><circle cx="415.1" cy="175.3" r="2" fill="#4477AA"/><circle cx="425.4" cy="180.4" r="2" fill="#4477AA"/><circle cx="435.8" cy="177.8" r="2" fill="#4477AA"/><circle cx="446.1" cy="173.9" r="2" fill="#4477AA"/><circle cx="456.4" cy="177.2" r="2" fill="#4477AA"/><circle cx="466.7" cy="188.6" r="2" fill="#4477AA"/><circle cx="477.1" cy="179.3" r="2" fill="#4477AA"/><circle cx="487.4" cy="179.7" r="2" fill="#4477AA"/><circle cx="497.7" cy="177.7" r="2" fill="#4477AA"/><circle cx="508.0" cy="176.5" r="2" fill="#4477AA"/><circle cx="518.4" cy="175.3" r="2" fill="#4477AA"/><circle cx="528.7" cy="175.2" r="2" fill="#4477AA"/><circle cx="539.0" cy="173.0" r="2" fill="#4477AA"/><circle cx="549.3" cy="175.2" r="2" fill="#4477AA"/><circle cx="559.7" cy="177.5" r="2" fill="#4477AA"/><circle cx="570.0" cy="174.4" r="2" fill="#4477AA"/><rect x="580" y="34" width="10" height="10" fill="#4477AA"/><text x="594" y="43" font-size="10" fill="#444">chain-10</text><path d="M64.0,153.6 L74.3,155.5 L84.7,154.2 L95.0,84.5 L105.3,87.9 L115.6,82.4 L126.0,82.4 L136.3,82.6 L146.6,87.4 L156.9,84.4 L167.3,85.6 L177.6,84.9 L187.9,82.5 L198.2,82.8 L208.6,87.6 L218.9,88.2 L229.2,88.1 L239.6,84.8 L249.9,84.5 L260.2,91.4 L270.5,89.5 L280.9,90.5 L291.2,79.2 L301.5,86.9 L311.8,83.0 L322.2,84.3 L332.5,82.4 L342.8,85.7 L353.1,80.7 L363.5,83.4 L373.8,87.4 L384.1,89.0 L394.4,88.7 L404.8,184.0 L415.1,180.3 L425.4,185.7 L435.8,188.2 L446.1,187.8 L456.4,192.0 L466.7,188.5 L477.1,182.4 L487.4,185.5 L497.7,188.5 L508.0,190.5 L518.4,187.0 L528.7,180.7 L539.0,181.1 L549.3,183.4 L559.7,188.7 L570.0,182.6" fill="none" stroke="#EE6677" stroke-width="1.6"/><circle cx="64.0" cy="153.6" r="2" fill="#EE6677"/><circle cx="74.3" cy="155.5" r="2" fill="#EE6677"/><circle cx="84.7" cy="154.2" r="2" fill="#EE6677"/><circle cx="95.0" cy="84.5" r="2" fill="#EE6677"/><circle cx="105.3" cy="87.9" r="2" fill="#EE6677"/><circle cx="115.6" cy="82.4" r="2" fill="#EE6677"/><circle cx="126.0" cy="82.4" r="2" fill="#EE6677"/><circle cx="136.3" cy="82.6" r="2" fill="#EE6677"/><circle cx="146.6" cy="87.4" r="2" fill="#EE6677"/><circle cx="156.9" cy="84.4" r="2" fill="#EE6677"/><circle cx="167.3" cy="85.6" r="2" fill="#EE6677"/><circle cx="177.6" cy="84.9" r="2" fill="#EE6677"/><circle cx="187.9" cy="82.5" r="2" fill="#EE6677"/><circle cx="198.2" cy="82.8" r="2" fill="#EE6677"/><circle cx="208.6" cy="87.6" r="2" fill="#EE6677"/><circle cx="218.9" cy="88.2" r="2" fill="#EE6677"/><circle cx="229.2" cy="88.1" r="2" fill="#EE6677"/><circle cx="239.6" cy="84.8" r="2" fill="#EE6677"/><circle cx="249.9" cy="84.5" r="2" fill="#EE6677"/><circle cx="260.2" cy="91.4" r="2" fill="#EE6677"/><circle cx="270.5" cy="89.5" r="2" fill="#EE6677"/><circle cx="280.9" cy="90.5" r="2" fill="#EE6677"/><circle cx="291.2" cy="79.2" r="2" fill="#EE6677"/><circle cx="301.5" cy="86.9" r="2" fill="#EE6677"/><circle cx="311.8" cy="83.0" r="2" fill="#EE6677"/><circle cx="322.2" cy="84.3" r="2" fill="#EE6677"/><circle cx="332.5" cy="82.4" r="2" fill="#EE6677"/><circle cx="342.8" cy="85.7" r="2" fill="#EE6677"/><circle cx="353.1" cy="80.7" r="2" fill="#EE6677"/><circle cx="363.5" cy="83.4" r="2" fill="#EE6677"/><circle cx="373.8" cy="87.4" r="2" fill="#EE6677"/><circle cx="384.1" cy="89.0" r="2" fill="#EE6677"/><circle cx="394.4" cy="88.7" r="2" fill="#EE6677"/><circle cx="404.8" cy="184.0" r="2" fill="#EE6677"/><circle cx="415.1" cy="180.3" r="2" fill="#EE6677"/><circle cx="425.4" cy="185.7" r="2" fill="#EE6677"/><circle cx="435.8" cy="188.2" r="2" fill="#EE6677"/><circle cx="446.1" cy="187.8" r="2" fill="#EE6677"/><circle cx="456.4" cy="192.0" r="2" fill="#EE6677"/><circle cx="466.7" cy="188.5" r="2" fill="#EE6677"/><circle cx="477.1" cy="182.4" r="2" fill="#EE6677"/><circle cx="487.4" cy="185.5" r="2" fill="#EE6677"/><circle cx="497.7" cy="188.5" r="2" fill="#EE6677"/><circle cx="508.0" cy="190.5" r="2" fill="#EE6677"/><circle cx="518.4" cy="187.0" r="2" fill="#EE6677"/><circle cx="528.7" cy="180.7" r="2" fill="#EE6677"/><circle cx="539.0" cy="181.1" r="2" fill="#EE6677"/><circle cx="549.3" cy="183.4" r="2" fill="#EE6677"/><circle cx="559.7" cy="188.7" r="2" fill="#EE6677"/><circle cx="570.0" cy="182.6" r="2" fill="#EE6677"/><rect x="580" y="49" width="10" height="10" fill="#EE6677"/><text x="594" y="58" font-size="10" fill="#444">chain-50</text><path d="M64.0,173.5 L74.3,165.8 L84.7,164.6 L95.0,103.6 L105.3,105.7 L115.6,103.3 L126.0,100.2 L136.3,101.9 L146.6,100.3 L156.9,99.3 L167.3,100.8 L177.6,99.0 L187.9,102.4 L198.2,99.9 L208.6,102.8 L218.9,103.8 L229.2,104.4 L239.6,99.8 L249.9,104.6 L260.2,100.1 L270.5,105.8 L280.9,109.4 L291.2,103.2 L301.5,101.9 L311.8,101.0 L322.2,101.7 L332.5,107.2 L342.8,97.7 L353.1,99.5 L363.5,103.6 L373.8,103.3 L384.1,109.0 L394.4,114.4 L404.8,193.3 L415.1,186.7 L425.4,192.5 L435.8,187.5 L446.1,187.6 L456.4,186.2 L466.7,190.3 L477.1,184.9 L487.4,187.2 L497.7,195.1 L508.0,185.9 L518.4,183.7 L528.7,189.7 L539.0,186.1 L549.3,190.1 L559.7,191.2 L570.0,186.4" fill="none" stroke="#228833" stroke-width="1.6"/><circle cx="64.0" cy="173.5" r="2" fill="#228833"/><circle cx="74.3" cy="165.8" r="2" fill="#228833"/><circle cx="84.7" cy="164.6" r="2" fill="#228833"/><circle cx="95.0" cy="103.6" r="2" fill="#228833"/><circle cx="105.3" cy="105.7" r="2" fill="#228833"/><circle cx="115.6" cy="103.3" r="2" fill="#228833"/><circle cx="126.0" cy="100.2" r="2" fill="#228833"/><circle cx="136.3" cy="101.9" r="2" fill="#228833"/><circle cx="146.6" cy="100.3" r="2" fill="#228833"/><circle cx="156.9" cy="99.3" r="2" fill="#228833"/><circle cx="167.3" cy="100.8" r="2" fill="#228833"/><circle cx="177.6" cy="99.0" r="2" fill="#228833"/><circle cx="187.9" cy="102.4" r="2" fill="#228833"/><circle cx="198.2" cy="99.9" r="2" fill="#228833"/><circle cx="208.6" cy="102.8" r="2" fill="#228833"/><circle cx="218.9" cy="103.8" r="2" fill="#228833"/><circle cx="229.2" cy="104.4" r="2" fill="#228833"/><circle cx="239.6" cy="99.8" r="2" fill="#228833"/><circle cx="249.9" cy="104.6" r="2" fill="#228833"/><circle cx="260.2" cy="100.1" r="2" fill="#228833"/><circle cx="270.5" cy="105.8" r="2" fill="#228833"/><circle cx="280.9" cy="109.4" r="2" fill="#228833"/><circle cx="291.2" cy="103.2" r="2" fill="#228833"/><circle cx="301.5" cy="101.9" r="2" fill="#228833"/><circle cx="311.8" cy="101.0" r="2" fill="#228833"/><circle cx="322.2" cy="101.7" r="2" fill="#228833"/><circle cx="332.5" cy="107.2" r="2" fill="#228833"/><circle cx="342.8" cy="97.7" r="2" fill="#228833"/><circle cx="353.1" cy="99.5" r="2" fill="#228833"/><circle cx="363.5" cy="103.6" r="2" fill="#228833"/><circle cx="373.8" cy="103.3" r="2" fill="#228833"/><circle cx="384.1" cy="109.0" r="2" fill="#228833"/><circle cx="394.4" cy="114.4" r="2" fill="#228833"/><circle cx="404.8" cy="193.3" r="2" fill="#228833"/><circle cx="415.1" cy="186.7" r="2" fill="#228833"/><circle cx="425.4" cy="192.5" r="2" fill="#228833"/><circle cx="435.8" cy="187.5" r="2" fill="#228833"/><circle cx="446.1" cy="187.6" r="2" fill="#228833"/><circle cx="456.4" cy="186.2" r="2" fill="#228833"/><circle cx="466.7" cy="190.3" r="2" fill="#228833"/><circle cx="477.1" cy="184.9" r="2" fill="#228833"/><circle cx="487.4" cy="187.2" r="2" fill="#228833"/><circle cx="497.7" cy="195.1" r="2" fill="#228833"/><circle cx="508.0" cy="185.9" r="2" fill="#228833"/><circle cx="518.4" cy="183.7" r="2" fill="#228833"/><circle cx="528.7" cy="189.7" r="2" fill="#228833"/><circle cx="539.0" cy="186.1" r="2" fill="#228833"/><circle cx="549.3" cy="190.1" r="2" fill="#228833"/><circle cx="559.7" cy="191.2" r="2" fill="#228833"/><circle cx="570.0" cy="186.4" r="2" fill="#228833"/><rect x="580" y="64" width="10" height="10" fill="#228833"/><text x="594" y="73" font-size="10" fill="#444">chain-200</text><path d="M64.0,189.6 L74.3,189.5 L84.7,185.9 L95.0,127.0 L105.3,125.1 L115.6,123.1 L126.0,128.6 L136.3,126.2 L146.6,123.2 L156.9,126.3 L167.3,129.9 L177.6,129.6 L187.9,120.7 L198.2,136.4 L208.6,124.1 L218.9,124.0 L229.2,125.5 L239.6,121.0 L249.9,129.1 L260.2,125.1 L270.5,124.4 L280.9,125.3 L291.2,130.3 L301.5,126.5 L311.8,121.5 L322.2,129.7 L332.5,122.4 L342.8,130.5 L353.1,128.2 L363.5,132.1 L373.8,126.7 L384.1,133.4 L394.4,128.6 L404.8,211.1 L415.1,216.2 L425.4,213.9 L435.8,218.9 L446.1,214.1 L456.4,212.3 L466.7,223.8 L477.1,217.5 L487.4,215.4 L497.7,220.0 L508.0,213.8 L518.4,216.5 L528.7,221.6 L539.0,217.3 L549.3,219.5 L559.7,216.6 L570.0,216.0" fill="none" stroke="#CCBB44" stroke-width="1.6"/><circle cx="64.0" cy="189.6" r="2" fill="#CCBB44"/><circle cx="74.3" cy="189.5" r="2" fill="#CCBB44"/><circle cx="84.7" cy="185.9" r="2" fill="#CCBB44"/><circle cx="95.0" cy="127.0" r="2" fill="#CCBB44"/><circle cx="105.3" cy="125.1" r="2" fill="#CCBB44"/><circle cx="115.6" cy="123.1" r="2" fill="#CCBB44"/><circle cx="126.0" cy="128.6" r="2" fill="#CCBB44"/><circle cx="136.3" cy="126.2" r="2" fill="#CCBB44"/><circle cx="146.6" cy="123.2" r="2" fill="#CCBB44"/><circle cx="156.9" cy="126.3" r="2" fill="#CCBB44"/><circle cx="167.3" cy="129.9" r="2" fill="#CCBB44"/><circle cx="177.6" cy="129.6" r="2" fill="#CCBB44"/><circle cx="187.9" cy="120.7" r="2" fill="#CCBB44"/><circle cx="198.2" cy="136.4" r="2" fill="#CCBB44"/><circle cx="208.6" cy="124.1" r="2" fill="#CCBB44"/><circle cx="218.9" cy="124.0" r="2" fill="#CCBB44"/><circle cx="229.2" cy="125.5" r="2" fill="#CCBB44"/><circle cx="239.6" cy="121.0" r="2" fill="#CCBB44"/><circle cx="249.9" cy="129.1" r="2" fill="#CCBB44"/><circle cx="260.2" cy="125.1" r="2" fill="#CCBB44"/><circle cx="270.5" cy="124.4" r="2" fill="#CCBB44"/><circle cx="280.9" cy="125.3" r="2" fill="#CCBB44"/><circle cx="291.2" cy="130.3" r="2" fill="#CCBB44"/><circle cx="301.5" cy="126.5" r="2" fill="#CCBB44"/><circle cx="311.8" cy="121.5" r="2" fill="#CCBB44"/><circle cx="322.2" cy="129.7" r="2" fill="#CCBB44"/><circle cx="332.5" cy="122.4" r="2" fill="#CCBB44"/><circle cx="342.8" cy="130.5" r="2" fill="#CCBB44"/><circle cx="353.1" cy="128.2" r="2" fill="#CCBB44"/><circle cx="363.5" cy="132.1" r="2" fill="#CCBB44"/><circle cx="373.8" cy="126.7" r="2" fill="#CCBB44"/><circle cx="384.1" cy="133.4" r="2" fill="#CCBB44"/><circle cx="394.4" cy="128.6" r="2" fill="#CCBB44"/><circle cx="404.8" cy="211.1" r="2" fill="#CCBB44"/><circle cx="415.1" cy="216.2" r="2" fill="#CCBB44"/><circle cx="425.4" cy="213.9" r="2" fill="#CCBB44"/><circle cx="435.8" cy="218.9" r="2" fill="#CCBB44"/><circle cx="446.1" cy="214.1" r="2" fill="#CCBB44"/><circle cx="456.4" cy="212.3" r="2" fill="#CCBB44"/><circle cx="466.7" cy="223.8" r="2" fill="#CCBB44"/><circle cx="477.1" cy="217.5" r="2" fill="#CCBB44"/><circle cx="487.4" cy="215.4" r="2" fill="#CCBB44"/><circle cx="497.7" cy="220.0" r="2" fill="#CCBB44"/><circle cx="508.0" cy="213.8" r="2" fill="#CCBB44"/><circle cx="518.4" cy="216.5" r="2" fill="#CCBB44"/><circle cx="528.7" cy="221.6" r="2" fill="#CCBB44"/><circle cx="539.0" cy="217.3" r="2" fill="#CCBB44"/><circle cx="549.3" cy="219.5" r="2" fill="#CCBB44"/><circle cx="559.7" cy="216.6" r="2" fill="#CCBB44"/><circle cx="570.0" cy="216.0" r="2" fill="#CCBB44"/><rect x="580" y="79" width="10" height="10" fill="#CCBB44"/><text x="594" y="88" font-size="10" fill="#444">chain-1000</text><path d="M64.0,158.4 L74.3,160.3 L84.7,154.8 L95.0,73.0 L105.3,82.4 L115.6,80.2 L126.0,78.5 L136.3,84.9 L146.6,75.3 L156.9,79.7 L167.3,82.4 L177.6,71.3 L187.9,79.9 L198.2,71.2 L208.6,91.7 L218.9,84.2 L229.2,81.7 L239.6,83.0 L249.9,71.3 L260.2,79.0 L270.5,82.4 L280.9,88.7 L291.2,82.7 L301.5,77.5 L311.8,86.8 L322.2,85.9 L332.5,76.3 L342.8,82.9 L353.1,83.3 L363.5,79.6 L373.8,71.8 L384.1,74.5 L394.4,89.2 L404.8,178.4 L415.1,179.1 L425.4,179.2 L435.8,183.2 L446.1,185.7 L456.4,191.9 L466.7,183.8 L477.1,178.2 L487.4,187.8 L497.7,181.7 L508.0,183.9 L518.4,183.2 L528.7,187.6 L539.0,183.5 L549.3,181.5 L559.7,184.6 L570.0,180.9" fill="none" stroke="#66CCEE" stroke-width="1.6"/><circle cx="64.0" cy="158.4" r="2" fill="#66CCEE"/><circle cx="74.3" cy="160.3" r="2" fill="#66CCEE"/><circle cx="84.7" cy="154.8" r="2" fill="#66CCEE"/><circle cx="95.0" cy="73.0" r="2" fill="#66CCEE"/><circle cx="105.3" cy="82.4" r="2" fill="#66CCEE"/><circle cx="115.6" cy="80.2" r="2" fill="#66CCEE"/><circle cx="126.0" cy="78.5" r="2" fill="#66CCEE"/><circle cx="136.3" cy="84.9" r="2" fill="#66CCEE"/><circle cx="146.6" cy="75.3" r="2" fill="#66CCEE"/><circle cx="156.9" cy="79.7" r="2" fill="#66CCEE"/><circle cx="167.3" cy="82.4" r="2" fill="#66CCEE"/><circle cx="177.6" cy="71.3" r="2" fill="#66CCEE"/><circle cx="187.9" cy="79.9" r="2" fill="#66CCEE"/><circle cx="198.2" cy="71.2" r="2" fill="#66CCEE"/><circle cx="208.6" cy="91.7" r="2" fill="#66CCEE"/><circle cx="218.9" cy="84.2" r="2" fill="#66CCEE"/><circle cx="229.2" cy="81.7" r="2" fill="#66CCEE"/><circle cx="239.6" cy="83.0" r="2" fill="#66CCEE"/><circle cx="249.9" cy="71.3" r="2" fill="#66CCEE"/><circle cx="260.2" cy="79.0" r="2" fill="#66CCEE"/><circle cx="270.5" cy="82.4" r="2" fill="#66CCEE"/><circle cx="280.9" cy="88.7" r="2" fill="#66CCEE"/><circle cx="291.2" cy="82.7" r="2" fill="#66CCEE"/><circle cx="301.5" cy="77.5" r="2" fill="#66CCEE"/><circle cx="311.8" cy="86.8" r="2" fill="#66CCEE"/><circle cx="322.2" cy="85.9" r="2" fill="#66CCEE"/><circle cx="332.5" cy="76.3" r="2" fill="#66CCEE"/><circle cx="342.8" cy="82.9" r="2" fill="#66CCEE"/><circle cx="353.1" cy="83.3" r="2" fill="#66CCEE"/><circle cx="363.5" cy="79.6" r="2" fill="#66CCEE"/><circle cx="373.8" cy="71.8" r="2" fill="#66CCEE"/><circle cx="384.1" cy="74.5" r="2" fill="#66CCEE"/><circle cx="394.4" cy="89.2" r="2" fill="#66CCEE"/><circle cx="404.8" cy="178.4" r="2" fill="#66CCEE"/><circle cx="415.1" cy="179.1" r="2" fill="#66CCEE"/><circle cx="425.4" cy="179.2" r="2" fill="#66CCEE"/><circle cx="435.8" cy="183.2" r="2" fill="#66CCEE"/><circle cx="446.1" cy="185.7" r="2" fill="#66CCEE"/><circle cx="456.4" cy="191.9" r="2" fill="#66CCEE"/><circle cx="466.7" cy="183.8" r="2" fill="#66CCEE"/><circle cx="477.1" cy="178.2" r="2" fill="#66CCEE"/><circle cx="487.4" cy="187.8" r="2" fill="#66CCEE"/><circle cx="497.7" cy="181.7" r="2" fill="#66CCEE"/><circle cx="508.0" cy="183.9" r="2" fill="#66CCEE"/><circle cx="518.4" cy="183.2" r="2" fill="#66CCEE"/><circle cx="528.7" cy="187.6" r="2" fill="#66CCEE"/><circle cx="539.0" cy="183.5" r="2" fill="#66CCEE"/><circle cx="549.3" cy="181.5" r="2" fill="#66CCEE"/><circle cx="559.7" cy="184.6" r="2" fill="#66CCEE"/><circle cx="570.0" cy="180.9" r="2" fill="#66CCEE"/><rect x="580" y="94" width="10" height="10" fill="#66CCEE"/><text x="594" y="103" font-size="10" fill="#444">dense-10</text><path d="M64.0,188.5 L74.3,188.7 L84.7,186.1 L95.0,112.1 L105.3,127.7 L115.6,116.5 L126.0,117.4 L136.3,123.5 L146.6,120.8 L156.9,119.9 L167.3,120.2 L177.6,116.8 L187.9,121.7 L198.2,119.2 L208.6,118.9 L218.9,124.3 L229.2,129.0 L239.6,120.8 L249.9,127.2 L260.2,118.7 L270.5,122.4 L280.9,119.7 L291.2,124.9 L301.5,124.7 L311.8,135.6 L322.2,139.7 L332.5,131.8 L342.8,126.3 L353.1,135.4 L363.5,122.4 L373.8,118.0 L384.1,128.3 L394.4,125.6 L404.8,212.6 L415.1,211.2 L425.4,205.2 L435.8,214.3 L446.1,212.3 L456.4,214.9 L466.7,212.8 L477.1,214.3 L487.4,222.2 L497.7,222.0 L508.0,210.3 L518.4,217.4 L528.7,212.1 L539.0,216.3 L549.3,211.3 L559.7,221.8 L570.0,225.5" fill="none" stroke="#AA3377" stroke-width="1.6"/><circle cx="64.0" cy="188.5" r="2" fill="#AA3377"/><circle cx="74.3" cy="188.7" r="2" fill="#AA3377"/><circle cx="84.7" cy="186.1" r="2" fill="#AA3377"/><circle cx="95.0" cy="112.1" r="2" fill="#AA3377"/><circle cx="105.3" cy="127.7" r="2" fill="#AA3377"/><circle cx="115.6" cy="116.5" r="2" fill="#AA3377"/><circle cx="126.0" cy="117.4" r="2" fill="#AA3377"/><circle cx="136.3" cy="123.5" r="2" fill="#AA3377"/><circle cx="146.6" cy="120.8" r="2" fill="#AA3377"/><circle cx="156.9" cy="119.9" r="2" fill="#AA3377"/><circle cx="167.3" cy="120.2" r="2" fill="#AA3377"/><circle cx="177.6" cy="116.8" r="2" fill="#AA3377"/><circle cx="187.9" cy="121.7" r="2" fill="#AA3377"/><circle cx="198.2" cy="119.2" r="2" fill="#AA3377"/><circle cx="208.6" cy="118.9" r="2" fill="#AA3377"/><circle cx="218.9" cy="124.3" r="2" fill="#AA3377"/><circle cx="229.2" cy="129.0" r="2" fill="#AA3377"/><circle cx="239.6" cy="120.8" r="2" fill="#AA3377"/><circle cx="249.9" cy="127.2" r="2" fill="#AA3377"/><circle cx="260.2" cy="118.7" r="2" fill="#AA3377"/><circle cx="270.5" cy="122.4" r="2" fill="#AA3377"/><circle cx="280.9" cy="119.7" r="2" fill="#AA3377"/><circle cx="291.2" cy="124.9" r="2" fill="#AA3377"/><circle cx="301.5" cy="124.7" r="2" fill="#AA3377"/><circle cx="311.8" cy="135.6" r="2" fill="#AA3377"/><circle cx="322.2" cy="139.7" r="2" fill="#AA3377"/><circle cx="332.5" cy="131.8" r="2" fill="#AA3377"/><circle cx="342.8" cy="126.3" r="2" fill="#AA3377"/><circle cx="353.1" cy="135.4" r="2" fill="#AA3377"/><circle cx="363.5" cy="122.4" r="2" fill="#AA3377"/><circle cx="373.8" cy="118.0" r="2" fill="#AA3377"/><circle cx="384.1" cy="128.3" r="2" fill="#AA3377"/><circle cx="394.4" cy="125.6" r="2" fill="#AA3377"/><circle cx="404.8" cy="212.6" r="2" fill="#AA3377"/><circle cx="415.1" cy="211.2" r="2" fill="#AA3377"/><circle cx="425.4" cy="205.2" r="2" fill="#AA3377"/><circle cx="435.8" cy="214.3" r="2" fill="#AA3377"/><circle cx="446.1" cy="212.3" r="2" fill="#AA3377"/><circle cx="456.4" cy="214.9" r="2" fill="#AA3377"/><circle cx="466.7" cy="212.8" r="2" fill="#AA3377"/><circle cx="477.1" cy="214.3" r="2" fill="#AA3377"/><circle cx="487.4" cy="222.2" r="2" fill="#AA3377"/><circle cx="497.7" cy="222.0" r="2" fill="#AA3377"/><circle cx="508.0" cy="210.3" r="2" fill="#AA3377"/><circle cx="518.4" cy="217.4" r="2" fill="#AA3377"/><circle cx="528.7" cy="212.1" r="2" fill="#AA3377"/><circle cx="539.0" cy="216.3" r="2" fill="#AA3377"/><circle cx="549.3" cy="211.3" r="2" fill="#AA3377"/><circle cx="559.7" cy="221.8" r="2" fill="#AA3377"/><circle cx="570.0" cy="225.5" r="2" fill="#AA3377"/><rect x="580" y="109" width="10" height="10" fill="#AA3377"/><text x="594" y="118" font-size="10" fill="#444">dense-50</text><path d="M64.0,237.5 L74.3,241.3 L84.7,240.2 L95.0,177.8 L105.3,176.7 L115.6,179.0 L126.0,177.7 L136.3,179.1 L146.6,176.7 L156.9,181.6 L167.3,180.1 L177.6,176.8 L187.9,177.3 L198.2,180.0 L208.6,181.2 L218.9,180.6 L229.2,178.6 L239.6,177.9 L249.9,180.6 L260.2,184.8 L270.5,181.4 L280.9,179.1 L291.2,183.4 L301.5,179.9 L311.8,182.4 L322.2,180.4 L332.5,180.7 L342.8,177.5 L353.1,182.1 L363.5,176.6 L373.8,180.4 L384.1,177.6 L394.4,181.9 L404.8,239.0 L415.1,238.2 L425.4,240.5 L435.8,237.0 L446.1,236.0 L456.4,233.4 L466.7,241.2 L477.1,237.9 L487.4,235.1 L497.7,239.1 L508.0,237.0 L518.4,233.4 L528.7,237.5 L539.0,237.5 L549.3,238.5 L559.7,245.2 L570.0,241.2" fill="none" stroke="#BBBBBB" stroke-width="1.6"/><circle cx="64.0" cy="237.5" r="2" fill="#BBBBBB"/><circle cx="74.3" cy="241.3" r="2" fill="#BBBBBB"/><circle cx="84.7" cy="240.2" r="2" fill="#BBBBBB"/><circle cx="95.0" cy="177.8" r="2" fill="#BBBBBB"/><circle cx="105.3" cy="176.7" r="2" fill="#BBBBBB"/><circle cx="115.6" cy="179.0" r="2" fill="#BBBBBB"/><circle cx="126.0" cy="177.7" r="2" fill="#BBBBBB"/><circle cx="136.3" cy="179.1" r="2" fill="#BBBBBB"/><circle cx="146.6" cy="176.7" r="2" fill="#BBBBBB"/><circle cx="156.9" cy="181.6" r="2" fill="#BBBBBB"/><circle cx="167.3" cy="180.1" r="2" fill="#BBBBBB"/><circle cx="177.6" cy="176.8" r="2" fill="#BBBBBB"/><circle cx="187.9" cy="177.3" r="2" fill="#BBBBBB"/><circle cx="198.2" cy="180.0" r="2" fill="#BBBBBB"/><circle cx="208.6" cy="181.2" r="2" fill="#BBBBBB"/><circle cx="218.9" cy="180.6" r="2" fill="#BBBBBB"/><circle cx="229.2" cy="178.6" r="2" fill="#BBBBBB"/><circle cx="239.6" cy="177.9" r="2" fill="#BBBBBB"/><circle cx="249.9" cy="180.6" r="2" fill="#BBBBBB"/><circle cx="260.2" cy="184.8" r="2" fill="#BBBBBB"/><circle cx="270.5" cy="181.4" r="2" fill="#BBBBBB"/><circle cx="280.9" cy="179.1" r="2" fill="#BBBBBB"/><circle cx="291.2" cy="183.4" r="2" fill="#BBBBBB"/><circle cx="301.5" cy="179.9" r="2" fill="#BBBBBB"/><circle cx="311.8" cy="182.4" r="2" fill="#BBBBBB"/><circle cx="322.2" cy="180.4" r="2" fill="#BBBBBB"/><circle cx="332.5" cy="180.7" r="2" fill="#BBBBBB"/><circle cx="342.8" cy="177.5" r="2" fill="#BBBBBB"/><circle cx="353.1" cy="182.1" r="2" fill="#BBBBBB"/><circle cx="363.5" cy="176.6" r="2" fill="#BBBBBB"/><circle cx="373.8" cy="180.4" r="2" fill="#BBBBBB"/><circle cx="384.1" cy="177.6" r="2" fill="#BBBBBB"/><circle cx="394.4" cy="181.9" r="2" fill="#BBBBBB"/><circle cx="404.8" cy="239.0" r="2" fill="#BBBBBB"/><circle cx="415.1" cy="238.2" r="2" fill="#BBBBBB"/><circle cx="425.4" cy="240.5" r="2" fill="#BBBBBB"/><circle cx="435.8" cy="237.0" r="2" fill="#BBBBBB"/><circle cx="446.1" cy="236.0" r="2" fill="#BBBBBB"/><circle cx="456.4" cy="233.4" r="2" fill="#BBBBBB"/><circle cx="466.7" cy="241.2" r="2" fill="#BBBBBB"/><circle cx="477.1" cy="237.9" r="2" fill="#BBBBBB"/><circle cx="487.4" cy="235.1" r="2" fill="#BBBBBB"/><circle cx="497.7" cy="239.1" r="2" fill="#BBBBBB"/><circle cx="508.0" cy="237.0" r="2" fill="#BBBBBB"/><circle cx="518.4" cy="233.4" r="2" fill="#BBBBBB"/><circle cx="528.7" cy="237.5" r="2" fill="#BBBBBB"/><circle cx="539.0" cy="237.5" r="2" fill="#BBBBBB"/><circle cx="549.3" cy="238.5" r="2" fill="#BBBBBB"/><circle cx="559.7" cy="245.2" r="2" fill="#BBBBBB"/><circle cx="570.0" cy="241.2" r="2" fill="#BBBBBB"/><rect x="580" y="124" width="10" height="10" fill="#BBBBBB"/><text x="594" y="133" font-size="10" fill="#444">dense-200</text><path d="M64.0,148.6 L74.3,150.5 L84.7,142.9 L95.0,63.2 L105.3,62.1 L115.6,66.7 L126.0,66.0 L136.3,70.1 L146.6,63.9 L156.9,66.1 L167.3,64.9 L177.6,64.8 L187.9,58.2 L198.2,72.0 L208.6,70.7 L218.9,68.8 L229.2,66.1 L239.6,64.8 L249.9,62.2 L260.2,68.9 L270.5,61.6 L280.9,68.8 L291.2,60.0 L301.5,63.6 L311.8,59.3 L322.2,59.0 L332.5,66.5 L342.8,60.8 L353.1,59.0 L363.5,62.7 L373.8,67.6 L384.1,68.6 L394.4,72.6 L404.8,180.9 L415.1,180.6 L425.4,182.7 L435.8,181.2 L446.1,183.4 L456.4,182.2 L466.7,181.6 L477.1,180.9 L487.4,180.8 L497.7,180.3 L508.0,185.2 L518.4,181.7 L528.7,182.2 L539.0,180.3 L549.3,184.8 L559.7,186.0 L570.0,179.5" fill="none" stroke="#222255" stroke-width="1.6"/><circle cx="64.0" cy="148.6" r="2" fill="#222255"/><circle cx="74.3" cy="150.5" r="2" fill="#222255"/><circle cx="84.7" cy="142.9" r="2" fill="#222255"/><circle cx="95.0" cy="63.2" r="2" fill="#222255"/><circle cx="105.3" cy="62.1" r="2" fill="#222255"/><circle cx="115.6" cy="66.7" r="2" fill="#222255"/><circle cx="126.0" cy="66.0" r="2" fill="#222255"/><circle cx="136.3" cy="70.1" r="2" fill="#222255"/><circle cx="146.6" cy="63.9" r="2" fill="#222255"/><circle cx="156.9" cy="66.1" r="2" fill="#222255"/><circle cx="167.3" cy="64.9" r="2" fill="#222255"/><circle cx="177.6" cy="64.8" r="2" fill="#222255"/><circle cx="187.9" cy="58.2" r="2" fill="#222255"/><circle cx="198.2" cy="72.0" r="2" fill="#222255"/><circle cx="208.6" cy="70.7" r="2" fill="#222255"/><circle cx="218.9" cy="68.8" r="2" fill="#222255"/><circle cx="229.2" cy="66.1" r="2" fill="#222255"/><circle cx="239.6" cy="64.8" r="2" fill="#222255"/><circle cx="249.9" cy="62.2" r="2" fill="#222255"/><circle cx="260.2" cy="68.9" r="2" fill="#222255"/><circle cx="270.5" cy="61.6" r="2" fill="#222255"/><circle cx="280.9" cy="68.8" r="2" fill="#222255"/><circle cx="291.2" cy="60.0" r="2" fill="#222255"/><circle cx="301.5" cy="63.6" r="2" fill="#222255"/><circle cx="311.8" cy="59.3" r="2" fill="#222255"/><circle cx="322.2" cy="59.0" r="2" fill="#222255"/><circle cx="332.5" cy="66.5" r="2" fill="#222255"/><circle cx="342.8" cy="60.8" r="2" fill="#222255"/><circle cx="353.1" cy="59.0" r="2" fill="#222255"/><circle cx="363.5" cy="62.7" r="2" fill="#222255"/><circle cx="373.8" cy="67.6" r="2" fill="#222255"/><circle cx="384.1" cy="68.6" r="2" fill="#222255"/><circle cx="394.4" cy="72.6" r="2" fill="#222255"/><circle cx="404.8" cy="180.9" r="2" fill="#222255"/><circle cx="415.1" cy="180.6" r="2" fill="#222255"/><circle cx="425.4" cy="182.7" r="2" fill="#222255"/><circle cx="435.8" cy="181.2" r="2" fill="#222255"/><circle cx="446.1" cy="183.4" r="2" fill="#222255"/><circle cx="456.4" cy="182.2" r="2" fill="#222255"/><circle cx="466.7" cy="181.6" r="2" fill="#222255"/><circle cx="477.1" cy="180.9" r="2" fill="#222255"/><circle cx="487.4" cy="180.8" r="2" fill="#222255"/><circle cx="497.7" cy="180.3" r="2" fill="#222255"/><circle cx="508.0" cy="185.2" r="2" fill="#222255"/><circle cx="518.4" cy="181.7" r="2" fill="#222255"/><circle cx="528.7" cy="182.2" r="2" fill="#222255"/><circle cx="539.0" cy="180.3" r="2" fill="#222255"/><circle cx="549.3" cy="184.8" r="2" fill="#222255"/><circle cx="559.7" cy="186.0" r="2" fill="#222255"/><circle cx="570.0" cy="179.5" r="2" fill="#222255"/><rect x="580" y="139" width="10" height="10" fill="#222255"/><text x="594" y="148" font-size="10" fill="#444">hub-50</text><path d="M64.0,154.6 L74.3,154.5 L84.7,152.3 L95.0,71.9 L105.3,66.7 L115.6,68.4 L126.0,70.4 L136.3,69.2 L146.6,74.5 L156.9,69.9 L167.3,66.8 L177.6,64.9 L187.9,68.5 L198.2,68.4 L208.6,67.7 L218.9,69.3 L229.2,65.0 L239.6,67.7 L249.9,70.5 L260.2,71.1 L270.5,65.9 L280.9,72.2 L291.2,66.8 L301.5,63.5 L311.8,64.6 L322.2,66.1 L332.5,68.3 L342.8,69.6 L353.1,66.2 L363.5,69.4 L373.8,67.1 L384.1,72.6 L394.4,71.4 L404.8,190.1 L415.1,199.5 L425.4,193.9 L435.8,191.6 L446.1,191.5 L456.4,189.3 L466.7,191.8 L477.1,188.7 L487.4,188.8 L497.7,194.8 L508.0,190.0 L518.4,188.5 L528.7,189.3 L539.0,190.4 L549.3,189.9 L559.7,198.1 L570.0,188.7" fill="none" stroke="#225555" stroke-width="1.6"/><circle cx="64.0" cy="154.6" r="2" fill="#225555"/><circle cx="74.3" cy="154.5" r="2" fill="#225555"/><circle cx="84.7" cy="152.3" r="2" fill="#225555"/><circle cx="95.0" cy="71.9" r="2" fill="#225555"/><circle cx="105.3" cy="66.7" r="2" fill="#225555"/><circle cx="115.6" cy="68.4" r="2" fill="#225555"/><circle cx="126.0" cy="70.4" r="2" fill="#225555"/><circle cx="136.3" cy="69.2" r="2" fill="#225555"/><circle cx="146.6" cy="74.5" r="2" fill="#225555"/><circle cx="156.9" cy="69.9" r="2" fill="#225555"/><circle cx="167.3" cy="66.8" r="2" fill="#225555"/><circle cx="177.6" cy="64.9" r="2" fill="#225555"/><circle cx="187.9" cy="68.5" r="2" fill="#225555"/><circle cx="198.2" cy="68.4" r="2" fill="#225555"/><circle cx="208.6" cy="67.7" r="2" fill="#225555"/><circle cx="218.9" cy="69.3" r="2" fill="#225555"/><circle cx="229.2" cy="65.0" r="2" fill="#225555"/><circle cx="239.6" cy="67.7" r="2" fill="#225555"/><circle cx="249.9" cy="70.5" r="2" fill="#225555"/><circle cx="260.2" cy="71.1" r="2" fill="#225555"/><circle cx="270.5" cy="65.9" r="2" fill="#225555"/><circle cx="280.9" cy="72.2" r="2" fill="#225555"/><circle cx="291.2" cy="66.8" r="2" fill="#225555"/><circle cx="301.5" cy="63.5" r="2" fill="#225555"/><circle cx="311.8" cy="64.6" r="2" fill="#225555"/><circle cx="322.2" cy="66.1" r="2" fill="#225555"/><circle cx="332.5" cy="68.3" r="2" fill="#225555"/><circle cx="342.8" cy="69.6" r="2" fill="#225555"/><circle cx="353.1" cy="66.2" r="2" fill="#225555"/><circle cx="363.5" cy="69.4" r="2" fill="#225555"/><circle cx="373.8" cy="67.1" r="2" fill="#225555"/><circle cx="384.1" cy="72.6" r="2" fill="#225555"/><circle cx="394.4" cy="71.4" r="2" fill="#225555"/><circle cx="404.8" cy="190.1" r="2" fill="#225555"/><circle cx="415.1" cy="199.5" r="2" fill="#225555"/><circle cx="425.4" cy="193.9" r="2" fill="#225555"/><circle cx="435.8" cy="191.6" r="2" fill="#225555"/><circle cx="446.1" cy="191.5" r="2" fill="#225555"/><circle cx="456.4" cy="189.3" r="2" fill="#225555"/><circle cx="466.7" cy="191.8" r="2" fill="#225555"/><circle cx="477.1" cy="188.7" r="2" fill="#225555"/><circle cx="487.4" cy="188.8" r="2" fill="#225555"/><circle cx="497.7" cy="194.8" r="2" fill="#225555"/><circle cx="508.0" cy="190.0" r="2" fill="#225555"/><circle cx="518.4" cy="188.5" r="2" fill="#225555"/><circle cx="528.7" cy="189.3" r="2" fill="#225555"/><circle cx="539.0" cy="190.4" r="2" fill="#225555"/><circle cx="549.3" cy="189.9" r="2" fill="#225555"/><circle cx="559.7" cy="198.1" r="2" fill="#225555"/><circle cx="570.0" cy="188.7" r="2" fill="#225555"/><rect x="580" y="154" width="10" height="10" fill="#225555"/><text x="594" y="163" font-size="10" fill="#444">hub-200</text><path d="M64.0,286.8 L74.3,285.3 L84.7,289.4 L95.0,263.1 L105.3,262.5 L115.6,261.8 L126.0,260.7 L136.3,260.8 L146.6,261.0 L156.9,262.2 L167.3,260.5 L177.6,263.9 L187.9,261.8 L198.2,262.1 L208.6,259.1 L218.9,261.9 L229.2,262.7 L239.6,262.1 L249.9,262.7 L260.2,264.7 L270.5,261.2 L280.9,262.0 L291.2,263.5 L301.5,262.2 L311.8,261.2 L322.2,260.7 L332.5,262.5 L342.8,259.2 L353.1,258.1 L363.5,263.9 L373.8,257.8 L384.1,262.6 L394.4,260.9 L404.8,293.7 L415.1,294.3 L425.4,292.9 L435.8,292.9 L446.1,294.9 L456.4,294.5 L466.7,296.4 L477.1,293.7 L487.4,296.6 L497.7,292.4 L508.0,294.3 L518.4,294.5 L528.7,295.0 L539.0,297.3 L549.3,299.8 L559.7,298.1 L570.0,295.7" fill="none" stroke="#552222" stroke-width="1.6"/><circle cx="64.0" cy="286.8" r="2" fill="#552222"/><circle cx="74.3" cy="285.3" r="2" fill="#552222"/><circle cx="84.7" cy="289.4" r="2" fill="#552222"/><circle cx="95.0" cy="263.1" r="2" fill="#552222"/><circle cx="105.3" cy="262.5" r="2" fill="#552222"/><circle cx="115.6" cy="261.8" r="2" fill="#552222"/><circle cx="126.0" cy="260.7" r="2" fill="#552222"/><circle cx="136.3" cy="260.8" r="2" fill="#552222"/><circle cx="146.6" cy="261.0" r="2" fill="#552222"/><circle cx="156.9" cy="262.2" r="2" fill="#552222"/><circle cx="167.3" cy="260.5" r="2" fill="#552222"/><circle cx="177.6" cy="263.9" r="2" fill="#552222"/><circle cx="187.9" cy="261.8" r="2" fill="#552222"/><circle cx="198.2" cy="262.1" r="2" fill="#552222"/><circle cx="208.6" cy="259.1" r="2" fill="#552222"/><circle cx="218.9" cy="261.9" r="2" fill="#552222"/><circle cx="229.2" cy="262.7" r="2" fill="#552222"/><circle cx="239.6" cy="262.1" r="2" fill="#552222"/><circle cx="249.9" cy="262.7" r="2" fill="#552222"/><circle cx="260.2" cy="264.7" r="2" fill="#552222"/><circle cx="270.5" cy="261.2" r="2" fill="#552222"/><circle cx="280.9" cy="262.0" r="2" fill="#552222"/><circle cx="291.2" cy="263.5" r="2" fill="#552222"/><circle cx="301.5" cy="262.2" r="2" fill="#552222"/><circle cx="311.8" cy="261.2" r="2" fill="#552222"/><circle cx="322.2" cy="260.7" r="2" fill="#552222"/><circle cx="332.5" cy="262.5" r="2" fill="#552222"/><circle cx="342.8" cy="259.2" r="2" fill="#552222"/><circle cx="353.1" cy="258.1" r="2" fill="#552222"/><circle cx="363.5" cy="263.9" r="2" fill="#552222"/><circle cx="373.8" cy="257.8" r="2" fill="#552222"/><circle cx="384.1" cy="262.6" r="2" fill="#552222"/><circle cx="394.4" cy="260.9" r="2" fill="#552222"/><circle cx="404.8" cy="293.7" r="2" fill="#552222"/><circle cx="415.1" cy="294.3" r="2" fill="#552222"/><circle cx="425.4" cy="292.9" r="2" fill="#552222"/><circle cx="435.8" cy="292.9" r="2" fill="#552222"/><circle cx="446.1" cy="294.9" r="2" fill="#552222"/><circle cx="456.4" cy="294.5" r="2" fill="#552222"/><circle cx="466.7" cy="296.4" r="2" fill="#552222"/><circle cx="477.1" cy="293.7" r="2" fill="#552222"/><circle cx="487.4" cy="296.6" r="2" fill="#552222"/><circle cx="497.7" cy="292.4" r="2" fill="#552222"/><circle cx="508.0" cy="294.3" r="2" fill="#552222"/><circle cx="518.4" cy="294.5" r="2" fill="#552222"/><circle cx="528.7" cy="295.0" r="2" fill="#552222"/><circle cx="539.0" cy="297.3" r="2" fill="#552222"/><circle cx="549.3" cy="299.8" r="2" fill="#552222"/><circle cx="559.7" cy="298.1" r="2" fill="#552222"/><circle cx="570.0" cy="295.7" r="2" fill="#552222"/><rect x="580" y="169" width="10" height="10" fill="#552222"/><text x="594" y="178" font-size="10" fill="#444">hooked-200</text></svg>