<svg width="720" height="372" xmlns="http://www.w3.org/2000/svg"><rect width="720" height="372" fill="#ffffff"/><text x="64" y="20" font-size="15" font-weight="bold" fill="#333">list_exit_actions() — ops/sec (linear scale, last 50) by PR / release, c8g.medium</text><line x1="74.3" y1="34" x2="74.3" y2="324" stroke="#e8e8e8"/><line x1="84.7" y1="34" x2="84.7" y2="324" stroke="#e8e8e8"/><line x1="95.0" y1="34" x2="95.0" y2="324" stroke="#e8e8e8"/><line x1="105.3" y1="34" x2="105.3" y2="324" stroke="#e8e8e8"/><line x1="126.0" y1="34" x2="126.0" y2="324" stroke="#e8e8e8"/><line x1="136.3" y1="34" x2="136.3" y2="324" stroke="#e8e8e8"/><line x1="146.6" y1="34" x2="146.6" y2="324" stroke="#e8e8e8"/><line x1="156.9" y1="34" x2="156.9" y2="324" stroke="#e8e8e8"/><line x1="177.6" y1="34" x2="177.6" y2="324" stroke="#e8e8e8"/><line x1="187.9" y1="34" x2="187.9" y2="324" stroke="#e8e8e8"/><line x1="198.2" y1="34" x2="198.2" y2="324" stroke="#e8e8e8"/><line x1="208.6" y1="34" x2="208.6" y2="324" stroke="#e8e8e8"/><line x1="229.2" y1="34" x2="229.2" y2="324" stroke="#e8e8e8"/><line x1="239.6" y1="34" x2="239.6" y2="324" stroke="#e8e8e8"/><line x1="249.9" y1="34" x2="249.9" y2="324" stroke="#e8e8e8"/><line x1="260.2" y1="34" x2="260.2" y2="324" stroke="#e8e8e8"/><line x1="280.9" y1="34" x2="280.9" y2="324" stroke="#e8e8e8"/><line x1="291.2" y1="34" x2="291.2" y2="324" stroke="#e8e8e8"/><line x1="301.5" y1="34" x2="301.5" y2="324" stroke="#e8e8e8"/><line x1="311.8" y1="34" x2="311.8" y2="324" stroke="#e8e8e8"/><line x1="332.5" y1="34" x2="332.5" y2="324" stroke="#e8e8e8"/><line x1="342.8" y1="34" x2="342.8" y2="324" stroke="#e8e8e8"/><line x1="353.1" y1="34" x2="353.1" y2="324" stroke="#e8e8e8"/><line x1="363.5" y1="34" x2="363.5" y2="324" stroke="#e8e8e8"/><line x1="384.1" y1="34" x2="384.1" y2="324" stroke="#e8e8e8"/><line x1="394.4" y1="34" x2="394.4" y2="324" stroke="#e8e8e8"/><line x1="404.8" y1="34" x2="404.8" y2="324" stroke="#e8e8e8"/><line x1="415.1" y1="34" x2="415.1" y2="324" stroke="#e8e8e8"/><line x1="435.8" y1="34" x2="435.8" y2="324" stroke="#e8e8e8"/><line x1="446.1" y1="34" x2="446.1" y2="324" stroke="#e8e8e8"/><line x1="456.4" y1="34" x2="456.4" y2="324" stroke="#e8e8e8"/><line x1="466.7" y1="34" x2="466.7" y2="324" stroke="#e8e8e8"/><line x1="487.4" y1="34" x2="487.4" y2="324" stroke="#e8e8e8"/><line x1="497.7" y1="34" x2="497.7" y2="324" stroke="#e8e8e8"/><line x1="508.0" y1="34" x2="508.0" y2="324" stroke="#e8e8e8"/><line x1="518.4" y1="34" x2="518.4" y2="324" stroke="#e8e8e8"/><line x1="539.0" y1="34" x2="539.0" y2="324" stroke="#e8e8e8"/><line x1="549.3" y1="34" x2="549.3" y2="324" stroke="#e8e8e8"/><line x1="559.7" y1="34" x2="559.7" y2="324" stroke="#e8e8e8"/><line x1="570.0" y1="34" x2="570.0" y2="324" stroke="#e8e8e8"/><line x1="64.0" y1="34" x2="64.0" y2="324" stroke="#d0d0d0"/><line x1="115.6" y1="34" x2="115.6" y2="324" stroke="#d0d0d0"/><line x1="167.3" y1="34" x2="167.3" y2="324" stroke="#d0d0d0"/><line x1="218.9" y1="34" x2="218.9" y2="324" stroke="#d0d0d0"/><line x1="270.5" y1="34" x2="270.5" y2="324" stroke="#d0d0d0"/><line x1="322.2" y1="34" x2="322.2" y2="324" stroke="#d0d0d0"/><line x1="373.8" y1="34" x2="373.8" y2="324" stroke="#d0d0d0"/><line x1="425.4" y1="34" x2="425.4" y2="324" stroke="#d0d0d0"/><line x1="477.1" y1="34" x2="477.1" y2="324" stroke="#d0d0d0"/><line x1="528.7" y1="34" x2="528.7" y2="324" stroke="#d0d0d0"/><line x1="64" y1="324.0" x2="570" y2="324.0" stroke="#b0b0b0"/><text x="58" y="328.0" font-size="10" text-anchor="end" fill="#888">-11.1k</text><line x1="64" y1="266.0" x2="570" y2="266.0" stroke="#b0b0b0"/><text x="58" y="270.0" font-size="10" text-anchor="end" fill="#888">60.1k</text><line x1="64" y1="208.0" x2="570" y2="208.0" stroke="#b0b0b0"/><text x="58" y="212.0" font-size="10" text-anchor="end" fill="#888">131.3k</text><line x1="64" y1="150.0" x2="570" y2="150.0" stroke="#b0b0b0"/><text x="58" y="154.0" font-size="10" text-anchor="end" fill="#888">202.4k</text><line x1="64" y1="92.0" x2="570" y2="92.0" stroke="#b0b0b0"/><text x="58" y="96.0" font-size="10" text-anchor="end" fill="#888">273.6k</text><line x1="64" y1="34.0" x2="570" y2="34.0" stroke="#b0b0b0"/><text x="58" y="38.0" font-size="10" text-anchor="end" fill="#888">344.8k</text><text x="64.0" y="327.2" font-size="4" text-anchor="end" fill="#aa4400" transform="rotate(-80 64.0 327.2)">v5.157.2</text><text x="74.3" y="327.2" font-size="4" text-anchor="end" fill="#d6a382" transform="rotate(-80 74.3 327.2)">v5.157.3</text><text x="84.7" y="327.2" font-size="4" text-anchor="end" fill="#d6a382" transform="rotate(-80 84.7 327.2)">v5.157.4</text><text x="95.0" y="327.2" font-size="4" text-anchor="end" fill="#d6a382" transform="rotate(-80 95.0 327.2)">v5.157.5</text><text x="105.3" y="327.2" font-size="4" text-anchor="end" fill="#d6a382" transform="rotate(-80 105.3 327.2)">v5.157.6</text><text x="115.6" y="327.2" font-size="4" text-anchor="end" fill="#d6a382" transform="rotate(-80 115.6 327.2)">v5.157.7</text><text x="126.0" y="327.2" font-size="4" text-anchor="end" fill="#d6a382" transform="rotate(-80 126.0 327.2)">v5.157.8</text><text x="136.3" y="327.2" font-size="4" text-anchor="end" fill="#d6a382" transform="rotate(-80 136.3 327.2)">v5.157.9</text><text x="146.6" y="327.2" font-size="4" text-anchor="end" fill="#d6a382" transform="rotate(-80 146.6 327.2)">v5.157.10</text><text x="156.9" y="327.2" font-size="4" text-anchor="end" fill="#d6a382" transform="rotate(-80 156.9 327.2)">v5.157.11</text><text x="167.3" y="327.2" font-size="4" text-anchor="end" fill="#d6a382" transform="rotate(-80 167.3 327.2)">v5.157.12</text><text x="177.6" y="327.2" font-size="4" text-anchor="end" fill="#d6a382" transform="rotate(-80 177.6 327.2)">v5.157.13</text><text x="187.9" y="327.2" font-size="4" text-anchor="end" fill="#d6a382" transform="rotate(-80 187.9 327.2)">v5.157.14</text><text x="198.2" y="327.2" font-size="4" text-anchor="end" fill="#d6a382" transform="rotate(-80 198.2 327.2)">v5.157.15</text><text x="208.6" y="327.2" font-size="4" text-anchor="end" fill="#d6a382" transform="rotate(-80 208.6 327.2)">v5.157.16</text><text x="218.9" y="327.2" font-size="4" text-anchor="end" fill="#d6a382" transform="rotate(-80 218.9 327.2)">v5.157.17</text><text x="229.2" y="327.2" font-size="4" text-anchor="end" fill="#d6a382" transform="rotate(-80 229.2 327.2)">v5.157.18</text><text x="239.6" y="327.2" font-size="4" text-anchor="end" fill="#aa4400" transform="rotate(-80 239.6 327.2)">v5.158.0</text><text x="249.9" y="327.2" font-size="4" text-anchor="end" fill="#d6a382" transform="rotate(-80 249.9 327.2)">v5.158.1</text><text x="260.2" y="327.2" font-size="4" text-anchor="end" fill="#d6a382" transform="rotate(-80 260.2 327.2)">v5.158.2</text><text x="270.5" y="327.2" font-size="4" text-anchor="end" fill="#aa4400" transform="rotate(-80 270.5 327.2)">v5.159.0</text><text x="280.9" y="327.2" font-size="4" text-anchor="end" fill="#d6a382" transform="rotate(-80 280.9 327.2)">v5.159.1</text><text x="291.2" y="327.2" font-size="4" text-anchor="end" fill="#d6a382" transform="rotate(-80 291.2 327.2)">v5.159.2</text><text x="301.5" y="327.2" font-size="4" text-anchor="end" fill="#aa4400" transform="rotate(-80 301.5 327.2)">v5.160.0</text><text x="311.8" y="327.2" font-size="4" text-anchor="end" fill="#aa4400" transform="rotate(-80 311.8 327.2)">v5.161.0</text><text x="322.2" y="327.2" font-size="4" text-anchor="end" fill="#aa4400" transform="rotate(-80 322.2 327.2)">v5.162.0</text><text x="332.5" y="327.2" font-size="4" text-anchor="end" fill="#d6a382" transform="rotate(-80 332.5 327.2)">v5.162.1</text><text x="342.8" y="327.2" font-size="4" text-anchor="end" fill="#d6a382" transform="rotate(-80 342.8 327.2)">v5.162.2</text><text x="353.1" y="327.2" font-size="4" text-anchor="end" fill="#d6a382" transform="rotate(-80 353.1 327.2)">v5.162.3</text><text x="363.5" y="327.2" font-size="4" text-anchor="end" fill="#d6a382" transform="rotate(-80 363.5 327.2)">v5.162.4</text><text x="373.8" y="327.2" font-size="4" text-anchor="end" fill="#d6a382" transform="rotate(-80 373.8 327.2)">v5.162.5</text><text x="384.1" y="327.2" font-size="4" text-anchor="end" fill="#d6a382" transform="rotate(-80 384.1 327.2)">v5.162.6</text><text x="394.4" y="327.2" font-size="4" text-anchor="end" fill="#d6a382" transform="rotate(-80 394.4 327.2)">v5.162.7</text><text x="404.8" y="327.2" font-size="4" text-anchor="end" fill="#d6a382" transform="rotate(-80 404.8 327.2)">v5.162.8</text><text x="415.1" y="327.2" font-size="4" text-anchor="end" fill="#d6a382" transform="rotate(-80 415.1 327.2)">v5.162.9</text><text x="425.4" y="327.2" font-size="4" text-anchor="end" fill="#d6a382" transform="rotate(-80 425.4 327.2)">v5.162.10</text><text x="435.8" y="327.2" font-size="4" text-anchor="end" fill="#d6a382" transform="rotate(-80 435.8 327.2)">v5.162.11</text><text x="446.1" y="327.2" font-size="4" text-anchor="end" fill="#d6a382" transform="rotate(-80 446.1 327.2)">v5.162.12</text><text x="456.4" y="327.2" font-size="4" text-anchor="end" fill="#d6a382" transform="rotate(-80 456.4 327.2)">v5.162.13</text><text x="466.7" y="327.2" font-size="4" text-anchor="end" fill="#d6a382" transform="rotate(-80 466.7 327.2)">v5.162.15</text><text x="477.1" y="327.2" font-size="4" text-anchor="end" fill="#d6a382" transform="rotate(-80 477.1 327.2)">v5.162.16</text><text x="487.4" y="327.2" font-size="4" text-anchor="end" fill="#d6a382" transform="rotate(-80 487.4 327.2)">v5.162.17</text><text x="497.7" y="327.2" font-size="4" text-anchor="end" fill="#d6a382" transform="rotate(-80 497.7 327.2)">v5.162.18</text><text x="508.0" y="327.2" font-size="4" text-anchor="end" fill="#d6a382" transform="rotate(-80 508.0 327.2)">v5.162.19</text><text x="518.4" y="327.2" font-size="4" text-anchor="end" fill="#d6a382" transform="rotate(-80 518.4 327.2)">v5.162.20</text><text x="528.7" y="327.2" font-size="4" text-anchor="end" fill="#d6a382" transform="rotate(-80 528.7 327.2)">v5.162.21</text><text x="539.0" y="327.2" font-size="4" text-anchor="end" fill="#d6a382" transform="rotate(-80 539.0 327.2)">v5.162.22</text><text x="549.3" y="327.2" font-size="4" text-anchor="end" fill="#d6a382" transform="rotate(-80 549.3 327.2)">v5.162.23</text><text x="559.7" y="327.2" font-size="4" text-anchor="end" fill="#d6a382" transform="rotate(-80 559.7 327.2)">v5.162.24</text><text x="570.0" y="327.2" font-size="4" text-anchor="end" fill="#d6a382" transform="rotate(-80 570.0 327.2)">v5.162.25</text><path d="M64.0,68.4 L74.3,63.1 L84.7,81.5 L95.0,73.7 L105.3,76.3 L115.6,72.0 L126.0,63.0 L136.3,67.1 L146.6,80.5 L156.9,64.8 L167.3,60.6 L177.6,75.0 L187.9,83.8 L198.2,67.1 L208.6,68.8 L218.9,58.9 L229.2,69.9 L239.6,69.3 L249.9,76.7 L260.2,76.1 L270.5,75.8 L280.9,65.1 L291.2,65.2 L301.5,58.2 L311.8,68.1 L322.2,69.0 L332.5,67.2 L342.8,60.8 L353.1,61.2 L363.5,66.0 L373.8,64.6 L384.1,69.6 L394.4,63.5 L404.8,149.9 L415.1,144.6 L425.4,150.3 L435.8,145.5 L446.1,148.6 L456.4,143.8 L466.7,152.1 L477.1,148.8 L487.4,146.9 L497.7,143.6 L508.0,145.8 L518.4,146.5 L528.7,141.8 L539.0,151.7 L549.3,145.5 L559.7,143.2 L570.0,148.3" fill="none" stroke="#4477AA" stroke-width="1.6"/><circle cx="64.0" cy="68.4" r="2" fill="#4477AA"/><circle cx="74.3" cy="63.1" r="2" fill="#4477AA"/><circle cx="84.7" cy="81.5" r="2" fill="#4477AA"/><circle cx="95.0" cy="73.7" r="2" fill="#4477AA"/><circle cx="105.3" cy="76.3" r="2" fill="#4477AA"/><circle cx="115.6" cy="72.0" r="2" fill="#4477AA"/><circle cx="126.0" cy="63.0" r="2" fill="#4477AA"/><circle cx="136.3" cy="67.1" r="2" fill="#4477AA"/><circle cx="146.6" cy="80.5" r="2" fill="#4477AA"/><circle cx="156.9" cy="64.8" r="2" fill="#4477AA"/><circle cx="167.3" cy="60.6" r="2" fill="#4477AA"/><circle cx="177.6" cy="75.0" r="2" fill="#4477AA"/><circle cx="187.9" cy="83.8" r="2" fill="#4477AA"/><circle cx="198.2" cy="67.1" r="2" fill="#4477AA"/><circle cx="208.6" cy="68.8" r="2" fill="#4477AA"/><circle cx="218.9" cy="58.9" r="2" fill="#4477AA"/><circle cx="229.2" cy="69.9" r="2" fill="#4477AA"/><circle cx="239.6" cy="69.3" r="2" fill="#4477AA"/><circle cx="249.9" cy="76.7" r="2" fill="#4477AA"/><circle cx="260.2" cy="76.1" r="2" fill="#4477AA"/><circle cx="270.5" cy="75.8" r="2" fill="#4477AA"/><circle cx="280.9" cy="65.1" r="2" fill="#4477AA"/><circle cx="291.2" cy="65.2" r="2" fill="#4477AA"/><circle cx="301.5" cy="58.2" r="2" fill="#4477AA"/><circle cx="311.8" cy="68.1" r="2" fill="#4477AA"/><circle cx="322.2" cy="69.0" r="2" fill="#4477AA"/><circle cx="332.5" cy="67.2" r="2" fill="#4477AA"/><circle cx="342.8" cy="60.8" r="2" fill="#4477AA"/><circle cx="353.1" cy="61.2" r="2" fill="#4477AA"/><circle cx="363.5" cy="66.0" r="2" fill="#4477AA"/><circle cx="373.8" cy="64.6" r="2" fill="#4477AA"/><circle cx="384.1" cy="69.6" r="2" fill="#4477AA"/><circle cx="394.4" cy="63.5" r="2" fill="#4477AA"/><circle cx="404.8" cy="149.9" r="2" fill="#4477AA"/><circle cx="415.1" cy="144.6" r="2" fill="#4477AA"/><circle cx="425.4" cy="150.3" r="2" fill="#4477AA"/><circle cx="435.8" cy="145.5" r="2" fill="#4477AA"/><circle cx="446.1" cy="148.6" r="2" fill="#4477AA"/><circle cx="456.4" cy="143.8" r="2" fill="#4477AA"/><circle cx="466.7" cy="152.1" r="2" fill="#4477AA"/><circle cx="477.1" cy="148.8" r="2" fill="#4477AA"/><circle cx="487.4" cy="146.9" r="2" fill="#4477AA"/><circle cx="497.7" cy="143.6" r="2" fill="#4477AA"/><circle cx="508.0" cy="145.8" r="2" fill="#4477AA"/><circle cx="518.4" cy="146.5" r="2" fill="#4477AA"/><circle cx="528.7" cy="141.8" r="2" fill="#4477AA"/><circle cx="539.0" cy="151.7" r="2" fill="#4477AA"/><circle cx="549.3" cy="145.5" r="2" fill="#4477AA"/><circle cx="559.7" cy="143.2" r="2" fill="#4477AA"/><circle cx="570.0" cy="148.3" r="2" fill="#4477AA"/><rect x="580" y="34" width="10" height="10" fill="#4477AA"/><text x="594" y="43" font-size="10" fill="#444">chain-10</text><path d="M64.0,72.0 L74.3,72.9 L84.7,84.7 L95.0,78.9 L105.3,81.8 L115.6,84.1 L126.0,83.7 L136.3,76.3 L146.6,80.6 L156.9,74.8 L167.3,76.3 L177.6,81.0 L187.9,78.4 L198.2,72.6 L208.6,75.0 L218.9,79.7 L229.2,74.8 L239.6,74.4 L249.9,76.5 L260.2,83.8 L270.5,75.0 L280.9,78.3 L291.2,73.6 L301.5,84.1 L311.8,72.7 L322.2,79.5 L332.5,74.7 L342.8,64.4 L353.1,68.8 L363.5,77.5 L373.8,74.5 L384.1,67.5 L394.4,69.6 L404.8,155.0 L415.1,154.0 L425.4,154.7 L435.8,157.8 L446.1,150.1 L456.4,157.8 L466.7,152.5 L477.1,153.7 L487.4,156.8 L497.7,155.0 L508.0,156.5 L518.4,160.9 L528.7,154.6 L539.0,154.6 L549.3,148.2 L559.7,154.4 L570.0,151.9" fill="none" stroke="#EE6677" stroke-width="1.6"/><circle cx="64.0" cy="72.0" r="2" fill="#EE6677"/><circle cx="74.3" cy="72.9" r="2" fill="#EE6677"/><circle cx="84.7" cy="84.7" r="2" fill="#EE6677"/><circle cx="95.0" cy="78.9" r="2" fill="#EE6677"/><circle cx="105.3" cy="81.8" r="2" fill="#EE6677"/><circle cx="115.6" cy="84.1" r="2" fill="#EE6677"/><circle cx="126.0" cy="83.7" r="2" fill="#EE6677"/><circle cx="136.3" cy="76.3" r="2" fill="#EE6677"/><circle cx="146.6" cy="80.6" r="2" fill="#EE6677"/><circle cx="156.9" cy="74.8" r="2" fill="#EE6677"/><circle cx="167.3" cy="76.3" r="2" fill="#EE6677"/><circle cx="177.6" cy="81.0" r="2" fill="#EE6677"/><circle cx="187.9" cy="78.4" r="2" fill="#EE6677"/><circle cx="198.2" cy="72.6" r="2" fill="#EE6677"/><circle cx="208.6" cy="75.0" r="2" fill="#EE6677"/><circle cx="218.9" cy="79.7" r="2" fill="#EE6677"/><circle cx="229.2" cy="74.8" r="2" fill="#EE6677"/><circle cx="239.6" cy="74.4" r="2" fill="#EE6677"/><circle cx="249.9" cy="76.5" r="2" fill="#EE6677"/><circle cx="260.2" cy="83.8" r="2" fill="#EE6677"/><circle cx="270.5" cy="75.0" r="2" fill="#EE6677"/><circle cx="280.9" cy="78.3" r="2" fill="#EE6677"/><circle cx="291.2" cy="73.6" r="2" fill="#EE6677"/><circle cx="301.5" cy="84.1" r="2" fill="#EE6677"/><circle cx="311.8" cy="72.7" r="2" fill="#EE6677"/><circle cx="322.2" cy="79.5" r="2" fill="#EE6677"/><circle cx="332.5" cy="74.7" r="2" fill="#EE6677"/><circle cx="342.8" cy="64.4" r="2" fill="#EE6677"/><circle cx="353.1" cy="68.8" r="2" fill="#EE6677"/><circle cx="363.5" cy="77.5" r="2" fill="#EE6677"/><circle cx="373.8" cy="74.5" r="2" fill="#EE6677"/><circle cx="384.1" cy="67.5" r="2" fill="#EE6677"/><circle cx="394.4" cy="69.6" r="2" fill="#EE6677"/><circle cx="404.8" cy="155.0" r="2" fill="#EE6677"/><circle cx="415.1" cy="154.0" r="2" fill="#EE6677"/><circle cx="425.4" cy="154.7" r="2" fill="#EE6677"/><circle cx="435.8" cy="157.8" r="2" fill="#EE6677"/><circle cx="446.1" cy="150.1" r="2" fill="#EE6677"/><circle cx="456.4" cy="157.8" r="2" fill="#EE6677"/><circle cx="466.7" cy="152.5" r="2" fill="#EE6677"/><circle cx="477.1" cy="153.7" r="2" fill="#EE6677"/><circle cx="487.4" cy="156.8" r="2" fill="#EE6677"/><circle cx="497.7" cy="155.0" r="2" fill="#EE6677"/><circle cx="508.0" cy="156.5" r="2" fill="#EE6677"/><circle cx="518.4" cy="160.9" r="2" fill="#EE6677"/><circle cx="528.7" cy="154.6" r="2" fill="#EE6677"/><circle cx="539.0" cy="154.6" r="2" fill="#EE6677"/><circle cx="549.3" cy="148.2" r="2" fill="#EE6677"/><circle cx="559.7" cy="154.4" r="2" fill="#EE6677"/><circle cx="570.0" cy="151.9" r="2" fill="#EE6677"/><rect x="580" y="49" width="10" height="10" fill="#EE6677"/><text x="594" y="58" font-size="10" fill="#444">chain-50</text><path d="M64.0,84.4 L74.3,79.7 L84.7,74.1 L95.0,83.7 L105.3,83.4 L115.6,76.0 L126.0,81.9 L136.3,73.2 L146.6,73.0 L156.9,77.7 L167.3,80.0 L177.6,81.5 L187.9,73.8 L198.2,78.7 L208.6,73.8 L218.9,76.9 L229.2,80.2 L239.6,79.9 L249.9,75.8 L260.2,79.7 L270.5,77.7 L280.9,75.7 L291.2,72.7 L301.5,75.6 L311.8,79.4 L322.2,78.1 L332.5,84.1 L342.8,73.5 L353.1,77.2 L363.5,83.3 L373.8,79.6 L384.1,75.8 L394.4,79.3 L404.8,163.5 L415.1,160.2 L425.4,165.5 L435.8,157.9 L446.1,156.7 L456.4,166.6 L466.7,163.1 L477.1,161.3 L487.4,161.4 L497.7,164.1 L508.0,160.9 L518.4,163.7 L528.7,161.3 L539.0,158.8 L549.3,163.6 L559.7,166.9 L570.0,163.3" fill="none" stroke="#228833" stroke-width="1.6"/><circle cx="64.0" cy="84.4" r="2" fill="#228833"/><circle cx="74.3" cy="79.7" r="2" fill="#228833"/><circle cx="84.7" cy="74.1" r="2" fill="#228833"/><circle cx="95.0" cy="83.7" r="2" fill="#228833"/><circle cx="105.3" cy="83.4" r="2" fill="#228833"/><circle cx="115.6" cy="76.0" r="2" fill="#228833"/><circle cx="126.0" cy="81.9" r="2" fill="#228833"/><circle cx="136.3" cy="73.2" r="2" fill="#228833"/><circle cx="146.6" cy="73.0" r="2" fill="#228833"/><circle cx="156.9" cy="77.7" r="2" fill="#228833"/><circle cx="167.3" cy="80.0" r="2" fill="#228833"/><circle cx="177.6" cy="81.5" r="2" fill="#228833"/><circle cx="187.9" cy="73.8" r="2" fill="#228833"/><circle cx="198.2" cy="78.7" r="2" fill="#228833"/><circle cx="208.6" cy="73.8" r="2" fill="#228833"/><circle cx="218.9" cy="76.9" r="2" fill="#228833"/><circle cx="229.2" cy="80.2" r="2" fill="#228833"/><circle cx="239.6" cy="79.9" r="2" fill="#228833"/><circle cx="249.9" cy="75.8" r="2" fill="#228833"/><circle cx="260.2" cy="79.7" r="2" fill="#228833"/><circle cx="270.5" cy="77.7" r="2" fill="#228833"/><circle cx="280.9" cy="75.7" r="2" fill="#228833"/><circle cx="291.2" cy="72.7" r="2" fill="#228833"/><circle cx="301.5" cy="75.6" r="2" fill="#228833"/><circle cx="311.8" cy="79.4" r="2" fill="#228833"/><circle cx="322.2" cy="78.1" r="2" fill="#228833"/><circle cx="332.5" cy="84.1" r="2" fill="#228833"/><circle cx="342.8" cy="73.5" r="2" fill="#228833"/><circle cx="353.1" cy="77.2" r="2" fill="#228833"/><circle cx="363.5" cy="83.3" r="2" fill="#228833"/><circle cx="373.8" cy="79.6" r="2" fill="#228833"/><circle cx="384.1" cy="75.8" r="2" fill="#228833"/><circle cx="394.4" cy="79.3" r="2" fill="#228833"/><circle cx="404.8" cy="163.5" r="2" fill="#228833"/><circle cx="415.1" cy="160.2" r="2" fill="#228833"/><circle cx="425.4" cy="165.5" r="2" fill="#228833"/><circle cx="435.8" cy="157.9" r="2" fill="#228833"/><circle cx="446.1" cy="156.7" r="2" fill="#228833"/><circle cx="456.4" cy="166.6" r="2" fill="#228833"/><circle cx="466.7" cy="163.1" r="2" fill="#228833"/><circle cx="477.1" cy="161.3" r="2" fill="#228833"/><circle cx="487.4" cy="161.4" r="2" fill="#228833"/><circle cx="497.7" cy="164.1" r="2" fill="#228833"/><circle cx="508.0" cy="160.9" r="2" fill="#228833"/><circle cx="518.4" cy="163.7" r="2" fill="#228833"/><circle cx="528.7" cy="161.3" r="2" fill="#228833"/><circle cx="539.0" cy="158.8" r="2" fill="#228833"/><circle cx="549.3" cy="163.6" r="2" fill="#228833"/><circle cx="559.7" cy="166.9" r="2" fill="#228833"/><circle cx="570.0" cy="163.3" r="2" fill="#228833"/><rect x="580" y="64" width="10" height="10" fill="#228833"/><text x="594" y="73" font-size="10" fill="#444">chain-200</text><path d="M64.0,106.5 L74.3,102.4 L84.7,98.1 L95.0,100.7 L105.3,102.3 L115.6,98.6 L126.0,101.0 L136.3,96.6 L146.6,102.1 L156.9,105.6 L167.3,101.3 L177.6,92.5 L187.9,96.3 L198.2,96.0 L208.6,91.2 L218.9,90.6 L229.2,91.1 L239.6,95.8 L249.9,102.6 L260.2,95.3 L270.5,93.2 L280.9,99.8 L291.2,101.0 L301.5,105.3 L311.8,100.7 L322.2,104.7 L332.5,105.9 L342.8,93.7 L353.1,97.7 L363.5,93.6 L373.8,97.4 L384.1,91.8 L394.4,91.8 L404.8,173.0 L415.1,166.7 L425.4,178.1 L435.8,171.4 L446.1,171.0 L456.4,168.1 L466.7,179.7 L477.1,175.7 L487.4,176.3 L497.7,178.9 L508.0,174.4 L518.4,173.7 L528.7,173.6 L539.0,168.6 L549.3,169.1 L559.7,175.4 L570.0,174.5" fill="none" stroke="#CCBB44" stroke-width="1.6"/><circle cx="64.0" cy="106.5" r="2" fill="#CCBB44"/><circle cx="74.3" cy="102.4" r="2" fill="#CCBB44"/><circle cx="84.7" cy="98.1" r="2" fill="#CCBB44"/><circle cx="95.0" cy="100.7" r="2" fill="#CCBB44"/><circle cx="105.3" cy="102.3" r="2" fill="#CCBB44"/><circle cx="115.6" cy="98.6" r="2" fill="#CCBB44"/><circle cx="126.0" cy="101.0" r="2" fill="#CCBB44"/><circle cx="136.3" cy="96.6" r="2" fill="#CCBB44"/><circle cx="146.6" cy="102.1" r="2" fill="#CCBB44"/><circle cx="156.9" cy="105.6" r="2" fill="#CCBB44"/><circle cx="167.3" cy="101.3" r="2" fill="#CCBB44"/><circle cx="177.6" cy="92.5" r="2" fill="#CCBB44"/><circle cx="187.9" cy="96.3" r="2" fill="#CCBB44"/><circle cx="198.2" cy="96.0" r="2" fill="#CCBB44"/><circle cx="208.6" cy="91.2" r="2" fill="#CCBB44"/><circle cx="218.9" cy="90.6" r="2" fill="#CCBB44"/><circle cx="229.2" cy="91.1" r="2" fill="#CCBB44"/><circle cx="239.6" cy="95.8" r="2" fill="#CCBB44"/><circle cx="249.9" cy="102.6" r="2" fill="#CCBB44"/><circle cx="260.2" cy="95.3" r="2" fill="#CCBB44"/><circle cx="270.5" cy="93.2" r="2" fill="#CCBB44"/><circle cx="280.9" cy="99.8" r="2" fill="#CCBB44"/><circle cx="291.2" cy="101.0" r="2" fill="#CCBB44"/><circle cx="301.5" cy="105.3" r="2" fill="#CCBB44"/><circle cx="311.8" cy="100.7" r="2" fill="#CCBB44"/><circle cx="322.2" cy="104.7" r="2" fill="#CCBB44"/><circle cx="332.5" cy="105.9" r="2" fill="#CCBB44"/><circle cx="342.8" cy="93.7" r="2" fill="#CCBB44"/><circle cx="353.1" cy="97.7" r="2" fill="#CCBB44"/><circle cx="363.5" cy="93.6" r="2" fill="#CCBB44"/><circle cx="373.8" cy="97.4" r="2" fill="#CCBB44"/><circle cx="384.1" cy="91.8" r="2" fill="#CCBB44"/><circle cx="394.4" cy="91.8" r="2" fill="#CCBB44"/><circle cx="404.8" cy="173.0" r="2" fill="#CCBB44"/><circle cx="415.1" cy="166.7" r="2" fill="#CCBB44"/><circle cx="425.4" cy="178.1" r="2" fill="#CCBB44"/><circle cx="435.8" cy="171.4" r="2" fill="#CCBB44"/><circle cx="446.1" cy="171.0" r="2" fill="#CCBB44"/><circle cx="456.4" cy="168.1" r="2" fill="#CCBB44"/><circle cx="466.7" cy="179.7" r="2" fill="#CCBB44"/><circle cx="477.1" cy="175.7" r="2" fill="#CCBB44"/><circle cx="487.4" cy="176.3" r="2" fill="#CCBB44"/><circle cx="497.7" cy="178.9" r="2" fill="#CCBB44"/><circle cx="508.0" cy="174.4" r="2" fill="#CCBB44"/><circle cx="518.4" cy="173.7" r="2" fill="#CCBB44"/><circle cx="528.7" cy="173.6" r="2" fill="#CCBB44"/><circle cx="539.0" cy="168.6" r="2" fill="#CCBB44"/><circle cx="549.3" cy="169.1" r="2" fill="#CCBB44"/><circle cx="559.7" cy="175.4" r="2" fill="#CCBB44"/><circle cx="570.0" cy="174.5" r="2" fill="#CCBB44"/><rect x="580" y="79" width="10" height="10" fill="#CCBB44"/><text x="594" y="88" font-size="10" fill="#444">chain-1000</text><path d="M64.0,150.6 L74.3,153.9 L84.7,156.3 L95.0,157.1 L105.3,149.9 L115.6,155.4 L126.0,155.8 L136.3,153.8 L146.6,157.6 L156.9,150.8 L167.3,154.4 L177.6,153.8 L187.9,155.5 L198.2,155.9 L208.6,153.9 L218.9,154.1 L229.2,153.4 L239.6,150.6 L249.9,152.2 L260.2,157.6 L270.5,157.2 L280.9,148.9 L291.2,145.7 L301.5,153.7 L311.8,148.9 L322.2,150.0 L332.5,148.8 L342.8,151.2 L353.1,148.6 L363.5,149.7 L373.8,147.8 L384.1,145.8 L394.4,146.2 L404.8,186.2 L415.1,190.0 L425.4,192.5 L435.8,185.4 L446.1,189.6 L456.4,186.2 L466.7,185.5 L477.1,187.5 L487.4,187.0 L497.7,183.8 L508.0,189.3 L518.4,189.1 L528.7,189.1 L539.0,191.5 L549.3,186.9 L559.7,188.3 L570.0,187.0" fill="none" stroke="#66CCEE" stroke-width="1.6"/><circle cx="64.0" cy="150.6" r="2" fill="#66CCEE"/><circle cx="74.3" cy="153.9" r="2" fill="#66CCEE"/><circle cx="84.7" cy="156.3" r="2" fill="#66CCEE"/><circle cx="95.0" cy="157.1" r="2" fill="#66CCEE"/><circle cx="105.3" cy="149.9" r="2" fill="#66CCEE"/><circle cx="115.6" cy="155.4" r="2" fill="#66CCEE"/><circle cx="126.0" cy="155.8" r="2" fill="#66CCEE"/><circle cx="136.3" cy="153.8" r="2" fill="#66CCEE"/><circle cx="146.6" cy="157.6" r="2" fill="#66CCEE"/><circle cx="156.9" cy="150.8" r="2" fill="#66CCEE"/><circle cx="167.3" cy="154.4" r="2" fill="#66CCEE"/><circle cx="177.6" cy="153.8" r="2" fill="#66CCEE"/><circle cx="187.9" cy="155.5" r="2" fill="#66CCEE"/><circle cx="198.2" cy="155.9" r="2" fill="#66CCEE"/><circle cx="208.6" cy="153.9" r="2" fill="#66CCEE"/><circle cx="218.9" cy="154.1" r="2" fill="#66CCEE"/><circle cx="229.2" cy="153.4" r="2" fill="#66CCEE"/><circle cx="239.6" cy="150.6" r="2" fill="#66CCEE"/><circle cx="249.9" cy="152.2" r="2" fill="#66CCEE"/><circle cx="260.2" cy="157.6" r="2" fill="#66CCEE"/><circle cx="270.5" cy="157.2" r="2" fill="#66CCEE"/><circle cx="280.9" cy="148.9" r="2" fill="#66CCEE"/><circle cx="291.2" cy="145.7" r="2" fill="#66CCEE"/><circle cx="301.5" cy="153.7" r="2" fill="#66CCEE"/><circle cx="311.8" cy="148.9" r="2" fill="#66CCEE"/><circle cx="322.2" cy="150.0" r="2" fill="#66CCEE"/><circle cx="332.5" cy="148.8" r="2" fill="#66CCEE"/><circle cx="342.8" cy="151.2" r="2" fill="#66CCEE"/><circle cx="353.1" cy="148.6" r="2" fill="#66CCEE"/><circle cx="363.5" cy="149.7" r="2" fill="#66CCEE"/><circle cx="373.8" cy="147.8" r="2" fill="#66CCEE"/><circle cx="384.1" cy="145.8" r="2" fill="#66CCEE"/><circle cx="394.4" cy="146.2" r="2" fill="#66CCEE"/><circle cx="404.8" cy="186.2" r="2" fill="#66CCEE"/><circle cx="415.1" cy="190.0" r="2" fill="#66CCEE"/><circle cx="425.4" cy="192.5" r="2" fill="#66CCEE"/><circle cx="435.8" cy="185.4" r="2" fill="#66CCEE"/><circle cx="446.1" cy="189.6" r="2" fill="#66CCEE"/><circle cx="456.4" cy="186.2" r="2" fill="#66CCEE"/><circle cx="466.7" cy="185.5" r="2" fill="#66CCEE"/><circle cx="477.1" cy="187.5" r="2" fill="#66CCEE"/><circle cx="487.4" cy="187.0" r="2" fill="#66CCEE"/><circle cx="497.7" cy="183.8" r="2" fill="#66CCEE"/><circle cx="508.0" cy="189.3" r="2" fill="#66CCEE"/><circle cx="518.4" cy="189.1" r="2" fill="#66CCEE"/><circle cx="528.7" cy="189.1" r="2" fill="#66CCEE"/><circle cx="539.0" cy="191.5" r="2" fill="#66CCEE"/><circle cx="549.3" cy="186.9" r="2" fill="#66CCEE"/><circle cx="559.7" cy="188.3" r="2" fill="#66CCEE"/><circle cx="570.0" cy="187.0" r="2" fill="#66CCEE"/><rect x="580" y="94" width="10" height="10" fill="#66CCEE"/><text x="594" y="103" font-size="10" fill="#444">dense-10</text><path d="M64.0,259.3 L74.3,259.0 L84.7,260.0 L95.0,259.4 L105.3,259.6 L115.6,259.3 L126.0,259.6 L136.3,260.0 L146.6,259.7 L156.9,260.8 L167.3,259.6 L177.6,260.7 L187.9,259.7 L198.2,257.7 L208.6,258.9 L218.9,258.9 L229.2,259.8 L239.6,259.2 L249.9,258.4 L260.2,258.9 L270.5,258.5 L280.9,259.0 L291.2,259.5 L301.5,258.8 L311.8,259.2 L322.2,259.0 L332.5,260.2 L342.8,256.5 L353.1,256.9 L363.5,257.3 L373.8,258.2 L384.1,256.6 L394.4,257.6 L404.8,261.6 L415.1,261.6 L425.4,262.5 L435.8,263.0 L446.1,261.3 L456.4,262.1 L466.7,262.6 L477.1,262.6 L487.4,264.0 L497.7,263.6 L508.0,263.8 L518.4,263.9 L528.7,262.3 L539.0,262.7 L549.3,261.2 L559.7,263.3 L570.0,261.9" fill="none" stroke="#AA3377" stroke-width="1.6"/><circle cx="64.0" cy="259.3" r="2" fill="#AA3377"/><circle cx="74.3" cy="259.0" r="2" fill="#AA3377"/><circle cx="84.7" cy="260.0" r="2" fill="#AA3377"/><circle cx="95.0" cy="259.4" r="2" fill="#AA3377"/><circle cx="105.3" cy="259.6" r="2" fill="#AA3377"/><circle cx="115.6" cy="259.3" r="2" fill="#AA3377"/><circle cx="126.0" cy="259.6" r="2" fill="#AA3377"/><circle cx="136.3" cy="260.0" r="2" fill="#AA3377"/><circle cx="146.6" cy="259.7" r="2" fill="#AA3377"/><circle cx="156.9" cy="260.8" r="2" fill="#AA3377"/><circle cx="167.3" cy="259.6" r="2" fill="#AA3377"/><circle cx="177.6" cy="260.7" r="2" fill="#AA3377"/><circle cx="187.9" cy="259.7" r="2" fill="#AA3377"/><circle cx="198.2" cy="257.7" r="2" fill="#AA3377"/><circle cx="208.6" cy="258.9" r="2" fill="#AA3377"/><circle cx="218.9" cy="258.9" r="2" fill="#AA3377"/><circle cx="229.2" cy="259.8" r="2" fill="#AA3377"/><circle cx="239.6" cy="259.2" r="2" fill="#AA3377"/><circle cx="249.9" cy="258.4" r="2" fill="#AA3377"/><circle cx="260.2" cy="258.9" r="2" fill="#AA3377"/><circle cx="270.5" cy="258.5" r="2" fill="#AA3377"/><circle cx="280.9" cy="259.0" r="2" fill="#AA3377"/><circle cx="291.2" cy="259.5" r="2" fill="#AA3377"/><circle cx="301.5" cy="258.8" r="2" fill="#AA3377"/><circle cx="311.8" cy="259.2" r="2" fill="#AA3377"/><circle cx="322.2" cy="259.0" r="2" fill="#AA3377"/><circle cx="332.5" cy="260.2" r="2" fill="#AA3377"/><circle cx="342.8" cy="256.5" r="2" fill="#AA3377"/><circle cx="353.1" cy="256.9" r="2" fill="#AA3377"/><circle cx="363.5" cy="257.3" r="2" fill="#AA3377"/><circle cx="373.8" cy="258.2" r="2" fill="#AA3377"/><circle cx="384.1" cy="256.6" r="2" fill="#AA3377"/><circle cx="394.4" cy="257.6" r="2" fill="#AA3377"/><circle cx="404.8" cy="261.6" r="2" fill="#AA3377"/><circle cx="415.1" cy="261.6" r="2" fill="#AA3377"/><circle cx="425.4" cy="262.5" r="2" fill="#AA3377"/><circle cx="435.8" cy="263.0" r="2" fill="#AA3377"/><circle cx="446.1" cy="261.3" r="2" fill="#AA3377"/><circle cx="456.4" cy="262.1" r="2" fill="#AA3377"/><circle cx="466.7" cy="262.6" r="2" fill="#AA3377"/><circle cx="477.1" cy="262.6" r="2" fill="#AA3377"/><circle cx="487.4" cy="264.0" r="2" fill="#AA3377"/><circle cx="497.7" cy="263.6" r="2" fill="#AA3377"/><circle cx="508.0" cy="263.8" r="2" fill="#AA3377"/><circle cx="518.4" cy="263.9" r="2" fill="#AA3377"/><circle cx="528.7" cy="262.3" r="2" fill="#AA3377"/><circle cx="539.0" cy="262.7" r="2" fill="#AA3377"/><circle cx="549.3" cy="261.2" r="2" fill="#AA3377"/><circle cx="559.7" cy="263.3" r="2" fill="#AA3377"/><circle cx="570.0" cy="261.9" r="2" fill="#AA3377"/><rect x="580" y="109" width="10" height="10" fill="#AA3377"/><text x="594" y="118" font-size="10" fill="#444">dense-50</text><path d="M64.0,299.0 L74.3,299.4 L84.7,299.6 L95.0,299.5 L105.3,299.4 L115.6,299.4 L126.0,299.5 L136.3,298.9 L146.6,299.2 L156.9,299.4 L167.3,299.3 L177.6,299.5 L187.9,299.1 L198.2,299.3 L208.6,299.3 L218.9,299.6 L229.2,299.3 L239.6,299.2 L249.9,299.4 L260.2,299.3 L270.5,299.2 L280.9,299.3 L291.2,299.2 L301.5,299.2 L311.8,299.3 L322.2,299.4 L332.5,299.5 L342.8,298.5 L353.1,298.4 L363.5,298.8 L373.8,299.5 L384.1,298.5 L394.4,298.8 L404.8,299.3 L415.1,299.0 L425.4,299.6 L435.8,299.8 L446.1,299.1 L456.4,299.5 L466.7,299.7 L477.1,299.5 L487.4,299.6 L497.7,299.8 L508.0,299.8 L518.4,299.8 L528.7,299.3 L539.0,299.5 L549.3,299.3 L559.7,299.7 L570.0,299.4" fill="none" stroke="#BBBBBB" stroke-width="1.6"/><circle cx="64.0" cy="299.0" r="2" fill="#BBBBBB"/><circle cx="74.3" cy="299.4" r="2" fill="#BBBBBB"/><circle cx="84.7" cy="299.6" r="2" fill="#BBBBBB"/><circle cx="95.0" cy="299.5" r="2" fill="#BBBBBB"/><circle cx="105.3" cy="299.4" r="2" fill="#BBBBBB"/><circle cx="115.6" cy="299.4" r="2" fill="#BBBBBB"/><circle cx="126.0" cy="299.5" r="2" fill="#BBBBBB"/><circle cx="136.3" cy="298.9" r="2" fill="#BBBBBB"/><circle cx="146.6" cy="299.2" r="2" fill="#BBBBBB"/><circle cx="156.9" cy="299.4" r="2" fill="#BBBBBB"/><circle cx="167.3" cy="299.3" r="2" fill="#BBBBBB"/><circle cx="177.6" cy="299.5" r="2" fill="#BBBBBB"/><circle cx="187.9" cy="299.1" r="2" fill="#BBBBBB"/><circle cx="198.2" cy="299.3" r="2" fill="#BBBBBB"/><circle cx="208.6" cy="299.3" r="2" fill="#BBBBBB"/><circle cx="218.9" cy="299.6" r="2" fill="#BBBBBB"/><circle cx="229.2" cy="299.3" r="2" fill="#BBBBBB"/><circle cx="239.6" cy="299.2" r="2" fill="#BBBBBB"/><circle cx="249.9" cy="299.4" r="2" fill="#BBBBBB"/><circle cx="260.2" cy="299.3" r="2" fill="#BBBBBB"/><circle cx="270.5" cy="299.2" r="2" fill="#BBBBBB"/><circle cx="280.9" cy="299.3" r="2" fill="#BBBBBB"/><circle cx="291.2" cy="299.2" r="2" fill="#BBBBBB"/><circle cx="301.5" cy="299.2" r="2" fill="#BBBBBB"/><circle cx="311.8" cy="299.3" r="2" fill="#BBBBBB"/><circle cx="322.2" cy="299.4" r="2" fill="#BBBBBB"/><circle cx="332.5" cy="299.5" r="2" fill="#BBBBBB"/><circle cx="342.8" cy="298.5" r="2" fill="#BBBBBB"/><circle cx="353.1" cy="298.4" r="2" fill="#BBBBBB"/><circle cx="363.5" cy="298.8" r="2" fill="#BBBBBB"/><circle cx="373.8" cy="299.5" r="2" fill="#BBBBBB"/><circle cx="384.1" cy="298.5" r="2" fill="#BBBBBB"/><circle cx="394.4" cy="298.8" r="2" fill="#BBBBBB"/><circle cx="404.8" cy="299.3" r="2" fill="#BBBBBB"/><circle cx="415.1" cy="299.0" r="2" fill="#BBBBBB"/><circle cx="425.4" cy="299.6" r="2" fill="#BBBBBB"/><circle cx="435.8" cy="299.8" r="2" fill="#BBBBBB"/><circle cx="446.1" cy="299.1" r="2" fill="#BBBBBB"/><circle cx="456.4" cy="299.5" r="2" fill="#BBBBBB"/><circle cx="466.7" cy="299.7" r="2" fill="#BBBBBB"/><circle cx="477.1" cy="299.5" r="2" fill="#BBBBBB"/><circle cx="487.4" cy="299.6" r="2" fill="#BBBBBB"/><circle cx="497.7" cy="299.8" r="2" fill="#BBBBBB"/><circle cx="508.0" cy="299.8" r="2" fill="#BBBBBB"/><circle cx="518.4" cy="299.8" r="2" fill="#BBBBBB"/><circle cx="528.7" cy="299.3" r="2" fill="#BBBBBB"/><circle cx="539.0" cy="299.5" r="2" fill="#BBBBBB"/><circle cx="549.3" cy="299.3" r="2" fill="#BBBBBB"/><circle cx="559.7" cy="299.7" r="2" fill="#BBBBBB"/><circle cx="570.0" cy="299.4" r="2" fill="#BBBBBB"/><rect x="580" y="124" width="10" height="10" fill="#BBBBBB"/><text x="594" y="133" font-size="10" fill="#444">dense-200</text><path d="M64.0,226.4 L74.3,225.1 L84.7,225.2 L95.0,225.1 L105.3,223.3 L115.6,224.9 L126.0,228.9 L136.3,228.8 L146.6,223.1 L156.9,228.2 L167.3,221.9 L177.6,225.5 L187.9,225.0 L198.2,223.7 L208.6,228.0 L218.9,226.0 L229.2,227.9 L239.6,223.3 L249.9,225.1 L260.2,225.7 L270.5,224.5 L280.9,224.7 L291.2,225.2 L301.5,223.9 L311.8,225.0 L322.2,224.7 L332.5,223.8 L342.8,221.8 L353.1,220.1 L363.5,226.5 L373.8,221.7 L384.1,221.2 L394.4,221.7 L404.8,233.9 L415.1,233.5 L425.4,238.8 L435.8,235.0 L446.1,237.2 L456.4,234.5 L466.7,235.8 L477.1,235.0 L487.4,235.5 L497.7,235.0 L508.0,235.9 L518.4,239.8 L528.7,235.7 L539.0,233.4 L549.3,235.2 L559.7,237.0 L570.0,233.5" fill="none" stroke="#222255" stroke-width="1.6"/><circle cx="64.0" cy="226.4" r="2" fill="#222255"/><circle cx="74.3" cy="225.1" r="2" fill="#222255"/><circle cx="84.7" cy="225.2" r="2" fill="#222255"/><circle cx="95.0" cy="225.1" r="2" fill="#222255"/><circle cx="105.3" cy="223.3" r="2" fill="#222255"/><circle cx="115.6" cy="224.9" r="2" fill="#222255"/><circle cx="126.0" cy="228.9" r="2" fill="#222255"/><circle cx="136.3" cy="228.8" r="2" fill="#222255"/><circle cx="146.6" cy="223.1" r="2" fill="#222255"/><circle cx="156.9" cy="228.2" r="2" fill="#222255"/><circle cx="167.3" cy="221.9" r="2" fill="#222255"/><circle cx="177.6" cy="225.5" r="2" fill="#222255"/><circle cx="187.9" cy="225.0" r="2" fill="#222255"/><circle cx="198.2" cy="223.7" r="2" fill="#222255"/><circle cx="208.6" cy="228.0" r="2" fill="#222255"/><circle cx="218.9" cy="226.0" r="2" fill="#222255"/><circle cx="229.2" cy="227.9" r="2" fill="#222255"/><circle cx="239.6" cy="223.3" r="2" fill="#222255"/><circle cx="249.9" cy="225.1" r="2" fill="#222255"/><circle cx="260.2" cy="225.7" r="2" fill="#222255"/><circle cx="270.5" cy="224.5" r="2" fill="#222255"/><circle cx="280.9" cy="224.7" r="2" fill="#222255"/><circle cx="291.2" cy="225.2" r="2" fill="#222255"/><circle cx="301.5" cy="223.9" r="2" fill="#222255"/><circle cx="311.8" cy="225.0" r="2" fill="#222255"/><circle cx="322.2" cy="224.7" r="2" fill="#222255"/><circle cx="332.5" cy="223.8" r="2" fill="#222255"/><circle cx="342.8" cy="221.8" r="2" fill="#222255"/><circle cx="353.1" cy="220.1" r="2" fill="#222255"/><circle cx="363.5" cy="226.5" r="2" fill="#222255"/><circle cx="373.8" cy="221.7" r="2" fill="#222255"/><circle cx="384.1" cy="221.2" r="2" fill="#222255"/><circle cx="394.4" cy="221.7" r="2" fill="#222255"/><circle cx="404.8" cy="233.9" r="2" fill="#222255"/><circle cx="415.1" cy="233.5" r="2" fill="#222255"/><circle cx="425.4" cy="238.8" r="2" fill="#222255"/><circle cx="435.8" cy="235.0" r="2" fill="#222255"/><circle cx="446.1" cy="237.2" r="2" fill="#222255"/><circle cx="456.4" cy="234.5" r="2" fill="#222255"/><circle cx="466.7" cy="235.8" r="2" fill="#222255"/><circle cx="477.1" cy="235.0" r="2" fill="#222255"/><circle cx="487.4" cy="235.5" r="2" fill="#222255"/><circle cx="497.7" cy="235.0" r="2" fill="#222255"/><circle cx="508.0" cy="235.9" r="2" fill="#222255"/><circle cx="518.4" cy="239.8" r="2" fill="#222255"/><circle cx="528.7" cy="235.7" r="2" fill="#222255"/><circle cx="539.0" cy="233.4" r="2" fill="#222255"/><circle cx="549.3" cy="235.2" r="2" fill="#222255"/><circle cx="559.7" cy="237.0" r="2" fill="#222255"/><circle cx="570.0" cy="233.5" r="2" fill="#222255"/><rect x="580" y="139" width="10" height="10" fill="#222255"/><text x="594" y="148" font-size="10" fill="#444">hub-50</text><path d="M64.0,285.2 L74.3,285.3 L84.7,285.0 L95.0,285.4 L105.3,284.6 L115.6,284.5 L126.0,284.7 L136.3,284.6 L146.6,284.5 L156.9,284.5 L167.3,284.6 L177.6,284.9 L187.9,284.7 L198.2,283.9 L208.6,285.0 L218.9,284.6 L229.2,285.1 L239.6,284.5 L249.9,284.2 L260.2,284.5 L270.5,284.4 L280.9,284.1 L291.2,284.6 L301.5,284.1 L311.8,284.5 L322.2,284.9 L332.5,284.5 L342.8,283.1 L353.1,283.0 L363.5,284.4 L373.8,284.2 L384.1,283.2 L394.4,283.2 L404.8,285.2 L415.1,284.5 L425.4,285.6 L435.8,285.5 L446.1,284.1 L456.4,285.4 L466.7,285.4 L477.1,285.8 L487.4,285.2 L497.7,286.1 L508.0,286.2 L518.4,286.4 L528.7,284.9 L539.0,285.2 L549.3,285.3 L559.7,286.1 L570.0,285.5" fill="none" stroke="#225555" stroke-width="1.6"/><circle cx="64.0" cy="285.2" r="2" fill="#225555"/><circle cx="74.3" cy="285.3" r="2" fill="#225555"/><circle cx="84.7" cy="285.0" r="2" fill="#225555"/><circle cx="95.0" cy="285.4" r="2" fill="#225555"/><circle cx="105.3" cy="284.6" r="2" fill="#225555"/><circle cx="115.6" cy="284.5" r="2" fill="#225555"/><circle cx="126.0" cy="284.7" r="2" fill="#225555"/><circle cx="136.3" cy="284.6" r="2" fill="#225555"/><circle cx="146.6" cy="284.5" r="2" fill="#225555"/><circle cx="156.9" cy="284.5" r="2" fill="#225555"/><circle cx="167.3" cy="284.6" r="2" fill="#225555"/><circle cx="177.6" cy="284.9" r="2" fill="#225555"/><circle cx="187.9" cy="284.7" r="2" fill="#225555"/><circle cx="198.2" cy="283.9" r="2" fill="#225555"/><circle cx="208.6" cy="285.0" r="2" fill="#225555"/><circle cx="218.9" cy="284.6" r="2" fill="#225555"/><circle cx="229.2" cy="285.1" r="2" fill="#225555"/><circle cx="239.6" cy="284.5" r="2" fill="#225555"/><circle cx="249.9" cy="284.2" r="2" fill="#225555"/><circle cx="260.2" cy="284.5" r="2" fill="#225555"/><circle cx="270.5" cy="284.4" r="2" fill="#225555"/><circle cx="280.9" cy="284.1" r="2" fill="#225555"/><circle cx="291.2" cy="284.6" r="2" fill="#225555"/><circle cx="301.5" cy="284.1" r="2" fill="#225555"/><circle cx="311.8" cy="284.5" r="2" fill="#225555"/><circle cx="322.2" cy="284.9" r="2" fill="#225555"/><circle cx="332.5" cy="284.5" r="2" fill="#225555"/><circle cx="342.8" cy="283.1" r="2" fill="#225555"/><circle cx="353.1" cy="283.0" r="2" fill="#225555"/><circle cx="363.5" cy="284.4" r="2" fill="#225555"/><circle cx="373.8" cy="284.2" r="2" fill="#225555"/><circle cx="384.1" cy="283.2" r="2" fill="#225555"/><circle cx="394.4" cy="283.2" r="2" fill="#225555"/><circle cx="404.8" cy="285.2" r="2" fill="#225555"/><circle cx="415.1" cy="284.5" r="2" fill="#225555"/><circle cx="425.4" cy="285.6" r="2" fill="#225555"/><circle cx="435.8" cy="285.5" r="2" fill="#225555"/><circle cx="446.1" cy="284.1" r="2" fill="#225555"/><circle cx="456.4" cy="285.4" r="2" fill="#225555"/><circle cx="466.7" cy="285.4" r="2" fill="#225555"/><circle cx="477.1" cy="285.8" r="2" fill="#225555"/><circle cx="487.4" cy="285.2" r="2" fill="#225555"/><circle cx="497.7" cy="286.1" r="2" fill="#225555"/><circle cx="508.0" cy="286.2" r="2" fill="#225555"/><circle cx="518.4" cy="286.4" r="2" fill="#225555"/><circle cx="528.7" cy="284.9" r="2" fill="#225555"/><circle cx="539.0" cy="285.2" r="2" fill="#225555"/><circle cx="549.3" cy="285.3" r="2" fill="#225555"/><circle cx="559.7" cy="286.1" r="2" fill="#225555"/><circle cx="570.0" cy="285.5" r="2" fill="#225555"/><rect x="580" y="154" width="10" height="10" fill="#225555"/><text x="594" y="163" font-size="10" fill="#444">hub-200</text><path d="M64.0,284.5 L74.3,285.0 L84.7,285.0 L95.0,285.0 L105.3,284.6 L115.6,285.0 L126.0,284.6 L136.3,284.9 L146.6,284.5 L156.9,284.4 L167.3,284.7 L177.6,285.2 L187.9,284.2 L198.2,284.3 L208.6,285.4 L218.9,284.5 L229.2,285.1 L239.6,284.5 L249.9,284.2 L260.2,284.5 L270.5,284.5 L280.9,284.1 L291.2,284.4 L301.5,284.0 L311.8,284.5 L322.2,284.8 L332.5,284.4 L342.8,282.9 L353.1,282.8 L363.5,284.2 L373.8,284.1 L384.1,282.8 L394.4,283.1 L404.8,285.1 L415.1,284.4 L425.4,285.6 L435.8,285.6 L446.1,284.3 L456.4,285.4 L466.7,285.6 L477.1,285.9 L487.4,285.3 L497.7,286.0 L508.0,286.3 L518.4,286.6 L528.7,285.1 L539.0,285.2 L549.3,285.6 L559.7,286.5 L570.0,285.5" fill="none" stroke="#552222" stroke-width="1.6"/><circle cx="64.0" cy="284.5" r="2" fill="#552222"/><circle cx="74.3" cy="285.0" r="2" fill="#552222"/><circle cx="84.7" cy="285.0" r="2" fill="#552222"/><circle cx="95.0" cy="285.0" r="2" fill="#552222"/><circle cx="105.3" cy="284.6" r="2" fill="#552222"/><circle cx="115.6" cy="285.0" r="2" fill="#552222"/><circle cx="126.0" cy="284.6" r="2" fill="#552222"/><circle cx="136.3" cy="284.9" r="2" fill="#552222"/><circle cx="146.6" cy="284.5" r="2" fill="#552222"/><circle cx="156.9" cy="284.4" r="2" fill="#552222"/><circle cx="167.3" cy="284.7" r="2" fill="#552222"/><circle cx="177.6" cy="285.2" r="2" fill="#552222"/><circle cx="187.9" cy="284.2" r="2" fill="#552222"/><circle cx="198.2" cy="284.3" r="2" fill="#552222"/><circle cx="208.6" cy="285.4" r="2" fill="#552222"/><circle cx="218.9" cy="284.5" r="2" fill="#552222"/><circle cx="229.2" cy="285.1" r="2" fill="#552222"/><circle cx="239.6" cy="284.5" r="2" fill="#552222"/><circle cx="249.9" cy="284.2" r="2" fill="#552222"/><circle cx="260.2" cy="284.5" r="2" fill="#552222"/><circle cx="270.5" cy="284.5" r="2" fill="#552222"/><circle cx="280.9" cy="284.1" r="2" fill="#552222"/><circle cx="291.2" cy="284.4" r="2" fill="#552222"/><circle cx="301.5" cy="284.0" r="2" fill="#552222"/><circle cx="311.8" cy="284.5" r="2" fill="#552222"/><circle cx="322.2" cy="284.8" r="2" fill="#552222"/><circle cx="332.5" cy="284.4" r="2" fill="#552222"/><circle cx="342.8" cy="282.9" r="2" fill="#552222"/><circle cx="353.1" cy="282.8" r="2" fill="#552222"/><circle cx="363.5" cy="284.2" r="2" fill="#552222"/><circle cx="373.8" cy="284.1" r="2" fill="#552222"/><circle cx="384.1" cy="282.8" r="2" fill="#552222"/><circle cx="394.4" cy="283.1" r="2" fill="#552222"/><circle cx="404.8" cy="285.1" r="2" fill="#552222"/><circle cx="415.1" cy="284.4" r="2" fill="#552222"/><circle cx="425.4" cy="285.6" r="2" fill="#552222"/><circle cx="435.8" cy="285.6" r="2" fill="#552222"/><circle cx="446.1" cy="284.3" r="2" fill="#552222"/><circle cx="456.4" cy="285.4" r="2" fill="#552222"/><circle cx="466.7" cy="285.6" r="2" fill="#552222"/><circle cx="477.1" cy="285.9" r="2" fill="#552222"/><circle cx="487.4" cy="285.3" r="2" fill="#552222"/><circle cx="497.7" cy="286.0" r="2" fill="#552222"/><circle cx="508.0" cy="286.3" r="2" fill="#552222"/><circle cx="518.4" cy="286.6" r="2" fill="#552222"/><circle cx="528.7" cy="285.1" r="2" fill="#552222"/><circle cx="539.0" cy="285.2" r="2" fill="#552222"/><circle cx="549.3" cy="285.6" r="2" fill="#552222"/><circle cx="559.7" cy="286.5" r="2" fill="#552222"/><circle cx="570.0" cy="285.5" r="2" fill="#552222"/><rect x="580" y="169" width="10" height="10" fill="#552222"/><text x="594" y="178" font-size="10" fill="#444">hooked-200</text></svg>