<svg width="720" height="372" xmlns="http://www.w3.org/2000/svg"><rect width="720" height="372" fill="#ffffff"/><text x="64" y="20" font-size="15" font-weight="bold" fill="#333">probable_action_exits() — ops/sec (linear scale, last 50) by PR / release, c8g.medium</text><line x1="74.3" y1="34" x2="74.3" y2="324" stroke="#e8e8e8"/><line x1="84.7" y1="34" x2="84.7" y2="324" stroke="#e8e8e8"/><line x1="95.0" y1="34" x2="95.0" y2="324" stroke="#e8e8e8"/><line x1="105.3" y1="34" x2="105.3" y2="324" stroke="#e8e8e8"/><line x1="126.0" y1="34" x2="126.0" y2="324" stroke="#e8e8e8"/><line x1="136.3" y1="34" x2="136.3" y2="324" stroke="#e8e8e8"/><line x1="146.6" y1="34" x2="146.6" y2="324" stroke="#e8e8e8"/><line x1="156.9" y1="34" x2="156.9" y2="324" stroke="#e8e8e8"/><line x1="177.6" y1="34" x2="177.6" y2="324" stroke="#e8e8e8"/><line x1="187.9" y1="34" x2="187.9" y2="324" stroke="#e8e8e8"/><line x1="198.2" y1="34" x2="198.2" y2="324" stroke="#e8e8e8"/><line x1="208.6" y1="34" x2="208.6" y2="324" stroke="#e8e8e8"/><line x1="229.2" y1="34" x2="229.2" y2="324" stroke="#e8e8e8"/><line x1="239.6" y1="34" x2="239.6" y2="324" stroke="#e8e8e8"/><line x1="249.9" y1="34" x2="249.9" y2="324" stroke="#e8e8e8"/><line x1="260.2" y1="34" x2="260.2" y2="324" stroke="#e8e8e8"/><line x1="280.9" y1="34" x2="280.9" y2="324" stroke="#e8e8e8"/><line x1="291.2" y1="34" x2="291.2" y2="324" stroke="#e8e8e8"/><line x1="301.5" y1="34" x2="301.5" y2="324" stroke="#e8e8e8"/><line x1="311.8" y1="34" x2="311.8" y2="324" stroke="#e8e8e8"/><line x1="332.5" y1="34" x2="332.5" y2="324" stroke="#e8e8e8"/><line x1="342.8" y1="34" x2="342.8" y2="324" stroke="#e8e8e8"/><line x1="353.1" y1="34" x2="353.1" y2="324" stroke="#e8e8e8"/><line x1="363.5" y1="34" x2="363.5" y2="324" stroke="#e8e8e8"/><line x1="384.1" y1="34" x2="384.1" y2="324" stroke="#e8e8e8"/><line x1="394.4" y1="34" x2="394.4" y2="324" stroke="#e8e8e8"/><line x1="404.8" y1="34" x2="404.8" y2="324" stroke="#e8e8e8"/><line x1="415.1" y1="34" x2="415.1" y2="324" stroke="#e8e8e8"/><line x1="435.8" y1="34" x2="435.8" y2="324" stroke="#e8e8e8"/><line x1="446.1" y1="34" x2="446.1" y2="324" stroke="#e8e8e8"/><line x1="456.4" y1="34" x2="456.4" y2="324" stroke="#e8e8e8"/><line x1="466.7" y1="34" x2="466.7" y2="324" stroke="#e8e8e8"/><line x1="487.4" y1="34" x2="487.4" y2="324" stroke="#e8e8e8"/><line x1="497.7" y1="34" x2="497.7" y2="324" stroke="#e8e8e8"/><line x1="508.0" y1="34" x2="508.0" y2="324" stroke="#e8e8e8"/><line x1="518.4" y1="34" x2="518.4" y2="324" stroke="#e8e8e8"/><line x1="539.0" y1="34" x2="539.0" y2="324" stroke="#e8e8e8"/><line x1="549.3" y1="34" x2="549.3" y2="324" stroke="#e8e8e8"/><line x1="559.7" y1="34" x2="559.7" y2="324" stroke="#e8e8e8"/><line x1="570.0" y1="34" x2="570.0" y2="324" stroke="#e8e8e8"/><line x1="64.0" y1="34" x2="64.0" y2="324" stroke="#d0d0d0"/><line x1="115.6" y1="34" x2="115.6" y2="324" stroke="#d0d0d0"/><line x1="167.3" y1="34" x2="167.3" y2="324" stroke="#d0d0d0"/><line x1="218.9" y1="34" x2="218.9" y2="324" stroke="#d0d0d0"/><line x1="270.5" y1="34" x2="270.5" y2="324" stroke="#d0d0d0"/><line x1="322.2" y1="34" x2="322.2" y2="324" stroke="#d0d0d0"/><line x1="373.8" y1="34" x2="373.8" y2="324" stroke="#d0d0d0"/><line x1="425.4" y1="34" x2="425.4" y2="324" stroke="#d0d0d0"/><line x1="477.1" y1="34" x2="477.1" y2="324" stroke="#d0d0d0"/><line x1="528.7" y1="34" x2="528.7" y2="324" stroke="#d0d0d0"/><line x1="64" y1="324.0" x2="570" y2="324.0" stroke="#b0b0b0"/><text x="58" y="328.0" font-size="10" text-anchor="end" fill="#888">-17.3k</text><line x1="64" y1="266.0" x2="570" y2="266.0" stroke="#b0b0b0"/><text x="58" y="270.0" font-size="10" text-anchor="end" fill="#888">27.2k</text><line x1="64" y1="208.0" x2="570" y2="208.0" stroke="#b0b0b0"/><text x="58" y="212.0" font-size="10" text-anchor="end" fill="#888">71.8k</text><line x1="64" y1="150.0" x2="570" y2="150.0" stroke="#b0b0b0"/><text x="58" y="154.0" font-size="10" text-anchor="end" fill="#888">116.3k</text><line x1="64" y1="92.0" x2="570" y2="92.0" stroke="#b0b0b0"/><text x="58" y="96.0" font-size="10" text-anchor="end" fill="#888">160.9k</text><line x1="64" y1="34.0" x2="570" y2="34.0" stroke="#b0b0b0"/><text x="58" y="38.0" font-size="10" text-anchor="end" fill="#888">205.4k</text><text x="64.0" y="327.2" font-size="4" text-anchor="end" fill="#aa4400" transform="rotate(-80 64.0 327.2)">v5.157.2</text><text x="74.3" y="327.2" font-size="4" text-anchor="end" fill="#d6a382" transform="rotate(-80 74.3 327.2)">v5.157.3</text><text x="84.7" y="327.2" font-size="4" text-anchor="end" fill="#d6a382" transform="rotate(-80 84.7 327.2)">v5.157.4</text><text x="95.0" y="327.2" font-size="4" text-anchor="end" fill="#d6a382" transform="rotate(-80 95.0 327.2)">v5.157.5</text><text x="105.3" y="327.2" font-size="4" text-anchor="end" fill="#d6a382" transform="rotate(-80 105.3 327.2)">v5.157.6</text><text x="115.6" y="327.2" font-size="4" text-anchor="end" fill="#d6a382" transform="rotate(-80 115.6 327.2)">v5.157.7</text><text x="126.0" y="327.2" font-size="4" text-anchor="end" fill="#d6a382" transform="rotate(-80 126.0 327.2)">v5.157.8</text><text x="136.3" y="327.2" font-size="4" text-anchor="end" fill="#d6a382" transform="rotate(-80 136.3 327.2)">v5.157.9</text><text x="146.6" y="327.2" font-size="4" text-anchor="end" fill="#d6a382" transform="rotate(-80 146.6 327.2)">v5.157.10</text><text x="156.9" y="327.2" font-size="4" text-anchor="end" fill="#d6a382" transform="rotate(-80 156.9 327.2)">v5.157.11</text><text x="167.3" y="327.2" font-size="4" text-anchor="end" fill="#d6a382" transform="rotate(-80 167.3 327.2)">v5.157.12</text><text x="177.6" y="327.2" font-size="4" text-anchor="end" fill="#d6a382" transform="rotate(-80 177.6 327.2)">v5.157.13</text><text x="187.9" y="327.2" font-size="4" text-anchor="end" fill="#d6a382" transform="rotate(-80 187.9 327.2)">v5.157.14</text><text x="198.2" y="327.2" font-size="4" text-anchor="end" fill="#d6a382" transform="rotate(-80 198.2 327.2)">v5.157.15</text><text x="208.6" y="327.2" font-size="4" text-anchor="end" fill="#d6a382" transform="rotate(-80 208.6 327.2)">v5.157.16</text><text x="218.9" y="327.2" font-size="4" text-anchor="end" fill="#d6a382" transform="rotate(-80 218.9 327.2)">v5.157.17</text><text x="229.2" y="327.2" font-size="4" text-anchor="end" fill="#d6a382" transform="rotate(-80 229.2 327.2)">v5.157.18</text><text x="239.6" y="327.2" font-size="4" text-anchor="end" fill="#aa4400" transform="rotate(-80 239.6 327.2)">v5.158.0</text><text x="249.9" y="327.2" font-size="4" text-anchor="end" fill="#d6a382" transform="rotate(-80 249.9 327.2)">v5.158.1</text><text x="260.2" y="327.2" font-size="4" text-anchor="end" fill="#d6a382" transform="rotate(-80 260.2 327.2)">v5.158.2</text><text x="270.5" y="327.2" font-size="4" text-anchor="end" fill="#aa4400" transform="rotate(-80 270.5 327.2)">v5.159.0</text><text x="280.9" y="327.2" font-size="4" text-anchor="end" fill="#d6a382" transform="rotate(-80 280.9 327.2)">v5.159.1</text><text x="291.2" y="327.2" font-size="4" text-anchor="end" fill="#d6a382" transform="rotate(-80 291.2 327.2)">v5.159.2</text><text x="301.5" y="327.2" font-size="4" text-anchor="end" fill="#aa4400" transform="rotate(-80 301.5 327.2)">v5.160.0</text><text x="311.8" y="327.2" font-size="4" text-anchor="end" fill="#aa4400" transform="rotate(-80 311.8 327.2)">v5.161.0</text><text x="322.2" y="327.2" font-size="4" text-anchor="end" fill="#aa4400" transform="rotate(-80 322.2 327.2)">v5.162.0</text><text x="332.5" y="327.2" font-size="4" text-anchor="end" fill="#d6a382" transform="rotate(-80 332.5 327.2)">v5.162.1</text><text x="342.8" y="327.2" font-size="4" text-anchor="end" fill="#d6a382" transform="rotate(-80 342.8 327.2)">v5.162.2</text><text x="353.1" y="327.2" font-size="4" text-anchor="end" fill="#d6a382" transform="rotate(-80 353.1 327.2)">v5.162.3</text><text x="363.5" y="327.2" font-size="4" text-anchor="end" fill="#d6a382" transform="rotate(-80 363.5 327.2)">v5.162.4</text><text x="373.8" y="327.2" font-size="4" text-anchor="end" fill="#d6a382" transform="rotate(-80 373.8 327.2)">v5.162.5</text><text x="384.1" y="327.2" font-size="4" text-anchor="end" fill="#d6a382" transform="rotate(-80 384.1 327.2)">v5.162.6</text><text x="394.4" y="327.2" font-size="4" text-anchor="end" fill="#d6a382" transform="rotate(-80 394.4 327.2)">v5.162.7</text><text x="404.8" y="327.2" font-size="4" text-anchor="end" fill="#d6a382" transform="rotate(-80 404.8 327.2)">v5.162.8</text><text x="415.1" y="327.2" font-size="4" text-anchor="end" fill="#d6a382" transform="rotate(-80 415.1 327.2)">v5.162.9</text><text x="425.4" y="327.2" font-size="4" text-anchor="end" fill="#d6a382" transform="rotate(-80 425.4 327.2)">v5.162.10</text><text x="435.8" y="327.2" font-size="4" text-anchor="end" fill="#d6a382" transform="rotate(-80 435.8 327.2)">v5.162.11</text><text x="446.1" y="327.2" font-size="4" text-anchor="end" fill="#d6a382" transform="rotate(-80 446.1 327.2)">v5.162.12</text><text x="456.4" y="327.2" font-size="4" text-anchor="end" fill="#d6a382" transform="rotate(-80 456.4 327.2)">v5.162.13</text><text x="466.7" y="327.2" font-size="4" text-anchor="end" fill="#d6a382" transform="rotate(-80 466.7 327.2)">v5.162.15</text><text x="477.1" y="327.2" font-size="4" text-anchor="end" fill="#d6a382" transform="rotate(-80 477.1 327.2)">v5.162.16</text><text x="487.4" y="327.2" font-size="4" text-anchor="end" fill="#d6a382" transform="rotate(-80 487.4 327.2)">v5.162.17</text><text x="497.7" y="327.2" font-size="4" text-anchor="end" fill="#d6a382" transform="rotate(-80 497.7 327.2)">v5.162.18</text><text x="508.0" y="327.2" font-size="4" text-anchor="end" fill="#d6a382" transform="rotate(-80 508.0 327.2)">v5.162.19</text><text x="518.4" y="327.2" font-size="4" text-anchor="end" fill="#d6a382" transform="rotate(-80 518.4 327.2)">v5.162.20</text><text x="528.7" y="327.2" font-size="4" text-anchor="end" fill="#d6a382" transform="rotate(-80 528.7 327.2)">v5.162.21</text><text x="539.0" y="327.2" font-size="4" text-anchor="end" fill="#d6a382" transform="rotate(-80 539.0 327.2)">v5.162.22</text><text x="549.3" y="327.2" font-size="4" text-anchor="end" fill="#d6a382" transform="rotate(-80 549.3 327.2)">v5.162.23</text><text x="559.7" y="327.2" font-size="4" text-anchor="end" fill="#d6a382" transform="rotate(-80 559.7 327.2)">v5.162.24</text><text x="570.0" y="327.2" font-size="4" text-anchor="end" fill="#d6a382" transform="rotate(-80 570.0 327.2)">v5.162.25</text><path d="M64.0,104.8 L74.3,98.0 L84.7,113.0 L95.0,77.2 L105.3,73.7 L115.6,75.8 L126.0,79.4 L136.3,80.6 L146.6,79.0 L156.9,74.4 L167.3,74.9 L177.6,80.1 L187.9,79.7 L198.2,79.4 L208.6,78.1 L218.9,78.1 L229.2,81.5 L239.6,72.6 L249.9,78.8 L260.2,77.7 L270.5,75.1 L280.9,77.4 L291.2,73.8 L301.5,68.9 L311.8,78.9 L322.2,75.3 L332.5,73.2 L342.8,61.9 L353.1,58.2 L363.5,62.6 L373.8,74.6 L384.1,64.2 L394.4,61.5 L404.8,151.1 L415.1,153.2 L425.4,157.9 L435.8,151.8 L446.1,152.8 L456.4,151.4 L466.7,157.6 L477.1,152.9 L487.4,152.5 L497.7,150.9 L508.0,155.3 L518.4,155.3 L528.7,151.0 L539.0,154.1 L549.3,151.3 L559.7,154.6 L570.0,154.4" fill="none" stroke="#4477AA" stroke-width="1.6"/><circle cx="64.0" cy="104.8" r="2" fill="#4477AA"/><circle cx="74.3" cy="98.0" r="2" fill="#4477AA"/><circle cx="84.7" cy="113.0" r="2" fill="#4477AA"/><circle cx="95.0" cy="77.2" r="2" fill="#4477AA"/><circle cx="105.3" cy="73.7" r="2" fill="#4477AA"/><circle cx="115.6" cy="75.8" r="2" fill="#4477AA"/><circle cx="126.0" cy="79.4" r="2" fill="#4477AA"/><circle cx="136.3" cy="80.6" r="2" fill="#4477AA"/><circle cx="146.6" cy="79.0" r="2" fill="#4477AA"/><circle cx="156.9" cy="74.4" r="2" fill="#4477AA"/><circle cx="167.3" cy="74.9" r="2" fill="#4477AA"/><circle cx="177.6" cy="80.1" r="2" fill="#4477AA"/><circle cx="187.9" cy="79.7" r="2" fill="#4477AA"/><circle cx="198.2" cy="79.4" r="2" fill="#4477AA"/><circle cx="208.6" cy="78.1" r="2" fill="#4477AA"/><circle cx="218.9" cy="78.1" r="2" fill="#4477AA"/><circle cx="229.2" cy="81.5" r="2" fill="#4477AA"/><circle cx="239.6" cy="72.6" r="2" fill="#4477AA"/><circle cx="249.9" cy="78.8" r="2" fill="#4477AA"/><circle cx="260.2" cy="77.7" r="2" fill="#4477AA"/><circle cx="270.5" cy="75.1" r="2" fill="#4477AA"/><circle cx="280.9" cy="77.4" r="2" fill="#4477AA"/><circle cx="291.2" cy="73.8" r="2" fill="#4477AA"/><circle cx="301.5" cy="68.9" r="2" fill="#4477AA"/><circle cx="311.8" cy="78.9" r="2" fill="#4477AA"/><circle cx="322.2" cy="75.3" r="2" fill="#4477AA"/><circle cx="332.5" cy="73.2" r="2" fill="#4477AA"/><circle cx="342.8" cy="61.9" r="2" fill="#4477AA"/><circle cx="353.1" cy="58.2" r="2" fill="#4477AA"/><circle cx="363.5" cy="62.6" r="2" fill="#4477AA"/><circle cx="373.8" cy="74.6" r="2" fill="#4477AA"/><circle cx="384.1" cy="64.2" r="2" fill="#4477AA"/><circle cx="394.4" cy="61.5" r="2" fill="#4477AA"/><circle cx="404.8" cy="151.1" r="2" fill="#4477AA"/><circle cx="415.1" cy="153.2" r="2" fill="#4477AA"/><circle cx="425.4" cy="157.9" r="2" fill="#4477AA"/><circle cx="435.8" cy="151.8" r="2" fill="#4477AA"/><circle cx="446.1" cy="152.8" r="2" fill="#4477AA"/><circle cx="456.4" cy="151.4" r="2" fill="#4477AA"/><circle cx="466.7" cy="157.6" r="2" fill="#4477AA"/><circle cx="477.1" cy="152.9" r="2" fill="#4477AA"/><circle cx="487.4" cy="152.5" r="2" fill="#4477AA"/><circle cx="497.7" cy="150.9" r="2" fill="#4477AA"/><circle cx="508.0" cy="155.3" r="2" fill="#4477AA"/><circle cx="518.4" cy="155.3" r="2" fill="#4477AA"/><circle cx="528.7" cy="151.0" r="2" fill="#4477AA"/><circle cx="539.0" cy="154.1" r="2" fill="#4477AA"/><circle cx="549.3" cy="151.3" r="2" fill="#4477AA"/><circle cx="559.7" cy="154.6" r="2" fill="#4477AA"/><circle cx="570.0" cy="154.4" r="2" fill="#4477AA"/><rect x="580" y="34" width="10" height="10" fill="#4477AA"/><text x="594" y="43" font-size="10" fill="#444">chain-10</text><path d="M64.0,111.0 L74.3,105.0 L84.7,123.3 L95.0,82.3 L105.3,82.3 L115.6,83.7 L126.0,83.6 L136.3,81.7 L146.6,81.8 L156.9,77.3 L167.3,77.2 L177.6,82.3 L187.9,80.8 L198.2,78.6 L208.6,81.4 L218.9,82.2 L229.2,80.6 L239.6,76.0 L249.9,80.8 L260.2,81.3 L270.5,75.6 L280.9,80.3 L291.2,78.6 L301.5,80.0 L311.8,82.2 L322.2,84.5 L332.5,82.2 L342.8,63.7 L353.1,68.2 L363.5,69.9 L373.8,77.4 L384.1,65.8 L394.4,72.2 L404.8,156.1 L415.1,157.0 L425.4,158.5 L435.8,161.9 L446.1,153.0 L456.4,162.9 L466.7,158.2 L477.1,158.6 L487.4,159.9 L497.7,159.9 L508.0,161.9 L518.4,163.3 L528.7,159.6 L539.0,155.7 L549.3,154.8 L559.7,160.8 L570.0,154.2" fill="none" stroke="#EE6677" stroke-width="1.6"/><circle cx="64.0" cy="111.0" r="2" fill="#EE6677"/><circle cx="74.3" cy="105.0" r="2" fill="#EE6677"/><circle cx="84.7" cy="123.3" r="2" fill="#EE6677"/><circle cx="95.0" cy="82.3" r="2" fill="#EE6677"/><circle cx="105.3" cy="82.3" r="2" fill="#EE6677"/><circle cx="115.6" cy="83.7" r="2" fill="#EE6677"/><circle cx="126.0" cy="83.6" r="2" fill="#EE6677"/><circle cx="136.3" cy="81.7" r="2" fill="#EE6677"/><circle cx="146.6" cy="81.8" r="2" fill="#EE6677"/><circle cx="156.9" cy="77.3" r="2" fill="#EE6677"/><circle cx="167.3" cy="77.2" r="2" fill="#EE6677"/><circle cx="177.6" cy="82.3" r="2" fill="#EE6677"/><circle cx="187.9" cy="80.8" r="2" fill="#EE6677"/><circle cx="198.2" cy="78.6" r="2" fill="#EE6677"/><circle cx="208.6" cy="81.4" r="2" fill="#EE6677"/><circle cx="218.9" cy="82.2" r="2" fill="#EE6677"/><circle cx="229.2" cy="80.6" r="2" fill="#EE6677"/><circle cx="239.6" cy="76.0" r="2" fill="#EE6677"/><circle cx="249.9" cy="80.8" r="2" fill="#EE6677"/><circle cx="260.2" cy="81.3" r="2" fill="#EE6677"/><circle cx="270.5" cy="75.6" r="2" fill="#EE6677"/><circle cx="280.9" cy="80.3" r="2" fill="#EE6677"/><circle cx="291.2" cy="78.6" r="2" fill="#EE6677"/><circle cx="301.5" cy="80.0" r="2" fill="#EE6677"/><circle cx="311.8" cy="82.2" r="2" fill="#EE6677"/><circle cx="322.2" cy="84.5" r="2" fill="#EE6677"/><circle cx="332.5" cy="82.2" r="2" fill="#EE6677"/><circle cx="342.8" cy="63.7" r="2" fill="#EE6677"/><circle cx="353.1" cy="68.2" r="2" fill="#EE6677"/><circle cx="363.5" cy="69.9" r="2" fill="#EE6677"/><circle cx="373.8" cy="77.4" r="2" fill="#EE6677"/><circle cx="384.1" cy="65.8" r="2" fill="#EE6677"/><circle cx="394.4" cy="72.2" r="2" fill="#EE6677"/><circle cx="404.8" cy="156.1" r="2" fill="#EE6677"/><circle cx="415.1" cy="157.0" r="2" fill="#EE6677"/><circle cx="425.4" cy="158.5" r="2" fill="#EE6677"/><circle cx="435.8" cy="161.9" r="2" fill="#EE6677"/><circle cx="446.1" cy="153.0" r="2" fill="#EE6677"/><circle cx="456.4" cy="162.9" r="2" fill="#EE6677"/><circle cx="466.7" cy="158.2" r="2" fill="#EE6677"/><circle cx="477.1" cy="158.6" r="2" fill="#EE6677"/><circle cx="487.4" cy="159.9" r="2" fill="#EE6677"/><circle cx="497.7" cy="159.9" r="2" fill="#EE6677"/><circle cx="508.0" cy="161.9" r="2" fill="#EE6677"/><circle cx="518.4" cy="163.3" r="2" fill="#EE6677"/><circle cx="528.7" cy="159.6" r="2" fill="#EE6677"/><circle cx="539.0" cy="155.7" r="2" fill="#EE6677"/><circle cx="549.3" cy="154.8" r="2" fill="#EE6677"/><circle cx="559.7" cy="160.8" r="2" fill="#EE6677"/><circle cx="570.0" cy="154.2" r="2" fill="#EE6677"/><rect x="580" y="49" width="10" height="10" fill="#EE6677"/><text x="594" y="58" font-size="10" fill="#444">chain-50</text><path d="M64.0,115.3 L74.3,110.0 L84.7,121.1 L95.0,89.1 L105.3,84.0 L115.6,82.4 L126.0,87.3 L136.3,84.1 L146.6,81.8 L156.9,87.5 L167.3,83.7 L177.6,86.0 L187.9,82.6 L198.2,86.5 L208.6,81.5 L218.9,81.8 L229.2,84.8 L239.6,83.6 L249.9,82.9 L260.2,84.0 L270.5,76.5 L280.9,85.2 L291.2,82.0 L301.5,83.1 L311.8,89.9 L322.2,87.5 L332.5,88.2 L342.8,69.9 L353.1,68.3 L363.5,72.4 L373.8,80.3 L384.1,73.8 L394.4,70.1 L404.8,166.2 L415.1,162.9 L425.4,174.1 L435.8,164.4 L446.1,161.6 L456.4,167.5 L466.7,166.3 L477.1,164.8 L487.4,167.5 L497.7,170.1 L508.0,167.8 L518.4,166.9 L528.7,161.9 L539.0,161.7 L549.3,167.2 L559.7,171.0 L570.0,162.1" fill="none" stroke="#228833" stroke-width="1.6"/><circle cx="64.0" cy="115.3" r="2" fill="#228833"/><circle cx="74.3" cy="110.0" r="2" fill="#228833"/><circle cx="84.7" cy="121.1" r="2" fill="#228833"/><circle cx="95.0" cy="89.1" r="2" fill="#228833"/><circle cx="105.3" cy="84.0" r="2" fill="#228833"/><circle cx="115.6" cy="82.4" r="2" fill="#228833"/><circle cx="126.0" cy="87.3" r="2" fill="#228833"/><circle cx="136.3" cy="84.1" r="2" fill="#228833"/><circle cx="146.6" cy="81.8" r="2" fill="#228833"/><circle cx="156.9" cy="87.5" r="2" fill="#228833"/><circle cx="167.3" cy="83.7" r="2" fill="#228833"/><circle cx="177.6" cy="86.0" r="2" fill="#228833"/><circle cx="187.9" cy="82.6" r="2" fill="#228833"/><circle cx="198.2" cy="86.5" r="2" fill="#228833"/><circle cx="208.6" cy="81.5" r="2" fill="#228833"/><circle cx="218.9" cy="81.8" r="2" fill="#228833"/><circle cx="229.2" cy="84.8" r="2" fill="#228833"/><circle cx="239.6" cy="83.6" r="2" fill="#228833"/><circle cx="249.9" cy="82.9" r="2" fill="#228833"/><circle cx="260.2" cy="84.0" r="2" fill="#228833"/><circle cx="270.5" cy="76.5" r="2" fill="#228833"/><circle cx="280.9" cy="85.2" r="2" fill="#228833"/><circle cx="291.2" cy="82.0" r="2" fill="#228833"/><circle cx="301.5" cy="83.1" r="2" fill="#228833"/><circle cx="311.8" cy="89.9" r="2" fill="#228833"/><circle cx="322.2" cy="87.5" r="2" fill="#228833"/><circle cx="332.5" cy="88.2" r="2" fill="#228833"/><circle cx="342.8" cy="69.9" r="2" fill="#228833"/><circle cx="353.1" cy="68.3" r="2" fill="#228833"/><circle cx="363.5" cy="72.4" r="2" fill="#228833"/><circle cx="373.8" cy="80.3" r="2" fill="#228833"/><circle cx="384.1" cy="73.8" r="2" fill="#228833"/><circle cx="394.4" cy="70.1" r="2" fill="#228833"/><circle cx="404.8" cy="166.2" r="2" fill="#228833"/><circle cx="415.1" cy="162.9" r="2" fill="#228833"/><circle cx="425.4" cy="174.1" r="2" fill="#228833"/><circle cx="435.8" cy="164.4" r="2" fill="#228833"/><circle cx="446.1" cy="161.6" r="2" fill="#228833"/><circle cx="456.4" cy="167.5" r="2" fill="#228833"/><circle cx="466.7" cy="166.3" r="2" fill="#228833"/><circle cx="477.1" cy="164.8" r="2" fill="#228833"/><circle cx="487.4" cy="167.5" r="2" fill="#228833"/><circle cx="497.7" cy="170.1" r="2" fill="#228833"/><circle cx="508.0" cy="167.8" r="2" fill="#228833"/><circle cx="518.4" cy="166.9" r="2" fill="#228833"/><circle cx="528.7" cy="161.9" r="2" fill="#228833"/><circle cx="539.0" cy="161.7" r="2" fill="#228833"/><circle cx="549.3" cy="167.2" r="2" fill="#228833"/><circle cx="559.7" cy="171.0" r="2" fill="#228833"/><circle cx="570.0" cy="162.1" r="2" fill="#228833"/><rect x="580" y="64" width="10" height="10" fill="#228833"/><text x="594" y="73" font-size="10" fill="#444">chain-200</text><path d="M64.0,126.9 L74.3,122.6 L84.7,131.8 L95.0,96.7 L105.3,97.2 L115.6,92.9 L126.0,95.9 L136.3,97.4 L146.6,99.4 L156.9,93.6 L167.3,92.3 L177.6,91.8 L187.9,91.7 L198.2,92.1 L208.6,89.4 L218.9,87.6 L229.2,92.0 L239.6,89.5 L249.9,91.7 L260.2,89.3 L270.5,87.0 L280.9,94.3 L291.2,95.4 L301.5,98.5 L311.8,96.7 L322.2,92.4 L332.5,96.9 L342.8,82.9 L353.1,84.4 L363.5,82.8 L373.8,97.8 L384.1,81.1 L394.4,81.7 L404.8,170.3 L415.1,171.0 L425.4,174.2 L435.8,174.8 L446.1,173.0 L456.4,171.2 L466.7,180.7 L477.1,175.6 L487.4,173.9 L497.7,174.2 L508.0,177.0 L518.4,177.6 L528.7,176.6 L539.0,171.0 L549.3,171.9 L559.7,174.5 L570.0,169.6" fill="none" stroke="#CCBB44" stroke-width="1.6"/><circle cx="64.0" cy="126.9" r="2" fill="#CCBB44"/><circle cx="74.3" cy="122.6" r="2" fill="#CCBB44"/><circle cx="84.7" cy="131.8" r="2" fill="#CCBB44"/><circle cx="95.0" cy="96.7" r="2" fill="#CCBB44"/><circle cx="105.3" cy="97.2" r="2" fill="#CCBB44"/><circle cx="115.6" cy="92.9" r="2" fill="#CCBB44"/><circle cx="126.0" cy="95.9" r="2" fill="#CCBB44"/><circle cx="136.3" cy="97.4" r="2" fill="#CCBB44"/><circle cx="146.6" cy="99.4" r="2" fill="#CCBB44"/><circle cx="156.9" cy="93.6" r="2" fill="#CCBB44"/><circle cx="167.3" cy="92.3" r="2" fill="#CCBB44"/><circle cx="177.6" cy="91.8" r="2" fill="#CCBB44"/><circle cx="187.9" cy="91.7" r="2" fill="#CCBB44"/><circle cx="198.2" cy="92.1" r="2" fill="#CCBB44"/><circle cx="208.6" cy="89.4" r="2" fill="#CCBB44"/><circle cx="218.9" cy="87.6" r="2" fill="#CCBB44"/><circle cx="229.2" cy="92.0" r="2" fill="#CCBB44"/><circle cx="239.6" cy="89.5" r="2" fill="#CCBB44"/><circle cx="249.9" cy="91.7" r="2" fill="#CCBB44"/><circle cx="260.2" cy="89.3" r="2" fill="#CCBB44"/><circle cx="270.5" cy="87.0" r="2" fill="#CCBB44"/><circle cx="280.9" cy="94.3" r="2" fill="#CCBB44"/><circle cx="291.2" cy="95.4" r="2" fill="#CCBB44"/><circle cx="301.5" cy="98.5" r="2" fill="#CCBB44"/><circle cx="311.8" cy="96.7" r="2" fill="#CCBB44"/><circle cx="322.2" cy="92.4" r="2" fill="#CCBB44"/><circle cx="332.5" cy="96.9" r="2" fill="#CCBB44"/><circle cx="342.8" cy="82.9" r="2" fill="#CCBB44"/><circle cx="353.1" cy="84.4" r="2" fill="#CCBB44"/><circle cx="363.5" cy="82.8" r="2" fill="#CCBB44"/><circle cx="373.8" cy="97.8" r="2" fill="#CCBB44"/><circle cx="384.1" cy="81.1" r="2" fill="#CCBB44"/><circle cx="394.4" cy="81.7" r="2" fill="#CCBB44"/><circle cx="404.8" cy="170.3" r="2" fill="#CCBB44"/><circle cx="415.1" cy="171.0" r="2" fill="#CCBB44"/><circle cx="425.4" cy="174.2" r="2" fill="#CCBB44"/><circle cx="435.8" cy="174.8" r="2" fill="#CCBB44"/><circle cx="446.1" cy="173.0" r="2" fill="#CCBB44"/><circle cx="456.4" cy="171.2" r="2" fill="#CCBB44"/><circle cx="466.7" cy="180.7" r="2" fill="#CCBB44"/><circle cx="477.1" cy="175.6" r="2" fill="#CCBB44"/><circle cx="487.4" cy="173.9" r="2" fill="#CCBB44"/><circle cx="497.7" cy="174.2" r="2" fill="#CCBB44"/><circle cx="508.0" cy="177.0" r="2" fill="#CCBB44"/><circle cx="518.4" cy="177.6" r="2" fill="#CCBB44"/><circle cx="528.7" cy="176.6" r="2" fill="#CCBB44"/><circle cx="539.0" cy="171.0" r="2" fill="#CCBB44"/><circle cx="549.3" cy="171.9" r="2" fill="#CCBB44"/><circle cx="559.7" cy="174.5" r="2" fill="#CCBB44"/><circle cx="570.0" cy="169.6" r="2" fill="#CCBB44"/><rect x="580" y="79" width="10" height="10" fill="#CCBB44"/><text x="594" y="88" font-size="10" fill="#444">chain-1000</text><path d="M64.0,247.1 L74.3,242.5 L84.7,253.1 L95.0,219.7 L105.3,220.8 L115.6,220.4 L126.0,219.9 L136.3,220.8 L146.6,221.6 L156.9,220.9 L167.3,220.2 L177.6,222.0 L187.9,220.8 L198.2,219.8 L208.6,220.0 L218.9,219.5 L229.2,221.0 L239.6,222.1 L249.9,221.0 L260.2,222.2 L270.5,220.7 L280.9,222.4 L291.2,220.8 L301.5,220.1 L311.8,221.9 L322.2,221.5 L332.5,221.8 L342.8,218.3 L353.1,219.3 L363.5,220.9 L373.8,221.8 L384.1,218.2 L394.4,219.1 L404.8,258.1 L415.1,257.8 L425.4,258.8 L435.8,258.0 L446.1,258.5 L456.4,259.2 L466.7,258.7 L477.1,258.3 L487.4,258.6 L497.7,258.1 L508.0,258.6 L518.4,258.4 L528.7,260.9 L539.0,261.4 L549.3,258.3 L559.7,258.7 L570.0,258.4" fill="none" stroke="#66CCEE" stroke-width="1.6"/><circle cx="64.0" cy="247.1" r="2" fill="#66CCEE"/><circle cx="74.3" cy="242.5" r="2" fill="#66CCEE"/><circle cx="84.7" cy="253.1" r="2" fill="#66CCEE"/><circle cx="95.0" cy="219.7" r="2" fill="#66CCEE"/><circle cx="105.3" cy="220.8" r="2" fill="#66CCEE"/><circle cx="115.6" cy="220.4" r="2" fill="#66CCEE"/><circle cx="126.0" cy="219.9" r="2" fill="#66CCEE"/><circle cx="136.3" cy="220.8" r="2" fill="#66CCEE"/><circle cx="146.6" cy="221.6" r="2" fill="#66CCEE"/><circle cx="156.9" cy="220.9" r="2" fill="#66CCEE"/><circle cx="167.3" cy="220.2" r="2" fill="#66CCEE"/><circle cx="177.6" cy="222.0" r="2" fill="#66CCEE"/><circle cx="187.9" cy="220.8" r="2" fill="#66CCEE"/><circle cx="198.2" cy="219.8" r="2" fill="#66CCEE"/><circle cx="208.6" cy="220.0" r="2" fill="#66CCEE"/><circle cx="218.9" cy="219.5" r="2" fill="#66CCEE"/><circle cx="229.2" cy="221.0" r="2" fill="#66CCEE"/><circle cx="239.6" cy="222.1" r="2" fill="#66CCEE"/><circle cx="249.9" cy="221.0" r="2" fill="#66CCEE"/><circle cx="260.2" cy="222.2" r="2" fill="#66CCEE"/><circle cx="270.5" cy="220.7" r="2" fill="#66CCEE"/><circle cx="280.9" cy="222.4" r="2" fill="#66CCEE"/><circle cx="291.2" cy="220.8" r="2" fill="#66CCEE"/><circle cx="301.5" cy="220.1" r="2" fill="#66CCEE"/><circle cx="311.8" cy="221.9" r="2" fill="#66CCEE"/><circle cx="322.2" cy="221.5" r="2" fill="#66CCEE"/><circle cx="332.5" cy="221.8" r="2" fill="#66CCEE"/><circle cx="342.8" cy="218.3" r="2" fill="#66CCEE"/><circle cx="353.1" cy="219.3" r="2" fill="#66CCEE"/><circle cx="363.5" cy="220.9" r="2" fill="#66CCEE"/><circle cx="373.8" cy="221.8" r="2" fill="#66CCEE"/><circle cx="384.1" cy="218.2" r="2" fill="#66CCEE"/><circle cx="394.4" cy="219.1" r="2" fill="#66CCEE"/><circle cx="404.8" cy="258.1" r="2" fill="#66CCEE"/><circle cx="415.1" cy="257.8" r="2" fill="#66CCEE"/><circle cx="425.4" cy="258.8" r="2" fill="#66CCEE"/><circle cx="435.8" cy="258.0" r="2" fill="#66CCEE"/><circle cx="446.1" cy="258.5" r="2" fill="#66CCEE"/><circle cx="456.4" cy="259.2" r="2" fill="#66CCEE"/><circle cx="466.7" cy="258.7" r="2" fill="#66CCEE"/><circle cx="477.1" cy="258.3" r="2" fill="#66CCEE"/><circle cx="487.4" cy="258.6" r="2" fill="#66CCEE"/><circle cx="497.7" cy="258.1" r="2" fill="#66CCEE"/><circle cx="508.0" cy="258.6" r="2" fill="#66CCEE"/><circle cx="518.4" cy="258.4" r="2" fill="#66CCEE"/><circle cx="528.7" cy="260.9" r="2" fill="#66CCEE"/><circle cx="539.0" cy="261.4" r="2" fill="#66CCEE"/><circle cx="549.3" cy="258.3" r="2" fill="#66CCEE"/><circle cx="559.7" cy="258.7" r="2" fill="#66CCEE"/><circle cx="570.0" cy="258.4" r="2" fill="#66CCEE"/><rect x="580" y="94" width="10" height="10" fill="#66CCEE"/><text x="594" y="103" font-size="10" fill="#444">dense-10</text><path d="M64.0,291.7 L74.3,290.4 L84.7,292.9 L95.0,285.6 L105.3,285.5 L115.6,286.0 L126.0,286.0 L136.3,285.8 L146.6,286.1 L156.9,285.6 L167.3,285.8 L177.6,285.9 L187.9,285.7 L198.2,285.9 L208.6,285.7 L218.9,285.8 L229.2,285.7 L239.6,285.5 L249.9,286.0 L260.2,285.7 L270.5,285.6 L280.9,285.7 L291.2,285.9 L301.5,286.0 L311.8,286.0 L322.2,286.3 L332.5,286.0 L342.8,285.2 L353.1,284.9 L363.5,285.1 L373.8,285.7 L384.1,285.4 L394.4,285.2 L404.8,293.0 L415.1,292.9 L425.4,293.2 L435.8,293.1 L446.1,292.9 L456.4,293.0 L466.7,293.3 L477.1,293.1 L487.4,293.1 L497.7,293.8 L508.0,293.3 L518.4,293.5 L528.7,293.0 L539.0,293.8 L549.3,293.0 L559.7,293.3 L570.0,293.0" fill="none" stroke="#AA3377" stroke-width="1.6"/><circle cx="64.0" cy="291.7" r="2" fill="#AA3377"/><circle cx="74.3" cy="290.4" r="2" fill="#AA3377"/><circle cx="84.7" cy="292.9" r="2" fill="#AA3377"/><circle cx="95.0" cy="285.6" r="2" fill="#AA3377"/><circle cx="105.3" cy="285.5" r="2" fill="#AA3377"/><circle cx="115.6" cy="286.0" r="2" fill="#AA3377"/><circle cx="126.0" cy="286.0" r="2" fill="#AA3377"/><circle cx="136.3" cy="285.8" r="2" fill="#AA3377"/><circle cx="146.6" cy="286.1" r="2" fill="#AA3377"/><circle cx="156.9" cy="285.6" r="2" fill="#AA3377"/><circle cx="167.3" cy="285.8" r="2" fill="#AA3377"/><circle cx="177.6" cy="285.9" r="2" fill="#AA3377"/><circle cx="187.9" cy="285.7" r="2" fill="#AA3377"/><circle cx="198.2" cy="285.9" r="2" fill="#AA3377"/><circle cx="208.6" cy="285.7" r="2" fill="#AA3377"/><circle cx="218.9" cy="285.8" r="2" fill="#AA3377"/><circle cx="229.2" cy="285.7" r="2" fill="#AA3377"/><circle cx="239.6" cy="285.5" r="2" fill="#AA3377"/><circle cx="249.9" cy="286.0" r="2" fill="#AA3377"/><circle cx="260.2" cy="285.7" r="2" fill="#AA3377"/><circle cx="270.5" cy="285.6" r="2" fill="#AA3377"/><circle cx="280.9" cy="285.7" r="2" fill="#AA3377"/><circle cx="291.2" cy="285.9" r="2" fill="#AA3377"/><circle cx="301.5" cy="286.0" r="2" fill="#AA3377"/><circle cx="311.8" cy="286.0" r="2" fill="#AA3377"/><circle cx="322.2" cy="286.3" r="2" fill="#AA3377"/><circle cx="332.5" cy="286.0" r="2" fill="#AA3377"/><circle cx="342.8" cy="285.2" r="2" fill="#AA3377"/><circle cx="353.1" cy="284.9" r="2" fill="#AA3377"/><circle cx="363.5" cy="285.1" r="2" fill="#AA3377"/><circle cx="373.8" cy="285.7" r="2" fill="#AA3377"/><circle cx="384.1" cy="285.4" r="2" fill="#AA3377"/><circle cx="394.4" cy="285.2" r="2" fill="#AA3377"/><circle cx="404.8" cy="293.0" r="2" fill="#AA3377"/><circle cx="415.1" cy="292.9" r="2" fill="#AA3377"/><circle cx="425.4" cy="293.2" r="2" fill="#AA3377"/><circle cx="435.8" cy="293.1" r="2" fill="#AA3377"/><circle cx="446.1" cy="292.9" r="2" fill="#AA3377"/><circle cx="456.4" cy="293.0" r="2" fill="#AA3377"/><circle cx="466.7" cy="293.3" r="2" fill="#AA3377"/><circle cx="477.1" cy="293.1" r="2" fill="#AA3377"/><circle cx="487.4" cy="293.1" r="2" fill="#AA3377"/><circle cx="497.7" cy="293.8" r="2" fill="#AA3377"/><circle cx="508.0" cy="293.3" r="2" fill="#AA3377"/><circle cx="518.4" cy="293.5" r="2" fill="#AA3377"/><circle cx="528.7" cy="293.0" r="2" fill="#AA3377"/><circle cx="539.0" cy="293.8" r="2" fill="#AA3377"/><circle cx="549.3" cy="293.0" r="2" fill="#AA3377"/><circle cx="559.7" cy="293.3" r="2" fill="#AA3377"/><circle cx="570.0" cy="293.0" r="2" fill="#AA3377"/><rect x="580" y="109" width="10" height="10" fill="#AA3377"/><text x="594" y="118" font-size="10" fill="#444">dense-50</text><path d="M64.0,299.8 L74.3,299.7 L84.7,299.7 L95.0,297.6 L105.3,297.5 L115.6,297.6 L126.0,297.6 L136.3,297.6 L146.6,297.7 L156.9,297.7 L167.3,297.6 L177.6,297.6 L187.9,297.6 L198.2,297.7 L208.6,297.5 L218.9,297.6 L229.2,297.7 L239.6,297.5 L249.9,297.6 L260.2,297.6 L270.5,297.6 L280.9,297.6 L291.2,297.6 L301.5,297.6 L311.8,297.6 L322.2,297.6 L332.5,297.6 L342.8,297.4 L353.1,297.4 L363.5,297.4 L373.8,297.5 L384.1,297.4 L394.4,297.4 L404.8,299.4 L415.1,299.6 L425.4,299.5 L435.8,299.5 L446.1,299.5 L456.4,299.5 L466.7,299.5 L477.1,299.5 L487.4,299.5 L497.7,299.6 L508.0,299.5 L518.4,299.5 L528.7,299.5 L539.0,299.6 L549.3,299.6 L559.7,299.8 L570.0,299.5" fill="none" stroke="#BBBBBB" stroke-width="1.6"/><circle cx="64.0" cy="299.8" r="2" fill="#BBBBBB"/><circle cx="74.3" cy="299.7" r="2" fill="#BBBBBB"/><circle cx="84.7" cy="299.7" r="2" fill="#BBBBBB"/><circle cx="95.0" cy="297.6" r="2" fill="#BBBBBB"/><circle cx="105.3" cy="297.5" r="2" fill="#BBBBBB"/><circle cx="115.6" cy="297.6" r="2" fill="#BBBBBB"/><circle cx="126.0" cy="297.6" r="2" fill="#BBBBBB"/><circle cx="136.3" cy="297.6" r="2" fill="#BBBBBB"/><circle cx="146.6" cy="297.7" r="2" fill="#BBBBBB"/><circle cx="156.9" cy="297.7" r="2" fill="#BBBBBB"/><circle cx="167.3" cy="297.6" r="2" fill="#BBBBBB"/><circle cx="177.6" cy="297.6" r="2" fill="#BBBBBB"/><circle cx="187.9" cy="297.6" r="2" fill="#BBBBBB"/><circle cx="198.2" cy="297.7" r="2" fill="#BBBBBB"/><circle cx="208.6" cy="297.5" r="2" fill="#BBBBBB"/><circle cx="218.9" cy="297.6" r="2" fill="#BBBBBB"/><circle cx="229.2" cy="297.7" r="2" fill="#BBBBBB"/><circle cx="239.6" cy="297.5" r="2" fill="#BBBBBB"/><circle cx="249.9" cy="297.6" r="2" fill="#BBBBBB"/><circle cx="260.2" cy="297.6" r="2" fill="#BBBBBB"/><circle cx="270.5" cy="297.6" r="2" fill="#BBBBBB"/><circle cx="280.9" cy="297.6" r="2" fill="#BBBBBB"/><circle cx="291.2" cy="297.6" r="2" fill="#BBBBBB"/><circle cx="301.5" cy="297.6" r="2" fill="#BBBBBB"/><circle cx="311.8" cy="297.6" r="2" fill="#BBBBBB"/><circle cx="322.2" cy="297.6" r="2" fill="#BBBBBB"/><circle cx="332.5" cy="297.6" r="2" fill="#BBBBBB"/><circle cx="342.8" cy="297.4" r="2" fill="#BBBBBB"/><circle cx="353.1" cy="297.4" r="2" fill="#BBBBBB"/><circle cx="363.5" cy="297.4" r="2" fill="#BBBBBB"/><circle cx="373.8" cy="297.5" r="2" fill="#BBBBBB"/><circle cx="384.1" cy="297.4" r="2" fill="#BBBBBB"/><circle cx="394.4" cy="297.4" r="2" fill="#BBBBBB"/><circle cx="404.8" cy="299.4" r="2" fill="#BBBBBB"/><circle cx="415.1" cy="299.6" r="2" fill="#BBBBBB"/><circle cx="425.4" cy="299.5" r="2" fill="#BBBBBB"/><circle cx="435.8" cy="299.5" r="2" fill="#BBBBBB"/><circle cx="446.1" cy="299.5" r="2" fill="#BBBBBB"/><circle cx="456.4" cy="299.5" r="2" fill="#BBBBBB"/><circle cx="466.7" cy="299.5" r="2" fill="#BBBBBB"/><circle cx="477.1" cy="299.5" r="2" fill="#BBBBBB"/><circle cx="487.4" cy="299.5" r="2" fill="#BBBBBB"/><circle cx="497.7" cy="299.6" r="2" fill="#BBBBBB"/><circle cx="508.0" cy="299.5" r="2" fill="#BBBBBB"/><circle cx="518.4" cy="299.5" r="2" fill="#BBBBBB"/><circle cx="528.7" cy="299.5" r="2" fill="#BBBBBB"/><circle cx="539.0" cy="299.6" r="2" fill="#BBBBBB"/><circle cx="549.3" cy="299.6" r="2" fill="#BBBBBB"/><circle cx="559.7" cy="299.8" r="2" fill="#BBBBBB"/><circle cx="570.0" cy="299.5" r="2" fill="#BBBBBB"/><rect x="580" y="124" width="10" height="10" fill="#BBBBBB"/><text x="594" y="133" font-size="10" fill="#444">dense-200</text><path d="M64.0,280.2 L74.3,279.0 L84.7,281.7 L95.0,270.4 L105.3,270.1 L115.6,270.8 L126.0,270.9 L136.3,271.6 L146.6,271.1 L156.9,270.8 L167.3,270.6 L177.6,271.4 L187.9,270.6 L198.2,270.5 L208.6,270.8 L218.9,270.6 L229.2,270.9 L239.6,270.3 L249.9,270.8 L260.2,270.9 L270.5,270.4 L280.9,270.9 L291.2,271.0 L301.5,270.5 L311.8,271.1 L322.2,270.7 L332.5,270.6 L342.8,269.1 L353.1,269.1 L363.5,269.7 L373.8,270.5 L384.1,269.1 L394.4,269.3 L404.8,284.7 L415.1,284.6 L425.4,285.0 L435.8,285.2 L446.1,284.7 L456.4,284.9 L466.7,285.0 L477.1,285.0 L487.4,285.1 L497.7,285.1 L508.0,285.0 L518.4,285.2 L528.7,285.5 L539.0,284.9 L549.3,285.6 L559.7,285.1 L570.0,284.8" fill="none" stroke="#222255" stroke-width="1.6"/><circle cx="64.0" cy="280.2" r="2" fill="#222255"/><circle cx="74.3" cy="279.0" r="2" fill="#222255"/><circle cx="84.7" cy="281.7" r="2" fill="#222255"/><circle cx="95.0" cy="270.4" r="2" fill="#222255"/><circle cx="105.3" cy="270.1" r="2" fill="#222255"/><circle cx="115.6" cy="270.8" r="2" fill="#222255"/><circle cx="126.0" cy="270.9" r="2" fill="#222255"/><circle cx="136.3" cy="271.6" r="2" fill="#222255"/><circle cx="146.6" cy="271.1" r="2" fill="#222255"/><circle cx="156.9" cy="270.8" r="2" fill="#222255"/><circle cx="167.3" cy="270.6" r="2" fill="#222255"/><circle cx="177.6" cy="271.4" r="2" fill="#222255"/><circle cx="187.9" cy="270.6" r="2" fill="#222255"/><circle cx="198.2" cy="270.5" r="2" fill="#222255"/><circle cx="208.6" cy="270.8" r="2" fill="#222255"/><circle cx="218.9" cy="270.6" r="2" fill="#222255"/><circle cx="229.2" cy="270.9" r="2" fill="#222255"/><circle cx="239.6" cy="270.3" r="2" fill="#222255"/><circle cx="249.9" cy="270.8" r="2" fill="#222255"/><circle cx="260.2" cy="270.9" r="2" fill="#222255"/><circle cx="270.5" cy="270.4" r="2" fill="#222255"/><circle cx="280.9" cy="270.9" r="2" fill="#222255"/><circle cx="291.2" cy="271.0" r="2" fill="#222255"/><circle cx="301.5" cy="270.5" r="2" fill="#222255"/><circle cx="311.8" cy="271.1" r="2" fill="#222255"/><circle cx="322.2" cy="270.7" r="2" fill="#222255"/><circle cx="332.5" cy="270.6" r="2" fill="#222255"/><circle cx="342.8" cy="269.1" r="2" fill="#222255"/><circle cx="353.1" cy="269.1" r="2" fill="#222255"/><circle cx="363.5" cy="269.7" r="2" fill="#222255"/><circle cx="373.8" cy="270.5" r="2" fill="#222255"/><circle cx="384.1" cy="269.1" r="2" fill="#222255"/><circle cx="394.4" cy="269.3" r="2" fill="#222255"/><circle cx="404.8" cy="284.7" r="2" fill="#222255"/><circle cx="415.1" cy="284.6" r="2" fill="#222255"/><circle cx="425.4" cy="285.0" r="2" fill="#222255"/><circle cx="435.8" cy="285.2" r="2" fill="#222255"/><circle cx="446.1" cy="284.7" r="2" fill="#222255"/><circle cx="456.4" cy="284.9" r="2" fill="#222255"/><circle cx="466.7" cy="285.0" r="2" fill="#222255"/><circle cx="477.1" cy="285.0" r="2" fill="#222255"/><circle cx="487.4" cy="285.1" r="2" fill="#222255"/><circle cx="497.7" cy="285.1" r="2" fill="#222255"/><circle cx="508.0" cy="285.0" r="2" fill="#222255"/><circle cx="518.4" cy="285.2" r="2" fill="#222255"/><circle cx="528.7" cy="285.5" r="2" fill="#222255"/><circle cx="539.0" cy="284.9" r="2" fill="#222255"/><circle cx="549.3" cy="285.6" r="2" fill="#222255"/><circle cx="559.7" cy="285.1" r="2" fill="#222255"/><circle cx="570.0" cy="284.8" r="2" fill="#222255"/><rect x="580" y="139" width="10" height="10" fill="#222255"/><text x="594" y="148" font-size="10" fill="#444">hub-50</text><path d="M64.0,296.1 L74.3,295.7 L84.7,296.7 L95.0,293.3 L105.3,293.1 L115.6,293.3 L126.0,293.4 L136.3,293.4 L146.6,293.5 L156.9,293.3 L167.3,293.3 L177.6,293.4 L187.9,293.3 L198.2,293.2 L208.6,293.3 L218.9,293.4 L229.2,293.3 L239.6,293.2 L249.9,293.3 L260.2,293.3 L270.5,293.2 L280.9,293.3 L291.2,293.2 L301.5,293.2 L311.8,293.3 L322.2,293.3 L332.5,293.3 L342.8,292.8 L353.1,292.8 L363.5,292.9 L373.8,293.2 L384.1,292.8 L394.4,292.8 L404.8,297.1 L415.1,297.6 L425.4,297.2 L435.8,297.2 L446.1,297.1 L456.4,297.1 L466.7,297.2 L477.1,297.1 L487.4,297.2 L497.7,297.4 L508.0,297.2 L518.4,297.2 L528.7,297.1 L539.0,297.2 L549.3,297.2 L559.7,297.4 L570.0,297.1" fill="none" stroke="#225555" stroke-width="1.6"/><circle cx="64.0" cy="296.1" r="2" fill="#225555"/><circle cx="74.3" cy="295.7" r="2" fill="#225555"/><circle cx="84.7" cy="296.7" r="2" fill="#225555"/><circle cx="95.0" cy="293.3" r="2" fill="#225555"/><circle cx="105.3" cy="293.1" r="2" fill="#225555"/><circle cx="115.6" cy="293.3" r="2" fill="#225555"/><circle cx="126.0" cy="293.4" r="2" fill="#225555"/><circle cx="136.3" cy="293.4" r="2" fill="#225555"/><circle cx="146.6" cy="293.5" r="2" fill="#225555"/><circle cx="156.9" cy="293.3" r="2" fill="#225555"/><circle cx="167.3" cy="293.3" r="2" fill="#225555"/><circle cx="177.6" cy="293.4" r="2" fill="#225555"/><circle cx="187.9" cy="293.3" r="2" fill="#225555"/><circle cx="198.2" cy="293.2" r="2" fill="#225555"/><circle cx="208.6" cy="293.3" r="2" fill="#225555"/><circle cx="218.9" cy="293.4" r="2" fill="#225555"/><circle cx="229.2" cy="293.3" r="2" fill="#225555"/><circle cx="239.6" cy="293.2" r="2" fill="#225555"/><circle cx="249.9" cy="293.3" r="2" fill="#225555"/><circle cx="260.2" cy="293.3" r="2" fill="#225555"/><circle cx="270.5" cy="293.2" r="2" fill="#225555"/><circle cx="280.9" cy="293.3" r="2" fill="#225555"/><circle cx="291.2" cy="293.2" r="2" fill="#225555"/><circle cx="301.5" cy="293.2" r="2" fill="#225555"/><circle cx="311.8" cy="293.3" r="2" fill="#225555"/><circle cx="322.2" cy="293.3" r="2" fill="#225555"/><circle cx="332.5" cy="293.3" r="2" fill="#225555"/><circle cx="342.8" cy="292.8" r="2" fill="#225555"/><circle cx="353.1" cy="292.8" r="2" fill="#225555"/><circle cx="363.5" cy="292.9" r="2" fill="#225555"/><circle cx="373.8" cy="293.2" r="2" fill="#225555"/><circle cx="384.1" cy="292.8" r="2" fill="#225555"/><circle cx="394.4" cy="292.8" r="2" fill="#225555"/><circle cx="404.8" cy="297.1" r="2" fill="#225555"/><circle cx="415.1" cy="297.6" r="2" fill="#225555"/><circle cx="425.4" cy="297.2" r="2" fill="#225555"/><circle cx="435.8" cy="297.2" r="2" fill="#225555"/><circle cx="446.1" cy="297.1" r="2" fill="#225555"/><circle cx="456.4" cy="297.1" r="2" fill="#225555"/><circle cx="466.7" cy="297.2" r="2" fill="#225555"/><circle cx="477.1" cy="297.1" r="2" fill="#225555"/><circle cx="487.4" cy="297.2" r="2" fill="#225555"/><circle cx="497.7" cy="297.4" r="2" fill="#225555"/><circle cx="508.0" cy="297.2" r="2" fill="#225555"/><circle cx="518.4" cy="297.2" r="2" fill="#225555"/><circle cx="528.7" cy="297.1" r="2" fill="#225555"/><circle cx="539.0" cy="297.2" r="2" fill="#225555"/><circle cx="549.3" cy="297.2" r="2" fill="#225555"/><circle cx="559.7" cy="297.4" r="2" fill="#225555"/><circle cx="570.0" cy="297.1" r="2" fill="#225555"/><rect x="580" y="154" width="10" height="10" fill="#225555"/><text x="594" y="163" font-size="10" fill="#444">hub-200</text><path d="M64.0,296.1 L74.3,295.7 L84.7,296.7 L95.0,293.2 L105.3,293.1 L115.6,293.3 L126.0,293.3 L136.3,293.3 L146.6,293.4 L156.9,293.3 L167.3,293.3 L177.6,293.5 L187.9,293.3 L198.2,293.3 L208.6,293.3 L218.9,293.3 L229.2,293.4 L239.6,293.3 L249.9,293.3 L260.2,293.3 L270.5,293.2 L280.9,293.3 L291.2,293.3 L301.5,293.3 L311.8,293.3 L322.2,293.3 L332.5,293.3 L342.8,292.8 L353.1,292.9 L363.5,292.9 L373.8,293.2 L384.1,292.9 L394.4,292.9 L404.8,297.1 L415.1,297.1 L425.4,297.2 L435.8,297.2 L446.1,297.3 L456.4,297.2 L466.7,297.2 L477.1,297.1 L487.4,297.2 L497.7,297.2 L508.0,297.2 L518.4,297.2 L528.7,297.3 L539.0,297.1 L549.3,297.5 L559.7,297.2 L570.0,297.1" fill="none" stroke="#552222" stroke-width="1.6"/><circle cx="64.0" cy="296.1" r="2" fill="#552222"/><circle cx="74.3" cy="295.7" r="2" fill="#552222"/><circle cx="84.7" cy="296.7" r="2" fill="#552222"/><circle cx="95.0" cy="293.2" r="2" fill="#552222"/><circle cx="105.3" cy="293.1" r="2" fill="#552222"/><circle cx="115.6" cy="293.3" r="2" fill="#552222"/><circle cx="126.0" cy="293.3" r="2" fill="#552222"/><circle cx="136.3" cy="293.3" r="2" fill="#552222"/><circle cx="146.6" cy="293.4" r="2" fill="#552222"/><circle cx="156.9" cy="293.3" r="2" fill="#552222"/><circle cx="167.3" cy="293.3" r="2" fill="#552222"/><circle cx="177.6" cy="293.5" r="2" fill="#552222"/><circle cx="187.9" cy="293.3" r="2" fill="#552222"/><circle cx="198.2" cy="293.3" r="2" fill="#552222"/><circle cx="208.6" cy="293.3" r="2" fill="#552222"/><circle cx="218.9" cy="293.3" r="2" fill="#552222"/><circle cx="229.2" cy="293.4" r="2" fill="#552222"/><circle cx="239.6" cy="293.3" r="2" fill="#552222"/><circle cx="249.9" cy="293.3" r="2" fill="#552222"/><circle cx="260.2" cy="293.3" r="2" fill="#552222"/><circle cx="270.5" cy="293.2" r="2" fill="#552222"/><circle cx="280.9" cy="293.3" r="2" fill="#552222"/><circle cx="291.2" cy="293.3" r="2" fill="#552222"/><circle cx="301.5" cy="293.3" r="2" fill="#552222"/><circle cx="311.8" cy="293.3" r="2" fill="#552222"/><circle cx="322.2" cy="293.3" r="2" fill="#552222"/><circle cx="332.5" cy="293.3" r="2" fill="#552222"/><circle cx="342.8" cy="292.8" r="2" fill="#552222"/><circle cx="353.1" cy="292.9" r="2" fill="#552222"/><circle cx="363.5" cy="292.9" r="2" fill="#552222"/><circle cx="373.8" cy="293.2" r="2" fill="#552222"/><circle cx="384.1" cy="292.9" r="2" fill="#552222"/><circle cx="394.4" cy="292.9" r="2" fill="#552222"/><circle cx="404.8" cy="297.1" r="2" fill="#552222"/><circle cx="415.1" cy="297.1" r="2" fill="#552222"/><circle cx="425.4" cy="297.2" r="2" fill="#552222"/><circle cx="435.8" cy="297.2" r="2" fill="#552222"/><circle cx="446.1" cy="297.3" r="2" fill="#552222"/><circle cx="456.4" cy="297.2" r="2" fill="#552222"/><circle cx="466.7" cy="297.2" r="2" fill="#552222"/><circle cx="477.1" cy="297.1" r="2" fill="#552222"/><circle cx="487.4" cy="297.2" r="2" fill="#552222"/><circle cx="497.7" cy="297.2" r="2" fill="#552222"/><circle cx="508.0" cy="297.2" r="2" fill="#552222"/><circle cx="518.4" cy="297.2" r="2" fill="#552222"/><circle cx="528.7" cy="297.3" r="2" fill="#552222"/><circle cx="539.0" cy="297.1" r="2" fill="#552222"/><circle cx="549.3" cy="297.5" r="2" fill="#552222"/><circle cx="559.7" cy="297.2" r="2" fill="#552222"/><circle cx="570.0" cy="297.1" r="2" fill="#552222"/><rect x="580" y="169" width="10" height="10" fill="#552222"/><text x="594" y="178" font-size="10" fill="#444">hooked-200</text></svg>