<svg width="720" height="372" xmlns="http://www.w3.org/2000/svg"><rect width="720" height="372" fill="#ffffff"/><text x="64" y="20" font-size="15" font-weight="bold" fill="#333">action() — ops/sec (log scale) by PR / release, c8g.medium</text><line x1="69.7" y1="34" x2="69.7" y2="324" stroke="#e8e8e8"/><line x1="75.4" y1="34" x2="75.4" y2="324" stroke="#e8e8e8"/><line x1="81.1" y1="34" x2="81.1" y2="324" stroke="#e8e8e8"/><line x1="86.7" y1="34" x2="86.7" y2="324" stroke="#e8e8e8"/><line x1="98.1" y1="34" x2="98.1" y2="324" stroke="#e8e8e8"/><line x1="103.8" y1="34" x2="103.8" y2="324" stroke="#e8e8e8"/><line x1="109.5" y1="34" x2="109.5" y2="324" stroke="#e8e8e8"/><line x1="115.2" y1="34" x2="115.2" y2="324" stroke="#e8e8e8"/><line x1="126.5" y1="34" x2="126.5" y2="324" stroke="#e8e8e8"/><line x1="132.2" y1="34" x2="132.2" y2="324" stroke="#e8e8e8"/><line x1="137.9" y1="34" x2="137.9" y2="324" stroke="#e8e8e8"/><line x1="143.6" y1="34" x2="143.6" y2="324" stroke="#e8e8e8"/><line x1="155.0" y1="34" x2="155.0" y2="324" stroke="#e8e8e8"/><line x1="160.7" y1="34" x2="160.7" y2="324" stroke="#e8e8e8"/><line x1="166.3" y1="34" x2="166.3" y2="324" stroke="#e8e8e8"/><line x1="172.0" y1="34" x2="172.0" y2="324" stroke="#e8e8e8"/><line x1="183.4" y1="34" x2="183.4" y2="324" stroke="#e8e8e8"/><line x1="189.1" y1="34" x2="189.1" y2="324" stroke="#e8e8e8"/><line x1="194.8" y1="34" x2="194.8" y2="324" stroke="#e8e8e8"/><line x1="200.4" y1="34" x2="200.4" y2="324" stroke="#e8e8e8"/><line x1="211.8" y1="34" x2="211.8" y2="324" stroke="#e8e8e8"/><line x1="217.5" y1="34" x2="217.5" y2="324" stroke="#e8e8e8"/><line x1="223.2" y1="34" x2="223.2" y2="324" stroke="#e8e8e8"/><line x1="228.9" y1="34" x2="228.9" y2="324" stroke="#e8e8e8"/><line x1="240.2" y1="34" x2="240.2" y2="324" stroke="#e8e8e8"/><line x1="245.9" y1="34" x2="245.9" y2="324" stroke="#e8e8e8"/><line x1="251.6" y1="34" x2="251.6" y2="324" stroke="#e8e8e8"/><line x1="257.3" y1="34" x2="257.3" y2="324" stroke="#e8e8e8"/><line x1="268.7" y1="34" x2="268.7" y2="324" stroke="#e8e8e8"/><line x1="274.4" y1="34" x2="274.4" y2="324" stroke="#e8e8e8"/><line x1="280.0" y1="34" x2="280.0" y2="324" stroke="#e8e8e8"/><line x1="285.7" y1="34" x2="285.7" y2="324" stroke="#e8e8e8"/><line x1="297.1" y1="34" x2="297.1" y2="324" stroke="#e8e8e8"/><line x1="302.8" y1="34" x2="302.8" y2="324" stroke="#e8e8e8"/><line x1="308.5" y1="34" x2="308.5" y2="324" stroke="#e8e8e8"/><line x1="314.2" y1="34" x2="314.2" y2="324" stroke="#e8e8e8"/><line x1="325.5" y1="34" x2="325.5" y2="324" stroke="#e8e8e8"/><line x1="331.2" y1="34" x2="331.2" y2="324" stroke="#e8e8e8"/><line x1="336.9" y1="34" x2="336.9" y2="324" stroke="#e8e8e8"/><line x1="342.6" y1="34" x2="342.6" y2="324" stroke="#e8e8e8"/><line x1="354.0" y1="34" x2="354.0" y2="324" stroke="#e8e8e8"/><line x1="359.6" y1="34" x2="359.6" y2="324" stroke="#e8e8e8"/><line x1="365.3" y1="34" x2="365.3" y2="324" stroke="#e8e8e8"/><line x1="371.0" y1="34" x2="371.0" y2="324" stroke="#e8e8e8"/><line x1="382.4" y1="34" x2="382.4" y2="324" stroke="#e8e8e8"/><line x1="388.1" y1="34" x2="388.1" y2="324" stroke="#e8e8e8"/><line x1="393.8" y1="34" x2="393.8" y2="324" stroke="#e8e8e8"/><line x1="399.4" y1="34" x2="399.4" y2="324" stroke="#e8e8e8"/><line x1="410.8" y1="34" x2="410.8" y2="324" stroke="#e8e8e8"/><line x1="416.5" y1="34" x2="416.5" y2="324" stroke="#e8e8e8"/><line x1="422.2" y1="34" x2="422.2" y2="324" stroke="#e8e8e8"/><line x1="427.9" y1="34" x2="427.9" y2="324" stroke="#e8e8e8"/><line x1="439.2" y1="34" x2="439.2" y2="324" stroke="#e8e8e8"/><line x1="444.9" y1="34" x2="444.9" y2="324" stroke="#e8e8e8"/><line x1="450.6" y1="34" x2="450.6" y2="324" stroke="#e8e8e8"/><line x1="456.3" y1="34" x2="456.3" y2="324" stroke="#e8e8e8"/><line x1="467.7" y1="34" x2="467.7" y2="324" stroke="#e8e8e8"/><line x1="473.3" y1="34" x2="473.3" y2="324" stroke="#e8e8e8"/><line x1="479.0" y1="34" x2="479.0" y2="324" stroke="#e8e8e8"/><line x1="484.7" y1="34" x2="484.7" y2="324" stroke="#e8e8e8"/><line x1="496.1" y1="34" x2="496.1" y2="324" stroke="#e8e8e8"/><line x1="501.8" y1="34" x2="501.8" y2="324" stroke="#e8e8e8"/><line x1="507.5" y1="34" x2="507.5" y2="324" stroke="#e8e8e8"/><line x1="513.1" y1="34" x2="513.1" y2="324" stroke="#e8e8e8"/><line x1="524.5" y1="34" x2="524.5" y2="324" stroke="#e8e8e8"/><line x1="530.2" y1="34" x2="530.2" y2="324" stroke="#e8e8e8"/><line x1="535.9" y1="34" x2="535.9" y2="324" stroke="#e8e8e8"/><line x1="541.6" y1="34" x2="541.6" y2="324" stroke="#e8e8e8"/><line x1="552.9" y1="34" x2="552.9" y2="324" stroke="#e8e8e8"/><line x1="558.6" y1="34" x2="558.6" y2="324" stroke="#e8e8e8"/><line x1="564.3" y1="34" x2="564.3" y2="324" stroke="#e8e8e8"/><line x1="570.0" y1="34" x2="570.0" y2="324" stroke="#e8e8e8"/><line x1="64" y1="313.1" x2="570" y2="313.1" stroke="#d8d8d8"/><line x1="64" y1="306.7" x2="570" y2="306.7" stroke="#d8d8d8"/><line x1="64" y1="302.2" x2="570" y2="302.2" stroke="#d8d8d8"/><line x1="64" y1="298.7" x2="570" y2="298.7" stroke="#d8d8d8"/><line x1="64" y1="295.8" x2="570" y2="295.8" stroke="#d8d8d8"/><line x1="64" y1="293.4" x2="570" y2="293.4" stroke="#d8d8d8"/><line x1="64" y1="291.3" x2="570" y2="291.3" stroke="#d8d8d8"/><line x1="64" y1="289.4" x2="570" y2="289.4" stroke="#d8d8d8"/><line x1="64" y1="276.8" x2="570" y2="276.8" stroke="#d8d8d8"/><line x1="64" y1="270.5" x2="570" y2="270.5" stroke="#d8d8d8"/><line x1="64" y1="265.9" x2="570" y2="265.9" stroke="#d8d8d8"/><line x1="64" y1="262.4" x2="570" y2="262.4" stroke="#d8d8d8"/><line x1="64" y1="259.5" x2="570" y2="259.5" stroke="#d8d8d8"/><line x1="64" y1="257.1" x2="570" y2="257.1" stroke="#d8d8d8"/><line x1="64" y1="255.0" x2="570" y2="255.0" stroke="#d8d8d8"/><line x1="64" y1="253.2" x2="570" y2="253.2" stroke="#d8d8d8"/><line x1="64" y1="240.6" x2="570" y2="240.6" stroke="#d8d8d8"/><line x1="64" y1="234.2" x2="570" y2="234.2" stroke="#d8d8d8"/><line x1="64" y1="229.7" x2="570" y2="229.7" stroke="#d8d8d8"/><line x1="64" y1="226.2" x2="570" y2="226.2" stroke="#d8d8d8"/><line x1="64" y1="223.3" x2="570" y2="223.3" stroke="#d8d8d8"/><line x1="64" y1="220.9" x2="570" y2="220.9" stroke="#d8d8d8"/><line x1="64" y1="218.8" x2="570" y2="218.8" stroke="#d8d8d8"/><line x1="64" y1="216.9" x2="570" y2="216.9" stroke="#d8d8d8"/><line x1="64" y1="204.3" x2="570" y2="204.3" stroke="#d8d8d8"/><line x1="64" y1="198.0" x2="570" y2="198.0" stroke="#d8d8d8"/><line x1="64" y1="193.4" x2="570" y2="193.4" stroke="#d8d8d8"/><line x1="64" y1="189.9" x2="570" y2="189.9" stroke="#d8d8d8"/><line x1="64" y1="187.0" x2="570" y2="187.0" stroke="#d8d8d8"/><line x1="64" y1="184.6" x2="570" y2="184.6" stroke="#d8d8d8"/><line x1="64" y1="182.5" x2="570" y2="182.5" stroke="#d8d8d8"/><line x1="64" y1="180.7" x2="570" y2="180.7" stroke="#d8d8d8"/><line x1="64" y1="168.1" x2="570" y2="168.1" stroke="#d8d8d8"/><line x1="64" y1="161.7" x2="570" y2="161.7" stroke="#d8d8d8"/><line x1="64" y1="157.2" x2="570" y2="157.2" stroke="#d8d8d8"/><line x1="64" y1="153.7" x2="570" y2="153.7" stroke="#d8d8d8"/><line x1="64" y1="150.8" x2="570" y2="150.8" stroke="#d8d8d8"/><line x1="64" y1="148.4" x2="570" y2="148.4" stroke="#d8d8d8"/><line x1="64" y1="146.3" x2="570" y2="146.3" stroke="#d8d8d8"/><line x1="64" y1="144.4" x2="570" y2="144.4" stroke="#d8d8d8"/><line x1="64" y1="131.8" x2="570" y2="131.8" stroke="#d8d8d8"/><line x1="64" y1="125.5" x2="570" y2="125.5" stroke="#d8d8d8"/><line x1="64" y1="120.9" x2="570" y2="120.9" stroke="#d8d8d8"/><line x1="64" y1="117.4" x2="570" y2="117.4" stroke="#d8d8d8"/><line x1="64" y1="114.5" x2="570" y2="114.5" stroke="#d8d8d8"/><line x1="64" y1="112.1" x2="570" y2="112.1" stroke="#d8d8d8"/><line x1="64" y1="110.0" x2="570" y2="110.0" stroke="#d8d8d8"/><line x1="64" y1="108.2" x2="570" y2="108.2" stroke="#d8d8d8"/><line x1="64" y1="95.6" x2="570" y2="95.6" stroke="#d8d8d8"/><line x1="64" y1="89.2" x2="570" y2="89.2" stroke="#d8d8d8"/><line x1="64" y1="84.7" x2="570" y2="84.7" stroke="#d8d8d8"/><line x1="64" y1="81.2" x2="570" y2="81.2" stroke="#d8d8d8"/><line x1="64" y1="78.3" x2="570" y2="78.3" stroke="#d8d8d8"/><line x1="64" y1="75.9" x2="570" y2="75.9" stroke="#d8d8d8"/><line x1="64" y1="73.8" x2="570" y2="73.8" stroke="#d8d8d8"/><line x1="64" y1="71.9" x2="570" y2="71.9" stroke="#d8d8d8"/><line x1="64" y1="59.3" x2="570" y2="59.3" stroke="#d8d8d8"/><line x1="64" y1="53.0" x2="570" y2="53.0" stroke="#d8d8d8"/><line x1="64" y1="48.4" x2="570" y2="48.4" stroke="#d8d8d8"/><line x1="64" y1="44.9" x2="570" y2="44.9" stroke="#d8d8d8"/><line x1="64" y1="42.0" x2="570" y2="42.0" stroke="#d8d8d8"/><line x1="64" y1="39.6" x2="570" y2="39.6" stroke="#d8d8d8"/><line x1="64" y1="37.5" x2="570" y2="37.5" stroke="#d8d8d8"/><line x1="64" y1="35.7" x2="570" y2="35.7" stroke="#d8d8d8"/><line x1="64.0" y1="34" x2="64.0" y2="324" stroke="#d0d0d0"/><line x1="92.4" y1="34" x2="92.4" y2="324" stroke="#d0d0d0"/><line x1="120.9" y1="34" x2="120.9" y2="324" stroke="#d0d0d0"/><line x1="149.3" y1="34" x2="149.3" y2="324" stroke="#d0d0d0"/><line x1="177.7" y1="34" x2="177.7" y2="324" stroke="#d0d0d0"/><line x1="206.1" y1="34" x2="206.1" y2="324" stroke="#d0d0d0"/><line x1="234.6" y1="34" x2="234.6" y2="324" stroke="#d0d0d0"/><line x1="263.0" y1="34" x2="263.0" y2="324" stroke="#d0d0d0"/><line x1="291.4" y1="34" x2="291.4" y2="324" stroke="#d0d0d0"/><line x1="319.8" y1="34" x2="319.8" y2="324" stroke="#d0d0d0"/><line x1="348.3" y1="34" x2="348.3" y2="324" stroke="#d0d0d0"/><line x1="376.7" y1="34" x2="376.7" y2="324" stroke="#d0d0d0"/><line x1="405.1" y1="34" x2="405.1" y2="324" stroke="#d0d0d0"/><line x1="433.6" y1="34" x2="433.6" y2="324" stroke="#d0d0d0"/><line x1="462.0" y1="34" x2="462.0" y2="324" stroke="#d0d0d0"/><line x1="490.4" y1="34" x2="490.4" y2="324" stroke="#d0d0d0"/><line x1="518.8" y1="34" x2="518.8" y2="324" stroke="#d0d0d0"/><line x1="547.3" y1="34" x2="547.3" y2="324" stroke="#d0d0d0"/><line x1="64" y1="324" x2="570" y2="324" stroke="#b0b0b0"/><text x="58" y="328" font-size="10" text-anchor="end" fill="#888">1e0</text><line x1="64" y1="287.75" x2="570" y2="287.75" stroke="#b0b0b0"/><text x="58" y="291.75" font-size="10" text-anchor="end" fill="#888">1e1</text><line x1="64" y1="251.5" x2="570" y2="251.5" stroke="#b0b0b0"/><text x="58" y="255.5" font-size="10" text-anchor="end" fill="#888">1e2</text><line x1="64" y1="215.25" x2="570" y2="215.25" stroke="#b0b0b0"/><text x="58" y="219.25" font-size="10" text-anchor="end" fill="#888">1e3</text><line x1="64" y1="179" x2="570" y2="179" stroke="#b0b0b0"/><text x="58" y="183" font-size="10" text-anchor="end" fill="#888">1e4</text><line x1="64" y1="142.75" x2="570" y2="142.75" stroke="#b0b0b0"/><text x="58" y="146.75" font-size="10" text-anchor="end" fill="#888">1e5</text><line x1="64" y1="106.5" x2="570" y2="106.5" stroke="#b0b0b0"/><text x="58" y="110.5" font-size="10" text-anchor="end" fill="#888">1e6</text><line x1="64" y1="70.25" x2="570" y2="70.25" stroke="#b0b0b0"/><text x="58" y="74.25" font-size="10" text-anchor="end" fill="#888">1e7</text><line x1="64" y1="34" x2="570" y2="34" stroke="#b0b0b0"/><text x="58" y="38" font-size="10" text-anchor="end" fill="#888">1e8</text><text x="64.0" y="327.2" font-size="4" text-anchor="end" fill="#aa4400" transform="rotate(-80 64.0 327.2)">v5.86.1</text><text x="69.7" y="327.2" font-size="4" text-anchor="end" fill="#aa4400" transform="rotate(-80 69.7 327.2)">v5.90.0</text><text x="75.4" y="327.2" font-size="4" text-anchor="end" fill="#aa4400" transform="rotate(-80 75.4 327.2)">v5.110.1</text><text x="81.1" y="327.2" font-size="4" text-anchor="end" fill="#aa4400" transform="rotate(-80 81.1 327.2)">v5.120.0</text><text x="86.7" y="327.2" font-size="4" text-anchor="end" fill="#aa4400" transform="rotate(-80 86.7 327.2)">v5.125.0</text><text x="92.4" y="327.2" font-size="4" text-anchor="end" fill="#aa4400" transform="rotate(-80 92.4 327.2)">v5.130.0</text><text x="98.1" y="327.2" font-size="4" text-anchor="end" fill="#aa4400" transform="rotate(-80 98.1 327.2)">v5.131.0</text><text x="103.8" y="327.2" font-size="4" text-anchor="end" fill="#aa4400" transform="rotate(-80 103.8 327.2)">v5.132.0</text><text x="109.5" y="327.2" font-size="4" text-anchor="end" fill="#aa4400" transform="rotate(-80 109.5 327.2)">v5.133.0</text><text x="115.2" y="327.2" font-size="4" text-anchor="end" fill="#aa4400" transform="rotate(-80 115.2 327.2)">v5.134.0</text><text x="120.9" y="327.2" font-size="4" text-anchor="end" fill="#aa4400" transform="rotate(-80 120.9 327.2)">v5.135.0</text><text x="126.5" y="327.2" font-size="4" text-anchor="end" fill="#aa4400" transform="rotate(-80 126.5 327.2)">v5.136.0</text><text x="132.2" y="327.2" font-size="4" text-anchor="end" fill="#aa4400" transform="rotate(-80 132.2 327.2)">v5.137.0</text><text x="137.9" y="327.2" font-size="4" text-anchor="end" fill="#aa4400" transform="rotate(-80 137.9 327.2)">v5.138.0</text><text x="143.6" y="327.2" font-size="4" text-anchor="end" fill="#aa4400" transform="rotate(-80 143.6 327.2)">v5.139.0</text><text x="149.3" y="327.2" font-size="4" text-anchor="end" fill="#aa4400" transform="rotate(-80 149.3 327.2)">v5.141.0</text><text x="155.0" y="327.2" font-size="4" text-anchor="end" fill="#d6a382" transform="rotate(-80 155.0 327.2)">v5.141.1</text><text x="160.7" y="327.2" font-size="4" text-anchor="end" fill="#d6a382" transform="rotate(-80 160.7 327.2)">v5.141.2</text><text x="166.3" y="327.2" font-size="4" text-anchor="end" fill="#d6a382" transform="rotate(-80 166.3 327.2)">v5.141.3</text><text x="172.0" y="327.2" font-size="4" text-anchor="end" fill="#d6a382" transform="rotate(-80 172.0 327.2)">v5.141.4</text><text x="177.7" y="327.2" font-size="4" text-anchor="end" fill="#d6a382" transform="rotate(-80 177.7 327.2)">v5.141.5</text><text x="183.4" y="327.2" font-size="4" text-anchor="end" fill="#d6a382" transform="rotate(-80 183.4 327.2)">v5.141.6</text><text x="189.1" y="327.2" font-size="4" text-anchor="end" fill="#d6a382" transform="rotate(-80 189.1 327.2)">v5.141.8</text><text x="194.8" y="327.2" font-size="4" text-anchor="end" fill="#d6a382" transform="rotate(-80 194.8 327.2)">v5.141.9</text><text x="200.4" y="327.2" font-size="4" text-anchor="end" fill="#d6a382" transform="rotate(-80 200.4 327.2)">v5.141.10</text><text x="206.1" y="327.2" font-size="4" text-anchor="end" fill="#d6a382" transform="rotate(-80 206.1 327.2)">v5.141.11</text><text x="211.8" y="327.2" font-size="4" text-anchor="end" fill="#d6a382" transform="rotate(-80 211.8 327.2)">v5.141.12</text><text x="217.5" y="327.2" font-size="4" text-anchor="end" fill="#d6a382" transform="rotate(-80 217.5 327.2)">v5.141.13</text><text x="223.2" y="327.2" font-size="4" text-anchor="end" fill="#d6a382" transform="rotate(-80 223.2 327.2)">v5.141.14</text><text x="228.9" y="327.2" font-size="4" text-anchor="end" fill="#aa4400" transform="rotate(-80 228.9 327.2)">v5.142.0</text><text x="234.6" y="327.2" font-size="4" text-anchor="end" fill="#d6a382" transform="rotate(-80 234.6 327.2)">v5.142.1</text><text x="240.2" y="327.2" font-size="4" text-anchor="end" fill="#d6a382" transform="rotate(-80 240.2 327.2)">v5.142.2</text><text x="245.9" y="327.2" font-size="4" text-anchor="end" fill="#d6a382" transform="rotate(-80 245.9 327.2)">v5.142.3</text><text x="251.6" y="327.2" font-size="4" text-anchor="end" fill="#d6a382" transform="rotate(-80 251.6 327.2)">v5.142.4</text><text x="257.3" y="327.2" font-size="4" text-anchor="end" fill="#aa4400" transform="rotate(-80 257.3 327.2)">v5.143.0</text><text x="263.0" y="327.2" font-size="4" text-anchor="end" fill="#d6a382" transform="rotate(-80 263.0 327.2)">v5.143.1</text><text x="268.7" y="327.2" font-size="4" text-anchor="end" fill="#d6a382" transform="rotate(-80 268.7 327.2)">v5.143.2</text><text x="274.4" y="327.2" font-size="4" text-anchor="end" fill="#d6a382" transform="rotate(-80 274.4 327.2)">v5.143.3</text><text x="280.0" y="327.2" font-size="4" text-anchor="end" fill="#d6a382" transform="rotate(-80 280.0 327.2)">v5.143.4</text><text x="285.7" y="327.2" font-size="4" text-anchor="end" fill="#d6a382" transform="rotate(-80 285.7 327.2)">v5.143.5</text><text x="291.4" y="327.2" font-size="4" text-anchor="end" fill="#d6a382" transform="rotate(-80 291.4 327.2)">v5.143.6</text><text x="297.1" y="327.2" font-size="4" text-anchor="end" fill="#d6a382" transform="rotate(-80 297.1 327.2)">v5.143.7</text><text x="302.8" y="327.2" font-size="4" text-anchor="end" fill="#d6a382" transform="rotate(-80 302.8 327.2)">v5.143.8</text><text x="308.5" y="327.2" font-size="4" text-anchor="end" fill="#d6a382" transform="rotate(-80 308.5 327.2)">v5.143.9</text><text x="314.2" y="327.2" font-size="4" text-anchor="end" fill="#d6a382" transform="rotate(-80 314.2 327.2)">v5.143.10</text><text x="319.8" y="327.2" font-size="4" text-anchor="end" fill="#d6a382" transform="rotate(-80 319.8 327.2)">v5.143.11</text><text x="325.5" y="327.2" font-size="4" text-anchor="end" fill="#d6a382" transform="rotate(-80 325.5 327.2)">v5.143.12</text><text x="331.2" y="327.2" font-size="4" text-anchor="end" fill="#d6a382" transform="rotate(-80 331.2 327.2)">v5.143.15</text><text x="336.9" y="327.2" font-size="4" text-anchor="end" fill="#d6a382" transform="rotate(-80 336.9 327.2)">v5.143.16</text><text x="342.6" y="327.2" font-size="4" text-anchor="end" fill="#d6a382" transform="rotate(-80 342.6 327.2)">v5.143.20</text><text x="348.3" y="327.2" font-size="4" text-anchor="end" fill="#d6a382" transform="rotate(-80 348.3 327.2)">v5.143.21</text><text x="354.0" y="327.2" font-size="4" text-anchor="end" fill="#d6a382" transform="rotate(-80 354.0 327.2)">v5.143.22</text><text x="359.6" y="327.2" font-size="4" text-anchor="end" fill="#d6a382" transform="rotate(-80 359.6 327.2)">v5.143.23</text><text x="365.3" y="327.2" font-size="4" text-anchor="end" fill="#d6a382" transform="rotate(-80 365.3 327.2)">v5.143.24</text><text x="371.0" y="327.2" font-size="4" text-anchor="end" fill="#d6a382" transform="rotate(-80 371.0 327.2)">v5.143.25</text><text x="376.7" y="327.2" font-size="4" text-anchor="end" fill="#d6a382" transform="rotate(-80 376.7 327.2)">v5.143.26</text><text x="382.4" y="327.2" font-size="4" text-anchor="end" fill="#d6a382" transform="rotate(-80 382.4 327.2)">v5.143.27</text><text x="388.1" y="327.2" font-size="4" text-anchor="end" fill="#d6a382" transform="rotate(-80 388.1 327.2)">v5.143.28</text><text x="393.8" y="327.2" font-size="4" text-anchor="end" fill="#d6a382" transform="rotate(-80 393.8 327.2)">v5.143.29</text><text x="399.4" y="327.2" font-size="4" text-anchor="end" fill="#d6a382" transform="rotate(-80 399.4 327.2)">v5.143.30</text><text x="405.1" y="327.2" font-size="4" text-anchor="end" fill="#d6a382" transform="rotate(-80 405.1 327.2)">v5.143.31</text><text x="410.8" y="327.2" font-size="4" text-anchor="end" fill="#d6a382" transform="rotate(-80 410.8 327.2)">v5.143.33</text><text x="416.5" y="327.2" font-size="4" text-anchor="end" fill="#d6a382" transform="rotate(-80 416.5 327.2)">v5.143.34</text><text x="422.2" y="327.2" font-size="4" text-anchor="end" fill="#d6a382" transform="rotate(-80 422.2 327.2)">v5.143.35</text><text x="427.9" y="327.2" font-size="4" text-anchor="end" fill="#aa4400" transform="rotate(-80 427.9 327.2)">v5.144.0</text><text x="433.6" y="327.2" font-size="4" text-anchor="end" fill="#d6a382" transform="rotate(-80 433.6 327.2)">v5.144.1</text><text x="439.2" y="327.2" font-size="4" text-anchor="end" fill="#d6a382" transform="rotate(-80 439.2 327.2)">v5.144.2</text><text x="444.9" y="327.2" font-size="4" text-anchor="end" fill="#d6a382" transform="rotate(-80 444.9 327.2)">v5.144.3</text><text x="450.6" y="327.2" font-size="4" text-anchor="end" fill="#d6a382" transform="rotate(-80 450.6 327.2)">v5.144.4</text><text x="456.3" y="327.2" font-size="4" text-anchor="end" fill="#d6a382" transform="rotate(-80 456.3 327.2)">v5.144.5</text><text x="462.0" y="327.2" font-size="4" text-anchor="end" fill="#d6a382" transform="rotate(-80 462.0 327.2)">v5.144.7</text><text x="467.7" y="327.2" font-size="4" text-anchor="end" fill="#d6a382" transform="rotate(-80 467.7 327.2)">v5.144.8</text><text x="473.3" y="327.2" font-size="4" text-anchor="end" fill="#aa4400" transform="rotate(-80 473.3 327.2)">v5.145.0</text><text x="479.0" y="327.2" font-size="4" text-anchor="end" fill="#d6a382" transform="rotate(-80 479.0 327.2)">v5.145.1</text><text x="484.7" y="327.2" font-size="4" text-anchor="end" fill="#d6a382" transform="rotate(-80 484.7 327.2)">v5.145.2</text><text x="490.4" y="327.2" font-size="4" text-anchor="end" fill="#d6a382" transform="rotate(-80 490.4 327.2)">v5.145.3</text><text x="496.1" y="327.2" font-size="4" text-anchor="end" fill="#d6a382" transform="rotate(-80 496.1 327.2)">v5.145.4</text><text x="501.8" y="327.2" font-size="4" text-anchor="end" fill="#d6a382" transform="rotate(-80 501.8 327.2)">v5.145.6</text><text x="507.5" y="327.2" font-size="4" text-anchor="end" fill="#aa4400" transform="rotate(-80 507.5 327.2)">v5.146.0</text><text x="513.1" y="327.2" font-size="4" text-anchor="end" fill="#aa4400" transform="rotate(-80 513.1 327.2)">v5.147.0</text><text x="518.8" y="327.2" font-size="4" text-anchor="end" fill="#d6a382" transform="rotate(-80 518.8 327.2)">v5.147.1</text><text x="524.5" y="327.2" font-size="4" text-anchor="end" fill="#d6a382" transform="rotate(-80 524.5 327.2)">v5.147.2</text><text x="530.2" y="327.2" font-size="4" text-anchor="end" fill="#d6a382" transform="rotate(-80 530.2 327.2)">v5.147.3</text><text x="535.9" y="327.2" font-size="4" text-anchor="end" fill="#d6a382" transform="rotate(-80 535.9 327.2)">v5.147.4</text><text x="541.6" y="327.2" font-size="4" text-anchor="end" fill="#d6a382" transform="rotate(-80 541.6 327.2)">v5.147.5</text><text x="547.3" y="327.2" font-size="4" text-anchor="end" fill="#d6a382" transform="rotate(-80 547.3 327.2)">v5.147.6</text><text x="552.9" y="327.2" font-size="4" text-anchor="end" fill="#d6a382" transform="rotate(-80 552.9 327.2)">v5.147.7</text><text x="558.6" y="327.2" font-size="4" text-anchor="end" fill="#d6a382" transform="rotate(-80 558.6 327.2)">v5.147.8</text><text x="564.3" y="327.2" font-size="4" text-anchor="end" fill="#d6a382" transform="rotate(-80 564.3 327.2)">v5.147.9</text><text x="570.0" y="327.2" font-size="4" text-anchor="end" fill="#d6a382" transform="rotate(-80 570.0 327.2)">v5.147.10</text><path d="M64.0,63.6 L69.7,136.7 L75.4,137.3 L81.1,63.9 L86.7,138.1 L444.9,138.8 L450.6,138.3 L456.3,138.8 L462.0,138.5 L467.7,138.8 L473.3,138.5 L479.0,138.4 L484.7,138.6 L490.4,139.0 L496.1,138.5 L501.8,138.2 L507.5,138.3 L513.1,138.1 L518.8,138.5 L524.5,138.3 L530.2,138.5 L535.9,138.4 L541.6,138.4 L547.3,138.5 L552.9,138.4 L558.6,138.1 L564.3,65.6 L570.0,65.2" fill="none" stroke="#4477AA" stroke-width="1.6"/><circle cx="64.0" cy="63.6" r="2" fill="#4477AA"/><circle cx="69.7" cy="136.7" r="2" fill="#4477AA"/><circle cx="75.4" cy="137.3" r="2" fill="#4477AA"/><circle cx="81.1" cy="63.9" r="2" fill="#4477AA"/><circle cx="86.7" cy="138.1" r="2" fill="#4477AA"/><circle cx="444.9" cy="138.8" r="2" fill="#4477AA"/><circle cx="450.6" cy="138.3" r="2" fill="#4477AA"/><circle cx="456.3" cy="138.8" r="2" fill="#4477AA"/><circle cx="462.0" cy="138.5" r="2" fill="#4477AA"/><circle cx="467.7" cy="138.8" r="2" fill="#4477AA"/><circle cx="473.3" cy="138.5" r="2" fill="#4477AA"/><circle cx="479.0" cy="138.4" r="2" fill="#4477AA"/><circle cx="484.7" cy="138.6" r="2" fill="#4477AA"/><circle cx="490.4" cy="139.0" r="2" fill="#4477AA"/><circle cx="496.1" cy="138.5" r="2" fill="#4477AA"/><circle cx="501.8" cy="138.2" r="2" fill="#4477AA"/><circle cx="507.5" cy="138.3" r="2" fill="#4477AA"/><circle cx="513.1" cy="138.1" r="2" fill="#4477AA"/><circle cx="518.8" cy="138.5" r="2" fill="#4477AA"/><circle cx="524.5" cy="138.3" r="2" fill="#4477AA"/><circle cx="530.2" cy="138.5" r="2" fill="#4477AA"/><circle cx="535.9" cy="138.4" r="2" fill="#4477AA"/><circle cx="541.6" cy="138.4" r="2" fill="#4477AA"/><circle cx="547.3" cy="138.5" r="2" fill="#4477AA"/><circle cx="552.9" cy="138.4" r="2" fill="#4477AA"/><circle cx="558.6" cy="138.1" r="2" fill="#4477AA"/><circle cx="564.3" cy="65.6" r="2" fill="#4477AA"/><circle cx="570.0" cy="65.2" r="2" fill="#4477AA"/><rect x="580" y="34" width="10" height="10" fill="#4477AA"/><text x="594" y="43" font-size="10" fill="#444">chain-10</text><path d="M64.0,64.4 L69.7,137.6 L75.4,138.1 L81.1,65.3 L86.7,137.9 L444.9,139.4 L450.6,139.0 L456.3,139.0 L462.0,139.2 L467.7,139.2 L473.3,139.2 L479.0,139.1 L484.7,139.1 L490.4,139.2 L496.1,139.3 L501.8,139.0 L507.5,139.1 L513.1,138.9 L518.8,139.3 L524.5,138.8 L530.2,139.0 L535.9,139.1 L541.6,139.4 L547.3,138.8 L552.9,138.8 L558.6,139.0 L564.3,66.2 L570.0,65.9" fill="none" stroke="#EE6677" stroke-width="1.6"/><circle cx="64.0" cy="64.4" r="2" fill="#EE6677"/><circle cx="69.7" cy="137.6" r="2" fill="#EE6677"/><circle cx="75.4" cy="138.1" r="2" fill="#EE6677"/><circle cx="81.1" cy="65.3" r="2" fill="#EE6677"/><circle cx="86.7" cy="137.9" r="2" fill="#EE6677"/><circle cx="444.9" cy="139.4" r="2" fill="#EE6677"/><circle cx="450.6" cy="139.0" r="2" fill="#EE6677"/><circle cx="456.3" cy="139.0" r="2" fill="#EE6677"/><circle cx="462.0" cy="139.2" r="2" fill="#EE6677"/><circle cx="467.7" cy="139.2" r="2" fill="#EE6677"/><circle cx="473.3" cy="139.2" r="2" fill="#EE6677"/><circle cx="479.0" cy="139.1" r="2" fill="#EE6677"/><circle cx="484.7" cy="139.1" r="2" fill="#EE6677"/><circle cx="490.4" cy="139.2" r="2" fill="#EE6677"/><circle cx="496.1" cy="139.3" r="2" fill="#EE6677"/><circle cx="501.8" cy="139.0" r="2" fill="#EE6677"/><circle cx="507.5" cy="139.1" r="2" fill="#EE6677"/><circle cx="513.1" cy="138.9" r="2" fill="#EE6677"/><circle cx="518.8" cy="139.3" r="2" fill="#EE6677"/><circle cx="524.5" cy="138.8" r="2" fill="#EE6677"/><circle cx="530.2" cy="139.0" r="2" fill="#EE6677"/><circle cx="535.9" cy="139.1" r="2" fill="#EE6677"/><circle cx="541.6" cy="139.4" r="2" fill="#EE6677"/><circle cx="547.3" cy="138.8" r="2" fill="#EE6677"/><circle cx="552.9" cy="138.8" r="2" fill="#EE6677"/><circle cx="558.6" cy="139.0" r="2" fill="#EE6677"/><circle cx="564.3" cy="66.2" r="2" fill="#EE6677"/><circle cx="570.0" cy="65.9" r="2" fill="#EE6677"/><rect x="580" y="49" width="10" height="10" fill="#EE6677"/><text x="594" y="58" font-size="10" fill="#444">chain-50</text><path d="M64.0,64.5 L69.7,138.4 L75.4,139.0 L81.1,65.7 L86.7,139.0 L444.9,140.4 L450.6,140.1 L456.3,140.0 L462.0,140.3 L467.7,140.2 L473.3,140.6 L479.0,140.3 L484.7,140.0 L490.4,140.8 L496.1,139.9 L501.8,140.2 L507.5,139.9 L513.1,140.0 L518.8,139.8 L524.5,140.1 L530.2,140.2 L535.9,140.3 L541.6,139.9 L547.3,140.0 L552.9,140.1 L558.6,140.1 L564.3,66.9 L570.0,66.9" fill="none" stroke="#228833" stroke-width="1.6"/><circle cx="64.0" cy="64.5" r="2" fill="#228833"/><circle cx="69.7" cy="138.4" r="2" fill="#228833"/><circle cx="75.4" cy="139.0" r="2" fill="#228833"/><circle cx="81.1" cy="65.7" r="2" fill="#228833"/><circle cx="86.7" cy="139.0" r="2" fill="#228833"/><circle cx="444.9" cy="140.4" r="2" fill="#228833"/><circle cx="450.6" cy="140.1" r="2" fill="#228833"/><circle cx="456.3" cy="140.0" r="2" fill="#228833"/><circle cx="462.0" cy="140.3" r="2" fill="#228833"/><circle cx="467.7" cy="140.2" r="2" fill="#228833"/><circle cx="473.3" cy="140.6" r="2" fill="#228833"/><circle cx="479.0" cy="140.3" r="2" fill="#228833"/><circle cx="484.7" cy="140.0" r="2" fill="#228833"/><circle cx="490.4" cy="140.8" r="2" fill="#228833"/><circle cx="496.1" cy="139.9" r="2" fill="#228833"/><circle cx="501.8" cy="140.2" r="2" fill="#228833"/><circle cx="507.5" cy="139.9" r="2" fill="#228833"/><circle cx="513.1" cy="140.0" r="2" fill="#228833"/><circle cx="518.8" cy="139.8" r="2" fill="#228833"/><circle cx="524.5" cy="140.1" r="2" fill="#228833"/><circle cx="530.2" cy="140.2" r="2" fill="#228833"/><circle cx="535.9" cy="140.3" r="2" fill="#228833"/><circle cx="541.6" cy="139.9" r="2" fill="#228833"/><circle cx="547.3" cy="140.0" r="2" fill="#228833"/><circle cx="552.9" cy="140.1" r="2" fill="#228833"/><circle cx="558.6" cy="140.1" r="2" fill="#228833"/><circle cx="564.3" cy="66.9" r="2" fill="#228833"/><circle cx="570.0" cy="66.9" r="2" fill="#228833"/><rect x="580" y="64" width="10" height="10" fill="#228833"/><text x="594" y="73" font-size="10" fill="#444">chain-200</text><path d="M64.0,66.3 L69.7,139.4 L75.4,140.5 L81.1,67.2 L86.7,140.5 L444.9,142.4 L450.6,142.3 L456.3,141.9 L462.0,142.4 L467.7,142.2 L473.3,142.3 L479.0,142.4 L484.7,142.1 L490.4,142.3 L496.1,142.1 L501.8,142.0 L507.5,142.1 L513.1,141.8 L518.8,142.2 L524.5,142.4 L530.2,142.3 L535.9,142.0 L541.6,142.0 L547.3,141.9 L552.9,141.9 L558.6,141.9 L564.3,68.8 L570.0,68.4" fill="none" stroke="#CCBB44" stroke-width="1.6"/><circle cx="64.0" cy="66.3" r="2" fill="#CCBB44"/><circle cx="69.7" cy="139.4" r="2" fill="#CCBB44"/><circle cx="75.4" cy="140.5" r="2" fill="#CCBB44"/><circle cx="81.1" cy="67.2" r="2" fill="#CCBB44"/><circle cx="86.7" cy="140.5" r="2" fill="#CCBB44"/><circle cx="444.9" cy="142.4" r="2" fill="#CCBB44"/><circle cx="450.6" cy="142.3" r="2" fill="#CCBB44"/><circle cx="456.3" cy="141.9" r="2" fill="#CCBB44"/><circle cx="462.0" cy="142.4" r="2" fill="#CCBB44"/><circle cx="467.7" cy="142.2" r="2" fill="#CCBB44"/><circle cx="473.3" cy="142.3" r="2" fill="#CCBB44"/><circle cx="479.0" cy="142.4" r="2" fill="#CCBB44"/><circle cx="484.7" cy="142.1" r="2" fill="#CCBB44"/><circle cx="490.4" cy="142.3" r="2" fill="#CCBB44"/><circle cx="496.1" cy="142.1" r="2" fill="#CCBB44"/><circle cx="501.8" cy="142.0" r="2" fill="#CCBB44"/><circle cx="507.5" cy="142.1" r="2" fill="#CCBB44"/><circle cx="513.1" cy="141.8" r="2" fill="#CCBB44"/><circle cx="518.8" cy="142.2" r="2" fill="#CCBB44"/><circle cx="524.5" cy="142.4" r="2" fill="#CCBB44"/><circle cx="530.2" cy="142.3" r="2" fill="#CCBB44"/><circle cx="535.9" cy="142.0" r="2" fill="#CCBB44"/><circle cx="541.6" cy="142.0" r="2" fill="#CCBB44"/><circle cx="547.3" cy="141.9" r="2" fill="#CCBB44"/><circle cx="552.9" cy="141.9" r="2" fill="#CCBB44"/><circle cx="558.6" cy="141.9" r="2" fill="#CCBB44"/><circle cx="564.3" cy="68.8" r="2" fill="#CCBB44"/><circle cx="570.0" cy="68.4" r="2" fill="#CCBB44"/><rect x="580" y="79" width="10" height="10" fill="#CCBB44"/><text x="594" y="88" font-size="10" fill="#444">chain-1000</text><path d="M64.0,65.2 L69.7,137.1 L75.4,137.5 L81.1,65.9 L86.7,138.3 L444.9,139.4 L450.6,139.3 L456.3,139.0 L462.0,139.6 L467.7,139.1 L473.3,139.9 L479.0,139.6 L484.7,139.0 L490.4,140.0 L496.1,139.2 L501.8,139.2 L507.5,139.9 L513.1,139.9 L518.8,139.3 L524.5,140.1 L530.2,139.0 L535.9,138.7 L541.6,138.9 L547.3,138.6 L552.9,139.5 L558.6,139.8 L564.3,66.3 L570.0,66.3" fill="none" stroke="#66CCEE" stroke-width="1.6"/><circle cx="64.0" cy="65.2" r="2" fill="#66CCEE"/><circle cx="69.7" cy="137.1" r="2" fill="#66CCEE"/><circle cx="75.4" cy="137.5" r="2" fill="#66CCEE"/><circle cx="81.1" cy="65.9" r="2" fill="#66CCEE"/><circle cx="86.7" cy="138.3" r="2" fill="#66CCEE"/><circle cx="444.9" cy="139.4" r="2" fill="#66CCEE"/><circle cx="450.6" cy="139.3" r="2" fill="#66CCEE"/><circle cx="456.3" cy="139.0" r="2" fill="#66CCEE"/><circle cx="462.0" cy="139.6" r="2" fill="#66CCEE"/><circle cx="467.7" cy="139.1" r="2" fill="#66CCEE"/><circle cx="473.3" cy="139.9" r="2" fill="#66CCEE"/><circle cx="479.0" cy="139.6" r="2" fill="#66CCEE"/><circle cx="484.7" cy="139.0" r="2" fill="#66CCEE"/><circle cx="490.4" cy="140.0" r="2" fill="#66CCEE"/><circle cx="496.1" cy="139.2" r="2" fill="#66CCEE"/><circle cx="501.8" cy="139.2" r="2" fill="#66CCEE"/><circle cx="507.5" cy="139.9" r="2" fill="#66CCEE"/><circle cx="513.1" cy="139.9" r="2" fill="#66CCEE"/><circle cx="518.8" cy="139.3" r="2" fill="#66CCEE"/><circle cx="524.5" cy="140.1" r="2" fill="#66CCEE"/><circle cx="530.2" cy="139.0" r="2" fill="#66CCEE"/><circle cx="535.9" cy="138.7" r="2" fill="#66CCEE"/><circle cx="541.6" cy="138.9" r="2" fill="#66CCEE"/><circle cx="547.3" cy="138.6" r="2" fill="#66CCEE"/><circle cx="552.9" cy="139.5" r="2" fill="#66CCEE"/><circle cx="558.6" cy="139.8" r="2" fill="#66CCEE"/><circle cx="564.3" cy="66.3" r="2" fill="#66CCEE"/><circle cx="570.0" cy="66.3" r="2" fill="#66CCEE"/><rect x="580" y="94" width="10" height="10" fill="#66CCEE"/><text x="594" y="103" font-size="10" fill="#444">dense-10</text><path d="M64.0,65.8 L69.7,139.6 L75.4,139.7 L81.1,66.6 L86.7,140.2 L444.9,141.4 L450.6,141.0 L456.3,141.5 L462.0,141.1 L467.7,141.6 L473.3,141.2 L479.0,141.6 L484.7,141.6 L490.4,142.0 L496.1,141.6 L501.8,141.5 L507.5,141.2 L513.1,140.8 L518.8,141.6 L524.5,141.5 L530.2,141.4 L535.9,141.3 L541.6,141.1 L547.3,141.2 L552.9,141.6 L558.6,141.0 L564.3,68.9 L570.0,67.7" fill="none" stroke="#AA3377" stroke-width="1.6"/><circle cx="64.0" cy="65.8" r="2" fill="#AA3377"/><circle cx="69.7" cy="139.6" r="2" fill="#AA3377"/><circle cx="75.4" cy="139.7" r="2" fill="#AA3377"/><circle cx="81.1" cy="66.6" r="2" fill="#AA3377"/><circle cx="86.7" cy="140.2" r="2" fill="#AA3377"/><circle cx="444.9" cy="141.4" r="2" fill="#AA3377"/><circle cx="450.6" cy="141.0" r="2" fill="#AA3377"/><circle cx="456.3" cy="141.5" r="2" fill="#AA3377"/><circle cx="462.0" cy="141.1" r="2" fill="#AA3377"/><circle cx="467.7" cy="141.6" r="2" fill="#AA3377"/><circle cx="473.3" cy="141.2" r="2" fill="#AA3377"/><circle cx="479.0" cy="141.6" r="2" fill="#AA3377"/><circle cx="484.7" cy="141.6" r="2" fill="#AA3377"/><circle cx="490.4" cy="142.0" r="2" fill="#AA3377"/><circle cx="496.1" cy="141.6" r="2" fill="#AA3377"/><circle cx="501.8" cy="141.5" r="2" fill="#AA3377"/><circle cx="507.5" cy="141.2" r="2" fill="#AA3377"/><circle cx="513.1" cy="140.8" r="2" fill="#AA3377"/><circle cx="518.8" cy="141.6" r="2" fill="#AA3377"/><circle cx="524.5" cy="141.5" r="2" fill="#AA3377"/><circle cx="530.2" cy="141.4" r="2" fill="#AA3377"/><circle cx="535.9" cy="141.3" r="2" fill="#AA3377"/><circle cx="541.6" cy="141.1" r="2" fill="#AA3377"/><circle cx="547.3" cy="141.2" r="2" fill="#AA3377"/><circle cx="552.9" cy="141.6" r="2" fill="#AA3377"/><circle cx="558.6" cy="141.0" r="2" fill="#AA3377"/><circle cx="564.3" cy="68.9" r="2" fill="#AA3377"/><circle cx="570.0" cy="67.7" r="2" fill="#AA3377"/><rect x="580" y="109" width="10" height="10" fill="#AA3377"/><text x="594" y="118" font-size="10" fill="#444">dense-50</text><path d="M64.0,71.2 L69.7,141.9 L75.4,142.7 L81.1,71.7 L86.7,143.3 L444.9,145.3 L450.6,145.0 L456.3,144.9 L462.0,144.9 L467.7,145.0 L473.3,144.9 L479.0,144.8 L484.7,144.9 L490.4,145.4 L496.1,145.5 L501.8,145.4 L507.5,144.9 L513.1,144.9 L518.8,145.2 L524.5,145.0 L530.2,145.5 L535.9,145.2 L541.6,145.7 L547.3,144.5 L552.9,145.4 L558.6,145.2 L564.3,72.9 L570.0,72.9" fill="none" stroke="#BBBBBB" stroke-width="1.6"/><circle cx="64.0" cy="71.2" r="2" fill="#BBBBBB"/><circle cx="69.7" cy="141.9" r="2" fill="#BBBBBB"/><circle cx="75.4" cy="142.7" r="2" fill="#BBBBBB"/><circle cx="81.1" cy="71.7" r="2" fill="#BBBBBB"/><circle cx="86.7" cy="143.3" r="2" fill="#BBBBBB"/><circle cx="444.9" cy="145.3" r="2" fill="#BBBBBB"/><circle cx="450.6" cy="145.0" r="2" fill="#BBBBBB"/><circle cx="456.3" cy="144.9" r="2" fill="#BBBBBB"/><circle cx="462.0" cy="144.9" r="2" fill="#BBBBBB"/><circle cx="467.7" cy="145.0" r="2" fill="#BBBBBB"/><circle cx="473.3" cy="144.9" r="2" fill="#BBBBBB"/><circle cx="479.0" cy="144.8" r="2" fill="#BBBBBB"/><circle cx="484.7" cy="144.9" r="2" fill="#BBBBBB"/><circle cx="490.4" cy="145.4" r="2" fill="#BBBBBB"/><circle cx="496.1" cy="145.5" r="2" fill="#BBBBBB"/><circle cx="501.8" cy="145.4" r="2" fill="#BBBBBB"/><circle cx="507.5" cy="144.9" r="2" fill="#BBBBBB"/><circle cx="513.1" cy="144.9" r="2" fill="#BBBBBB"/><circle cx="518.8" cy="145.2" r="2" fill="#BBBBBB"/><circle cx="524.5" cy="145.0" r="2" fill="#BBBBBB"/><circle cx="530.2" cy="145.5" r="2" fill="#BBBBBB"/><circle cx="535.9" cy="145.2" r="2" fill="#BBBBBB"/><circle cx="541.6" cy="145.7" r="2" fill="#BBBBBB"/><circle cx="547.3" cy="144.5" r="2" fill="#BBBBBB"/><circle cx="552.9" cy="145.4" r="2" fill="#BBBBBB"/><circle cx="558.6" cy="145.2" r="2" fill="#BBBBBB"/><circle cx="564.3" cy="72.9" r="2" fill="#BBBBBB"/><circle cx="570.0" cy="72.9" r="2" fill="#BBBBBB"/><rect x="580" y="124" width="10" height="10" fill="#BBBBBB"/><text x="594" y="133" font-size="10" fill="#444">dense-200</text><path d="M64.0,64.9 L69.7,137.8 L75.4,138.8 L81.1,66.0 L86.7,138.7 L444.9,139.1 L450.6,138.7 L456.3,139.2 L462.0,139.2 L467.7,138.9 L473.3,139.1 L479.0,139.2 L484.7,138.9 L490.4,139.2 L496.1,139.0 L501.8,138.9 L507.5,138.9 L513.1,138.6 L518.8,138.8 L524.5,138.6 L530.2,138.9 L535.9,139.1 L541.6,138.7 L547.3,138.9 L552.9,138.7 L558.6,139.0 L564.3,66.1 L570.0,66.1" fill="none" stroke="#222255" stroke-width="1.6"/><circle cx="64.0" cy="64.9" r="2" fill="#222255"/><circle cx="69.7" cy="137.8" r="2" fill="#222255"/><circle cx="75.4" cy="138.8" r="2" fill="#222255"/><circle cx="81.1" cy="66.0" r="2" fill="#222255"/><circle cx="86.7" cy="138.7" r="2" fill="#222255"/><circle cx="444.9" cy="139.1" r="2" fill="#222255"/><circle cx="450.6" cy="138.7" r="2" fill="#222255"/><circle cx="456.3" cy="139.2" r="2" fill="#222255"/><circle cx="462.0" cy="139.2" r="2" fill="#222255"/><circle cx="467.7" cy="138.9" r="2" fill="#222255"/><circle cx="473.3" cy="139.1" r="2" fill="#222255"/><circle cx="479.0" cy="139.2" r="2" fill="#222255"/><circle cx="484.7" cy="138.9" r="2" fill="#222255"/><circle cx="490.4" cy="139.2" r="2" fill="#222255"/><circle cx="496.1" cy="139.0" r="2" fill="#222255"/><circle cx="501.8" cy="138.9" r="2" fill="#222255"/><circle cx="507.5" cy="138.9" r="2" fill="#222255"/><circle cx="513.1" cy="138.6" r="2" fill="#222255"/><circle cx="518.8" cy="138.8" r="2" fill="#222255"/><circle cx="524.5" cy="138.6" r="2" fill="#222255"/><circle cx="530.2" cy="138.9" r="2" fill="#222255"/><circle cx="535.9" cy="139.1" r="2" fill="#222255"/><circle cx="541.6" cy="138.7" r="2" fill="#222255"/><circle cx="547.3" cy="138.9" r="2" fill="#222255"/><circle cx="552.9" cy="138.7" r="2" fill="#222255"/><circle cx="558.6" cy="139.0" r="2" fill="#222255"/><circle cx="564.3" cy="66.1" r="2" fill="#222255"/><circle cx="570.0" cy="66.1" r="2" fill="#222255"/><rect x="580" y="139" width="10" height="10" fill="#222255"/><text x="594" y="148" font-size="10" fill="#444">hub-50</text><path d="M64.0,65.2 L69.7,138.4 L75.4,139.4 L81.1,65.8 L86.7,139.7 L444.9,140.1 L450.6,139.6 L456.3,139.7 L462.0,140.0 L467.7,140.2 L473.3,140.2 L479.0,140.2 L484.7,139.9 L490.4,140.5 L496.1,140.2 L501.8,140.7 L507.5,140.0 L513.1,140.0 L518.8,139.7 L524.5,140.4 L530.2,140.2 L535.9,140.1 L541.6,140.4 L547.3,139.9 L552.9,139.8 L558.6,140.0 L564.3,66.4 L570.0,66.4" fill="none" stroke="#225555" stroke-width="1.6"/><circle cx="64.0" cy="65.2" r="2" fill="#225555"/><circle cx="69.7" cy="138.4" r="2" fill="#225555"/><circle cx="75.4" cy="139.4" r="2" fill="#225555"/><circle cx="81.1" cy="65.8" r="2" fill="#225555"/><circle cx="86.7" cy="139.7" r="2" fill="#225555"/><circle cx="444.9" cy="140.1" r="2" fill="#225555"/><circle cx="450.6" cy="139.6" r="2" fill="#225555"/><circle cx="456.3" cy="139.7" r="2" fill="#225555"/><circle cx="462.0" cy="140.0" r="2" fill="#225555"/><circle cx="467.7" cy="140.2" r="2" fill="#225555"/><circle cx="473.3" cy="140.2" r="2" fill="#225555"/><circle cx="479.0" cy="140.2" r="2" fill="#225555"/><circle cx="484.7" cy="139.9" r="2" fill="#225555"/><circle cx="490.4" cy="140.5" r="2" fill="#225555"/><circle cx="496.1" cy="140.2" r="2" fill="#225555"/><circle cx="501.8" cy="140.7" r="2" fill="#225555"/><circle cx="507.5" cy="140.0" r="2" fill="#225555"/><circle cx="513.1" cy="140.0" r="2" fill="#225555"/><circle cx="518.8" cy="139.7" r="2" fill="#225555"/><circle cx="524.5" cy="140.4" r="2" fill="#225555"/><circle cx="530.2" cy="140.2" r="2" fill="#225555"/><circle cx="535.9" cy="140.1" r="2" fill="#225555"/><circle cx="541.6" cy="140.4" r="2" fill="#225555"/><circle cx="547.3" cy="139.9" r="2" fill="#225555"/><circle cx="552.9" cy="139.8" r="2" fill="#225555"/><circle cx="558.6" cy="140.0" r="2" fill="#225555"/><circle cx="564.3" cy="66.4" r="2" fill="#225555"/><circle cx="570.0" cy="66.4" r="2" fill="#225555"/><rect x="580" y="154" width="10" height="10" fill="#225555"/><text x="594" y="163" font-size="10" fill="#444">hub-200</text><path d="M64.0,88.9 L69.7,163.8 L75.4,164.4 L81.1,90.4 L86.7,164.5 L444.9,156.0 L450.6,155.9 L456.3,156.0 L462.0,155.9 L467.7,156.2 L473.3,156.2 L479.0,156.1 L484.7,156.2 L490.4,156.8 L496.1,156.2 L501.8,156.2 L507.5,156.2 L513.1,156.1 L518.8,155.9 L524.5,156.1 L530.2,156.1 L535.9,156.2 L541.6,155.9 L547.3,156.0 L552.9,155.7 L558.6,155.9 L564.3,81.8 L570.0,81.5" fill="none" stroke="#552222" stroke-width="1.6"/><circle cx="64.0" cy="88.9" r="2" fill="#552222"/><circle cx="69.7" cy="163.8" r="2" fill="#552222"/><circle cx="75.4" cy="164.4" r="2" fill="#552222"/><circle cx="81.1" cy="90.4" r="2" fill="#552222"/><circle cx="86.7" cy="164.5" r="2" fill="#552222"/><circle cx="444.9" cy="156.0" r="2" fill="#552222"/><circle cx="450.6" cy="155.9" r="2" fill="#552222"/><circle cx="456.3" cy="156.0" r="2" fill="#552222"/><circle cx="462.0" cy="155.9" r="2" fill="#552222"/><circle cx="467.7" cy="156.2" r="2" fill="#552222"/><circle cx="473.3" cy="156.2" r="2" fill="#552222"/><circle cx="479.0" cy="156.1" r="2" fill="#552222"/><circle cx="484.7" cy="156.2" r="2" fill="#552222"/><circle cx="490.4" cy="156.8" r="2" fill="#552222"/><circle cx="496.1" cy="156.2" r="2" fill="#552222"/><circle cx="501.8" cy="156.2" r="2" fill="#552222"/><circle cx="507.5" cy="156.2" r="2" fill="#552222"/><circle cx="513.1" cy="156.1" r="2" fill="#552222"/><circle cx="518.8" cy="155.9" r="2" fill="#552222"/><circle cx="524.5" cy="156.1" r="2" fill="#552222"/><circle cx="530.2" cy="156.1" r="2" fill="#552222"/><circle cx="535.9" cy="156.2" r="2" fill="#552222"/><circle cx="541.6" cy="155.9" r="2" fill="#552222"/><circle cx="547.3" cy="156.0" r="2" fill="#552222"/><circle cx="552.9" cy="155.7" r="2" fill="#552222"/><circle cx="558.6" cy="155.9" r="2" fill="#552222"/><circle cx="564.3" cy="81.8" r="2" fill="#552222"/><circle cx="570.0" cy="81.5" r="2" fill="#552222"/><rect x="580" y="169" width="10" height="10" fill="#552222"/><text x="594" y="178" font-size="10" fill="#444">hooked-200</text></svg>