<svg width="720" height="372" xmlns="http://www.w3.org/2000/svg"><rect width="720" height="372" fill="#ffffff"/><text x="64" y="20" font-size="15" font-weight="bold" fill="#333">probable_action_exits() — ops/sec (log scale) by PR / release, c8g.medium</text><line x1="69.7" y1="34" x2="69.7" y2="324" stroke="#e8e8e8"/><line x1="75.4" y1="34" x2="75.4" y2="324" stroke="#e8e8e8"/><line x1="81.1" y1="34" x2="81.1" y2="324" stroke="#e8e8e8"/><line x1="86.7" y1="34" x2="86.7" y2="324" stroke="#e8e8e8"/><line x1="98.1" y1="34" x2="98.1" y2="324" stroke="#e8e8e8"/><line x1="103.8" y1="34" x2="103.8" y2="324" stroke="#e8e8e8"/><line x1="109.5" y1="34" x2="109.5" y2="324" stroke="#e8e8e8"/><line x1="115.2" y1="34" x2="115.2" y2="324" stroke="#e8e8e8"/><line x1="126.5" y1="34" x2="126.5" y2="324" stroke="#e8e8e8"/><line x1="132.2" y1="34" x2="132.2" y2="324" stroke="#e8e8e8"/><line x1="137.9" y1="34" x2="137.9" y2="324" stroke="#e8e8e8"/><line x1="143.6" y1="34" x2="143.6" y2="324" stroke="#e8e8e8"/><line x1="155.0" y1="34" x2="155.0" y2="324" stroke="#e8e8e8"/><line x1="160.7" y1="34" x2="160.7" y2="324" stroke="#e8e8e8"/><line x1="166.3" y1="34" x2="166.3" y2="324" stroke="#e8e8e8"/><line x1="172.0" y1="34" x2="172.0" y2="324" stroke="#e8e8e8"/><line x1="183.4" y1="34" x2="183.4" y2="324" stroke="#e8e8e8"/><line x1="189.1" y1="34" x2="189.1" y2="324" stroke="#e8e8e8"/><line x1="194.8" y1="34" x2="194.8" y2="324" stroke="#e8e8e8"/><line x1="200.4" y1="34" x2="200.4" y2="324" stroke="#e8e8e8"/><line x1="211.8" y1="34" x2="211.8" y2="324" stroke="#e8e8e8"/><line x1="217.5" y1="34" x2="217.5" y2="324" stroke="#e8e8e8"/><line x1="223.2" y1="34" x2="223.2" y2="324" stroke="#e8e8e8"/><line x1="228.9" y1="34" x2="228.9" y2="324" stroke="#e8e8e8"/><line x1="240.2" y1="34" x2="240.2" y2="324" stroke="#e8e8e8"/><line x1="245.9" y1="34" x2="245.9" y2="324" stroke="#e8e8e8"/><line x1="251.6" y1="34" x2="251.6" y2="324" stroke="#e8e8e8"/><line x1="257.3" y1="34" x2="257.3" y2="324" stroke="#e8e8e8"/><line x1="268.7" y1="34" x2="268.7" y2="324" stroke="#e8e8e8"/><line x1="274.4" y1="34" x2="274.4" y2="324" stroke="#e8e8e8"/><line x1="280.0" y1="34" x2="280.0" y2="324" stroke="#e8e8e8"/><line x1="285.7" y1="34" x2="285.7" y2="324" stroke="#e8e8e8"/><line x1="297.1" y1="34" x2="297.1" y2="324" stroke="#e8e8e8"/><line x1="302.8" y1="34" x2="302.8" y2="324" stroke="#e8e8e8"/><line x1="308.5" y1="34" x2="308.5" y2="324" stroke="#e8e8e8"/><line x1="314.2" y1="34" x2="314.2" y2="324" stroke="#e8e8e8"/><line x1="325.5" y1="34" x2="325.5" y2="324" stroke="#e8e8e8"/><line x1="331.2" y1="34" x2="331.2" y2="324" stroke="#e8e8e8"/><line x1="336.9" y1="34" x2="336.9" y2="324" stroke="#e8e8e8"/><line x1="342.6" y1="34" x2="342.6" y2="324" stroke="#e8e8e8"/><line x1="354.0" y1="34" x2="354.0" y2="324" stroke="#e8e8e8"/><line x1="359.6" y1="34" x2="359.6" y2="324" stroke="#e8e8e8"/><line x1="365.3" y1="34" x2="365.3" y2="324" stroke="#e8e8e8"/><line x1="371.0" y1="34" x2="371.0" y2="324" stroke="#e8e8e8"/><line x1="382.4" y1="34" x2="382.4" y2="324" stroke="#e8e8e8"/><line x1="388.1" y1="34" x2="388.1" y2="324" stroke="#e8e8e8"/><line x1="393.8" y1="34" x2="393.8" y2="324" stroke="#e8e8e8"/><line x1="399.4" y1="34" x2="399.4" y2="324" stroke="#e8e8e8"/><line x1="410.8" y1="34" x2="410.8" y2="324" stroke="#e8e8e8"/><line x1="416.5" y1="34" x2="416.5" y2="324" stroke="#e8e8e8"/><line x1="422.2" y1="34" x2="422.2" y2="324" stroke="#e8e8e8"/><line x1="427.9" y1="34" x2="427.9" y2="324" stroke="#e8e8e8"/><line x1="439.2" y1="34" x2="439.2" y2="324" stroke="#e8e8e8"/><line x1="444.9" y1="34" x2="444.9" y2="324" stroke="#e8e8e8"/><line x1="450.6" y1="34" x2="450.6" y2="324" stroke="#e8e8e8"/><line x1="456.3" y1="34" x2="456.3" y2="324" stroke="#e8e8e8"/><line x1="467.7" y1="34" x2="467.7" y2="324" stroke="#e8e8e8"/><line x1="473.3" y1="34" x2="473.3" y2="324" stroke="#e8e8e8"/><line x1="479.0" y1="34" x2="479.0" y2="324" stroke="#e8e8e8"/><line x1="484.7" y1="34" x2="484.7" y2="324" stroke="#e8e8e8"/><line x1="496.1" y1="34" x2="496.1" y2="324" stroke="#e8e8e8"/><line x1="501.8" y1="34" x2="501.8" y2="324" stroke="#e8e8e8"/><line x1="507.5" y1="34" x2="507.5" y2="324" stroke="#e8e8e8"/><line x1="513.1" y1="34" x2="513.1" y2="324" stroke="#e8e8e8"/><line x1="524.5" y1="34" x2="524.5" y2="324" stroke="#e8e8e8"/><line x1="530.2" y1="34" x2="530.2" y2="324" stroke="#e8e8e8"/><line x1="535.9" y1="34" x2="535.9" y2="324" stroke="#e8e8e8"/><line x1="541.6" y1="34" x2="541.6" y2="324" stroke="#e8e8e8"/><line x1="552.9" y1="34" x2="552.9" y2="324" stroke="#e8e8e8"/><line x1="558.6" y1="34" x2="558.6" y2="324" stroke="#e8e8e8"/><line x1="564.3" y1="34" x2="564.3" y2="324" stroke="#e8e8e8"/><line x1="570.0" y1="34" x2="570.0" y2="324" stroke="#e8e8e8"/><line x1="64" y1="309.5" x2="570" y2="309.5" stroke="#d8d8d8"/><line x1="64" y1="300.9" x2="570" y2="300.9" stroke="#d8d8d8"/><line x1="64" y1="294.9" x2="570" y2="294.9" stroke="#d8d8d8"/><line x1="64" y1="290.2" x2="570" y2="290.2" stroke="#d8d8d8"/><line x1="64" y1="286.4" x2="570" y2="286.4" stroke="#d8d8d8"/><line x1="64" y1="283.2" x2="570" y2="283.2" stroke="#d8d8d8"/><line x1="64" y1="280.4" x2="570" y2="280.4" stroke="#d8d8d8"/><line x1="64" y1="277.9" x2="570" y2="277.9" stroke="#d8d8d8"/><line x1="64" y1="261.1" x2="570" y2="261.1" stroke="#d8d8d8"/><line x1="64" y1="252.6" x2="570" y2="252.6" stroke="#d8d8d8"/><line x1="64" y1="246.6" x2="570" y2="246.6" stroke="#d8d8d8"/><line x1="64" y1="241.9" x2="570" y2="241.9" stroke="#d8d8d8"/><line x1="64" y1="238.1" x2="570" y2="238.1" stroke="#d8d8d8"/><line x1="64" y1="234.8" x2="570" y2="234.8" stroke="#d8d8d8"/><line x1="64" y1="232.0" x2="570" y2="232.0" stroke="#d8d8d8"/><line x1="64" y1="229.5" x2="570" y2="229.5" stroke="#d8d8d8"/><line x1="64" y1="212.8" x2="570" y2="212.8" stroke="#d8d8d8"/><line x1="64" y1="204.3" x2="570" y2="204.3" stroke="#d8d8d8"/><line x1="64" y1="198.2" x2="570" y2="198.2" stroke="#d8d8d8"/><line x1="64" y1="193.5" x2="570" y2="193.5" stroke="#d8d8d8"/><line x1="64" y1="189.7" x2="570" y2="189.7" stroke="#d8d8d8"/><line x1="64" y1="186.5" x2="570" y2="186.5" stroke="#d8d8d8"/><line x1="64" y1="183.7" x2="570" y2="183.7" stroke="#d8d8d8"/><line x1="64" y1="181.2" x2="570" y2="181.2" stroke="#d8d8d8"/><line x1="64" y1="164.5" x2="570" y2="164.5" stroke="#d8d8d8"/><line x1="64" y1="155.9" x2="570" y2="155.9" stroke="#d8d8d8"/><line x1="64" y1="149.9" x2="570" y2="149.9" stroke="#d8d8d8"/><line x1="64" y1="145.2" x2="570" y2="145.2" stroke="#d8d8d8"/><line x1="64" y1="141.4" x2="570" y2="141.4" stroke="#d8d8d8"/><line x1="64" y1="138.2" x2="570" y2="138.2" stroke="#d8d8d8"/><line x1="64" y1="135.4" x2="570" y2="135.4" stroke="#d8d8d8"/><line x1="64" y1="132.9" x2="570" y2="132.9" stroke="#d8d8d8"/><line x1="64" y1="116.1" x2="570" y2="116.1" stroke="#d8d8d8"/><line x1="64" y1="107.6" x2="570" y2="107.6" stroke="#d8d8d8"/><line x1="64" y1="101.6" x2="570" y2="101.6" stroke="#d8d8d8"/><line x1="64" y1="96.9" x2="570" y2="96.9" stroke="#d8d8d8"/><line x1="64" y1="93.1" x2="570" y2="93.1" stroke="#d8d8d8"/><line x1="64" y1="89.8" x2="570" y2="89.8" stroke="#d8d8d8"/><line x1="64" y1="87.0" x2="570" y2="87.0" stroke="#d8d8d8"/><line x1="64" y1="84.5" x2="570" y2="84.5" stroke="#d8d8d8"/><line x1="64" y1="67.8" x2="570" y2="67.8" stroke="#d8d8d8"/><line x1="64" y1="59.3" x2="570" y2="59.3" stroke="#d8d8d8"/><line x1="64" y1="53.2" x2="570" y2="53.2" stroke="#d8d8d8"/><line x1="64" y1="48.5" x2="570" y2="48.5" stroke="#d8d8d8"/><line x1="64" y1="44.7" x2="570" y2="44.7" stroke="#d8d8d8"/><line x1="64" y1="41.5" x2="570" y2="41.5" stroke="#d8d8d8"/><line x1="64" y1="38.7" x2="570" y2="38.7" stroke="#d8d8d8"/><line x1="64" y1="36.2" x2="570" y2="36.2" stroke="#d8d8d8"/><line x1="64.0" y1="34" x2="64.0" y2="324" stroke="#d0d0d0"/><line x1="92.4" y1="34" x2="92.4" y2="324" stroke="#d0d0d0"/><line x1="120.9" y1="34" x2="120.9" y2="324" stroke="#d0d0d0"/><line x1="149.3" y1="34" x2="149.3" y2="324" stroke="#d0d0d0"/><line x1="177.7" y1="34" x2="177.7" y2="324" stroke="#d0d0d0"/><line x1="206.1" y1="34" x2="206.1" y2="324" stroke="#d0d0d0"/><line x1="234.6" y1="34" x2="234.6" y2="324" stroke="#d0d0d0"/><line x1="263.0" y1="34" x2="263.0" y2="324" stroke="#d0d0d0"/><line x1="291.4" y1="34" x2="291.4" y2="324" stroke="#d0d0d0"/><line x1="319.8" y1="34" x2="319.8" y2="324" stroke="#d0d0d0"/><line x1="348.3" y1="34" x2="348.3" y2="324" stroke="#d0d0d0"/><line x1="376.7" y1="34" x2="376.7" y2="324" stroke="#d0d0d0"/><line x1="405.1" y1="34" x2="405.1" y2="324" stroke="#d0d0d0"/><line x1="433.6" y1="34" x2="433.6" y2="324" stroke="#d0d0d0"/><line x1="462.0" y1="34" x2="462.0" y2="324" stroke="#d0d0d0"/><line x1="490.4" y1="34" x2="490.4" y2="324" stroke="#d0d0d0"/><line x1="518.8" y1="34" x2="518.8" y2="324" stroke="#d0d0d0"/><line x1="547.3" y1="34" x2="547.3" y2="324" stroke="#d0d0d0"/><line x1="64" y1="324" x2="570" y2="324" stroke="#b0b0b0"/><text x="58" y="328" font-size="10" text-anchor="end" fill="#888">1e0</text><line x1="64" y1="275.6666666666667" x2="570" y2="275.6666666666667" stroke="#b0b0b0"/><text x="58" y="279.6666666666667" font-size="10" text-anchor="end" fill="#888">1e1</text><line x1="64" y1="227.33333333333334" x2="570" y2="227.33333333333334" stroke="#b0b0b0"/><text x="58" y="231.33333333333334" font-size="10" text-anchor="end" fill="#888">1e2</text><line x1="64" y1="179" x2="570" y2="179" stroke="#b0b0b0"/><text x="58" y="183" font-size="10" text-anchor="end" fill="#888">1e3</text><line x1="64" y1="130.66666666666669" x2="570" y2="130.66666666666669" stroke="#b0b0b0"/><text x="58" y="134.66666666666669" font-size="10" text-anchor="end" fill="#888">1e4</text><line x1="64" y1="82.33333333333331" x2="570" y2="82.33333333333331" stroke="#b0b0b0"/><text x="58" y="86.33333333333331" font-size="10" text-anchor="end" fill="#888">1e5</text><line x1="64" y1="34" x2="570" y2="34" stroke="#b0b0b0"/><text x="58" y="38" font-size="10" text-anchor="end" fill="#888">1e6</text><text x="64.0" y="327.2" font-size="4" text-anchor="end" fill="#aa4400" transform="rotate(-80 64.0 327.2)">v5.86.1</text><text x="69.7" y="327.2" font-size="4" text-anchor="end" fill="#aa4400" transform="rotate(-80 69.7 327.2)">v5.90.0</text><text x="75.4" y="327.2" font-size="4" text-anchor="end" fill="#aa4400" transform="rotate(-80 75.4 327.2)">v5.110.1</text><text x="81.1" y="327.2" font-size="4" text-anchor="end" fill="#aa4400" transform="rotate(-80 81.1 327.2)">v5.120.0</text><text x="86.7" y="327.2" font-size="4" text-anchor="end" fill="#aa4400" transform="rotate(-80 86.7 327.2)">v5.125.0</text><text x="92.4" y="327.2" font-size="4" text-anchor="end" fill="#aa4400" transform="rotate(-80 92.4 327.2)">v5.130.0</text><text x="98.1" y="327.2" font-size="4" text-anchor="end" fill="#aa4400" transform="rotate(-80 98.1 327.2)">v5.131.0</text><text x="103.8" y="327.2" font-size="4" text-anchor="end" fill="#aa4400" transform="rotate(-80 103.8 327.2)">v5.132.0</text><text x="109.5" y="327.2" font-size="4" text-anchor="end" fill="#aa4400" transform="rotate(-80 109.5 327.2)">v5.133.0</text><text x="115.2" y="327.2" font-size="4" text-anchor="end" fill="#aa4400" transform="rotate(-80 115.2 327.2)">v5.134.0</text><text x="120.9" y="327.2" font-size="4" text-anchor="end" fill="#aa4400" transform="rotate(-80 120.9 327.2)">v5.135.0</text><text x="126.5" y="327.2" font-size="4" text-anchor="end" fill="#aa4400" transform="rotate(-80 126.5 327.2)">v5.136.0</text><text x="132.2" y="327.2" font-size="4" text-anchor="end" fill="#aa4400" transform="rotate(-80 132.2 327.2)">v5.137.0</text><text x="137.9" y="327.2" font-size="4" text-anchor="end" fill="#aa4400" transform="rotate(-80 137.9 327.2)">v5.138.0</text><text x="143.6" y="327.2" font-size="4" text-anchor="end" fill="#aa4400" transform="rotate(-80 143.6 327.2)">v5.139.0</text><text x="149.3" y="327.2" font-size="4" text-anchor="end" fill="#aa4400" transform="rotate(-80 149.3 327.2)">v5.141.0</text><text x="155.0" y="327.2" font-size="4" text-anchor="end" fill="#d6a382" transform="rotate(-80 155.0 327.2)">v5.141.1</text><text x="160.7" y="327.2" font-size="4" text-anchor="end" fill="#d6a382" transform="rotate(-80 160.7 327.2)">v5.141.2</text><text x="166.3" y="327.2" font-size="4" text-anchor="end" fill="#d6a382" transform="rotate(-80 166.3 327.2)">v5.141.3</text><text x="172.0" y="327.2" font-size="4" text-anchor="end" fill="#d6a382" transform="rotate(-80 172.0 327.2)">v5.141.4</text><text x="177.7" y="327.2" font-size="4" text-anchor="end" fill="#d6a382" transform="rotate(-80 177.7 327.2)">v5.141.5</text><text x="183.4" y="327.2" font-size="4" text-anchor="end" fill="#d6a382" transform="rotate(-80 183.4 327.2)">v5.141.6</text><text x="189.1" y="327.2" font-size="4" text-anchor="end" fill="#d6a382" transform="rotate(-80 189.1 327.2)">v5.141.8</text><text x="194.8" y="327.2" font-size="4" text-anchor="end" fill="#d6a382" transform="rotate(-80 194.8 327.2)">v5.141.9</text><text x="200.4" y="327.2" font-size="4" text-anchor="end" fill="#d6a382" transform="rotate(-80 200.4 327.2)">v5.141.10</text><text x="206.1" y="327.2" font-size="4" text-anchor="end" fill="#d6a382" transform="rotate(-80 206.1 327.2)">v5.141.11</text><text x="211.8" y="327.2" font-size="4" text-anchor="end" fill="#d6a382" transform="rotate(-80 211.8 327.2)">v5.141.12</text><text x="217.5" y="327.2" font-size="4" text-anchor="end" fill="#d6a382" transform="rotate(-80 217.5 327.2)">v5.141.13</text><text x="223.2" y="327.2" font-size="4" text-anchor="end" fill="#d6a382" transform="rotate(-80 223.2 327.2)">v5.141.14</text><text x="228.9" y="327.2" font-size="4" text-anchor="end" fill="#aa4400" transform="rotate(-80 228.9 327.2)">v5.142.0</text><text x="234.6" y="327.2" font-size="4" text-anchor="end" fill="#d6a382" transform="rotate(-80 234.6 327.2)">v5.142.1</text><text x="240.2" y="327.2" font-size="4" text-anchor="end" fill="#d6a382" transform="rotate(-80 240.2 327.2)">v5.142.2</text><text x="245.9" y="327.2" font-size="4" text-anchor="end" fill="#d6a382" transform="rotate(-80 245.9 327.2)">v5.142.3</text><text x="251.6" y="327.2" font-size="4" text-anchor="end" fill="#d6a382" transform="rotate(-80 251.6 327.2)">v5.142.4</text><text x="257.3" y="327.2" font-size="4" text-anchor="end" fill="#aa4400" transform="rotate(-80 257.3 327.2)">v5.143.0</text><text x="263.0" y="327.2" font-size="4" text-anchor="end" fill="#d6a382" transform="rotate(-80 263.0 327.2)">v5.143.1</text><text x="268.7" y="327.2" font-size="4" text-anchor="end" fill="#d6a382" transform="rotate(-80 268.7 327.2)">v5.143.2</text><text x="274.4" y="327.2" font-size="4" text-anchor="end" fill="#d6a382" transform="rotate(-80 274.4 327.2)">v5.143.3</text><text x="280.0" y="327.2" font-size="4" text-anchor="end" fill="#d6a382" transform="rotate(-80 280.0 327.2)">v5.143.4</text><text x="285.7" y="327.2" font-size="4" text-anchor="end" fill="#d6a382" transform="rotate(-80 285.7 327.2)">v5.143.5</text><text x="291.4" y="327.2" font-size="4" text-anchor="end" fill="#d6a382" transform="rotate(-80 291.4 327.2)">v5.143.6</text><text x="297.1" y="327.2" font-size="4" text-anchor="end" fill="#d6a382" transform="rotate(-80 297.1 327.2)">v5.143.7</text><text x="302.8" y="327.2" font-size="4" text-anchor="end" fill="#d6a382" transform="rotate(-80 302.8 327.2)">v5.143.8</text><text x="308.5" y="327.2" font-size="4" text-anchor="end" fill="#d6a382" transform="rotate(-80 308.5 327.2)">v5.143.9</text><text x="314.2" y="327.2" font-size="4" text-anchor="end" fill="#d6a382" transform="rotate(-80 314.2 327.2)">v5.143.10</text><text x="319.8" y="327.2" font-size="4" text-anchor="end" fill="#d6a382" transform="rotate(-80 319.8 327.2)">v5.143.11</text><text x="325.5" y="327.2" font-size="4" text-anchor="end" fill="#d6a382" transform="rotate(-80 325.5 327.2)">v5.143.12</text><text x="331.2" y="327.2" font-size="4" text-anchor="end" fill="#d6a382" transform="rotate(-80 331.2 327.2)">v5.143.15</text><text x="336.9" y="327.2" font-size="4" text-anchor="end" fill="#d6a382" transform="rotate(-80 336.9 327.2)">v5.143.16</text><text x="342.6" y="327.2" font-size="4" text-anchor="end" fill="#d6a382" transform="rotate(-80 342.6 327.2)">v5.143.20</text><text x="348.3" y="327.2" font-size="4" text-anchor="end" fill="#d6a382" transform="rotate(-80 348.3 327.2)">v5.143.21</text><text x="354.0" y="327.2" font-size="4" text-anchor="end" fill="#d6a382" transform="rotate(-80 354.0 327.2)">v5.143.22</text><text x="359.6" y="327.2" font-size="4" text-anchor="end" fill="#d6a382" transform="rotate(-80 359.6 327.2)">v5.143.23</text><text x="365.3" y="327.2" font-size="4" text-anchor="end" fill="#d6a382" transform="rotate(-80 365.3 327.2)">v5.143.24</text><text x="371.0" y="327.2" font-size="4" text-anchor="end" fill="#d6a382" transform="rotate(-80 371.0 327.2)">v5.143.25</text><text x="376.7" y="327.2" font-size="4" text-anchor="end" fill="#d6a382" transform="rotate(-80 376.7 327.2)">v5.143.26</text><text x="382.4" y="327.2" font-size="4" text-anchor="end" fill="#d6a382" transform="rotate(-80 382.4 327.2)">v5.143.27</text><text x="388.1" y="327.2" font-size="4" text-anchor="end" fill="#d6a382" transform="rotate(-80 388.1 327.2)">v5.143.28</text><text x="393.8" y="327.2" font-size="4" text-anchor="end" fill="#d6a382" transform="rotate(-80 393.8 327.2)">v5.143.29</text><text x="399.4" y="327.2" font-size="4" text-anchor="end" fill="#d6a382" transform="rotate(-80 399.4 327.2)">v5.143.30</text><text x="405.1" y="327.2" font-size="4" text-anchor="end" fill="#d6a382" transform="rotate(-80 405.1 327.2)">v5.143.31</text><text x="410.8" y="327.2" font-size="4" text-anchor="end" fill="#d6a382" transform="rotate(-80 410.8 327.2)">v5.143.33</text><text x="416.5" y="327.2" font-size="4" text-anchor="end" fill="#d6a382" transform="rotate(-80 416.5 327.2)">v5.143.34</text><text x="422.2" y="327.2" font-size="4" text-anchor="end" fill="#d6a382" transform="rotate(-80 422.2 327.2)">v5.143.35</text><text x="427.9" y="327.2" font-size="4" text-anchor="end" fill="#aa4400" transform="rotate(-80 427.9 327.2)">v5.144.0</text><text x="433.6" y="327.2" font-size="4" text-anchor="end" fill="#d6a382" transform="rotate(-80 433.6 327.2)">v5.144.1</text><text x="439.2" y="327.2" font-size="4" text-anchor="end" fill="#d6a382" transform="rotate(-80 439.2 327.2)">v5.144.2</text><text x="444.9" y="327.2" font-size="4" text-anchor="end" fill="#d6a382" transform="rotate(-80 444.9 327.2)">v5.144.3</text><text x="450.6" y="327.2" font-size="4" text-anchor="end" fill="#d6a382" transform="rotate(-80 450.6 327.2)">v5.144.4</text><text x="456.3" y="327.2" font-size="4" text-anchor="end" fill="#d6a382" transform="rotate(-80 456.3 327.2)">v5.144.5</text><text x="462.0" y="327.2" font-size="4" text-anchor="end" fill="#d6a382" transform="rotate(-80 462.0 327.2)">v5.144.7</text><text x="467.7" y="327.2" font-size="4" text-anchor="end" fill="#d6a382" transform="rotate(-80 467.7 327.2)">v5.144.8</text><text x="473.3" y="327.2" font-size="4" text-anchor="end" fill="#aa4400" transform="rotate(-80 473.3 327.2)">v5.145.0</text><text x="479.0" y="327.2" font-size="4" text-anchor="end" fill="#d6a382" transform="rotate(-80 479.0 327.2)">v5.145.1</text><text x="484.7" y="327.2" font-size="4" text-anchor="end" fill="#d6a382" transform="rotate(-80 484.7 327.2)">v5.145.2</text><text x="490.4" y="327.2" font-size="4" text-anchor="end" fill="#d6a382" transform="rotate(-80 490.4 327.2)">v5.145.3</text><text x="496.1" y="327.2" font-size="4" text-anchor="end" fill="#d6a382" transform="rotate(-80 496.1 327.2)">v5.145.4</text><text x="501.8" y="327.2" font-size="4" text-anchor="end" fill="#d6a382" transform="rotate(-80 501.8 327.2)">v5.145.6</text><text x="507.5" y="327.2" font-size="4" text-anchor="end" fill="#aa4400" transform="rotate(-80 507.5 327.2)">v5.146.0</text><text x="513.1" y="327.2" font-size="4" text-anchor="end" fill="#aa4400" transform="rotate(-80 513.1 327.2)">v5.147.0</text><text x="518.8" y="327.2" font-size="4" text-anchor="end" fill="#d6a382" transform="rotate(-80 518.8 327.2)">v5.147.1</text><text x="524.5" y="327.2" font-size="4" text-anchor="end" fill="#d6a382" transform="rotate(-80 524.5 327.2)">v5.147.2</text><text x="530.2" y="327.2" font-size="4" text-anchor="end" fill="#d6a382" transform="rotate(-80 530.2 327.2)">v5.147.3</text><text x="535.9" y="327.2" font-size="4" text-anchor="end" fill="#d6a382" transform="rotate(-80 535.9 327.2)">v5.147.4</text><text x="541.6" y="327.2" font-size="4" text-anchor="end" fill="#d6a382" transform="rotate(-80 541.6 327.2)">v5.147.5</text><text x="547.3" y="327.2" font-size="4" text-anchor="end" fill="#d6a382" transform="rotate(-80 547.3 327.2)">v5.147.6</text><text x="552.9" y="327.2" font-size="4" text-anchor="end" fill="#d6a382" transform="rotate(-80 552.9 327.2)">v5.147.7</text><text x="558.6" y="327.2" font-size="4" text-anchor="end" fill="#d6a382" transform="rotate(-80 558.6 327.2)">v5.147.8</text><text x="564.3" y="327.2" font-size="4" text-anchor="end" fill="#d6a382" transform="rotate(-80 564.3 327.2)">v5.147.9</text><text x="570.0" y="327.2" font-size="4" text-anchor="end" fill="#d6a382" transform="rotate(-80 570.0 327.2)">v5.147.10</text><path d="M64.0,80.1 L69.7,80.7 L75.4,80.2 L81.1,79.8 L86.7,79.8 L444.9,73.7 L450.6,74.3 L456.3,73.0 L462.0,73.7 L467.7,73.4 L473.3,73.6 L479.0,74.1 L484.7,73.8 L490.4,72.8 L496.1,72.9 L501.8,74.0 L507.5,74.5 L513.1,73.8 L518.8,73.0 L524.5,73.8 L530.2,74.8 L535.9,73.2 L541.6,73.0 L547.3,73.4 L552.9,74.9 L558.6,73.5 L564.3,73.5 L570.0,72.9" fill="none" stroke="#4477AA" stroke-width="1.6"/><circle cx="64.0" cy="80.1" r="2" fill="#4477AA"/><circle cx="69.7" cy="80.7" r="2" fill="#4477AA"/><circle cx="75.4" cy="80.2" r="2" fill="#4477AA"/><circle cx="81.1" cy="79.8" r="2" fill="#4477AA"/><circle cx="86.7" cy="79.8" r="2" fill="#4477AA"/><circle cx="444.9" cy="73.7" r="2" fill="#4477AA"/><circle cx="450.6" cy="74.3" r="2" fill="#4477AA"/><circle cx="456.3" cy="73.0" r="2" fill="#4477AA"/><circle cx="462.0" cy="73.7" r="2" fill="#4477AA"/><circle cx="467.7" cy="73.4" r="2" fill="#4477AA"/><circle cx="473.3" cy="73.6" r="2" fill="#4477AA"/><circle cx="479.0" cy="74.1" r="2" fill="#4477AA"/><circle cx="484.7" cy="73.8" r="2" fill="#4477AA"/><circle cx="490.4" cy="72.8" r="2" fill="#4477AA"/><circle cx="496.1" cy="72.9" r="2" fill="#4477AA"/><circle cx="501.8" cy="74.0" r="2" fill="#4477AA"/><circle cx="507.5" cy="74.5" r="2" fill="#4477AA"/><circle cx="513.1" cy="73.8" r="2" fill="#4477AA"/><circle cx="518.8" cy="73.0" r="2" fill="#4477AA"/><circle cx="524.5" cy="73.8" r="2" fill="#4477AA"/><circle cx="530.2" cy="74.8" r="2" fill="#4477AA"/><circle cx="535.9" cy="73.2" r="2" fill="#4477AA"/><circle cx="541.6" cy="73.0" r="2" fill="#4477AA"/><circle cx="547.3" cy="73.4" r="2" fill="#4477AA"/><circle cx="552.9" cy="74.9" r="2" fill="#4477AA"/><circle cx="558.6" cy="73.5" r="2" fill="#4477AA"/><circle cx="564.3" cy="73.5" r="2" fill="#4477AA"/><circle cx="570.0" cy="72.9" r="2" fill="#4477AA"/><rect x="580" y="34" width="10" height="10" fill="#4477AA"/><text x="594" y="43" font-size="10" fill="#444">chain-10</text><path d="M64.0,80.8 L69.7,81.1 L75.4,81.0 L81.1,80.4 L86.7,80.9 L444.9,73.6 L450.6,75.5 L456.3,73.5 L462.0,74.7 L467.7,73.8 L473.3,74.0 L479.0,74.4 L484.7,74.4 L490.4,73.6 L496.1,74.5 L501.8,74.7 L507.5,75.4 L513.1,74.4 L518.8,74.5 L524.5,73.8 L530.2,75.2 L535.9,74.1 L541.6,74.2 L547.3,74.9 L552.9,75.3 L558.6,73.7 L564.3,74.0 L570.0,74.1" fill="none" stroke="#EE6677" stroke-width="1.6"/><circle cx="64.0" cy="80.8" r="2" fill="#EE6677"/><circle cx="69.7" cy="81.1" r="2" fill="#EE6677"/><circle cx="75.4" cy="81.0" r="2" fill="#EE6677"/><circle cx="81.1" cy="80.4" r="2" fill="#EE6677"/><circle cx="86.7" cy="80.9" r="2" fill="#EE6677"/><circle cx="444.9" cy="73.6" r="2" fill="#EE6677"/><circle cx="450.6" cy="75.5" r="2" fill="#EE6677"/><circle cx="456.3" cy="73.5" r="2" fill="#EE6677"/><circle cx="462.0" cy="74.7" r="2" fill="#EE6677"/><circle cx="467.7" cy="73.8" r="2" fill="#EE6677"/><circle cx="473.3" cy="74.0" r="2" fill="#EE6677"/><circle cx="479.0" cy="74.4" r="2" fill="#EE6677"/><circle cx="484.7" cy="74.4" r="2" fill="#EE6677"/><circle cx="490.4" cy="73.6" r="2" fill="#EE6677"/><circle cx="496.1" cy="74.5" r="2" fill="#EE6677"/><circle cx="501.8" cy="74.7" r="2" fill="#EE6677"/><circle cx="507.5" cy="75.4" r="2" fill="#EE6677"/><circle cx="513.1" cy="74.4" r="2" fill="#EE6677"/><circle cx="518.8" cy="74.5" r="2" fill="#EE6677"/><circle cx="524.5" cy="73.8" r="2" fill="#EE6677"/><circle cx="530.2" cy="75.2" r="2" fill="#EE6677"/><circle cx="535.9" cy="74.1" r="2" fill="#EE6677"/><circle cx="541.6" cy="74.2" r="2" fill="#EE6677"/><circle cx="547.3" cy="74.9" r="2" fill="#EE6677"/><circle cx="552.9" cy="75.3" r="2" fill="#EE6677"/><circle cx="558.6" cy="73.7" r="2" fill="#EE6677"/><circle cx="564.3" cy="74.0" r="2" fill="#EE6677"/><circle cx="570.0" cy="74.1" r="2" fill="#EE6677"/><rect x="580" y="49" width="10" height="10" fill="#EE6677"/><text x="594" y="58" font-size="10" fill="#444">chain-50</text><path d="M64.0,81.4 L69.7,81.4 L75.4,81.1 L81.1,80.9 L86.7,81.1 L444.9,74.2 L450.6,76.4 L456.3,74.2 L462.0,75.1 L467.7,74.1 L473.3,74.3 L479.0,74.5 L484.7,74.4 L490.4,73.8 L496.1,74.4 L501.8,75.0 L507.5,75.7 L513.1,74.1 L518.8,74.8 L524.5,74.2 L530.2,76.0 L535.9,74.3 L541.6,75.1 L547.3,76.0 L552.9,75.9 L558.6,74.2 L564.3,74.5 L570.0,74.1" fill="none" stroke="#228833" stroke-width="1.6"/><circle cx="64.0" cy="81.4" r="2" fill="#228833"/><circle cx="69.7" cy="81.4" r="2" fill="#228833"/><circle cx="75.4" cy="81.1" r="2" fill="#228833"/><circle cx="81.1" cy="80.9" r="2" fill="#228833"/><circle cx="86.7" cy="81.1" r="2" fill="#228833"/><circle cx="444.9" cy="74.2" r="2" fill="#228833"/><circle cx="450.6" cy="76.4" r="2" fill="#228833"/><circle cx="456.3" cy="74.2" r="2" fill="#228833"/><circle cx="462.0" cy="75.1" r="2" fill="#228833"/><circle cx="467.7" cy="74.1" r="2" fill="#228833"/><circle cx="473.3" cy="74.3" r="2" fill="#228833"/><circle cx="479.0" cy="74.5" r="2" fill="#228833"/><circle cx="484.7" cy="74.4" r="2" fill="#228833"/><circle cx="490.4" cy="73.8" r="2" fill="#228833"/><circle cx="496.1" cy="74.4" r="2" fill="#228833"/><circle cx="501.8" cy="75.0" r="2" fill="#228833"/><circle cx="507.5" cy="75.7" r="2" fill="#228833"/><circle cx="513.1" cy="74.1" r="2" fill="#228833"/><circle cx="518.8" cy="74.8" r="2" fill="#228833"/><circle cx="524.5" cy="74.2" r="2" fill="#228833"/><circle cx="530.2" cy="76.0" r="2" fill="#228833"/><circle cx="535.9" cy="74.3" r="2" fill="#228833"/><circle cx="541.6" cy="75.1" r="2" fill="#228833"/><circle cx="547.3" cy="76.0" r="2" fill="#228833"/><circle cx="552.9" cy="75.9" r="2" fill="#228833"/><circle cx="558.6" cy="74.2" r="2" fill="#228833"/><circle cx="564.3" cy="74.5" r="2" fill="#228833"/><circle cx="570.0" cy="74.1" r="2" fill="#228833"/><rect x="580" y="64" width="10" height="10" fill="#228833"/><text x="594" y="73" font-size="10" fill="#444">chain-200</text><path d="M64.0,82.6 L69.7,82.8 L75.4,82.2 L81.1,82.2 L86.7,82.0 L444.9,75.0 L450.6,77.2 L456.3,74.9 L462.0,75.7 L467.7,74.9 L473.3,75.0 L479.0,75.3 L484.7,75.5 L490.4,74.9 L496.1,75.0 L501.8,76.2 L507.5,76.5 L513.1,75.3 L518.8,76.0 L524.5,75.2 L530.2,77.5 L535.9,75.8 L541.6,75.5 L547.3,77.0 L552.9,76.5 L558.6,75.4 L564.3,75.3 L570.0,75.5" fill="none" stroke="#CCBB44" stroke-width="1.6"/><circle cx="64.0" cy="82.6" r="2" fill="#CCBB44"/><circle cx="69.7" cy="82.8" r="2" fill="#CCBB44"/><circle cx="75.4" cy="82.2" r="2" fill="#CCBB44"/><circle cx="81.1" cy="82.2" r="2" fill="#CCBB44"/><circle cx="86.7" cy="82.0" r="2" fill="#CCBB44"/><circle cx="444.9" cy="75.0" r="2" fill="#CCBB44"/><circle cx="450.6" cy="77.2" r="2" fill="#CCBB44"/><circle cx="456.3" cy="74.9" r="2" fill="#CCBB44"/><circle cx="462.0" cy="75.7" r="2" fill="#CCBB44"/><circle cx="467.7" cy="74.9" r="2" fill="#CCBB44"/><circle cx="473.3" cy="75.0" r="2" fill="#CCBB44"/><circle cx="479.0" cy="75.3" r="2" fill="#CCBB44"/><circle cx="484.7" cy="75.5" r="2" fill="#CCBB44"/><circle cx="490.4" cy="74.9" r="2" fill="#CCBB44"/><circle cx="496.1" cy="75.0" r="2" fill="#CCBB44"/><circle cx="501.8" cy="76.2" r="2" fill="#CCBB44"/><circle cx="507.5" cy="76.5" r="2" fill="#CCBB44"/><circle cx="513.1" cy="75.3" r="2" fill="#CCBB44"/><circle cx="518.8" cy="76.0" r="2" fill="#CCBB44"/><circle cx="524.5" cy="75.2" r="2" fill="#CCBB44"/><circle cx="530.2" cy="77.5" r="2" fill="#CCBB44"/><circle cx="535.9" cy="75.8" r="2" fill="#CCBB44"/><circle cx="541.6" cy="75.5" r="2" fill="#CCBB44"/><circle cx="547.3" cy="77.0" r="2" fill="#CCBB44"/><circle cx="552.9" cy="76.5" r="2" fill="#CCBB44"/><circle cx="558.6" cy="75.4" r="2" fill="#CCBB44"/><circle cx="564.3" cy="75.3" r="2" fill="#CCBB44"/><circle cx="570.0" cy="75.5" r="2" fill="#CCBB44"/><rect x="580" y="79" width="10" height="10" fill="#CCBB44"/><text x="594" y="88" font-size="10" fill="#444">chain-1000</text><path d="M64.0,99.9 L69.7,100.3 L75.4,100.5 L81.1,100.0 L86.7,100.3 L444.9,98.8 L450.6,102.3 L456.3,99.0 L462.0,100.0 L467.7,99.4 L473.3,99.6 L479.0,100.1 L484.7,99.8 L490.4,99.0 L496.1,99.5 L501.8,100.3 L507.5,101.7 L513.1,99.1 L518.8,99.9 L524.5,99.0 L530.2,102.1 L535.9,99.6 L541.6,99.9 L547.3,100.3 L552.9,101.8 L558.6,99.1 L564.3,99.3 L570.0,99.4" fill="none" stroke="#66CCEE" stroke-width="1.6"/><circle cx="64.0" cy="99.9" r="2" fill="#66CCEE"/><circle cx="69.7" cy="100.3" r="2" fill="#66CCEE"/><circle cx="75.4" cy="100.5" r="2" fill="#66CCEE"/><circle cx="81.1" cy="100.0" r="2" fill="#66CCEE"/><circle cx="86.7" cy="100.3" r="2" fill="#66CCEE"/><circle cx="444.9" cy="98.8" r="2" fill="#66CCEE"/><circle cx="450.6" cy="102.3" r="2" fill="#66CCEE"/><circle cx="456.3" cy="99.0" r="2" fill="#66CCEE"/><circle cx="462.0" cy="100.0" r="2" fill="#66CCEE"/><circle cx="467.7" cy="99.4" r="2" fill="#66CCEE"/><circle cx="473.3" cy="99.6" r="2" fill="#66CCEE"/><circle cx="479.0" cy="100.1" r="2" fill="#66CCEE"/><circle cx="484.7" cy="99.8" r="2" fill="#66CCEE"/><circle cx="490.4" cy="99.0" r="2" fill="#66CCEE"/><circle cx="496.1" cy="99.5" r="2" fill="#66CCEE"/><circle cx="501.8" cy="100.3" r="2" fill="#66CCEE"/><circle cx="507.5" cy="101.7" r="2" fill="#66CCEE"/><circle cx="513.1" cy="99.1" r="2" fill="#66CCEE"/><circle cx="518.8" cy="99.9" r="2" fill="#66CCEE"/><circle cx="524.5" cy="99.0" r="2" fill="#66CCEE"/><circle cx="530.2" cy="102.1" r="2" fill="#66CCEE"/><circle cx="535.9" cy="99.6" r="2" fill="#66CCEE"/><circle cx="541.6" cy="99.9" r="2" fill="#66CCEE"/><circle cx="547.3" cy="100.3" r="2" fill="#66CCEE"/><circle cx="552.9" cy="101.8" r="2" fill="#66CCEE"/><circle cx="558.6" cy="99.1" r="2" fill="#66CCEE"/><circle cx="564.3" cy="99.3" r="2" fill="#66CCEE"/><circle cx="570.0" cy="99.4" r="2" fill="#66CCEE"/><rect x="580" y="94" width="10" height="10" fill="#66CCEE"/><text x="594" y="103" font-size="10" fill="#444">dense-10</text><path d="M64.0,136.4 L69.7,136.3 L75.4,136.1 L81.1,135.9 L86.7,136.4 L444.9,133.8 L450.6,138.2 L456.3,133.9 L462.0,135.5 L467.7,133.9 L473.3,135.0 L479.0,134.5 L484.7,135.4 L490.4,134.1 L496.1,134.4 L501.8,135.4 L507.5,137.1 L513.1,134.0 L518.8,135.4 L524.5,134.6 L530.2,137.8 L535.9,134.9 L541.6,135.2 L547.3,136.2 L552.9,137.9 L558.6,133.8 L564.3,134.7 L570.0,134.3" fill="none" stroke="#AA3377" stroke-width="1.6"/><circle cx="64.0" cy="136.4" r="2" fill="#AA3377"/><circle cx="69.7" cy="136.3" r="2" fill="#AA3377"/><circle cx="75.4" cy="136.1" r="2" fill="#AA3377"/><circle cx="81.1" cy="135.9" r="2" fill="#AA3377"/><circle cx="86.7" cy="136.4" r="2" fill="#AA3377"/><circle cx="444.9" cy="133.8" r="2" fill="#AA3377"/><circle cx="450.6" cy="138.2" r="2" fill="#AA3377"/><circle cx="456.3" cy="133.9" r="2" fill="#AA3377"/><circle cx="462.0" cy="135.5" r="2" fill="#AA3377"/><circle cx="467.7" cy="133.9" r="2" fill="#AA3377"/><circle cx="473.3" cy="135.0" r="2" fill="#AA3377"/><circle cx="479.0" cy="134.5" r="2" fill="#AA3377"/><circle cx="484.7" cy="135.4" r="2" fill="#AA3377"/><circle cx="490.4" cy="134.1" r="2" fill="#AA3377"/><circle cx="496.1" cy="134.4" r="2" fill="#AA3377"/><circle cx="501.8" cy="135.4" r="2" fill="#AA3377"/><circle cx="507.5" cy="137.1" r="2" fill="#AA3377"/><circle cx="513.1" cy="134.0" r="2" fill="#AA3377"/><circle cx="518.8" cy="135.4" r="2" fill="#AA3377"/><circle cx="524.5" cy="134.6" r="2" fill="#AA3377"/><circle cx="530.2" cy="137.8" r="2" fill="#AA3377"/><circle cx="535.9" cy="134.9" r="2" fill="#AA3377"/><circle cx="541.6" cy="135.2" r="2" fill="#AA3377"/><circle cx="547.3" cy="136.2" r="2" fill="#AA3377"/><circle cx="552.9" cy="137.9" r="2" fill="#AA3377"/><circle cx="558.6" cy="133.8" r="2" fill="#AA3377"/><circle cx="564.3" cy="134.7" r="2" fill="#AA3377"/><circle cx="570.0" cy="134.3" r="2" fill="#AA3377"/><rect x="580" y="109" width="10" height="10" fill="#AA3377"/><text x="594" y="118" font-size="10" fill="#444">dense-50</text><path d="M64.0,165.7 L69.7,166.7 L75.4,166.3 L81.1,165.1 L86.7,166.1 L444.9,167.3 L450.6,171.8 L456.3,167.7 L462.0,180.8 L467.7,175.4 L473.3,167.3 L479.0,173.9 L484.7,167.3 L490.4,164.1 L496.1,168.7 L501.8,169.3 L507.5,171.6 L513.1,172.6 L518.8,170.6 L524.5,176.6 L530.2,178.0 L535.9,170.8 L541.6,171.2 L547.3,173.5 L552.9,171.5 L558.6,175.4 L564.3,166.7 L570.0,167.8" fill="none" stroke="#BBBBBB" stroke-width="1.6"/><circle cx="64.0" cy="165.7" r="2" fill="#BBBBBB"/><circle cx="69.7" cy="166.7" r="2" fill="#BBBBBB"/><circle cx="75.4" cy="166.3" r="2" fill="#BBBBBB"/><circle cx="81.1" cy="165.1" r="2" fill="#BBBBBB"/><circle cx="86.7" cy="166.1" r="2" fill="#BBBBBB"/><circle cx="444.9" cy="167.3" r="2" fill="#BBBBBB"/><circle cx="450.6" cy="171.8" r="2" fill="#BBBBBB"/><circle cx="456.3" cy="167.7" r="2" fill="#BBBBBB"/><circle cx="462.0" cy="180.8" r="2" fill="#BBBBBB"/><circle cx="467.7" cy="175.4" r="2" fill="#BBBBBB"/><circle cx="473.3" cy="167.3" r="2" fill="#BBBBBB"/><circle cx="479.0" cy="173.9" r="2" fill="#BBBBBB"/><circle cx="484.7" cy="167.3" r="2" fill="#BBBBBB"/><circle cx="490.4" cy="164.1" r="2" fill="#BBBBBB"/><circle cx="496.1" cy="168.7" r="2" fill="#BBBBBB"/><circle cx="501.8" cy="169.3" r="2" fill="#BBBBBB"/><circle cx="507.5" cy="171.6" r="2" fill="#BBBBBB"/><circle cx="513.1" cy="172.6" r="2" fill="#BBBBBB"/><circle cx="518.8" cy="170.6" r="2" fill="#BBBBBB"/><circle cx="524.5" cy="176.6" r="2" fill="#BBBBBB"/><circle cx="530.2" cy="178.0" r="2" fill="#BBBBBB"/><circle cx="535.9" cy="170.8" r="2" fill="#BBBBBB"/><circle cx="541.6" cy="171.2" r="2" fill="#BBBBBB"/><circle cx="547.3" cy="173.5" r="2" fill="#BBBBBB"/><circle cx="552.9" cy="171.5" r="2" fill="#BBBBBB"/><circle cx="558.6" cy="175.4" r="2" fill="#BBBBBB"/><circle cx="564.3" cy="166.7" r="2" fill="#BBBBBB"/><circle cx="570.0" cy="167.8" r="2" fill="#BBBBBB"/><rect x="580" y="124" width="10" height="10" fill="#BBBBBB"/><text x="594" y="133" font-size="10" fill="#444">dense-200</text><path d="M64.0,121.9 L69.7,122.1 L75.4,122.2 L81.1,121.8 L86.7,122.3 L444.9,119.4 L450.6,122.9 L456.3,119.2 L462.0,120.4 L467.7,119.1 L473.3,119.8 L479.0,120.0 L484.7,120.5 L490.4,119.3 L496.1,120.5 L501.8,120.6 L507.5,121.9 L513.1,119.4 L518.8,120.7 L524.5,119.3 L530.2,122.7 L535.9,120.1 L541.6,120.6 L547.3,121.0 L552.9,121.8 L558.6,119.6 L564.3,120.2 L570.0,119.9" fill="none" stroke="#222255" stroke-width="1.6"/><circle cx="64.0" cy="121.9" r="2" fill="#222255"/><circle cx="69.7" cy="122.1" r="2" fill="#222255"/><circle cx="75.4" cy="122.2" r="2" fill="#222255"/><circle cx="81.1" cy="121.8" r="2" fill="#222255"/><circle cx="86.7" cy="122.3" r="2" fill="#222255"/><circle cx="444.9" cy="119.4" r="2" fill="#222255"/><circle cx="450.6" cy="122.9" r="2" fill="#222255"/><circle cx="456.3" cy="119.2" r="2" fill="#222255"/><circle cx="462.0" cy="120.4" r="2" fill="#222255"/><circle cx="467.7" cy="119.1" r="2" fill="#222255"/><circle cx="473.3" cy="119.8" r="2" fill="#222255"/><circle cx="479.0" cy="120.0" r="2" fill="#222255"/><circle cx="484.7" cy="120.5" r="2" fill="#222255"/><circle cx="490.4" cy="119.3" r="2" fill="#222255"/><circle cx="496.1" cy="120.5" r="2" fill="#222255"/><circle cx="501.8" cy="120.6" r="2" fill="#222255"/><circle cx="507.5" cy="121.9" r="2" fill="#222255"/><circle cx="513.1" cy="119.4" r="2" fill="#222255"/><circle cx="518.8" cy="120.7" r="2" fill="#222255"/><circle cx="524.5" cy="119.3" r="2" fill="#222255"/><circle cx="530.2" cy="122.7" r="2" fill="#222255"/><circle cx="535.9" cy="120.1" r="2" fill="#222255"/><circle cx="541.6" cy="120.6" r="2" fill="#222255"/><circle cx="547.3" cy="121.0" r="2" fill="#222255"/><circle cx="552.9" cy="121.8" r="2" fill="#222255"/><circle cx="558.6" cy="119.6" r="2" fill="#222255"/><circle cx="564.3" cy="120.2" r="2" fill="#222255"/><circle cx="570.0" cy="119.9" r="2" fill="#222255"/><rect x="580" y="139" width="10" height="10" fill="#222255"/><text x="594" y="148" font-size="10" fill="#444">hub-50</text><path d="M64.0,149.6 L69.7,149.7 L75.4,149.6 L81.1,149.3 L86.7,149.2 L444.9,147.4 L450.6,152.0 L456.3,147.7 L462.0,149.5 L467.7,147.7 L473.3,148.2 L479.0,148.3 L484.7,149.1 L490.4,147.7 L496.1,148.3 L501.8,149.4 L507.5,151.4 L513.1,147.6 L518.8,149.2 L524.5,148.0 L530.2,152.6 L535.9,148.5 L541.6,149.0 L547.3,149.9 L552.9,151.8 L558.6,147.6 L564.3,148.3 L570.0,148.4" fill="none" stroke="#225555" stroke-width="1.6"/><circle cx="64.0" cy="149.6" r="2" fill="#225555"/><circle cx="69.7" cy="149.7" r="2" fill="#225555"/><circle cx="75.4" cy="149.6" r="2" fill="#225555"/><circle cx="81.1" cy="149.3" r="2" fill="#225555"/><circle cx="86.7" cy="149.2" r="2" fill="#225555"/><circle cx="444.9" cy="147.4" r="2" fill="#225555"/><circle cx="450.6" cy="152.0" r="2" fill="#225555"/><circle cx="456.3" cy="147.7" r="2" fill="#225555"/><circle cx="462.0" cy="149.5" r="2" fill="#225555"/><circle cx="467.7" cy="147.7" r="2" fill="#225555"/><circle cx="473.3" cy="148.2" r="2" fill="#225555"/><circle cx="479.0" cy="148.3" r="2" fill="#225555"/><circle cx="484.7" cy="149.1" r="2" fill="#225555"/><circle cx="490.4" cy="147.7" r="2" fill="#225555"/><circle cx="496.1" cy="148.3" r="2" fill="#225555"/><circle cx="501.8" cy="149.4" r="2" fill="#225555"/><circle cx="507.5" cy="151.4" r="2" fill="#225555"/><circle cx="513.1" cy="147.6" r="2" fill="#225555"/><circle cx="518.8" cy="149.2" r="2" fill="#225555"/><circle cx="524.5" cy="148.0" r="2" fill="#225555"/><circle cx="530.2" cy="152.6" r="2" fill="#225555"/><circle cx="535.9" cy="148.5" r="2" fill="#225555"/><circle cx="541.6" cy="149.0" r="2" fill="#225555"/><circle cx="547.3" cy="149.9" r="2" fill="#225555"/><circle cx="552.9" cy="151.8" r="2" fill="#225555"/><circle cx="558.6" cy="147.6" r="2" fill="#225555"/><circle cx="564.3" cy="148.3" r="2" fill="#225555"/><circle cx="570.0" cy="148.4" r="2" fill="#225555"/><rect x="580" y="154" width="10" height="10" fill="#225555"/><text x="594" y="163" font-size="10" fill="#444">hub-200</text><path d="M64.0,150.2 L69.7,149.8 L75.4,149.6 L81.1,149.2 L86.7,149.1 L444.9,147.6 L450.6,152.3 L456.3,147.7 L462.0,149.0 L467.7,147.5 L473.3,148.5 L479.0,148.8 L484.7,149.2 L490.4,147.8 L496.1,148.3 L501.8,149.4 L507.5,151.3 L513.1,147.5 L518.8,149.6 L524.5,148.5 L530.2,152.1 L535.9,148.0 L541.6,149.3 L547.3,149.9 L552.9,151.4 L558.6,148.1 L564.3,148.3 L570.0,148.1" fill="none" stroke="#552222" stroke-width="1.6"/><circle cx="64.0" cy="150.2" r="2" fill="#552222"/><circle cx="69.7" cy="149.8" r="2" fill="#552222"/><circle cx="75.4" cy="149.6" r="2" fill="#552222"/><circle cx="81.1" cy="149.2" r="2" fill="#552222"/><circle cx="86.7" cy="149.1" r="2" fill="#552222"/><circle cx="444.9" cy="147.6" r="2" fill="#552222"/><circle cx="450.6" cy="152.3" r="2" fill="#552222"/><circle cx="456.3" cy="147.7" r="2" fill="#552222"/><circle cx="462.0" cy="149.0" r="2" fill="#552222"/><circle cx="467.7" cy="147.5" r="2" fill="#552222"/><circle cx="473.3" cy="148.5" r="2" fill="#552222"/><circle cx="479.0" cy="148.8" r="2" fill="#552222"/><circle cx="484.7" cy="149.2" r="2" fill="#552222"/><circle cx="490.4" cy="147.8" r="2" fill="#552222"/><circle cx="496.1" cy="148.3" r="2" fill="#552222"/><circle cx="501.8" cy="149.4" r="2" fill="#552222"/><circle cx="507.5" cy="151.3" r="2" fill="#552222"/><circle cx="513.1" cy="147.5" r="2" fill="#552222"/><circle cx="518.8" cy="149.6" r="2" fill="#552222"/><circle cx="524.5" cy="148.5" r="2" fill="#552222"/><circle cx="530.2" cy="152.1" r="2" fill="#552222"/><circle cx="535.9" cy="148.0" r="2" fill="#552222"/><circle cx="541.6" cy="149.3" r="2" fill="#552222"/><circle cx="547.3" cy="149.9" r="2" fill="#552222"/><circle cx="552.9" cy="151.4" r="2" fill="#552222"/><circle cx="558.6" cy="148.1" r="2" fill="#552222"/><circle cx="564.3" cy="148.3" r="2" fill="#552222"/><circle cx="570.0" cy="148.1" r="2" fill="#552222"/><rect x="580" y="169" width="10" height="10" fill="#552222"/><text x="594" y="178" font-size="10" fill="#444">hooked-200</text></svg>