<svg width="720" height="372" xmlns="http://www.w3.org/2000/svg"><rect width="720" height="372" fill="#ffffff"/><text x="64" y="20" font-size="15" font-weight="bold" fill="#333">action() — ops/sec (log scale) by PR / release, c8g.medium</text><line x1="70.0" y1="34" x2="70.0" y2="324" stroke="#e8e8e8"/><line x1="75.9" y1="34" x2="75.9" y2="324" stroke="#e8e8e8"/><line x1="81.9" y1="34" x2="81.9" y2="324" stroke="#e8e8e8"/><line x1="87.8" y1="34" x2="87.8" y2="324" stroke="#e8e8e8"/><line x1="99.7" y1="34" x2="99.7" y2="324" stroke="#e8e8e8"/><line x1="105.7" y1="34" x2="105.7" y2="324" stroke="#e8e8e8"/><line x1="111.6" y1="34" x2="111.6" y2="324" stroke="#e8e8e8"/><line x1="117.6" y1="34" x2="117.6" y2="324" stroke="#e8e8e8"/><line x1="129.5" y1="34" x2="129.5" y2="324" stroke="#e8e8e8"/><line x1="135.4" y1="34" x2="135.4" y2="324" stroke="#e8e8e8"/><line x1="141.4" y1="34" x2="141.4" y2="324" stroke="#e8e8e8"/><line x1="147.3" y1="34" x2="147.3" y2="324" stroke="#e8e8e8"/><line x1="159.2" y1="34" x2="159.2" y2="324" stroke="#e8e8e8"/><line x1="165.2" y1="34" x2="165.2" y2="324" stroke="#e8e8e8"/><line x1="171.2" y1="34" x2="171.2" y2="324" stroke="#e8e8e8"/><line x1="177.1" y1="34" x2="177.1" y2="324" stroke="#e8e8e8"/><line x1="189.0" y1="34" x2="189.0" y2="324" stroke="#e8e8e8"/><line x1="195.0" y1="34" x2="195.0" y2="324" stroke="#e8e8e8"/><line x1="200.9" y1="34" x2="200.9" y2="324" stroke="#e8e8e8"/><line x1="206.9" y1="34" x2="206.9" y2="324" stroke="#e8e8e8"/><line x1="218.8" y1="34" x2="218.8" y2="324" stroke="#e8e8e8"/><line x1="224.7" y1="34" x2="224.7" y2="324" stroke="#e8e8e8"/><line x1="230.7" y1="34" x2="230.7" y2="324" stroke="#e8e8e8"/><line x1="236.6" y1="34" x2="236.6" y2="324" stroke="#e8e8e8"/><line x1="248.5" y1="34" x2="248.5" y2="324" stroke="#e8e8e8"/><line x1="254.5" y1="34" x2="254.5" y2="324" stroke="#e8e8e8"/><line x1="260.4" y1="34" x2="260.4" y2="324" stroke="#e8e8e8"/><line x1="266.4" y1="34" x2="266.4" y2="324" stroke="#e8e8e8"/><line x1="278.3" y1="34" x2="278.3" y2="324" stroke="#e8e8e8"/><line x1="284.3" y1="34" x2="284.3" y2="324" stroke="#e8e8e8"/><line x1="290.2" y1="34" x2="290.2" y2="324" stroke="#e8e8e8"/><line x1="296.2" y1="34" x2="296.2" y2="324" stroke="#e8e8e8"/><line x1="308.1" y1="34" x2="308.1" y2="324" stroke="#e8e8e8"/><line x1="314.0" y1="34" x2="314.0" y2="324" stroke="#e8e8e8"/><line x1="320.0" y1="34" x2="320.0" y2="324" stroke="#e8e8e8"/><line x1="325.9" y1="34" x2="325.9" y2="324" stroke="#e8e8e8"/><line x1="337.8" y1="34" x2="337.8" y2="324" stroke="#e8e8e8"/><line x1="343.8" y1="34" x2="343.8" y2="324" stroke="#e8e8e8"/><line x1="349.7" y1="34" x2="349.7" y2="324" stroke="#e8e8e8"/><line x1="355.7" y1="34" x2="355.7" y2="324" stroke="#e8e8e8"/><line x1="367.6" y1="34" x2="367.6" y2="324" stroke="#e8e8e8"/><line x1="373.6" y1="34" x2="373.6" y2="324" stroke="#e8e8e8"/><line x1="379.5" y1="34" x2="379.5" y2="324" stroke="#e8e8e8"/><line x1="385.5" y1="34" x2="385.5" y2="324" stroke="#e8e8e8"/><line x1="397.4" y1="34" x2="397.4" y2="324" stroke="#e8e8e8"/><line x1="403.3" y1="34" x2="403.3" y2="324" stroke="#e8e8e8"/><line x1="409.3" y1="34" x2="409.3" y2="324" stroke="#e8e8e8"/><line x1="415.2" y1="34" x2="415.2" y2="324" stroke="#e8e8e8"/><line x1="427.1" y1="34" x2="427.1" y2="324" stroke="#e8e8e8"/><line x1="433.1" y1="34" x2="433.1" y2="324" stroke="#e8e8e8"/><line x1="439.0" y1="34" x2="439.0" y2="324" stroke="#e8e8e8"/><line x1="445.0" y1="34" x2="445.0" y2="324" stroke="#e8e8e8"/><line x1="456.9" y1="34" x2="456.9" y2="324" stroke="#e8e8e8"/><line x1="462.8" y1="34" x2="462.8" y2="324" stroke="#e8e8e8"/><line x1="468.8" y1="34" x2="468.8" y2="324" stroke="#e8e8e8"/><line x1="474.8" y1="34" x2="474.8" y2="324" stroke="#e8e8e8"/><line x1="486.7" y1="34" x2="486.7" y2="324" stroke="#e8e8e8"/><line x1="492.6" y1="34" x2="492.6" y2="324" stroke="#e8e8e8"/><line x1="498.6" y1="34" x2="498.6" y2="324" stroke="#e8e8e8"/><line x1="504.5" y1="34" x2="504.5" y2="324" stroke="#e8e8e8"/><line x1="516.4" y1="34" x2="516.4" y2="324" stroke="#e8e8e8"/><line x1="522.4" y1="34" x2="522.4" y2="324" stroke="#e8e8e8"/><line x1="528.3" y1="34" x2="528.3" y2="324" stroke="#e8e8e8"/><line x1="534.3" y1="34" x2="534.3" y2="324" stroke="#e8e8e8"/><line x1="546.2" y1="34" x2="546.2" y2="324" stroke="#e8e8e8"/><line x1="552.1" y1="34" x2="552.1" y2="324" stroke="#e8e8e8"/><line x1="558.1" y1="34" x2="558.1" y2="324" stroke="#e8e8e8"/><line x1="564.0" y1="34" x2="564.0" y2="324" stroke="#e8e8e8"/><line x1="64" y1="309.5" x2="570" y2="309.5" stroke="#d8d8d8"/><line x1="64" y1="300.9" x2="570" y2="300.9" stroke="#d8d8d8"/><line x1="64" y1="294.9" x2="570" y2="294.9" stroke="#d8d8d8"/><line x1="64" y1="290.2" x2="570" y2="290.2" stroke="#d8d8d8"/><line x1="64" y1="286.4" x2="570" y2="286.4" stroke="#d8d8d8"/><line x1="64" y1="283.2" x2="570" y2="283.2" stroke="#d8d8d8"/><line x1="64" y1="280.4" x2="570" y2="280.4" stroke="#d8d8d8"/><line x1="64" y1="277.9" x2="570" y2="277.9" stroke="#d8d8d8"/><line x1="64" y1="261.1" x2="570" y2="261.1" stroke="#d8d8d8"/><line x1="64" y1="252.6" x2="570" y2="252.6" stroke="#d8d8d8"/><line x1="64" y1="246.6" x2="570" y2="246.6" stroke="#d8d8d8"/><line x1="64" y1="241.9" x2="570" y2="241.9" stroke="#d8d8d8"/><line x1="64" y1="238.1" x2="570" y2="238.1" stroke="#d8d8d8"/><line x1="64" y1="234.8" x2="570" y2="234.8" stroke="#d8d8d8"/><line x1="64" y1="232.0" x2="570" y2="232.0" stroke="#d8d8d8"/><line x1="64" y1="229.5" x2="570" y2="229.5" stroke="#d8d8d8"/><line x1="64" y1="212.8" x2="570" y2="212.8" stroke="#d8d8d8"/><line x1="64" y1="204.3" x2="570" y2="204.3" stroke="#d8d8d8"/><line x1="64" y1="198.2" x2="570" y2="198.2" stroke="#d8d8d8"/><line x1="64" y1="193.5" x2="570" y2="193.5" stroke="#d8d8d8"/><line x1="64" y1="189.7" x2="570" y2="189.7" stroke="#d8d8d8"/><line x1="64" y1="186.5" x2="570" y2="186.5" stroke="#d8d8d8"/><line x1="64" y1="183.7" x2="570" y2="183.7" stroke="#d8d8d8"/><line x1="64" y1="181.2" x2="570" y2="181.2" stroke="#d8d8d8"/><line x1="64" y1="164.5" x2="570" y2="164.5" stroke="#d8d8d8"/><line x1="64" y1="155.9" x2="570" y2="155.9" stroke="#d8d8d8"/><line x1="64" y1="149.9" x2="570" y2="149.9" stroke="#d8d8d8"/><line x1="64" y1="145.2" x2="570" y2="145.2" stroke="#d8d8d8"/><line x1="64" y1="141.4" x2="570" y2="141.4" stroke="#d8d8d8"/><line x1="64" y1="138.2" x2="570" y2="138.2" stroke="#d8d8d8"/><line x1="64" y1="135.4" x2="570" y2="135.4" stroke="#d8d8d8"/><line x1="64" y1="132.9" x2="570" y2="132.9" stroke="#d8d8d8"/><line x1="64" y1="116.1" x2="570" y2="116.1" stroke="#d8d8d8"/><line x1="64" y1="107.6" x2="570" y2="107.6" stroke="#d8d8d8"/><line x1="64" y1="101.6" x2="570" y2="101.6" stroke="#d8d8d8"/><line x1="64" y1="96.9" x2="570" y2="96.9" stroke="#d8d8d8"/><line x1="64" y1="93.1" x2="570" y2="93.1" stroke="#d8d8d8"/><line x1="64" y1="89.8" x2="570" y2="89.8" stroke="#d8d8d8"/><line x1="64" y1="87.0" x2="570" y2="87.0" stroke="#d8d8d8"/><line x1="64" y1="84.5" x2="570" y2="84.5" stroke="#d8d8d8"/><line x1="64" y1="67.8" x2="570" y2="67.8" stroke="#d8d8d8"/><line x1="64" y1="59.3" x2="570" y2="59.3" stroke="#d8d8d8"/><line x1="64" y1="53.2" x2="570" y2="53.2" stroke="#d8d8d8"/><line x1="64" y1="48.5" x2="570" y2="48.5" stroke="#d8d8d8"/><line x1="64" y1="44.7" x2="570" y2="44.7" stroke="#d8d8d8"/><line x1="64" y1="41.5" x2="570" y2="41.5" stroke="#d8d8d8"/><line x1="64" y1="38.7" x2="570" y2="38.7" stroke="#d8d8d8"/><line x1="64" y1="36.2" x2="570" y2="36.2" stroke="#d8d8d8"/><line x1="64.0" y1="34" x2="64.0" y2="324" stroke="#d0d0d0"/><line x1="93.8" y1="34" x2="93.8" y2="324" stroke="#d0d0d0"/><line x1="123.5" y1="34" x2="123.5" y2="324" stroke="#d0d0d0"/><line x1="153.3" y1="34" x2="153.3" y2="324" stroke="#d0d0d0"/><line x1="183.1" y1="34" x2="183.1" y2="324" stroke="#d0d0d0"/><line x1="212.8" y1="34" x2="212.8" y2="324" stroke="#d0d0d0"/><line x1="242.6" y1="34" x2="242.6" y2="324" stroke="#d0d0d0"/><line x1="272.4" y1="34" x2="272.4" y2="324" stroke="#d0d0d0"/><line x1="302.1" y1="34" x2="302.1" y2="324" stroke="#d0d0d0"/><line x1="331.9" y1="34" x2="331.9" y2="324" stroke="#d0d0d0"/><line x1="361.6" y1="34" x2="361.6" y2="324" stroke="#d0d0d0"/><line x1="391.4" y1="34" x2="391.4" y2="324" stroke="#d0d0d0"/><line x1="421.2" y1="34" x2="421.2" y2="324" stroke="#d0d0d0"/><line x1="450.9" y1="34" x2="450.9" y2="324" stroke="#d0d0d0"/><line x1="480.7" y1="34" x2="480.7" y2="324" stroke="#d0d0d0"/><line x1="510.5" y1="34" x2="510.5" y2="324" stroke="#d0d0d0"/><line x1="540.2" y1="34" x2="540.2" y2="324" stroke="#d0d0d0"/><line x1="570.0" y1="34" x2="570.0" y2="324" stroke="#d0d0d0"/><line x1="64" y1="324" x2="570" y2="324" stroke="#b0b0b0"/><text x="58" y="328" font-size="10" text-anchor="end" fill="#888">1e0</text><line x1="64" y1="275.6666666666667" x2="570" y2="275.6666666666667" stroke="#b0b0b0"/><text x="58" y="279.6666666666667" font-size="10" text-anchor="end" fill="#888">1e1</text><line x1="64" y1="227.33333333333334" x2="570" y2="227.33333333333334" stroke="#b0b0b0"/><text x="58" y="231.33333333333334" font-size="10" text-anchor="end" fill="#888">1e2</text><line x1="64" y1="179" x2="570" y2="179" stroke="#b0b0b0"/><text x="58" y="183" font-size="10" text-anchor="end" fill="#888">1e3</text><line x1="64" y1="130.66666666666669" x2="570" y2="130.66666666666669" stroke="#b0b0b0"/><text x="58" y="134.66666666666669" font-size="10" text-anchor="end" fill="#888">1e4</text><line x1="64" y1="82.33333333333331" x2="570" y2="82.33333333333331" stroke="#b0b0b0"/><text x="58" y="86.33333333333331" font-size="10" text-anchor="end" fill="#888">1e5</text><line x1="64" y1="34" x2="570" y2="34" stroke="#b0b0b0"/><text x="58" y="38" font-size="10" text-anchor="end" fill="#888">1e6</text><text x="64.0" y="327.2" font-size="4" text-anchor="end" fill="#aa4400" transform="rotate(-80 64.0 327.2)">v5.90.0</text><text x="70.0" y="327.2" font-size="4" text-anchor="end" fill="#aa4400" transform="rotate(-80 70.0 327.2)">v5.110.1</text><text x="75.9" y="327.2" font-size="4" text-anchor="end" fill="#aa4400" transform="rotate(-80 75.9 327.2)">v5.125.0</text><text x="81.9" y="327.2" font-size="4" text-anchor="end" fill="#aa4400" transform="rotate(-80 81.9 327.2)">v5.130.0</text><text x="87.8" y="327.2" font-size="4" text-anchor="end" fill="#aa4400" transform="rotate(-80 87.8 327.2)">v5.131.0</text><text x="93.8" y="327.2" font-size="4" text-anchor="end" fill="#aa4400" transform="rotate(-80 93.8 327.2)">v5.132.0</text><text x="99.7" y="327.2" font-size="4" text-anchor="end" fill="#aa4400" transform="rotate(-80 99.7 327.2)">v5.133.0</text><text x="105.7" y="327.2" font-size="4" text-anchor="end" fill="#aa4400" transform="rotate(-80 105.7 327.2)">v5.134.0</text><text x="111.6" y="327.2" font-size="4" text-anchor="end" fill="#aa4400" transform="rotate(-80 111.6 327.2)">v5.135.0</text><text x="117.6" y="327.2" font-size="4" text-anchor="end" fill="#aa4400" transform="rotate(-80 117.6 327.2)">v5.136.0</text><text x="123.5" y="327.2" font-size="4" text-anchor="end" fill="#aa4400" transform="rotate(-80 123.5 327.2)">v5.137.0</text><text x="129.5" y="327.2" font-size="4" text-anchor="end" fill="#aa4400" transform="rotate(-80 129.5 327.2)">v5.138.0</text><text x="135.4" y="327.2" font-size="4" text-anchor="end" fill="#aa4400" transform="rotate(-80 135.4 327.2)">v5.139.0</text><text x="141.4" y="327.2" font-size="4" text-anchor="end" fill="#aa4400" transform="rotate(-80 141.4 327.2)">v5.141.0</text><text x="147.3" y="327.2" font-size="4" text-anchor="end" fill="#d6a382" transform="rotate(-80 147.3 327.2)">v5.141.1</text><text x="153.3" y="327.2" font-size="4" text-anchor="end" fill="#d6a382" transform="rotate(-80 153.3 327.2)">v5.141.2</text><text x="159.2" y="327.2" font-size="4" text-anchor="end" fill="#d6a382" transform="rotate(-80 159.2 327.2)">v5.141.3</text><text x="165.2" y="327.2" font-size="4" text-anchor="end" fill="#d6a382" transform="rotate(-80 165.2 327.2)">v5.141.4</text><text x="171.2" y="327.2" font-size="4" text-anchor="end" fill="#d6a382" transform="rotate(-80 171.2 327.2)">v5.141.5</text><text x="177.1" y="327.2" font-size="4" text-anchor="end" fill="#d6a382" transform="rotate(-80 177.1 327.2)">v5.141.6</text><text x="183.1" y="327.2" font-size="4" text-anchor="end" fill="#d6a382" transform="rotate(-80 183.1 327.2)">v5.141.8</text><text x="189.0" y="327.2" font-size="4" text-anchor="end" fill="#d6a382" transform="rotate(-80 189.0 327.2)">v5.141.9</text><text x="195.0" y="327.2" font-size="4" text-anchor="end" fill="#d6a382" transform="rotate(-80 195.0 327.2)">v5.141.10</text><text x="200.9" y="327.2" font-size="4" text-anchor="end" fill="#d6a382" transform="rotate(-80 200.9 327.2)">v5.141.11</text><text x="206.9" y="327.2" font-size="4" text-anchor="end" fill="#d6a382" transform="rotate(-80 206.9 327.2)">v5.141.12</text><text x="212.8" y="327.2" font-size="4" text-anchor="end" fill="#d6a382" transform="rotate(-80 212.8 327.2)">v5.141.13</text><text x="218.8" y="327.2" font-size="4" text-anchor="end" fill="#d6a382" transform="rotate(-80 218.8 327.2)">v5.141.14</text><text x="224.7" y="327.2" font-size="4" text-anchor="end" fill="#aa4400" transform="rotate(-80 224.7 327.2)">v5.142.0</text><text x="230.7" y="327.2" font-size="4" text-anchor="end" fill="#d6a382" transform="rotate(-80 230.7 327.2)">v5.142.1</text><text x="236.6" y="327.2" font-size="4" text-anchor="end" fill="#d6a382" transform="rotate(-80 236.6 327.2)">v5.142.2</text><text x="242.6" y="327.2" font-size="4" text-anchor="end" fill="#d6a382" transform="rotate(-80 242.6 327.2)">v5.142.3</text><text x="248.5" y="327.2" font-size="4" text-anchor="end" fill="#d6a382" transform="rotate(-80 248.5 327.2)">v5.142.4</text><text x="254.5" y="327.2" font-size="4" text-anchor="end" fill="#aa4400" transform="rotate(-80 254.5 327.2)">v5.143.0</text><text x="260.4" y="327.2" font-size="4" text-anchor="end" fill="#d6a382" transform="rotate(-80 260.4 327.2)">v5.143.1</text><text x="266.4" y="327.2" font-size="4" text-anchor="end" fill="#d6a382" transform="rotate(-80 266.4 327.2)">v5.143.2</text><text x="272.4" y="327.2" font-size="4" text-anchor="end" fill="#d6a382" transform="rotate(-80 272.4 327.2)">v5.143.3</text><text x="278.3" y="327.2" font-size="4" text-anchor="end" fill="#d6a382" transform="rotate(-80 278.3 327.2)">v5.143.4</text><text x="284.3" y="327.2" font-size="4" text-anchor="end" fill="#d6a382" transform="rotate(-80 284.3 327.2)">v5.143.5</text><text x="290.2" y="327.2" font-size="4" text-anchor="end" fill="#d6a382" transform="rotate(-80 290.2 327.2)">v5.143.6</text><text x="296.2" y="327.2" font-size="4" text-anchor="end" fill="#d6a382" transform="rotate(-80 296.2 327.2)">v5.143.7</text><text x="302.1" y="327.2" font-size="4" text-anchor="end" fill="#d6a382" transform="rotate(-80 302.1 327.2)">v5.143.8</text><text x="308.1" y="327.2" font-size="4" text-anchor="end" fill="#d6a382" transform="rotate(-80 308.1 327.2)">v5.143.9</text><text x="314.0" y="327.2" font-size="4" text-anchor="end" fill="#d6a382" transform="rotate(-80 314.0 327.2)">v5.143.10</text><text x="320.0" y="327.2" font-size="4" text-anchor="end" fill="#d6a382" transform="rotate(-80 320.0 327.2)">v5.143.11</text><text x="325.9" y="327.2" font-size="4" text-anchor="end" fill="#d6a382" transform="rotate(-80 325.9 327.2)">v5.143.12</text><text x="331.9" y="327.2" font-size="4" text-anchor="end" fill="#d6a382" transform="rotate(-80 331.9 327.2)">v5.143.15</text><text x="337.8" y="327.2" font-size="4" text-anchor="end" fill="#d6a382" transform="rotate(-80 337.8 327.2)">v5.143.16</text><text x="343.8" y="327.2" font-size="4" text-anchor="end" fill="#d6a382" transform="rotate(-80 343.8 327.2)">v5.143.20</text><text x="349.7" y="327.2" font-size="4" text-anchor="end" fill="#d6a382" transform="rotate(-80 349.7 327.2)">v5.143.21</text><text x="355.7" y="327.2" font-size="4" text-anchor="end" fill="#d6a382" transform="rotate(-80 355.7 327.2)">v5.143.22</text><text x="361.6" y="327.2" font-size="4" text-anchor="end" fill="#d6a382" transform="rotate(-80 361.6 327.2)">v5.143.23</text><text x="367.6" y="327.2" font-size="4" text-anchor="end" fill="#d6a382" transform="rotate(-80 367.6 327.2)">v5.143.24</text><text x="373.6" y="327.2" font-size="4" text-anchor="end" fill="#d6a382" transform="rotate(-80 373.6 327.2)">v5.143.25</text><text x="379.5" y="327.2" font-size="4" text-anchor="end" fill="#d6a382" transform="rotate(-80 379.5 327.2)">v5.143.26</text><text x="385.5" y="327.2" font-size="4" text-anchor="end" fill="#d6a382" transform="rotate(-80 385.5 327.2)">v5.143.27</text><text x="391.4" y="327.2" font-size="4" text-anchor="end" fill="#d6a382" transform="rotate(-80 391.4 327.2)">v5.143.28</text><text x="397.4" y="327.2" font-size="4" text-anchor="end" fill="#d6a382" transform="rotate(-80 397.4 327.2)">v5.143.29</text><text x="403.3" y="327.2" font-size="4" text-anchor="end" fill="#d6a382" transform="rotate(-80 403.3 327.2)">v5.143.30</text><text x="409.3" y="327.2" font-size="4" text-anchor="end" fill="#d6a382" transform="rotate(-80 409.3 327.2)">v5.143.31</text><text x="415.2" y="327.2" font-size="4" text-anchor="end" fill="#d6a382" transform="rotate(-80 415.2 327.2)">v5.143.33</text><text x="421.2" y="327.2" font-size="4" text-anchor="end" fill="#d6a382" transform="rotate(-80 421.2 327.2)">v5.143.34</text><text x="427.1" y="327.2" font-size="4" text-anchor="end" fill="#d6a382" transform="rotate(-80 427.1 327.2)">v5.143.35</text><text x="433.1" y="327.2" font-size="4" text-anchor="end" fill="#aa4400" transform="rotate(-80 433.1 327.2)">v5.144.0</text><text x="439.0" y="327.2" font-size="4" text-anchor="end" fill="#d6a382" transform="rotate(-80 439.0 327.2)">v5.144.1</text><text x="445.0" y="327.2" font-size="4" text-anchor="end" fill="#d6a382" transform="rotate(-80 445.0 327.2)">v5.144.2</text><text x="450.9" y="327.2" font-size="4" text-anchor="end" fill="#d6a382" transform="rotate(-80 450.9 327.2)">v5.144.3</text><text x="456.9" y="327.2" font-size="4" text-anchor="end" fill="#d6a382" transform="rotate(-80 456.9 327.2)">v5.144.4</text><text x="462.8" y="327.2" font-size="4" text-anchor="end" fill="#d6a382" transform="rotate(-80 462.8 327.2)">v5.144.5</text><text x="468.8" y="327.2" font-size="4" text-anchor="end" fill="#d6a382" transform="rotate(-80 468.8 327.2)">v5.144.7</text><text x="474.8" y="327.2" font-size="4" text-anchor="end" fill="#d6a382" transform="rotate(-80 474.8 327.2)">v5.144.8</text><text x="480.7" y="327.2" font-size="4" text-anchor="end" fill="#aa4400" transform="rotate(-80 480.7 327.2)">v5.145.0</text><text x="486.7" y="327.2" font-size="4" text-anchor="end" fill="#d6a382" transform="rotate(-80 486.7 327.2)">v5.145.1</text><text x="492.6" y="327.2" font-size="4" text-anchor="end" fill="#d6a382" transform="rotate(-80 492.6 327.2)">v5.145.2</text><text x="498.6" y="327.2" font-size="4" text-anchor="end" fill="#d6a382" transform="rotate(-80 498.6 327.2)">v5.145.3</text><text x="504.5" y="327.2" font-size="4" text-anchor="end" fill="#d6a382" transform="rotate(-80 504.5 327.2)">v5.145.4</text><text x="510.5" y="327.2" font-size="4" text-anchor="end" fill="#d6a382" transform="rotate(-80 510.5 327.2)">v5.145.6</text><text x="516.4" y="327.2" font-size="4" text-anchor="end" fill="#aa4400" transform="rotate(-80 516.4 327.2)">v5.146.0</text><text x="522.4" y="327.2" font-size="4" text-anchor="end" fill="#aa4400" transform="rotate(-80 522.4 327.2)">v5.147.0</text><text x="528.3" y="327.2" font-size="4" text-anchor="end" fill="#d6a382" transform="rotate(-80 528.3 327.2)">v5.147.1</text><text x="534.3" y="327.2" font-size="4" text-anchor="end" fill="#d6a382" transform="rotate(-80 534.3 327.2)">v5.147.2</text><text x="540.2" y="327.2" font-size="4" text-anchor="end" fill="#d6a382" transform="rotate(-80 540.2 327.2)">v5.147.3</text><text x="546.2" y="327.2" font-size="4" text-anchor="end" fill="#d6a382" transform="rotate(-80 546.2 327.2)">v5.147.4</text><text x="552.1" y="327.2" font-size="4" text-anchor="end" fill="#d6a382" transform="rotate(-80 552.1 327.2)">v5.147.5</text><text x="558.1" y="327.2" font-size="4" text-anchor="end" fill="#d6a382" transform="rotate(-80 558.1 327.2)">v5.147.6</text><text x="564.0" y="327.2" font-size="4" text-anchor="end" fill="#d6a382" transform="rotate(-80 564.0 327.2)">v5.147.7</text><text x="570.0" y="327.2" font-size="4" text-anchor="end" fill="#d6a382" transform="rotate(-80 570.0 327.2)">v5.147.8</text><path d="M64.0,74.3 L70.0,75.1 L75.9,76.1 L450.9,77.0 L456.9,76.5 L462.8,77.1 L468.8,76.6 L474.8,77.1 L480.7,76.7 L486.7,76.6 L492.6,76.8 L498.6,77.4 L504.5,76.6 L510.5,76.2 L516.4,76.4 L522.4,76.1 L528.3,76.6 L534.3,76.4 L540.2,76.7 L546.2,76.5 L552.1,76.5 L558.1,76.7 L564.0,76.6 L570.0,76.1" fill="none" stroke="#4477AA" stroke-width="1.6"/><circle cx="64.0" cy="74.3" r="2" fill="#4477AA"/><circle cx="70.0" cy="75.1" r="2" fill="#4477AA"/><circle cx="75.9" cy="76.1" r="2" fill="#4477AA"/><circle cx="450.9" cy="77.0" r="2" fill="#4477AA"/><circle cx="456.9" cy="76.5" r="2" fill="#4477AA"/><circle cx="462.8" cy="77.1" r="2" fill="#4477AA"/><circle cx="468.8" cy="76.6" r="2" fill="#4477AA"/><circle cx="474.8" cy="77.1" r="2" fill="#4477AA"/><circle cx="480.7" cy="76.7" r="2" fill="#4477AA"/><circle cx="486.7" cy="76.6" r="2" fill="#4477AA"/><circle cx="492.6" cy="76.8" r="2" fill="#4477AA"/><circle cx="498.6" cy="77.4" r="2" fill="#4477AA"/><circle cx="504.5" cy="76.6" r="2" fill="#4477AA"/><circle cx="510.5" cy="76.2" r="2" fill="#4477AA"/><circle cx="516.4" cy="76.4" r="2" fill="#4477AA"/><circle cx="522.4" cy="76.1" r="2" fill="#4477AA"/><circle cx="528.3" cy="76.6" r="2" fill="#4477AA"/><circle cx="534.3" cy="76.4" r="2" fill="#4477AA"/><circle cx="540.2" cy="76.7" r="2" fill="#4477AA"/><circle cx="546.2" cy="76.5" r="2" fill="#4477AA"/><circle cx="552.1" cy="76.5" r="2" fill="#4477AA"/><circle cx="558.1" cy="76.7" r="2" fill="#4477AA"/><circle cx="564.0" cy="76.6" r="2" fill="#4477AA"/><circle cx="570.0" cy="76.1" r="2" fill="#4477AA"/><rect x="580" y="34" width="10" height="10" fill="#4477AA"/><text x="594" y="43" font-size="10" fill="#444">chain-10</text><path d="M64.0,75.4 L70.0,76.2 L75.9,75.9 L450.9,77.8 L456.9,77.4 L462.8,77.3 L468.8,77.5 L474.8,77.6 L480.7,77.6 L486.7,77.5 L492.6,77.5 L498.6,77.6 L504.5,77.7 L510.5,77.3 L516.4,77.5 L522.4,77.2 L528.3,77.7 L534.3,77.1 L540.2,77.3 L546.2,77.4 L552.1,77.9 L558.1,77.1 L564.0,77.1 L570.0,77.4" fill="none" stroke="#EE6677" stroke-width="1.6"/><circle cx="64.0" cy="75.4" r="2" fill="#EE6677"/><circle cx="70.0" cy="76.2" r="2" fill="#EE6677"/><circle cx="75.9" cy="75.9" r="2" fill="#EE6677"/><circle cx="450.9" cy="77.8" r="2" fill="#EE6677"/><circle cx="456.9" cy="77.4" r="2" fill="#EE6677"/><circle cx="462.8" cy="77.3" r="2" fill="#EE6677"/><circle cx="468.8" cy="77.5" r="2" fill="#EE6677"/><circle cx="474.8" cy="77.6" r="2" fill="#EE6677"/><circle cx="480.7" cy="77.6" r="2" fill="#EE6677"/><circle cx="486.7" cy="77.5" r="2" fill="#EE6677"/><circle cx="492.6" cy="77.5" r="2" fill="#EE6677"/><circle cx="498.6" cy="77.6" r="2" fill="#EE6677"/><circle cx="504.5" cy="77.7" r="2" fill="#EE6677"/><circle cx="510.5" cy="77.3" r="2" fill="#EE6677"/><circle cx="516.4" cy="77.5" r="2" fill="#EE6677"/><circle cx="522.4" cy="77.2" r="2" fill="#EE6677"/><circle cx="528.3" cy="77.7" r="2" fill="#EE6677"/><circle cx="534.3" cy="77.1" r="2" fill="#EE6677"/><circle cx="540.2" cy="77.3" r="2" fill="#EE6677"/><circle cx="546.2" cy="77.4" r="2" fill="#EE6677"/><circle cx="552.1" cy="77.9" r="2" fill="#EE6677"/><circle cx="558.1" cy="77.1" r="2" fill="#EE6677"/><circle cx="564.0" cy="77.1" r="2" fill="#EE6677"/><circle cx="570.0" cy="77.4" r="2" fill="#EE6677"/><rect x="580" y="49" width="10" height="10" fill="#EE6677"/><text x="594" y="58" font-size="10" fill="#444">chain-50</text><path d="M64.0,76.5 L70.0,77.3 L75.9,77.3 L450.9,79.3 L456.9,78.7 L462.8,78.7 L468.8,79.1 L474.8,78.9 L480.7,79.5 L486.7,79.0 L492.6,78.7 L498.6,79.7 L504.5,78.5 L510.5,78.9 L516.4,78.5 L522.4,78.7 L528.3,78.4 L534.3,78.8 L540.2,78.9 L546.2,79.1 L552.1,78.5 L558.1,78.6 L564.0,78.9 L570.0,78.8" fill="none" stroke="#228833" stroke-width="1.6"/><circle cx="64.0" cy="76.5" r="2" fill="#228833"/><circle cx="70.0" cy="77.3" r="2" fill="#228833"/><circle cx="75.9" cy="77.3" r="2" fill="#228833"/><circle cx="450.9" cy="79.3" r="2" fill="#228833"/><circle cx="456.9" cy="78.7" r="2" fill="#228833"/><circle cx="462.8" cy="78.7" r="2" fill="#228833"/><circle cx="468.8" cy="79.1" r="2" fill="#228833"/><circle cx="474.8" cy="78.9" r="2" fill="#228833"/><circle cx="480.7" cy="79.5" r="2" fill="#228833"/><circle cx="486.7" cy="79.0" r="2" fill="#228833"/><circle cx="492.6" cy="78.7" r="2" fill="#228833"/><circle cx="498.6" cy="79.7" r="2" fill="#228833"/><circle cx="504.5" cy="78.5" r="2" fill="#228833"/><circle cx="510.5" cy="78.9" r="2" fill="#228833"/><circle cx="516.4" cy="78.5" r="2" fill="#228833"/><circle cx="522.4" cy="78.7" r="2" fill="#228833"/><circle cx="528.3" cy="78.4" r="2" fill="#228833"/><circle cx="534.3" cy="78.8" r="2" fill="#228833"/><circle cx="540.2" cy="78.9" r="2" fill="#228833"/><circle cx="546.2" cy="79.1" r="2" fill="#228833"/><circle cx="552.1" cy="78.5" r="2" fill="#228833"/><circle cx="558.1" cy="78.6" r="2" fill="#228833"/><circle cx="564.0" cy="78.9" r="2" fill="#228833"/><circle cx="570.0" cy="78.8" r="2" fill="#228833"/><rect x="580" y="64" width="10" height="10" fill="#228833"/><text x="594" y="73" font-size="10" fill="#444">chain-200</text><path d="M64.0,77.8 L70.0,79.3 L75.9,79.4 L450.9,81.9 L456.9,81.7 L462.8,81.2 L468.8,81.8 L474.8,81.6 L480.7,81.7 L486.7,81.9 L492.6,81.4 L498.6,81.8 L504.5,81.4 L510.5,81.3 L516.4,81.5 L522.4,81.1 L528.3,81.5 L534.3,81.9 L540.2,81.7 L546.2,81.3 L552.1,81.3 L558.1,81.2 L564.0,81.2 L570.0,81.2" fill="none" stroke="#CCBB44" stroke-width="1.6"/><circle cx="64.0" cy="77.8" r="2" fill="#CCBB44"/><circle cx="70.0" cy="79.3" r="2" fill="#CCBB44"/><circle cx="75.9" cy="79.4" r="2" fill="#CCBB44"/><circle cx="450.9" cy="81.9" r="2" fill="#CCBB44"/><circle cx="456.9" cy="81.7" r="2" fill="#CCBB44"/><circle cx="462.8" cy="81.2" r="2" fill="#CCBB44"/><circle cx="468.8" cy="81.8" r="2" fill="#CCBB44"/><circle cx="474.8" cy="81.6" r="2" fill="#CCBB44"/><circle cx="480.7" cy="81.7" r="2" fill="#CCBB44"/><circle cx="486.7" cy="81.9" r="2" fill="#CCBB44"/><circle cx="492.6" cy="81.4" r="2" fill="#CCBB44"/><circle cx="498.6" cy="81.8" r="2" fill="#CCBB44"/><circle cx="504.5" cy="81.4" r="2" fill="#CCBB44"/><circle cx="510.5" cy="81.3" r="2" fill="#CCBB44"/><circle cx="516.4" cy="81.5" r="2" fill="#CCBB44"/><circle cx="522.4" cy="81.1" r="2" fill="#CCBB44"/><circle cx="528.3" cy="81.5" r="2" fill="#CCBB44"/><circle cx="534.3" cy="81.9" r="2" fill="#CCBB44"/><circle cx="540.2" cy="81.7" r="2" fill="#CCBB44"/><circle cx="546.2" cy="81.3" r="2" fill="#CCBB44"/><circle cx="552.1" cy="81.3" r="2" fill="#CCBB44"/><circle cx="558.1" cy="81.2" r="2" fill="#CCBB44"/><circle cx="564.0" cy="81.2" r="2" fill="#CCBB44"/><circle cx="570.0" cy="81.2" r="2" fill="#CCBB44"/><rect x="580" y="79" width="10" height="10" fill="#CCBB44"/><text x="594" y="88" font-size="10" fill="#444">chain-1000</text><path d="M64.0,74.8 L70.0,75.3 L75.9,76.4 L450.9,77.9 L456.9,77.7 L462.8,77.3 L468.8,78.1 L474.8,77.5 L480.7,78.6 L486.7,78.2 L492.6,77.4 L498.6,78.7 L504.5,77.6 L510.5,77.6 L516.4,78.5 L522.4,78.5 L528.3,77.7 L534.3,78.8 L540.2,77.3 L546.2,77.0 L552.1,77.3 L558.1,76.8 L564.0,78.1 L570.0,78.5" fill="none" stroke="#66CCEE" stroke-width="1.6"/><circle cx="64.0" cy="74.8" r="2" fill="#66CCEE"/><circle cx="70.0" cy="75.3" r="2" fill="#66CCEE"/><circle cx="75.9" cy="76.4" r="2" fill="#66CCEE"/><circle cx="450.9" cy="77.9" r="2" fill="#66CCEE"/><circle cx="456.9" cy="77.7" r="2" fill="#66CCEE"/><circle cx="462.8" cy="77.3" r="2" fill="#66CCEE"/><circle cx="468.8" cy="78.1" r="2" fill="#66CCEE"/><circle cx="474.8" cy="77.5" r="2" fill="#66CCEE"/><circle cx="480.7" cy="78.6" r="2" fill="#66CCEE"/><circle cx="486.7" cy="78.2" r="2" fill="#66CCEE"/><circle cx="492.6" cy="77.4" r="2" fill="#66CCEE"/><circle cx="498.6" cy="78.7" r="2" fill="#66CCEE"/><circle cx="504.5" cy="77.6" r="2" fill="#66CCEE"/><circle cx="510.5" cy="77.6" r="2" fill="#66CCEE"/><circle cx="516.4" cy="78.5" r="2" fill="#66CCEE"/><circle cx="522.4" cy="78.5" r="2" fill="#66CCEE"/><circle cx="528.3" cy="77.7" r="2" fill="#66CCEE"/><circle cx="534.3" cy="78.8" r="2" fill="#66CCEE"/><circle cx="540.2" cy="77.3" r="2" fill="#66CCEE"/><circle cx="546.2" cy="77.0" r="2" fill="#66CCEE"/><circle cx="552.1" cy="77.3" r="2" fill="#66CCEE"/><circle cx="558.1" cy="76.8" r="2" fill="#66CCEE"/><circle cx="564.0" cy="78.1" r="2" fill="#66CCEE"/><circle cx="570.0" cy="78.5" r="2" fill="#66CCEE"/><rect x="580" y="94" width="10" height="10" fill="#66CCEE"/><text x="594" y="103" font-size="10" fill="#444">dense-10</text><path d="M64.0,78.1 L70.0,78.3 L75.9,78.9 L450.9,80.6 L456.9,80.0 L462.8,80.7 L468.8,80.1 L474.8,80.8 L480.7,80.2 L486.7,80.8 L492.6,80.8 L498.6,81.3 L504.5,80.8 L510.5,80.6 L516.4,80.3 L522.4,79.7 L528.3,80.8 L534.3,80.7 L540.2,80.5 L546.2,80.4 L552.1,80.1 L558.1,80.2 L564.0,80.8 L570.0,79.9" fill="none" stroke="#AA3377" stroke-width="1.6"/><circle cx="64.0" cy="78.1" r="2" fill="#AA3377"/><circle cx="70.0" cy="78.3" r="2" fill="#AA3377"/><circle cx="75.9" cy="78.9" r="2" fill="#AA3377"/><circle cx="450.9" cy="80.6" r="2" fill="#AA3377"/><circle cx="456.9" cy="80.0" r="2" fill="#AA3377"/><circle cx="462.8" cy="80.7" r="2" fill="#AA3377"/><circle cx="468.8" cy="80.1" r="2" fill="#AA3377"/><circle cx="474.8" cy="80.8" r="2" fill="#AA3377"/><circle cx="480.7" cy="80.2" r="2" fill="#AA3377"/><circle cx="486.7" cy="80.8" r="2" fill="#AA3377"/><circle cx="492.6" cy="80.8" r="2" fill="#AA3377"/><circle cx="498.6" cy="81.3" r="2" fill="#AA3377"/><circle cx="504.5" cy="80.8" r="2" fill="#AA3377"/><circle cx="510.5" cy="80.6" r="2" fill="#AA3377"/><circle cx="516.4" cy="80.3" r="2" fill="#AA3377"/><circle cx="522.4" cy="79.7" r="2" fill="#AA3377"/><circle cx="528.3" cy="80.8" r="2" fill="#AA3377"/><circle cx="534.3" cy="80.7" r="2" fill="#AA3377"/><circle cx="540.2" cy="80.5" r="2" fill="#AA3377"/><circle cx="546.2" cy="80.4" r="2" fill="#AA3377"/><circle cx="552.1" cy="80.1" r="2" fill="#AA3377"/><circle cx="558.1" cy="80.2" r="2" fill="#AA3377"/><circle cx="564.0" cy="80.8" r="2" fill="#AA3377"/><circle cx="570.0" cy="79.9" r="2" fill="#AA3377"/><rect x="580" y="109" width="10" height="10" fill="#AA3377"/><text x="594" y="118" font-size="10" fill="#444">dense-50</text><path d="M64.0,81.2 L70.0,82.2 L75.9,83.0 L450.9,85.8 L456.9,85.3 L462.8,85.1 L468.8,85.1 L474.8,85.4 L480.7,85.2 L486.7,85.0 L492.6,85.2 L498.6,85.9 L504.5,86.0 L510.5,85.8 L516.4,85.2 L522.4,85.2 L528.3,85.7 L534.3,85.3 L540.2,86.0 L546.2,85.6 L552.1,86.3 L558.1,84.7 L564.0,85.9 L570.0,85.6" fill="none" stroke="#BBBBBB" stroke-width="1.6"/><circle cx="64.0" cy="81.2" r="2" fill="#BBBBBB"/><circle cx="70.0" cy="82.2" r="2" fill="#BBBBBB"/><circle cx="75.9" cy="83.0" r="2" fill="#BBBBBB"/><circle cx="450.9" cy="85.8" r="2" fill="#BBBBBB"/><circle cx="456.9" cy="85.3" r="2" fill="#BBBBBB"/><circle cx="462.8" cy="85.1" r="2" fill="#BBBBBB"/><circle cx="468.8" cy="85.1" r="2" fill="#BBBBBB"/><circle cx="474.8" cy="85.4" r="2" fill="#BBBBBB"/><circle cx="480.7" cy="85.2" r="2" fill="#BBBBBB"/><circle cx="486.7" cy="85.0" r="2" fill="#BBBBBB"/><circle cx="492.6" cy="85.2" r="2" fill="#BBBBBB"/><circle cx="498.6" cy="85.9" r="2" fill="#BBBBBB"/><circle cx="504.5" cy="86.0" r="2" fill="#BBBBBB"/><circle cx="510.5" cy="85.8" r="2" fill="#BBBBBB"/><circle cx="516.4" cy="85.2" r="2" fill="#BBBBBB"/><circle cx="522.4" cy="85.2" r="2" fill="#BBBBBB"/><circle cx="528.3" cy="85.7" r="2" fill="#BBBBBB"/><circle cx="534.3" cy="85.3" r="2" fill="#BBBBBB"/><circle cx="540.2" cy="86.0" r="2" fill="#BBBBBB"/><circle cx="546.2" cy="85.6" r="2" fill="#BBBBBB"/><circle cx="552.1" cy="86.3" r="2" fill="#BBBBBB"/><circle cx="558.1" cy="84.7" r="2" fill="#BBBBBB"/><circle cx="564.0" cy="85.9" r="2" fill="#BBBBBB"/><circle cx="570.0" cy="85.6" r="2" fill="#BBBBBB"/><rect x="580" y="124" width="10" height="10" fill="#BBBBBB"/><text x="594" y="133" font-size="10" fill="#444">dense-200</text><path d="M64.0,75.8 L70.0,77.1 L75.9,76.9 L450.9,77.5 L456.9,77.0 L462.8,77.6 L468.8,77.6 L474.8,77.2 L480.7,77.5 L486.7,77.7 L492.6,77.2 L498.6,77.6 L504.5,77.3 L510.5,77.2 L516.4,77.2 L522.4,76.9 L528.3,77.1 L534.3,76.8 L540.2,77.2 L546.2,77.5 L552.1,77.0 L558.1,77.2 L564.0,77.0 L570.0,77.4" fill="none" stroke="#222255" stroke-width="1.6"/><circle cx="64.0" cy="75.8" r="2" fill="#222255"/><circle cx="70.0" cy="77.1" r="2" fill="#222255"/><circle cx="75.9" cy="76.9" r="2" fill="#222255"/><circle cx="450.9" cy="77.5" r="2" fill="#222255"/><circle cx="456.9" cy="77.0" r="2" fill="#222255"/><circle cx="462.8" cy="77.6" r="2" fill="#222255"/><circle cx="468.8" cy="77.6" r="2" fill="#222255"/><circle cx="474.8" cy="77.2" r="2" fill="#222255"/><circle cx="480.7" cy="77.5" r="2" fill="#222255"/><circle cx="486.7" cy="77.7" r="2" fill="#222255"/><circle cx="492.6" cy="77.2" r="2" fill="#222255"/><circle cx="498.6" cy="77.6" r="2" fill="#222255"/><circle cx="504.5" cy="77.3" r="2" fill="#222255"/><circle cx="510.5" cy="77.2" r="2" fill="#222255"/><circle cx="516.4" cy="77.2" r="2" fill="#222255"/><circle cx="522.4" cy="76.9" r="2" fill="#222255"/><circle cx="528.3" cy="77.1" r="2" fill="#222255"/><circle cx="534.3" cy="76.8" r="2" fill="#222255"/><circle cx="540.2" cy="77.2" r="2" fill="#222255"/><circle cx="546.2" cy="77.5" r="2" fill="#222255"/><circle cx="552.1" cy="77.0" r="2" fill="#222255"/><circle cx="558.1" cy="77.2" r="2" fill="#222255"/><circle cx="564.0" cy="77.0" r="2" fill="#222255"/><circle cx="570.0" cy="77.4" r="2" fill="#222255"/><rect x="580" y="139" width="10" height="10" fill="#222255"/><text x="594" y="148" font-size="10" fill="#444">hub-50</text><path d="M64.0,76.5 L70.0,77.9 L75.9,78.2 L450.9,78.8 L456.9,78.2 L462.8,78.3 L468.8,78.6 L474.8,79.0 L480.7,78.9 L486.7,78.9 L492.6,78.5 L498.6,79.3 L504.5,78.9 L510.5,79.6 L516.4,78.7 L522.4,78.7 L528.3,78.3 L534.3,79.2 L540.2,79.0 L546.2,78.8 L552.1,79.2 L558.1,78.6 L564.0,78.4 L570.0,78.6" fill="none" stroke="#225555" stroke-width="1.6"/><circle cx="64.0" cy="76.5" r="2" fill="#225555"/><circle cx="70.0" cy="77.9" r="2" fill="#225555"/><circle cx="75.9" cy="78.2" r="2" fill="#225555"/><circle cx="450.9" cy="78.8" r="2" fill="#225555"/><circle cx="456.9" cy="78.2" r="2" fill="#225555"/><circle cx="462.8" cy="78.3" r="2" fill="#225555"/><circle cx="468.8" cy="78.6" r="2" fill="#225555"/><circle cx="474.8" cy="79.0" r="2" fill="#225555"/><circle cx="480.7" cy="78.9" r="2" fill="#225555"/><circle cx="486.7" cy="78.9" r="2" fill="#225555"/><circle cx="492.6" cy="78.5" r="2" fill="#225555"/><circle cx="498.6" cy="79.3" r="2" fill="#225555"/><circle cx="504.5" cy="78.9" r="2" fill="#225555"/><circle cx="510.5" cy="79.6" r="2" fill="#225555"/><circle cx="516.4" cy="78.7" r="2" fill="#225555"/><circle cx="522.4" cy="78.7" r="2" fill="#225555"/><circle cx="528.3" cy="78.3" r="2" fill="#225555"/><circle cx="534.3" cy="79.2" r="2" fill="#225555"/><circle cx="540.2" cy="79.0" r="2" fill="#225555"/><circle cx="546.2" cy="78.8" r="2" fill="#225555"/><circle cx="552.1" cy="79.2" r="2" fill="#225555"/><circle cx="558.1" cy="78.6" r="2" fill="#225555"/><circle cx="564.0" cy="78.4" r="2" fill="#225555"/><circle cx="570.0" cy="78.6" r="2" fill="#225555"/><rect x="580" y="154" width="10" height="10" fill="#225555"/><text x="594" y="163" font-size="10" fill="#444">hub-200</text><path d="M64.0,110.4 L70.0,111.2 L75.9,111.3 L450.9,100.1 L456.9,99.9 L462.8,100.0 L468.8,99.8 L474.8,100.3 L480.7,100.3 L486.7,100.1 L492.6,100.3 L498.6,101.1 L504.5,100.3 L510.5,100.2 L516.4,100.2 L522.4,100.2 L528.3,99.8 L534.3,100.2 L540.2,100.2 L546.2,100.3 L552.1,99.9 L558.1,100.1 L564.0,99.6 L570.0,99.9" fill="none" stroke="#552222" stroke-width="1.6"/><circle cx="64.0" cy="110.4" r="2" fill="#552222"/><circle cx="70.0" cy="111.2" r="2" fill="#552222"/><circle cx="75.9" cy="111.3" r="2" fill="#552222"/><circle cx="450.9" cy="100.1" r="2" fill="#552222"/><circle cx="456.9" cy="99.9" r="2" fill="#552222"/><circle cx="462.8" cy="100.0" r="2" fill="#552222"/><circle cx="468.8" cy="99.8" r="2" fill="#552222"/><circle cx="474.8" cy="100.3" r="2" fill="#552222"/><circle cx="480.7" cy="100.3" r="2" fill="#552222"/><circle cx="486.7" cy="100.1" r="2" fill="#552222"/><circle cx="492.6" cy="100.3" r="2" fill="#552222"/><circle cx="498.6" cy="101.1" r="2" fill="#552222"/><circle cx="504.5" cy="100.3" r="2" fill="#552222"/><circle cx="510.5" cy="100.2" r="2" fill="#552222"/><circle cx="516.4" cy="100.2" r="2" fill="#552222"/><circle cx="522.4" cy="100.2" r="2" fill="#552222"/><circle cx="528.3" cy="99.8" r="2" fill="#552222"/><circle cx="534.3" cy="100.2" r="2" fill="#552222"/><circle cx="540.2" cy="100.2" r="2" fill="#552222"/><circle cx="546.2" cy="100.3" r="2" fill="#552222"/><circle cx="552.1" cy="99.9" r="2" fill="#552222"/><circle cx="558.1" cy="100.1" r="2" fill="#552222"/><circle cx="564.0" cy="99.6" r="2" fill="#552222"/><circle cx="570.0" cy="99.9" r="2" fill="#552222"/><rect x="580" y="169" width="10" height="10" fill="#552222"/><text x="594" y="178" font-size="10" fill="#444">hooked-200</text></svg>