<svg width="720" height="372" xmlns="http://www.w3.org/2000/svg"><rect width="720" height="372" fill="#ffffff"/><text x="64" y="20" font-size="15" font-weight="bold" fill="#333">probable_action_exits() — ops/sec (log scale) by PR / release, c8g.medium</text><line x1="70.0" y1="34" x2="70.0" y2="324" stroke="#e8e8e8"/><line x1="75.9" y1="34" x2="75.9" y2="324" stroke="#e8e8e8"/><line x1="81.9" y1="34" x2="81.9" y2="324" stroke="#e8e8e8"/><line x1="87.8" y1="34" x2="87.8" y2="324" stroke="#e8e8e8"/><line x1="99.7" y1="34" x2="99.7" y2="324" stroke="#e8e8e8"/><line x1="105.7" y1="34" x2="105.7" y2="324" stroke="#e8e8e8"/><line x1="111.6" y1="34" x2="111.6" y2="324" stroke="#e8e8e8"/><line x1="117.6" y1="34" x2="117.6" y2="324" stroke="#e8e8e8"/><line x1="129.5" y1="34" x2="129.5" y2="324" stroke="#e8e8e8"/><line x1="135.4" y1="34" x2="135.4" y2="324" stroke="#e8e8e8"/><line x1="141.4" y1="34" x2="141.4" y2="324" stroke="#e8e8e8"/><line x1="147.3" y1="34" x2="147.3" y2="324" stroke="#e8e8e8"/><line x1="159.2" y1="34" x2="159.2" y2="324" stroke="#e8e8e8"/><line x1="165.2" y1="34" x2="165.2" y2="324" stroke="#e8e8e8"/><line x1="171.2" y1="34" x2="171.2" y2="324" stroke="#e8e8e8"/><line x1="177.1" y1="34" x2="177.1" y2="324" stroke="#e8e8e8"/><line x1="189.0" y1="34" x2="189.0" y2="324" stroke="#e8e8e8"/><line x1="195.0" y1="34" x2="195.0" y2="324" stroke="#e8e8e8"/><line x1="200.9" y1="34" x2="200.9" y2="324" stroke="#e8e8e8"/><line x1="206.9" y1="34" x2="206.9" y2="324" stroke="#e8e8e8"/><line x1="218.8" y1="34" x2="218.8" y2="324" stroke="#e8e8e8"/><line x1="224.7" y1="34" x2="224.7" y2="324" stroke="#e8e8e8"/><line x1="230.7" y1="34" x2="230.7" y2="324" stroke="#e8e8e8"/><line x1="236.6" y1="34" x2="236.6" y2="324" stroke="#e8e8e8"/><line x1="248.5" y1="34" x2="248.5" y2="324" stroke="#e8e8e8"/><line x1="254.5" y1="34" x2="254.5" y2="324" stroke="#e8e8e8"/><line x1="260.4" y1="34" x2="260.4" y2="324" stroke="#e8e8e8"/><line x1="266.4" y1="34" x2="266.4" y2="324" stroke="#e8e8e8"/><line x1="278.3" y1="34" x2="278.3" y2="324" stroke="#e8e8e8"/><line x1="284.3" y1="34" x2="284.3" y2="324" stroke="#e8e8e8"/><line x1="290.2" y1="34" x2="290.2" y2="324" stroke="#e8e8e8"/><line x1="296.2" y1="34" x2="296.2" y2="324" stroke="#e8e8e8"/><line x1="308.1" y1="34" x2="308.1" y2="324" stroke="#e8e8e8"/><line x1="314.0" y1="34" x2="314.0" y2="324" stroke="#e8e8e8"/><line x1="320.0" y1="34" x2="320.0" y2="324" stroke="#e8e8e8"/><line x1="325.9" y1="34" x2="325.9" y2="324" stroke="#e8e8e8"/><line x1="337.8" y1="34" x2="337.8" y2="324" stroke="#e8e8e8"/><line x1="343.8" y1="34" x2="343.8" y2="324" stroke="#e8e8e8"/><line x1="349.7" y1="34" x2="349.7" y2="324" stroke="#e8e8e8"/><line x1="355.7" y1="34" x2="355.7" y2="324" stroke="#e8e8e8"/><line x1="367.6" y1="34" x2="367.6" y2="324" stroke="#e8e8e8"/><line x1="373.6" y1="34" x2="373.6" y2="324" stroke="#e8e8e8"/><line x1="379.5" y1="34" x2="379.5" y2="324" stroke="#e8e8e8"/><line x1="385.5" y1="34" x2="385.5" y2="324" stroke="#e8e8e8"/><line x1="397.4" y1="34" x2="397.4" y2="324" stroke="#e8e8e8"/><line x1="403.3" y1="34" x2="403.3" y2="324" stroke="#e8e8e8"/><line x1="409.3" y1="34" x2="409.3" y2="324" stroke="#e8e8e8"/><line x1="415.2" y1="34" x2="415.2" y2="324" stroke="#e8e8e8"/><line x1="427.1" y1="34" x2="427.1" y2="324" stroke="#e8e8e8"/><line x1="433.1" y1="34" x2="433.1" y2="324" stroke="#e8e8e8"/><line x1="439.0" y1="34" x2="439.0" y2="324" stroke="#e8e8e8"/><line x1="445.0" y1="34" x2="445.0" y2="324" stroke="#e8e8e8"/><line x1="456.9" y1="34" x2="456.9" y2="324" stroke="#e8e8e8"/><line x1="462.8" y1="34" x2="462.8" y2="324" stroke="#e8e8e8"/><line x1="468.8" y1="34" x2="468.8" y2="324" stroke="#e8e8e8"/><line x1="474.8" y1="34" x2="474.8" y2="324" stroke="#e8e8e8"/><line x1="486.7" y1="34" x2="486.7" y2="324" stroke="#e8e8e8"/><line x1="492.6" y1="34" x2="492.6" y2="324" stroke="#e8e8e8"/><line x1="498.6" y1="34" x2="498.6" y2="324" stroke="#e8e8e8"/><line x1="504.5" y1="34" x2="504.5" y2="324" stroke="#e8e8e8"/><line x1="516.4" y1="34" x2="516.4" y2="324" stroke="#e8e8e8"/><line x1="522.4" y1="34" x2="522.4" y2="324" stroke="#e8e8e8"/><line x1="528.3" y1="34" x2="528.3" y2="324" stroke="#e8e8e8"/><line x1="534.3" y1="34" x2="534.3" y2="324" stroke="#e8e8e8"/><line x1="546.2" y1="34" x2="546.2" y2="324" stroke="#e8e8e8"/><line x1="552.1" y1="34" x2="552.1" y2="324" stroke="#e8e8e8"/><line x1="558.1" y1="34" x2="558.1" y2="324" stroke="#e8e8e8"/><line x1="564.0" y1="34" x2="564.0" y2="324" stroke="#e8e8e8"/><line x1="64" y1="309.5" x2="570" y2="309.5" stroke="#d8d8d8"/><line x1="64" y1="300.9" x2="570" y2="300.9" stroke="#d8d8d8"/><line x1="64" y1="294.9" x2="570" y2="294.9" stroke="#d8d8d8"/><line x1="64" y1="290.2" x2="570" y2="290.2" stroke="#d8d8d8"/><line x1="64" y1="286.4" x2="570" y2="286.4" stroke="#d8d8d8"/><line x1="64" y1="283.2" x2="570" y2="283.2" stroke="#d8d8d8"/><line x1="64" y1="280.4" x2="570" y2="280.4" stroke="#d8d8d8"/><line x1="64" y1="277.9" x2="570" y2="277.9" stroke="#d8d8d8"/><line x1="64" y1="261.1" x2="570" y2="261.1" stroke="#d8d8d8"/><line x1="64" y1="252.6" x2="570" y2="252.6" stroke="#d8d8d8"/><line x1="64" y1="246.6" x2="570" y2="246.6" stroke="#d8d8d8"/><line x1="64" y1="241.9" x2="570" y2="241.9" stroke="#d8d8d8"/><line x1="64" y1="238.1" x2="570" y2="238.1" stroke="#d8d8d8"/><line x1="64" y1="234.8" x2="570" y2="234.8" stroke="#d8d8d8"/><line x1="64" y1="232.0" x2="570" y2="232.0" stroke="#d8d8d8"/><line x1="64" y1="229.5" x2="570" y2="229.5" stroke="#d8d8d8"/><line x1="64" y1="212.8" x2="570" y2="212.8" stroke="#d8d8d8"/><line x1="64" y1="204.3" x2="570" y2="204.3" stroke="#d8d8d8"/><line x1="64" y1="198.2" x2="570" y2="198.2" stroke="#d8d8d8"/><line x1="64" y1="193.5" x2="570" y2="193.5" stroke="#d8d8d8"/><line x1="64" y1="189.7" x2="570" y2="189.7" stroke="#d8d8d8"/><line x1="64" y1="186.5" x2="570" y2="186.5" stroke="#d8d8d8"/><line x1="64" y1="183.7" x2="570" y2="183.7" stroke="#d8d8d8"/><line x1="64" y1="181.2" x2="570" y2="181.2" stroke="#d8d8d8"/><line x1="64" y1="164.5" x2="570" y2="164.5" stroke="#d8d8d8"/><line x1="64" y1="155.9" x2="570" y2="155.9" stroke="#d8d8d8"/><line x1="64" y1="149.9" x2="570" y2="149.9" stroke="#d8d8d8"/><line x1="64" y1="145.2" x2="570" y2="145.2" stroke="#d8d8d8"/><line x1="64" y1="141.4" x2="570" y2="141.4" stroke="#d8d8d8"/><line x1="64" y1="138.2" x2="570" y2="138.2" stroke="#d8d8d8"/><line x1="64" y1="135.4" x2="570" y2="135.4" stroke="#d8d8d8"/><line x1="64" y1="132.9" x2="570" y2="132.9" stroke="#d8d8d8"/><line x1="64" y1="116.1" x2="570" y2="116.1" stroke="#d8d8d8"/><line x1="64" y1="107.6" x2="570" y2="107.6" stroke="#d8d8d8"/><line x1="64" y1="101.6" x2="570" y2="101.6" stroke="#d8d8d8"/><line x1="64" y1="96.9" x2="570" y2="96.9" stroke="#d8d8d8"/><line x1="64" y1="93.1" x2="570" y2="93.1" stroke="#d8d8d8"/><line x1="64" y1="89.8" x2="570" y2="89.8" stroke="#d8d8d8"/><line x1="64" y1="87.0" x2="570" y2="87.0" stroke="#d8d8d8"/><line x1="64" y1="84.5" x2="570" y2="84.5" stroke="#d8d8d8"/><line x1="64" y1="67.8" x2="570" y2="67.8" stroke="#d8d8d8"/><line x1="64" y1="59.3" x2="570" y2="59.3" stroke="#d8d8d8"/><line x1="64" y1="53.2" x2="570" y2="53.2" stroke="#d8d8d8"/><line x1="64" y1="48.5" x2="570" y2="48.5" stroke="#d8d8d8"/><line x1="64" y1="44.7" x2="570" y2="44.7" stroke="#d8d8d8"/><line x1="64" y1="41.5" x2="570" y2="41.5" stroke="#d8d8d8"/><line x1="64" y1="38.7" x2="570" y2="38.7" stroke="#d8d8d8"/><line x1="64" y1="36.2" x2="570" y2="36.2" stroke="#d8d8d8"/><line x1="64.0" y1="34" x2="64.0" y2="324" stroke="#d0d0d0"/><line x1="93.8" y1="34" x2="93.8" y2="324" stroke="#d0d0d0"/><line x1="123.5" y1="34" x2="123.5" y2="324" stroke="#d0d0d0"/><line x1="153.3" y1="34" x2="153.3" y2="324" stroke="#d0d0d0"/><line x1="183.1" y1="34" x2="183.1" y2="324" stroke="#d0d0d0"/><line x1="212.8" y1="34" x2="212.8" y2="324" stroke="#d0d0d0"/><line x1="242.6" y1="34" x2="242.6" y2="324" stroke="#d0d0d0"/><line x1="272.4" y1="34" x2="272.4" y2="324" stroke="#d0d0d0"/><line x1="302.1" y1="34" x2="302.1" y2="324" stroke="#d0d0d0"/><line x1="331.9" y1="34" x2="331.9" y2="324" stroke="#d0d0d0"/><line x1="361.6" y1="34" x2="361.6" y2="324" stroke="#d0d0d0"/><line x1="391.4" y1="34" x2="391.4" y2="324" stroke="#d0d0d0"/><line x1="421.2" y1="34" x2="421.2" y2="324" stroke="#d0d0d0"/><line x1="450.9" y1="34" x2="450.9" y2="324" stroke="#d0d0d0"/><line x1="480.7" y1="34" x2="480.7" y2="324" stroke="#d0d0d0"/><line x1="510.5" y1="34" x2="510.5" y2="324" stroke="#d0d0d0"/><line x1="540.2" y1="34" x2="540.2" y2="324" stroke="#d0d0d0"/><line x1="570.0" y1="34" x2="570.0" y2="324" stroke="#d0d0d0"/><line x1="64" y1="324" x2="570" y2="324" stroke="#b0b0b0"/><text x="58" y="328" font-size="10" text-anchor="end" fill="#888">1e0</text><line x1="64" y1="275.6666666666667" x2="570" y2="275.6666666666667" stroke="#b0b0b0"/><text x="58" y="279.6666666666667" font-size="10" text-anchor="end" fill="#888">1e1</text><line x1="64" y1="227.33333333333334" x2="570" y2="227.33333333333334" stroke="#b0b0b0"/><text x="58" y="231.33333333333334" font-size="10" text-anchor="end" fill="#888">1e2</text><line x1="64" y1="179" x2="570" y2="179" stroke="#b0b0b0"/><text x="58" y="183" font-size="10" text-anchor="end" fill="#888">1e3</text><line x1="64" y1="130.66666666666669" x2="570" y2="130.66666666666669" stroke="#b0b0b0"/><text x="58" y="134.66666666666669" font-size="10" text-anchor="end" fill="#888">1e4</text><line x1="64" y1="82.33333333333331" x2="570" y2="82.33333333333331" stroke="#b0b0b0"/><text x="58" y="86.33333333333331" font-size="10" text-anchor="end" fill="#888">1e5</text><line x1="64" y1="34" x2="570" y2="34" stroke="#b0b0b0"/><text x="58" y="38" font-size="10" text-anchor="end" fill="#888">1e6</text><text x="64.0" y="327.2" font-size="4" text-anchor="end" fill="#aa4400" transform="rotate(-80 64.0 327.2)">v5.90.0</text><text x="70.0" y="327.2" font-size="4" text-anchor="end" fill="#aa4400" transform="rotate(-80 70.0 327.2)">v5.110.1</text><text x="75.9" y="327.2" font-size="4" text-anchor="end" fill="#aa4400" transform="rotate(-80 75.9 327.2)">v5.125.0</text><text x="81.9" y="327.2" font-size="4" text-anchor="end" fill="#aa4400" transform="rotate(-80 81.9 327.2)">v5.130.0</text><text x="87.8" y="327.2" font-size="4" text-anchor="end" fill="#aa4400" transform="rotate(-80 87.8 327.2)">v5.131.0</text><text x="93.8" y="327.2" font-size="4" text-anchor="end" fill="#aa4400" transform="rotate(-80 93.8 327.2)">v5.132.0</text><text x="99.7" y="327.2" font-size="4" text-anchor="end" fill="#aa4400" transform="rotate(-80 99.7 327.2)">v5.133.0</text><text x="105.7" y="327.2" font-size="4" text-anchor="end" fill="#aa4400" transform="rotate(-80 105.7 327.2)">v5.134.0</text><text x="111.6" y="327.2" font-size="4" text-anchor="end" fill="#aa4400" transform="rotate(-80 111.6 327.2)">v5.135.0</text><text x="117.6" y="327.2" font-size="4" text-anchor="end" fill="#aa4400" transform="rotate(-80 117.6 327.2)">v5.136.0</text><text x="123.5" y="327.2" font-size="4" text-anchor="end" fill="#aa4400" transform="rotate(-80 123.5 327.2)">v5.137.0</text><text x="129.5" y="327.2" font-size="4" text-anchor="end" fill="#aa4400" transform="rotate(-80 129.5 327.2)">v5.138.0</text><text x="135.4" y="327.2" font-size="4" text-anchor="end" fill="#aa4400" transform="rotate(-80 135.4 327.2)">v5.139.0</text><text x="141.4" y="327.2" font-size="4" text-anchor="end" fill="#aa4400" transform="rotate(-80 141.4 327.2)">v5.141.0</text><text x="147.3" y="327.2" font-size="4" text-anchor="end" fill="#d6a382" transform="rotate(-80 147.3 327.2)">v5.141.1</text><text x="153.3" y="327.2" font-size="4" text-anchor="end" fill="#d6a382" transform="rotate(-80 153.3 327.2)">v5.141.2</text><text x="159.2" y="327.2" font-size="4" text-anchor="end" fill="#d6a382" transform="rotate(-80 159.2 327.2)">v5.141.3</text><text x="165.2" y="327.2" font-size="4" text-anchor="end" fill="#d6a382" transform="rotate(-80 165.2 327.2)">v5.141.4</text><text x="171.2" y="327.2" font-size="4" text-anchor="end" fill="#d6a382" transform="rotate(-80 171.2 327.2)">v5.141.5</text><text x="177.1" y="327.2" font-size="4" text-anchor="end" fill="#d6a382" transform="rotate(-80 177.1 327.2)">v5.141.6</text><text x="183.1" y="327.2" font-size="4" text-anchor="end" fill="#d6a382" transform="rotate(-80 183.1 327.2)">v5.141.8</text><text x="189.0" y="327.2" font-size="4" text-anchor="end" fill="#d6a382" transform="rotate(-80 189.0 327.2)">v5.141.9</text><text x="195.0" y="327.2" font-size="4" text-anchor="end" fill="#d6a382" transform="rotate(-80 195.0 327.2)">v5.141.10</text><text x="200.9" y="327.2" font-size="4" text-anchor="end" fill="#d6a382" transform="rotate(-80 200.9 327.2)">v5.141.11</text><text x="206.9" y="327.2" font-size="4" text-anchor="end" fill="#d6a382" transform="rotate(-80 206.9 327.2)">v5.141.12</text><text x="212.8" y="327.2" font-size="4" text-anchor="end" fill="#d6a382" transform="rotate(-80 212.8 327.2)">v5.141.13</text><text x="218.8" y="327.2" font-size="4" text-anchor="end" fill="#d6a382" transform="rotate(-80 218.8 327.2)">v5.141.14</text><text x="224.7" y="327.2" font-size="4" text-anchor="end" fill="#aa4400" transform="rotate(-80 224.7 327.2)">v5.142.0</text><text x="230.7" y="327.2" font-size="4" text-anchor="end" fill="#d6a382" transform="rotate(-80 230.7 327.2)">v5.142.1</text><text x="236.6" y="327.2" font-size="4" text-anchor="end" fill="#d6a382" transform="rotate(-80 236.6 327.2)">v5.142.2</text><text x="242.6" y="327.2" font-size="4" text-anchor="end" fill="#d6a382" transform="rotate(-80 242.6 327.2)">v5.142.3</text><text x="248.5" y="327.2" font-size="4" text-anchor="end" fill="#d6a382" transform="rotate(-80 248.5 327.2)">v5.142.4</text><text x="254.5" y="327.2" font-size="4" text-anchor="end" fill="#aa4400" transform="rotate(-80 254.5 327.2)">v5.143.0</text><text x="260.4" y="327.2" font-size="4" text-anchor="end" fill="#d6a382" transform="rotate(-80 260.4 327.2)">v5.143.1</text><text x="266.4" y="327.2" font-size="4" text-anchor="end" fill="#d6a382" transform="rotate(-80 266.4 327.2)">v5.143.2</text><text x="272.4" y="327.2" font-size="4" text-anchor="end" fill="#d6a382" transform="rotate(-80 272.4 327.2)">v5.143.3</text><text x="278.3" y="327.2" font-size="4" text-anchor="end" fill="#d6a382" transform="rotate(-80 278.3 327.2)">v5.143.4</text><text x="284.3" y="327.2" font-size="4" text-anchor="end" fill="#d6a382" transform="rotate(-80 284.3 327.2)">v5.143.5</text><text x="290.2" y="327.2" font-size="4" text-anchor="end" fill="#d6a382" transform="rotate(-80 290.2 327.2)">v5.143.6</text><text x="296.2" y="327.2" font-size="4" text-anchor="end" fill="#d6a382" transform="rotate(-80 296.2 327.2)">v5.143.7</text><text x="302.1" y="327.2" font-size="4" text-anchor="end" fill="#d6a382" transform="rotate(-80 302.1 327.2)">v5.143.8</text><text x="308.1" y="327.2" font-size="4" text-anchor="end" fill="#d6a382" transform="rotate(-80 308.1 327.2)">v5.143.9</text><text x="314.0" y="327.2" font-size="4" text-anchor="end" fill="#d6a382" transform="rotate(-80 314.0 327.2)">v5.143.10</text><text x="320.0" y="327.2" font-size="4" text-anchor="end" fill="#d6a382" transform="rotate(-80 320.0 327.2)">v5.143.11</text><text x="325.9" y="327.2" font-size="4" text-anchor="end" fill="#d6a382" transform="rotate(-80 325.9 327.2)">v5.143.12</text><text x="331.9" y="327.2" font-size="4" text-anchor="end" fill="#d6a382" transform="rotate(-80 331.9 327.2)">v5.143.15</text><text x="337.8" y="327.2" font-size="4" text-anchor="end" fill="#d6a382" transform="rotate(-80 337.8 327.2)">v5.143.16</text><text x="343.8" y="327.2" font-size="4" text-anchor="end" fill="#d6a382" transform="rotate(-80 343.8 327.2)">v5.143.20</text><text x="349.7" y="327.2" font-size="4" text-anchor="end" fill="#d6a382" transform="rotate(-80 349.7 327.2)">v5.143.21</text><text x="355.7" y="327.2" font-size="4" text-anchor="end" fill="#d6a382" transform="rotate(-80 355.7 327.2)">v5.143.22</text><text x="361.6" y="327.2" font-size="4" text-anchor="end" fill="#d6a382" transform="rotate(-80 361.6 327.2)">v5.143.23</text><text x="367.6" y="327.2" font-size="4" text-anchor="end" fill="#d6a382" transform="rotate(-80 367.6 327.2)">v5.143.24</text><text x="373.6" y="327.2" font-size="4" text-anchor="end" fill="#d6a382" transform="rotate(-80 373.6 327.2)">v5.143.25</text><text x="379.5" y="327.2" font-size="4" text-anchor="end" fill="#d6a382" transform="rotate(-80 379.5 327.2)">v5.143.26</text><text x="385.5" y="327.2" font-size="4" text-anchor="end" fill="#d6a382" transform="rotate(-80 385.5 327.2)">v5.143.27</text><text x="391.4" y="327.2" font-size="4" text-anchor="end" fill="#d6a382" transform="rotate(-80 391.4 327.2)">v5.143.28</text><text x="397.4" y="327.2" font-size="4" text-anchor="end" fill="#d6a382" transform="rotate(-80 397.4 327.2)">v5.143.29</text><text x="403.3" y="327.2" font-size="4" text-anchor="end" fill="#d6a382" transform="rotate(-80 403.3 327.2)">v5.143.30</text><text x="409.3" y="327.2" font-size="4" text-anchor="end" fill="#d6a382" transform="rotate(-80 409.3 327.2)">v5.143.31</text><text x="415.2" y="327.2" font-size="4" text-anchor="end" fill="#d6a382" transform="rotate(-80 415.2 327.2)">v5.143.33</text><text x="421.2" y="327.2" font-size="4" text-anchor="end" fill="#d6a382" transform="rotate(-80 421.2 327.2)">v5.143.34</text><text x="427.1" y="327.2" font-size="4" text-anchor="end" fill="#d6a382" transform="rotate(-80 427.1 327.2)">v5.143.35</text><text x="433.1" y="327.2" font-size="4" text-anchor="end" fill="#aa4400" transform="rotate(-80 433.1 327.2)">v5.144.0</text><text x="439.0" y="327.2" font-size="4" text-anchor="end" fill="#d6a382" transform="rotate(-80 439.0 327.2)">v5.144.1</text><text x="445.0" y="327.2" font-size="4" text-anchor="end" fill="#d6a382" transform="rotate(-80 445.0 327.2)">v5.144.2</text><text x="450.9" y="327.2" font-size="4" text-anchor="end" fill="#d6a382" transform="rotate(-80 450.9 327.2)">v5.144.3</text><text x="456.9" y="327.2" font-size="4" text-anchor="end" fill="#d6a382" transform="rotate(-80 456.9 327.2)">v5.144.4</text><text x="462.8" y="327.2" font-size="4" text-anchor="end" fill="#d6a382" transform="rotate(-80 462.8 327.2)">v5.144.5</text><text x="468.8" y="327.2" font-size="4" text-anchor="end" fill="#d6a382" transform="rotate(-80 468.8 327.2)">v5.144.7</text><text x="474.8" y="327.2" font-size="4" text-anchor="end" fill="#d6a382" transform="rotate(-80 474.8 327.2)">v5.144.8</text><text x="480.7" y="327.2" font-size="4" text-anchor="end" fill="#aa4400" transform="rotate(-80 480.7 327.2)">v5.145.0</text><text x="486.7" y="327.2" font-size="4" text-anchor="end" fill="#d6a382" transform="rotate(-80 486.7 327.2)">v5.145.1</text><text x="492.6" y="327.2" font-size="4" text-anchor="end" fill="#d6a382" transform="rotate(-80 492.6 327.2)">v5.145.2</text><text x="498.6" y="327.2" font-size="4" text-anchor="end" fill="#d6a382" transform="rotate(-80 498.6 327.2)">v5.145.3</text><text x="504.5" y="327.2" font-size="4" text-anchor="end" fill="#d6a382" transform="rotate(-80 504.5 327.2)">v5.145.4</text><text x="510.5" y="327.2" font-size="4" text-anchor="end" fill="#d6a382" transform="rotate(-80 510.5 327.2)">v5.145.6</text><text x="516.4" y="327.2" font-size="4" text-anchor="end" fill="#aa4400" transform="rotate(-80 516.4 327.2)">v5.146.0</text><text x="522.4" y="327.2" font-size="4" text-anchor="end" fill="#aa4400" transform="rotate(-80 522.4 327.2)">v5.147.0</text><text x="528.3" y="327.2" font-size="4" text-anchor="end" fill="#d6a382" transform="rotate(-80 528.3 327.2)">v5.147.1</text><text x="534.3" y="327.2" font-size="4" text-anchor="end" fill="#d6a382" transform="rotate(-80 534.3 327.2)">v5.147.2</text><text x="540.2" y="327.2" font-size="4" text-anchor="end" fill="#d6a382" transform="rotate(-80 540.2 327.2)">v5.147.3</text><text x="546.2" y="327.2" font-size="4" text-anchor="end" fill="#d6a382" transform="rotate(-80 546.2 327.2)">v5.147.4</text><text x="552.1" y="327.2" font-size="4" text-anchor="end" fill="#d6a382" transform="rotate(-80 552.1 327.2)">v5.147.5</text><text x="558.1" y="327.2" font-size="4" text-anchor="end" fill="#d6a382" transform="rotate(-80 558.1 327.2)">v5.147.6</text><text x="564.0" y="327.2" font-size="4" text-anchor="end" fill="#d6a382" transform="rotate(-80 564.0 327.2)">v5.147.7</text><text x="570.0" y="327.2" font-size="4" text-anchor="end" fill="#d6a382" transform="rotate(-80 570.0 327.2)">v5.147.8</text><path d="M64.0,80.7 L70.0,80.2 L75.9,79.8 L450.9,73.7 L456.9,74.3 L462.8,73.0 L468.8,73.7 L474.8,73.4 L480.7,73.6 L486.7,74.1 L492.6,73.8 L498.6,72.8 L504.5,72.9 L510.5,74.0 L516.4,74.5 L522.4,73.8 L528.3,73.0 L534.3,73.8 L540.2,74.8 L546.2,73.2 L552.1,73.0 L558.1,73.4 L564.0,74.9 L570.0,73.5" fill="none" stroke="#4477AA" stroke-width="1.6"/><circle cx="64.0" cy="80.7" r="2" fill="#4477AA"/><circle cx="70.0" cy="80.2" r="2" fill="#4477AA"/><circle cx="75.9" cy="79.8" r="2" fill="#4477AA"/><circle cx="450.9" cy="73.7" r="2" fill="#4477AA"/><circle cx="456.9" cy="74.3" r="2" fill="#4477AA"/><circle cx="462.8" cy="73.0" r="2" fill="#4477AA"/><circle cx="468.8" cy="73.7" r="2" fill="#4477AA"/><circle cx="474.8" cy="73.4" r="2" fill="#4477AA"/><circle cx="480.7" cy="73.6" r="2" fill="#4477AA"/><circle cx="486.7" cy="74.1" r="2" fill="#4477AA"/><circle cx="492.6" cy="73.8" r="2" fill="#4477AA"/><circle cx="498.6" cy="72.8" r="2" fill="#4477AA"/><circle cx="504.5" cy="72.9" r="2" fill="#4477AA"/><circle cx="510.5" cy="74.0" r="2" fill="#4477AA"/><circle cx="516.4" cy="74.5" r="2" fill="#4477AA"/><circle cx="522.4" cy="73.8" r="2" fill="#4477AA"/><circle cx="528.3" cy="73.0" r="2" fill="#4477AA"/><circle cx="534.3" cy="73.8" r="2" fill="#4477AA"/><circle cx="540.2" cy="74.8" r="2" fill="#4477AA"/><circle cx="546.2" cy="73.2" r="2" fill="#4477AA"/><circle cx="552.1" cy="73.0" r="2" fill="#4477AA"/><circle cx="558.1" cy="73.4" r="2" fill="#4477AA"/><circle cx="564.0" cy="74.9" r="2" fill="#4477AA"/><circle cx="570.0" cy="73.5" r="2" fill="#4477AA"/><rect x="580" y="34" width="10" height="10" fill="#4477AA"/><text x="594" y="43" font-size="10" fill="#444">chain-10</text><path d="M64.0,81.1 L70.0,81.0 L75.9,80.9 L450.9,73.6 L456.9,75.5 L462.8,73.5 L468.8,74.7 L474.8,73.8 L480.7,74.0 L486.7,74.4 L492.6,74.4 L498.6,73.6 L504.5,74.5 L510.5,74.7 L516.4,75.4 L522.4,74.4 L528.3,74.5 L534.3,73.8 L540.2,75.2 L546.2,74.1 L552.1,74.2 L558.1,74.9 L564.0,75.3 L570.0,73.7" fill="none" stroke="#EE6677" stroke-width="1.6"/><circle cx="64.0" cy="81.1" r="2" fill="#EE6677"/><circle cx="70.0" cy="81.0" r="2" fill="#EE6677"/><circle cx="75.9" cy="80.9" r="2" fill="#EE6677"/><circle cx="450.9" cy="73.6" r="2" fill="#EE6677"/><circle cx="456.9" cy="75.5" r="2" fill="#EE6677"/><circle cx="462.8" cy="73.5" r="2" fill="#EE6677"/><circle cx="468.8" cy="74.7" r="2" fill="#EE6677"/><circle cx="474.8" cy="73.8" r="2" fill="#EE6677"/><circle cx="480.7" cy="74.0" r="2" fill="#EE6677"/><circle cx="486.7" cy="74.4" r="2" fill="#EE6677"/><circle cx="492.6" cy="74.4" r="2" fill="#EE6677"/><circle cx="498.6" cy="73.6" r="2" fill="#EE6677"/><circle cx="504.5" cy="74.5" r="2" fill="#EE6677"/><circle cx="510.5" cy="74.7" r="2" fill="#EE6677"/><circle cx="516.4" cy="75.4" r="2" fill="#EE6677"/><circle cx="522.4" cy="74.4" r="2" fill="#EE6677"/><circle cx="528.3" cy="74.5" r="2" fill="#EE6677"/><circle cx="534.3" cy="73.8" r="2" fill="#EE6677"/><circle cx="540.2" cy="75.2" r="2" fill="#EE6677"/><circle cx="546.2" cy="74.1" r="2" fill="#EE6677"/><circle cx="552.1" cy="74.2" r="2" fill="#EE6677"/><circle cx="558.1" cy="74.9" r="2" fill="#EE6677"/><circle cx="564.0" cy="75.3" r="2" fill="#EE6677"/><circle cx="570.0" cy="73.7" r="2" fill="#EE6677"/><rect x="580" y="49" width="10" height="10" fill="#EE6677"/><text x="594" y="58" font-size="10" fill="#444">chain-50</text><path d="M64.0,81.4 L70.0,81.1 L75.9,81.1 L450.9,74.2 L456.9,76.4 L462.8,74.2 L468.8,75.1 L474.8,74.1 L480.7,74.3 L486.7,74.5 L492.6,74.4 L498.6,73.8 L504.5,74.4 L510.5,75.0 L516.4,75.7 L522.4,74.1 L528.3,74.8 L534.3,74.2 L540.2,76.0 L546.2,74.3 L552.1,75.1 L558.1,76.0 L564.0,75.9 L570.0,74.2" fill="none" stroke="#228833" stroke-width="1.6"/><circle cx="64.0" cy="81.4" r="2" fill="#228833"/><circle cx="70.0" cy="81.1" r="2" fill="#228833"/><circle cx="75.9" cy="81.1" r="2" fill="#228833"/><circle cx="450.9" cy="74.2" r="2" fill="#228833"/><circle cx="456.9" cy="76.4" r="2" fill="#228833"/><circle cx="462.8" cy="74.2" r="2" fill="#228833"/><circle cx="468.8" cy="75.1" r="2" fill="#228833"/><circle cx="474.8" cy="74.1" r="2" fill="#228833"/><circle cx="480.7" cy="74.3" r="2" fill="#228833"/><circle cx="486.7" cy="74.5" r="2" fill="#228833"/><circle cx="492.6" cy="74.4" r="2" fill="#228833"/><circle cx="498.6" cy="73.8" r="2" fill="#228833"/><circle cx="504.5" cy="74.4" r="2" fill="#228833"/><circle cx="510.5" cy="75.0" r="2" fill="#228833"/><circle cx="516.4" cy="75.7" r="2" fill="#228833"/><circle cx="522.4" cy="74.1" r="2" fill="#228833"/><circle cx="528.3" cy="74.8" r="2" fill="#228833"/><circle cx="534.3" cy="74.2" r="2" fill="#228833"/><circle cx="540.2" cy="76.0" r="2" fill="#228833"/><circle cx="546.2" cy="74.3" r="2" fill="#228833"/><circle cx="552.1" cy="75.1" r="2" fill="#228833"/><circle cx="558.1" cy="76.0" r="2" fill="#228833"/><circle cx="564.0" cy="75.9" r="2" fill="#228833"/><circle cx="570.0" cy="74.2" r="2" fill="#228833"/><rect x="580" y="64" width="10" height="10" fill="#228833"/><text x="594" y="73" font-size="10" fill="#444">chain-200</text><path d="M64.0,82.8 L70.0,82.2 L75.9,82.0 L450.9,75.0 L456.9,77.2 L462.8,74.9 L468.8,75.7 L474.8,74.9 L480.7,75.0 L486.7,75.3 L492.6,75.5 L498.6,74.9 L504.5,75.0 L510.5,76.2 L516.4,76.5 L522.4,75.3 L528.3,76.0 L534.3,75.2 L540.2,77.5 L546.2,75.8 L552.1,75.5 L558.1,77.0 L564.0,76.5 L570.0,75.4" fill="none" stroke="#CCBB44" stroke-width="1.6"/><circle cx="64.0" cy="82.8" r="2" fill="#CCBB44"/><circle cx="70.0" cy="82.2" r="2" fill="#CCBB44"/><circle cx="75.9" cy="82.0" r="2" fill="#CCBB44"/><circle cx="450.9" cy="75.0" r="2" fill="#CCBB44"/><circle cx="456.9" cy="77.2" r="2" fill="#CCBB44"/><circle cx="462.8" cy="74.9" r="2" fill="#CCBB44"/><circle cx="468.8" cy="75.7" r="2" fill="#CCBB44"/><circle cx="474.8" cy="74.9" r="2" fill="#CCBB44"/><circle cx="480.7" cy="75.0" r="2" fill="#CCBB44"/><circle cx="486.7" cy="75.3" r="2" fill="#CCBB44"/><circle cx="492.6" cy="75.5" r="2" fill="#CCBB44"/><circle cx="498.6" cy="74.9" r="2" fill="#CCBB44"/><circle cx="504.5" cy="75.0" r="2" fill="#CCBB44"/><circle cx="510.5" cy="76.2" r="2" fill="#CCBB44"/><circle cx="516.4" cy="76.5" r="2" fill="#CCBB44"/><circle cx="522.4" cy="75.3" r="2" fill="#CCBB44"/><circle cx="528.3" cy="76.0" r="2" fill="#CCBB44"/><circle cx="534.3" cy="75.2" r="2" fill="#CCBB44"/><circle cx="540.2" cy="77.5" r="2" fill="#CCBB44"/><circle cx="546.2" cy="75.8" r="2" fill="#CCBB44"/><circle cx="552.1" cy="75.5" r="2" fill="#CCBB44"/><circle cx="558.1" cy="77.0" r="2" fill="#CCBB44"/><circle cx="564.0" cy="76.5" r="2" fill="#CCBB44"/><circle cx="570.0" cy="75.4" r="2" fill="#CCBB44"/><rect x="580" y="79" width="10" height="10" fill="#CCBB44"/><text x="594" y="88" font-size="10" fill="#444">chain-1000</text><path d="M64.0,100.3 L70.0,100.5 L75.9,100.3 L450.9,98.8 L456.9,102.3 L462.8,99.0 L468.8,100.0 L474.8,99.4 L480.7,99.6 L486.7,100.1 L492.6,99.8 L498.6,99.0 L504.5,99.5 L510.5,100.3 L516.4,101.7 L522.4,99.1 L528.3,99.9 L534.3,99.0 L540.2,102.1 L546.2,99.6 L552.1,99.9 L558.1,100.3 L564.0,101.8 L570.0,99.1" fill="none" stroke="#66CCEE" stroke-width="1.6"/><circle cx="64.0" cy="100.3" r="2" fill="#66CCEE"/><circle cx="70.0" cy="100.5" r="2" fill="#66CCEE"/><circle cx="75.9" cy="100.3" r="2" fill="#66CCEE"/><circle cx="450.9" cy="98.8" r="2" fill="#66CCEE"/><circle cx="456.9" cy="102.3" r="2" fill="#66CCEE"/><circle cx="462.8" cy="99.0" r="2" fill="#66CCEE"/><circle cx="468.8" cy="100.0" r="2" fill="#66CCEE"/><circle cx="474.8" cy="99.4" r="2" fill="#66CCEE"/><circle cx="480.7" cy="99.6" r="2" fill="#66CCEE"/><circle cx="486.7" cy="100.1" r="2" fill="#66CCEE"/><circle cx="492.6" cy="99.8" r="2" fill="#66CCEE"/><circle cx="498.6" cy="99.0" r="2" fill="#66CCEE"/><circle cx="504.5" cy="99.5" r="2" fill="#66CCEE"/><circle cx="510.5" cy="100.3" r="2" fill="#66CCEE"/><circle cx="516.4" cy="101.7" r="2" fill="#66CCEE"/><circle cx="522.4" cy="99.1" r="2" fill="#66CCEE"/><circle cx="528.3" cy="99.9" r="2" fill="#66CCEE"/><circle cx="534.3" cy="99.0" r="2" fill="#66CCEE"/><circle cx="540.2" cy="102.1" r="2" fill="#66CCEE"/><circle cx="546.2" cy="99.6" r="2" fill="#66CCEE"/><circle cx="552.1" cy="99.9" r="2" fill="#66CCEE"/><circle cx="558.1" cy="100.3" r="2" fill="#66CCEE"/><circle cx="564.0" cy="101.8" r="2" fill="#66CCEE"/><circle cx="570.0" cy="99.1" r="2" fill="#66CCEE"/><rect x="580" y="94" width="10" height="10" fill="#66CCEE"/><text x="594" y="103" font-size="10" fill="#444">dense-10</text><path d="M64.0,136.3 L70.0,136.1 L75.9,136.4 L450.9,133.8 L456.9,138.2 L462.8,133.9 L468.8,135.5 L474.8,133.9 L480.7,135.0 L486.7,134.5 L492.6,135.4 L498.6,134.1 L504.5,134.4 L510.5,135.4 L516.4,137.1 L522.4,134.0 L528.3,135.4 L534.3,134.6 L540.2,137.8 L546.2,134.9 L552.1,135.2 L558.1,136.2 L564.0,137.9 L570.0,133.8" fill="none" stroke="#AA3377" stroke-width="1.6"/><circle cx="64.0" cy="136.3" r="2" fill="#AA3377"/><circle cx="70.0" cy="136.1" r="2" fill="#AA3377"/><circle cx="75.9" cy="136.4" r="2" fill="#AA3377"/><circle cx="450.9" cy="133.8" r="2" fill="#AA3377"/><circle cx="456.9" cy="138.2" r="2" fill="#AA3377"/><circle cx="462.8" cy="133.9" r="2" fill="#AA3377"/><circle cx="468.8" cy="135.5" r="2" fill="#AA3377"/><circle cx="474.8" cy="133.9" r="2" fill="#AA3377"/><circle cx="480.7" cy="135.0" r="2" fill="#AA3377"/><circle cx="486.7" cy="134.5" r="2" fill="#AA3377"/><circle cx="492.6" cy="135.4" r="2" fill="#AA3377"/><circle cx="498.6" cy="134.1" r="2" fill="#AA3377"/><circle cx="504.5" cy="134.4" r="2" fill="#AA3377"/><circle cx="510.5" cy="135.4" r="2" fill="#AA3377"/><circle cx="516.4" cy="137.1" r="2" fill="#AA3377"/><circle cx="522.4" cy="134.0" r="2" fill="#AA3377"/><circle cx="528.3" cy="135.4" r="2" fill="#AA3377"/><circle cx="534.3" cy="134.6" r="2" fill="#AA3377"/><circle cx="540.2" cy="137.8" r="2" fill="#AA3377"/><circle cx="546.2" cy="134.9" r="2" fill="#AA3377"/><circle cx="552.1" cy="135.2" r="2" fill="#AA3377"/><circle cx="558.1" cy="136.2" r="2" fill="#AA3377"/><circle cx="564.0" cy="137.9" r="2" fill="#AA3377"/><circle cx="570.0" cy="133.8" r="2" fill="#AA3377"/><rect x="580" y="109" width="10" height="10" fill="#AA3377"/><text x="594" y="118" font-size="10" fill="#444">dense-50</text><path d="M64.0,166.7 L70.0,166.3 L75.9,166.1 L450.9,167.3 L456.9,171.8 L462.8,167.7 L468.8,180.8 L474.8,175.4 L480.7,167.3 L486.7,173.9 L492.6,167.3 L498.6,164.1 L504.5,168.7 L510.5,169.3 L516.4,171.6 L522.4,172.6 L528.3,170.6 L534.3,176.6 L540.2,178.0 L546.2,170.8 L552.1,171.2 L558.1,173.5 L564.0,171.5 L570.0,175.4" fill="none" stroke="#BBBBBB" stroke-width="1.6"/><circle cx="64.0" cy="166.7" r="2" fill="#BBBBBB"/><circle cx="70.0" cy="166.3" r="2" fill="#BBBBBB"/><circle cx="75.9" cy="166.1" r="2" fill="#BBBBBB"/><circle cx="450.9" cy="167.3" r="2" fill="#BBBBBB"/><circle cx="456.9" cy="171.8" r="2" fill="#BBBBBB"/><circle cx="462.8" cy="167.7" r="2" fill="#BBBBBB"/><circle cx="468.8" cy="180.8" r="2" fill="#BBBBBB"/><circle cx="474.8" cy="175.4" r="2" fill="#BBBBBB"/><circle cx="480.7" cy="167.3" r="2" fill="#BBBBBB"/><circle cx="486.7" cy="173.9" r="2" fill="#BBBBBB"/><circle cx="492.6" cy="167.3" r="2" fill="#BBBBBB"/><circle cx="498.6" cy="164.1" r="2" fill="#BBBBBB"/><circle cx="504.5" cy="168.7" r="2" fill="#BBBBBB"/><circle cx="510.5" cy="169.3" r="2" fill="#BBBBBB"/><circle cx="516.4" cy="171.6" r="2" fill="#BBBBBB"/><circle cx="522.4" cy="172.6" r="2" fill="#BBBBBB"/><circle cx="528.3" cy="170.6" r="2" fill="#BBBBBB"/><circle cx="534.3" cy="176.6" r="2" fill="#BBBBBB"/><circle cx="540.2" cy="178.0" r="2" fill="#BBBBBB"/><circle cx="546.2" cy="170.8" r="2" fill="#BBBBBB"/><circle cx="552.1" cy="171.2" r="2" fill="#BBBBBB"/><circle cx="558.1" cy="173.5" r="2" fill="#BBBBBB"/><circle cx="564.0" cy="171.5" r="2" fill="#BBBBBB"/><circle cx="570.0" cy="175.4" r="2" fill="#BBBBBB"/><rect x="580" y="124" width="10" height="10" fill="#BBBBBB"/><text x="594" y="133" font-size="10" fill="#444">dense-200</text><path d="M64.0,122.1 L70.0,122.2 L75.9,122.3 L450.9,119.4 L456.9,122.9 L462.8,119.2 L468.8,120.4 L474.8,119.1 L480.7,119.8 L486.7,120.0 L492.6,120.5 L498.6,119.3 L504.5,120.5 L510.5,120.6 L516.4,121.9 L522.4,119.4 L528.3,120.7 L534.3,119.3 L540.2,122.7 L546.2,120.1 L552.1,120.6 L558.1,121.0 L564.0,121.8 L570.0,119.6" fill="none" stroke="#222255" stroke-width="1.6"/><circle cx="64.0" cy="122.1" r="2" fill="#222255"/><circle cx="70.0" cy="122.2" r="2" fill="#222255"/><circle cx="75.9" cy="122.3" r="2" fill="#222255"/><circle cx="450.9" cy="119.4" r="2" fill="#222255"/><circle cx="456.9" cy="122.9" r="2" fill="#222255"/><circle cx="462.8" cy="119.2" r="2" fill="#222255"/><circle cx="468.8" cy="120.4" r="2" fill="#222255"/><circle cx="474.8" cy="119.1" r="2" fill="#222255"/><circle cx="480.7" cy="119.8" r="2" fill="#222255"/><circle cx="486.7" cy="120.0" r="2" fill="#222255"/><circle cx="492.6" cy="120.5" r="2" fill="#222255"/><circle cx="498.6" cy="119.3" r="2" fill="#222255"/><circle cx="504.5" cy="120.5" r="2" fill="#222255"/><circle cx="510.5" cy="120.6" r="2" fill="#222255"/><circle cx="516.4" cy="121.9" r="2" fill="#222255"/><circle cx="522.4" cy="119.4" r="2" fill="#222255"/><circle cx="528.3" cy="120.7" r="2" fill="#222255"/><circle cx="534.3" cy="119.3" r="2" fill="#222255"/><circle cx="540.2" cy="122.7" r="2" fill="#222255"/><circle cx="546.2" cy="120.1" r="2" fill="#222255"/><circle cx="552.1" cy="120.6" r="2" fill="#222255"/><circle cx="558.1" cy="121.0" r="2" fill="#222255"/><circle cx="564.0" cy="121.8" r="2" fill="#222255"/><circle cx="570.0" cy="119.6" r="2" fill="#222255"/><rect x="580" y="139" width="10" height="10" fill="#222255"/><text x="594" y="148" font-size="10" fill="#444">hub-50</text><path d="M64.0,149.7 L70.0,149.6 L75.9,149.2 L450.9,147.4 L456.9,152.0 L462.8,147.7 L468.8,149.5 L474.8,147.7 L480.7,148.2 L486.7,148.3 L492.6,149.1 L498.6,147.7 L504.5,148.3 L510.5,149.4 L516.4,151.4 L522.4,147.6 L528.3,149.2 L534.3,148.0 L540.2,152.6 L546.2,148.5 L552.1,149.0 L558.1,149.9 L564.0,151.8 L570.0,147.6" fill="none" stroke="#225555" stroke-width="1.6"/><circle cx="64.0" cy="149.7" r="2" fill="#225555"/><circle cx="70.0" cy="149.6" r="2" fill="#225555"/><circle cx="75.9" cy="149.2" r="2" fill="#225555"/><circle cx="450.9" cy="147.4" r="2" fill="#225555"/><circle cx="456.9" cy="152.0" r="2" fill="#225555"/><circle cx="462.8" cy="147.7" r="2" fill="#225555"/><circle cx="468.8" cy="149.5" r="2" fill="#225555"/><circle cx="474.8" cy="147.7" r="2" fill="#225555"/><circle cx="480.7" cy="148.2" r="2" fill="#225555"/><circle cx="486.7" cy="148.3" r="2" fill="#225555"/><circle cx="492.6" cy="149.1" r="2" fill="#225555"/><circle cx="498.6" cy="147.7" r="2" fill="#225555"/><circle cx="504.5" cy="148.3" r="2" fill="#225555"/><circle cx="510.5" cy="149.4" r="2" fill="#225555"/><circle cx="516.4" cy="151.4" r="2" fill="#225555"/><circle cx="522.4" cy="147.6" r="2" fill="#225555"/><circle cx="528.3" cy="149.2" r="2" fill="#225555"/><circle cx="534.3" cy="148.0" r="2" fill="#225555"/><circle cx="540.2" cy="152.6" r="2" fill="#225555"/><circle cx="546.2" cy="148.5" r="2" fill="#225555"/><circle cx="552.1" cy="149.0" r="2" fill="#225555"/><circle cx="558.1" cy="149.9" r="2" fill="#225555"/><circle cx="564.0" cy="151.8" r="2" fill="#225555"/><circle cx="570.0" cy="147.6" r="2" fill="#225555"/><rect x="580" y="154" width="10" height="10" fill="#225555"/><text x="594" y="163" font-size="10" fill="#444">hub-200</text><path d="M64.0,149.8 L70.0,149.6 L75.9,149.1 L450.9,147.6 L456.9,152.3 L462.8,147.7 L468.8,149.0 L474.8,147.5 L480.7,148.5 L486.7,148.8 L492.6,149.2 L498.6,147.8 L504.5,148.3 L510.5,149.4 L516.4,151.3 L522.4,147.5 L528.3,149.6 L534.3,148.5 L540.2,152.1 L546.2,148.0 L552.1,149.3 L558.1,149.9 L564.0,151.4 L570.0,148.1" fill="none" stroke="#552222" stroke-width="1.6"/><circle cx="64.0" cy="149.8" r="2" fill="#552222"/><circle cx="70.0" cy="149.6" r="2" fill="#552222"/><circle cx="75.9" cy="149.1" r="2" fill="#552222"/><circle cx="450.9" cy="147.6" r="2" fill="#552222"/><circle cx="456.9" cy="152.3" r="2" fill="#552222"/><circle cx="462.8" cy="147.7" r="2" fill="#552222"/><circle cx="468.8" cy="149.0" r="2" fill="#552222"/><circle cx="474.8" cy="147.5" r="2" fill="#552222"/><circle cx="480.7" cy="148.5" r="2" fill="#552222"/><circle cx="486.7" cy="148.8" r="2" fill="#552222"/><circle cx="492.6" cy="149.2" r="2" fill="#552222"/><circle cx="498.6" cy="147.8" r="2" fill="#552222"/><circle cx="504.5" cy="148.3" r="2" fill="#552222"/><circle cx="510.5" cy="149.4" r="2" fill="#552222"/><circle cx="516.4" cy="151.3" r="2" fill="#552222"/><circle cx="522.4" cy="147.5" r="2" fill="#552222"/><circle cx="528.3" cy="149.6" r="2" fill="#552222"/><circle cx="534.3" cy="148.5" r="2" fill="#552222"/><circle cx="540.2" cy="152.1" r="2" fill="#552222"/><circle cx="546.2" cy="148.0" r="2" fill="#552222"/><circle cx="552.1" cy="149.3" r="2" fill="#552222"/><circle cx="558.1" cy="149.9" r="2" fill="#552222"/><circle cx="564.0" cy="151.4" r="2" fill="#552222"/><circle cx="570.0" cy="148.1" r="2" fill="#552222"/><rect x="580" y="169" width="10" height="10" fill="#552222"/><text x="594" y="178" font-size="10" fill="#444">hooked-200</text></svg>