<svg width="720" height="372" xmlns="http://www.w3.org/2000/svg"><rect width="720" height="372" fill="#ffffff"/><text x="64" y="20" font-size="15" font-weight="bold" fill="#333">probable_action_exits() — ops/sec (linear scale, last 50) by PR / release, c8g.medium</text><line x1="74.3" y1="34" x2="74.3" y2="324" stroke="#e8e8e8"/><line x1="84.7" y1="34" x2="84.7" y2="324" stroke="#e8e8e8"/><line x1="95.0" y1="34" x2="95.0" y2="324" stroke="#e8e8e8"/><line x1="105.3" y1="34" x2="105.3" y2="324" stroke="#e8e8e8"/><line x1="126.0" y1="34" x2="126.0" y2="324" stroke="#e8e8e8"/><line x1="136.3" y1="34" x2="136.3" y2="324" stroke="#e8e8e8"/><line x1="146.6" y1="34" x2="146.6" y2="324" stroke="#e8e8e8"/><line x1="156.9" y1="34" x2="156.9" y2="324" stroke="#e8e8e8"/><line x1="177.6" y1="34" x2="177.6" y2="324" stroke="#e8e8e8"/><line x1="187.9" y1="34" x2="187.9" y2="324" stroke="#e8e8e8"/><line x1="198.2" y1="34" x2="198.2" y2="324" stroke="#e8e8e8"/><line x1="208.6" y1="34" x2="208.6" y2="324" stroke="#e8e8e8"/><line x1="229.2" y1="34" x2="229.2" y2="324" stroke="#e8e8e8"/><line x1="239.6" y1="34" x2="239.6" y2="324" stroke="#e8e8e8"/><line x1="249.9" y1="34" x2="249.9" y2="324" stroke="#e8e8e8"/><line x1="260.2" y1="34" x2="260.2" y2="324" stroke="#e8e8e8"/><line x1="280.9" y1="34" x2="280.9" y2="324" stroke="#e8e8e8"/><line x1="291.2" y1="34" x2="291.2" y2="324" stroke="#e8e8e8"/><line x1="301.5" y1="34" x2="301.5" y2="324" stroke="#e8e8e8"/><line x1="311.8" y1="34" x2="311.8" y2="324" stroke="#e8e8e8"/><line x1="332.5" y1="34" x2="332.5" y2="324" stroke="#e8e8e8"/><line x1="342.8" y1="34" x2="342.8" y2="324" stroke="#e8e8e8"/><line x1="353.1" y1="34" x2="353.1" y2="324" stroke="#e8e8e8"/><line x1="363.5" y1="34" x2="363.5" y2="324" stroke="#e8e8e8"/><line x1="384.1" y1="34" x2="384.1" y2="324" stroke="#e8e8e8"/><line x1="394.4" y1="34" x2="394.4" y2="324" stroke="#e8e8e8"/><line x1="404.8" y1="34" x2="404.8" y2="324" stroke="#e8e8e8"/><line x1="415.1" y1="34" x2="415.1" y2="324" stroke="#e8e8e8"/><line x1="435.8" y1="34" x2="435.8" y2="324" stroke="#e8e8e8"/><line x1="446.1" y1="34" x2="446.1" y2="324" stroke="#e8e8e8"/><line x1="456.4" y1="34" x2="456.4" y2="324" stroke="#e8e8e8"/><line x1="466.7" y1="34" x2="466.7" y2="324" stroke="#e8e8e8"/><line x1="487.4" y1="34" x2="487.4" y2="324" stroke="#e8e8e8"/><line x1="497.7" y1="34" x2="497.7" y2="324" stroke="#e8e8e8"/><line x1="508.0" y1="34" x2="508.0" y2="324" stroke="#e8e8e8"/><line x1="518.4" y1="34" x2="518.4" y2="324" stroke="#e8e8e8"/><line x1="539.0" y1="34" x2="539.0" y2="324" stroke="#e8e8e8"/><line x1="549.3" y1="34" x2="549.3" y2="324" stroke="#e8e8e8"/><line x1="559.7" y1="34" x2="559.7" y2="324" stroke="#e8e8e8"/><line x1="570.0" y1="34" x2="570.0" y2="324" stroke="#e8e8e8"/><line x1="64.0" y1="34" x2="64.0" y2="324" stroke="#d0d0d0"/><line x1="115.6" y1="34" x2="115.6" y2="324" stroke="#d0d0d0"/><line x1="167.3" y1="34" x2="167.3" y2="324" stroke="#d0d0d0"/><line x1="218.9" y1="34" x2="218.9" y2="324" stroke="#d0d0d0"/><line x1="270.5" y1="34" x2="270.5" y2="324" stroke="#d0d0d0"/><line x1="322.2" y1="34" x2="322.2" y2="324" stroke="#d0d0d0"/><line x1="373.8" y1="34" x2="373.8" y2="324" stroke="#d0d0d0"/><line x1="425.4" y1="34" x2="425.4" y2="324" stroke="#d0d0d0"/><line x1="477.1" y1="34" x2="477.1" y2="324" stroke="#d0d0d0"/><line x1="528.7" y1="34" x2="528.7" y2="324" stroke="#d0d0d0"/><line x1="64" y1="324.0" x2="570" y2="324.0" stroke="#b0b0b0"/><text x="58" y="328.0" font-size="10" text-anchor="end" fill="#888">-16.4k</text><line x1="64" y1="266.0" x2="570" y2="266.0" stroke="#b0b0b0"/><text x="58" y="270.0" font-size="10" text-anchor="end" fill="#888">26.1k</text><line x1="64" y1="208.0" x2="570" y2="208.0" stroke="#b0b0b0"/><text x="58" y="212.0" font-size="10" text-anchor="end" fill="#888">68.7k</text><line x1="64" y1="150.0" x2="570" y2="150.0" stroke="#b0b0b0"/><text x="58" y="154.0" font-size="10" text-anchor="end" fill="#888">111.3k</text><line x1="64" y1="92.0" x2="570" y2="92.0" stroke="#b0b0b0"/><text x="58" y="96.0" font-size="10" text-anchor="end" fill="#888">153.8k</text><line x1="64" y1="34.0" x2="570" y2="34.0" stroke="#b0b0b0"/><text x="58" y="38.0" font-size="10" text-anchor="end" fill="#888">196.4k</text><text x="64.0" y="327.2" font-size="4" text-anchor="end" fill="#aa4400" transform="rotate(-80 64.0 327.2)">v5.147.7</text><text x="74.3" y="327.2" font-size="4" text-anchor="end" fill="#d6a382" transform="rotate(-80 74.3 327.2)">v5.147.8</text><text x="84.7" y="327.2" font-size="4" text-anchor="end" fill="#d6a382" transform="rotate(-80 84.7 327.2)">v5.147.9</text><text x="95.0" y="327.2" font-size="4" text-anchor="end" fill="#d6a382" transform="rotate(-80 95.0 327.2)">v5.147.10</text><text x="105.3" y="327.2" font-size="4" text-anchor="end" fill="#aa4400" transform="rotate(-80 105.3 327.2)">v5.148.0</text><text x="115.6" y="327.2" font-size="4" text-anchor="end" fill="#d6a382" transform="rotate(-80 115.6 327.2)">v5.148.1</text><text x="126.0" y="327.2" font-size="4" text-anchor="end" fill="#d6a382" transform="rotate(-80 126.0 327.2)">v5.148.2</text><text x="136.3" y="327.2" font-size="4" text-anchor="end" fill="#aa4400" transform="rotate(-80 136.3 327.2)">v5.149.1</text><text x="146.6" y="327.2" font-size="4" text-anchor="end" fill="#d6a382" transform="rotate(-80 146.6 327.2)">v5.149.2</text><text x="156.9" y="327.2" font-size="4" text-anchor="end" fill="#aa4400" transform="rotate(-80 156.9 327.2)">v5.150.0</text><text x="167.3" y="327.2" font-size="4" text-anchor="end" fill="#d6a382" transform="rotate(-80 167.3 327.2)">v5.150.1</text><text x="177.6" y="327.2" font-size="4" text-anchor="end" fill="#aa4400" transform="rotate(-80 177.6 327.2)">v5.151.0</text><text x="187.9" y="327.2" font-size="4" text-anchor="end" fill="#d6a382" transform="rotate(-80 187.9 327.2)">v5.151.1</text><text x="198.2" y="327.2" font-size="4" text-anchor="end" fill="#d6a382" transform="rotate(-80 198.2 327.2)">v5.151.2</text><text x="208.6" y="327.2" font-size="4" text-anchor="end" fill="#aa4400" transform="rotate(-80 208.6 327.2)">v5.152.0</text><text x="218.9" y="327.2" font-size="4" text-anchor="end" fill="#aa4400" transform="rotate(-80 218.9 327.2)">v5.153.0</text><text x="229.2" y="327.2" font-size="4" text-anchor="end" fill="#aa4400" transform="rotate(-80 229.2 327.2)">v5.154.0</text><text x="239.6" y="327.2" font-size="4" text-anchor="end" fill="#aa4400" transform="rotate(-80 239.6 327.2)">v5.155.0</text><text x="249.9" y="327.2" font-size="4" text-anchor="end" fill="#d6a382" transform="rotate(-80 249.9 327.2)">v5.155.1</text><text x="260.2" y="327.2" font-size="4" text-anchor="end" fill="#aa4400" transform="rotate(-80 260.2 327.2)">v5.156.0</text><text x="270.5" y="327.2" font-size="4" text-anchor="end" fill="#d6a382" transform="rotate(-80 270.5 327.2)">v5.156.1</text><text x="280.9" y="327.2" font-size="4" text-anchor="end" fill="#aa4400" transform="rotate(-80 280.9 327.2)">v5.157.0</text><text x="291.2" y="327.2" font-size="4" text-anchor="end" fill="#d6a382" transform="rotate(-80 291.2 327.2)">v5.157.1</text><text x="301.5" y="327.2" font-size="4" text-anchor="end" fill="#d6a382" transform="rotate(-80 301.5 327.2)">v5.157.2</text><text x="311.8" y="327.2" font-size="4" text-anchor="end" fill="#d6a382" transform="rotate(-80 311.8 327.2)">v5.157.3</text><text x="322.2" y="327.2" font-size="4" text-anchor="end" fill="#d6a382" transform="rotate(-80 322.2 327.2)">v5.157.4</text><text x="332.5" y="327.2" font-size="4" text-anchor="end" fill="#d6a382" transform="rotate(-80 332.5 327.2)">v5.157.5</text><text x="342.8" y="327.2" font-size="4" text-anchor="end" fill="#d6a382" transform="rotate(-80 342.8 327.2)">v5.157.6</text><text x="353.1" y="327.2" font-size="4" text-anchor="end" fill="#d6a382" transform="rotate(-80 353.1 327.2)">v5.157.7</text><text x="363.5" y="327.2" font-size="4" text-anchor="end" fill="#d6a382" transform="rotate(-80 363.5 327.2)">v5.157.8</text><text x="373.8" y="327.2" font-size="4" text-anchor="end" fill="#d6a382" transform="rotate(-80 373.8 327.2)">v5.157.9</text><text x="384.1" y="327.2" font-size="4" text-anchor="end" fill="#d6a382" transform="rotate(-80 384.1 327.2)">v5.157.10</text><text x="394.4" y="327.2" font-size="4" text-anchor="end" fill="#d6a382" transform="rotate(-80 394.4 327.2)">v5.157.11</text><text x="404.8" y="327.2" font-size="4" text-anchor="end" fill="#d6a382" transform="rotate(-80 404.8 327.2)">v5.157.12</text><text x="415.1" y="327.2" font-size="4" text-anchor="end" fill="#d6a382" transform="rotate(-80 415.1 327.2)">v5.157.13</text><text x="425.4" y="327.2" font-size="4" text-anchor="end" fill="#d6a382" transform="rotate(-80 425.4 327.2)">v5.157.14</text><text x="435.8" y="327.2" font-size="4" text-anchor="end" fill="#d6a382" transform="rotate(-80 435.8 327.2)">v5.157.15</text><text x="446.1" y="327.2" font-size="4" text-anchor="end" fill="#d6a382" transform="rotate(-80 446.1 327.2)">v5.157.16</text><text x="456.4" y="327.2" font-size="4" text-anchor="end" fill="#d6a382" transform="rotate(-80 456.4 327.2)">v5.157.17</text><text x="466.7" y="327.2" font-size="4" text-anchor="end" fill="#d6a382" transform="rotate(-80 466.7 327.2)">v5.157.18</text><text x="477.1" y="327.2" font-size="4" text-anchor="end" fill="#aa4400" transform="rotate(-80 477.1 327.2)">v5.158.0</text><text x="487.4" y="327.2" font-size="4" text-anchor="end" fill="#d6a382" transform="rotate(-80 487.4 327.2)">v5.158.1</text><text x="497.7" y="327.2" font-size="4" text-anchor="end" fill="#d6a382" transform="rotate(-80 497.7 327.2)">v5.158.2</text><text x="508.0" y="327.2" font-size="4" text-anchor="end" fill="#aa4400" transform="rotate(-80 508.0 327.2)">v5.159.0</text><text x="518.4" y="327.2" font-size="4" text-anchor="end" fill="#d6a382" transform="rotate(-80 518.4 327.2)">v5.159.1</text><text x="528.7" y="327.2" font-size="4" text-anchor="end" fill="#d6a382" transform="rotate(-80 528.7 327.2)">v5.159.2</text><text x="539.0" y="327.2" font-size="4" text-anchor="end" fill="#aa4400" transform="rotate(-80 539.0 327.2)">v5.160.0</text><text x="549.3" y="327.2" font-size="4" text-anchor="end" fill="#aa4400" transform="rotate(-80 549.3 327.2)">v5.161.0</text><text x="559.7" y="327.2" font-size="4" text-anchor="end" fill="#aa4400" transform="rotate(-80 559.7 327.2)">v5.162.0</text><text x="570.0" y="327.2" font-size="4" text-anchor="end" fill="#d6a382" transform="rotate(-80 570.0 327.2)">v5.162.1</text><path d="M64.0,81.2 L74.3,77.9 L84.7,94.0 L95.0,88.0 L105.3,91.9 L115.6,91.5 L126.0,101.0 L136.3,88.8 L146.6,91.9 L156.9,100.5 L167.3,91.5 L177.6,88.0 L187.9,101.0 L198.2,92.5 L208.6,95.9 L218.9,90.0 L229.2,93.5 L239.6,92.3 L249.9,90.3 L260.2,90.8 L270.5,86.8 L280.9,91.9 L291.2,93.9 L301.5,95.7 L311.8,88.7 L322.2,104.4 L332.5,66.9 L342.8,63.2 L353.1,65.4 L363.5,69.2 L373.8,70.5 L384.1,68.8 L394.4,63.9 L404.8,64.4 L415.1,69.9 L425.4,69.5 L435.8,69.1 L446.1,67.8 L456.4,67.8 L466.7,71.4 L477.1,62.1 L487.4,68.5 L497.7,67.4 L508.0,64.7 L518.4,67.1 L528.7,63.4 L539.0,58.2 L549.3,68.6 L559.7,64.9 L570.0,62.7" fill="none" stroke="#4477AA" stroke-width="1.6"/><circle cx="64.0" cy="81.2" r="2" fill="#4477AA"/><circle cx="74.3" cy="77.9" r="2" fill="#4477AA"/><circle cx="84.7" cy="94.0" r="2" fill="#4477AA"/><circle cx="95.0" cy="88.0" r="2" fill="#4477AA"/><circle cx="105.3" cy="91.9" r="2" fill="#4477AA"/><circle cx="115.6" cy="91.5" r="2" fill="#4477AA"/><circle cx="126.0" cy="101.0" r="2" fill="#4477AA"/><circle cx="136.3" cy="88.8" r="2" fill="#4477AA"/><circle cx="146.6" cy="91.9" r="2" fill="#4477AA"/><circle cx="156.9" cy="100.5" r="2" fill="#4477AA"/><circle cx="167.3" cy="91.5" r="2" fill="#4477AA"/><circle cx="177.6" cy="88.0" r="2" fill="#4477AA"/><circle cx="187.9" cy="101.0" r="2" fill="#4477AA"/><circle cx="198.2" cy="92.5" r="2" fill="#4477AA"/><circle cx="208.6" cy="95.9" r="2" fill="#4477AA"/><circle cx="218.9" cy="90.0" r="2" fill="#4477AA"/><circle cx="229.2" cy="93.5" r="2" fill="#4477AA"/><circle cx="239.6" cy="92.3" r="2" fill="#4477AA"/><circle cx="249.9" cy="90.3" r="2" fill="#4477AA"/><circle cx="260.2" cy="90.8" r="2" fill="#4477AA"/><circle cx="270.5" cy="86.8" r="2" fill="#4477AA"/><circle cx="280.9" cy="91.9" r="2" fill="#4477AA"/><circle cx="291.2" cy="93.9" r="2" fill="#4477AA"/><circle cx="301.5" cy="95.7" r="2" fill="#4477AA"/><circle cx="311.8" cy="88.7" r="2" fill="#4477AA"/><circle cx="322.2" cy="104.4" r="2" fill="#4477AA"/><circle cx="332.5" cy="66.9" r="2" fill="#4477AA"/><circle cx="342.8" cy="63.2" r="2" fill="#4477AA"/><circle cx="353.1" cy="65.4" r="2" fill="#4477AA"/><circle cx="363.5" cy="69.2" r="2" fill="#4477AA"/><circle cx="373.8" cy="70.5" r="2" fill="#4477AA"/><circle cx="384.1" cy="68.8" r="2" fill="#4477AA"/><circle cx="394.4" cy="63.9" r="2" fill="#4477AA"/><circle cx="404.8" cy="64.4" r="2" fill="#4477AA"/><circle cx="415.1" cy="69.9" r="2" fill="#4477AA"/><circle cx="425.4" cy="69.5" r="2" fill="#4477AA"/><circle cx="435.8" cy="69.1" r="2" fill="#4477AA"/><circle cx="446.1" cy="67.8" r="2" fill="#4477AA"/><circle cx="456.4" cy="67.8" r="2" fill="#4477AA"/><circle cx="466.7" cy="71.4" r="2" fill="#4477AA"/><circle cx="477.1" cy="62.1" r="2" fill="#4477AA"/><circle cx="487.4" cy="68.5" r="2" fill="#4477AA"/><circle cx="497.7" cy="67.4" r="2" fill="#4477AA"/><circle cx="508.0" cy="64.7" r="2" fill="#4477AA"/><circle cx="518.4" cy="67.1" r="2" fill="#4477AA"/><circle cx="528.7" cy="63.4" r="2" fill="#4477AA"/><circle cx="539.0" cy="58.2" r="2" fill="#4477AA"/><circle cx="549.3" cy="68.6" r="2" fill="#4477AA"/><circle cx="559.7" cy="64.9" r="2" fill="#4477AA"/><circle cx="570.0" cy="62.7" r="2" fill="#4477AA"/><rect x="580" y="34" width="10" height="10" fill="#4477AA"/><text x="594" y="43" font-size="10" fill="#444">chain-10</text><path d="M64.0,88.2 L74.3,91.2 L84.7,99.1 L95.0,99.6 L105.3,97.9 L115.6,99.5 L126.0,107.9 L136.3,94.7 L146.6,100.8 L156.9,107.6 L167.3,93.8 L177.6,95.3 L187.9,102.9 L198.2,91.5 L208.6,103.7 L218.9,100.9 L229.2,109.2 L239.6,96.1 L249.9,102.5 L260.2,91.8 L270.5,100.2 L280.9,97.9 L291.2,98.1 L301.5,102.2 L311.8,96.0 L322.2,115.1 L332.5,72.3 L342.8,72.2 L353.1,73.7 L363.5,73.6 L373.8,71.6 L384.1,71.6 L394.4,67.0 L404.8,66.8 L415.1,72.3 L425.4,70.7 L435.8,68.3 L446.1,71.3 L456.4,72.1 L466.7,70.4 L477.1,65.6 L487.4,70.7 L497.7,71.2 L508.0,65.2 L518.4,70.1 L528.7,68.3 L539.0,69.8 L549.3,72.1 L559.7,74.5 L570.0,72.1" fill="none" stroke="#EE6677" stroke-width="1.6"/><circle cx="64.0" cy="88.2" r="2" fill="#EE6677"/><circle cx="74.3" cy="91.2" r="2" fill="#EE6677"/><circle cx="84.7" cy="99.1" r="2" fill="#EE6677"/><circle cx="95.0" cy="99.6" r="2" fill="#EE6677"/><circle cx="105.3" cy="97.9" r="2" fill="#EE6677"/><circle cx="115.6" cy="99.5" r="2" fill="#EE6677"/><circle cx="126.0" cy="107.9" r="2" fill="#EE6677"/><circle cx="136.3" cy="94.7" r="2" fill="#EE6677"/><circle cx="146.6" cy="100.8" r="2" fill="#EE6677"/><circle cx="156.9" cy="107.6" r="2" fill="#EE6677"/><circle cx="167.3" cy="93.8" r="2" fill="#EE6677"/><circle cx="177.6" cy="95.3" r="2" fill="#EE6677"/><circle cx="187.9" cy="102.9" r="2" fill="#EE6677"/><circle cx="198.2" cy="91.5" r="2" fill="#EE6677"/><circle cx="208.6" cy="103.7" r="2" fill="#EE6677"/><circle cx="218.9" cy="100.9" r="2" fill="#EE6677"/><circle cx="229.2" cy="109.2" r="2" fill="#EE6677"/><circle cx="239.6" cy="96.1" r="2" fill="#EE6677"/><circle cx="249.9" cy="102.5" r="2" fill="#EE6677"/><circle cx="260.2" cy="91.8" r="2" fill="#EE6677"/><circle cx="270.5" cy="100.2" r="2" fill="#EE6677"/><circle cx="280.9" cy="97.9" r="2" fill="#EE6677"/><circle cx="291.2" cy="98.1" r="2" fill="#EE6677"/><circle cx="301.5" cy="102.2" r="2" fill="#EE6677"/><circle cx="311.8" cy="96.0" r="2" fill="#EE6677"/><circle cx="322.2" cy="115.1" r="2" fill="#EE6677"/><circle cx="332.5" cy="72.3" r="2" fill="#EE6677"/><circle cx="342.8" cy="72.2" r="2" fill="#EE6677"/><circle cx="353.1" cy="73.7" r="2" fill="#EE6677"/><circle cx="363.5" cy="73.6" r="2" fill="#EE6677"/><circle cx="373.8" cy="71.6" r="2" fill="#EE6677"/><circle cx="384.1" cy="71.6" r="2" fill="#EE6677"/><circle cx="394.4" cy="67.0" r="2" fill="#EE6677"/><circle cx="404.8" cy="66.8" r="2" fill="#EE6677"/><circle cx="415.1" cy="72.3" r="2" fill="#EE6677"/><circle cx="425.4" cy="70.7" r="2" fill="#EE6677"/><circle cx="435.8" cy="68.3" r="2" fill="#EE6677"/><circle cx="446.1" cy="71.3" r="2" fill="#EE6677"/><circle cx="456.4" cy="72.1" r="2" fill="#EE6677"/><circle cx="466.7" cy="70.4" r="2" fill="#EE6677"/><circle cx="477.1" cy="65.6" r="2" fill="#EE6677"/><circle cx="487.4" cy="70.7" r="2" fill="#EE6677"/><circle cx="497.7" cy="71.2" r="2" fill="#EE6677"/><circle cx="508.0" cy="65.2" r="2" fill="#EE6677"/><circle cx="518.4" cy="70.1" r="2" fill="#EE6677"/><circle cx="528.7" cy="68.3" r="2" fill="#EE6677"/><circle cx="539.0" cy="69.8" r="2" fill="#EE6677"/><circle cx="549.3" cy="72.1" r="2" fill="#EE6677"/><circle cx="559.7" cy="74.5" r="2" fill="#EE6677"/><circle cx="570.0" cy="72.1" r="2" fill="#EE6677"/><rect x="580" y="49" width="10" height="10" fill="#EE6677"/><text x="594" y="58" font-size="10" fill="#444">chain-50</text><path d="M64.0,92.8 L74.3,93.4 L84.7,103.3 L95.0,100.1 L105.3,99.3 L115.6,99.2 L126.0,110.5 L136.3,98.0 L146.6,100.1 L156.9,111.8 L167.3,101.7 L177.6,100.6 L187.9,108.2 L198.2,100.6 L208.6,110.1 L218.9,109.6 L229.2,111.5 L239.6,99.3 L249.9,102.5 L260.2,99.1 L270.5,102.3 L280.9,100.9 L291.2,100.6 L301.5,106.8 L311.8,101.2 L322.2,112.8 L332.5,79.4 L342.8,74.0 L353.1,72.3 L363.5,77.5 L373.8,74.1 L384.1,71.7 L394.4,77.7 L404.8,73.7 L415.1,76.1 L425.4,72.5 L435.8,76.6 L446.1,71.4 L456.4,71.7 L466.7,74.8 L477.1,73.5 L487.4,72.9 L497.7,74.0 L508.0,66.1 L518.4,75.2 L528.7,71.9 L539.0,73.1 L549.3,80.1 L559.7,77.7 L570.0,78.4" fill="none" stroke="#228833" stroke-width="1.6"/><circle cx="64.0" cy="92.8" r="2" fill="#228833"/><circle cx="74.3" cy="93.4" r="2" fill="#228833"/><circle cx="84.7" cy="103.3" r="2" fill="#228833"/><circle cx="95.0" cy="100.1" r="2" fill="#228833"/><circle cx="105.3" cy="99.3" r="2" fill="#228833"/><circle cx="115.6" cy="99.2" r="2" fill="#228833"/><circle cx="126.0" cy="110.5" r="2" fill="#228833"/><circle cx="136.3" cy="98.0" r="2" fill="#228833"/><circle cx="146.6" cy="100.1" r="2" fill="#228833"/><circle cx="156.9" cy="111.8" r="2" fill="#228833"/><circle cx="167.3" cy="101.7" r="2" fill="#228833"/><circle cx="177.6" cy="100.6" r="2" fill="#228833"/><circle cx="187.9" cy="108.2" r="2" fill="#228833"/><circle cx="198.2" cy="100.6" r="2" fill="#228833"/><circle cx="208.6" cy="110.1" r="2" fill="#228833"/><circle cx="218.9" cy="109.6" r="2" fill="#228833"/><circle cx="229.2" cy="111.5" r="2" fill="#228833"/><circle cx="239.6" cy="99.3" r="2" fill="#228833"/><circle cx="249.9" cy="102.5" r="2" fill="#228833"/><circle cx="260.2" cy="99.1" r="2" fill="#228833"/><circle cx="270.5" cy="102.3" r="2" fill="#228833"/><circle cx="280.9" cy="100.9" r="2" fill="#228833"/><circle cx="291.2" cy="100.6" r="2" fill="#228833"/><circle cx="301.5" cy="106.8" r="2" fill="#228833"/><circle cx="311.8" cy="101.2" r="2" fill="#228833"/><circle cx="322.2" cy="112.8" r="2" fill="#228833"/><circle cx="332.5" cy="79.4" r="2" fill="#228833"/><circle cx="342.8" cy="74.0" r="2" fill="#228833"/><circle cx="353.1" cy="72.3" r="2" fill="#228833"/><circle cx="363.5" cy="77.5" r="2" fill="#228833"/><circle cx="373.8" cy="74.1" r="2" fill="#228833"/><circle cx="384.1" cy="71.7" r="2" fill="#228833"/><circle cx="394.4" cy="77.7" r="2" fill="#228833"/><circle cx="404.8" cy="73.7" r="2" fill="#228833"/><circle cx="415.1" cy="76.1" r="2" fill="#228833"/><circle cx="425.4" cy="72.5" r="2" fill="#228833"/><circle cx="435.8" cy="76.6" r="2" fill="#228833"/><circle cx="446.1" cy="71.4" r="2" fill="#228833"/><circle cx="456.4" cy="71.7" r="2" fill="#228833"/><circle cx="466.7" cy="74.8" r="2" fill="#228833"/><circle cx="477.1" cy="73.5" r="2" fill="#228833"/><circle cx="487.4" cy="72.9" r="2" fill="#228833"/><circle cx="497.7" cy="74.0" r="2" fill="#228833"/><circle cx="508.0" cy="66.1" r="2" fill="#228833"/><circle cx="518.4" cy="75.2" r="2" fill="#228833"/><circle cx="528.7" cy="71.9" r="2" fill="#228833"/><circle cx="539.0" cy="73.1" r="2" fill="#228833"/><circle cx="549.3" cy="80.1" r="2" fill="#228833"/><circle cx="559.7" cy="77.7" r="2" fill="#228833"/><circle cx="570.0" cy="78.4" r="2" fill="#228833"/><rect x="580" y="64" width="10" height="10" fill="#228833"/><text x="594" y="73" font-size="10" fill="#444">chain-200</text><path d="M64.0,101.5 L74.3,102.6 L84.7,111.1 L95.0,112.9 L105.3,106.1 L115.6,109.2 L126.0,120.9 L136.3,107.6 L146.6,107.9 L156.9,124.4 L167.3,108.4 L177.6,109.4 L187.9,114.7 L198.2,108.9 L208.6,115.2 L218.9,113.5 L229.2,120.9 L239.6,110.6 L249.9,110.6 L260.2,106.9 L270.5,113.0 L280.9,118.1 L291.2,110.0 L301.5,118.9 L311.8,114.4 L322.2,124.0 L332.5,87.2 L342.8,87.8 L353.1,83.3 L363.5,86.4 L373.8,88.0 L384.1,90.1 L394.4,84.1 L404.8,82.7 L415.1,82.2 L425.4,82.1 L435.8,82.5 L446.1,79.7 L456.4,77.8 L466.7,82.3 L477.1,79.7 L487.4,82.0 L497.7,79.6 L508.0,77.1 L518.4,84.8 L528.7,85.9 L539.0,89.2 L549.3,87.3 L559.7,82.8 L570.0,87.5" fill="none" stroke="#CCBB44" stroke-width="1.6"/><circle cx="64.0" cy="101.5" r="2" fill="#CCBB44"/><circle cx="74.3" cy="102.6" r="2" fill="#CCBB44"/><circle cx="84.7" cy="111.1" r="2" fill="#CCBB44"/><circle cx="95.0" cy="112.9" r="2" fill="#CCBB44"/><circle cx="105.3" cy="106.1" r="2" fill="#CCBB44"/><circle cx="115.6" cy="109.2" r="2" fill="#CCBB44"/><circle cx="126.0" cy="120.9" r="2" fill="#CCBB44"/><circle cx="136.3" cy="107.6" r="2" fill="#CCBB44"/><circle cx="146.6" cy="107.9" r="2" fill="#CCBB44"/><circle cx="156.9" cy="124.4" r="2" fill="#CCBB44"/><circle cx="167.3" cy="108.4" r="2" fill="#CCBB44"/><circle cx="177.6" cy="109.4" r="2" fill="#CCBB44"/><circle cx="187.9" cy="114.7" r="2" fill="#CCBB44"/><circle cx="198.2" cy="108.9" r="2" fill="#CCBB44"/><circle cx="208.6" cy="115.2" r="2" fill="#CCBB44"/><circle cx="218.9" cy="113.5" r="2" fill="#CCBB44"/><circle cx="229.2" cy="120.9" r="2" fill="#CCBB44"/><circle cx="239.6" cy="110.6" r="2" fill="#CCBB44"/><circle cx="249.9" cy="110.6" r="2" fill="#CCBB44"/><circle cx="260.2" cy="106.9" r="2" fill="#CCBB44"/><circle cx="270.5" cy="113.0" r="2" fill="#CCBB44"/><circle cx="280.9" cy="118.1" r="2" fill="#CCBB44"/><circle cx="291.2" cy="110.0" r="2" fill="#CCBB44"/><circle cx="301.5" cy="118.9" r="2" fill="#CCBB44"/><circle cx="311.8" cy="114.4" r="2" fill="#CCBB44"/><circle cx="322.2" cy="124.0" r="2" fill="#CCBB44"/><circle cx="332.5" cy="87.2" r="2" fill="#CCBB44"/><circle cx="342.8" cy="87.8" r="2" fill="#CCBB44"/><circle cx="353.1" cy="83.3" r="2" fill="#CCBB44"/><circle cx="363.5" cy="86.4" r="2" fill="#CCBB44"/><circle cx="373.8" cy="88.0" r="2" fill="#CCBB44"/><circle cx="384.1" cy="90.1" r="2" fill="#CCBB44"/><circle cx="394.4" cy="84.1" r="2" fill="#CCBB44"/><circle cx="404.8" cy="82.7" r="2" fill="#CCBB44"/><circle cx="415.1" cy="82.2" r="2" fill="#CCBB44"/><circle cx="425.4" cy="82.1" r="2" fill="#CCBB44"/><circle cx="435.8" cy="82.5" r="2" fill="#CCBB44"/><circle cx="446.1" cy="79.7" r="2" fill="#CCBB44"/><circle cx="456.4" cy="77.8" r="2" fill="#CCBB44"/><circle cx="466.7" cy="82.3" r="2" fill="#CCBB44"/><circle cx="477.1" cy="79.7" r="2" fill="#CCBB44"/><circle cx="487.4" cy="82.0" r="2" fill="#CCBB44"/><circle cx="497.7" cy="79.6" r="2" fill="#CCBB44"/><circle cx="508.0" cy="77.1" r="2" fill="#CCBB44"/><circle cx="518.4" cy="84.8" r="2" fill="#CCBB44"/><circle cx="528.7" cy="85.9" r="2" fill="#CCBB44"/><circle cx="539.0" cy="89.2" r="2" fill="#CCBB44"/><circle cx="549.3" cy="87.3" r="2" fill="#CCBB44"/><circle cx="559.7" cy="82.8" r="2" fill="#CCBB44"/><circle cx="570.0" cy="87.5" r="2" fill="#CCBB44"/><rect x="580" y="79" width="10" height="10" fill="#CCBB44"/><text x="594" y="88" font-size="10" fill="#444">chain-1000</text><path d="M64.0,238.6 L74.3,238.1 L84.7,240.9 L95.0,241.2 L105.3,239.4 L115.6,239.6 L126.0,244.4 L136.3,238.3 L146.6,239.8 L156.9,244.5 L167.3,240.5 L177.6,239.2 L187.9,242.6 L198.2,240.4 L208.6,243.7 L218.9,240.9 L229.2,244.0 L239.6,239.5 L249.9,242.6 L260.2,239.3 L270.5,242.0 L280.9,239.3 L291.2,241.4 L301.5,244.7 L311.8,239.9 L322.2,251.0 L332.5,216.0 L342.8,217.2 L353.1,216.7 L363.5,216.2 L373.8,217.1 L384.1,218.1 L394.4,217.2 L404.8,216.6 L415.1,218.4 L425.4,217.1 L435.8,216.1 L446.1,216.3 L456.4,215.8 L466.7,217.4 L477.1,218.5 L487.4,217.4 L497.7,218.6 L508.0,217.0 L518.4,218.9 L528.7,217.1 L539.0,216.4 L549.3,218.4 L559.7,217.9 L570.0,218.3" fill="none" stroke="#66CCEE" stroke-width="1.6"/><circle cx="64.0" cy="238.6" r="2" fill="#66CCEE"/><circle cx="74.3" cy="238.1" r="2" fill="#66CCEE"/><circle cx="84.7" cy="240.9" r="2" fill="#66CCEE"/><circle cx="95.0" cy="241.2" r="2" fill="#66CCEE"/><circle cx="105.3" cy="239.4" r="2" fill="#66CCEE"/><circle cx="115.6" cy="239.6" r="2" fill="#66CCEE"/><circle cx="126.0" cy="244.4" r="2" fill="#66CCEE"/><circle cx="136.3" cy="238.3" r="2" fill="#66CCEE"/><circle cx="146.6" cy="239.8" r="2" fill="#66CCEE"/><circle cx="156.9" cy="244.5" r="2" fill="#66CCEE"/><circle cx="167.3" cy="240.5" r="2" fill="#66CCEE"/><circle cx="177.6" cy="239.2" r="2" fill="#66CCEE"/><circle cx="187.9" cy="242.6" r="2" fill="#66CCEE"/><circle cx="198.2" cy="240.4" r="2" fill="#66CCEE"/><circle cx="208.6" cy="243.7" r="2" fill="#66CCEE"/><circle cx="218.9" cy="240.9" r="2" fill="#66CCEE"/><circle cx="229.2" cy="244.0" r="2" fill="#66CCEE"/><circle cx="239.6" cy="239.5" r="2" fill="#66CCEE"/><circle cx="249.9" cy="242.6" r="2" fill="#66CCEE"/><circle cx="260.2" cy="239.3" r="2" fill="#66CCEE"/><circle cx="270.5" cy="242.0" r="2" fill="#66CCEE"/><circle cx="280.9" cy="239.3" r="2" fill="#66CCEE"/><circle cx="291.2" cy="241.4" r="2" fill="#66CCEE"/><circle cx="301.5" cy="244.7" r="2" fill="#66CCEE"/><circle cx="311.8" cy="239.9" r="2" fill="#66CCEE"/><circle cx="322.2" cy="251.0" r="2" fill="#66CCEE"/><circle cx="332.5" cy="216.0" r="2" fill="#66CCEE"/><circle cx="342.8" cy="217.2" r="2" fill="#66CCEE"/><circle cx="353.1" cy="216.7" r="2" fill="#66CCEE"/><circle cx="363.5" cy="216.2" r="2" fill="#66CCEE"/><circle cx="373.8" cy="217.1" r="2" fill="#66CCEE"/><circle cx="384.1" cy="218.1" r="2" fill="#66CCEE"/><circle cx="394.4" cy="217.2" r="2" fill="#66CCEE"/><circle cx="404.8" cy="216.6" r="2" fill="#66CCEE"/><circle cx="415.1" cy="218.4" r="2" fill="#66CCEE"/><circle cx="425.4" cy="217.1" r="2" fill="#66CCEE"/><circle cx="435.8" cy="216.1" r="2" fill="#66CCEE"/><circle cx="446.1" cy="216.3" r="2" fill="#66CCEE"/><circle cx="456.4" cy="215.8" r="2" fill="#66CCEE"/><circle cx="466.7" cy="217.4" r="2" fill="#66CCEE"/><circle cx="477.1" cy="218.5" r="2" fill="#66CCEE"/><circle cx="487.4" cy="217.4" r="2" fill="#66CCEE"/><circle cx="497.7" cy="218.6" r="2" fill="#66CCEE"/><circle cx="508.0" cy="217.0" r="2" fill="#66CCEE"/><circle cx="518.4" cy="218.9" r="2" fill="#66CCEE"/><circle cx="528.7" cy="217.1" r="2" fill="#66CCEE"/><circle cx="539.0" cy="216.4" r="2" fill="#66CCEE"/><circle cx="549.3" cy="218.4" r="2" fill="#66CCEE"/><circle cx="559.7" cy="217.9" r="2" fill="#66CCEE"/><circle cx="570.0" cy="218.3" r="2" fill="#66CCEE"/><rect x="580" y="94" width="10" height="10" fill="#66CCEE"/><text x="594" y="103" font-size="10" fill="#444">dense-10</text><path d="M64.0,289.7 L74.3,289.6 L84.7,290.3 L95.0,290.1 L105.3,289.9 L115.6,289.9 L126.0,291.3 L136.3,289.9 L146.6,289.9 L156.9,291.3 L167.3,289.9 L177.6,289.8 L187.9,290.9 L198.2,289.9 L208.6,290.7 L218.9,290.6 L229.2,291.0 L239.6,289.8 L249.9,290.6 L260.2,289.8 L270.5,290.4 L280.9,290.0 L291.2,290.7 L301.5,291.4 L311.8,290.0 L322.2,292.6 L332.5,285.0 L342.8,284.9 L353.1,285.4 L363.5,285.4 L373.8,285.2 L384.1,285.6 L394.4,285.0 L404.8,285.2 L415.1,285.3 L425.4,285.1 L435.8,285.3 L446.1,285.1 L456.4,285.2 L466.7,285.1 L477.1,284.9 L487.4,285.4 L497.7,285.1 L508.0,285.0 L518.4,285.1 L528.7,285.3 L539.0,285.4 L549.3,285.4 L559.7,285.7 L570.0,285.4" fill="none" stroke="#AA3377" stroke-width="1.6"/><circle cx="64.0" cy="289.7" r="2" fill="#AA3377"/><circle cx="74.3" cy="289.6" r="2" fill="#AA3377"/><circle cx="84.7" cy="290.3" r="2" fill="#AA3377"/><circle cx="95.0" cy="290.1" r="2" fill="#AA3377"/><circle cx="105.3" cy="289.9" r="2" fill="#AA3377"/><circle cx="115.6" cy="289.9" r="2" fill="#AA3377"/><circle cx="126.0" cy="291.3" r="2" fill="#AA3377"/><circle cx="136.3" cy="289.9" r="2" fill="#AA3377"/><circle cx="146.6" cy="289.9" r="2" fill="#AA3377"/><circle cx="156.9" cy="291.3" r="2" fill="#AA3377"/><circle cx="167.3" cy="289.9" r="2" fill="#AA3377"/><circle cx="177.6" cy="289.8" r="2" fill="#AA3377"/><circle cx="187.9" cy="290.9" r="2" fill="#AA3377"/><circle cx="198.2" cy="289.9" r="2" fill="#AA3377"/><circle cx="208.6" cy="290.7" r="2" fill="#AA3377"/><circle cx="218.9" cy="290.6" r="2" fill="#AA3377"/><circle cx="229.2" cy="291.0" r="2" fill="#AA3377"/><circle cx="239.6" cy="289.8" r="2" fill="#AA3377"/><circle cx="249.9" cy="290.6" r="2" fill="#AA3377"/><circle cx="260.2" cy="289.8" r="2" fill="#AA3377"/><circle cx="270.5" cy="290.4" r="2" fill="#AA3377"/><circle cx="280.9" cy="290.0" r="2" fill="#AA3377"/><circle cx="291.2" cy="290.7" r="2" fill="#AA3377"/><circle cx="301.5" cy="291.4" r="2" fill="#AA3377"/><circle cx="311.8" cy="290.0" r="2" fill="#AA3377"/><circle cx="322.2" cy="292.6" r="2" fill="#AA3377"/><circle cx="332.5" cy="285.0" r="2" fill="#AA3377"/><circle cx="342.8" cy="284.9" r="2" fill="#AA3377"/><circle cx="353.1" cy="285.4" r="2" fill="#AA3377"/><circle cx="363.5" cy="285.4" r="2" fill="#AA3377"/><circle cx="373.8" cy="285.2" r="2" fill="#AA3377"/><circle cx="384.1" cy="285.6" r="2" fill="#AA3377"/><circle cx="394.4" cy="285.0" r="2" fill="#AA3377"/><circle cx="404.8" cy="285.2" r="2" fill="#AA3377"/><circle cx="415.1" cy="285.3" r="2" fill="#AA3377"/><circle cx="425.4" cy="285.1" r="2" fill="#AA3377"/><circle cx="435.8" cy="285.3" r="2" fill="#AA3377"/><circle cx="446.1" cy="285.1" r="2" fill="#AA3377"/><circle cx="456.4" cy="285.2" r="2" fill="#AA3377"/><circle cx="466.7" cy="285.1" r="2" fill="#AA3377"/><circle cx="477.1" cy="284.9" r="2" fill="#AA3377"/><circle cx="487.4" cy="285.4" r="2" fill="#AA3377"/><circle cx="497.7" cy="285.1" r="2" fill="#AA3377"/><circle cx="508.0" cy="285.0" r="2" fill="#AA3377"/><circle cx="518.4" cy="285.1" r="2" fill="#AA3377"/><circle cx="528.7" cy="285.3" r="2" fill="#AA3377"/><circle cx="539.0" cy="285.4" r="2" fill="#AA3377"/><circle cx="549.3" cy="285.4" r="2" fill="#AA3377"/><circle cx="559.7" cy="285.7" r="2" fill="#AA3377"/><circle cx="570.0" cy="285.4" r="2" fill="#AA3377"/><rect x="580" y="109" width="10" height="10" fill="#AA3377"/><text x="594" y="118" font-size="10" fill="#444">dense-50</text><path d="M64.0,298.9 L74.3,299.1 L84.7,299.1 L95.0,299.3 L105.3,299.1 L115.6,299.2 L126.0,299.5 L136.3,299.7 L146.6,299.5 L156.9,299.7 L167.3,299.4 L177.6,299.2 L187.9,299.5 L198.2,299.3 L208.6,299.8 L218.9,299.5 L229.2,299.6 L239.6,299.5 L249.9,299.3 L260.2,299.3 L270.5,299.3 L280.9,299.4 L291.2,299.1 L301.5,299.8 L311.8,299.7 L322.2,299.8 L332.5,297.5 L342.8,297.4 L353.1,297.6 L363.5,297.5 L373.8,297.6 L384.1,297.6 L394.4,297.7 L404.8,297.5 L415.1,297.6 L425.4,297.6 L435.8,297.6 L446.1,297.5 L456.4,297.5 L466.7,297.6 L477.1,297.5 L487.4,297.5 L497.7,297.5 L508.0,297.5 L518.4,297.5 L528.7,297.5 L539.0,297.5 L549.3,297.6 L559.7,297.5 L570.0,297.5" fill="none" stroke="#BBBBBB" stroke-width="1.6"/><circle cx="64.0" cy="298.9" r="2" fill="#BBBBBB"/><circle cx="74.3" cy="299.1" r="2" fill="#BBBBBB"/><circle cx="84.7" cy="299.1" r="2" fill="#BBBBBB"/><circle cx="95.0" cy="299.3" r="2" fill="#BBBBBB"/><circle cx="105.3" cy="299.1" r="2" fill="#BBBBBB"/><circle cx="115.6" cy="299.2" r="2" fill="#BBBBBB"/><circle cx="126.0" cy="299.5" r="2" fill="#BBBBBB"/><circle cx="136.3" cy="299.7" r="2" fill="#BBBBBB"/><circle cx="146.6" cy="299.5" r="2" fill="#BBBBBB"/><circle cx="156.9" cy="299.7" r="2" fill="#BBBBBB"/><circle cx="167.3" cy="299.4" r="2" fill="#BBBBBB"/><circle cx="177.6" cy="299.2" r="2" fill="#BBBBBB"/><circle cx="187.9" cy="299.5" r="2" fill="#BBBBBB"/><circle cx="198.2" cy="299.3" r="2" fill="#BBBBBB"/><circle cx="208.6" cy="299.8" r="2" fill="#BBBBBB"/><circle cx="218.9" cy="299.5" r="2" fill="#BBBBBB"/><circle cx="229.2" cy="299.6" r="2" fill="#BBBBBB"/><circle cx="239.6" cy="299.5" r="2" fill="#BBBBBB"/><circle cx="249.9" cy="299.3" r="2" fill="#BBBBBB"/><circle cx="260.2" cy="299.3" r="2" fill="#BBBBBB"/><circle cx="270.5" cy="299.3" r="2" fill="#BBBBBB"/><circle cx="280.9" cy="299.4" r="2" fill="#BBBBBB"/><circle cx="291.2" cy="299.1" r="2" fill="#BBBBBB"/><circle cx="301.5" cy="299.8" r="2" fill="#BBBBBB"/><circle cx="311.8" cy="299.7" r="2" fill="#BBBBBB"/><circle cx="322.2" cy="299.8" r="2" fill="#BBBBBB"/><circle cx="332.5" cy="297.5" r="2" fill="#BBBBBB"/><circle cx="342.8" cy="297.4" r="2" fill="#BBBBBB"/><circle cx="353.1" cy="297.6" r="2" fill="#BBBBBB"/><circle cx="363.5" cy="297.5" r="2" fill="#BBBBBB"/><circle cx="373.8" cy="297.6" r="2" fill="#BBBBBB"/><circle cx="384.1" cy="297.6" r="2" fill="#BBBBBB"/><circle cx="394.4" cy="297.7" r="2" fill="#BBBBBB"/><circle cx="404.8" cy="297.5" r="2" fill="#BBBBBB"/><circle cx="415.1" cy="297.6" r="2" fill="#BBBBBB"/><circle cx="425.4" cy="297.6" r="2" fill="#BBBBBB"/><circle cx="435.8" cy="297.6" r="2" fill="#BBBBBB"/><circle cx="446.1" cy="297.5" r="2" fill="#BBBBBB"/><circle cx="456.4" cy="297.5" r="2" fill="#BBBBBB"/><circle cx="466.7" cy="297.6" r="2" fill="#BBBBBB"/><circle cx="477.1" cy="297.5" r="2" fill="#BBBBBB"/><circle cx="487.4" cy="297.5" r="2" fill="#BBBBBB"/><circle cx="497.7" cy="297.5" r="2" fill="#BBBBBB"/><circle cx="508.0" cy="297.5" r="2" fill="#BBBBBB"/><circle cx="518.4" cy="297.5" r="2" fill="#BBBBBB"/><circle cx="528.7" cy="297.5" r="2" fill="#BBBBBB"/><circle cx="539.0" cy="297.5" r="2" fill="#BBBBBB"/><circle cx="549.3" cy="297.6" r="2" fill="#BBBBBB"/><circle cx="559.7" cy="297.5" r="2" fill="#BBBBBB"/><circle cx="570.0" cy="297.5" r="2" fill="#BBBBBB"/><rect x="580" y="124" width="10" height="10" fill="#BBBBBB"/><text x="594" y="133" font-size="10" fill="#444">dense-200</text><path d="M64.0,277.6 L74.3,278.0 L84.7,279.1 L95.0,278.8 L105.3,278.8 L115.6,278.7 L126.0,280.1 L136.3,278.1 L146.6,278.5 L156.9,280.3 L167.3,278.2 L177.6,277.8 L187.9,279.5 L198.2,278.1 L208.6,279.3 L218.9,278.7 L229.2,280.1 L239.6,278.0 L249.9,279.3 L260.2,278.0 L270.5,278.8 L280.9,278.2 L291.2,278.8 L301.5,279.3 L311.8,278.0 L322.2,280.9 L332.5,269.1 L342.8,268.8 L353.1,269.5 L363.5,269.6 L373.8,270.3 L384.1,269.8 L394.4,269.5 L404.8,269.3 L415.1,270.2 L425.4,269.3 L435.8,269.1 L446.1,269.5 L456.4,269.3 L466.7,269.6 L477.1,269.0 L487.4,269.5 L497.7,269.6 L508.0,269.1 L518.4,269.6 L528.7,269.7 L539.0,269.2 L549.3,269.8 L559.7,269.4 L570.0,269.3" fill="none" stroke="#222255" stroke-width="1.6"/><circle cx="64.0" cy="277.6" r="2" fill="#222255"/><circle cx="74.3" cy="278.0" r="2" fill="#222255"/><circle cx="84.7" cy="279.1" r="2" fill="#222255"/><circle cx="95.0" cy="278.8" r="2" fill="#222255"/><circle cx="105.3" cy="278.8" r="2" fill="#222255"/><circle cx="115.6" cy="278.7" r="2" fill="#222255"/><circle cx="126.0" cy="280.1" r="2" fill="#222255"/><circle cx="136.3" cy="278.1" r="2" fill="#222255"/><circle cx="146.6" cy="278.5" r="2" fill="#222255"/><circle cx="156.9" cy="280.3" r="2" fill="#222255"/><circle cx="167.3" cy="278.2" r="2" fill="#222255"/><circle cx="177.6" cy="277.8" r="2" fill="#222255"/><circle cx="187.9" cy="279.5" r="2" fill="#222255"/><circle cx="198.2" cy="278.1" r="2" fill="#222255"/><circle cx="208.6" cy="279.3" r="2" fill="#222255"/><circle cx="218.9" cy="278.7" r="2" fill="#222255"/><circle cx="229.2" cy="280.1" r="2" fill="#222255"/><circle cx="239.6" cy="278.0" r="2" fill="#222255"/><circle cx="249.9" cy="279.3" r="2" fill="#222255"/><circle cx="260.2" cy="278.0" r="2" fill="#222255"/><circle cx="270.5" cy="278.8" r="2" fill="#222255"/><circle cx="280.9" cy="278.2" r="2" fill="#222255"/><circle cx="291.2" cy="278.8" r="2" fill="#222255"/><circle cx="301.5" cy="279.3" r="2" fill="#222255"/><circle cx="311.8" cy="278.0" r="2" fill="#222255"/><circle cx="322.2" cy="280.9" r="2" fill="#222255"/><circle cx="332.5" cy="269.1" r="2" fill="#222255"/><circle cx="342.8" cy="268.8" r="2" fill="#222255"/><circle cx="353.1" cy="269.5" r="2" fill="#222255"/><circle cx="363.5" cy="269.6" r="2" fill="#222255"/><circle cx="373.8" cy="270.3" r="2" fill="#222255"/><circle cx="384.1" cy="269.8" r="2" fill="#222255"/><circle cx="394.4" cy="269.5" r="2" fill="#222255"/><circle cx="404.8" cy="269.3" r="2" fill="#222255"/><circle cx="415.1" cy="270.2" r="2" fill="#222255"/><circle cx="425.4" cy="269.3" r="2" fill="#222255"/><circle cx="435.8" cy="269.1" r="2" fill="#222255"/><circle cx="446.1" cy="269.5" r="2" fill="#222255"/><circle cx="456.4" cy="269.3" r="2" fill="#222255"/><circle cx="466.7" cy="269.6" r="2" fill="#222255"/><circle cx="477.1" cy="269.0" r="2" fill="#222255"/><circle cx="487.4" cy="269.5" r="2" fill="#222255"/><circle cx="497.7" cy="269.6" r="2" fill="#222255"/><circle cx="508.0" cy="269.1" r="2" fill="#222255"/><circle cx="518.4" cy="269.6" r="2" fill="#222255"/><circle cx="528.7" cy="269.7" r="2" fill="#222255"/><circle cx="539.0" cy="269.2" r="2" fill="#222255"/><circle cx="549.3" cy="269.8" r="2" fill="#222255"/><circle cx="559.7" cy="269.4" r="2" fill="#222255"/><circle cx="570.0" cy="269.3" r="2" fill="#222255"/><rect x="580" y="139" width="10" height="10" fill="#222255"/><text x="594" y="148" font-size="10" fill="#444">hub-50</text><path d="M64.0,295.3 L74.3,295.4 L84.7,295.7 L95.0,295.7 L105.3,295.5 L115.6,295.6 L126.0,296.4 L136.3,295.5 L146.6,295.6 L156.9,296.3 L167.3,295.6 L177.6,295.6 L187.9,295.9 L198.2,295.5 L208.6,296.0 L218.9,295.7 L229.2,296.2 L239.6,295.4 L249.9,295.9 L260.2,295.5 L270.5,295.7 L280.9,295.5 L291.2,295.6 L301.5,295.9 L311.8,295.6 L322.2,296.6 L332.5,293.0 L342.8,292.8 L353.1,293.1 L363.5,293.1 L373.8,293.1 L384.1,293.3 L394.4,293.1 L404.8,293.0 L415.1,293.1 L425.4,293.1 L435.8,293.0 L446.1,293.0 L456.4,293.1 L466.7,293.1 L477.1,293.0 L487.4,293.0 L497.7,293.0 L508.0,292.9 L518.4,293.0 L528.7,293.0 L539.0,293.0 L549.3,293.1 L559.7,293.1 L570.0,293.1" fill="none" stroke="#225555" stroke-width="1.6"/><circle cx="64.0" cy="295.3" r="2" fill="#225555"/><circle cx="74.3" cy="295.4" r="2" fill="#225555"/><circle cx="84.7" cy="295.7" r="2" fill="#225555"/><circle cx="95.0" cy="295.7" r="2" fill="#225555"/><circle cx="105.3" cy="295.5" r="2" fill="#225555"/><circle cx="115.6" cy="295.6" r="2" fill="#225555"/><circle cx="126.0" cy="296.4" r="2" fill="#225555"/><circle cx="136.3" cy="295.5" r="2" fill="#225555"/><circle cx="146.6" cy="295.6" r="2" fill="#225555"/><circle cx="156.9" cy="296.3" r="2" fill="#225555"/><circle cx="167.3" cy="295.6" r="2" fill="#225555"/><circle cx="177.6" cy="295.6" r="2" fill="#225555"/><circle cx="187.9" cy="295.9" r="2" fill="#225555"/><circle cx="198.2" cy="295.5" r="2" fill="#225555"/><circle cx="208.6" cy="296.0" r="2" fill="#225555"/><circle cx="218.9" cy="295.7" r="2" fill="#225555"/><circle cx="229.2" cy="296.2" r="2" fill="#225555"/><circle cx="239.6" cy="295.4" r="2" fill="#225555"/><circle cx="249.9" cy="295.9" r="2" fill="#225555"/><circle cx="260.2" cy="295.5" r="2" fill="#225555"/><circle cx="270.5" cy="295.7" r="2" fill="#225555"/><circle cx="280.9" cy="295.5" r="2" fill="#225555"/><circle cx="291.2" cy="295.6" r="2" fill="#225555"/><circle cx="301.5" cy="295.9" r="2" fill="#225555"/><circle cx="311.8" cy="295.6" r="2" fill="#225555"/><circle cx="322.2" cy="296.6" r="2" fill="#225555"/><circle cx="332.5" cy="293.0" r="2" fill="#225555"/><circle cx="342.8" cy="292.8" r="2" fill="#225555"/><circle cx="353.1" cy="293.1" r="2" fill="#225555"/><circle cx="363.5" cy="293.1" r="2" fill="#225555"/><circle cx="373.8" cy="293.1" r="2" fill="#225555"/><circle cx="384.1" cy="293.3" r="2" fill="#225555"/><circle cx="394.4" cy="293.1" r="2" fill="#225555"/><circle cx="404.8" cy="293.0" r="2" fill="#225555"/><circle cx="415.1" cy="293.1" r="2" fill="#225555"/><circle cx="425.4" cy="293.1" r="2" fill="#225555"/><circle cx="435.8" cy="293.0" r="2" fill="#225555"/><circle cx="446.1" cy="293.0" r="2" fill="#225555"/><circle cx="456.4" cy="293.1" r="2" fill="#225555"/><circle cx="466.7" cy="293.1" r="2" fill="#225555"/><circle cx="477.1" cy="293.0" r="2" fill="#225555"/><circle cx="487.4" cy="293.0" r="2" fill="#225555"/><circle cx="497.7" cy="293.0" r="2" fill="#225555"/><circle cx="508.0" cy="292.9" r="2" fill="#225555"/><circle cx="518.4" cy="293.0" r="2" fill="#225555"/><circle cx="528.7" cy="293.0" r="2" fill="#225555"/><circle cx="539.0" cy="293.0" r="2" fill="#225555"/><circle cx="549.3" cy="293.1" r="2" fill="#225555"/><circle cx="559.7" cy="293.1" r="2" fill="#225555"/><circle cx="570.0" cy="293.1" r="2" fill="#225555"/><rect x="580" y="154" width="10" height="10" fill="#225555"/><text x="594" y="163" font-size="10" fill="#444">hub-200</text><path d="M64.0,295.5 L74.3,295.4 L84.7,295.7 L95.0,295.7 L105.3,295.5 L115.6,295.6 L126.0,296.2 L136.3,295.5 L146.6,295.5 L156.9,296.2 L167.3,295.6 L177.6,295.5 L187.9,295.9 L198.2,295.5 L208.6,296.0 L218.9,295.7 L229.2,296.2 L239.6,295.6 L249.9,295.9 L260.2,295.5 L270.5,295.8 L280.9,295.5 L291.2,295.7 L301.5,296.0 L311.8,295.5 L322.2,296.6 L332.5,292.9 L342.8,292.8 L353.1,293.0 L363.5,293.0 L373.8,293.1 L384.1,293.2 L394.4,293.1 L404.8,293.0 L415.1,293.2 L425.4,293.0 L435.8,293.0 L446.1,293.0 L456.4,293.0 L466.7,293.1 L477.1,293.0 L487.4,293.0 L497.7,293.0 L508.0,293.0 L518.4,293.1 L528.7,293.0 L539.0,293.0 L549.3,293.0 L559.7,293.1 L570.0,293.0" fill="none" stroke="#552222" stroke-width="1.6"/><circle cx="64.0" cy="295.5" r="2" fill="#552222"/><circle cx="74.3" cy="295.4" r="2" fill="#552222"/><circle cx="84.7" cy="295.7" r="2" fill="#552222"/><circle cx="95.0" cy="295.7" r="2" fill="#552222"/><circle cx="105.3" cy="295.5" r="2" fill="#552222"/><circle cx="115.6" cy="295.6" r="2" fill="#552222"/><circle cx="126.0" cy="296.2" r="2" fill="#552222"/><circle cx="136.3" cy="295.5" r="2" fill="#552222"/><circle cx="146.6" cy="295.5" r="2" fill="#552222"/><circle cx="156.9" cy="296.2" r="2" fill="#552222"/><circle cx="167.3" cy="295.6" r="2" fill="#552222"/><circle cx="177.6" cy="295.5" r="2" fill="#552222"/><circle cx="187.9" cy="295.9" r="2" fill="#552222"/><circle cx="198.2" cy="295.5" r="2" fill="#552222"/><circle cx="208.6" cy="296.0" r="2" fill="#552222"/><circle cx="218.9" cy="295.7" r="2" fill="#552222"/><circle cx="229.2" cy="296.2" r="2" fill="#552222"/><circle cx="239.6" cy="295.6" r="2" fill="#552222"/><circle cx="249.9" cy="295.9" r="2" fill="#552222"/><circle cx="260.2" cy="295.5" r="2" fill="#552222"/><circle cx="270.5" cy="295.8" r="2" fill="#552222"/><circle cx="280.9" cy="295.5" r="2" fill="#552222"/><circle cx="291.2" cy="295.7" r="2" fill="#552222"/><circle cx="301.5" cy="296.0" r="2" fill="#552222"/><circle cx="311.8" cy="295.5" r="2" fill="#552222"/><circle cx="322.2" cy="296.6" r="2" fill="#552222"/><circle cx="332.5" cy="292.9" r="2" fill="#552222"/><circle cx="342.8" cy="292.8" r="2" fill="#552222"/><circle cx="353.1" cy="293.0" r="2" fill="#552222"/><circle cx="363.5" cy="293.0" r="2" fill="#552222"/><circle cx="373.8" cy="293.1" r="2" fill="#552222"/><circle cx="384.1" cy="293.2" r="2" fill="#552222"/><circle cx="394.4" cy="293.1" r="2" fill="#552222"/><circle cx="404.8" cy="293.0" r="2" fill="#552222"/><circle cx="415.1" cy="293.2" r="2" fill="#552222"/><circle cx="425.4" cy="293.0" r="2" fill="#552222"/><circle cx="435.8" cy="293.0" r="2" fill="#552222"/><circle cx="446.1" cy="293.0" r="2" fill="#552222"/><circle cx="456.4" cy="293.0" r="2" fill="#552222"/><circle cx="466.7" cy="293.1" r="2" fill="#552222"/><circle cx="477.1" cy="293.0" r="2" fill="#552222"/><circle cx="487.4" cy="293.0" r="2" fill="#552222"/><circle cx="497.7" cy="293.0" r="2" fill="#552222"/><circle cx="508.0" cy="293.0" r="2" fill="#552222"/><circle cx="518.4" cy="293.1" r="2" fill="#552222"/><circle cx="528.7" cy="293.0" r="2" fill="#552222"/><circle cx="539.0" cy="293.0" r="2" fill="#552222"/><circle cx="549.3" cy="293.0" r="2" fill="#552222"/><circle cx="559.7" cy="293.1" r="2" fill="#552222"/><circle cx="570.0" cy="293.0" r="2" fill="#552222"/><rect x="580" y="169" width="10" height="10" fill="#552222"/><text x="594" y="178" font-size="10" fill="#444">hooked-200</text></svg>