<svg width="720" height="372" xmlns="http://www.w3.org/2000/svg"><rect width="720" height="372" fill="#ffffff"/><text x="64" y="20" font-size="15" font-weight="bold" fill="#333">list_exit_actions() — ops/sec (log scale) by PR / release, c8g.medium</text><line x1="70.2" y1="34" x2="70.2" y2="324" stroke="#e8e8e8"/><line x1="76.5" y1="34" x2="76.5" y2="324" stroke="#e8e8e8"/><line x1="82.7" y1="34" x2="82.7" y2="324" stroke="#e8e8e8"/><line x1="89.0" y1="34" x2="89.0" y2="324" stroke="#e8e8e8"/><line x1="101.5" y1="34" x2="101.5" y2="324" stroke="#e8e8e8"/><line x1="107.7" y1="34" x2="107.7" y2="324" stroke="#e8e8e8"/><line x1="114.0" y1="34" x2="114.0" y2="324" stroke="#e8e8e8"/><line x1="120.2" y1="34" x2="120.2" y2="324" stroke="#e8e8e8"/><line x1="132.7" y1="34" x2="132.7" y2="324" stroke="#e8e8e8"/><line x1="139.0" y1="34" x2="139.0" y2="324" stroke="#e8e8e8"/><line x1="145.2" y1="34" x2="145.2" y2="324" stroke="#e8e8e8"/><line x1="151.5" y1="34" x2="151.5" y2="324" stroke="#e8e8e8"/><line x1="164.0" y1="34" x2="164.0" y2="324" stroke="#e8e8e8"/><line x1="170.2" y1="34" x2="170.2" y2="324" stroke="#e8e8e8"/><line x1="176.4" y1="34" x2="176.4" y2="324" stroke="#e8e8e8"/><line x1="182.7" y1="34" x2="182.7" y2="324" stroke="#e8e8e8"/><line x1="195.2" y1="34" x2="195.2" y2="324" stroke="#e8e8e8"/><line x1="201.4" y1="34" x2="201.4" y2="324" stroke="#e8e8e8"/><line x1="207.7" y1="34" x2="207.7" y2="324" stroke="#e8e8e8"/><line x1="213.9" y1="34" x2="213.9" y2="324" stroke="#e8e8e8"/><line x1="226.4" y1="34" x2="226.4" y2="324" stroke="#e8e8e8"/><line x1="232.7" y1="34" x2="232.7" y2="324" stroke="#e8e8e8"/><line x1="238.9" y1="34" x2="238.9" y2="324" stroke="#e8e8e8"/><line x1="245.2" y1="34" x2="245.2" y2="324" stroke="#e8e8e8"/><line x1="257.7" y1="34" x2="257.7" y2="324" stroke="#e8e8e8"/><line x1="263.9" y1="34" x2="263.9" y2="324" stroke="#e8e8e8"/><line x1="270.1" y1="34" x2="270.1" y2="324" stroke="#e8e8e8"/><line x1="276.4" y1="34" x2="276.4" y2="324" stroke="#e8e8e8"/><line x1="288.9" y1="34" x2="288.9" y2="324" stroke="#e8e8e8"/><line x1="295.1" y1="34" x2="295.1" y2="324" stroke="#e8e8e8"/><line x1="301.4" y1="34" x2="301.4" y2="324" stroke="#e8e8e8"/><line x1="307.6" y1="34" x2="307.6" y2="324" stroke="#e8e8e8"/><line x1="320.1" y1="34" x2="320.1" y2="324" stroke="#e8e8e8"/><line x1="326.4" y1="34" x2="326.4" y2="324" stroke="#e8e8e8"/><line x1="332.6" y1="34" x2="332.6" y2="324" stroke="#e8e8e8"/><line x1="338.9" y1="34" x2="338.9" y2="324" stroke="#e8e8e8"/><line x1="351.4" y1="34" x2="351.4" y2="324" stroke="#e8e8e8"/><line x1="357.6" y1="34" x2="357.6" y2="324" stroke="#e8e8e8"/><line x1="363.9" y1="34" x2="363.9" y2="324" stroke="#e8e8e8"/><line x1="370.1" y1="34" x2="370.1" y2="324" stroke="#e8e8e8"/><line x1="382.6" y1="34" x2="382.6" y2="324" stroke="#e8e8e8"/><line x1="388.8" y1="34" x2="388.8" y2="324" stroke="#e8e8e8"/><line x1="395.1" y1="34" x2="395.1" y2="324" stroke="#e8e8e8"/><line x1="401.3" y1="34" x2="401.3" y2="324" stroke="#e8e8e8"/><line x1="413.8" y1="34" x2="413.8" y2="324" stroke="#e8e8e8"/><line x1="420.1" y1="34" x2="420.1" y2="324" stroke="#e8e8e8"/><line x1="426.3" y1="34" x2="426.3" y2="324" stroke="#e8e8e8"/><line x1="432.6" y1="34" x2="432.6" y2="324" stroke="#e8e8e8"/><line x1="445.1" y1="34" x2="445.1" y2="324" stroke="#e8e8e8"/><line x1="451.3" y1="34" x2="451.3" y2="324" stroke="#e8e8e8"/><line x1="457.6" y1="34" x2="457.6" y2="324" stroke="#e8e8e8"/><line x1="463.8" y1="34" x2="463.8" y2="324" stroke="#e8e8e8"/><line x1="476.3" y1="34" x2="476.3" y2="324" stroke="#e8e8e8"/><line x1="482.5" y1="34" x2="482.5" y2="324" stroke="#e8e8e8"/><line x1="488.8" y1="34" x2="488.8" y2="324" stroke="#e8e8e8"/><line x1="495.0" y1="34" x2="495.0" y2="324" stroke="#e8e8e8"/><line x1="507.5" y1="34" x2="507.5" y2="324" stroke="#e8e8e8"/><line x1="513.8" y1="34" x2="513.8" y2="324" stroke="#e8e8e8"/><line x1="520.0" y1="34" x2="520.0" y2="324" stroke="#e8e8e8"/><line x1="526.3" y1="34" x2="526.3" y2="324" stroke="#e8e8e8"/><line x1="538.8" y1="34" x2="538.8" y2="324" stroke="#e8e8e8"/><line x1="545.0" y1="34" x2="545.0" y2="324" stroke="#e8e8e8"/><line x1="551.3" y1="34" x2="551.3" y2="324" stroke="#e8e8e8"/><line x1="557.5" y1="34" x2="557.5" y2="324" stroke="#e8e8e8"/><line x1="570.0" y1="34" x2="570.0" y2="324" stroke="#e8e8e8"/><line x1="64" y1="309.5" x2="570" y2="309.5" stroke="#d8d8d8"/><line x1="64" y1="300.9" x2="570" y2="300.9" stroke="#d8d8d8"/><line x1="64" y1="294.9" x2="570" y2="294.9" stroke="#d8d8d8"/><line x1="64" y1="290.2" x2="570" y2="290.2" stroke="#d8d8d8"/><line x1="64" y1="286.4" x2="570" y2="286.4" stroke="#d8d8d8"/><line x1="64" y1="283.2" x2="570" y2="283.2" stroke="#d8d8d8"/><line x1="64" y1="280.4" x2="570" y2="280.4" stroke="#d8d8d8"/><line x1="64" y1="277.9" x2="570" y2="277.9" stroke="#d8d8d8"/><line x1="64" y1="261.1" x2="570" y2="261.1" stroke="#d8d8d8"/><line x1="64" y1="252.6" x2="570" y2="252.6" stroke="#d8d8d8"/><line x1="64" y1="246.6" x2="570" y2="246.6" stroke="#d8d8d8"/><line x1="64" y1="241.9" x2="570" y2="241.9" stroke="#d8d8d8"/><line x1="64" y1="238.1" x2="570" y2="238.1" stroke="#d8d8d8"/><line x1="64" y1="234.8" x2="570" y2="234.8" stroke="#d8d8d8"/><line x1="64" y1="232.0" x2="570" y2="232.0" stroke="#d8d8d8"/><line x1="64" y1="229.5" x2="570" y2="229.5" stroke="#d8d8d8"/><line x1="64" y1="212.8" x2="570" y2="212.8" stroke="#d8d8d8"/><line x1="64" y1="204.3" x2="570" y2="204.3" stroke="#d8d8d8"/><line x1="64" y1="198.2" x2="570" y2="198.2" stroke="#d8d8d8"/><line x1="64" y1="193.5" x2="570" y2="193.5" stroke="#d8d8d8"/><line x1="64" y1="189.7" x2="570" y2="189.7" stroke="#d8d8d8"/><line x1="64" y1="186.5" x2="570" y2="186.5" stroke="#d8d8d8"/><line x1="64" y1="183.7" x2="570" y2="183.7" stroke="#d8d8d8"/><line x1="64" y1="181.2" x2="570" y2="181.2" stroke="#d8d8d8"/><line x1="64" y1="164.5" x2="570" y2="164.5" stroke="#d8d8d8"/><line x1="64" y1="155.9" x2="570" y2="155.9" stroke="#d8d8d8"/><line x1="64" y1="149.9" x2="570" y2="149.9" stroke="#d8d8d8"/><line x1="64" y1="145.2" x2="570" y2="145.2" stroke="#d8d8d8"/><line x1="64" y1="141.4" x2="570" y2="141.4" stroke="#d8d8d8"/><line x1="64" y1="138.2" x2="570" y2="138.2" stroke="#d8d8d8"/><line x1="64" y1="135.4" x2="570" y2="135.4" stroke="#d8d8d8"/><line x1="64" y1="132.9" x2="570" y2="132.9" stroke="#d8d8d8"/><line x1="64" y1="116.1" x2="570" y2="116.1" stroke="#d8d8d8"/><line x1="64" y1="107.6" x2="570" y2="107.6" stroke="#d8d8d8"/><line x1="64" y1="101.6" x2="570" y2="101.6" stroke="#d8d8d8"/><line x1="64" y1="96.9" x2="570" y2="96.9" stroke="#d8d8d8"/><line x1="64" y1="93.1" x2="570" y2="93.1" stroke="#d8d8d8"/><line x1="64" y1="89.8" x2="570" y2="89.8" stroke="#d8d8d8"/><line x1="64" y1="87.0" x2="570" y2="87.0" stroke="#d8d8d8"/><line x1="64" y1="84.5" x2="570" y2="84.5" stroke="#d8d8d8"/><line x1="64" y1="67.8" x2="570" y2="67.8" stroke="#d8d8d8"/><line x1="64" y1="59.3" x2="570" y2="59.3" stroke="#d8d8d8"/><line x1="64" y1="53.2" x2="570" y2="53.2" stroke="#d8d8d8"/><line x1="64" y1="48.5" x2="570" y2="48.5" stroke="#d8d8d8"/><line x1="64" y1="44.7" x2="570" y2="44.7" stroke="#d8d8d8"/><line x1="64" y1="41.5" x2="570" y2="41.5" stroke="#d8d8d8"/><line x1="64" y1="38.7" x2="570" y2="38.7" stroke="#d8d8d8"/><line x1="64" y1="36.2" x2="570" y2="36.2" stroke="#d8d8d8"/><line x1="64.0" y1="34" x2="64.0" y2="324" stroke="#d0d0d0"/><line x1="95.2" y1="34" x2="95.2" y2="324" stroke="#d0d0d0"/><line x1="126.5" y1="34" x2="126.5" y2="324" stroke="#d0d0d0"/><line x1="157.7" y1="34" x2="157.7" y2="324" stroke="#d0d0d0"/><line x1="188.9" y1="34" x2="188.9" y2="324" stroke="#d0d0d0"/><line x1="220.2" y1="34" x2="220.2" y2="324" stroke="#d0d0d0"/><line x1="251.4" y1="34" x2="251.4" y2="324" stroke="#d0d0d0"/><line x1="282.6" y1="34" x2="282.6" y2="324" stroke="#d0d0d0"/><line x1="313.9" y1="34" x2="313.9" y2="324" stroke="#d0d0d0"/><line x1="345.1" y1="34" x2="345.1" y2="324" stroke="#d0d0d0"/><line x1="376.3" y1="34" x2="376.3" y2="324" stroke="#d0d0d0"/><line x1="407.6" y1="34" x2="407.6" y2="324" stroke="#d0d0d0"/><line x1="438.8" y1="34" x2="438.8" y2="324" stroke="#d0d0d0"/><line x1="470.0" y1="34" x2="470.0" y2="324" stroke="#d0d0d0"/><line x1="501.3" y1="34" x2="501.3" y2="324" stroke="#d0d0d0"/><line x1="532.5" y1="34" x2="532.5" y2="324" stroke="#d0d0d0"/><line x1="563.8" y1="34" x2="563.8" y2="324" stroke="#d0d0d0"/><line x1="64" y1="324" x2="570" y2="324" stroke="#b0b0b0"/><text x="58" y="328" font-size="10" text-anchor="end" fill="#888">1e0</text><line x1="64" y1="275.6666666666667" x2="570" y2="275.6666666666667" stroke="#b0b0b0"/><text x="58" y="279.6666666666667" font-size="10" text-anchor="end" fill="#888">1e1</text><line x1="64" y1="227.33333333333334" x2="570" y2="227.33333333333334" stroke="#b0b0b0"/><text x="58" y="231.33333333333334" font-size="10" text-anchor="end" fill="#888">1e2</text><line x1="64" y1="179" x2="570" y2="179" stroke="#b0b0b0"/><text x="58" y="183" font-size="10" text-anchor="end" fill="#888">1e3</text><line x1="64" y1="130.66666666666669" x2="570" y2="130.66666666666669" stroke="#b0b0b0"/><text x="58" y="134.66666666666669" font-size="10" text-anchor="end" fill="#888">1e4</text><line x1="64" y1="82.33333333333331" x2="570" y2="82.33333333333331" stroke="#b0b0b0"/><text x="58" y="86.33333333333331" font-size="10" text-anchor="end" fill="#888">1e5</text><line x1="64" y1="34" x2="570" y2="34" stroke="#b0b0b0"/><text x="58" y="38" font-size="10" text-anchor="end" fill="#888">1e6</text><text x="64.0" y="327.2" font-size="4" text-anchor="end" fill="#aa4400" transform="rotate(-80 64.0 327.2)">v5.130.0</text><text x="70.2" y="327.2" font-size="4" text-anchor="end" fill="#aa4400" transform="rotate(-80 70.2 327.2)">v5.131.0</text><text x="76.5" y="327.2" font-size="4" text-anchor="end" fill="#aa4400" transform="rotate(-80 76.5 327.2)">v5.132.0</text><text x="82.7" y="327.2" font-size="4" text-anchor="end" fill="#aa4400" transform="rotate(-80 82.7 327.2)">v5.133.0</text><text x="89.0" y="327.2" font-size="4" text-anchor="end" fill="#aa4400" transform="rotate(-80 89.0 327.2)">v5.134.0</text><text x="95.2" y="327.2" font-size="4" text-anchor="end" fill="#aa4400" transform="rotate(-80 95.2 327.2)">v5.135.0</text><text x="101.5" y="327.2" font-size="4" text-anchor="end" fill="#aa4400" transform="rotate(-80 101.5 327.2)">v5.136.0</text><text x="107.7" y="327.2" font-size="4" text-anchor="end" fill="#aa4400" transform="rotate(-80 107.7 327.2)">v5.137.0</text><text x="114.0" y="327.2" font-size="4" text-anchor="end" fill="#aa4400" transform="rotate(-80 114.0 327.2)">v5.138.0</text><text x="120.2" y="327.2" font-size="4" text-anchor="end" fill="#aa4400" transform="rotate(-80 120.2 327.2)">v5.139.0</text><text x="126.5" y="327.2" font-size="4" text-anchor="end" fill="#aa4400" transform="rotate(-80 126.5 327.2)">v5.141.0</text><text x="132.7" y="327.2" font-size="4" text-anchor="end" fill="#d6a382" transform="rotate(-80 132.7 327.2)">v5.141.1</text><text x="139.0" y="327.2" font-size="4" text-anchor="end" fill="#d6a382" transform="rotate(-80 139.0 327.2)">v5.141.2</text><text x="145.2" y="327.2" font-size="4" text-anchor="end" fill="#d6a382" transform="rotate(-80 145.2 327.2)">v5.141.3</text><text x="151.5" y="327.2" font-size="4" text-anchor="end" fill="#d6a382" transform="rotate(-80 151.5 327.2)">v5.141.4</text><text x="157.7" y="327.2" font-size="4" text-anchor="end" fill="#d6a382" transform="rotate(-80 157.7 327.2)">v5.141.5</text><text x="164.0" y="327.2" font-size="4" text-anchor="end" fill="#d6a382" transform="rotate(-80 164.0 327.2)">v5.141.6</text><text x="170.2" y="327.2" font-size="4" text-anchor="end" fill="#d6a382" transform="rotate(-80 170.2 327.2)">v5.141.8</text><text x="176.4" y="327.2" font-size="4" text-anchor="end" fill="#d6a382" transform="rotate(-80 176.4 327.2)">v5.141.9</text><text x="182.7" y="327.2" font-size="4" text-anchor="end" fill="#d6a382" transform="rotate(-80 182.7 327.2)">v5.141.10</text><text x="188.9" y="327.2" font-size="4" text-anchor="end" fill="#d6a382" transform="rotate(-80 188.9 327.2)">v5.141.11</text><text x="195.2" y="327.2" font-size="4" text-anchor="end" fill="#d6a382" transform="rotate(-80 195.2 327.2)">v5.141.12</text><text x="201.4" y="327.2" font-size="4" text-anchor="end" fill="#d6a382" transform="rotate(-80 201.4 327.2)">v5.141.13</text><text x="207.7" y="327.2" font-size="4" text-anchor="end" fill="#d6a382" transform="rotate(-80 207.7 327.2)">v5.141.14</text><text x="213.9" y="327.2" font-size="4" text-anchor="end" fill="#aa4400" transform="rotate(-80 213.9 327.2)">v5.142.0</text><text x="220.2" y="327.2" font-size="4" text-anchor="end" fill="#d6a382" transform="rotate(-80 220.2 327.2)">v5.142.1</text><text x="226.4" y="327.2" font-size="4" text-anchor="end" fill="#d6a382" transform="rotate(-80 226.4 327.2)">v5.142.2</text><text x="232.7" y="327.2" font-size="4" text-anchor="end" fill="#d6a382" transform="rotate(-80 232.7 327.2)">v5.142.3</text><text x="238.9" y="327.2" font-size="4" text-anchor="end" fill="#d6a382" transform="rotate(-80 238.9 327.2)">v5.142.4</text><text x="245.2" y="327.2" font-size="4" text-anchor="end" fill="#aa4400" transform="rotate(-80 245.2 327.2)">v5.143.0</text><text x="251.4" y="327.2" font-size="4" text-anchor="end" fill="#d6a382" transform="rotate(-80 251.4 327.2)">v5.143.1</text><text x="257.7" y="327.2" font-size="4" text-anchor="end" fill="#d6a382" transform="rotate(-80 257.7 327.2)">v5.143.2</text><text x="263.9" y="327.2" font-size="4" text-anchor="end" fill="#d6a382" transform="rotate(-80 263.9 327.2)">v5.143.3</text><text x="270.1" y="327.2" font-size="4" text-anchor="end" fill="#d6a382" transform="rotate(-80 270.1 327.2)">v5.143.4</text><text x="276.4" y="327.2" font-size="4" text-anchor="end" fill="#d6a382" transform="rotate(-80 276.4 327.2)">v5.143.5</text><text x="282.6" y="327.2" font-size="4" text-anchor="end" fill="#d6a382" transform="rotate(-80 282.6 327.2)">v5.143.6</text><text x="288.9" y="327.2" font-size="4" text-anchor="end" fill="#d6a382" transform="rotate(-80 288.9 327.2)">v5.143.7</text><text x="295.1" y="327.2" font-size="4" text-anchor="end" fill="#d6a382" transform="rotate(-80 295.1 327.2)">v5.143.8</text><text x="301.4" y="327.2" font-size="4" text-anchor="end" fill="#d6a382" transform="rotate(-80 301.4 327.2)">v5.143.9</text><text x="307.6" y="327.2" font-size="4" text-anchor="end" fill="#d6a382" transform="rotate(-80 307.6 327.2)">v5.143.10</text><text x="313.9" y="327.2" font-size="4" text-anchor="end" fill="#d6a382" transform="rotate(-80 313.9 327.2)">v5.143.11</text><text x="320.1" y="327.2" font-size="4" text-anchor="end" fill="#d6a382" transform="rotate(-80 320.1 327.2)">v5.143.12</text><text x="326.4" y="327.2" font-size="4" text-anchor="end" fill="#d6a382" transform="rotate(-80 326.4 327.2)">v5.143.15</text><text x="332.6" y="327.2" font-size="4" text-anchor="end" fill="#d6a382" transform="rotate(-80 332.6 327.2)">v5.143.16</text><text x="338.9" y="327.2" font-size="4" text-anchor="end" fill="#d6a382" transform="rotate(-80 338.9 327.2)">v5.143.20</text><text x="345.1" y="327.2" font-size="4" text-anchor="end" fill="#d6a382" transform="rotate(-80 345.1 327.2)">v5.143.21</text><text x="351.4" y="327.2" font-size="4" text-anchor="end" fill="#d6a382" transform="rotate(-80 351.4 327.2)">v5.143.22</text><text x="357.6" y="327.2" font-size="4" text-anchor="end" fill="#d6a382" transform="rotate(-80 357.6 327.2)">v5.143.23</text><text x="363.9" y="327.2" font-size="4" text-anchor="end" fill="#d6a382" transform="rotate(-80 363.9 327.2)">v5.143.24</text><text x="370.1" y="327.2" font-size="4" text-anchor="end" fill="#d6a382" transform="rotate(-80 370.1 327.2)">v5.143.25</text><text x="376.3" y="327.2" font-size="4" text-anchor="end" fill="#d6a382" transform="rotate(-80 376.3 327.2)">v5.143.26</text><text x="382.6" y="327.2" font-size="4" text-anchor="end" fill="#d6a382" transform="rotate(-80 382.6 327.2)">v5.143.27</text><text x="388.8" y="327.2" font-size="4" text-anchor="end" fill="#d6a382" transform="rotate(-80 388.8 327.2)">v5.143.28</text><text x="395.1" y="327.2" font-size="4" text-anchor="end" fill="#d6a382" transform="rotate(-80 395.1 327.2)">v5.143.29</text><text x="401.3" y="327.2" font-size="4" text-anchor="end" fill="#d6a382" transform="rotate(-80 401.3 327.2)">v5.143.30</text><text x="407.6" y="327.2" font-size="4" text-anchor="end" fill="#d6a382" transform="rotate(-80 407.6 327.2)">v5.143.31</text><text x="413.8" y="327.2" font-size="4" text-anchor="end" fill="#d6a382" transform="rotate(-80 413.8 327.2)">v5.143.33</text><text x="420.1" y="327.2" font-size="4" text-anchor="end" fill="#d6a382" transform="rotate(-80 420.1 327.2)">v5.143.34</text><text x="426.3" y="327.2" font-size="4" text-anchor="end" fill="#d6a382" transform="rotate(-80 426.3 327.2)">v5.143.35</text><text x="432.6" y="327.2" font-size="4" text-anchor="end" fill="#aa4400" transform="rotate(-80 432.6 327.2)">v5.144.0</text><text x="438.8" y="327.2" font-size="4" text-anchor="end" fill="#d6a382" transform="rotate(-80 438.8 327.2)">v5.144.1</text><text x="445.1" y="327.2" font-size="4" text-anchor="end" fill="#d6a382" transform="rotate(-80 445.1 327.2)">v5.144.2</text><text x="451.3" y="327.2" font-size="4" text-anchor="end" fill="#d6a382" transform="rotate(-80 451.3 327.2)">v5.144.3</text><text x="457.6" y="327.2" font-size="4" text-anchor="end" fill="#d6a382" transform="rotate(-80 457.6 327.2)">v5.144.4</text><text x="463.8" y="327.2" font-size="4" text-anchor="end" fill="#d6a382" transform="rotate(-80 463.8 327.2)">v5.144.5</text><text x="470.0" y="327.2" font-size="4" text-anchor="end" fill="#d6a382" transform="rotate(-80 470.0 327.2)">v5.144.7</text><text x="476.3" y="327.2" font-size="4" text-anchor="end" fill="#d6a382" transform="rotate(-80 476.3 327.2)">v5.144.8</text><text x="482.5" y="327.2" font-size="4" text-anchor="end" fill="#aa4400" transform="rotate(-80 482.5 327.2)">v5.145.0</text><text x="488.8" y="327.2" font-size="4" text-anchor="end" fill="#d6a382" transform="rotate(-80 488.8 327.2)">v5.145.1</text><text x="495.0" y="327.2" font-size="4" text-anchor="end" fill="#d6a382" transform="rotate(-80 495.0 327.2)">v5.145.2</text><text x="501.3" y="327.2" font-size="4" text-anchor="end" fill="#d6a382" transform="rotate(-80 501.3 327.2)">v5.145.3</text><text x="507.5" y="327.2" font-size="4" text-anchor="end" fill="#d6a382" transform="rotate(-80 507.5 327.2)">v5.145.4</text><text x="513.8" y="327.2" font-size="4" text-anchor="end" fill="#d6a382" transform="rotate(-80 513.8 327.2)">v5.145.6</text><text x="520.0" y="327.2" font-size="4" text-anchor="end" fill="#aa4400" transform="rotate(-80 520.0 327.2)">v5.146.0</text><text x="526.3" y="327.2" font-size="4" text-anchor="end" fill="#aa4400" transform="rotate(-80 526.3 327.2)">v5.147.0</text><text x="532.5" y="327.2" font-size="4" text-anchor="end" fill="#d6a382" transform="rotate(-80 532.5 327.2)">v5.147.1</text><text x="538.8" y="327.2" font-size="4" text-anchor="end" fill="#d6a382" transform="rotate(-80 538.8 327.2)">v5.147.2</text><text x="545.0" y="327.2" font-size="4" text-anchor="end" fill="#d6a382" transform="rotate(-80 545.0 327.2)">v5.147.3</text><text x="551.3" y="327.2" font-size="4" text-anchor="end" fill="#d6a382" transform="rotate(-80 551.3 327.2)">v5.147.4</text><text x="557.5" y="327.2" font-size="4" text-anchor="end" fill="#d6a382" transform="rotate(-80 557.5 327.2)">v5.147.5</text><text x="563.8" y="327.2" font-size="4" text-anchor="end" fill="#d6a382" transform="rotate(-80 563.8 327.2)">v5.147.6</text><text x="570.0" y="327.2" font-size="4" text-anchor="end" fill="#d6a382" transform="rotate(-80 570.0 327.2)">v5.147.7</text><path d="M451.3,59.0 L457.6,59.5 L463.8,59.5 L470.0,59.6 L476.3,60.0 L482.5,59.6 L488.8,60.4 L495.0,58.9 L501.3,59.2 L507.5,59.0 L513.8,59.0 L520.0,59.2 L526.3,60.0 L532.5,59.0 L538.8,59.6 L545.0,58.6 L551.3,59.3 L557.5,58.9 L563.8,58.3 L570.0,58.4" fill="none" stroke="#4477AA" stroke-width="1.6"/><circle cx="451.3" cy="59.0" r="2" fill="#4477AA"/><circle cx="457.6" cy="59.5" r="2" fill="#4477AA"/><circle cx="463.8" cy="59.5" r="2" fill="#4477AA"/><circle cx="470.0" cy="59.6" r="2" fill="#4477AA"/><circle cx="476.3" cy="60.0" r="2" fill="#4477AA"/><circle cx="482.5" cy="59.6" r="2" fill="#4477AA"/><circle cx="488.8" cy="60.4" r="2" fill="#4477AA"/><circle cx="495.0" cy="58.9" r="2" fill="#4477AA"/><circle cx="501.3" cy="59.2" r="2" fill="#4477AA"/><circle cx="507.5" cy="59.0" r="2" fill="#4477AA"/><circle cx="513.8" cy="59.0" r="2" fill="#4477AA"/><circle cx="520.0" cy="59.2" r="2" fill="#4477AA"/><circle cx="526.3" cy="60.0" r="2" fill="#4477AA"/><circle cx="532.5" cy="59.0" r="2" fill="#4477AA"/><circle cx="538.8" cy="59.6" r="2" fill="#4477AA"/><circle cx="545.0" cy="58.6" r="2" fill="#4477AA"/><circle cx="551.3" cy="59.3" r="2" fill="#4477AA"/><circle cx="557.5" cy="58.9" r="2" fill="#4477AA"/><circle cx="563.8" cy="58.3" r="2" fill="#4477AA"/><circle cx="570.0" cy="58.4" r="2" fill="#4477AA"/><rect x="580" y="34" width="10" height="10" fill="#4477AA"/><text x="594" y="43" font-size="10" fill="#444">chain-10</text><path d="M451.3,60.2 L457.6,60.4 L463.8,60.2 L470.0,60.1 L476.3,60.2 L482.5,60.2 L488.8,61.2 L495.0,60.6 L501.3,60.0 L507.5,60.8 L513.8,60.3 L520.0,60.8 L526.3,59.8 L532.5,60.1 L538.8,59.8 L545.0,59.4 L551.3,59.9 L557.5,59.6 L563.8,60.2 L570.0,60.5" fill="none" stroke="#EE6677" stroke-width="1.6"/><circle cx="451.3" cy="60.2" r="2" fill="#EE6677"/><circle cx="457.6" cy="60.4" r="2" fill="#EE6677"/><circle cx="463.8" cy="60.2" r="2" fill="#EE6677"/><circle cx="470.0" cy="60.1" r="2" fill="#EE6677"/><circle cx="476.3" cy="60.2" r="2" fill="#EE6677"/><circle cx="482.5" cy="60.2" r="2" fill="#EE6677"/><circle cx="488.8" cy="61.2" r="2" fill="#EE6677"/><circle cx="495.0" cy="60.6" r="2" fill="#EE6677"/><circle cx="501.3" cy="60.0" r="2" fill="#EE6677"/><circle cx="507.5" cy="60.8" r="2" fill="#EE6677"/><circle cx="513.8" cy="60.3" r="2" fill="#EE6677"/><circle cx="520.0" cy="60.8" r="2" fill="#EE6677"/><circle cx="526.3" cy="59.8" r="2" fill="#EE6677"/><circle cx="532.5" cy="60.1" r="2" fill="#EE6677"/><circle cx="538.8" cy="59.8" r="2" fill="#EE6677"/><circle cx="545.0" cy="59.4" r="2" fill="#EE6677"/><circle cx="551.3" cy="59.9" r="2" fill="#EE6677"/><circle cx="557.5" cy="59.6" r="2" fill="#EE6677"/><circle cx="563.8" cy="60.2" r="2" fill="#EE6677"/><circle cx="570.0" cy="60.5" r="2" fill="#EE6677"/><rect x="580" y="49" width="10" height="10" fill="#EE6677"/><text x="594" y="58" font-size="10" fill="#444">chain-50</text><path d="M451.3,60.4 L457.6,60.5 L463.8,60.2 L470.0,60.3 L476.3,60.4 L482.5,60.5 L488.8,60.4 L495.0,60.0 L501.3,59.8 L507.5,60.3 L513.8,60.4 L520.0,60.0 L526.3,60.0 L532.5,60.1 L538.8,59.8 L545.0,60.0 L551.3,60.8 L557.5,60.3 L563.8,61.2 L570.0,61.2" fill="none" stroke="#228833" stroke-width="1.6"/><circle cx="451.3" cy="60.4" r="2" fill="#228833"/><circle cx="457.6" cy="60.5" r="2" fill="#228833"/><circle cx="463.8" cy="60.2" r="2" fill="#228833"/><circle cx="470.0" cy="60.3" r="2" fill="#228833"/><circle cx="476.3" cy="60.4" r="2" fill="#228833"/><circle cx="482.5" cy="60.5" r="2" fill="#228833"/><circle cx="488.8" cy="60.4" r="2" fill="#228833"/><circle cx="495.0" cy="60.0" r="2" fill="#228833"/><circle cx="501.3" cy="59.8" r="2" fill="#228833"/><circle cx="507.5" cy="60.3" r="2" fill="#228833"/><circle cx="513.8" cy="60.4" r="2" fill="#228833"/><circle cx="520.0" cy="60.0" r="2" fill="#228833"/><circle cx="526.3" cy="60.0" r="2" fill="#228833"/><circle cx="532.5" cy="60.1" r="2" fill="#228833"/><circle cx="538.8" cy="59.8" r="2" fill="#228833"/><circle cx="545.0" cy="60.0" r="2" fill="#228833"/><circle cx="551.3" cy="60.8" r="2" fill="#228833"/><circle cx="557.5" cy="60.3" r="2" fill="#228833"/><circle cx="563.8" cy="61.2" r="2" fill="#228833"/><circle cx="570.0" cy="61.2" r="2" fill="#228833"/><rect x="580" y="64" width="10" height="10" fill="#228833"/><text x="594" y="73" font-size="10" fill="#444">chain-200</text><path d="M451.3,62.1 L457.6,62.1 L463.8,62.1 L470.0,61.9 L476.3,62.1 L482.5,63.2 L488.8,62.6 L495.0,62.0 L501.3,62.3 L507.5,61.1 L513.8,62.3 L520.0,61.2 L526.3,61.7 L532.5,62.1 L538.8,62.3 L545.0,61.6 L551.3,62.7 L557.5,62.7 L563.8,62.5 L570.0,62.3" fill="none" stroke="#CCBB44" stroke-width="1.6"/><circle cx="451.3" cy="62.1" r="2" fill="#CCBB44"/><circle cx="457.6" cy="62.1" r="2" fill="#CCBB44"/><circle cx="463.8" cy="62.1" r="2" fill="#CCBB44"/><circle cx="470.0" cy="61.9" r="2" fill="#CCBB44"/><circle cx="476.3" cy="62.1" r="2" fill="#CCBB44"/><circle cx="482.5" cy="63.2" r="2" fill="#CCBB44"/><circle cx="488.8" cy="62.6" r="2" fill="#CCBB44"/><circle cx="495.0" cy="62.0" r="2" fill="#CCBB44"/><circle cx="501.3" cy="62.3" r="2" fill="#CCBB44"/><circle cx="507.5" cy="61.1" r="2" fill="#CCBB44"/><circle cx="513.8" cy="62.3" r="2" fill="#CCBB44"/><circle cx="520.0" cy="61.2" r="2" fill="#CCBB44"/><circle cx="526.3" cy="61.7" r="2" fill="#CCBB44"/><circle cx="532.5" cy="62.1" r="2" fill="#CCBB44"/><circle cx="538.8" cy="62.3" r="2" fill="#CCBB44"/><circle cx="545.0" cy="61.6" r="2" fill="#CCBB44"/><circle cx="551.3" cy="62.7" r="2" fill="#CCBB44"/><circle cx="557.5" cy="62.7" r="2" fill="#CCBB44"/><circle cx="563.8" cy="62.5" r="2" fill="#CCBB44"/><circle cx="570.0" cy="62.3" r="2" fill="#CCBB44"/><rect x="580" y="79" width="10" height="10" fill="#CCBB44"/><text x="594" y="88" font-size="10" fill="#444">chain-1000</text><path d="M451.3,68.2 L457.6,67.7 L463.8,68.5 L470.0,68.0 L476.3,68.0 L482.5,68.8 L488.8,68.6 L495.0,67.7 L501.3,67.6 L507.5,67.6 L513.8,67.9 L520.0,68.0 L526.3,68.4 L532.5,67.3 L538.8,68.6 L545.0,68.7 L551.3,67.7 L557.5,67.4 L563.8,67.0 L570.0,68.2" fill="none" stroke="#66CCEE" stroke-width="1.6"/><circle cx="451.3" cy="68.2" r="2" fill="#66CCEE"/><circle cx="457.6" cy="67.7" r="2" fill="#66CCEE"/><circle cx="463.8" cy="68.5" r="2" fill="#66CCEE"/><circle cx="470.0" cy="68.0" r="2" fill="#66CCEE"/><circle cx="476.3" cy="68.0" r="2" fill="#66CCEE"/><circle cx="482.5" cy="68.8" r="2" fill="#66CCEE"/><circle cx="488.8" cy="68.6" r="2" fill="#66CCEE"/><circle cx="495.0" cy="67.7" r="2" fill="#66CCEE"/><circle cx="501.3" cy="67.6" r="2" fill="#66CCEE"/><circle cx="507.5" cy="67.6" r="2" fill="#66CCEE"/><circle cx="513.8" cy="67.9" r="2" fill="#66CCEE"/><circle cx="520.0" cy="68.0" r="2" fill="#66CCEE"/><circle cx="526.3" cy="68.4" r="2" fill="#66CCEE"/><circle cx="532.5" cy="67.3" r="2" fill="#66CCEE"/><circle cx="538.8" cy="68.6" r="2" fill="#66CCEE"/><circle cx="545.0" cy="68.7" r="2" fill="#66CCEE"/><circle cx="551.3" cy="67.7" r="2" fill="#66CCEE"/><circle cx="557.5" cy="67.4" r="2" fill="#66CCEE"/><circle cx="563.8" cy="67.0" r="2" fill="#66CCEE"/><circle cx="570.0" cy="68.2" r="2" fill="#66CCEE"/><rect x="580" y="94" width="10" height="10" fill="#66CCEE"/><text x="594" y="103" font-size="10" fill="#444">dense-10</text><path d="M451.3,90.1 L457.6,90.3 L463.8,90.1 L470.0,89.9 L476.3,90.3 L482.5,89.9 L488.8,90.4 L495.0,90.6 L501.3,90.1 L507.5,90.8 L513.8,90.4 L520.0,91.0 L526.3,90.2 L532.5,90.7 L538.8,90.1 L545.0,90.0 L551.3,90.1 L557.5,90.2 L563.8,90.1 L570.0,90.4" fill="none" stroke="#AA3377" stroke-width="1.6"/><circle cx="451.3" cy="90.1" r="2" fill="#AA3377"/><circle cx="457.6" cy="90.3" r="2" fill="#AA3377"/><circle cx="463.8" cy="90.1" r="2" fill="#AA3377"/><circle cx="470.0" cy="89.9" r="2" fill="#AA3377"/><circle cx="476.3" cy="90.3" r="2" fill="#AA3377"/><circle cx="482.5" cy="89.9" r="2" fill="#AA3377"/><circle cx="488.8" cy="90.4" r="2" fill="#AA3377"/><circle cx="495.0" cy="90.6" r="2" fill="#AA3377"/><circle cx="501.3" cy="90.1" r="2" fill="#AA3377"/><circle cx="507.5" cy="90.8" r="2" fill="#AA3377"/><circle cx="513.8" cy="90.4" r="2" fill="#AA3377"/><circle cx="520.0" cy="91.0" r="2" fill="#AA3377"/><circle cx="526.3" cy="90.2" r="2" fill="#AA3377"/><circle cx="532.5" cy="90.7" r="2" fill="#AA3377"/><circle cx="538.8" cy="90.1" r="2" fill="#AA3377"/><circle cx="545.0" cy="90.0" r="2" fill="#AA3377"/><circle cx="551.3" cy="90.1" r="2" fill="#AA3377"/><circle cx="557.5" cy="90.2" r="2" fill="#AA3377"/><circle cx="563.8" cy="90.1" r="2" fill="#AA3377"/><circle cx="570.0" cy="90.4" r="2" fill="#AA3377"/><rect x="580" y="109" width="10" height="10" fill="#AA3377"/><text x="594" y="118" font-size="10" fill="#444">dense-50</text><path d="M451.3,117.2 L457.6,117.1 L463.8,117.0 L470.0,116.8 L476.3,117.4 L482.5,116.9 L488.8,116.9 L495.0,116.9 L501.3,117.1 L507.5,117.1 L513.8,117.3 L520.0,117.1 L526.3,116.9 L532.5,116.9 L538.8,117.0 L545.0,117.4 L551.3,116.9 L557.5,117.3 L563.8,117.5 L570.0,117.2" fill="none" stroke="#BBBBBB" stroke-width="1.6"/><circle cx="451.3" cy="117.2" r="2" fill="#BBBBBB"/><circle cx="457.6" cy="117.1" r="2" fill="#BBBBBB"/><circle cx="463.8" cy="117.0" r="2" fill="#BBBBBB"/><circle cx="470.0" cy="116.8" r="2" fill="#BBBBBB"/><circle cx="476.3" cy="117.4" r="2" fill="#BBBBBB"/><circle cx="482.5" cy="116.9" r="2" fill="#BBBBBB"/><circle cx="488.8" cy="116.9" r="2" fill="#BBBBBB"/><circle cx="495.0" cy="116.9" r="2" fill="#BBBBBB"/><circle cx="501.3" cy="117.1" r="2" fill="#BBBBBB"/><circle cx="507.5" cy="117.1" r="2" fill="#BBBBBB"/><circle cx="513.8" cy="117.3" r="2" fill="#BBBBBB"/><circle cx="520.0" cy="117.1" r="2" fill="#BBBBBB"/><circle cx="526.3" cy="116.9" r="2" fill="#BBBBBB"/><circle cx="532.5" cy="116.9" r="2" fill="#BBBBBB"/><circle cx="538.8" cy="117.0" r="2" fill="#BBBBBB"/><circle cx="545.0" cy="117.4" r="2" fill="#BBBBBB"/><circle cx="551.3" cy="116.9" r="2" fill="#BBBBBB"/><circle cx="557.5" cy="117.3" r="2" fill="#BBBBBB"/><circle cx="563.8" cy="117.5" r="2" fill="#BBBBBB"/><circle cx="570.0" cy="117.2" r="2" fill="#BBBBBB"/><rect x="580" y="124" width="10" height="10" fill="#BBBBBB"/><text x="594" y="133" font-size="10" fill="#444">dense-200</text><path d="M451.3,80.5 L457.6,80.1 L463.8,79.8 L470.0,80.6 L476.3,80.0 L482.5,80.3 L488.8,82.6 L495.0,81.1 L501.3,80.2 L507.5,81.4 L513.8,79.9 L520.0,80.7 L526.3,80.2 L532.5,80.4 L538.8,80.3 L545.0,80.2 L551.3,80.1 L557.5,80.5 L563.8,81.1 L570.0,80.1" fill="none" stroke="#222255" stroke-width="1.6"/><circle cx="451.3" cy="80.5" r="2" fill="#222255"/><circle cx="457.6" cy="80.1" r="2" fill="#222255"/><circle cx="463.8" cy="79.8" r="2" fill="#222255"/><circle cx="470.0" cy="80.6" r="2" fill="#222255"/><circle cx="476.3" cy="80.0" r="2" fill="#222255"/><circle cx="482.5" cy="80.3" r="2" fill="#222255"/><circle cx="488.8" cy="82.6" r="2" fill="#222255"/><circle cx="495.0" cy="81.1" r="2" fill="#222255"/><circle cx="501.3" cy="80.2" r="2" fill="#222255"/><circle cx="507.5" cy="81.4" r="2" fill="#222255"/><circle cx="513.8" cy="79.9" r="2" fill="#222255"/><circle cx="520.0" cy="80.7" r="2" fill="#222255"/><circle cx="526.3" cy="80.2" r="2" fill="#222255"/><circle cx="532.5" cy="80.4" r="2" fill="#222255"/><circle cx="538.8" cy="80.3" r="2" fill="#222255"/><circle cx="545.0" cy="80.2" r="2" fill="#222255"/><circle cx="551.3" cy="80.1" r="2" fill="#222255"/><circle cx="557.5" cy="80.5" r="2" fill="#222255"/><circle cx="563.8" cy="81.1" r="2" fill="#222255"/><circle cx="570.0" cy="80.1" r="2" fill="#222255"/><rect x="580" y="139" width="10" height="10" fill="#222255"/><text x="594" y="148" font-size="10" fill="#444">hub-50</text><path d="M451.3,103.3 L457.6,102.7 L463.8,103.5 L470.0,102.9 L476.3,103.1 L482.5,103.2 L488.8,103.1 L495.0,103.2 L501.3,102.9 L507.5,103.4 L513.8,103.3 L520.0,103.6 L526.3,102.9 L532.5,103.4 L538.8,103.0 L545.0,103.5 L551.3,103.1 L557.5,103.3 L563.8,103.1 L570.0,103.0" fill="none" stroke="#225555" stroke-width="1.6"/><circle cx="451.3" cy="103.3" r="2" fill="#225555"/><circle cx="457.6" cy="102.7" r="2" fill="#225555"/><circle cx="463.8" cy="103.5" r="2" fill="#225555"/><circle cx="470.0" cy="102.9" r="2" fill="#225555"/><circle cx="476.3" cy="103.1" r="2" fill="#225555"/><circle cx="482.5" cy="103.2" r="2" fill="#225555"/><circle cx="488.8" cy="103.1" r="2" fill="#225555"/><circle cx="495.0" cy="103.2" r="2" fill="#225555"/><circle cx="501.3" cy="102.9" r="2" fill="#225555"/><circle cx="507.5" cy="103.4" r="2" fill="#225555"/><circle cx="513.8" cy="103.3" r="2" fill="#225555"/><circle cx="520.0" cy="103.6" r="2" fill="#225555"/><circle cx="526.3" cy="102.9" r="2" fill="#225555"/><circle cx="532.5" cy="103.4" r="2" fill="#225555"/><circle cx="538.8" cy="103.0" r="2" fill="#225555"/><circle cx="545.0" cy="103.5" r="2" fill="#225555"/><circle cx="551.3" cy="103.1" r="2" fill="#225555"/><circle cx="557.5" cy="103.3" r="2" fill="#225555"/><circle cx="563.8" cy="103.1" r="2" fill="#225555"/><circle cx="570.0" cy="103.0" r="2" fill="#225555"/><rect x="580" y="154" width="10" height="10" fill="#225555"/><text x="594" y="163" font-size="10" fill="#444">hub-200</text><path d="M451.3,103.2 L457.6,102.8 L463.8,103.3 L470.0,102.8 L476.3,103.5 L482.5,103.0 L488.8,103.1 L495.0,103.2 L501.3,102.9 L507.5,103.5 L513.8,103.2 L520.0,103.5 L526.3,102.9 L532.5,103.4 L538.8,103.0 L545.0,103.4 L551.3,102.8 L557.5,103.3 L563.8,103.1 L570.0,103.1" fill="none" stroke="#552222" stroke-width="1.6"/><circle cx="451.3" cy="103.2" r="2" fill="#552222"/><circle cx="457.6" cy="102.8" r="2" fill="#552222"/><circle cx="463.8" cy="103.3" r="2" fill="#552222"/><circle cx="470.0" cy="102.8" r="2" fill="#552222"/><circle cx="476.3" cy="103.5" r="2" fill="#552222"/><circle cx="482.5" cy="103.0" r="2" fill="#552222"/><circle cx="488.8" cy="103.1" r="2" fill="#552222"/><circle cx="495.0" cy="103.2" r="2" fill="#552222"/><circle cx="501.3" cy="102.9" r="2" fill="#552222"/><circle cx="507.5" cy="103.5" r="2" fill="#552222"/><circle cx="513.8" cy="103.2" r="2" fill="#552222"/><circle cx="520.0" cy="103.5" r="2" fill="#552222"/><circle cx="526.3" cy="102.9" r="2" fill="#552222"/><circle cx="532.5" cy="103.4" r="2" fill="#552222"/><circle cx="538.8" cy="103.0" r="2" fill="#552222"/><circle cx="545.0" cy="103.4" r="2" fill="#552222"/><circle cx="551.3" cy="102.8" r="2" fill="#552222"/><circle cx="557.5" cy="103.3" r="2" fill="#552222"/><circle cx="563.8" cy="103.1" r="2" fill="#552222"/><circle cx="570.0" cy="103.1" r="2" fill="#552222"/><rect x="580" y="169" width="10" height="10" fill="#552222"/><text x="594" y="178" font-size="10" fill="#444">hooked-200</text></svg>