<svg width="1296" height="372" xmlns="http://www.w3.org/2000/svg"><rect width="1296" height="372" fill="#ffffff"/><text x="64" y="20" font-size="15" font-weight="bold" fill="#333">action() — ops/sec (linear scale, last 50) by PR / release, c8g.medium<tspan fill-opacity="0.5"> (higher is better)</tspan></text><line x1="86.1" y1="34" x2="86.1" y2="324" stroke="#e8e8e8"/><line x1="108.2" y1="34" x2="108.2" y2="324" stroke="#e8e8e8"/><line x1="130.2" y1="34" x2="130.2" y2="324" stroke="#e8e8e8"/><line x1="152.3" y1="34" x2="152.3" y2="324" stroke="#e8e8e8"/><line x1="196.5" y1="34" x2="196.5" y2="324" stroke="#e8e8e8"/><line x1="218.6" y1="34" x2="218.6" y2="324" stroke="#e8e8e8"/><line x1="240.7" y1="34" x2="240.7" y2="324" stroke="#e8e8e8"/><line x1="262.7" y1="34" x2="262.7" y2="324" stroke="#e8e8e8"/><line x1="306.9" y1="34" x2="306.9" y2="324" stroke="#e8e8e8"/><line x1="329.0" y1="34" x2="329.0" y2="324" stroke="#e8e8e8"/><line x1="351.1" y1="34" x2="351.1" y2="324" stroke="#e8e8e8"/><line x1="373.1" y1="34" x2="373.1" y2="324" stroke="#e8e8e8"/><line x1="417.3" y1="34" x2="417.3" y2="324" stroke="#e8e8e8"/><line x1="439.4" y1="34" x2="439.4" y2="324" stroke="#e8e8e8"/><line x1="461.5" y1="34" x2="461.5" y2="324" stroke="#e8e8e8"/><line x1="483.6" y1="34" x2="483.6" y2="324" stroke="#e8e8e8"/><line x1="527.7" y1="34" x2="527.7" y2="324" stroke="#e8e8e8"/><line x1="549.8" y1="34" x2="549.8" y2="324" stroke="#e8e8e8"/><line x1="571.9" y1="34" x2="571.9" y2="324" stroke="#e8e8e8"/><line x1="594.0" y1="34" x2="594.0" y2="324" stroke="#e8e8e8"/><line x1="638.1" y1="34" x2="638.1" y2="324" stroke="#e8e8e8"/><line x1="660.2" y1="34" x2="660.2" y2="324" stroke="#e8e8e8"/><line x1="682.3" y1="34" x2="682.3" y2="324" stroke="#e8e8e8"/><line x1="704.4" y1="34" x2="704.4" y2="324" stroke="#e8e8e8"/><line x1="748.5" y1="34" x2="748.5" y2="324" stroke="#e8e8e8"/><line x1="770.6" y1="34" x2="770.6" y2="324" stroke="#e8e8e8"/><line x1="792.7" y1="34" x2="792.7" y2="324" stroke="#e8e8e8"/><line x1="814.8" y1="34" x2="814.8" y2="324" stroke="#e8e8e8"/><line x1="858.9" y1="34" x2="858.9" y2="324" stroke="#e8e8e8"/><line x1="881.0" y1="34" x2="881.0" y2="324" stroke="#e8e8e8"/><line x1="903.1" y1="34" x2="903.1" y2="324" stroke="#e8e8e8"/><line x1="925.2" y1="34" x2="925.2" y2="324" stroke="#e8e8e8"/><line x1="969.3" y1="34" x2="969.3" y2="324" stroke="#e8e8e8"/><line x1="991.4" y1="34" x2="991.4" y2="324" stroke="#e8e8e8"/><line x1="1013.5" y1="34" x2="1013.5" y2="324" stroke="#e8e8e8"/><line x1="1035.6" y1="34" x2="1035.6" y2="324" stroke="#e8e8e8"/><line x1="1079.8" y1="34" x2="1079.8" y2="324" stroke="#e8e8e8"/><line x1="1101.8" y1="34" x2="1101.8" y2="324" stroke="#e8e8e8"/><line x1="1123.9" y1="34" x2="1123.9" y2="324" stroke="#e8e8e8"/><line x1="1146.0" y1="34" x2="1146.0" y2="324" stroke="#e8e8e8"/><line x1="64.0" y1="34" x2="64.0" y2="324" stroke="#d0d0d0"/><line x1="174.4" y1="34" x2="174.4" y2="324" stroke="#d0d0d0"/><line x1="284.8" y1="34" x2="284.8" y2="324" stroke="#d0d0d0"/><line x1="395.2" y1="34" x2="395.2" y2="324" stroke="#d0d0d0"/><line x1="505.6" y1="34" x2="505.6" y2="324" stroke="#d0d0d0"/><line x1="616.0" y1="34" x2="616.0" y2="324" stroke="#d0d0d0"/><line x1="726.4" y1="34" x2="726.4" y2="324" stroke="#d0d0d0"/><line x1="836.9" y1="34" x2="836.9" y2="324" stroke="#d0d0d0"/><line x1="947.3" y1="34" x2="947.3" y2="324" stroke="#d0d0d0"/><line x1="1057.7" y1="34" x2="1057.7" y2="324" stroke="#d0d0d0"/><line x1="64" y1="324.0" x2="1146" y2="324.0" stroke="#b0b0b0"/><text x="58" y="328.0" font-size="10" text-anchor="end" fill="#888">3.7M</text><line x1="64" y1="266.0" x2="1146" y2="266.0" stroke="#b0b0b0"/><text x="58" y="270.0" font-size="10" text-anchor="end" fill="#888">7.2M</text><line x1="64" y1="208.0" x2="1146" y2="208.0" stroke="#b0b0b0"/><text x="58" y="212.0" font-size="10" text-anchor="end" fill="#888">10.6M</text><line x1="64" y1="150.0" x2="1146" y2="150.0" stroke="#b0b0b0"/><text x="58" y="154.0" font-size="10" text-anchor="end" fill="#888">14.1M</text><line x1="64" y1="92.0" x2="1146" y2="92.0" stroke="#b0b0b0"/><text x="58" y="96.0" font-size="10" text-anchor="end" fill="#888">17.6M</text><line x1="64" y1="34.0" x2="1146" y2="34.0" stroke="#b0b0b0"/><text x="58" y="38.0" font-size="10" text-anchor="end" fill="#888">21M</text><text x="64.0" y="327.2" font-size="4" text-anchor="end" fill="#aa4400" transform="rotate(-80 64.0 327.2)">v5.157.18</text><text x="86.1" y="327.2" font-size="4" text-anchor="end" fill="#aa4400" transform="rotate(-80 86.1 327.2)">v5.158.0</text><text x="108.2" y="327.2" font-size="4" text-anchor="end" fill="#d6a382" transform="rotate(-80 108.2 327.2)">v5.158.1</text><text x="130.2" y="327.2" font-size="4" text-anchor="end" fill="#d6a382" transform="rotate(-80 130.2 327.2)">v5.158.2</text><text x="152.3" y="327.2" font-size="4" text-anchor="end" fill="#aa4400" transform="rotate(-80 152.3 327.2)">v5.159.0</text><text x="174.4" y="327.2" font-size="4" text-anchor="end" fill="#d6a382" transform="rotate(-80 174.4 327.2)">v5.159.1</text><text x="196.5" y="327.2" font-size="4" text-anchor="end" fill="#d6a382" transform="rotate(-80 196.5 327.2)">v5.159.2</text><text x="218.6" y="327.2" font-size="4" text-anchor="end" fill="#aa4400" transform="rotate(-80 218.6 327.2)">v5.160.0</text><text x="240.7" y="327.2" font-size="4" text-anchor="end" fill="#aa4400" transform="rotate(-80 240.7 327.2)">v5.161.0</text><text x="262.7" y="327.2" font-size="4" text-anchor="end" fill="#aa4400" transform="rotate(-80 262.7 327.2)">v5.162.0</text><text x="284.8" y="327.2" font-size="4" text-anchor="end" fill="#d6a382" transform="rotate(-80 284.8 327.2)">v5.162.1</text><text x="306.9" y="327.2" font-size="4" text-anchor="end" fill="#d6a382" transform="rotate(-80 306.9 327.2)">v5.162.2</text><text x="329.0" y="327.2" font-size="4" text-anchor="end" fill="#d6a382" transform="rotate(-80 329.0 327.2)">v5.162.3</text><text x="351.1" y="327.2" font-size="4" text-anchor="end" fill="#d6a382" transform="rotate(-80 351.1 327.2)">v5.162.4</text><text x="373.1" y="327.2" font-size="4" text-anchor="end" fill="#d6a382" transform="rotate(-80 373.1 327.2)">v5.162.5</text><text x="395.2" y="327.2" font-size="4" text-anchor="end" fill="#d6a382" transform="rotate(-80 395.2 327.2)">v5.162.6</text><text x="417.3" y="327.2" font-size="4" text-anchor="end" fill="#d6a382" transform="rotate(-80 417.3 327.2)">v5.162.7</text><text x="439.4" y="327.2" font-size="4" text-anchor="end" fill="#d6a382" transform="rotate(-80 439.4 327.2)">v5.162.8</text><text x="461.5" y="327.2" font-size="4" text-anchor="end" fill="#d6a382" transform="rotate(-80 461.5 327.2)">v5.162.9</text><text x="483.6" y="327.2" font-size="4" text-anchor="end" fill="#d6a382" transform="rotate(-80 483.6 327.2)">v5.162.10</text><text x="505.6" y="327.2" font-size="4" text-anchor="end" fill="#d6a382" transform="rotate(-80 505.6 327.2)">v5.162.11</text><text x="527.7" y="327.2" font-size="4" text-anchor="end" fill="#d6a382" transform="rotate(-80 527.7 327.2)">v5.162.12</text><text x="549.8" y="327.2" font-size="4" text-anchor="end" fill="#d6a382" transform="rotate(-80 549.8 327.2)">v5.162.13</text><text x="571.9" y="327.2" font-size="4" text-anchor="end" fill="#d6a382" transform="rotate(-80 571.9 327.2)">v5.162.15</text><text x="594.0" y="327.2" font-size="4" text-anchor="end" fill="#d6a382" transform="rotate(-80 594.0 327.2)">v5.162.16</text><text x="616.0" y="327.2" font-size="4" text-anchor="end" fill="#d6a382" transform="rotate(-80 616.0 327.2)">v5.162.17</text><text x="638.1" y="327.2" font-size="4" text-anchor="end" fill="#d6a382" transform="rotate(-80 638.1 327.2)">v5.162.18</text><text x="660.2" y="327.2" font-size="4" text-anchor="end" fill="#d6a382" transform="rotate(-80 660.2 327.2)">v5.162.19</text><text x="682.3" y="327.2" font-size="4" text-anchor="end" fill="#d6a382" transform="rotate(-80 682.3 327.2)">v5.162.20</text><text x="704.4" y="327.2" font-size="4" text-anchor="end" fill="#d6a382" transform="rotate(-80 704.4 327.2)">v5.162.21</text><text x="726.4" y="327.2" font-size="4" text-anchor="end" fill="#d6a382" transform="rotate(-80 726.4 327.2)">v5.162.22</text><text x="748.5" y="327.2" font-size="4" text-anchor="end" fill="#d6a382" transform="rotate(-80 748.5 327.2)">v5.162.23</text><text x="770.6" y="327.2" font-size="4" text-anchor="end" fill="#d6a382" transform="rotate(-80 770.6 327.2)">v5.162.24</text><text x="792.7" y="327.2" font-size="4" text-anchor="end" fill="#d6a382" transform="rotate(-80 792.7 327.2)">v5.162.25</text><text x="814.8" y="327.2" font-size="4" text-anchor="end" fill="#d6a382" transform="rotate(-80 814.8 327.2)">v5.162.26</text><text x="836.9" y="327.2" font-size="4" text-anchor="end" fill="#d6a382" transform="rotate(-80 836.9 327.2)">v5.162.27</text><text x="858.9" y="327.2" font-size="4" text-anchor="end" fill="#d6a382" transform="rotate(-80 858.9 327.2)">v5.162.28</text><text x="881.0" y="327.2" font-size="4" text-anchor="end" fill="#d6a382" transform="rotate(-80 881.0 327.2)">v5.162.29</text><text x="903.1" y="327.2" font-size="4" text-anchor="end" fill="#d6a382" transform="rotate(-80 903.1 327.2)">v5.162.30</text><text x="925.2" y="327.2" font-size="4" text-anchor="end" fill="#d6a382" transform="rotate(-80 925.2 327.2)">v5.162.31</text><text x="947.3" y="327.2" font-size="4" text-anchor="end" fill="#d6a382" transform="rotate(-80 947.3 327.2)">v5.162.32</text><text x="969.3" y="327.2" font-size="4" text-anchor="end" fill="#d6a382" transform="rotate(-80 969.3 327.2)">v5.162.33</text><text x="991.4" y="327.2" font-size="4" text-anchor="end" fill="#d6a382" transform="rotate(-80 991.4 327.2)">v5.162.34</text><text x="1013.5" y="327.2" font-size="4" text-anchor="end" fill="#d6a382" transform="rotate(-80 1013.5 327.2)">v5.162.35</text><text x="1035.6" y="327.2" font-size="4" text-anchor="end" fill="#aa4400" transform="rotate(-80 1035.6 327.2)">v5.163.0</text><text x="1057.7" y="327.2" font-size="4" text-anchor="end" fill="#d6a382" transform="rotate(-80 1057.7 327.2)">v5.163.1</text><text x="1079.8" y="327.2" font-size="4" text-anchor="end" fill="#d6a382" transform="rotate(-80 1079.8 327.2)">v5.163.2</text><text x="1101.8" y="327.2" font-size="4" text-anchor="end" fill="#d6a382" transform="rotate(-80 1101.8 327.2)">v5.163.3</text><text x="1123.9" y="327.2" font-size="4" text-anchor="end" fill="#d6a382" transform="rotate(-80 1123.9 327.2)">v5.163.4</text><text x="1146.0" y="327.2" font-size="4" text-anchor="end" fill="#773000" transform="rotate(-80 1146.0 327.2)">v6.0.0-alpha.12</text><path d="M64.0,71.5 L86.1,70.4 L108.2,77.6 L130.2,81.3 L152.3,67.8 L174.4,71.2 L196.5,65.8 L218.6,70.1 L240.7,71.7 L262.7,78.2 L284.8,63.5 L306.9,64.1 L329.0,70.2 L351.1,67.3 L373.1,80.3 L395.2,72.1 L417.3,76.2 L439.4,175.2 L461.5,174.9 L483.6,180.0 L505.6,177.4 L527.7,173.5 L549.8,176.8 L571.9,188.2 L594.0,178.9 L616.0,179.3 L638.1,177.3 L660.2,176.1 L682.3,174.9 L704.4,174.8 L726.4,172.6 L748.5,174.8 L770.6,177.1 L792.7,173.9 L814.8,182.5 L836.9,176.6 L858.9,179.4 L881.0,173.1 L903.1,180.9 L925.2,174.3 L947.3,176.7 L969.3,127.5 L991.4,127.7 L1013.5,70.2 L1035.6,75.0 L1057.7,70.8 L1079.8,71.1 L1101.8,73.4 L1123.9,76.9 L1146.0,81.0" fill="none" stroke="#4477AA" stroke-width="1.6"/><circle cx="64.0" cy="71.5" r="2" fill="#4477AA"/><circle cx="86.1" cy="70.4" r="2" fill="#4477AA"/><circle cx="108.2" cy="77.6" r="2" fill="#4477AA"/><circle cx="130.2" cy="81.3" r="2" fill="#4477AA"/><circle cx="152.3" cy="67.8" r="2" fill="#4477AA"/><circle cx="174.4" cy="71.2" r="2" fill="#4477AA"/><circle cx="196.5" cy="65.8" r="2" fill="#4477AA"/><circle cx="218.6" cy="70.1" r="2" fill="#4477AA"/><circle cx="240.7" cy="71.7" r="2" fill="#4477AA"/><circle cx="262.7" cy="78.2" r="2" fill="#4477AA"/><circle cx="284.8" cy="63.5" r="2" fill="#4477AA"/><circle cx="306.9" cy="64.1" r="2" fill="#4477AA"/><circle cx="329.0" cy="70.2" r="2" fill="#4477AA"/><circle cx="351.1" cy="67.3" r="2" fill="#4477AA"/><circle cx="373.1" cy="80.3" r="2" fill="#4477AA"/><circle cx="395.2" cy="72.1" r="2" fill="#4477AA"/><circle cx="417.3" cy="76.2" r="2" fill="#4477AA"/><circle cx="439.4" cy="175.2" r="2" fill="#4477AA"/><circle cx="461.5" cy="174.9" r="2" fill="#4477AA"/><circle cx="483.6" cy="180.0" r="2" fill="#4477AA"/><circle cx="505.6" cy="177.4" r="2" fill="#4477AA"/><circle cx="527.7" cy="173.5" r="2" fill="#4477AA"/><circle cx="549.8" cy="176.8" r="2" fill="#4477AA"/><circle cx="571.9" cy="188.2" r="2" fill="#4477AA"/><circle cx="594.0" cy="178.9" r="2" fill="#4477AA"/><circle cx="616.0" cy="179.3" r="2" fill="#4477AA"/><circle cx="638.1" cy="177.3" r="2" fill="#4477AA"/><circle cx="660.2" cy="176.1" r="2" fill="#4477AA"/><circle cx="682.3" cy="174.9" r="2" fill="#4477AA"/><circle cx="704.4" cy="174.8" r="2" fill="#4477AA"/><circle cx="726.4" cy="172.6" r="2" fill="#4477AA"/><circle cx="748.5" cy="174.8" r="2" fill="#4477AA"/><circle cx="770.6" cy="177.1" r="2" fill="#4477AA"/><circle cx="792.7" cy="173.9" r="2" fill="#4477AA"/><circle cx="814.8" cy="182.5" r="2" fill="#4477AA"/><circle cx="836.9" cy="176.6" r="2" fill="#4477AA"/><circle cx="858.9" cy="179.4" r="2" fill="#4477AA"/><circle cx="881.0" cy="173.1" r="2" fill="#4477AA"/><circle cx="903.1" cy="180.9" r="2" fill="#4477AA"/><circle cx="925.2" cy="174.3" r="2" fill="#4477AA"/><circle cx="947.3" cy="176.7" r="2" fill="#4477AA"/><circle cx="969.3" cy="127.5" r="2" fill="#4477AA"/><circle cx="991.4" cy="127.7" r="2" fill="#4477AA"/><circle cx="1013.5" cy="70.2" r="2" fill="#4477AA"/><circle cx="1035.6" cy="75.0" r="2" fill="#4477AA"/><circle cx="1057.7" cy="70.8" r="2" fill="#4477AA"/><circle cx="1079.8" cy="71.1" r="2" fill="#4477AA"/><circle cx="1101.8" cy="73.4" r="2" fill="#4477AA"/><circle cx="1123.9" cy="76.9" r="2" fill="#4477AA"/><circle cx="1146.0" cy="81.0" r="2" fill="#4477AA"/><rect x="1156" y="34" width="10" height="10" fill="#4477AA"/><text x="1170" y="43" font-size="10" fill="#444">chain-10</text><path d="M64.0,87.4 L86.1,84.1 L108.2,83.8 L130.2,90.7 L152.3,88.8 L174.4,89.8 L196.5,78.4 L218.6,86.2 L240.7,82.2 L262.7,83.5 L284.8,81.6 L306.9,85.0 L329.0,80.0 L351.1,82.7 L373.1,86.7 L395.2,88.3 L417.3,88.0 L439.4,183.7 L461.5,179.9 L483.6,185.4 L505.6,187.9 L527.7,187.5 L549.8,191.7 L571.9,188.1 L594.0,182.0 L616.0,185.1 L638.1,188.2 L660.2,190.1 L682.3,186.6 L704.4,180.3 L726.4,180.7 L748.5,183.1 L770.6,188.3 L792.7,182.2 L814.8,188.0 L836.9,185.4 L858.9,187.4 L881.0,190.0 L903.1,188.8 L925.2,188.6 L947.3,183.9 L969.3,143.0 L991.4,139.1 L1013.5,99.2 L1035.6,90.3 L1057.7,93.1 L1079.8,93.9 L1101.8,93.6 L1123.9,88.0 L1146.0,92.1" fill="none" stroke="#EE6677" stroke-width="1.6"/><circle cx="64.0" cy="87.4" r="2" fill="#EE6677"/><circle cx="86.1" cy="84.1" r="2" fill="#EE6677"/><circle cx="108.2" cy="83.8" r="2" fill="#EE6677"/><circle cx="130.2" cy="90.7" r="2" fill="#EE6677"/><circle cx="152.3" cy="88.8" r="2" fill="#EE6677"/><circle cx="174.4" cy="89.8" r="2" fill="#EE6677"/><circle cx="196.5" cy="78.4" r="2" fill="#EE6677"/><circle cx="218.6" cy="86.2" r="2" fill="#EE6677"/><circle cx="240.7" cy="82.2" r="2" fill="#EE6677"/><circle cx="262.7" cy="83.5" r="2" fill="#EE6677"/><circle cx="284.8" cy="81.6" r="2" fill="#EE6677"/><circle cx="306.9" cy="85.0" r="2" fill="#EE6677"/><circle cx="329.0" cy="80.0" r="2" fill="#EE6677"/><circle cx="351.1" cy="82.7" r="2" fill="#EE6677"/><circle cx="373.1" cy="86.7" r="2" fill="#EE6677"/><circle cx="395.2" cy="88.3" r="2" fill="#EE6677"/><circle cx="417.3" cy="88.0" r="2" fill="#EE6677"/><circle cx="439.4" cy="183.7" r="2" fill="#EE6677"/><circle cx="461.5" cy="179.9" r="2" fill="#EE6677"/><circle cx="483.6" cy="185.4" r="2" fill="#EE6677"/><circle cx="505.6" cy="187.9" r="2" fill="#EE6677"/><circle cx="527.7" cy="187.5" r="2" fill="#EE6677"/><circle cx="549.8" cy="191.7" r="2" fill="#EE6677"/><circle cx="571.9" cy="188.1" r="2" fill="#EE6677"/><circle cx="594.0" cy="182.0" r="2" fill="#EE6677"/><circle cx="616.0" cy="185.1" r="2" fill="#EE6677"/><circle cx="638.1" cy="188.2" r="2" fill="#EE6677"/><circle cx="660.2" cy="190.1" r="2" fill="#EE6677"/><circle cx="682.3" cy="186.6" r="2" fill="#EE6677"/><circle cx="704.4" cy="180.3" r="2" fill="#EE6677"/><circle cx="726.4" cy="180.7" r="2" fill="#EE6677"/><circle cx="748.5" cy="183.1" r="2" fill="#EE6677"/><circle cx="770.6" cy="188.3" r="2" fill="#EE6677"/><circle cx="792.7" cy="182.2" r="2" fill="#EE6677"/><circle cx="814.8" cy="188.0" r="2" fill="#EE6677"/><circle cx="836.9" cy="185.4" r="2" fill="#EE6677"/><circle cx="858.9" cy="187.4" r="2" fill="#EE6677"/><circle cx="881.0" cy="190.0" r="2" fill="#EE6677"/><circle cx="903.1" cy="188.8" r="2" fill="#EE6677"/><circle cx="925.2" cy="188.6" r="2" fill="#EE6677"/><circle cx="947.3" cy="183.9" r="2" fill="#EE6677"/><circle cx="969.3" cy="143.0" r="2" fill="#EE6677"/><circle cx="991.4" cy="139.1" r="2" fill="#EE6677"/><circle cx="1013.5" cy="99.2" r="2" fill="#EE6677"/><circle cx="1035.6" cy="90.3" r="2" fill="#EE6677"/><circle cx="1057.7" cy="93.1" r="2" fill="#EE6677"/><circle cx="1079.8" cy="93.9" r="2" fill="#EE6677"/><circle cx="1101.8" cy="93.6" r="2" fill="#EE6677"/><circle cx="1123.9" cy="88.0" r="2" fill="#EE6677"/><circle cx="1146.0" cy="92.1" r="2" fill="#EE6677"/><rect x="1156" y="49" width="10" height="10" fill="#EE6677"/><text x="1170" y="58" font-size="10" fill="#444">chain-50</text><path d="M64.0,103.7 L86.1,99.2 L108.2,104.0 L130.2,99.5 L152.3,105.1 L174.4,108.8 L196.5,102.6 L218.6,101.2 L240.7,100.4 L262.7,101.1 L284.8,106.6 L306.9,97.0 L329.0,98.8 L351.1,103.0 L373.1,102.6 L395.2,108.3 L417.3,113.8 L439.4,192.9 L461.5,186.4 L483.6,192.1 L505.6,187.1 L527.7,187.3 L549.8,185.8 L571.9,189.9 L594.0,184.6 L616.0,186.8 L638.1,194.8 L660.2,185.5 L682.3,183.3 L704.4,189.3 L726.4,185.7 L748.5,189.7 L770.6,190.8 L792.7,186.0 L814.8,195.1 L836.9,188.1 L858.9,186.7 L881.0,187.7 L903.1,196.2 L925.2,186.1 L947.3,186.8 L969.3,150.2 L991.4,148.1 L1013.5,109.6 L1035.6,111.2 L1057.7,111.0 L1079.8,111.1 L1101.8,107.2 L1123.9,116.7 L1146.0,106.2" fill="none" stroke="#228833" stroke-width="1.6"/><circle cx="64.0" cy="103.7" r="2" fill="#228833"/><circle cx="86.1" cy="99.2" r="2" fill="#228833"/><circle cx="108.2" cy="104.0" r="2" fill="#228833"/><circle cx="130.2" cy="99.5" r="2" fill="#228833"/><circle cx="152.3" cy="105.1" r="2" fill="#228833"/><circle cx="174.4" cy="108.8" r="2" fill="#228833"/><circle cx="196.5" cy="102.6" r="2" fill="#228833"/><circle cx="218.6" cy="101.2" r="2" fill="#228833"/><circle cx="240.7" cy="100.4" r="2" fill="#228833"/><circle cx="262.7" cy="101.1" r="2" fill="#228833"/><circle cx="284.8" cy="106.6" r="2" fill="#228833"/><circle cx="306.9" cy="97.0" r="2" fill="#228833"/><circle cx="329.0" cy="98.8" r="2" fill="#228833"/><circle cx="351.1" cy="103.0" r="2" fill="#228833"/><circle cx="373.1" cy="102.6" r="2" fill="#228833"/><circle cx="395.2" cy="108.3" r="2" fill="#228833"/><circle cx="417.3" cy="113.8" r="2" fill="#228833"/><circle cx="439.4" cy="192.9" r="2" fill="#228833"/><circle cx="461.5" cy="186.4" r="2" fill="#228833"/><circle cx="483.6" cy="192.1" r="2" fill="#228833"/><circle cx="505.6" cy="187.1" r="2" fill="#228833"/><circle cx="527.7" cy="187.3" r="2" fill="#228833"/><circle cx="549.8" cy="185.8" r="2" fill="#228833"/><circle cx="571.9" cy="189.9" r="2" fill="#228833"/><circle cx="594.0" cy="184.6" r="2" fill="#228833"/><circle cx="616.0" cy="186.8" r="2" fill="#228833"/><circle cx="638.1" cy="194.8" r="2" fill="#228833"/><circle cx="660.2" cy="185.5" r="2" fill="#228833"/><circle cx="682.3" cy="183.3" r="2" fill="#228833"/><circle cx="704.4" cy="189.3" r="2" fill="#228833"/><circle cx="726.4" cy="185.7" r="2" fill="#228833"/><circle cx="748.5" cy="189.7" r="2" fill="#228833"/><circle cx="770.6" cy="190.8" r="2" fill="#228833"/><circle cx="792.7" cy="186.0" r="2" fill="#228833"/><circle cx="814.8" cy="195.1" r="2" fill="#228833"/><circle cx="836.9" cy="188.1" r="2" fill="#228833"/><circle cx="858.9" cy="186.7" r="2" fill="#228833"/><circle cx="881.0" cy="187.7" r="2" fill="#228833"/><circle cx="903.1" cy="196.2" r="2" fill="#228833"/><circle cx="925.2" cy="186.1" r="2" fill="#228833"/><circle cx="947.3" cy="186.8" r="2" fill="#228833"/><circle cx="969.3" cy="150.2" r="2" fill="#228833"/><circle cx="991.4" cy="148.1" r="2" fill="#228833"/><circle cx="1013.5" cy="109.6" r="2" fill="#228833"/><circle cx="1035.6" cy="111.2" r="2" fill="#228833"/><circle cx="1057.7" cy="111.0" r="2" fill="#228833"/><circle cx="1079.8" cy="111.1" r="2" fill="#228833"/><circle cx="1101.8" cy="107.2" r="2" fill="#228833"/><circle cx="1123.9" cy="116.7" r="2" fill="#228833"/><circle cx="1146.0" cy="106.2" r="2" fill="#228833"/><rect x="1156" y="64" width="10" height="10" fill="#228833"/><text x="1170" y="73" font-size="10" fill="#444">chain-200</text><path d="M64.0,125.0 L86.1,120.4 L108.2,128.5 L130.2,124.5 L152.3,123.8 L174.4,124.7 L196.5,129.8 L218.6,125.9 L240.7,120.9 L262.7,129.1 L284.8,121.8 L306.9,129.9 L329.0,127.7 L351.1,131.5 L373.1,126.1 L395.2,132.8 L417.3,128.0 L439.4,210.8 L461.5,215.9 L483.6,213.6 L505.6,218.6 L527.7,213.8 L549.8,212.0 L571.9,223.6 L594.0,217.2 L616.0,215.2 L638.1,219.8 L660.2,213.5 L682.3,216.3 L704.4,221.4 L726.4,217.0 L748.5,219.3 L770.6,216.3 L792.7,215.8 L814.8,219.8 L836.9,215.9 L858.9,219.0 L881.0,217.3 L903.1,214.0 L925.2,217.4 L947.3,214.0 L969.3,175.2 L991.4,178.9 L1013.5,134.0 L1035.6,133.9 L1057.7,143.5 L1079.8,134.5 L1101.8,128.5 L1123.9,131.8 L1146.0,134.5" fill="none" stroke="#CCBB44" stroke-width="1.6"/><circle cx="64.0" cy="125.0" r="2" fill="#CCBB44"/><circle cx="86.1" cy="120.4" r="2" fill="#CCBB44"/><circle cx="108.2" cy="128.5" r="2" fill="#CCBB44"/><circle cx="130.2" cy="124.5" r="2" fill="#CCBB44"/><circle cx="152.3" cy="123.8" r="2" fill="#CCBB44"/><circle cx="174.4" cy="124.7" r="2" fill="#CCBB44"/><circle cx="196.5" cy="129.8" r="2" fill="#CCBB44"/><circle cx="218.6" cy="125.9" r="2" fill="#CCBB44"/><circle cx="240.7" cy="120.9" r="2" fill="#CCBB44"/><circle cx="262.7" cy="129.1" r="2" fill="#CCBB44"/><circle cx="284.8" cy="121.8" r="2" fill="#CCBB44"/><circle cx="306.9" cy="129.9" r="2" fill="#CCBB44"/><circle cx="329.0" cy="127.7" r="2" fill="#CCBB44"/><circle cx="351.1" cy="131.5" r="2" fill="#CCBB44"/><circle cx="373.1" cy="126.1" r="2" fill="#CCBB44"/><circle cx="395.2" cy="132.8" r="2" fill="#CCBB44"/><circle cx="417.3" cy="128.0" r="2" fill="#CCBB44"/><circle cx="439.4" cy="210.8" r="2" fill="#CCBB44"/><circle cx="461.5" cy="215.9" r="2" fill="#CCBB44"/><circle cx="483.6" cy="213.6" r="2" fill="#CCBB44"/><circle cx="505.6" cy="218.6" r="2" fill="#CCBB44"/><circle cx="527.7" cy="213.8" r="2" fill="#CCBB44"/><circle cx="549.8" cy="212.0" r="2" fill="#CCBB44"/><circle cx="571.9" cy="223.6" r="2" fill="#CCBB44"/><circle cx="594.0" cy="217.2" r="2" fill="#CCBB44"/><circle cx="616.0" cy="215.2" r="2" fill="#CCBB44"/><circle cx="638.1" cy="219.8" r="2" fill="#CCBB44"/><circle cx="660.2" cy="213.5" r="2" fill="#CCBB44"/><circle cx="682.3" cy="216.3" r="2" fill="#CCBB44"/><circle cx="704.4" cy="221.4" r="2" fill="#CCBB44"/><circle cx="726.4" cy="217.0" r="2" fill="#CCBB44"/><circle cx="748.5" cy="219.3" r="2" fill="#CCBB44"/><circle cx="770.6" cy="216.3" r="2" fill="#CCBB44"/><circle cx="792.7" cy="215.8" r="2" fill="#CCBB44"/><circle cx="814.8" cy="219.8" r="2" fill="#CCBB44"/><circle cx="836.9" cy="215.9" r="2" fill="#CCBB44"/><circle cx="858.9" cy="219.0" r="2" fill="#CCBB44"/><circle cx="881.0" cy="217.3" r="2" fill="#CCBB44"/><circle cx="903.1" cy="214.0" r="2" fill="#CCBB44"/><circle cx="925.2" cy="217.4" r="2" fill="#CCBB44"/><circle cx="947.3" cy="214.0" r="2" fill="#CCBB44"/><circle cx="969.3" cy="175.2" r="2" fill="#CCBB44"/><circle cx="991.4" cy="178.9" r="2" fill="#CCBB44"/><circle cx="1013.5" cy="134.0" r="2" fill="#CCBB44"/><circle cx="1035.6" cy="133.9" r="2" fill="#CCBB44"/><circle cx="1057.7" cy="143.5" r="2" fill="#CCBB44"/><circle cx="1079.8" cy="134.5" r="2" fill="#CCBB44"/><circle cx="1101.8" cy="128.5" r="2" fill="#CCBB44"/><circle cx="1123.9" cy="131.8" r="2" fill="#CCBB44"/><circle cx="1146.0" cy="134.5" r="2" fill="#CCBB44"/><rect x="1156" y="79" width="10" height="10" fill="#CCBB44"/><text x="1170" y="88" font-size="10" fill="#444">chain-1000</text><path d="M64.0,81.0 L86.1,82.3 L108.2,70.6 L130.2,78.3 L152.3,81.7 L174.4,88.0 L196.5,82.0 L218.6,76.7 L240.7,86.1 L262.7,85.2 L284.8,75.5 L306.9,82.2 L329.0,82.6 L351.1,78.9 L373.1,71.1 L395.2,73.7 L417.3,88.5 L439.4,178.0 L461.5,178.7 L483.6,178.8 L505.6,182.8 L527.7,185.3 L549.8,191.6 L571.9,183.4 L594.0,177.8 L616.0,187.4 L638.1,181.3 L660.2,183.5 L682.3,182.9 L704.4,187.3 L726.4,183.1 L748.5,181.1 L770.6,184.2 L792.7,180.5 L814.8,181.9 L836.9,183.8 L858.9,181.7 L881.0,182.4 L903.1,178.5 L925.2,182.7 L947.3,184.8 L969.3,131.9 L991.4,133.0 L1013.5,80.1 L1035.6,83.3 L1057.7,91.1 L1079.8,90.8 L1101.8,78.5 L1123.9,78.9 L1146.0,78.3" fill="none" stroke="#66CCEE" stroke-width="1.6"/><circle cx="64.0" cy="81.0" r="2" fill="#66CCEE"/><circle cx="86.1" cy="82.3" r="2" fill="#66CCEE"/><circle cx="108.2" cy="70.6" r="2" fill="#66CCEE"/><circle cx="130.2" cy="78.3" r="2" fill="#66CCEE"/><circle cx="152.3" cy="81.7" r="2" fill="#66CCEE"/><circle cx="174.4" cy="88.0" r="2" fill="#66CCEE"/><circle cx="196.5" cy="82.0" r="2" fill="#66CCEE"/><circle cx="218.6" cy="76.7" r="2" fill="#66CCEE"/><circle cx="240.7" cy="86.1" r="2" fill="#66CCEE"/><circle cx="262.7" cy="85.2" r="2" fill="#66CCEE"/><circle cx="284.8" cy="75.5" r="2" fill="#66CCEE"/><circle cx="306.9" cy="82.2" r="2" fill="#66CCEE"/><circle cx="329.0" cy="82.6" r="2" fill="#66CCEE"/><circle cx="351.1" cy="78.9" r="2" fill="#66CCEE"/><circle cx="373.1" cy="71.1" r="2" fill="#66CCEE"/><circle cx="395.2" cy="73.7" r="2" fill="#66CCEE"/><circle cx="417.3" cy="88.5" r="2" fill="#66CCEE"/><circle cx="439.4" cy="178.0" r="2" fill="#66CCEE"/><circle cx="461.5" cy="178.7" r="2" fill="#66CCEE"/><circle cx="483.6" cy="178.8" r="2" fill="#66CCEE"/><circle cx="505.6" cy="182.8" r="2" fill="#66CCEE"/><circle cx="527.7" cy="185.3" r="2" fill="#66CCEE"/><circle cx="549.8" cy="191.6" r="2" fill="#66CCEE"/><circle cx="571.9" cy="183.4" r="2" fill="#66CCEE"/><circle cx="594.0" cy="177.8" r="2" fill="#66CCEE"/><circle cx="616.0" cy="187.4" r="2" fill="#66CCEE"/><circle cx="638.1" cy="181.3" r="2" fill="#66CCEE"/><circle cx="660.2" cy="183.5" r="2" fill="#66CCEE"/><circle cx="682.3" cy="182.9" r="2" fill="#66CCEE"/><circle cx="704.4" cy="187.3" r="2" fill="#66CCEE"/><circle cx="726.4" cy="183.1" r="2" fill="#66CCEE"/><circle cx="748.5" cy="181.1" r="2" fill="#66CCEE"/><circle cx="770.6" cy="184.2" r="2" fill="#66CCEE"/><circle cx="792.7" cy="180.5" r="2" fill="#66CCEE"/><circle cx="814.8" cy="181.9" r="2" fill="#66CCEE"/><circle cx="836.9" cy="183.8" r="2" fill="#66CCEE"/><circle cx="858.9" cy="181.7" r="2" fill="#66CCEE"/><circle cx="881.0" cy="182.4" r="2" fill="#66CCEE"/><circle cx="903.1" cy="178.5" r="2" fill="#66CCEE"/><circle cx="925.2" cy="182.7" r="2" fill="#66CCEE"/><circle cx="947.3" cy="184.8" r="2" fill="#66CCEE"/><circle cx="969.3" cy="131.9" r="2" fill="#66CCEE"/><circle cx="991.4" cy="133.0" r="2" fill="#66CCEE"/><circle cx="1013.5" cy="80.1" r="2" fill="#66CCEE"/><circle cx="1035.6" cy="83.3" r="2" fill="#66CCEE"/><circle cx="1057.7" cy="91.1" r="2" fill="#66CCEE"/><circle cx="1079.8" cy="90.8" r="2" fill="#66CCEE"/><circle cx="1101.8" cy="78.5" r="2" fill="#66CCEE"/><circle cx="1123.9" cy="78.9" r="2" fill="#66CCEE"/><circle cx="1146.0" cy="78.3" r="2" fill="#66CCEE"/><rect x="1156" y="94" width="10" height="10" fill="#66CCEE"/><text x="1170" y="103" font-size="10" fill="#444">dense-10</text><path d="M64.0,128.4 L86.1,120.2 L108.2,126.6 L130.2,118.1 L152.3,121.8 L174.4,119.1 L196.5,124.3 L218.6,124.2 L240.7,135.0 L262.7,139.2 L284.8,131.3 L306.9,125.7 L329.0,134.8 L351.1,121.8 L373.1,117.4 L395.2,127.7 L417.3,125.1 L439.4,212.3 L461.5,210.9 L483.6,204.9 L505.6,214.0 L527.7,212.0 L549.8,214.7 L571.9,212.5 L594.0,214.0 L616.0,222.0 L638.1,221.7 L660.2,210.0 L682.3,217.1 L704.4,211.8 L726.4,216.1 L748.5,211.0 L770.6,221.5 L792.7,225.3 L814.8,217.8 L836.9,211.5 L858.9,228.0 L881.0,207.1 L903.1,213.7 L925.2,214.1 L947.3,217.3 L969.3,174.6 L991.4,176.6 L1013.5,124.3 L1035.6,123.5 L1057.7,129.7 L1079.8,117.3 L1101.8,125.1 L1123.9,124.1 L1146.0,120.8" fill="none" stroke="#AA3377" stroke-width="1.6"/><circle cx="64.0" cy="128.4" r="2" fill="#AA3377"/><circle cx="86.1" cy="120.2" r="2" fill="#AA3377"/><circle cx="108.2" cy="126.6" r="2" fill="#AA3377"/><circle cx="130.2" cy="118.1" r="2" fill="#AA3377"/><circle cx="152.3" cy="121.8" r="2" fill="#AA3377"/><circle cx="174.4" cy="119.1" r="2" fill="#AA3377"/><circle cx="196.5" cy="124.3" r="2" fill="#AA3377"/><circle cx="218.6" cy="124.2" r="2" fill="#AA3377"/><circle cx="240.7" cy="135.0" r="2" fill="#AA3377"/><circle cx="262.7" cy="139.2" r="2" fill="#AA3377"/><circle cx="284.8" cy="131.3" r="2" fill="#AA3377"/><circle cx="306.9" cy="125.7" r="2" fill="#AA3377"/><circle cx="329.0" cy="134.8" r="2" fill="#AA3377"/><circle cx="351.1" cy="121.8" r="2" fill="#AA3377"/><circle cx="373.1" cy="117.4" r="2" fill="#AA3377"/><circle cx="395.2" cy="127.7" r="2" fill="#AA3377"/><circle cx="417.3" cy="125.1" r="2" fill="#AA3377"/><circle cx="439.4" cy="212.3" r="2" fill="#AA3377"/><circle cx="461.5" cy="210.9" r="2" fill="#AA3377"/><circle cx="483.6" cy="204.9" r="2" fill="#AA3377"/><circle cx="505.6" cy="214.0" r="2" fill="#AA3377"/><circle cx="527.7" cy="212.0" r="2" fill="#AA3377"/><circle cx="549.8" cy="214.7" r="2" fill="#AA3377"/><circle cx="571.9" cy="212.5" r="2" fill="#AA3377"/><circle cx="594.0" cy="214.0" r="2" fill="#AA3377"/><circle cx="616.0" cy="222.0" r="2" fill="#AA3377"/><circle cx="638.1" cy="221.7" r="2" fill="#AA3377"/><circle cx="660.2" cy="210.0" r="2" fill="#AA3377"/><circle cx="682.3" cy="217.1" r="2" fill="#AA3377"/><circle cx="704.4" cy="211.8" r="2" fill="#AA3377"/><circle cx="726.4" cy="216.1" r="2" fill="#AA3377"/><circle cx="748.5" cy="211.0" r="2" fill="#AA3377"/><circle cx="770.6" cy="221.5" r="2" fill="#AA3377"/><circle cx="792.7" cy="225.3" r="2" fill="#AA3377"/><circle cx="814.8" cy="217.8" r="2" fill="#AA3377"/><circle cx="836.9" cy="211.5" r="2" fill="#AA3377"/><circle cx="858.9" cy="228.0" r="2" fill="#AA3377"/><circle cx="881.0" cy="207.1" r="2" fill="#AA3377"/><circle cx="903.1" cy="213.7" r="2" fill="#AA3377"/><circle cx="925.2" cy="214.1" r="2" fill="#AA3377"/><circle cx="947.3" cy="217.3" r="2" fill="#AA3377"/><circle cx="969.3" cy="174.6" r="2" fill="#AA3377"/><circle cx="991.4" cy="176.6" r="2" fill="#AA3377"/><circle cx="1013.5" cy="124.3" r="2" fill="#AA3377"/><circle cx="1035.6" cy="123.5" r="2" fill="#AA3377"/><circle cx="1057.7" cy="129.7" r="2" fill="#AA3377"/><circle cx="1079.8" cy="117.3" r="2" fill="#AA3377"/><circle cx="1101.8" cy="125.1" r="2" fill="#AA3377"/><circle cx="1123.9" cy="124.1" r="2" fill="#AA3377"/><circle cx="1146.0" cy="120.8" r="2" fill="#AA3377"/><rect x="1156" y="109" width="10" height="10" fill="#AA3377"/><text x="1170" y="118" font-size="10" fill="#444">dense-50</text><path d="M64.0,178.2 L86.1,177.5 L108.2,180.2 L130.2,184.4 L152.3,181.0 L174.4,178.7 L196.5,183.1 L218.6,179.5 L240.7,182.0 L262.7,180.0 L284.8,180.3 L306.9,177.1 L329.0,181.7 L351.1,176.2 L373.1,180.0 L395.2,177.1 L417.3,181.5 L439.4,238.8 L461.5,238.0 L483.6,240.3 L505.6,236.8 L527.7,235.8 L549.8,233.2 L571.9,241.0 L594.0,237.7 L616.0,234.9 L638.1,238.9 L660.2,236.8 L682.3,233.1 L704.4,237.3 L726.4,237.3 L748.5,238.3 L770.6,245.0 L792.7,241.0 L814.8,241.8 L836.9,240.2 L858.9,244.6 L881.0,236.5 L903.1,237.2 L925.2,240.7 L947.3,240.1 L969.3,215.4 L991.4,217.4 L1013.5,181.7 L1035.6,183.9 L1057.7,178.0 L1079.8,179.7 L1101.8,181.1 L1123.9,180.4 L1146.0,184.2" fill="none" stroke="#BBBBBB" stroke-width="1.6"/><circle cx="64.0" cy="178.2" r="2" fill="#BBBBBB"/><circle cx="86.1" cy="177.5" r="2" fill="#BBBBBB"/><circle cx="108.2" cy="180.2" r="2" fill="#BBBBBB"/><circle cx="130.2" cy="184.4" r="2" fill="#BBBBBB"/><circle cx="152.3" cy="181.0" r="2" fill="#BBBBBB"/><circle cx="174.4" cy="178.7" r="2" fill="#BBBBBB"/><circle cx="196.5" cy="183.1" r="2" fill="#BBBBBB"/><circle cx="218.6" cy="179.5" r="2" fill="#BBBBBB"/><circle cx="240.7" cy="182.0" r="2" fill="#BBBBBB"/><circle cx="262.7" cy="180.0" r="2" fill="#BBBBBB"/><circle cx="284.8" cy="180.3" r="2" fill="#BBBBBB"/><circle cx="306.9" cy="177.1" r="2" fill="#BBBBBB"/><circle cx="329.0" cy="181.7" r="2" fill="#BBBBBB"/><circle cx="351.1" cy="176.2" r="2" fill="#BBBBBB"/><circle cx="373.1" cy="180.0" r="2" fill="#BBBBBB"/><circle cx="395.2" cy="177.1" r="2" fill="#BBBBBB"/><circle cx="417.3" cy="181.5" r="2" fill="#BBBBBB"/><circle cx="439.4" cy="238.8" r="2" fill="#BBBBBB"/><circle cx="461.5" cy="238.0" r="2" fill="#BBBBBB"/><circle cx="483.6" cy="240.3" r="2" fill="#BBBBBB"/><circle cx="505.6" cy="236.8" r="2" fill="#BBBBBB"/><circle cx="527.7" cy="235.8" r="2" fill="#BBBBBB"/><circle cx="549.8" cy="233.2" r="2" fill="#BBBBBB"/><circle cx="571.9" cy="241.0" r="2" fill="#BBBBBB"/><circle cx="594.0" cy="237.7" r="2" fill="#BBBBBB"/><circle cx="616.0" cy="234.9" r="2" fill="#BBBBBB"/><circle cx="638.1" cy="238.9" r="2" fill="#BBBBBB"/><circle cx="660.2" cy="236.8" r="2" fill="#BBBBBB"/><circle cx="682.3" cy="233.1" r="2" fill="#BBBBBB"/><circle cx="704.4" cy="237.3" r="2" fill="#BBBBBB"/><circle cx="726.4" cy="237.3" r="2" fill="#BBBBBB"/><circle cx="748.5" cy="238.3" r="2" fill="#BBBBBB"/><circle cx="770.6" cy="245.0" r="2" fill="#BBBBBB"/><circle cx="792.7" cy="241.0" r="2" fill="#BBBBBB"/><circle cx="814.8" cy="241.8" r="2" fill="#BBBBBB"/><circle cx="836.9" cy="240.2" r="2" fill="#BBBBBB"/><circle cx="858.9" cy="244.6" r="2" fill="#BBBBBB"/><circle cx="881.0" cy="236.5" r="2" fill="#BBBBBB"/><circle cx="903.1" cy="237.2" r="2" fill="#BBBBBB"/><circle cx="925.2" cy="240.7" r="2" fill="#BBBBBB"/><circle cx="947.3" cy="240.1" r="2" fill="#BBBBBB"/><circle cx="969.3" cy="215.4" r="2" fill="#BBBBBB"/><circle cx="991.4" cy="217.4" r="2" fill="#BBBBBB"/><circle cx="1013.5" cy="181.7" r="2" fill="#BBBBBB"/><circle cx="1035.6" cy="183.9" r="2" fill="#BBBBBB"/><circle cx="1057.7" cy="178.0" r="2" fill="#BBBBBB"/><circle cx="1079.8" cy="179.7" r="2" fill="#BBBBBB"/><circle cx="1101.8" cy="181.1" r="2" fill="#BBBBBB"/><circle cx="1123.9" cy="180.4" r="2" fill="#BBBBBB"/><circle cx="1146.0" cy="184.2" r="2" fill="#BBBBBB"/><rect x="1156" y="124" width="10" height="10" fill="#BBBBBB"/><text x="1170" y="133" font-size="10" fill="#444">dense-200</text><path d="M64.0,65.3 L86.1,64.0 L108.2,61.4 L130.2,68.1 L152.3,60.8 L174.4,68.1 L196.5,59.2 L218.6,62.8 L240.7,58.5 L262.7,58.2 L284.8,65.7 L306.9,60.0 L329.0,58.2 L351.1,61.9 L373.1,66.8 L395.2,67.8 L417.3,71.8 L439.4,180.5 L461.5,180.2 L483.6,182.3 L505.6,180.8 L527.7,183.0 L549.8,181.8 L571.9,181.2 L594.0,180.5 L616.0,180.4 L638.1,179.9 L660.2,184.9 L682.3,181.3 L704.4,181.8 L726.4,179.9 L748.5,184.4 L770.6,185.6 L792.7,179.1 L814.8,183.8 L836.9,193.3 L858.9,201.8 L881.0,178.8 L903.1,183.8 L925.2,180.0 L947.3,178.5 L969.3,136.8 L991.4,136.5 L1013.5,74.8 L1035.6,72.6 L1057.7,77.9 L1079.8,71.2 L1101.8,77.4 L1123.9,83.3 L1146.0,75.5" fill="none" stroke="#222255" stroke-width="1.6"/><circle cx="64.0" cy="65.3" r="2" fill="#222255"/><circle cx="86.1" cy="64.0" r="2" fill="#222255"/><circle cx="108.2" cy="61.4" r="2" fill="#222255"/><circle cx="130.2" cy="68.1" r="2" fill="#222255"/><circle cx="152.3" cy="60.8" r="2" fill="#222255"/><circle cx="174.4" cy="68.1" r="2" fill="#222255"/><circle cx="196.5" cy="59.2" r="2" fill="#222255"/><circle cx="218.6" cy="62.8" r="2" fill="#222255"/><circle cx="240.7" cy="58.5" r="2" fill="#222255"/><circle cx="262.7" cy="58.2" r="2" fill="#222255"/><circle cx="284.8" cy="65.7" r="2" fill="#222255"/><circle cx="306.9" cy="60.0" r="2" fill="#222255"/><circle cx="329.0" cy="58.2" r="2" fill="#222255"/><circle cx="351.1" cy="61.9" r="2" fill="#222255"/><circle cx="373.1" cy="66.8" r="2" fill="#222255"/><circle cx="395.2" cy="67.8" r="2" fill="#222255"/><circle cx="417.3" cy="71.8" r="2" fill="#222255"/><circle cx="439.4" cy="180.5" r="2" fill="#222255"/><circle cx="461.5" cy="180.2" r="2" fill="#222255"/><circle cx="483.6" cy="182.3" r="2" fill="#222255"/><circle cx="505.6" cy="180.8" r="2" fill="#222255"/><circle cx="527.7" cy="183.0" r="2" fill="#222255"/><circle cx="549.8" cy="181.8" r="2" fill="#222255"/><circle cx="571.9" cy="181.2" r="2" fill="#222255"/><circle cx="594.0" cy="180.5" r="2" fill="#222255"/><circle cx="616.0" cy="180.4" r="2" fill="#222255"/><circle cx="638.1" cy="179.9" r="2" fill="#222255"/><circle cx="660.2" cy="184.9" r="2" fill="#222255"/><circle cx="682.3" cy="181.3" r="2" fill="#222255"/><circle cx="704.4" cy="181.8" r="2" fill="#222255"/><circle cx="726.4" cy="179.9" r="2" fill="#222255"/><circle cx="748.5" cy="184.4" r="2" fill="#222255"/><circle cx="770.6" cy="185.6" r="2" fill="#222255"/><circle cx="792.7" cy="179.1" r="2" fill="#222255"/><circle cx="814.8" cy="183.8" r="2" fill="#222255"/><circle cx="836.9" cy="193.3" r="2" fill="#222255"/><circle cx="858.9" cy="201.8" r="2" fill="#222255"/><circle cx="881.0" cy="178.8" r="2" fill="#222255"/><circle cx="903.1" cy="183.8" r="2" fill="#222255"/><circle cx="925.2" cy="180.0" r="2" fill="#222255"/><circle cx="947.3" cy="178.5" r="2" fill="#222255"/><circle cx="969.3" cy="136.8" r="2" fill="#222255"/><circle cx="991.4" cy="136.5" r="2" fill="#222255"/><circle cx="1013.5" cy="74.8" r="2" fill="#222255"/><circle cx="1035.6" cy="72.6" r="2" fill="#222255"/><circle cx="1057.7" cy="77.9" r="2" fill="#222255"/><circle cx="1079.8" cy="71.2" r="2" fill="#222255"/><circle cx="1101.8" cy="77.4" r="2" fill="#222255"/><circle cx="1123.9" cy="83.3" r="2" fill="#222255"/><circle cx="1146.0" cy="75.5" r="2" fill="#222255"/><rect x="1156" y="139" width="10" height="10" fill="#222255"/><text x="1170" y="148" font-size="10" fill="#444">hub-50</text><path d="M64.0,64.2 L86.1,66.9 L108.2,69.7 L130.2,70.3 L152.3,65.1 L174.4,71.4 L196.5,66.1 L218.6,62.7 L240.7,63.9 L262.7,65.3 L284.8,67.6 L306.9,68.8 L329.0,65.4 L351.1,68.6 L373.1,66.4 L395.2,71.9 L417.3,70.7 L439.4,189.7 L461.5,199.2 L483.6,193.6 L505.6,191.2 L527.7,191.1 L549.8,188.9 L571.9,191.4 L594.0,188.4 L616.0,188.4 L638.1,194.5 L660.2,189.6 L682.3,188.1 L704.4,188.9 L726.4,190.0 L748.5,189.5 L770.6,197.7 L792.7,188.4 L814.8,196.2 L836.9,196.8 L858.9,203.9 L881.0,187.9 L903.1,202.6 L925.2,190.5 L947.3,186.3 L969.3,142.7 L991.4,146.0 L1013.5,76.0 L1035.6,75.4 L1057.7,81.5 L1079.8,72.2 L1101.8,74.9 L1123.9,75.4 L1146.0,77.9" fill="none" stroke="#225555" stroke-width="1.6"/><circle cx="64.0" cy="64.2" r="2" fill="#225555"/><circle cx="86.1" cy="66.9" r="2" fill="#225555"/><circle cx="108.2" cy="69.7" r="2" fill="#225555"/><circle cx="130.2" cy="70.3" r="2" fill="#225555"/><circle cx="152.3" cy="65.1" r="2" fill="#225555"/><circle cx="174.4" cy="71.4" r="2" fill="#225555"/><circle cx="196.5" cy="66.1" r="2" fill="#225555"/><circle cx="218.6" cy="62.7" r="2" fill="#225555"/><circle cx="240.7" cy="63.9" r="2" fill="#225555"/><circle cx="262.7" cy="65.3" r="2" fill="#225555"/><circle cx="284.8" cy="67.6" r="2" fill="#225555"/><circle cx="306.9" cy="68.8" r="2" fill="#225555"/><circle cx="329.0" cy="65.4" r="2" fill="#225555"/><circle cx="351.1" cy="68.6" r="2" fill="#225555"/><circle cx="373.1" cy="66.4" r="2" fill="#225555"/><circle cx="395.2" cy="71.9" r="2" fill="#225555"/><circle cx="417.3" cy="70.7" r="2" fill="#225555"/><circle cx="439.4" cy="189.7" r="2" fill="#225555"/><circle cx="461.5" cy="199.2" r="2" fill="#225555"/><circle cx="483.6" cy="193.6" r="2" fill="#225555"/><circle cx="505.6" cy="191.2" r="2" fill="#225555"/><circle cx="527.7" cy="191.1" r="2" fill="#225555"/><circle cx="549.8" cy="188.9" r="2" fill="#225555"/><circle cx="571.9" cy="191.4" r="2" fill="#225555"/><circle cx="594.0" cy="188.4" r="2" fill="#225555"/><circle cx="616.0" cy="188.4" r="2" fill="#225555"/><circle cx="638.1" cy="194.5" r="2" fill="#225555"/><circle cx="660.2" cy="189.6" r="2" fill="#225555"/><circle cx="682.3" cy="188.1" r="2" fill="#225555"/><circle cx="704.4" cy="188.9" r="2" fill="#225555"/><circle cx="726.4" cy="190.0" r="2" fill="#225555"/><circle cx="748.5" cy="189.5" r="2" fill="#225555"/><circle cx="770.6" cy="197.7" r="2" fill="#225555"/><circle cx="792.7" cy="188.4" r="2" fill="#225555"/><circle cx="814.8" cy="196.2" r="2" fill="#225555"/><circle cx="836.9" cy="196.8" r="2" fill="#225555"/><circle cx="858.9" cy="203.9" r="2" fill="#225555"/><circle cx="881.0" cy="187.9" r="2" fill="#225555"/><circle cx="903.1" cy="202.6" r="2" fill="#225555"/><circle cx="925.2" cy="190.5" r="2" fill="#225555"/><circle cx="947.3" cy="186.3" r="2" fill="#225555"/><circle cx="969.3" cy="142.7" r="2" fill="#225555"/><circle cx="991.4" cy="146.0" r="2" fill="#225555"/><circle cx="1013.5" cy="76.0" r="2" fill="#225555"/><circle cx="1035.6" cy="75.4" r="2" fill="#225555"/><circle cx="1057.7" cy="81.5" r="2" fill="#225555"/><circle cx="1079.8" cy="72.2" r="2" fill="#225555"/><circle cx="1101.8" cy="74.9" r="2" fill="#225555"/><circle cx="1123.9" cy="75.4" r="2" fill="#225555"/><circle cx="1146.0" cy="77.9" r="2" fill="#225555"/><rect x="1156" y="154" width="10" height="10" fill="#225555"/><text x="1170" y="163" font-size="10" fill="#444">hub-200</text><path d="M64.0,262.6 L86.1,261.9 L108.2,262.5 L130.2,264.6 L152.3,261.0 L174.4,261.9 L196.5,263.4 L218.6,262.1 L240.7,261.1 L262.7,260.6 L284.8,262.4 L306.9,259.1 L329.0,258.0 L351.1,263.8 L373.1,257.7 L395.2,262.5 L417.3,260.7 L439.4,293.7 L461.5,294.3 L483.6,292.9 L505.6,292.9 L527.7,294.9 L549.8,294.5 L571.9,296.4 L594.0,293.7 L616.0,296.6 L638.1,292.4 L660.2,294.3 L682.3,294.5 L704.4,294.9 L726.4,297.3 L748.5,299.8 L770.6,298.1 L792.7,295.7 L814.8,298.3 L836.9,297.8 L858.9,299.7 L881.0,298.9 L903.1,299.2 L925.2,297.7 L947.3,298.4 L969.3,286.8 L991.4,286.2 L1013.5,261.4 L1035.6,262.1 L1057.7,261.9 L1079.8,259.4 L1101.8,261.0 L1123.9,259.4 L1146.0,259.8" fill="none" stroke="#552222" stroke-width="1.6"/><circle cx="64.0" cy="262.6" r="2" fill="#552222"/><circle cx="86.1" cy="261.9" r="2" fill="#552222"/><circle cx="108.2" cy="262.5" r="2" fill="#552222"/><circle cx="130.2" cy="264.6" r="2" fill="#552222"/><circle cx="152.3" cy="261.0" r="2" fill="#552222"/><circle cx="174.4" cy="261.9" r="2" fill="#552222"/><circle cx="196.5" cy="263.4" r="2" fill="#552222"/><circle cx="218.6" cy="262.1" r="2" fill="#552222"/><circle cx="240.7" cy="261.1" r="2" fill="#552222"/><circle cx="262.7" cy="260.6" r="2" fill="#552222"/><circle cx="284.8" cy="262.4" r="2" fill="#552222"/><circle cx="306.9" cy="259.1" r="2" fill="#552222"/><circle cx="329.0" cy="258.0" r="2" fill="#552222"/><circle cx="351.1" cy="263.8" r="2" fill="#552222"/><circle cx="373.1" cy="257.7" r="2" fill="#552222"/><circle cx="395.2" cy="262.5" r="2" fill="#552222"/><circle cx="417.3" cy="260.7" r="2" fill="#552222"/><circle cx="439.4" cy="293.7" r="2" fill="#552222"/><circle cx="461.5" cy="294.3" r="2" fill="#552222"/><circle cx="483.6" cy="292.9" r="2" fill="#552222"/><circle cx="505.6" cy="292.9" r="2" fill="#552222"/><circle cx="527.7" cy="294.9" r="2" fill="#552222"/><circle cx="549.8" cy="294.5" r="2" fill="#552222"/><circle cx="571.9" cy="296.4" r="2" fill="#552222"/><circle cx="594.0" cy="293.7" r="2" fill="#552222"/><circle cx="616.0" cy="296.6" r="2" fill="#552222"/><circle cx="638.1" cy="292.4" r="2" fill="#552222"/><circle cx="660.2" cy="294.3" r="2" fill="#552222"/><circle cx="682.3" cy="294.5" r="2" fill="#552222"/><circle cx="704.4" cy="294.9" r="2" fill="#552222"/><circle cx="726.4" cy="297.3" r="2" fill="#552222"/><circle cx="748.5" cy="299.8" r="2" fill="#552222"/><circle cx="770.6" cy="298.1" r="2" fill="#552222"/><circle cx="792.7" cy="295.7" r="2" fill="#552222"/><circle cx="814.8" cy="298.3" r="2" fill="#552222"/><circle cx="836.9" cy="297.8" r="2" fill="#552222"/><circle cx="858.9" cy="299.7" r="2" fill="#552222"/><circle cx="881.0" cy="298.9" r="2" fill="#552222"/><circle cx="903.1" cy="299.2" r="2" fill="#552222"/><circle cx="925.2" cy="297.7" r="2" fill="#552222"/><circle cx="947.3" cy="298.4" r="2" fill="#552222"/><circle cx="969.3" cy="286.8" r="2" fill="#552222"/><circle cx="991.4" cy="286.2" r="2" fill="#552222"/><circle cx="1013.5" cy="261.4" r="2" fill="#552222"/><circle cx="1035.6" cy="262.1" r="2" fill="#552222"/><circle cx="1057.7" cy="261.9" r="2" fill="#552222"/><circle cx="1079.8" cy="259.4" r="2" fill="#552222"/><circle cx="1101.8" cy="261.0" r="2" fill="#552222"/><circle cx="1123.9" cy="259.4" r="2" fill="#552222"/><circle cx="1146.0" cy="259.8" r="2" fill="#552222"/><rect x="1156" y="169" width="10" height="10" fill="#552222"/><text x="1170" y="178" font-size="10" fill="#444">hooked-200</text></svg>