<svg width="1296" height="372" xmlns="http://www.w3.org/2000/svg"><rect width="1296" height="372" fill="#ffffff"/><text x="64" y="20" font-size="15" font-weight="bold" fill="#333">list_exit_actions() — ops/sec (linear scale, last 50) by PR / release, c8g.medium<tspan fill-opacity="0.5"> (higher is better)</tspan></text><line x1="86.1" y1="34" x2="86.1" y2="324" stroke="#e8e8e8"/><line x1="108.2" y1="34" x2="108.2" y2="324" stroke="#e8e8e8"/><line x1="130.2" y1="34" x2="130.2" y2="324" stroke="#e8e8e8"/><line x1="152.3" y1="34" x2="152.3" y2="324" stroke="#e8e8e8"/><line x1="196.5" y1="34" x2="196.5" y2="324" stroke="#e8e8e8"/><line x1="218.6" y1="34" x2="218.6" y2="324" stroke="#e8e8e8"/><line x1="240.7" y1="34" x2="240.7" y2="324" stroke="#e8e8e8"/><line x1="262.7" y1="34" x2="262.7" y2="324" stroke="#e8e8e8"/><line x1="306.9" y1="34" x2="306.9" y2="324" stroke="#e8e8e8"/><line x1="329.0" y1="34" x2="329.0" y2="324" stroke="#e8e8e8"/><line x1="351.1" y1="34" x2="351.1" y2="324" stroke="#e8e8e8"/><line x1="373.1" y1="34" x2="373.1" y2="324" stroke="#e8e8e8"/><line x1="417.3" y1="34" x2="417.3" y2="324" stroke="#e8e8e8"/><line x1="439.4" y1="34" x2="439.4" y2="324" stroke="#e8e8e8"/><line x1="461.5" y1="34" x2="461.5" y2="324" stroke="#e8e8e8"/><line x1="483.6" y1="34" x2="483.6" y2="324" stroke="#e8e8e8"/><line x1="527.7" y1="34" x2="527.7" y2="324" stroke="#e8e8e8"/><line x1="549.8" y1="34" x2="549.8" y2="324" stroke="#e8e8e8"/><line x1="571.9" y1="34" x2="571.9" y2="324" stroke="#e8e8e8"/><line x1="594.0" y1="34" x2="594.0" y2="324" stroke="#e8e8e8"/><line x1="638.1" y1="34" x2="638.1" y2="324" stroke="#e8e8e8"/><line x1="660.2" y1="34" x2="660.2" y2="324" stroke="#e8e8e8"/><line x1="682.3" y1="34" x2="682.3" y2="324" stroke="#e8e8e8"/><line x1="704.4" y1="34" x2="704.4" y2="324" stroke="#e8e8e8"/><line x1="748.5" y1="34" x2="748.5" y2="324" stroke="#e8e8e8"/><line x1="770.6" y1="34" x2="770.6" y2="324" stroke="#e8e8e8"/><line x1="792.7" y1="34" x2="792.7" y2="324" stroke="#e8e8e8"/><line x1="814.8" y1="34" x2="814.8" y2="324" stroke="#e8e8e8"/><line x1="858.9" y1="34" x2="858.9" y2="324" stroke="#e8e8e8"/><line x1="881.0" y1="34" x2="881.0" y2="324" stroke="#e8e8e8"/><line x1="903.1" y1="34" x2="903.1" y2="324" stroke="#e8e8e8"/><line x1="925.2" y1="34" x2="925.2" y2="324" stroke="#e8e8e8"/><line x1="969.3" y1="34" x2="969.3" y2="324" stroke="#e8e8e8"/><line x1="991.4" y1="34" x2="991.4" y2="324" stroke="#e8e8e8"/><line x1="1013.5" y1="34" x2="1013.5" y2="324" stroke="#e8e8e8"/><line x1="1035.6" y1="34" x2="1035.6" y2="324" stroke="#e8e8e8"/><line x1="1079.8" y1="34" x2="1079.8" y2="324" stroke="#e8e8e8"/><line x1="1101.8" y1="34" x2="1101.8" y2="324" stroke="#e8e8e8"/><line x1="1123.9" y1="34" x2="1123.9" y2="324" stroke="#e8e8e8"/><line x1="1146.0" y1="34" x2="1146.0" y2="324" stroke="#e8e8e8"/><line x1="64.0" y1="34" x2="64.0" y2="324" stroke="#d0d0d0"/><line x1="174.4" y1="34" x2="174.4" y2="324" stroke="#d0d0d0"/><line x1="284.8" y1="34" x2="284.8" y2="324" stroke="#d0d0d0"/><line x1="395.2" y1="34" x2="395.2" y2="324" stroke="#d0d0d0"/><line x1="505.6" y1="34" x2="505.6" y2="324" stroke="#d0d0d0"/><line x1="616.0" y1="34" x2="616.0" y2="324" stroke="#d0d0d0"/><line x1="726.4" y1="34" x2="726.4" y2="324" stroke="#d0d0d0"/><line x1="836.9" y1="34" x2="836.9" y2="324" stroke="#d0d0d0"/><line x1="947.3" y1="34" x2="947.3" y2="324" stroke="#d0d0d0"/><line x1="1057.7" y1="34" x2="1057.7" y2="324" stroke="#d0d0d0"/><line x1="64" y1="324.0" x2="1146" y2="324.0" stroke="#b0b0b0"/><text x="58" y="328.0" font-size="10" text-anchor="end" fill="#888">-13.7k</text><line x1="64" y1="266.0" x2="1146" y2="266.0" stroke="#b0b0b0"/><text x="58" y="270.0" font-size="10" text-anchor="end" fill="#888">63.4k</text><line x1="64" y1="208.0" x2="1146" y2="208.0" stroke="#b0b0b0"/><text x="58" y="212.0" font-size="10" text-anchor="end" fill="#888">140.5k</text><line x1="64" y1="150.0" x2="1146" y2="150.0" stroke="#b0b0b0"/><text x="58" y="154.0" font-size="10" text-anchor="end" fill="#888">217.7k</text><line x1="64" y1="92.0" x2="1146" y2="92.0" stroke="#b0b0b0"/><text x="58" y="96.0" font-size="10" text-anchor="end" fill="#888">294.8k</text><line x1="64" y1="34.0" x2="1146" y2="34.0" stroke="#b0b0b0"/><text x="58" y="38.0" font-size="10" text-anchor="end" fill="#888">371.9k</text><text x="64.0" y="327.2" font-size="4" text-anchor="end" fill="#aa4400" transform="rotate(-80 64.0 327.2)">v5.157.18</text><text x="86.1" y="327.2" font-size="4" text-anchor="end" fill="#aa4400" transform="rotate(-80 86.1 327.2)">v5.158.0</text><text x="108.2" y="327.2" font-size="4" text-anchor="end" fill="#d6a382" transform="rotate(-80 108.2 327.2)">v5.158.1</text><text x="130.2" y="327.2" font-size="4" text-anchor="end" fill="#d6a382" transform="rotate(-80 130.2 327.2)">v5.158.2</text><text x="152.3" y="327.2" font-size="4" text-anchor="end" fill="#aa4400" transform="rotate(-80 152.3 327.2)">v5.159.0</text><text x="174.4" y="327.2" font-size="4" text-anchor="end" fill="#d6a382" transform="rotate(-80 174.4 327.2)">v5.159.1</text><text x="196.5" y="327.2" font-size="4" text-anchor="end" fill="#d6a382" transform="rotate(-80 196.5 327.2)">v5.159.2</text><text x="218.6" y="327.2" font-size="4" text-anchor="end" fill="#aa4400" transform="rotate(-80 218.6 327.2)">v5.160.0</text><text x="240.7" y="327.2" font-size="4" text-anchor="end" fill="#aa4400" transform="rotate(-80 240.7 327.2)">v5.161.0</text><text x="262.7" y="327.2" font-size="4" text-anchor="end" fill="#aa4400" transform="rotate(-80 262.7 327.2)">v5.162.0</text><text x="284.8" y="327.2" font-size="4" text-anchor="end" fill="#d6a382" transform="rotate(-80 284.8 327.2)">v5.162.1</text><text x="306.9" y="327.2" font-size="4" text-anchor="end" fill="#d6a382" transform="rotate(-80 306.9 327.2)">v5.162.2</text><text x="329.0" y="327.2" font-size="4" text-anchor="end" fill="#d6a382" transform="rotate(-80 329.0 327.2)">v5.162.3</text><text x="351.1" y="327.2" font-size="4" text-anchor="end" fill="#d6a382" transform="rotate(-80 351.1 327.2)">v5.162.4</text><text x="373.1" y="327.2" font-size="4" text-anchor="end" fill="#d6a382" transform="rotate(-80 373.1 327.2)">v5.162.5</text><text x="395.2" y="327.2" font-size="4" text-anchor="end" fill="#d6a382" transform="rotate(-80 395.2 327.2)">v5.162.6</text><text x="417.3" y="327.2" font-size="4" text-anchor="end" fill="#d6a382" transform="rotate(-80 417.3 327.2)">v5.162.7</text><text x="439.4" y="327.2" font-size="4" text-anchor="end" fill="#d6a382" transform="rotate(-80 439.4 327.2)">v5.162.8</text><text x="461.5" y="327.2" font-size="4" text-anchor="end" fill="#d6a382" transform="rotate(-80 461.5 327.2)">v5.162.9</text><text x="483.6" y="327.2" font-size="4" text-anchor="end" fill="#d6a382" transform="rotate(-80 483.6 327.2)">v5.162.10</text><text x="505.6" y="327.2" font-size="4" text-anchor="end" fill="#d6a382" transform="rotate(-80 505.6 327.2)">v5.162.11</text><text x="527.7" y="327.2" font-size="4" text-anchor="end" fill="#d6a382" transform="rotate(-80 527.7 327.2)">v5.162.12</text><text x="549.8" y="327.2" font-size="4" text-anchor="end" fill="#d6a382" transform="rotate(-80 549.8 327.2)">v5.162.13</text><text x="571.9" y="327.2" font-size="4" text-anchor="end" fill="#d6a382" transform="rotate(-80 571.9 327.2)">v5.162.15</text><text x="594.0" y="327.2" font-size="4" text-anchor="end" fill="#d6a382" transform="rotate(-80 594.0 327.2)">v5.162.16</text><text x="616.0" y="327.2" font-size="4" text-anchor="end" fill="#d6a382" transform="rotate(-80 616.0 327.2)">v5.162.17</text><text x="638.1" y="327.2" font-size="4" text-anchor="end" fill="#d6a382" transform="rotate(-80 638.1 327.2)">v5.162.18</text><text x="660.2" y="327.2" font-size="4" text-anchor="end" fill="#d6a382" transform="rotate(-80 660.2 327.2)">v5.162.19</text><text x="682.3" y="327.2" font-size="4" text-anchor="end" fill="#d6a382" transform="rotate(-80 682.3 327.2)">v5.162.20</text><text x="704.4" y="327.2" font-size="4" text-anchor="end" fill="#d6a382" transform="rotate(-80 704.4 327.2)">v5.162.21</text><text x="726.4" y="327.2" font-size="4" text-anchor="end" fill="#d6a382" transform="rotate(-80 726.4 327.2)">v5.162.22</text><text x="748.5" y="327.2" font-size="4" text-anchor="end" fill="#d6a382" transform="rotate(-80 748.5 327.2)">v5.162.23</text><text x="770.6" y="327.2" font-size="4" text-anchor="end" fill="#d6a382" transform="rotate(-80 770.6 327.2)">v5.162.24</text><text x="792.7" y="327.2" font-size="4" text-anchor="end" fill="#d6a382" transform="rotate(-80 792.7 327.2)">v5.162.25</text><text x="814.8" y="327.2" font-size="4" text-anchor="end" fill="#d6a382" transform="rotate(-80 814.8 327.2)">v5.162.26</text><text x="836.9" y="327.2" font-size="4" text-anchor="end" fill="#d6a382" transform="rotate(-80 836.9 327.2)">v5.162.27</text><text x="858.9" y="327.2" font-size="4" text-anchor="end" fill="#d6a382" transform="rotate(-80 858.9 327.2)">v5.162.28</text><text x="881.0" y="327.2" font-size="4" text-anchor="end" fill="#d6a382" transform="rotate(-80 881.0 327.2)">v5.162.29</text><text x="903.1" y="327.2" font-size="4" text-anchor="end" fill="#d6a382" transform="rotate(-80 903.1 327.2)">v5.162.30</text><text x="925.2" y="327.2" font-size="4" text-anchor="end" fill="#d6a382" transform="rotate(-80 925.2 327.2)">v5.162.31</text><text x="947.3" y="327.2" font-size="4" text-anchor="end" fill="#d6a382" transform="rotate(-80 947.3 327.2)">v5.162.32</text><text x="969.3" y="327.2" font-size="4" text-anchor="end" fill="#d6a382" transform="rotate(-80 969.3 327.2)">v5.162.33</text><text x="991.4" y="327.2" font-size="4" text-anchor="end" fill="#d6a382" transform="rotate(-80 991.4 327.2)">v5.162.34</text><text x="1013.5" y="327.2" font-size="4" text-anchor="end" fill="#d6a382" transform="rotate(-80 1013.5 327.2)">v5.162.35</text><text x="1035.6" y="327.2" font-size="4" text-anchor="end" fill="#aa4400" transform="rotate(-80 1035.6 327.2)">v5.163.0</text><text x="1057.7" y="327.2" font-size="4" text-anchor="end" fill="#d6a382" transform="rotate(-80 1057.7 327.2)">v5.163.1</text><text x="1079.8" y="327.2" font-size="4" text-anchor="end" fill="#d6a382" transform="rotate(-80 1079.8 327.2)">v5.163.2</text><text x="1101.8" y="327.2" font-size="4" text-anchor="end" fill="#d6a382" transform="rotate(-80 1101.8 327.2)">v5.163.3</text><text x="1123.9" y="327.2" font-size="4" text-anchor="end" fill="#d6a382" transform="rotate(-80 1123.9 327.2)">v5.163.4</text><text x="1146.0" y="327.2" font-size="4" text-anchor="end" fill="#773000" transform="rotate(-80 1146.0 327.2)">v6.0.0-alpha.12</text><path d="M64.0,87.5 L86.1,87.0 L108.2,93.8 L130.2,93.2 L152.3,92.9 L174.4,83.1 L196.5,83.2 L218.6,76.7 L240.7,85.8 L262.7,86.7 L284.8,85.0 L306.9,79.1 L329.0,79.4 L351.1,83.9 L373.1,82.6 L395.2,87.2 L417.3,81.6 L439.4,161.4 L461.5,156.5 L483.6,161.7 L505.6,157.3 L527.7,160.1 L549.8,155.7 L571.9,163.3 L594.0,160.4 L616.0,158.6 L638.1,155.5 L660.2,157.5 L682.3,158.2 L704.4,153.8 L726.4,163.0 L748.5,157.3 L770.6,155.2 L792.7,159.8 L814.8,161.2 L836.9,163.0 L858.9,157.2 L881.0,162.9 L903.1,159.2 L925.2,162.6 L947.3,161.9 L969.3,65.2 L991.4,67.1 L1013.5,79.3 L1035.6,62.9 L1057.7,64.8 L1079.8,71.5 L1101.8,66.2 L1123.9,58.2 L1146.0,68.9" fill="none" stroke="#4477AA" stroke-width="1.6"/><circle cx="64.0" cy="87.5" r="2" fill="#4477AA"/><circle cx="86.1" cy="87.0" r="2" fill="#4477AA"/><circle cx="108.2" cy="93.8" r="2" fill="#4477AA"/><circle cx="130.2" cy="93.2" r="2" fill="#4477AA"/><circle cx="152.3" cy="92.9" r="2" fill="#4477AA"/><circle cx="174.4" cy="83.1" r="2" fill="#4477AA"/><circle cx="196.5" cy="83.2" r="2" fill="#4477AA"/><circle cx="218.6" cy="76.7" r="2" fill="#4477AA"/><circle cx="240.7" cy="85.8" r="2" fill="#4477AA"/><circle cx="262.7" cy="86.7" r="2" fill="#4477AA"/><circle cx="284.8" cy="85.0" r="2" fill="#4477AA"/><circle cx="306.9" cy="79.1" r="2" fill="#4477AA"/><circle cx="329.0" cy="79.4" r="2" fill="#4477AA"/><circle cx="351.1" cy="83.9" r="2" fill="#4477AA"/><circle cx="373.1" cy="82.6" r="2" fill="#4477AA"/><circle cx="395.2" cy="87.2" r="2" fill="#4477AA"/><circle cx="417.3" cy="81.6" r="2" fill="#4477AA"/><circle cx="439.4" cy="161.4" r="2" fill="#4477AA"/><circle cx="461.5" cy="156.5" r="2" fill="#4477AA"/><circle cx="483.6" cy="161.7" r="2" fill="#4477AA"/><circle cx="505.6" cy="157.3" r="2" fill="#4477AA"/><circle cx="527.7" cy="160.1" r="2" fill="#4477AA"/><circle cx="549.8" cy="155.7" r="2" fill="#4477AA"/><circle cx="571.9" cy="163.3" r="2" fill="#4477AA"/><circle cx="594.0" cy="160.4" r="2" fill="#4477AA"/><circle cx="616.0" cy="158.6" r="2" fill="#4477AA"/><circle cx="638.1" cy="155.5" r="2" fill="#4477AA"/><circle cx="660.2" cy="157.5" r="2" fill="#4477AA"/><circle cx="682.3" cy="158.2" r="2" fill="#4477AA"/><circle cx="704.4" cy="153.8" r="2" fill="#4477AA"/><circle cx="726.4" cy="163.0" r="2" fill="#4477AA"/><circle cx="748.5" cy="157.3" r="2" fill="#4477AA"/><circle cx="770.6" cy="155.2" r="2" fill="#4477AA"/><circle cx="792.7" cy="159.8" r="2" fill="#4477AA"/><circle cx="814.8" cy="161.2" r="2" fill="#4477AA"/><circle cx="836.9" cy="163.0" r="2" fill="#4477AA"/><circle cx="858.9" cy="157.2" r="2" fill="#4477AA"/><circle cx="881.0" cy="162.9" r="2" fill="#4477AA"/><circle cx="903.1" cy="159.2" r="2" fill="#4477AA"/><circle cx="925.2" cy="162.6" r="2" fill="#4477AA"/><circle cx="947.3" cy="161.9" r="2" fill="#4477AA"/><circle cx="969.3" cy="65.2" r="2" fill="#4477AA"/><circle cx="991.4" cy="67.1" r="2" fill="#4477AA"/><circle cx="1013.5" cy="79.3" r="2" fill="#4477AA"/><circle cx="1035.6" cy="62.9" r="2" fill="#4477AA"/><circle cx="1057.7" cy="64.8" r="2" fill="#4477AA"/><circle cx="1079.8" cy="71.5" r="2" fill="#4477AA"/><circle cx="1101.8" cy="66.2" r="2" fill="#4477AA"/><circle cx="1123.9" cy="58.2" r="2" fill="#4477AA"/><circle cx="1146.0" cy="68.9" r="2" fill="#4477AA"/><rect x="1156" y="34" width="10" height="10" fill="#4477AA"/><text x="1170" y="43" font-size="10" fill="#444">chain-10</text><path d="M64.0,92.1 L86.1,91.6 L108.2,93.6 L130.2,100.3 L152.3,92.2 L174.4,95.2 L196.5,91.0 L218.6,100.6 L240.7,90.1 L262.7,96.3 L284.8,91.9 L306.9,82.5 L329.0,86.5 L351.1,94.5 L373.1,91.7 L395.2,85.3 L417.3,87.3 L439.4,166.0 L461.5,165.1 L483.6,165.8 L505.6,168.6 L527.7,161.5 L549.8,168.6 L571.9,163.7 L594.0,164.8 L616.0,167.7 L638.1,166.0 L660.2,167.4 L682.3,171.5 L704.4,165.7 L726.4,165.7 L748.5,159.8 L770.6,165.5 L792.7,163.2 L814.8,164.8 L836.9,164.2 L858.9,170.8 L881.0,168.8 L903.1,166.5 L925.2,169.0 L947.3,162.8 L969.3,78.6 L991.4,79.5 L1013.5,74.2 L1035.6,70.2 L1057.7,80.9 L1079.8,74.4 L1101.8,74.8 L1123.9,72.2 L1146.0,69.6" fill="none" stroke="#EE6677" stroke-width="1.6"/><circle cx="64.0" cy="92.1" r="2" fill="#EE6677"/><circle cx="86.1" cy="91.6" r="2" fill="#EE6677"/><circle cx="108.2" cy="93.6" r="2" fill="#EE6677"/><circle cx="130.2" cy="100.3" r="2" fill="#EE6677"/><circle cx="152.3" cy="92.2" r="2" fill="#EE6677"/><circle cx="174.4" cy="95.2" r="2" fill="#EE6677"/><circle cx="196.5" cy="91.0" r="2" fill="#EE6677"/><circle cx="218.6" cy="100.6" r="2" fill="#EE6677"/><circle cx="240.7" cy="90.1" r="2" fill="#EE6677"/><circle cx="262.7" cy="96.3" r="2" fill="#EE6677"/><circle cx="284.8" cy="91.9" r="2" fill="#EE6677"/><circle cx="306.9" cy="82.5" r="2" fill="#EE6677"/><circle cx="329.0" cy="86.5" r="2" fill="#EE6677"/><circle cx="351.1" cy="94.5" r="2" fill="#EE6677"/><circle cx="373.1" cy="91.7" r="2" fill="#EE6677"/><circle cx="395.2" cy="85.3" r="2" fill="#EE6677"/><circle cx="417.3" cy="87.3" r="2" fill="#EE6677"/><circle cx="439.4" cy="166.0" r="2" fill="#EE6677"/><circle cx="461.5" cy="165.1" r="2" fill="#EE6677"/><circle cx="483.6" cy="165.8" r="2" fill="#EE6677"/><circle cx="505.6" cy="168.6" r="2" fill="#EE6677"/><circle cx="527.7" cy="161.5" r="2" fill="#EE6677"/><circle cx="549.8" cy="168.6" r="2" fill="#EE6677"/><circle cx="571.9" cy="163.7" r="2" fill="#EE6677"/><circle cx="594.0" cy="164.8" r="2" fill="#EE6677"/><circle cx="616.0" cy="167.7" r="2" fill="#EE6677"/><circle cx="638.1" cy="166.0" r="2" fill="#EE6677"/><circle cx="660.2" cy="167.4" r="2" fill="#EE6677"/><circle cx="682.3" cy="171.5" r="2" fill="#EE6677"/><circle cx="704.4" cy="165.7" r="2" fill="#EE6677"/><circle cx="726.4" cy="165.7" r="2" fill="#EE6677"/><circle cx="748.5" cy="159.8" r="2" fill="#EE6677"/><circle cx="770.6" cy="165.5" r="2" fill="#EE6677"/><circle cx="792.7" cy="163.2" r="2" fill="#EE6677"/><circle cx="814.8" cy="164.8" r="2" fill="#EE6677"/><circle cx="836.9" cy="164.2" r="2" fill="#EE6677"/><circle cx="858.9" cy="170.8" r="2" fill="#EE6677"/><circle cx="881.0" cy="168.8" r="2" fill="#EE6677"/><circle cx="903.1" cy="166.5" r="2" fill="#EE6677"/><circle cx="925.2" cy="169.0" r="2" fill="#EE6677"/><circle cx="947.3" cy="162.8" r="2" fill="#EE6677"/><circle cx="969.3" cy="78.6" r="2" fill="#EE6677"/><circle cx="991.4" cy="79.5" r="2" fill="#EE6677"/><circle cx="1013.5" cy="74.2" r="2" fill="#EE6677"/><circle cx="1035.6" cy="70.2" r="2" fill="#EE6677"/><circle cx="1057.7" cy="80.9" r="2" fill="#EE6677"/><circle cx="1079.8" cy="74.4" r="2" fill="#EE6677"/><circle cx="1101.8" cy="74.8" r="2" fill="#EE6677"/><circle cx="1123.9" cy="72.2" r="2" fill="#EE6677"/><circle cx="1146.0" cy="69.6" r="2" fill="#EE6677"/><rect x="1156" y="49" width="10" height="10" fill="#EE6677"/><text x="1170" y="58" font-size="10" fill="#444">chain-50</text><path d="M64.0,97.0 L86.1,96.8 L108.2,93.0 L130.2,96.5 L152.3,94.8 L174.4,92.9 L196.5,90.1 L218.6,92.8 L240.7,96.3 L262.7,95.1 L284.8,100.7 L306.9,90.8 L329.0,94.3 L351.1,99.9 L373.1,96.4 L395.2,93.0 L417.3,96.2 L439.4,173.9 L461.5,170.8 L483.6,175.7 L505.6,168.7 L527.7,167.6 L549.8,176.7 L571.9,173.5 L594.0,171.8 L616.0,172.0 L638.1,174.4 L660.2,171.5 L682.3,174.1 L704.4,171.8 L726.4,169.5 L748.5,174.0 L770.6,177.1 L792.7,173.7 L814.8,177.4 L836.9,169.2 L858.9,171.8 L881.0,171.2 L903.1,180.2 L925.2,172.2 L947.3,168.8 L969.3,79.4 L991.4,76.0 L1013.5,80.3 L1035.6,77.4 L1057.7,87.2 L1079.8,77.5 L1101.8,76.3 L1123.9,77.5 L1146.0,73.8" fill="none" stroke="#228833" stroke-width="1.6"/><circle cx="64.0" cy="97.0" r="2" fill="#228833"/><circle cx="86.1" cy="96.8" r="2" fill="#228833"/><circle cx="108.2" cy="93.0" r="2" fill="#228833"/><circle cx="130.2" cy="96.5" r="2" fill="#228833"/><circle cx="152.3" cy="94.8" r="2" fill="#228833"/><circle cx="174.4" cy="92.9" r="2" fill="#228833"/><circle cx="196.5" cy="90.1" r="2" fill="#228833"/><circle cx="218.6" cy="92.8" r="2" fill="#228833"/><circle cx="240.7" cy="96.3" r="2" fill="#228833"/><circle cx="262.7" cy="95.1" r="2" fill="#228833"/><circle cx="284.8" cy="100.7" r="2" fill="#228833"/><circle cx="306.9" cy="90.8" r="2" fill="#228833"/><circle cx="329.0" cy="94.3" r="2" fill="#228833"/><circle cx="351.1" cy="99.9" r="2" fill="#228833"/><circle cx="373.1" cy="96.4" r="2" fill="#228833"/><circle cx="395.2" cy="93.0" r="2" fill="#228833"/><circle cx="417.3" cy="96.2" r="2" fill="#228833"/><circle cx="439.4" cy="173.9" r="2" fill="#228833"/><circle cx="461.5" cy="170.8" r="2" fill="#228833"/><circle cx="483.6" cy="175.7" r="2" fill="#228833"/><circle cx="505.6" cy="168.7" r="2" fill="#228833"/><circle cx="527.7" cy="167.6" r="2" fill="#228833"/><circle cx="549.8" cy="176.7" r="2" fill="#228833"/><circle cx="571.9" cy="173.5" r="2" fill="#228833"/><circle cx="594.0" cy="171.8" r="2" fill="#228833"/><circle cx="616.0" cy="172.0" r="2" fill="#228833"/><circle cx="638.1" cy="174.4" r="2" fill="#228833"/><circle cx="660.2" cy="171.5" r="2" fill="#228833"/><circle cx="682.3" cy="174.1" r="2" fill="#228833"/><circle cx="704.4" cy="171.8" r="2" fill="#228833"/><circle cx="726.4" cy="169.5" r="2" fill="#228833"/><circle cx="748.5" cy="174.0" r="2" fill="#228833"/><circle cx="770.6" cy="177.1" r="2" fill="#228833"/><circle cx="792.7" cy="173.7" r="2" fill="#228833"/><circle cx="814.8" cy="177.4" r="2" fill="#228833"/><circle cx="836.9" cy="169.2" r="2" fill="#228833"/><circle cx="858.9" cy="171.8" r="2" fill="#228833"/><circle cx="881.0" cy="171.2" r="2" fill="#228833"/><circle cx="903.1" cy="180.2" r="2" fill="#228833"/><circle cx="925.2" cy="172.2" r="2" fill="#228833"/><circle cx="947.3" cy="168.8" r="2" fill="#228833"/><circle cx="969.3" cy="79.4" r="2" fill="#228833"/><circle cx="991.4" cy="76.0" r="2" fill="#228833"/><circle cx="1013.5" cy="80.3" r="2" fill="#228833"/><circle cx="1035.6" cy="77.4" r="2" fill="#228833"/><circle cx="1057.7" cy="87.2" r="2" fill="#228833"/><circle cx="1079.8" cy="77.5" r="2" fill="#228833"/><circle cx="1101.8" cy="76.3" r="2" fill="#228833"/><circle cx="1123.9" cy="77.5" r="2" fill="#228833"/><circle cx="1146.0" cy="73.8" r="2" fill="#228833"/><rect x="1156" y="64" width="10" height="10" fill="#228833"/><text x="1170" y="73" font-size="10" fill="#444">chain-200</text><path d="M64.0,107.1 L86.1,111.4 L108.2,117.7 L130.2,110.9 L152.3,109.1 L174.4,115.1 L196.5,116.2 L218.6,120.2 L240.7,115.9 L262.7,119.7 L284.8,120.8 L306.9,109.5 L329.0,113.2 L351.1,109.4 L373.1,112.9 L395.2,107.7 L417.3,107.7 L439.4,182.7 L461.5,176.8 L483.6,187.4 L505.6,181.2 L527.7,180.9 L549.8,178.1 L571.9,188.8 L594.0,185.1 L616.0,185.7 L638.1,188.1 L660.2,184.0 L682.3,183.3 L704.4,183.2 L726.4,178.6 L748.5,179.0 L770.6,184.9 L792.7,184.1 L814.8,179.2 L836.9,179.5 L858.9,187.9 L881.0,182.8 L903.1,181.9 L925.2,181.6 L947.3,184.6 L969.3,101.7 L991.4,86.5 L1013.5,93.6 L1035.6,95.3 L1057.7,102.7 L1079.8,107.7 L1101.8,98.4 L1123.9,100.5 L1146.0,95.6" fill="none" stroke="#CCBB44" stroke-width="1.6"/><circle cx="64.0" cy="107.1" r="2" fill="#CCBB44"/><circle cx="86.1" cy="111.4" r="2" fill="#CCBB44"/><circle cx="108.2" cy="117.7" r="2" fill="#CCBB44"/><circle cx="130.2" cy="110.9" r="2" fill="#CCBB44"/><circle cx="152.3" cy="109.1" r="2" fill="#CCBB44"/><circle cx="174.4" cy="115.1" r="2" fill="#CCBB44"/><circle cx="196.5" cy="116.2" r="2" fill="#CCBB44"/><circle cx="218.6" cy="120.2" r="2" fill="#CCBB44"/><circle cx="240.7" cy="115.9" r="2" fill="#CCBB44"/><circle cx="262.7" cy="119.7" r="2" fill="#CCBB44"/><circle cx="284.8" cy="120.8" r="2" fill="#CCBB44"/><circle cx="306.9" cy="109.5" r="2" fill="#CCBB44"/><circle cx="329.0" cy="113.2" r="2" fill="#CCBB44"/><circle cx="351.1" cy="109.4" r="2" fill="#CCBB44"/><circle cx="373.1" cy="112.9" r="2" fill="#CCBB44"/><circle cx="395.2" cy="107.7" r="2" fill="#CCBB44"/><circle cx="417.3" cy="107.7" r="2" fill="#CCBB44"/><circle cx="439.4" cy="182.7" r="2" fill="#CCBB44"/><circle cx="461.5" cy="176.8" r="2" fill="#CCBB44"/><circle cx="483.6" cy="187.4" r="2" fill="#CCBB44"/><circle cx="505.6" cy="181.2" r="2" fill="#CCBB44"/><circle cx="527.7" cy="180.9" r="2" fill="#CCBB44"/><circle cx="549.8" cy="178.1" r="2" fill="#CCBB44"/><circle cx="571.9" cy="188.8" r="2" fill="#CCBB44"/><circle cx="594.0" cy="185.1" r="2" fill="#CCBB44"/><circle cx="616.0" cy="185.7" r="2" fill="#CCBB44"/><circle cx="638.1" cy="188.1" r="2" fill="#CCBB44"/><circle cx="660.2" cy="184.0" r="2" fill="#CCBB44"/><circle cx="682.3" cy="183.3" r="2" fill="#CCBB44"/><circle cx="704.4" cy="183.2" r="2" fill="#CCBB44"/><circle cx="726.4" cy="178.6" r="2" fill="#CCBB44"/><circle cx="748.5" cy="179.0" r="2" fill="#CCBB44"/><circle cx="770.6" cy="184.9" r="2" fill="#CCBB44"/><circle cx="792.7" cy="184.1" r="2" fill="#CCBB44"/><circle cx="814.8" cy="179.2" r="2" fill="#CCBB44"/><circle cx="836.9" cy="179.5" r="2" fill="#CCBB44"/><circle cx="858.9" cy="187.9" r="2" fill="#CCBB44"/><circle cx="881.0" cy="182.8" r="2" fill="#CCBB44"/><circle cx="903.1" cy="181.9" r="2" fill="#CCBB44"/><circle cx="925.2" cy="181.6" r="2" fill="#CCBB44"/><circle cx="947.3" cy="184.6" r="2" fill="#CCBB44"/><circle cx="969.3" cy="101.7" r="2" fill="#CCBB44"/><circle cx="991.4" cy="86.5" r="2" fill="#CCBB44"/><circle cx="1013.5" cy="93.6" r="2" fill="#CCBB44"/><circle cx="1035.6" cy="95.3" r="2" fill="#CCBB44"/><circle cx="1057.7" cy="102.7" r="2" fill="#CCBB44"/><circle cx="1079.8" cy="107.7" r="2" fill="#CCBB44"/><circle cx="1101.8" cy="98.4" r="2" fill="#CCBB44"/><circle cx="1123.9" cy="100.5" r="2" fill="#CCBB44"/><circle cx="1146.0" cy="95.6" r="2" fill="#CCBB44"/><rect x="1156" y="79" width="10" height="10" fill="#CCBB44"/><text x="1170" y="88" font-size="10" fill="#444">chain-1000</text><path d="M64.0,164.6 L86.1,161.9 L108.2,163.5 L130.2,168.5 L152.3,168.1 L174.4,160.4 L196.5,157.4 L218.6,164.9 L240.7,160.4 L262.7,161.4 L284.8,160.4 L306.9,162.5 L329.0,160.2 L351.1,161.2 L373.1,159.4 L395.2,157.5 L417.3,157.9 L439.4,194.8 L461.5,198.4 L483.6,200.7 L505.6,194.1 L527.7,198.0 L549.8,194.9 L571.9,194.2 L594.0,196.1 L616.0,195.6 L638.1,192.6 L660.2,197.8 L682.3,197.5 L704.4,197.5 L726.4,199.7 L748.5,195.5 L770.6,196.8 L792.7,195.6 L814.8,197.7 L836.9,196.6 L858.9,196.9 L881.0,200.4 L903.1,194.7 L925.2,197.4 L947.3,195.7 L969.3,152.6 L991.4,150.6 L1013.5,158.5 L1035.6,159.3 L1057.7,151.8 L1079.8,153.2 L1101.8,153.7 L1123.9,156.0 L1146.0,153.7" fill="none" stroke="#66CCEE" stroke-width="1.6"/><circle cx="64.0" cy="164.6" r="2" fill="#66CCEE"/><circle cx="86.1" cy="161.9" r="2" fill="#66CCEE"/><circle cx="108.2" cy="163.5" r="2" fill="#66CCEE"/><circle cx="130.2" cy="168.5" r="2" fill="#66CCEE"/><circle cx="152.3" cy="168.1" r="2" fill="#66CCEE"/><circle cx="174.4" cy="160.4" r="2" fill="#66CCEE"/><circle cx="196.5" cy="157.4" r="2" fill="#66CCEE"/><circle cx="218.6" cy="164.9" r="2" fill="#66CCEE"/><circle cx="240.7" cy="160.4" r="2" fill="#66CCEE"/><circle cx="262.7" cy="161.4" r="2" fill="#66CCEE"/><circle cx="284.8" cy="160.4" r="2" fill="#66CCEE"/><circle cx="306.9" cy="162.5" r="2" fill="#66CCEE"/><circle cx="329.0" cy="160.2" r="2" fill="#66CCEE"/><circle cx="351.1" cy="161.2" r="2" fill="#66CCEE"/><circle cx="373.1" cy="159.4" r="2" fill="#66CCEE"/><circle cx="395.2" cy="157.5" r="2" fill="#66CCEE"/><circle cx="417.3" cy="157.9" r="2" fill="#66CCEE"/><circle cx="439.4" cy="194.8" r="2" fill="#66CCEE"/><circle cx="461.5" cy="198.4" r="2" fill="#66CCEE"/><circle cx="483.6" cy="200.7" r="2" fill="#66CCEE"/><circle cx="505.6" cy="194.1" r="2" fill="#66CCEE"/><circle cx="527.7" cy="198.0" r="2" fill="#66CCEE"/><circle cx="549.8" cy="194.9" r="2" fill="#66CCEE"/><circle cx="571.9" cy="194.2" r="2" fill="#66CCEE"/><circle cx="594.0" cy="196.1" r="2" fill="#66CCEE"/><circle cx="616.0" cy="195.6" r="2" fill="#66CCEE"/><circle cx="638.1" cy="192.6" r="2" fill="#66CCEE"/><circle cx="660.2" cy="197.8" r="2" fill="#66CCEE"/><circle cx="682.3" cy="197.5" r="2" fill="#66CCEE"/><circle cx="704.4" cy="197.5" r="2" fill="#66CCEE"/><circle cx="726.4" cy="199.7" r="2" fill="#66CCEE"/><circle cx="748.5" cy="195.5" r="2" fill="#66CCEE"/><circle cx="770.6" cy="196.8" r="2" fill="#66CCEE"/><circle cx="792.7" cy="195.6" r="2" fill="#66CCEE"/><circle cx="814.8" cy="197.7" r="2" fill="#66CCEE"/><circle cx="836.9" cy="196.6" r="2" fill="#66CCEE"/><circle cx="858.9" cy="196.9" r="2" fill="#66CCEE"/><circle cx="881.0" cy="200.4" r="2" fill="#66CCEE"/><circle cx="903.1" cy="194.7" r="2" fill="#66CCEE"/><circle cx="925.2" cy="197.4" r="2" fill="#66CCEE"/><circle cx="947.3" cy="195.7" r="2" fill="#66CCEE"/><circle cx="969.3" cy="152.6" r="2" fill="#66CCEE"/><circle cx="991.4" cy="150.6" r="2" fill="#66CCEE"/><circle cx="1013.5" cy="158.5" r="2" fill="#66CCEE"/><circle cx="1035.6" cy="159.3" r="2" fill="#66CCEE"/><circle cx="1057.7" cy="151.8" r="2" fill="#66CCEE"/><circle cx="1079.8" cy="153.2" r="2" fill="#66CCEE"/><circle cx="1101.8" cy="153.7" r="2" fill="#66CCEE"/><circle cx="1123.9" cy="156.0" r="2" fill="#66CCEE"/><circle cx="1146.0" cy="153.7" r="2" fill="#66CCEE"/><rect x="1156" y="94" width="10" height="10" fill="#66CCEE"/><text x="1170" y="103" font-size="10" fill="#444">dense-10</text><path d="M64.0,262.8 L86.1,262.2 L108.2,261.5 L130.2,262.0 L152.3,261.6 L174.4,262.1 L196.5,262.5 L218.6,261.9 L240.7,262.2 L262.7,262.0 L284.8,263.1 L306.9,259.7 L329.0,260.1 L351.1,260.4 L373.1,261.3 L395.2,259.8 L417.3,260.8 L439.4,264.4 L461.5,264.5 L483.6,265.3 L505.6,265.7 L527.7,264.2 L549.8,264.9 L571.9,265.4 L594.0,265.3 L616.0,266.6 L638.1,266.3 L660.2,266.4 L682.3,266.6 L704.4,265.1 L726.4,265.5 L748.5,264.1 L770.6,266.0 L792.7,264.7 L814.8,267.0 L836.9,265.0 L858.9,265.6 L881.0,264.7 L903.1,266.4 L925.2,265.1 L947.3,265.8 L969.3,259.3 L991.4,258.9 L1013.5,260.7 L1035.6,260.0 L1057.7,260.6 L1079.8,260.0 L1101.8,260.0 L1123.9,260.3 L1146.0,257.9" fill="none" stroke="#AA3377" stroke-width="1.6"/><circle cx="64.0" cy="262.8" r="2" fill="#AA3377"/><circle cx="86.1" cy="262.2" r="2" fill="#AA3377"/><circle cx="108.2" cy="261.5" r="2" fill="#AA3377"/><circle cx="130.2" cy="262.0" r="2" fill="#AA3377"/><circle cx="152.3" cy="261.6" r="2" fill="#AA3377"/><circle cx="174.4" cy="262.1" r="2" fill="#AA3377"/><circle cx="196.5" cy="262.5" r="2" fill="#AA3377"/><circle cx="218.6" cy="261.9" r="2" fill="#AA3377"/><circle cx="240.7" cy="262.2" r="2" fill="#AA3377"/><circle cx="262.7" cy="262.0" r="2" fill="#AA3377"/><circle cx="284.8" cy="263.1" r="2" fill="#AA3377"/><circle cx="306.9" cy="259.7" r="2" fill="#AA3377"/><circle cx="329.0" cy="260.1" r="2" fill="#AA3377"/><circle cx="351.1" cy="260.4" r="2" fill="#AA3377"/><circle cx="373.1" cy="261.3" r="2" fill="#AA3377"/><circle cx="395.2" cy="259.8" r="2" fill="#AA3377"/><circle cx="417.3" cy="260.8" r="2" fill="#AA3377"/><circle cx="439.4" cy="264.4" r="2" fill="#AA3377"/><circle cx="461.5" cy="264.5" r="2" fill="#AA3377"/><circle cx="483.6" cy="265.3" r="2" fill="#AA3377"/><circle cx="505.6" cy="265.7" r="2" fill="#AA3377"/><circle cx="527.7" cy="264.2" r="2" fill="#AA3377"/><circle cx="549.8" cy="264.9" r="2" fill="#AA3377"/><circle cx="571.9" cy="265.4" r="2" fill="#AA3377"/><circle cx="594.0" cy="265.3" r="2" fill="#AA3377"/><circle cx="616.0" cy="266.6" r="2" fill="#AA3377"/><circle cx="638.1" cy="266.3" r="2" fill="#AA3377"/><circle cx="660.2" cy="266.4" r="2" fill="#AA3377"/><circle cx="682.3" cy="266.6" r="2" fill="#AA3377"/><circle cx="704.4" cy="265.1" r="2" fill="#AA3377"/><circle cx="726.4" cy="265.5" r="2" fill="#AA3377"/><circle cx="748.5" cy="264.1" r="2" fill="#AA3377"/><circle cx="770.6" cy="266.0" r="2" fill="#AA3377"/><circle cx="792.7" cy="264.7" r="2" fill="#AA3377"/><circle cx="814.8" cy="267.0" r="2" fill="#AA3377"/><circle cx="836.9" cy="265.0" r="2" fill="#AA3377"/><circle cx="858.9" cy="265.6" r="2" fill="#AA3377"/><circle cx="881.0" cy="264.7" r="2" fill="#AA3377"/><circle cx="903.1" cy="266.4" r="2" fill="#AA3377"/><circle cx="925.2" cy="265.1" r="2" fill="#AA3377"/><circle cx="947.3" cy="265.8" r="2" fill="#AA3377"/><circle cx="969.3" cy="259.3" r="2" fill="#AA3377"/><circle cx="991.4" cy="258.9" r="2" fill="#AA3377"/><circle cx="1013.5" cy="260.7" r="2" fill="#AA3377"/><circle cx="1035.6" cy="260.0" r="2" fill="#AA3377"/><circle cx="1057.7" cy="260.6" r="2" fill="#AA3377"/><circle cx="1079.8" cy="260.0" r="2" fill="#AA3377"/><circle cx="1101.8" cy="260.0" r="2" fill="#AA3377"/><circle cx="1123.9" cy="260.3" r="2" fill="#AA3377"/><circle cx="1146.0" cy="257.9" r="2" fill="#AA3377"/><rect x="1156" y="109" width="10" height="10" fill="#AA3377"/><text x="1170" y="118" font-size="10" fill="#444">dense-50</text><path d="M64.0,299.3 L86.1,299.2 L108.2,299.3 L130.2,299.2 L152.3,299.2 L174.4,299.2 L196.5,299.2 L218.6,299.2 L240.7,299.3 L262.7,299.4 L284.8,299.4 L306.9,298.5 L329.0,298.4 L351.1,298.7 L373.1,299.4 L395.2,298.5 L417.3,298.8 L439.4,299.2 L461.5,299.0 L483.6,299.5 L505.6,299.6 L527.7,299.1 L549.8,299.4 L571.9,299.6 L594.0,299.4 L616.0,299.5 L638.1,299.7 L660.2,299.7 L682.3,299.7 L704.4,299.3 L726.4,299.4 L748.5,299.2 L770.6,299.6 L792.7,299.3 L814.8,299.5 L836.9,299.2 L858.9,299.8 L881.0,299.5 L903.1,299.7 L925.2,299.5 L947.3,299.2 L969.3,299.0 L991.4,298.3 L1013.5,299.1 L1035.6,299.0 L1057.7,299.1 L1079.8,299.1 L1101.8,299.0 L1123.9,299.5 L1146.0,298.5" fill="none" stroke="#BBBBBB" stroke-width="1.6"/><circle cx="64.0" cy="299.3" r="2" fill="#BBBBBB"/><circle cx="86.1" cy="299.2" r="2" fill="#BBBBBB"/><circle cx="108.2" cy="299.3" r="2" fill="#BBBBBB"/><circle cx="130.2" cy="299.2" r="2" fill="#BBBBBB"/><circle cx="152.3" cy="299.2" r="2" fill="#BBBBBB"/><circle cx="174.4" cy="299.2" r="2" fill="#BBBBBB"/><circle cx="196.5" cy="299.2" r="2" fill="#BBBBBB"/><circle cx="218.6" cy="299.2" r="2" fill="#BBBBBB"/><circle cx="240.7" cy="299.3" r="2" fill="#BBBBBB"/><circle cx="262.7" cy="299.4" r="2" fill="#BBBBBB"/><circle cx="284.8" cy="299.4" r="2" fill="#BBBBBB"/><circle cx="306.9" cy="298.5" r="2" fill="#BBBBBB"/><circle cx="329.0" cy="298.4" r="2" fill="#BBBBBB"/><circle cx="351.1" cy="298.7" r="2" fill="#BBBBBB"/><circle cx="373.1" cy="299.4" r="2" fill="#BBBBBB"/><circle cx="395.2" cy="298.5" r="2" fill="#BBBBBB"/><circle cx="417.3" cy="298.8" r="2" fill="#BBBBBB"/><circle cx="439.4" cy="299.2" r="2" fill="#BBBBBB"/><circle cx="461.5" cy="299.0" r="2" fill="#BBBBBB"/><circle cx="483.6" cy="299.5" r="2" fill="#BBBBBB"/><circle cx="505.6" cy="299.6" r="2" fill="#BBBBBB"/><circle cx="527.7" cy="299.1" r="2" fill="#BBBBBB"/><circle cx="549.8" cy="299.4" r="2" fill="#BBBBBB"/><circle cx="571.9" cy="299.6" r="2" fill="#BBBBBB"/><circle cx="594.0" cy="299.4" r="2" fill="#BBBBBB"/><circle cx="616.0" cy="299.5" r="2" fill="#BBBBBB"/><circle cx="638.1" cy="299.7" r="2" fill="#BBBBBB"/><circle cx="660.2" cy="299.7" r="2" fill="#BBBBBB"/><circle cx="682.3" cy="299.7" r="2" fill="#BBBBBB"/><circle cx="704.4" cy="299.3" r="2" fill="#BBBBBB"/><circle cx="726.4" cy="299.4" r="2" fill="#BBBBBB"/><circle cx="748.5" cy="299.2" r="2" fill="#BBBBBB"/><circle cx="770.6" cy="299.6" r="2" fill="#BBBBBB"/><circle cx="792.7" cy="299.3" r="2" fill="#BBBBBB"/><circle cx="814.8" cy="299.5" r="2" fill="#BBBBBB"/><circle cx="836.9" cy="299.2" r="2" fill="#BBBBBB"/><circle cx="858.9" cy="299.8" r="2" fill="#BBBBBB"/><circle cx="881.0" cy="299.5" r="2" fill="#BBBBBB"/><circle cx="903.1" cy="299.7" r="2" fill="#BBBBBB"/><circle cx="925.2" cy="299.5" r="2" fill="#BBBBBB"/><circle cx="947.3" cy="299.2" r="2" fill="#BBBBBB"/><circle cx="969.3" cy="299.0" r="2" fill="#BBBBBB"/><circle cx="991.4" cy="298.3" r="2" fill="#BBBBBB"/><circle cx="1013.5" cy="299.1" r="2" fill="#BBBBBB"/><circle cx="1035.6" cy="299.0" r="2" fill="#BBBBBB"/><circle cx="1057.7" cy="299.1" r="2" fill="#BBBBBB"/><circle cx="1079.8" cy="299.1" r="2" fill="#BBBBBB"/><circle cx="1101.8" cy="299.0" r="2" fill="#BBBBBB"/><circle cx="1123.9" cy="299.5" r="2" fill="#BBBBBB"/><circle cx="1146.0" cy="298.5" r="2" fill="#BBBBBB"/><rect x="1156" y="124" width="10" height="10" fill="#BBBBBB"/><text x="1170" y="133" font-size="10" fill="#444">dense-200</text><path d="M64.0,233.3 L86.1,229.1 L108.2,230.7 L130.2,231.3 L152.3,230.2 L174.4,230.3 L196.5,230.8 L218.6,229.7 L240.7,230.7 L262.7,230.4 L284.8,229.6 L306.9,227.7 L329.0,226.1 L351.1,232.1 L373.1,227.6 L395.2,227.2 L417.3,227.7 L439.4,238.9 L461.5,238.5 L483.6,243.4 L505.6,239.9 L527.7,241.9 L549.8,239.4 L571.9,240.6 L594.0,239.9 L616.0,240.3 L638.1,239.9 L660.2,240.8 L682.3,244.3 L704.4,240.5 L726.4,238.4 L748.5,240.1 L770.6,241.8 L792.7,238.5 L814.8,239.0 L836.9,242.4 L858.9,245.0 L881.0,238.5 L903.1,241.2 L925.2,240.5 L947.3,241.7 L969.3,223.5 L991.4,225.9 L1013.5,229.6 L1035.6,224.8 L1057.7,227.6 L1079.8,232.1 L1101.8,230.7 L1123.9,226.7 L1146.0,223.3" fill="none" stroke="#222255" stroke-width="1.6"/><circle cx="64.0" cy="233.3" r="2" fill="#222255"/><circle cx="86.1" cy="229.1" r="2" fill="#222255"/><circle cx="108.2" cy="230.7" r="2" fill="#222255"/><circle cx="130.2" cy="231.3" r="2" fill="#222255"/><circle cx="152.3" cy="230.2" r="2" fill="#222255"/><circle cx="174.4" cy="230.3" r="2" fill="#222255"/><circle cx="196.5" cy="230.8" r="2" fill="#222255"/><circle cx="218.6" cy="229.7" r="2" fill="#222255"/><circle cx="240.7" cy="230.7" r="2" fill="#222255"/><circle cx="262.7" cy="230.4" r="2" fill="#222255"/><circle cx="284.8" cy="229.6" r="2" fill="#222255"/><circle cx="306.9" cy="227.7" r="2" fill="#222255"/><circle cx="329.0" cy="226.1" r="2" fill="#222255"/><circle cx="351.1" cy="232.1" r="2" fill="#222255"/><circle cx="373.1" cy="227.6" r="2" fill="#222255"/><circle cx="395.2" cy="227.2" r="2" fill="#222255"/><circle cx="417.3" cy="227.7" r="2" fill="#222255"/><circle cx="439.4" cy="238.9" r="2" fill="#222255"/><circle cx="461.5" cy="238.5" r="2" fill="#222255"/><circle cx="483.6" cy="243.4" r="2" fill="#222255"/><circle cx="505.6" cy="239.9" r="2" fill="#222255"/><circle cx="527.7" cy="241.9" r="2" fill="#222255"/><circle cx="549.8" cy="239.4" r="2" fill="#222255"/><circle cx="571.9" cy="240.6" r="2" fill="#222255"/><circle cx="594.0" cy="239.9" r="2" fill="#222255"/><circle cx="616.0" cy="240.3" r="2" fill="#222255"/><circle cx="638.1" cy="239.9" r="2" fill="#222255"/><circle cx="660.2" cy="240.8" r="2" fill="#222255"/><circle cx="682.3" cy="244.3" r="2" fill="#222255"/><circle cx="704.4" cy="240.5" r="2" fill="#222255"/><circle cx="726.4" cy="238.4" r="2" fill="#222255"/><circle cx="748.5" cy="240.1" r="2" fill="#222255"/><circle cx="770.6" cy="241.8" r="2" fill="#222255"/><circle cx="792.7" cy="238.5" r="2" fill="#222255"/><circle cx="814.8" cy="239.0" r="2" fill="#222255"/><circle cx="836.9" cy="242.4" r="2" fill="#222255"/><circle cx="858.9" cy="245.0" r="2" fill="#222255"/><circle cx="881.0" cy="238.5" r="2" fill="#222255"/><circle cx="903.1" cy="241.2" r="2" fill="#222255"/><circle cx="925.2" cy="240.5" r="2" fill="#222255"/><circle cx="947.3" cy="241.7" r="2" fill="#222255"/><circle cx="969.3" cy="223.5" r="2" fill="#222255"/><circle cx="991.4" cy="225.9" r="2" fill="#222255"/><circle cx="1013.5" cy="229.6" r="2" fill="#222255"/><circle cx="1035.6" cy="224.8" r="2" fill="#222255"/><circle cx="1057.7" cy="227.6" r="2" fill="#222255"/><circle cx="1079.8" cy="232.1" r="2" fill="#222255"/><circle cx="1101.8" cy="230.7" r="2" fill="#222255"/><circle cx="1123.9" cy="226.7" r="2" fill="#222255"/><circle cx="1146.0" cy="223.3" r="2" fill="#222255"/><rect x="1156" y="139" width="10" height="10" fill="#222255"/><text x="1170" y="148" font-size="10" fill="#444">hub-50</text><path d="M64.0,286.1 L86.1,285.6 L108.2,285.3 L130.2,285.6 L152.3,285.4 L174.4,285.2 L196.5,285.6 L218.6,285.2 L240.7,285.5 L262.7,286.0 L284.8,285.6 L306.9,284.2 L329.0,284.2 L351.1,285.5 L373.1,285.2 L395.2,284.4 L417.3,284.4 L439.4,286.2 L461.5,285.6 L483.6,286.6 L505.6,286.5 L527.7,285.2 L549.8,286.4 L571.9,286.4 L594.0,286.8 L616.0,286.2 L638.1,287.1 L660.2,287.1 L682.3,287.4 L704.4,285.9 L726.4,286.2 L748.5,286.3 L770.6,287.0 L792.7,286.5 L814.8,286.8 L836.9,286.8 L858.9,287.1 L881.0,286.2 L903.1,287.6 L925.2,286.3 L947.3,287.1 L969.3,285.1 L991.4,283.8 L1013.5,285.7 L1035.6,284.9 L1057.7,285.3 L1079.8,285.3 L1101.8,285.0 L1123.9,285.0 L1146.0,283.7" fill="none" stroke="#225555" stroke-width="1.6"/><circle cx="64.0" cy="286.1" r="2" fill="#225555"/><circle cx="86.1" cy="285.6" r="2" fill="#225555"/><circle cx="108.2" cy="285.3" r="2" fill="#225555"/><circle cx="130.2" cy="285.6" r="2" fill="#225555"/><circle cx="152.3" cy="285.4" r="2" fill="#225555"/><circle cx="174.4" cy="285.2" r="2" fill="#225555"/><circle cx="196.5" cy="285.6" r="2" fill="#225555"/><circle cx="218.6" cy="285.2" r="2" fill="#225555"/><circle cx="240.7" cy="285.5" r="2" fill="#225555"/><circle cx="262.7" cy="286.0" r="2" fill="#225555"/><circle cx="284.8" cy="285.6" r="2" fill="#225555"/><circle cx="306.9" cy="284.2" r="2" fill="#225555"/><circle cx="329.0" cy="284.2" r="2" fill="#225555"/><circle cx="351.1" cy="285.5" r="2" fill="#225555"/><circle cx="373.1" cy="285.2" r="2" fill="#225555"/><circle cx="395.2" cy="284.4" r="2" fill="#225555"/><circle cx="417.3" cy="284.4" r="2" fill="#225555"/><circle cx="439.4" cy="286.2" r="2" fill="#225555"/><circle cx="461.5" cy="285.6" r="2" fill="#225555"/><circle cx="483.6" cy="286.6" r="2" fill="#225555"/><circle cx="505.6" cy="286.5" r="2" fill="#225555"/><circle cx="527.7" cy="285.2" r="2" fill="#225555"/><circle cx="549.8" cy="286.4" r="2" fill="#225555"/><circle cx="571.9" cy="286.4" r="2" fill="#225555"/><circle cx="594.0" cy="286.8" r="2" fill="#225555"/><circle cx="616.0" cy="286.2" r="2" fill="#225555"/><circle cx="638.1" cy="287.1" r="2" fill="#225555"/><circle cx="660.2" cy="287.1" r="2" fill="#225555"/><circle cx="682.3" cy="287.4" r="2" fill="#225555"/><circle cx="704.4" cy="285.9" r="2" fill="#225555"/><circle cx="726.4" cy="286.2" r="2" fill="#225555"/><circle cx="748.5" cy="286.3" r="2" fill="#225555"/><circle cx="770.6" cy="287.0" r="2" fill="#225555"/><circle cx="792.7" cy="286.5" r="2" fill="#225555"/><circle cx="814.8" cy="286.8" r="2" fill="#225555"/><circle cx="836.9" cy="286.8" r="2" fill="#225555"/><circle cx="858.9" cy="287.1" r="2" fill="#225555"/><circle cx="881.0" cy="286.2" r="2" fill="#225555"/><circle cx="903.1" cy="287.6" r="2" fill="#225555"/><circle cx="925.2" cy="286.3" r="2" fill="#225555"/><circle cx="947.3" cy="287.1" r="2" fill="#225555"/><circle cx="969.3" cy="285.1" r="2" fill="#225555"/><circle cx="991.4" cy="283.8" r="2" fill="#225555"/><circle cx="1013.5" cy="285.7" r="2" fill="#225555"/><circle cx="1035.6" cy="284.9" r="2" fill="#225555"/><circle cx="1057.7" cy="285.3" r="2" fill="#225555"/><circle cx="1079.8" cy="285.3" r="2" fill="#225555"/><circle cx="1101.8" cy="285.0" r="2" fill="#225555"/><circle cx="1123.9" cy="285.0" r="2" fill="#225555"/><circle cx="1146.0" cy="283.7" r="2" fill="#225555"/><rect x="1156" y="154" width="10" height="10" fill="#225555"/><text x="1170" y="163" font-size="10" fill="#444">hub-200</text><path d="M64.0,286.1 L86.1,285.6 L108.2,285.3 L130.2,285.6 L152.3,285.5 L174.4,285.2 L196.5,285.5 L218.6,285.1 L240.7,285.6 L262.7,285.9 L284.8,285.5 L306.9,284.1 L329.0,284.0 L351.1,285.3 L373.1,285.2 L395.2,284.0 L417.3,284.3 L439.4,286.1 L461.5,285.5 L483.6,286.6 L505.6,286.6 L527.7,285.4 L549.8,286.4 L571.9,286.6 L594.0,286.8 L616.0,286.3 L638.1,286.9 L660.2,287.2 L682.3,287.5 L704.4,286.1 L726.4,286.2 L748.5,286.5 L770.6,287.4 L792.7,286.5 L814.8,286.6 L836.9,286.3 L858.9,286.8 L881.0,286.2 L903.1,287.2 L925.2,286.3 L947.3,286.8 L969.3,285.1 L991.4,283.8 L1013.5,285.8 L1035.6,285.1 L1057.7,285.3 L1079.8,285.4 L1101.8,285.0 L1123.9,284.8 L1146.0,283.7" fill="none" stroke="#552222" stroke-width="1.6"/><circle cx="64.0" cy="286.1" r="2" fill="#552222"/><circle cx="86.1" cy="285.6" r="2" fill="#552222"/><circle cx="108.2" cy="285.3" r="2" fill="#552222"/><circle cx="130.2" cy="285.6" r="2" fill="#552222"/><circle cx="152.3" cy="285.5" r="2" fill="#552222"/><circle cx="174.4" cy="285.2" r="2" fill="#552222"/><circle cx="196.5" cy="285.5" r="2" fill="#552222"/><circle cx="218.6" cy="285.1" r="2" fill="#552222"/><circle cx="240.7" cy="285.6" r="2" fill="#552222"/><circle cx="262.7" cy="285.9" r="2" fill="#552222"/><circle cx="284.8" cy="285.5" r="2" fill="#552222"/><circle cx="306.9" cy="284.1" r="2" fill="#552222"/><circle cx="329.0" cy="284.0" r="2" fill="#552222"/><circle cx="351.1" cy="285.3" r="2" fill="#552222"/><circle cx="373.1" cy="285.2" r="2" fill="#552222"/><circle cx="395.2" cy="284.0" r="2" fill="#552222"/><circle cx="417.3" cy="284.3" r="2" fill="#552222"/><circle cx="439.4" cy="286.1" r="2" fill="#552222"/><circle cx="461.5" cy="285.5" r="2" fill="#552222"/><circle cx="483.6" cy="286.6" r="2" fill="#552222"/><circle cx="505.6" cy="286.6" r="2" fill="#552222"/><circle cx="527.7" cy="285.4" r="2" fill="#552222"/><circle cx="549.8" cy="286.4" r="2" fill="#552222"/><circle cx="571.9" cy="286.6" r="2" fill="#552222"/><circle cx="594.0" cy="286.8" r="2" fill="#552222"/><circle cx="616.0" cy="286.3" r="2" fill="#552222"/><circle cx="638.1" cy="286.9" r="2" fill="#552222"/><circle cx="660.2" cy="287.2" r="2" fill="#552222"/><circle cx="682.3" cy="287.5" r="2" fill="#552222"/><circle cx="704.4" cy="286.1" r="2" fill="#552222"/><circle cx="726.4" cy="286.2" r="2" fill="#552222"/><circle cx="748.5" cy="286.5" r="2" fill="#552222"/><circle cx="770.6" cy="287.4" r="2" fill="#552222"/><circle cx="792.7" cy="286.5" r="2" fill="#552222"/><circle cx="814.8" cy="286.6" r="2" fill="#552222"/><circle cx="836.9" cy="286.3" r="2" fill="#552222"/><circle cx="858.9" cy="286.8" r="2" fill="#552222"/><circle cx="881.0" cy="286.2" r="2" fill="#552222"/><circle cx="903.1" cy="287.2" r="2" fill="#552222"/><circle cx="925.2" cy="286.3" r="2" fill="#552222"/><circle cx="947.3" cy="286.8" r="2" fill="#552222"/><circle cx="969.3" cy="285.1" r="2" fill="#552222"/><circle cx="991.4" cy="283.8" r="2" fill="#552222"/><circle cx="1013.5" cy="285.8" r="2" fill="#552222"/><circle cx="1035.6" cy="285.1" r="2" fill="#552222"/><circle cx="1057.7" cy="285.3" r="2" fill="#552222"/><circle cx="1079.8" cy="285.4" r="2" fill="#552222"/><circle cx="1101.8" cy="285.0" r="2" fill="#552222"/><circle cx="1123.9" cy="284.8" r="2" fill="#552222"/><circle cx="1146.0" cy="283.7" r="2" fill="#552222"/><rect x="1156" y="169" width="10" height="10" fill="#552222"/><text x="1170" y="178" font-size="10" fill="#444">hooked-200</text></svg>