<svg width="1296" height="372" xmlns="http://www.w3.org/2000/svg"><rect width="1296" height="372" fill="#ffffff"/><text x="64" y="20" font-size="15" font-weight="bold" fill="#333">package size — bytes (linear scale, last 50) by PR / release, c8g.medium<tspan fill-opacity="0.5"> (lower is better)</tspan></text><line x1="86.1" y1="34" x2="86.1" y2="324" stroke="#e8e8e8"/><line x1="108.2" y1="34" x2="108.2" y2="324" stroke="#e8e8e8"/><line x1="130.2" y1="34" x2="130.2" y2="324" stroke="#e8e8e8"/><line x1="152.3" y1="34" x2="152.3" y2="324" stroke="#e8e8e8"/><line x1="196.5" y1="34" x2="196.5" y2="324" stroke="#e8e8e8"/><line x1="218.6" y1="34" x2="218.6" y2="324" stroke="#e8e8e8"/><line x1="240.7" y1="34" x2="240.7" y2="324" stroke="#e8e8e8"/><line x1="262.7" y1="34" x2="262.7" y2="324" stroke="#e8e8e8"/><line x1="306.9" y1="34" x2="306.9" y2="324" stroke="#e8e8e8"/><line x1="329.0" y1="34" x2="329.0" y2="324" stroke="#e8e8e8"/><line x1="351.1" y1="34" x2="351.1" y2="324" stroke="#e8e8e8"/><line x1="373.1" y1="34" x2="373.1" y2="324" stroke="#e8e8e8"/><line x1="417.3" y1="34" x2="417.3" y2="324" stroke="#e8e8e8"/><line x1="439.4" y1="34" x2="439.4" y2="324" stroke="#e8e8e8"/><line x1="461.5" y1="34" x2="461.5" y2="324" stroke="#e8e8e8"/><line x1="483.6" y1="34" x2="483.6" y2="324" stroke="#e8e8e8"/><line x1="527.7" y1="34" x2="527.7" y2="324" stroke="#e8e8e8"/><line x1="549.8" y1="34" x2="549.8" y2="324" stroke="#e8e8e8"/><line x1="571.9" y1="34" x2="571.9" y2="324" stroke="#e8e8e8"/><line x1="594.0" y1="34" x2="594.0" y2="324" stroke="#e8e8e8"/><line x1="638.1" y1="34" x2="638.1" y2="324" stroke="#e8e8e8"/><line x1="660.2" y1="34" x2="660.2" y2="324" stroke="#e8e8e8"/><line x1="682.3" y1="34" x2="682.3" y2="324" stroke="#e8e8e8"/><line x1="704.4" y1="34" x2="704.4" y2="324" stroke="#e8e8e8"/><line x1="748.5" y1="34" x2="748.5" y2="324" stroke="#e8e8e8"/><line x1="770.6" y1="34" x2="770.6" y2="324" stroke="#e8e8e8"/><line x1="792.7" y1="34" x2="792.7" y2="324" stroke="#e8e8e8"/><line x1="814.8" y1="34" x2="814.8" y2="324" stroke="#e8e8e8"/><line x1="858.9" y1="34" x2="858.9" y2="324" stroke="#e8e8e8"/><line x1="881.0" y1="34" x2="881.0" y2="324" stroke="#e8e8e8"/><line x1="903.1" y1="34" x2="903.1" y2="324" stroke="#e8e8e8"/><line x1="925.2" y1="34" x2="925.2" y2="324" stroke="#e8e8e8"/><line x1="969.3" y1="34" x2="969.3" y2="324" stroke="#e8e8e8"/><line x1="991.4" y1="34" x2="991.4" y2="324" stroke="#e8e8e8"/><line x1="1013.5" y1="34" x2="1013.5" y2="324" stroke="#e8e8e8"/><line x1="1035.6" y1="34" x2="1035.6" y2="324" stroke="#e8e8e8"/><line x1="1079.8" y1="34" x2="1079.8" y2="324" stroke="#e8e8e8"/><line x1="1101.8" y1="34" x2="1101.8" y2="324" stroke="#e8e8e8"/><line x1="1123.9" y1="34" x2="1123.9" y2="324" stroke="#e8e8e8"/><line x1="1146.0" y1="34" x2="1146.0" y2="324" stroke="#e8e8e8"/><line x1="64.0" y1="34" x2="64.0" y2="324" stroke="#d0d0d0"/><line x1="174.4" y1="34" x2="174.4" y2="324" stroke="#d0d0d0"/><line x1="284.8" y1="34" x2="284.8" y2="324" stroke="#d0d0d0"/><line x1="395.2" y1="34" x2="395.2" y2="324" stroke="#d0d0d0"/><line x1="505.6" y1="34" x2="505.6" y2="324" stroke="#d0d0d0"/><line x1="616.0" y1="34" x2="616.0" y2="324" stroke="#d0d0d0"/><line x1="726.4" y1="34" x2="726.4" y2="324" stroke="#d0d0d0"/><line x1="836.9" y1="34" x2="836.9" y2="324" stroke="#d0d0d0"/><line x1="947.3" y1="34" x2="947.3" y2="324" stroke="#d0d0d0"/><line x1="1057.7" y1="34" x2="1057.7" y2="324" stroke="#d0d0d0"/><line x1="64" y1="324.0" x2="1146" y2="324.0" stroke="#b0b0b0"/><text x="58" y="328.0" font-size="10" text-anchor="end" fill="#888">1.4M</text><line x1="64" y1="266.0" x2="1146" y2="266.0" stroke="#b0b0b0"/><text x="58" y="270.0" font-size="10" text-anchor="end" fill="#888">1.4M</text><line x1="64" y1="208.0" x2="1146" y2="208.0" stroke="#b0b0b0"/><text x="58" y="212.0" font-size="10" text-anchor="end" fill="#888">1.4M</text><line x1="64" y1="150.0" x2="1146" y2="150.0" stroke="#b0b0b0"/><text x="58" y="154.0" font-size="10" text-anchor="end" fill="#888">1.5M</text><line x1="64" y1="92.0" x2="1146" y2="92.0" stroke="#b0b0b0"/><text x="58" y="96.0" font-size="10" text-anchor="end" fill="#888">1.5M</text><line x1="64" y1="34.0" x2="1146" y2="34.0" stroke="#b0b0b0"/><text x="58" y="38.0" font-size="10" text-anchor="end" fill="#888">1.5M</text><text x="64.0" y="327.2" font-size="4" text-anchor="end" fill="#aa4400" transform="rotate(-80 64.0 327.2)">v5.157.18</text><text x="86.1" y="327.2" font-size="4" text-anchor="end" fill="#aa4400" transform="rotate(-80 86.1 327.2)">v5.158.0</text><text x="108.2" y="327.2" font-size="4" text-anchor="end" fill="#d6a382" transform="rotate(-80 108.2 327.2)">v5.158.1</text><text x="130.2" y="327.2" font-size="4" text-anchor="end" fill="#d6a382" transform="rotate(-80 130.2 327.2)">v5.158.2</text><text x="152.3" y="327.2" font-size="4" text-anchor="end" fill="#aa4400" transform="rotate(-80 152.3 327.2)">v5.159.0</text><text x="174.4" y="327.2" font-size="4" text-anchor="end" fill="#d6a382" transform="rotate(-80 174.4 327.2)">v5.159.1</text><text x="196.5" y="327.2" font-size="4" text-anchor="end" fill="#d6a382" transform="rotate(-80 196.5 327.2)">v5.159.2</text><text x="218.6" y="327.2" font-size="4" text-anchor="end" fill="#aa4400" transform="rotate(-80 218.6 327.2)">v5.160.0</text><text x="240.7" y="327.2" font-size="4" text-anchor="end" fill="#aa4400" transform="rotate(-80 240.7 327.2)">v5.161.0</text><text x="262.7" y="327.2" font-size="4" text-anchor="end" fill="#aa4400" transform="rotate(-80 262.7 327.2)">v5.162.0</text><text x="284.8" y="327.2" font-size="4" text-anchor="end" fill="#d6a382" transform="rotate(-80 284.8 327.2)">v5.162.1</text><text x="306.9" y="327.2" font-size="4" text-anchor="end" fill="#d6a382" transform="rotate(-80 306.9 327.2)">v5.162.2</text><text x="329.0" y="327.2" font-size="4" text-anchor="end" fill="#d6a382" transform="rotate(-80 329.0 327.2)">v5.162.3</text><text x="351.1" y="327.2" font-size="4" text-anchor="end" fill="#d6a382" transform="rotate(-80 351.1 327.2)">v5.162.4</text><text x="373.1" y="327.2" font-size="4" text-anchor="end" fill="#d6a382" transform="rotate(-80 373.1 327.2)">v5.162.5</text><text x="395.2" y="327.2" font-size="4" text-anchor="end" fill="#d6a382" transform="rotate(-80 395.2 327.2)">v5.162.6</text><text x="417.3" y="327.2" font-size="4" text-anchor="end" fill="#d6a382" transform="rotate(-80 417.3 327.2)">v5.162.7</text><text x="439.4" y="327.2" font-size="4" text-anchor="end" fill="#d6a382" transform="rotate(-80 439.4 327.2)">v5.162.8</text><text x="461.5" y="327.2" font-size="4" text-anchor="end" fill="#d6a382" transform="rotate(-80 461.5 327.2)">v5.162.9</text><text x="483.6" y="327.2" font-size="4" text-anchor="end" fill="#d6a382" transform="rotate(-80 483.6 327.2)">v5.162.10</text><text x="505.6" y="327.2" font-size="4" text-anchor="end" fill="#d6a382" transform="rotate(-80 505.6 327.2)">v5.162.11</text><text x="527.7" y="327.2" font-size="4" text-anchor="end" fill="#d6a382" transform="rotate(-80 527.7 327.2)">v5.162.12</text><text x="549.8" y="327.2" font-size="4" text-anchor="end" fill="#d6a382" transform="rotate(-80 549.8 327.2)">v5.162.13</text><text x="571.9" y="327.2" font-size="4" text-anchor="end" fill="#d6a382" transform="rotate(-80 571.9 327.2)">v5.162.15</text><text x="594.0" y="327.2" font-size="4" text-anchor="end" fill="#d6a382" transform="rotate(-80 594.0 327.2)">v5.162.16</text><text x="616.0" y="327.2" font-size="4" text-anchor="end" fill="#d6a382" transform="rotate(-80 616.0 327.2)">v5.162.17</text><text x="638.1" y="327.2" font-size="4" text-anchor="end" fill="#d6a382" transform="rotate(-80 638.1 327.2)">v5.162.18</text><text x="660.2" y="327.2" font-size="4" text-anchor="end" fill="#d6a382" transform="rotate(-80 660.2 327.2)">v5.162.19</text><text x="682.3" y="327.2" font-size="4" text-anchor="end" fill="#d6a382" transform="rotate(-80 682.3 327.2)">v5.162.20</text><text x="704.4" y="327.2" font-size="4" text-anchor="end" fill="#d6a382" transform="rotate(-80 704.4 327.2)">v5.162.21</text><text x="726.4" y="327.2" font-size="4" text-anchor="end" fill="#d6a382" transform="rotate(-80 726.4 327.2)">v5.162.22</text><text x="748.5" y="327.2" font-size="4" text-anchor="end" fill="#d6a382" transform="rotate(-80 748.5 327.2)">v5.162.23</text><text x="770.6" y="327.2" font-size="4" text-anchor="end" fill="#d6a382" transform="rotate(-80 770.6 327.2)">v5.162.24</text><text x="792.7" y="327.2" font-size="4" text-anchor="end" fill="#d6a382" transform="rotate(-80 792.7 327.2)">v5.162.25</text><text x="814.8" y="327.2" font-size="4" text-anchor="end" fill="#d6a382" transform="rotate(-80 814.8 327.2)">v5.162.26</text><text x="836.9" y="327.2" font-size="4" text-anchor="end" fill="#d6a382" transform="rotate(-80 836.9 327.2)">v5.162.27</text><text x="858.9" y="327.2" font-size="4" text-anchor="end" fill="#d6a382" transform="rotate(-80 858.9 327.2)">v5.162.28</text><text x="881.0" y="327.2" font-size="4" text-anchor="end" fill="#d6a382" transform="rotate(-80 881.0 327.2)">v5.162.29</text><text x="903.1" y="327.2" font-size="4" text-anchor="end" fill="#d6a382" transform="rotate(-80 903.1 327.2)">v5.162.30</text><text x="925.2" y="327.2" font-size="4" text-anchor="end" fill="#d6a382" transform="rotate(-80 925.2 327.2)">v5.162.31</text><text x="947.3" y="327.2" font-size="4" text-anchor="end" fill="#d6a382" transform="rotate(-80 947.3 327.2)">v5.162.32</text><text x="969.3" y="327.2" font-size="4" text-anchor="end" fill="#d6a382" transform="rotate(-80 969.3 327.2)">v5.162.33</text><text x="991.4" y="327.2" font-size="4" text-anchor="end" fill="#d6a382" transform="rotate(-80 991.4 327.2)">v5.162.34</text><text x="1013.5" y="327.2" font-size="4" text-anchor="end" fill="#d6a382" transform="rotate(-80 1013.5 327.2)">v5.162.35</text><text x="1035.6" y="327.2" font-size="4" text-anchor="end" fill="#aa4400" transform="rotate(-80 1035.6 327.2)">v5.163.0</text><text x="1057.7" y="327.2" font-size="4" text-anchor="end" fill="#d6a382" transform="rotate(-80 1057.7 327.2)">v5.163.1</text><text x="1079.8" y="327.2" font-size="4" text-anchor="end" fill="#d6a382" transform="rotate(-80 1079.8 327.2)">v5.163.2</text><text x="1101.8" y="327.2" font-size="4" text-anchor="end" fill="#d6a382" transform="rotate(-80 1101.8 327.2)">v5.163.3</text><text x="1123.9" y="327.2" font-size="4" text-anchor="end" fill="#d6a382" transform="rotate(-80 1123.9 327.2)">v5.163.4</text><text x="1146.0" y="327.2" font-size="4" text-anchor="end" fill="#773000" transform="rotate(-80 1146.0 327.2)">v6.0.0-alpha.12</text><path d="M64.0,299.8 L86.1,299.6 L108.2,299.5 L130.2,299.5 L152.3,289.4 L174.4,289.4 L196.5,289.4 L218.6,289.4 L240.7,289.4 L262.7,289.4 L284.8,289.4 L306.9,289.4 L329.0,289.4 L351.1,289.4 L373.1,289.4 L395.2,283.8 L417.3,281.6 L439.4,228.4 L461.5,201.0 L483.6,201.0 L505.6,197.4 L527.7,196.4 L549.8,195.5 L571.9,195.5 L594.0,195.5 L616.0,195.5 L638.1,195.5 L660.2,195.5 L682.3,195.1 L704.4,195.1 L726.4,192.7 L748.5,191.9 L770.6,167.9 L792.7,165.7 L814.8,165.7 L836.9,165.0 L858.9,162.7 L881.0,150.5 L903.1,150.5 L925.2,150.5 L947.3,150.5 L969.3,172.7 L991.4,172.7 L1013.5,190.0 L1035.6,190.0 L1057.7,190.0 L1079.8,190.0 L1101.8,190.0 L1123.9,190.0 L1146.0,58.2" fill="none" stroke="#4477AA" stroke-width="1.6"/><circle cx="64.0" cy="299.8" r="2" fill="#4477AA"/><circle cx="86.1" cy="299.6" r="2" fill="#4477AA"/><circle cx="108.2" cy="299.5" r="2" fill="#4477AA"/><circle cx="130.2" cy="299.5" r="2" fill="#4477AA"/><circle cx="152.3" cy="289.4" r="2" fill="#4477AA"/><circle cx="174.4" cy="289.4" r="2" fill="#4477AA"/><circle cx="196.5" cy="289.4" r="2" fill="#4477AA"/><circle cx="218.6" cy="289.4" r="2" fill="#4477AA"/><circle cx="240.7" cy="289.4" r="2" fill="#4477AA"/><circle cx="262.7" cy="289.4" r="2" fill="#4477AA"/><circle cx="284.8" cy="289.4" r="2" fill="#4477AA"/><circle cx="306.9" cy="289.4" r="2" fill="#4477AA"/><circle cx="329.0" cy="289.4" r="2" fill="#4477AA"/><circle cx="351.1" cy="289.4" r="2" fill="#4477AA"/><circle cx="373.1" cy="289.4" r="2" fill="#4477AA"/><circle cx="395.2" cy="283.8" r="2" fill="#4477AA"/><circle cx="417.3" cy="281.6" r="2" fill="#4477AA"/><circle cx="439.4" cy="228.4" r="2" fill="#4477AA"/><circle cx="461.5" cy="201.0" r="2" fill="#4477AA"/><circle cx="483.6" cy="201.0" r="2" fill="#4477AA"/><circle cx="505.6" cy="197.4" r="2" fill="#4477AA"/><circle cx="527.7" cy="196.4" r="2" fill="#4477AA"/><circle cx="549.8" cy="195.5" r="2" fill="#4477AA"/><circle cx="571.9" cy="195.5" r="2" fill="#4477AA"/><circle cx="594.0" cy="195.5" r="2" fill="#4477AA"/><circle cx="616.0" cy="195.5" r="2" fill="#4477AA"/><circle cx="638.1" cy="195.5" r="2" fill="#4477AA"/><circle cx="660.2" cy="195.5" r="2" fill="#4477AA"/><circle cx="682.3" cy="195.1" r="2" fill="#4477AA"/><circle cx="704.4" cy="195.1" r="2" fill="#4477AA"/><circle cx="726.4" cy="192.7" r="2" fill="#4477AA"/><circle cx="748.5" cy="191.9" r="2" fill="#4477AA"/><circle cx="770.6" cy="167.9" r="2" fill="#4477AA"/><circle cx="792.7" cy="165.7" r="2" fill="#4477AA"/><circle cx="814.8" cy="165.7" r="2" fill="#4477AA"/><circle cx="836.9" cy="165.0" r="2" fill="#4477AA"/><circle cx="858.9" cy="162.7" r="2" fill="#4477AA"/><circle cx="881.0" cy="150.5" r="2" fill="#4477AA"/><circle cx="903.1" cy="150.5" r="2" fill="#4477AA"/><circle cx="925.2" cy="150.5" r="2" fill="#4477AA"/><circle cx="947.3" cy="150.5" r="2" fill="#4477AA"/><circle cx="969.3" cy="172.7" r="2" fill="#4477AA"/><circle cx="991.4" cy="172.7" r="2" fill="#4477AA"/><circle cx="1013.5" cy="190.0" r="2" fill="#4477AA"/><circle cx="1035.6" cy="190.0" r="2" fill="#4477AA"/><circle cx="1057.7" cy="190.0" r="2" fill="#4477AA"/><circle cx="1079.8" cy="190.0" r="2" fill="#4477AA"/><circle cx="1101.8" cy="190.0" r="2" fill="#4477AA"/><circle cx="1123.9" cy="190.0" r="2" fill="#4477AA"/><circle cx="1146.0" cy="58.2" r="2" fill="#4477AA"/><rect x="1156" y="34" width="10" height="10" fill="#4477AA"/><text x="1170" y="43" font-size="10" fill="#444">package (raw, all dist)</text></svg>