<svg width="1296" height="372" xmlns="http://www.w3.org/2000/svg"><rect width="1296" height="372" fill="#ffffff"/><text x="64" y="20" font-size="15" font-weight="bold" fill="#333">probable_action_exits() — ops/sec (linear scale, last 50) by PR / release, c8g.medium<tspan fill-opacity="0.5"> (higher is better)</tspan></text><line x1="86.1" y1="34" x2="86.1" y2="324" stroke="#e8e8e8"/><line x1="108.2" y1="34" x2="108.2" y2="324" stroke="#e8e8e8"/><line x1="130.2" y1="34" x2="130.2" y2="324" stroke="#e8e8e8"/><line x1="152.3" y1="34" x2="152.3" y2="324" stroke="#e8e8e8"/><line x1="196.5" y1="34" x2="196.5" y2="324" stroke="#e8e8e8"/><line x1="218.6" y1="34" x2="218.6" y2="324" stroke="#e8e8e8"/><line x1="240.7" y1="34" x2="240.7" y2="324" stroke="#e8e8e8"/><line x1="262.7" y1="34" x2="262.7" y2="324" stroke="#e8e8e8"/><line x1="306.9" y1="34" x2="306.9" y2="324" stroke="#e8e8e8"/><line x1="329.0" y1="34" x2="329.0" y2="324" stroke="#e8e8e8"/><line x1="351.1" y1="34" x2="351.1" y2="324" stroke="#e8e8e8"/><line x1="373.1" y1="34" x2="373.1" y2="324" stroke="#e8e8e8"/><line x1="417.3" y1="34" x2="417.3" y2="324" stroke="#e8e8e8"/><line x1="439.4" y1="34" x2="439.4" y2="324" stroke="#e8e8e8"/><line x1="461.5" y1="34" x2="461.5" y2="324" stroke="#e8e8e8"/><line x1="483.6" y1="34" x2="483.6" y2="324" stroke="#e8e8e8"/><line x1="527.7" y1="34" x2="527.7" y2="324" stroke="#e8e8e8"/><line x1="549.8" y1="34" x2="549.8" y2="324" stroke="#e8e8e8"/><line x1="571.9" y1="34" x2="571.9" y2="324" stroke="#e8e8e8"/><line x1="594.0" y1="34" x2="594.0" y2="324" stroke="#e8e8e8"/><line x1="638.1" y1="34" x2="638.1" y2="324" stroke="#e8e8e8"/><line x1="660.2" y1="34" x2="660.2" y2="324" stroke="#e8e8e8"/><line x1="682.3" y1="34" x2="682.3" y2="324" stroke="#e8e8e8"/><line x1="704.4" y1="34" x2="704.4" y2="324" stroke="#e8e8e8"/><line x1="748.5" y1="34" x2="748.5" y2="324" stroke="#e8e8e8"/><line x1="770.6" y1="34" x2="770.6" y2="324" stroke="#e8e8e8"/><line x1="792.7" y1="34" x2="792.7" y2="324" stroke="#e8e8e8"/><line x1="814.8" y1="34" x2="814.8" y2="324" stroke="#e8e8e8"/><line x1="858.9" y1="34" x2="858.9" y2="324" stroke="#e8e8e8"/><line x1="881.0" y1="34" x2="881.0" y2="324" stroke="#e8e8e8"/><line x1="903.1" y1="34" x2="903.1" y2="324" stroke="#e8e8e8"/><line x1="925.2" y1="34" x2="925.2" y2="324" stroke="#e8e8e8"/><line x1="969.3" y1="34" x2="969.3" y2="324" stroke="#e8e8e8"/><line x1="991.4" y1="34" x2="991.4" y2="324" stroke="#e8e8e8"/><line x1="1013.5" y1="34" x2="1013.5" y2="324" stroke="#e8e8e8"/><line x1="1035.6" y1="34" x2="1035.6" y2="324" stroke="#e8e8e8"/><line x1="1079.8" y1="34" x2="1079.8" y2="324" stroke="#e8e8e8"/><line x1="1101.8" y1="34" x2="1101.8" y2="324" stroke="#e8e8e8"/><line x1="1123.9" y1="34" x2="1123.9" y2="324" stroke="#e8e8e8"/><line x1="1146.0" y1="34" x2="1146.0" y2="324" stroke="#e8e8e8"/><line x1="64.0" y1="34" x2="64.0" y2="324" stroke="#d0d0d0"/><line x1="174.4" y1="34" x2="174.4" y2="324" stroke="#d0d0d0"/><line x1="284.8" y1="34" x2="284.8" y2="324" stroke="#d0d0d0"/><line x1="395.2" y1="34" x2="395.2" y2="324" stroke="#d0d0d0"/><line x1="505.6" y1="34" x2="505.6" y2="324" stroke="#d0d0d0"/><line x1="616.0" y1="34" x2="616.0" y2="324" stroke="#d0d0d0"/><line x1="726.4" y1="34" x2="726.4" y2="324" stroke="#d0d0d0"/><line x1="836.9" y1="34" x2="836.9" y2="324" stroke="#d0d0d0"/><line x1="947.3" y1="34" x2="947.3" y2="324" stroke="#d0d0d0"/><line x1="1057.7" y1="34" x2="1057.7" y2="324" stroke="#d0d0d0"/><line x1="64" y1="324.0" x2="1146" y2="324.0" stroke="#b0b0b0"/><text x="58" y="328.0" font-size="10" text-anchor="end" fill="#888">-17.3k</text><line x1="64" y1="266.0" x2="1146" y2="266.0" stroke="#b0b0b0"/><text x="58" y="270.0" font-size="10" text-anchor="end" fill="#888">27.2k</text><line x1="64" y1="208.0" x2="1146" y2="208.0" stroke="#b0b0b0"/><text x="58" y="212.0" font-size="10" text-anchor="end" fill="#888">71.8k</text><line x1="64" y1="150.0" x2="1146" y2="150.0" stroke="#b0b0b0"/><text x="58" y="154.0" font-size="10" text-anchor="end" fill="#888">116.3k</text><line x1="64" y1="92.0" x2="1146" y2="92.0" stroke="#b0b0b0"/><text x="58" y="96.0" font-size="10" text-anchor="end" fill="#888">160.9k</text><line x1="64" y1="34.0" x2="1146" y2="34.0" stroke="#b0b0b0"/><text x="58" y="38.0" font-size="10" text-anchor="end" fill="#888">205.4k</text><text x="64.0" y="327.2" font-size="4" text-anchor="end" fill="#aa4400" transform="rotate(-80 64.0 327.2)">v5.157.18</text><text x="86.1" y="327.2" font-size="4" text-anchor="end" fill="#aa4400" transform="rotate(-80 86.1 327.2)">v5.158.0</text><text x="108.2" y="327.2" font-size="4" text-anchor="end" fill="#d6a382" transform="rotate(-80 108.2 327.2)">v5.158.1</text><text x="130.2" y="327.2" font-size="4" text-anchor="end" fill="#d6a382" transform="rotate(-80 130.2 327.2)">v5.158.2</text><text x="152.3" y="327.2" font-size="4" text-anchor="end" fill="#aa4400" transform="rotate(-80 152.3 327.2)">v5.159.0</text><text x="174.4" y="327.2" font-size="4" text-anchor="end" fill="#d6a382" transform="rotate(-80 174.4 327.2)">v5.159.1</text><text x="196.5" y="327.2" font-size="4" text-anchor="end" fill="#d6a382" transform="rotate(-80 196.5 327.2)">v5.159.2</text><text x="218.6" y="327.2" font-size="4" text-anchor="end" fill="#aa4400" transform="rotate(-80 218.6 327.2)">v5.160.0</text><text x="240.7" y="327.2" font-size="4" text-anchor="end" fill="#aa4400" transform="rotate(-80 240.7 327.2)">v5.161.0</text><text x="262.7" y="327.2" font-size="4" text-anchor="end" fill="#aa4400" transform="rotate(-80 262.7 327.2)">v5.162.0</text><text x="284.8" y="327.2" font-size="4" text-anchor="end" fill="#d6a382" transform="rotate(-80 284.8 327.2)">v5.162.1</text><text x="306.9" y="327.2" font-size="4" text-anchor="end" fill="#d6a382" transform="rotate(-80 306.9 327.2)">v5.162.2</text><text x="329.0" y="327.2" font-size="4" text-anchor="end" fill="#d6a382" transform="rotate(-80 329.0 327.2)">v5.162.3</text><text x="351.1" y="327.2" font-size="4" text-anchor="end" fill="#d6a382" transform="rotate(-80 351.1 327.2)">v5.162.4</text><text x="373.1" y="327.2" font-size="4" text-anchor="end" fill="#d6a382" transform="rotate(-80 373.1 327.2)">v5.162.5</text><text x="395.2" y="327.2" font-size="4" text-anchor="end" fill="#d6a382" transform="rotate(-80 395.2 327.2)">v5.162.6</text><text x="417.3" y="327.2" font-size="4" text-anchor="end" fill="#d6a382" transform="rotate(-80 417.3 327.2)">v5.162.7</text><text x="439.4" y="327.2" font-size="4" text-anchor="end" fill="#d6a382" transform="rotate(-80 439.4 327.2)">v5.162.8</text><text x="461.5" y="327.2" font-size="4" text-anchor="end" fill="#d6a382" transform="rotate(-80 461.5 327.2)">v5.162.9</text><text x="483.6" y="327.2" font-size="4" text-anchor="end" fill="#d6a382" transform="rotate(-80 483.6 327.2)">v5.162.10</text><text x="505.6" y="327.2" font-size="4" text-anchor="end" fill="#d6a382" transform="rotate(-80 505.6 327.2)">v5.162.11</text><text x="527.7" y="327.2" font-size="4" text-anchor="end" fill="#d6a382" transform="rotate(-80 527.7 327.2)">v5.162.12</text><text x="549.8" y="327.2" font-size="4" text-anchor="end" fill="#d6a382" transform="rotate(-80 549.8 327.2)">v5.162.13</text><text x="571.9" y="327.2" font-size="4" text-anchor="end" fill="#d6a382" transform="rotate(-80 571.9 327.2)">v5.162.15</text><text x="594.0" y="327.2" font-size="4" text-anchor="end" fill="#d6a382" transform="rotate(-80 594.0 327.2)">v5.162.16</text><text x="616.0" y="327.2" font-size="4" text-anchor="end" fill="#d6a382" transform="rotate(-80 616.0 327.2)">v5.162.17</text><text x="638.1" y="327.2" font-size="4" text-anchor="end" fill="#d6a382" transform="rotate(-80 638.1 327.2)">v5.162.18</text><text x="660.2" y="327.2" font-size="4" text-anchor="end" fill="#d6a382" transform="rotate(-80 660.2 327.2)">v5.162.19</text><text x="682.3" y="327.2" font-size="4" text-anchor="end" fill="#d6a382" transform="rotate(-80 682.3 327.2)">v5.162.20</text><text x="704.4" y="327.2" font-size="4" text-anchor="end" fill="#d6a382" transform="rotate(-80 704.4 327.2)">v5.162.21</text><text x="726.4" y="327.2" font-size="4" text-anchor="end" fill="#d6a382" transform="rotate(-80 726.4 327.2)">v5.162.22</text><text x="748.5" y="327.2" font-size="4" text-anchor="end" fill="#d6a382" transform="rotate(-80 748.5 327.2)">v5.162.23</text><text x="770.6" y="327.2" font-size="4" text-anchor="end" fill="#d6a382" transform="rotate(-80 770.6 327.2)">v5.162.24</text><text x="792.7" y="327.2" font-size="4" text-anchor="end" fill="#d6a382" transform="rotate(-80 792.7 327.2)">v5.162.25</text><text x="814.8" y="327.2" font-size="4" text-anchor="end" fill="#d6a382" transform="rotate(-80 814.8 327.2)">v5.162.26</text><text x="836.9" y="327.2" font-size="4" text-anchor="end" fill="#d6a382" transform="rotate(-80 836.9 327.2)">v5.162.27</text><text x="858.9" y="327.2" font-size="4" text-anchor="end" fill="#d6a382" transform="rotate(-80 858.9 327.2)">v5.162.28</text><text x="881.0" y="327.2" font-size="4" text-anchor="end" fill="#d6a382" transform="rotate(-80 881.0 327.2)">v5.162.29</text><text x="903.1" y="327.2" font-size="4" text-anchor="end" fill="#d6a382" transform="rotate(-80 903.1 327.2)">v5.162.30</text><text x="925.2" y="327.2" font-size="4" text-anchor="end" fill="#d6a382" transform="rotate(-80 925.2 327.2)">v5.162.31</text><text x="947.3" y="327.2" font-size="4" text-anchor="end" fill="#d6a382" transform="rotate(-80 947.3 327.2)">v5.162.32</text><text x="969.3" y="327.2" font-size="4" text-anchor="end" fill="#d6a382" transform="rotate(-80 969.3 327.2)">v5.162.33</text><text x="991.4" y="327.2" font-size="4" text-anchor="end" fill="#d6a382" transform="rotate(-80 991.4 327.2)">v5.162.34</text><text x="1013.5" y="327.2" font-size="4" text-anchor="end" fill="#d6a382" transform="rotate(-80 1013.5 327.2)">v5.162.35</text><text x="1035.6" y="327.2" font-size="4" text-anchor="end" fill="#aa4400" transform="rotate(-80 1035.6 327.2)">v5.163.0</text><text x="1057.7" y="327.2" font-size="4" text-anchor="end" fill="#d6a382" transform="rotate(-80 1057.7 327.2)">v5.163.1</text><text x="1079.8" y="327.2" font-size="4" text-anchor="end" fill="#d6a382" transform="rotate(-80 1079.8 327.2)">v5.163.2</text><text x="1101.8" y="327.2" font-size="4" text-anchor="end" fill="#d6a382" transform="rotate(-80 1101.8 327.2)">v5.163.3</text><text x="1123.9" y="327.2" font-size="4" text-anchor="end" fill="#d6a382" transform="rotate(-80 1123.9 327.2)">v5.163.4</text><text x="1146.0" y="327.2" font-size="4" text-anchor="end" fill="#773000" transform="rotate(-80 1146.0 327.2)">v6.0.0-alpha.12</text><path d="M64.0,81.5 L86.1,72.6 L108.2,78.8 L130.2,77.7 L152.3,75.1 L174.4,77.4 L196.5,73.8 L218.6,68.9 L240.7,78.9 L262.7,75.3 L284.8,73.2 L306.9,61.9 L329.0,58.2 L351.1,62.6 L373.1,74.6 L395.2,64.2 L417.3,61.5 L439.4,151.1 L461.5,153.2 L483.6,157.9 L505.6,151.8 L527.7,152.8 L549.8,151.4 L571.9,157.6 L594.0,152.9 L616.0,152.5 L638.1,150.9 L660.2,155.3 L682.3,155.3 L704.4,151.0 L726.4,154.1 L748.5,151.3 L770.6,154.6 L792.7,154.4 L814.8,152.9 L836.9,153.2 L858.9,155.7 L881.0,155.1 L903.1,152.4 L925.2,155.8 L947.3,151.1 L969.3,63.5 L991.4,64.9 L1013.5,79.1 L1035.6,76.5 L1057.7,75.5 L1079.8,77.1 L1101.8,73.9 L1123.9,73.8 L1146.0,62.7" fill="none" stroke="#4477AA" stroke-width="1.6"/><circle cx="64.0" cy="81.5" r="2" fill="#4477AA"/><circle cx="86.1" cy="72.6" r="2" fill="#4477AA"/><circle cx="108.2" cy="78.8" r="2" fill="#4477AA"/><circle cx="130.2" cy="77.7" r="2" fill="#4477AA"/><circle cx="152.3" cy="75.1" r="2" fill="#4477AA"/><circle cx="174.4" cy="77.4" r="2" fill="#4477AA"/><circle cx="196.5" cy="73.8" r="2" fill="#4477AA"/><circle cx="218.6" cy="68.9" r="2" fill="#4477AA"/><circle cx="240.7" cy="78.9" r="2" fill="#4477AA"/><circle cx="262.7" cy="75.3" r="2" fill="#4477AA"/><circle cx="284.8" cy="73.2" r="2" fill="#4477AA"/><circle cx="306.9" cy="61.9" r="2" fill="#4477AA"/><circle cx="329.0" cy="58.2" r="2" fill="#4477AA"/><circle cx="351.1" cy="62.6" r="2" fill="#4477AA"/><circle cx="373.1" cy="74.6" r="2" fill="#4477AA"/><circle cx="395.2" cy="64.2" r="2" fill="#4477AA"/><circle cx="417.3" cy="61.5" r="2" fill="#4477AA"/><circle cx="439.4" cy="151.1" r="2" fill="#4477AA"/><circle cx="461.5" cy="153.2" r="2" fill="#4477AA"/><circle cx="483.6" cy="157.9" r="2" fill="#4477AA"/><circle cx="505.6" cy="151.8" r="2" fill="#4477AA"/><circle cx="527.7" cy="152.8" r="2" fill="#4477AA"/><circle cx="549.8" cy="151.4" r="2" fill="#4477AA"/><circle cx="571.9" cy="157.6" r="2" fill="#4477AA"/><circle cx="594.0" cy="152.9" r="2" fill="#4477AA"/><circle cx="616.0" cy="152.5" r="2" fill="#4477AA"/><circle cx="638.1" cy="150.9" r="2" fill="#4477AA"/><circle cx="660.2" cy="155.3" r="2" fill="#4477AA"/><circle cx="682.3" cy="155.3" r="2" fill="#4477AA"/><circle cx="704.4" cy="151.0" r="2" fill="#4477AA"/><circle cx="726.4" cy="154.1" r="2" fill="#4477AA"/><circle cx="748.5" cy="151.3" r="2" fill="#4477AA"/><circle cx="770.6" cy="154.6" r="2" fill="#4477AA"/><circle cx="792.7" cy="154.4" r="2" fill="#4477AA"/><circle cx="814.8" cy="152.9" r="2" fill="#4477AA"/><circle cx="836.9" cy="153.2" r="2" fill="#4477AA"/><circle cx="858.9" cy="155.7" r="2" fill="#4477AA"/><circle cx="881.0" cy="155.1" r="2" fill="#4477AA"/><circle cx="903.1" cy="152.4" r="2" fill="#4477AA"/><circle cx="925.2" cy="155.8" r="2" fill="#4477AA"/><circle cx="947.3" cy="151.1" r="2" fill="#4477AA"/><circle cx="969.3" cy="63.5" r="2" fill="#4477AA"/><circle cx="991.4" cy="64.9" r="2" fill="#4477AA"/><circle cx="1013.5" cy="79.1" r="2" fill="#4477AA"/><circle cx="1035.6" cy="76.5" r="2" fill="#4477AA"/><circle cx="1057.7" cy="75.5" r="2" fill="#4477AA"/><circle cx="1079.8" cy="77.1" r="2" fill="#4477AA"/><circle cx="1101.8" cy="73.9" r="2" fill="#4477AA"/><circle cx="1123.9" cy="73.8" r="2" fill="#4477AA"/><circle cx="1146.0" cy="62.7" r="2" fill="#4477AA"/><rect x="1156" y="34" width="10" height="10" fill="#4477AA"/><text x="1170" y="43" font-size="10" fill="#444">chain-10</text><path d="M64.0,80.6 L86.1,76.0 L108.2,80.8 L130.2,81.3 L152.3,75.6 L174.4,80.3 L196.5,78.6 L218.6,80.0 L240.7,82.2 L262.7,84.5 L284.8,82.2 L306.9,63.7 L329.0,68.2 L351.1,69.9 L373.1,77.4 L395.2,65.8 L417.3,72.2 L439.4,156.1 L461.5,157.0 L483.6,158.5 L505.6,161.9 L527.7,153.0 L549.8,162.9 L571.9,158.2 L594.0,158.6 L616.0,159.9 L638.1,159.9 L660.2,161.9 L682.3,163.3 L704.4,159.6 L726.4,155.7 L748.5,154.8 L770.6,160.8 L792.7,154.2 L814.8,157.7 L836.9,157.6 L858.9,161.1 L881.0,159.9 L903.1,159.0 L925.2,160.4 L947.3,156.9 L969.3,73.5 L991.4,70.2 L1013.5,78.1 L1035.6,79.1 L1057.7,79.2 L1079.8,79.3 L1101.8,78.1 L1123.9,82.4 L1146.0,66.6" fill="none" stroke="#EE6677" stroke-width="1.6"/><circle cx="64.0" cy="80.6" r="2" fill="#EE6677"/><circle cx="86.1" cy="76.0" r="2" fill="#EE6677"/><circle cx="108.2" cy="80.8" r="2" fill="#EE6677"/><circle cx="130.2" cy="81.3" r="2" fill="#EE6677"/><circle cx="152.3" cy="75.6" r="2" fill="#EE6677"/><circle cx="174.4" cy="80.3" r="2" fill="#EE6677"/><circle cx="196.5" cy="78.6" r="2" fill="#EE6677"/><circle cx="218.6" cy="80.0" r="2" fill="#EE6677"/><circle cx="240.7" cy="82.2" r="2" fill="#EE6677"/><circle cx="262.7" cy="84.5" r="2" fill="#EE6677"/><circle cx="284.8" cy="82.2" r="2" fill="#EE6677"/><circle cx="306.9" cy="63.7" r="2" fill="#EE6677"/><circle cx="329.0" cy="68.2" r="2" fill="#EE6677"/><circle cx="351.1" cy="69.9" r="2" fill="#EE6677"/><circle cx="373.1" cy="77.4" r="2" fill="#EE6677"/><circle cx="395.2" cy="65.8" r="2" fill="#EE6677"/><circle cx="417.3" cy="72.2" r="2" fill="#EE6677"/><circle cx="439.4" cy="156.1" r="2" fill="#EE6677"/><circle cx="461.5" cy="157.0" r="2" fill="#EE6677"/><circle cx="483.6" cy="158.5" r="2" fill="#EE6677"/><circle cx="505.6" cy="161.9" r="2" fill="#EE6677"/><circle cx="527.7" cy="153.0" r="2" fill="#EE6677"/><circle cx="549.8" cy="162.9" r="2" fill="#EE6677"/><circle cx="571.9" cy="158.2" r="2" fill="#EE6677"/><circle cx="594.0" cy="158.6" r="2" fill="#EE6677"/><circle cx="616.0" cy="159.9" r="2" fill="#EE6677"/><circle cx="638.1" cy="159.9" r="2" fill="#EE6677"/><circle cx="660.2" cy="161.9" r="2" fill="#EE6677"/><circle cx="682.3" cy="163.3" r="2" fill="#EE6677"/><circle cx="704.4" cy="159.6" r="2" fill="#EE6677"/><circle cx="726.4" cy="155.7" r="2" fill="#EE6677"/><circle cx="748.5" cy="154.8" r="2" fill="#EE6677"/><circle cx="770.6" cy="160.8" r="2" fill="#EE6677"/><circle cx="792.7" cy="154.2" r="2" fill="#EE6677"/><circle cx="814.8" cy="157.7" r="2" fill="#EE6677"/><circle cx="836.9" cy="157.6" r="2" fill="#EE6677"/><circle cx="858.9" cy="161.1" r="2" fill="#EE6677"/><circle cx="881.0" cy="159.9" r="2" fill="#EE6677"/><circle cx="903.1" cy="159.0" r="2" fill="#EE6677"/><circle cx="925.2" cy="160.4" r="2" fill="#EE6677"/><circle cx="947.3" cy="156.9" r="2" fill="#EE6677"/><circle cx="969.3" cy="73.5" r="2" fill="#EE6677"/><circle cx="991.4" cy="70.2" r="2" fill="#EE6677"/><circle cx="1013.5" cy="78.1" r="2" fill="#EE6677"/><circle cx="1035.6" cy="79.1" r="2" fill="#EE6677"/><circle cx="1057.7" cy="79.2" r="2" fill="#EE6677"/><circle cx="1079.8" cy="79.3" r="2" fill="#EE6677"/><circle cx="1101.8" cy="78.1" r="2" fill="#EE6677"/><circle cx="1123.9" cy="82.4" r="2" fill="#EE6677"/><circle cx="1146.0" cy="66.6" r="2" fill="#EE6677"/><rect x="1156" y="49" width="10" height="10" fill="#EE6677"/><text x="1170" y="58" font-size="10" fill="#444">chain-50</text><path d="M64.0,84.8 L86.1,83.6 L108.2,82.9 L130.2,84.0 L152.3,76.5 L174.4,85.2 L196.5,82.0 L218.6,83.1 L240.7,89.9 L262.7,87.5 L284.8,88.2 L306.9,69.9 L329.0,68.3 L351.1,72.4 L373.1,80.3 L395.2,73.8 L417.3,70.1 L439.4,166.2 L461.5,162.9 L483.6,174.1 L505.6,164.4 L527.7,161.6 L549.8,167.5 L571.9,166.3 L594.0,164.8 L616.0,167.5 L638.1,170.1 L660.2,167.8 L682.3,166.9 L704.4,161.9 L726.4,161.7 L748.5,167.2 L770.6,171.0 L792.7,162.1 L814.8,166.2 L836.9,165.0 L858.9,169.0 L881.0,164.0 L903.1,175.4 L925.2,167.3 L947.3,164.3 L969.3,77.2 L991.4,66.8 L1013.5,82.3 L1035.6,85.5 L1057.7,86.5 L1079.8,81.9 L1101.8,81.7 L1123.9,84.7 L1146.0,72.0" fill="none" stroke="#228833" stroke-width="1.6"/><circle cx="64.0" cy="84.8" r="2" fill="#228833"/><circle cx="86.1" cy="83.6" r="2" fill="#228833"/><circle cx="108.2" cy="82.9" r="2" fill="#228833"/><circle cx="130.2" cy="84.0" r="2" fill="#228833"/><circle cx="152.3" cy="76.5" r="2" fill="#228833"/><circle cx="174.4" cy="85.2" r="2" fill="#228833"/><circle cx="196.5" cy="82.0" r="2" fill="#228833"/><circle cx="218.6" cy="83.1" r="2" fill="#228833"/><circle cx="240.7" cy="89.9" r="2" fill="#228833"/><circle cx="262.7" cy="87.5" r="2" fill="#228833"/><circle cx="284.8" cy="88.2" r="2" fill="#228833"/><circle cx="306.9" cy="69.9" r="2" fill="#228833"/><circle cx="329.0" cy="68.3" r="2" fill="#228833"/><circle cx="351.1" cy="72.4" r="2" fill="#228833"/><circle cx="373.1" cy="80.3" r="2" fill="#228833"/><circle cx="395.2" cy="73.8" r="2" fill="#228833"/><circle cx="417.3" cy="70.1" r="2" fill="#228833"/><circle cx="439.4" cy="166.2" r="2" fill="#228833"/><circle cx="461.5" cy="162.9" r="2" fill="#228833"/><circle cx="483.6" cy="174.1" r="2" fill="#228833"/><circle cx="505.6" cy="164.4" r="2" fill="#228833"/><circle cx="527.7" cy="161.6" r="2" fill="#228833"/><circle cx="549.8" cy="167.5" r="2" fill="#228833"/><circle cx="571.9" cy="166.3" r="2" fill="#228833"/><circle cx="594.0" cy="164.8" r="2" fill="#228833"/><circle cx="616.0" cy="167.5" r="2" fill="#228833"/><circle cx="638.1" cy="170.1" r="2" fill="#228833"/><circle cx="660.2" cy="167.8" r="2" fill="#228833"/><circle cx="682.3" cy="166.9" r="2" fill="#228833"/><circle cx="704.4" cy="161.9" r="2" fill="#228833"/><circle cx="726.4" cy="161.7" r="2" fill="#228833"/><circle cx="748.5" cy="167.2" r="2" fill="#228833"/><circle cx="770.6" cy="171.0" r="2" fill="#228833"/><circle cx="792.7" cy="162.1" r="2" fill="#228833"/><circle cx="814.8" cy="166.2" r="2" fill="#228833"/><circle cx="836.9" cy="165.0" r="2" fill="#228833"/><circle cx="858.9" cy="169.0" r="2" fill="#228833"/><circle cx="881.0" cy="164.0" r="2" fill="#228833"/><circle cx="903.1" cy="175.4" r="2" fill="#228833"/><circle cx="925.2" cy="167.3" r="2" fill="#228833"/><circle cx="947.3" cy="164.3" r="2" fill="#228833"/><circle cx="969.3" cy="77.2" r="2" fill="#228833"/><circle cx="991.4" cy="66.8" r="2" fill="#228833"/><circle cx="1013.5" cy="82.3" r="2" fill="#228833"/><circle cx="1035.6" cy="85.5" r="2" fill="#228833"/><circle cx="1057.7" cy="86.5" r="2" fill="#228833"/><circle cx="1079.8" cy="81.9" r="2" fill="#228833"/><circle cx="1101.8" cy="81.7" r="2" fill="#228833"/><circle cx="1123.9" cy="84.7" r="2" fill="#228833"/><circle cx="1146.0" cy="72.0" r="2" fill="#228833"/><rect x="1156" y="64" width="10" height="10" fill="#228833"/><text x="1170" y="73" font-size="10" fill="#444">chain-200</text><path d="M64.0,92.0 L86.1,89.5 L108.2,91.7 L130.2,89.3 L152.3,87.0 L174.4,94.3 L196.5,95.4 L218.6,98.5 L240.7,96.7 L262.7,92.4 L284.8,96.9 L306.9,82.9 L329.0,84.4 L351.1,82.8 L373.1,97.8 L395.2,81.1 L417.3,81.7 L439.4,170.3 L461.5,171.0 L483.6,174.2 L505.6,174.8 L527.7,173.0 L549.8,171.2 L571.9,180.7 L594.0,175.6 L616.0,173.9 L638.1,174.2 L660.2,177.0 L682.3,177.6 L704.4,176.6 L726.4,171.0 L748.5,171.9 L770.6,174.5 L792.7,169.6 L814.8,171.1 L836.9,173.6 L858.9,176.2 L881.0,173.4 L903.1,176.9 L925.2,171.3 L947.3,177.0 L969.3,90.9 L991.4,83.7 L1013.5,93.3 L1035.6,94.9 L1057.7,91.6 L1079.8,99.1 L1101.8,91.5 L1123.9,93.1 L1146.0,79.2" fill="none" stroke="#CCBB44" stroke-width="1.6"/><circle cx="64.0" cy="92.0" r="2" fill="#CCBB44"/><circle cx="86.1" cy="89.5" r="2" fill="#CCBB44"/><circle cx="108.2" cy="91.7" r="2" fill="#CCBB44"/><circle cx="130.2" cy="89.3" r="2" fill="#CCBB44"/><circle cx="152.3" cy="87.0" r="2" fill="#CCBB44"/><circle cx="174.4" cy="94.3" r="2" fill="#CCBB44"/><circle cx="196.5" cy="95.4" r="2" fill="#CCBB44"/><circle cx="218.6" cy="98.5" r="2" fill="#CCBB44"/><circle cx="240.7" cy="96.7" r="2" fill="#CCBB44"/><circle cx="262.7" cy="92.4" r="2" fill="#CCBB44"/><circle cx="284.8" cy="96.9" r="2" fill="#CCBB44"/><circle cx="306.9" cy="82.9" r="2" fill="#CCBB44"/><circle cx="329.0" cy="84.4" r="2" fill="#CCBB44"/><circle cx="351.1" cy="82.8" r="2" fill="#CCBB44"/><circle cx="373.1" cy="97.8" r="2" fill="#CCBB44"/><circle cx="395.2" cy="81.1" r="2" fill="#CCBB44"/><circle cx="417.3" cy="81.7" r="2" fill="#CCBB44"/><circle cx="439.4" cy="170.3" r="2" fill="#CCBB44"/><circle cx="461.5" cy="171.0" r="2" fill="#CCBB44"/><circle cx="483.6" cy="174.2" r="2" fill="#CCBB44"/><circle cx="505.6" cy="174.8" r="2" fill="#CCBB44"/><circle cx="527.7" cy="173.0" r="2" fill="#CCBB44"/><circle cx="549.8" cy="171.2" r="2" fill="#CCBB44"/><circle cx="571.9" cy="180.7" r="2" fill="#CCBB44"/><circle cx="594.0" cy="175.6" r="2" fill="#CCBB44"/><circle cx="616.0" cy="173.9" r="2" fill="#CCBB44"/><circle cx="638.1" cy="174.2" r="2" fill="#CCBB44"/><circle cx="660.2" cy="177.0" r="2" fill="#CCBB44"/><circle cx="682.3" cy="177.6" r="2" fill="#CCBB44"/><circle cx="704.4" cy="176.6" r="2" fill="#CCBB44"/><circle cx="726.4" cy="171.0" r="2" fill="#CCBB44"/><circle cx="748.5" cy="171.9" r="2" fill="#CCBB44"/><circle cx="770.6" cy="174.5" r="2" fill="#CCBB44"/><circle cx="792.7" cy="169.6" r="2" fill="#CCBB44"/><circle cx="814.8" cy="171.1" r="2" fill="#CCBB44"/><circle cx="836.9" cy="173.6" r="2" fill="#CCBB44"/><circle cx="858.9" cy="176.2" r="2" fill="#CCBB44"/><circle cx="881.0" cy="173.4" r="2" fill="#CCBB44"/><circle cx="903.1" cy="176.9" r="2" fill="#CCBB44"/><circle cx="925.2" cy="171.3" r="2" fill="#CCBB44"/><circle cx="947.3" cy="177.0" r="2" fill="#CCBB44"/><circle cx="969.3" cy="90.9" r="2" fill="#CCBB44"/><circle cx="991.4" cy="83.7" r="2" fill="#CCBB44"/><circle cx="1013.5" cy="93.3" r="2" fill="#CCBB44"/><circle cx="1035.6" cy="94.9" r="2" fill="#CCBB44"/><circle cx="1057.7" cy="91.6" r="2" fill="#CCBB44"/><circle cx="1079.8" cy="99.1" r="2" fill="#CCBB44"/><circle cx="1101.8" cy="91.5" r="2" fill="#CCBB44"/><circle cx="1123.9" cy="93.1" r="2" fill="#CCBB44"/><circle cx="1146.0" cy="79.2" r="2" fill="#CCBB44"/><rect x="1156" y="79" width="10" height="10" fill="#CCBB44"/><text x="1170" y="88" font-size="10" fill="#444">chain-1000</text><path d="M64.0,221.0 L86.1,222.1 L108.2,221.0 L130.2,222.2 L152.3,220.7 L174.4,222.4 L196.5,220.8 L218.6,220.1 L240.7,221.9 L262.7,221.5 L284.8,221.8 L306.9,218.3 L329.0,219.3 L351.1,220.9 L373.1,221.8 L395.2,218.2 L417.3,219.1 L439.4,258.1 L461.5,257.8 L483.6,258.8 L505.6,258.0 L527.7,258.5 L549.8,259.2 L571.9,258.7 L594.0,258.3 L616.0,258.6 L638.1,258.1 L660.2,258.6 L682.3,258.4 L704.4,260.9 L726.4,261.4 L748.5,258.3 L770.6,258.7 L792.7,258.4 L814.8,259.1 L836.9,258.4 L858.9,258.2 L881.0,261.2 L903.1,258.2 L925.2,259.0 L947.3,258.1 L969.3,220.1 L991.4,219.0 L1013.5,222.9 L1035.6,219.3 L1057.7,221.8 L1079.8,220.9 L1101.8,221.0 L1123.9,220.6 L1146.0,220.0" fill="none" stroke="#66CCEE" stroke-width="1.6"/><circle cx="64.0" cy="221.0" r="2" fill="#66CCEE"/><circle cx="86.1" cy="222.1" r="2" fill="#66CCEE"/><circle cx="108.2" cy="221.0" r="2" fill="#66CCEE"/><circle cx="130.2" cy="222.2" r="2" fill="#66CCEE"/><circle cx="152.3" cy="220.7" r="2" fill="#66CCEE"/><circle cx="174.4" cy="222.4" r="2" fill="#66CCEE"/><circle cx="196.5" cy="220.8" r="2" fill="#66CCEE"/><circle cx="218.6" cy="220.1" r="2" fill="#66CCEE"/><circle cx="240.7" cy="221.9" r="2" fill="#66CCEE"/><circle cx="262.7" cy="221.5" r="2" fill="#66CCEE"/><circle cx="284.8" cy="221.8" r="2" fill="#66CCEE"/><circle cx="306.9" cy="218.3" r="2" fill="#66CCEE"/><circle cx="329.0" cy="219.3" r="2" fill="#66CCEE"/><circle cx="351.1" cy="220.9" r="2" fill="#66CCEE"/><circle cx="373.1" cy="221.8" r="2" fill="#66CCEE"/><circle cx="395.2" cy="218.2" r="2" fill="#66CCEE"/><circle cx="417.3" cy="219.1" r="2" fill="#66CCEE"/><circle cx="439.4" cy="258.1" r="2" fill="#66CCEE"/><circle cx="461.5" cy="257.8" r="2" fill="#66CCEE"/><circle cx="483.6" cy="258.8" r="2" fill="#66CCEE"/><circle cx="505.6" cy="258.0" r="2" fill="#66CCEE"/><circle cx="527.7" cy="258.5" r="2" fill="#66CCEE"/><circle cx="549.8" cy="259.2" r="2" fill="#66CCEE"/><circle cx="571.9" cy="258.7" r="2" fill="#66CCEE"/><circle cx="594.0" cy="258.3" r="2" fill="#66CCEE"/><circle cx="616.0" cy="258.6" r="2" fill="#66CCEE"/><circle cx="638.1" cy="258.1" r="2" fill="#66CCEE"/><circle cx="660.2" cy="258.6" r="2" fill="#66CCEE"/><circle cx="682.3" cy="258.4" r="2" fill="#66CCEE"/><circle cx="704.4" cy="260.9" r="2" fill="#66CCEE"/><circle cx="726.4" cy="261.4" r="2" fill="#66CCEE"/><circle cx="748.5" cy="258.3" r="2" fill="#66CCEE"/><circle cx="770.6" cy="258.7" r="2" fill="#66CCEE"/><circle cx="792.7" cy="258.4" r="2" fill="#66CCEE"/><circle cx="814.8" cy="259.1" r="2" fill="#66CCEE"/><circle cx="836.9" cy="258.4" r="2" fill="#66CCEE"/><circle cx="858.9" cy="258.2" r="2" fill="#66CCEE"/><circle cx="881.0" cy="261.2" r="2" fill="#66CCEE"/><circle cx="903.1" cy="258.2" r="2" fill="#66CCEE"/><circle cx="925.2" cy="259.0" r="2" fill="#66CCEE"/><circle cx="947.3" cy="258.1" r="2" fill="#66CCEE"/><circle cx="969.3" cy="220.1" r="2" fill="#66CCEE"/><circle cx="991.4" cy="219.0" r="2" fill="#66CCEE"/><circle cx="1013.5" cy="222.9" r="2" fill="#66CCEE"/><circle cx="1035.6" cy="219.3" r="2" fill="#66CCEE"/><circle cx="1057.7" cy="221.8" r="2" fill="#66CCEE"/><circle cx="1079.8" cy="220.9" r="2" fill="#66CCEE"/><circle cx="1101.8" cy="221.0" r="2" fill="#66CCEE"/><circle cx="1123.9" cy="220.6" r="2" fill="#66CCEE"/><circle cx="1146.0" cy="220.0" r="2" fill="#66CCEE"/><rect x="1156" y="94" width="10" height="10" fill="#66CCEE"/><text x="1170" y="103" font-size="10" fill="#444">dense-10</text><path d="M64.0,285.7 L86.1,285.5 L108.2,286.0 L130.2,285.7 L152.3,285.6 L174.4,285.7 L196.5,285.9 L218.6,286.0 L240.7,286.0 L262.7,286.3 L284.8,286.0 L306.9,285.2 L329.0,284.9 L351.1,285.1 L373.1,285.7 L395.2,285.4 L417.3,285.2 L439.4,293.0 L461.5,292.9 L483.6,293.2 L505.6,293.1 L527.7,292.9 L549.8,293.0 L571.9,293.3 L594.0,293.1 L616.0,293.1 L638.1,293.8 L660.2,293.3 L682.3,293.5 L704.4,293.0 L726.4,293.8 L748.5,293.0 L770.6,293.3 L792.7,293.0 L814.8,293.4 L836.9,293.0 L858.9,293.3 L881.0,293.1 L903.1,293.1 L925.2,293.0 L947.3,293.0 L969.3,285.4 L991.4,285.0 L1013.5,285.6 L1035.6,285.9 L1057.7,285.7 L1079.8,285.8 L1101.8,285.7 L1123.9,285.8 L1146.0,284.9" fill="none" stroke="#AA3377" stroke-width="1.6"/><circle cx="64.0" cy="285.7" r="2" fill="#AA3377"/><circle cx="86.1" cy="285.5" r="2" fill="#AA3377"/><circle cx="108.2" cy="286.0" r="2" fill="#AA3377"/><circle cx="130.2" cy="285.7" r="2" fill="#AA3377"/><circle cx="152.3" cy="285.6" r="2" fill="#AA3377"/><circle cx="174.4" cy="285.7" r="2" fill="#AA3377"/><circle cx="196.5" cy="285.9" r="2" fill="#AA3377"/><circle cx="218.6" cy="286.0" r="2" fill="#AA3377"/><circle cx="240.7" cy="286.0" r="2" fill="#AA3377"/><circle cx="262.7" cy="286.3" r="2" fill="#AA3377"/><circle cx="284.8" cy="286.0" r="2" fill="#AA3377"/><circle cx="306.9" cy="285.2" r="2" fill="#AA3377"/><circle cx="329.0" cy="284.9" r="2" fill="#AA3377"/><circle cx="351.1" cy="285.1" r="2" fill="#AA3377"/><circle cx="373.1" cy="285.7" r="2" fill="#AA3377"/><circle cx="395.2" cy="285.4" r="2" fill="#AA3377"/><circle cx="417.3" cy="285.2" r="2" fill="#AA3377"/><circle cx="439.4" cy="293.0" r="2" fill="#AA3377"/><circle cx="461.5" cy="292.9" r="2" fill="#AA3377"/><circle cx="483.6" cy="293.2" r="2" fill="#AA3377"/><circle cx="505.6" cy="293.1" r="2" fill="#AA3377"/><circle cx="527.7" cy="292.9" r="2" fill="#AA3377"/><circle cx="549.8" cy="293.0" r="2" fill="#AA3377"/><circle cx="571.9" cy="293.3" r="2" fill="#AA3377"/><circle cx="594.0" cy="293.1" r="2" fill="#AA3377"/><circle cx="616.0" cy="293.1" r="2" fill="#AA3377"/><circle cx="638.1" cy="293.8" r="2" fill="#AA3377"/><circle cx="660.2" cy="293.3" r="2" fill="#AA3377"/><circle cx="682.3" cy="293.5" r="2" fill="#AA3377"/><circle cx="704.4" cy="293.0" r="2" fill="#AA3377"/><circle cx="726.4" cy="293.8" r="2" fill="#AA3377"/><circle cx="748.5" cy="293.0" r="2" fill="#AA3377"/><circle cx="770.6" cy="293.3" r="2" fill="#AA3377"/><circle cx="792.7" cy="293.0" r="2" fill="#AA3377"/><circle cx="814.8" cy="293.4" r="2" fill="#AA3377"/><circle cx="836.9" cy="293.0" r="2" fill="#AA3377"/><circle cx="858.9" cy="293.3" r="2" fill="#AA3377"/><circle cx="881.0" cy="293.1" r="2" fill="#AA3377"/><circle cx="903.1" cy="293.1" r="2" fill="#AA3377"/><circle cx="925.2" cy="293.0" r="2" fill="#AA3377"/><circle cx="947.3" cy="293.0" r="2" fill="#AA3377"/><circle cx="969.3" cy="285.4" r="2" fill="#AA3377"/><circle cx="991.4" cy="285.0" r="2" fill="#AA3377"/><circle cx="1013.5" cy="285.6" r="2" fill="#AA3377"/><circle cx="1035.6" cy="285.9" r="2" fill="#AA3377"/><circle cx="1057.7" cy="285.7" r="2" fill="#AA3377"/><circle cx="1079.8" cy="285.8" r="2" fill="#AA3377"/><circle cx="1101.8" cy="285.7" r="2" fill="#AA3377"/><circle cx="1123.9" cy="285.8" r="2" fill="#AA3377"/><circle cx="1146.0" cy="284.9" r="2" fill="#AA3377"/><rect x="1156" y="109" width="10" height="10" fill="#AA3377"/><text x="1170" y="118" font-size="10" fill="#444">dense-50</text><path d="M64.0,297.7 L86.1,297.5 L108.2,297.6 L130.2,297.6 L152.3,297.6 L174.4,297.6 L196.5,297.6 L218.6,297.6 L240.7,297.6 L262.7,297.6 L284.8,297.6 L306.9,297.4 L329.0,297.4 L351.1,297.4 L373.1,297.5 L395.2,297.4 L417.3,297.4 L439.4,299.4 L461.5,299.6 L483.6,299.5 L505.6,299.5 L527.7,299.5 L549.8,299.5 L571.9,299.5 L594.0,299.5 L616.0,299.5 L638.1,299.6 L660.2,299.5 L682.3,299.5 L704.4,299.5 L726.4,299.6 L748.5,299.6 L770.6,299.8 L792.7,299.5 L814.8,299.6 L836.9,299.5 L858.9,299.7 L881.0,299.4 L903.1,299.5 L925.2,299.5 L947.3,299.5 L969.3,297.5 L991.4,297.4 L1013.5,297.6 L1035.6,297.5 L1057.7,297.5 L1079.8,297.6 L1101.8,297.6 L1123.9,297.6 L1146.0,297.4" fill="none" stroke="#BBBBBB" stroke-width="1.6"/><circle cx="64.0" cy="297.7" r="2" fill="#BBBBBB"/><circle cx="86.1" cy="297.5" r="2" fill="#BBBBBB"/><circle cx="108.2" cy="297.6" r="2" fill="#BBBBBB"/><circle cx="130.2" cy="297.6" r="2" fill="#BBBBBB"/><circle cx="152.3" cy="297.6" r="2" fill="#BBBBBB"/><circle cx="174.4" cy="297.6" r="2" fill="#BBBBBB"/><circle cx="196.5" cy="297.6" r="2" fill="#BBBBBB"/><circle cx="218.6" cy="297.6" r="2" fill="#BBBBBB"/><circle cx="240.7" cy="297.6" r="2" fill="#BBBBBB"/><circle cx="262.7" cy="297.6" r="2" fill="#BBBBBB"/><circle cx="284.8" cy="297.6" r="2" fill="#BBBBBB"/><circle cx="306.9" cy="297.4" r="2" fill="#BBBBBB"/><circle cx="329.0" cy="297.4" r="2" fill="#BBBBBB"/><circle cx="351.1" cy="297.4" r="2" fill="#BBBBBB"/><circle cx="373.1" cy="297.5" r="2" fill="#BBBBBB"/><circle cx="395.2" cy="297.4" r="2" fill="#BBBBBB"/><circle cx="417.3" cy="297.4" r="2" fill="#BBBBBB"/><circle cx="439.4" cy="299.4" r="2" fill="#BBBBBB"/><circle cx="461.5" cy="299.6" r="2" fill="#BBBBBB"/><circle cx="483.6" cy="299.5" r="2" fill="#BBBBBB"/><circle cx="505.6" cy="299.5" r="2" fill="#BBBBBB"/><circle cx="527.7" cy="299.5" r="2" fill="#BBBBBB"/><circle cx="549.8" cy="299.5" r="2" fill="#BBBBBB"/><circle cx="571.9" cy="299.5" r="2" fill="#BBBBBB"/><circle cx="594.0" cy="299.5" r="2" fill="#BBBBBB"/><circle cx="616.0" cy="299.5" r="2" fill="#BBBBBB"/><circle cx="638.1" cy="299.6" r="2" fill="#BBBBBB"/><circle cx="660.2" cy="299.5" r="2" fill="#BBBBBB"/><circle cx="682.3" cy="299.5" r="2" fill="#BBBBBB"/><circle cx="704.4" cy="299.5" r="2" fill="#BBBBBB"/><circle cx="726.4" cy="299.6" r="2" fill="#BBBBBB"/><circle cx="748.5" cy="299.6" r="2" fill="#BBBBBB"/><circle cx="770.6" cy="299.8" r="2" fill="#BBBBBB"/><circle cx="792.7" cy="299.5" r="2" fill="#BBBBBB"/><circle cx="814.8" cy="299.6" r="2" fill="#BBBBBB"/><circle cx="836.9" cy="299.5" r="2" fill="#BBBBBB"/><circle cx="858.9" cy="299.7" r="2" fill="#BBBBBB"/><circle cx="881.0" cy="299.4" r="2" fill="#BBBBBB"/><circle cx="903.1" cy="299.5" r="2" fill="#BBBBBB"/><circle cx="925.2" cy="299.5" r="2" fill="#BBBBBB"/><circle cx="947.3" cy="299.5" r="2" fill="#BBBBBB"/><circle cx="969.3" cy="297.5" r="2" fill="#BBBBBB"/><circle cx="991.4" cy="297.4" r="2" fill="#BBBBBB"/><circle cx="1013.5" cy="297.6" r="2" fill="#BBBBBB"/><circle cx="1035.6" cy="297.5" r="2" fill="#BBBBBB"/><circle cx="1057.7" cy="297.5" r="2" fill="#BBBBBB"/><circle cx="1079.8" cy="297.6" r="2" fill="#BBBBBB"/><circle cx="1101.8" cy="297.6" r="2" fill="#BBBBBB"/><circle cx="1123.9" cy="297.6" r="2" fill="#BBBBBB"/><circle cx="1146.0" cy="297.4" r="2" fill="#BBBBBB"/><rect x="1156" y="124" width="10" height="10" fill="#BBBBBB"/><text x="1170" y="133" font-size="10" fill="#444">dense-200</text><path d="M64.0,270.9 L86.1,270.3 L108.2,270.8 L130.2,270.9 L152.3,270.4 L174.4,270.9 L196.5,271.0 L218.6,270.5 L240.7,271.1 L262.7,270.7 L284.8,270.6 L306.9,269.1 L329.0,269.1 L351.1,269.7 L373.1,270.5 L395.2,269.1 L417.3,269.3 L439.4,284.7 L461.5,284.6 L483.6,285.0 L505.6,285.2 L527.7,284.7 L549.8,284.9 L571.9,285.0 L594.0,285.0 L616.0,285.1 L638.1,285.1 L660.2,285.0 L682.3,285.2 L704.4,285.5 L726.4,284.9 L748.5,285.6 L770.6,285.1 L792.7,284.8 L814.8,285.1 L836.9,287.0 L858.9,287.7 L881.0,284.9 L903.1,284.9 L925.2,285.0 L947.3,285.2 L969.3,269.9 L991.4,269.2 L1013.5,270.7 L1035.6,270.3 L1057.7,270.6 L1079.8,270.8 L1101.8,270.7 L1123.9,270.7 L1146.0,269.1" fill="none" stroke="#222255" stroke-width="1.6"/><circle cx="64.0" cy="270.9" r="2" fill="#222255"/><circle cx="86.1" cy="270.3" r="2" fill="#222255"/><circle cx="108.2" cy="270.8" r="2" fill="#222255"/><circle cx="130.2" cy="270.9" r="2" fill="#222255"/><circle cx="152.3" cy="270.4" r="2" fill="#222255"/><circle cx="174.4" cy="270.9" r="2" fill="#222255"/><circle cx="196.5" cy="271.0" r="2" fill="#222255"/><circle cx="218.6" cy="270.5" r="2" fill="#222255"/><circle cx="240.7" cy="271.1" r="2" fill="#222255"/><circle cx="262.7" cy="270.7" r="2" fill="#222255"/><circle cx="284.8" cy="270.6" r="2" fill="#222255"/><circle cx="306.9" cy="269.1" r="2" fill="#222255"/><circle cx="329.0" cy="269.1" r="2" fill="#222255"/><circle cx="351.1" cy="269.7" r="2" fill="#222255"/><circle cx="373.1" cy="270.5" r="2" fill="#222255"/><circle cx="395.2" cy="269.1" r="2" fill="#222255"/><circle cx="417.3" cy="269.3" r="2" fill="#222255"/><circle cx="439.4" cy="284.7" r="2" fill="#222255"/><circle cx="461.5" cy="284.6" r="2" fill="#222255"/><circle cx="483.6" cy="285.0" r="2" fill="#222255"/><circle cx="505.6" cy="285.2" r="2" fill="#222255"/><circle cx="527.7" cy="284.7" r="2" fill="#222255"/><circle cx="549.8" cy="284.9" r="2" fill="#222255"/><circle cx="571.9" cy="285.0" r="2" fill="#222255"/><circle cx="594.0" cy="285.0" r="2" fill="#222255"/><circle cx="616.0" cy="285.1" r="2" fill="#222255"/><circle cx="638.1" cy="285.1" r="2" fill="#222255"/><circle cx="660.2" cy="285.0" r="2" fill="#222255"/><circle cx="682.3" cy="285.2" r="2" fill="#222255"/><circle cx="704.4" cy="285.5" r="2" fill="#222255"/><circle cx="726.4" cy="284.9" r="2" fill="#222255"/><circle cx="748.5" cy="285.6" r="2" fill="#222255"/><circle cx="770.6" cy="285.1" r="2" fill="#222255"/><circle cx="792.7" cy="284.8" r="2" fill="#222255"/><circle cx="814.8" cy="285.1" r="2" fill="#222255"/><circle cx="836.9" cy="287.0" r="2" fill="#222255"/><circle cx="858.9" cy="287.7" r="2" fill="#222255"/><circle cx="881.0" cy="284.9" r="2" fill="#222255"/><circle cx="903.1" cy="284.9" r="2" fill="#222255"/><circle cx="925.2" cy="285.0" r="2" fill="#222255"/><circle cx="947.3" cy="285.2" r="2" fill="#222255"/><circle cx="969.3" cy="269.9" r="2" fill="#222255"/><circle cx="991.4" cy="269.2" r="2" fill="#222255"/><circle cx="1013.5" cy="270.7" r="2" fill="#222255"/><circle cx="1035.6" cy="270.3" r="2" fill="#222255"/><circle cx="1057.7" cy="270.6" r="2" fill="#222255"/><circle cx="1079.8" cy="270.8" r="2" fill="#222255"/><circle cx="1101.8" cy="270.7" r="2" fill="#222255"/><circle cx="1123.9" cy="270.7" r="2" fill="#222255"/><circle cx="1146.0" cy="269.1" r="2" fill="#222255"/><rect x="1156" y="139" width="10" height="10" fill="#222255"/><text x="1170" y="148" font-size="10" fill="#444">hub-50</text><path d="M64.0,293.3 L86.1,293.2 L108.2,293.3 L130.2,293.3 L152.3,293.2 L174.4,293.3 L196.5,293.2 L218.6,293.2 L240.7,293.3 L262.7,293.3 L284.8,293.3 L306.9,292.8 L329.0,292.8 L351.1,292.9 L373.1,293.2 L395.2,292.8 L417.3,292.8 L439.4,297.1 L461.5,297.6 L483.6,297.2 L505.6,297.2 L527.7,297.1 L549.8,297.1 L571.9,297.2 L594.0,297.1 L616.0,297.2 L638.1,297.4 L660.2,297.2 L682.3,297.2 L704.4,297.1 L726.4,297.2 L748.5,297.2 L770.6,297.4 L792.7,297.1 L814.8,297.4 L836.9,297.3 L858.9,297.6 L881.0,297.1 L903.1,297.7 L925.2,297.1 L947.3,297.2 L969.3,293.1 L991.4,292.8 L1013.5,293.4 L1035.6,293.3 L1057.7,293.3 L1079.8,293.3 L1101.8,293.2 L1123.9,293.4 L1146.0,292.9" fill="none" stroke="#225555" stroke-width="1.6"/><circle cx="64.0" cy="293.3" r="2" fill="#225555"/><circle cx="86.1" cy="293.2" r="2" fill="#225555"/><circle cx="108.2" cy="293.3" r="2" fill="#225555"/><circle cx="130.2" cy="293.3" r="2" fill="#225555"/><circle cx="152.3" cy="293.2" r="2" fill="#225555"/><circle cx="174.4" cy="293.3" r="2" fill="#225555"/><circle cx="196.5" cy="293.2" r="2" fill="#225555"/><circle cx="218.6" cy="293.2" r="2" fill="#225555"/><circle cx="240.7" cy="293.3" r="2" fill="#225555"/><circle cx="262.7" cy="293.3" r="2" fill="#225555"/><circle cx="284.8" cy="293.3" r="2" fill="#225555"/><circle cx="306.9" cy="292.8" r="2" fill="#225555"/><circle cx="329.0" cy="292.8" r="2" fill="#225555"/><circle cx="351.1" cy="292.9" r="2" fill="#225555"/><circle cx="373.1" cy="293.2" r="2" fill="#225555"/><circle cx="395.2" cy="292.8" r="2" fill="#225555"/><circle cx="417.3" cy="292.8" r="2" fill="#225555"/><circle cx="439.4" cy="297.1" r="2" fill="#225555"/><circle cx="461.5" cy="297.6" r="2" fill="#225555"/><circle cx="483.6" cy="297.2" r="2" fill="#225555"/><circle cx="505.6" cy="297.2" r="2" fill="#225555"/><circle cx="527.7" cy="297.1" r="2" fill="#225555"/><circle cx="549.8" cy="297.1" r="2" fill="#225555"/><circle cx="571.9" cy="297.2" r="2" fill="#225555"/><circle cx="594.0" cy="297.1" r="2" fill="#225555"/><circle cx="616.0" cy="297.2" r="2" fill="#225555"/><circle cx="638.1" cy="297.4" r="2" fill="#225555"/><circle cx="660.2" cy="297.2" r="2" fill="#225555"/><circle cx="682.3" cy="297.2" r="2" fill="#225555"/><circle cx="704.4" cy="297.1" r="2" fill="#225555"/><circle cx="726.4" cy="297.2" r="2" fill="#225555"/><circle cx="748.5" cy="297.2" r="2" fill="#225555"/><circle cx="770.6" cy="297.4" r="2" fill="#225555"/><circle cx="792.7" cy="297.1" r="2" fill="#225555"/><circle cx="814.8" cy="297.4" r="2" fill="#225555"/><circle cx="836.9" cy="297.3" r="2" fill="#225555"/><circle cx="858.9" cy="297.6" r="2" fill="#225555"/><circle cx="881.0" cy="297.1" r="2" fill="#225555"/><circle cx="903.1" cy="297.7" r="2" fill="#225555"/><circle cx="925.2" cy="297.1" r="2" fill="#225555"/><circle cx="947.3" cy="297.2" r="2" fill="#225555"/><circle cx="969.3" cy="293.1" r="2" fill="#225555"/><circle cx="991.4" cy="292.8" r="2" fill="#225555"/><circle cx="1013.5" cy="293.4" r="2" fill="#225555"/><circle cx="1035.6" cy="293.3" r="2" fill="#225555"/><circle cx="1057.7" cy="293.3" r="2" fill="#225555"/><circle cx="1079.8" cy="293.3" r="2" fill="#225555"/><circle cx="1101.8" cy="293.2" r="2" fill="#225555"/><circle cx="1123.9" cy="293.4" r="2" fill="#225555"/><circle cx="1146.0" cy="292.9" r="2" fill="#225555"/><rect x="1156" y="154" width="10" height="10" fill="#225555"/><text x="1170" y="163" font-size="10" fill="#444">hub-200</text><path d="M64.0,293.4 L86.1,293.3 L108.2,293.3 L130.2,293.3 L152.3,293.2 L174.4,293.3 L196.5,293.3 L218.6,293.3 L240.7,293.3 L262.7,293.3 L284.8,293.3 L306.9,292.8 L329.0,292.9 L351.1,292.9 L373.1,293.2 L395.2,292.9 L417.3,292.9 L439.4,297.1 L461.5,297.1 L483.6,297.2 L505.6,297.2 L527.7,297.3 L549.8,297.2 L571.9,297.2 L594.0,297.1 L616.0,297.2 L638.1,297.2 L660.2,297.2 L682.3,297.2 L704.4,297.3 L726.4,297.1 L748.5,297.5 L770.6,297.2 L792.7,297.1 L814.8,297.1 L836.9,297.2 L858.9,297.2 L881.0,297.1 L903.1,297.2 L925.2,297.2 L947.3,297.1 L969.3,293.1 L991.4,292.9 L1013.5,293.4 L1035.6,293.2 L1057.7,293.2 L1079.8,293.3 L1101.8,293.2 L1123.9,293.2 L1146.0,292.9" fill="none" stroke="#552222" stroke-width="1.6"/><circle cx="64.0" cy="293.4" r="2" fill="#552222"/><circle cx="86.1" cy="293.3" r="2" fill="#552222"/><circle cx="108.2" cy="293.3" r="2" fill="#552222"/><circle cx="130.2" cy="293.3" r="2" fill="#552222"/><circle cx="152.3" cy="293.2" r="2" fill="#552222"/><circle cx="174.4" cy="293.3" r="2" fill="#552222"/><circle cx="196.5" cy="293.3" r="2" fill="#552222"/><circle cx="218.6" cy="293.3" r="2" fill="#552222"/><circle cx="240.7" cy="293.3" r="2" fill="#552222"/><circle cx="262.7" cy="293.3" r="2" fill="#552222"/><circle cx="284.8" cy="293.3" r="2" fill="#552222"/><circle cx="306.9" cy="292.8" r="2" fill="#552222"/><circle cx="329.0" cy="292.9" r="2" fill="#552222"/><circle cx="351.1" cy="292.9" r="2" fill="#552222"/><circle cx="373.1" cy="293.2" r="2" fill="#552222"/><circle cx="395.2" cy="292.9" r="2" fill="#552222"/><circle cx="417.3" cy="292.9" r="2" fill="#552222"/><circle cx="439.4" cy="297.1" r="2" fill="#552222"/><circle cx="461.5" cy="297.1" r="2" fill="#552222"/><circle cx="483.6" cy="297.2" r="2" fill="#552222"/><circle cx="505.6" cy="297.2" r="2" fill="#552222"/><circle cx="527.7" cy="297.3" r="2" fill="#552222"/><circle cx="549.8" cy="297.2" r="2" fill="#552222"/><circle cx="571.9" cy="297.2" r="2" fill="#552222"/><circle cx="594.0" cy="297.1" r="2" fill="#552222"/><circle cx="616.0" cy="297.2" r="2" fill="#552222"/><circle cx="638.1" cy="297.2" r="2" fill="#552222"/><circle cx="660.2" cy="297.2" r="2" fill="#552222"/><circle cx="682.3" cy="297.2" r="2" fill="#552222"/><circle cx="704.4" cy="297.3" r="2" fill="#552222"/><circle cx="726.4" cy="297.1" r="2" fill="#552222"/><circle cx="748.5" cy="297.5" r="2" fill="#552222"/><circle cx="770.6" cy="297.2" r="2" fill="#552222"/><circle cx="792.7" cy="297.1" r="2" fill="#552222"/><circle cx="814.8" cy="297.1" r="2" fill="#552222"/><circle cx="836.9" cy="297.2" r="2" fill="#552222"/><circle cx="858.9" cy="297.2" r="2" fill="#552222"/><circle cx="881.0" cy="297.1" r="2" fill="#552222"/><circle cx="903.1" cy="297.2" r="2" fill="#552222"/><circle cx="925.2" cy="297.2" r="2" fill="#552222"/><circle cx="947.3" cy="297.1" r="2" fill="#552222"/><circle cx="969.3" cy="293.1" r="2" fill="#552222"/><circle cx="991.4" cy="292.9" r="2" fill="#552222"/><circle cx="1013.5" cy="293.4" r="2" fill="#552222"/><circle cx="1035.6" cy="293.2" r="2" fill="#552222"/><circle cx="1057.7" cy="293.2" r="2" fill="#552222"/><circle cx="1079.8" cy="293.3" r="2" fill="#552222"/><circle cx="1101.8" cy="293.2" r="2" fill="#552222"/><circle cx="1123.9" cy="293.2" r="2" fill="#552222"/><circle cx="1146.0" cy="292.9" r="2" fill="#552222"/><rect x="1156" y="169" width="10" height="10" fill="#552222"/><text x="1170" y="178" font-size="10" fill="#444">hooked-200</text></svg>