<svg width="720" height="372" xmlns="http://www.w3.org/2000/svg"><rect width="720" height="372" fill="#ffffff"/><text x="64" y="20" font-size="15" font-weight="bold" fill="#333">list_exit_actions() — ops/sec (linear scale, last 50) by PR / release, c8g.medium</text><line x1="74.3" y1="34" x2="74.3" y2="324" stroke="#e8e8e8"/><line x1="84.7" y1="34" x2="84.7" y2="324" stroke="#e8e8e8"/><line x1="95.0" y1="34" x2="95.0" y2="324" stroke="#e8e8e8"/><line x1="105.3" y1="34" x2="105.3" y2="324" stroke="#e8e8e8"/><line x1="126.0" y1="34" x2="126.0" y2="324" stroke="#e8e8e8"/><line x1="136.3" y1="34" x2="136.3" y2="324" stroke="#e8e8e8"/><line x1="146.6" y1="34" x2="146.6" y2="324" stroke="#e8e8e8"/><line x1="156.9" y1="34" x2="156.9" y2="324" stroke="#e8e8e8"/><line x1="177.6" y1="34" x2="177.6" y2="324" stroke="#e8e8e8"/><line x1="187.9" y1="34" x2="187.9" y2="324" stroke="#e8e8e8"/><line x1="198.2" y1="34" x2="198.2" y2="324" stroke="#e8e8e8"/><line x1="208.6" y1="34" x2="208.6" y2="324" stroke="#e8e8e8"/><line x1="229.2" y1="34" x2="229.2" y2="324" stroke="#e8e8e8"/><line x1="239.6" y1="34" x2="239.6" y2="324" stroke="#e8e8e8"/><line x1="249.9" y1="34" x2="249.9" y2="324" stroke="#e8e8e8"/><line x1="260.2" y1="34" x2="260.2" y2="324" stroke="#e8e8e8"/><line x1="280.9" y1="34" x2="280.9" y2="324" stroke="#e8e8e8"/><line x1="291.2" y1="34" x2="291.2" y2="324" stroke="#e8e8e8"/><line x1="301.5" y1="34" x2="301.5" y2="324" stroke="#e8e8e8"/><line x1="311.8" y1="34" x2="311.8" y2="324" stroke="#e8e8e8"/><line x1="332.5" y1="34" x2="332.5" y2="324" stroke="#e8e8e8"/><line x1="342.8" y1="34" x2="342.8" y2="324" stroke="#e8e8e8"/><line x1="353.1" y1="34" x2="353.1" y2="324" stroke="#e8e8e8"/><line x1="363.5" y1="34" x2="363.5" y2="324" stroke="#e8e8e8"/><line x1="384.1" y1="34" x2="384.1" y2="324" stroke="#e8e8e8"/><line x1="394.4" y1="34" x2="394.4" y2="324" stroke="#e8e8e8"/><line x1="404.8" y1="34" x2="404.8" y2="324" stroke="#e8e8e8"/><line x1="415.1" y1="34" x2="415.1" y2="324" stroke="#e8e8e8"/><line x1="435.8" y1="34" x2="435.8" y2="324" stroke="#e8e8e8"/><line x1="446.1" y1="34" x2="446.1" y2="324" stroke="#e8e8e8"/><line x1="456.4" y1="34" x2="456.4" y2="324" stroke="#e8e8e8"/><line x1="466.7" y1="34" x2="466.7" y2="324" stroke="#e8e8e8"/><line x1="487.4" y1="34" x2="487.4" y2="324" stroke="#e8e8e8"/><line x1="497.7" y1="34" x2="497.7" y2="324" stroke="#e8e8e8"/><line x1="508.0" y1="34" x2="508.0" y2="324" stroke="#e8e8e8"/><line x1="518.4" y1="34" x2="518.4" y2="324" stroke="#e8e8e8"/><line x1="539.0" y1="34" x2="539.0" y2="324" stroke="#e8e8e8"/><line x1="549.3" y1="34" x2="549.3" y2="324" stroke="#e8e8e8"/><line x1="559.7" y1="34" x2="559.7" y2="324" stroke="#e8e8e8"/><line x1="570.0" y1="34" x2="570.0" y2="324" stroke="#e8e8e8"/><line x1="64.0" y1="34" x2="64.0" y2="324" stroke="#d0d0d0"/><line x1="115.6" y1="34" x2="115.6" y2="324" stroke="#d0d0d0"/><line x1="167.3" y1="34" x2="167.3" y2="324" stroke="#d0d0d0"/><line x1="218.9" y1="34" x2="218.9" y2="324" stroke="#d0d0d0"/><line x1="270.5" y1="34" x2="270.5" y2="324" stroke="#d0d0d0"/><line x1="322.2" y1="34" x2="322.2" y2="324" stroke="#d0d0d0"/><line x1="373.8" y1="34" x2="373.8" y2="324" stroke="#d0d0d0"/><line x1="425.4" y1="34" x2="425.4" y2="324" stroke="#d0d0d0"/><line x1="477.1" y1="34" x2="477.1" y2="324" stroke="#d0d0d0"/><line x1="528.7" y1="34" x2="528.7" y2="324" stroke="#d0d0d0"/><line x1="64" y1="324.0" x2="570" y2="324.0" stroke="#b0b0b0"/><text x="58" y="328.0" font-size="10" text-anchor="end" fill="#888">-12.8k</text><line x1="64" y1="266.0" x2="570" y2="266.0" stroke="#b0b0b0"/><text x="58" y="270.0" font-size="10" text-anchor="end" fill="#888">62.1k</text><line x1="64" y1="208.0" x2="570" y2="208.0" stroke="#b0b0b0"/><text x="58" y="212.0" font-size="10" text-anchor="end" fill="#888">137k</text><line x1="64" y1="150.0" x2="570" y2="150.0" stroke="#b0b0b0"/><text x="58" y="154.0" font-size="10" text-anchor="end" fill="#888">211.9k</text><line x1="64" y1="92.0" x2="570" y2="92.0" stroke="#b0b0b0"/><text x="58" y="96.0" font-size="10" text-anchor="end" fill="#888">286.7k</text><line x1="64" y1="34.0" x2="570" y2="34.0" stroke="#b0b0b0"/><text x="58" y="38.0" font-size="10" text-anchor="end" fill="#888">361.6k</text><text x="64.0" y="327.2" font-size="4" text-anchor="end" fill="#aa4400" transform="rotate(-80 64.0 327.2)">v5.157.11</text><text x="74.3" y="327.2" font-size="4" text-anchor="end" fill="#d6a382" transform="rotate(-80 74.3 327.2)">v5.157.12</text><text x="84.7" y="327.2" font-size="4" text-anchor="end" fill="#d6a382" transform="rotate(-80 84.7 327.2)">v5.157.13</text><text x="95.0" y="327.2" font-size="4" text-anchor="end" fill="#d6a382" transform="rotate(-80 95.0 327.2)">v5.157.14</text><text x="105.3" y="327.2" font-size="4" text-anchor="end" fill="#d6a382" transform="rotate(-80 105.3 327.2)">v5.157.15</text><text x="115.6" y="327.2" font-size="4" text-anchor="end" fill="#d6a382" transform="rotate(-80 115.6 327.2)">v5.157.16</text><text x="126.0" y="327.2" font-size="4" text-anchor="end" fill="#d6a382" transform="rotate(-80 126.0 327.2)">v5.157.17</text><text x="136.3" y="327.2" font-size="4" text-anchor="end" fill="#d6a382" transform="rotate(-80 136.3 327.2)">v5.157.18</text><text x="146.6" y="327.2" font-size="4" text-anchor="end" fill="#aa4400" transform="rotate(-80 146.6 327.2)">v5.158.0</text><text x="156.9" y="327.2" font-size="4" text-anchor="end" fill="#d6a382" transform="rotate(-80 156.9 327.2)">v5.158.1</text><text x="167.3" y="327.2" font-size="4" text-anchor="end" fill="#d6a382" transform="rotate(-80 167.3 327.2)">v5.158.2</text><text x="177.6" y="327.2" font-size="4" text-anchor="end" fill="#aa4400" transform="rotate(-80 177.6 327.2)">v5.159.0</text><text x="187.9" y="327.2" font-size="4" text-anchor="end" fill="#d6a382" transform="rotate(-80 187.9 327.2)">v5.159.1</text><text x="198.2" y="327.2" font-size="4" text-anchor="end" fill="#d6a382" transform="rotate(-80 198.2 327.2)">v5.159.2</text><text x="208.6" y="327.2" font-size="4" text-anchor="end" fill="#aa4400" transform="rotate(-80 208.6 327.2)">v5.160.0</text><text x="218.9" y="327.2" font-size="4" text-anchor="end" fill="#aa4400" transform="rotate(-80 218.9 327.2)">v5.161.0</text><text x="229.2" y="327.2" font-size="4" text-anchor="end" fill="#aa4400" transform="rotate(-80 229.2 327.2)">v5.162.0</text><text x="239.6" y="327.2" font-size="4" text-anchor="end" fill="#d6a382" transform="rotate(-80 239.6 327.2)">v5.162.1</text><text x="249.9" y="327.2" font-size="4" text-anchor="end" fill="#d6a382" transform="rotate(-80 249.9 327.2)">v5.162.2</text><text x="260.2" y="327.2" font-size="4" text-anchor="end" fill="#d6a382" transform="rotate(-80 260.2 327.2)">v5.162.3</text><text x="270.5" y="327.2" font-size="4" text-anchor="end" fill="#d6a382" transform="rotate(-80 270.5 327.2)">v5.162.4</text><text x="280.9" y="327.2" font-size="4" text-anchor="end" fill="#d6a382" transform="rotate(-80 280.9 327.2)">v5.162.5</text><text x="291.2" y="327.2" font-size="4" text-anchor="end" fill="#d6a382" transform="rotate(-80 291.2 327.2)">v5.162.6</text><text x="301.5" y="327.2" font-size="4" text-anchor="end" fill="#d6a382" transform="rotate(-80 301.5 327.2)">v5.162.7</text><text x="311.8" y="327.2" font-size="4" text-anchor="end" fill="#d6a382" transform="rotate(-80 311.8 327.2)">v5.162.8</text><text x="322.2" y="327.2" font-size="4" text-anchor="end" fill="#d6a382" transform="rotate(-80 322.2 327.2)">v5.162.9</text><text x="332.5" y="327.2" font-size="4" text-anchor="end" fill="#d6a382" transform="rotate(-80 332.5 327.2)">v5.162.10</text><text x="342.8" y="327.2" font-size="4" text-anchor="end" fill="#d6a382" transform="rotate(-80 342.8 327.2)">v5.162.11</text><text x="353.1" y="327.2" font-size="4" text-anchor="end" fill="#d6a382" transform="rotate(-80 353.1 327.2)">v5.162.12</text><text x="363.5" y="327.2" font-size="4" text-anchor="end" fill="#d6a382" transform="rotate(-80 363.5 327.2)">v5.162.13</text><text x="373.8" y="327.2" font-size="4" text-anchor="end" fill="#d6a382" transform="rotate(-80 373.8 327.2)">v5.162.15</text><text x="384.1" y="327.2" font-size="4" text-anchor="end" fill="#d6a382" transform="rotate(-80 384.1 327.2)">v5.162.16</text><text x="394.4" y="327.2" font-size="4" text-anchor="end" fill="#d6a382" transform="rotate(-80 394.4 327.2)">v5.162.17</text><text x="404.8" y="327.2" font-size="4" text-anchor="end" fill="#d6a382" transform="rotate(-80 404.8 327.2)">v5.162.18</text><text x="415.1" y="327.2" font-size="4" text-anchor="end" fill="#d6a382" transform="rotate(-80 415.1 327.2)">v5.162.19</text><text x="425.4" y="327.2" font-size="4" text-anchor="end" fill="#d6a382" transform="rotate(-80 425.4 327.2)">v5.162.20</text><text x="435.8" y="327.2" font-size="4" text-anchor="end" fill="#d6a382" transform="rotate(-80 435.8 327.2)">v5.162.21</text><text x="446.1" y="327.2" font-size="4" text-anchor="end" fill="#d6a382" transform="rotate(-80 446.1 327.2)">v5.162.22</text><text x="456.4" y="327.2" font-size="4" text-anchor="end" fill="#d6a382" transform="rotate(-80 456.4 327.2)">v5.162.23</text><text x="466.7" y="327.2" font-size="4" text-anchor="end" fill="#d6a382" transform="rotate(-80 466.7 327.2)">v5.162.24</text><text x="477.1" y="327.2" font-size="4" text-anchor="end" fill="#d6a382" transform="rotate(-80 477.1 327.2)">v5.162.25</text><text x="487.4" y="327.2" font-size="4" text-anchor="end" fill="#d6a382" transform="rotate(-80 487.4 327.2)">v5.162.26</text><text x="497.7" y="327.2" font-size="4" text-anchor="end" fill="#d6a382" transform="rotate(-80 497.7 327.2)">v5.162.27</text><text x="508.0" y="327.2" font-size="4" text-anchor="end" fill="#d6a382" transform="rotate(-80 508.0 327.2)">v5.162.28</text><text x="518.4" y="327.2" font-size="4" text-anchor="end" fill="#d6a382" transform="rotate(-80 518.4 327.2)">v5.162.29</text><text x="528.7" y="327.2" font-size="4" text-anchor="end" fill="#d6a382" transform="rotate(-80 528.7 327.2)">v5.162.30</text><text x="539.0" y="327.2" font-size="4" text-anchor="end" fill="#d6a382" transform="rotate(-80 539.0 327.2)">v5.162.31</text><text x="549.3" y="327.2" font-size="4" text-anchor="end" fill="#d6a382" transform="rotate(-80 549.3 327.2)">v5.162.32</text><text x="559.7" y="327.2" font-size="4" text-anchor="end" fill="#d6a382" transform="rotate(-80 559.7 327.2)">v5.162.33</text><text x="570.0" y="327.2" font-size="4" text-anchor="end" fill="#d6a382" transform="rotate(-80 570.0 327.2)">v5.162.34</text><path d="M64.0,76.4 L74.3,72.3 L84.7,86.0 L95.0,94.4 L105.3,78.5 L115.6,80.2 L126.0,70.7 L136.3,81.2 L146.6,80.6 L156.9,87.6 L167.3,87.0 L177.6,86.8 L187.9,76.6 L198.2,76.7 L208.6,70.0 L218.9,79.4 L229.2,80.3 L239.6,78.6 L249.9,72.5 L260.2,72.8 L270.5,77.4 L280.9,76.1 L291.2,80.9 L301.5,75.0 L311.8,157.2 L322.2,152.2 L332.5,157.6 L342.8,153.1 L353.1,156.0 L363.5,151.4 L373.8,159.3 L384.1,156.2 L394.4,154.3 L404.8,151.2 L415.1,153.3 L425.4,154.0 L435.8,149.5 L446.1,158.9 L456.4,153.0 L466.7,150.9 L477.1,155.6 L487.4,157.1 L497.7,158.9 L508.0,153.0 L518.4,158.8 L528.7,155.0 L539.0,158.5 L549.3,157.7 L559.7,58.2 L570.0,60.1" fill="none" stroke="#4477AA" stroke-width="1.6"/><circle cx="64.0" cy="76.4" r="2" fill="#4477AA"/><circle cx="74.3" cy="72.3" r="2" fill="#4477AA"/><circle cx="84.7" cy="86.0" r="2" fill="#4477AA"/><circle cx="95.0" cy="94.4" r="2" fill="#4477AA"/><circle cx="105.3" cy="78.5" r="2" fill="#4477AA"/><circle cx="115.6" cy="80.2" r="2" fill="#4477AA"/><circle cx="126.0" cy="70.7" r="2" fill="#4477AA"/><circle cx="136.3" cy="81.2" r="2" fill="#4477AA"/><circle cx="146.6" cy="80.6" r="2" fill="#4477AA"/><circle cx="156.9" cy="87.6" r="2" fill="#4477AA"/><circle cx="167.3" cy="87.0" r="2" fill="#4477AA"/><circle cx="177.6" cy="86.8" r="2" fill="#4477AA"/><circle cx="187.9" cy="76.6" r="2" fill="#4477AA"/><circle cx="198.2" cy="76.7" r="2" fill="#4477AA"/><circle cx="208.6" cy="70.0" r="2" fill="#4477AA"/><circle cx="218.9" cy="79.4" r="2" fill="#4477AA"/><circle cx="229.2" cy="80.3" r="2" fill="#4477AA"/><circle cx="239.6" cy="78.6" r="2" fill="#4477AA"/><circle cx="249.9" cy="72.5" r="2" fill="#4477AA"/><circle cx="260.2" cy="72.8" r="2" fill="#4477AA"/><circle cx="270.5" cy="77.4" r="2" fill="#4477AA"/><circle cx="280.9" cy="76.1" r="2" fill="#4477AA"/><circle cx="291.2" cy="80.9" r="2" fill="#4477AA"/><circle cx="301.5" cy="75.0" r="2" fill="#4477AA"/><circle cx="311.8" cy="157.2" r="2" fill="#4477AA"/><circle cx="322.2" cy="152.2" r="2" fill="#4477AA"/><circle cx="332.5" cy="157.6" r="2" fill="#4477AA"/><circle cx="342.8" cy="153.1" r="2" fill="#4477AA"/><circle cx="353.1" cy="156.0" r="2" fill="#4477AA"/><circle cx="363.5" cy="151.4" r="2" fill="#4477AA"/><circle cx="373.8" cy="159.3" r="2" fill="#4477AA"/><circle cx="384.1" cy="156.2" r="2" fill="#4477AA"/><circle cx="394.4" cy="154.3" r="2" fill="#4477AA"/><circle cx="404.8" cy="151.2" r="2" fill="#4477AA"/><circle cx="415.1" cy="153.3" r="2" fill="#4477AA"/><circle cx="425.4" cy="154.0" r="2" fill="#4477AA"/><circle cx="435.8" cy="149.5" r="2" fill="#4477AA"/><circle cx="446.1" cy="158.9" r="2" fill="#4477AA"/><circle cx="456.4" cy="153.0" r="2" fill="#4477AA"/><circle cx="466.7" cy="150.9" r="2" fill="#4477AA"/><circle cx="477.1" cy="155.6" r="2" fill="#4477AA"/><circle cx="487.4" cy="157.1" r="2" fill="#4477AA"/><circle cx="497.7" cy="158.9" r="2" fill="#4477AA"/><circle cx="508.0" cy="153.0" r="2" fill="#4477AA"/><circle cx="518.4" cy="158.8" r="2" fill="#4477AA"/><circle cx="528.7" cy="155.0" r="2" fill="#4477AA"/><circle cx="539.0" cy="158.5" r="2" fill="#4477AA"/><circle cx="549.3" cy="157.7" r="2" fill="#4477AA"/><circle cx="559.7" cy="58.2" r="2" fill="#4477AA"/><circle cx="570.0" cy="60.1" r="2" fill="#4477AA"/><rect x="580" y="34" width="10" height="10" fill="#4477AA"/><text x="594" y="43" font-size="10" fill="#444">chain-10</text><path d="M64.0,85.8 L74.3,87.2 L84.7,91.7 L95.0,89.2 L105.3,83.7 L115.6,86.0 L126.0,90.5 L136.3,85.9 L146.6,85.4 L156.9,87.4 L167.3,94.3 L177.6,86.0 L187.9,89.1 L198.2,84.7 L208.6,94.6 L218.9,83.8 L229.2,90.2 L239.6,85.7 L249.9,76.0 L260.2,80.2 L270.5,88.4 L280.9,85.5 L291.2,78.9 L301.5,80.9 L311.8,162.0 L322.2,161.1 L332.5,161.8 L342.8,164.7 L353.1,157.4 L363.5,164.7 L373.8,159.7 L384.1,160.8 L394.4,163.8 L404.8,162.0 L415.1,163.4 L425.4,167.6 L435.8,161.7 L446.1,161.7 L456.4,155.6 L466.7,161.5 L477.1,159.1 L487.4,160.8 L497.7,160.2 L508.0,166.9 L518.4,164.9 L528.7,162.5 L539.0,165.1 L549.3,158.7 L559.7,72.0 L570.0,72.9" fill="none" stroke="#EE6677" stroke-width="1.6"/><circle cx="64.0" cy="85.8" r="2" fill="#EE6677"/><circle cx="74.3" cy="87.2" r="2" fill="#EE6677"/><circle cx="84.7" cy="91.7" r="2" fill="#EE6677"/><circle cx="95.0" cy="89.2" r="2" fill="#EE6677"/><circle cx="105.3" cy="83.7" r="2" fill="#EE6677"/><circle cx="115.6" cy="86.0" r="2" fill="#EE6677"/><circle cx="126.0" cy="90.5" r="2" fill="#EE6677"/><circle cx="136.3" cy="85.9" r="2" fill="#EE6677"/><circle cx="146.6" cy="85.4" r="2" fill="#EE6677"/><circle cx="156.9" cy="87.4" r="2" fill="#EE6677"/><circle cx="167.3" cy="94.3" r="2" fill="#EE6677"/><circle cx="177.6" cy="86.0" r="2" fill="#EE6677"/><circle cx="187.9" cy="89.1" r="2" fill="#EE6677"/><circle cx="198.2" cy="84.7" r="2" fill="#EE6677"/><circle cx="208.6" cy="94.6" r="2" fill="#EE6677"/><circle cx="218.9" cy="83.8" r="2" fill="#EE6677"/><circle cx="229.2" cy="90.2" r="2" fill="#EE6677"/><circle cx="239.6" cy="85.7" r="2" fill="#EE6677"/><circle cx="249.9" cy="76.0" r="2" fill="#EE6677"/><circle cx="260.2" cy="80.2" r="2" fill="#EE6677"/><circle cx="270.5" cy="88.4" r="2" fill="#EE6677"/><circle cx="280.9" cy="85.5" r="2" fill="#EE6677"/><circle cx="291.2" cy="78.9" r="2" fill="#EE6677"/><circle cx="301.5" cy="80.9" r="2" fill="#EE6677"/><circle cx="311.8" cy="162.0" r="2" fill="#EE6677"/><circle cx="322.2" cy="161.1" r="2" fill="#EE6677"/><circle cx="332.5" cy="161.8" r="2" fill="#EE6677"/><circle cx="342.8" cy="164.7" r="2" fill="#EE6677"/><circle cx="353.1" cy="157.4" r="2" fill="#EE6677"/><circle cx="363.5" cy="164.7" r="2" fill="#EE6677"/><circle cx="373.8" cy="159.7" r="2" fill="#EE6677"/><circle cx="384.1" cy="160.8" r="2" fill="#EE6677"/><circle cx="394.4" cy="163.8" r="2" fill="#EE6677"/><circle cx="404.8" cy="162.0" r="2" fill="#EE6677"/><circle cx="415.1" cy="163.4" r="2" fill="#EE6677"/><circle cx="425.4" cy="167.6" r="2" fill="#EE6677"/><circle cx="435.8" cy="161.7" r="2" fill="#EE6677"/><circle cx="446.1" cy="161.7" r="2" fill="#EE6677"/><circle cx="456.4" cy="155.6" r="2" fill="#EE6677"/><circle cx="466.7" cy="161.5" r="2" fill="#EE6677"/><circle cx="477.1" cy="159.1" r="2" fill="#EE6677"/><circle cx="487.4" cy="160.8" r="2" fill="#EE6677"/><circle cx="497.7" cy="160.2" r="2" fill="#EE6677"/><circle cx="508.0" cy="166.9" r="2" fill="#EE6677"/><circle cx="518.4" cy="164.9" r="2" fill="#EE6677"/><circle cx="528.7" cy="162.5" r="2" fill="#EE6677"/><circle cx="539.0" cy="165.1" r="2" fill="#EE6677"/><circle cx="549.3" cy="158.7" r="2" fill="#EE6677"/><circle cx="559.7" cy="72.0" r="2" fill="#EE6677"/><circle cx="570.0" cy="72.9" r="2" fill="#EE6677"/><rect x="580" y="49" width="10" height="10" fill="#EE6677"/><text x="594" y="58" font-size="10" fill="#444">chain-50</text><path d="M64.0,88.6 L74.3,90.7 L84.7,92.1 L95.0,84.9 L105.3,89.6 L115.6,84.8 L126.0,87.8 L136.3,90.9 L146.6,90.7 L156.9,86.8 L167.3,90.5 L177.6,88.6 L187.9,86.7 L198.2,83.8 L208.6,86.6 L218.9,90.2 L229.2,89.0 L239.6,94.7 L249.9,84.5 L260.2,88.1 L270.5,93.9 L280.9,90.4 L291.2,86.8 L301.5,90.1 L311.8,170.2 L322.2,167.0 L332.5,172.0 L342.8,164.8 L353.1,163.7 L363.5,173.0 L373.8,169.8 L384.1,168.0 L394.4,168.2 L404.8,170.7 L415.1,167.7 L425.4,170.3 L435.8,168.0 L446.1,165.6 L456.4,170.2 L466.7,173.4 L477.1,169.9 L487.4,173.7 L497.7,165.3 L508.0,168.0 L518.4,167.4 L528.7,176.6 L539.0,168.4 L549.3,164.9 L559.7,72.8 L570.0,69.3" fill="none" stroke="#228833" stroke-width="1.6"/><circle cx="64.0" cy="88.6" r="2" fill="#228833"/><circle cx="74.3" cy="90.7" r="2" fill="#228833"/><circle cx="84.7" cy="92.1" r="2" fill="#228833"/><circle cx="95.0" cy="84.9" r="2" fill="#228833"/><circle cx="105.3" cy="89.6" r="2" fill="#228833"/><circle cx="115.6" cy="84.8" r="2" fill="#228833"/><circle cx="126.0" cy="87.8" r="2" fill="#228833"/><circle cx="136.3" cy="90.9" r="2" fill="#228833"/><circle cx="146.6" cy="90.7" r="2" fill="#228833"/><circle cx="156.9" cy="86.8" r="2" fill="#228833"/><circle cx="167.3" cy="90.5" r="2" fill="#228833"/><circle cx="177.6" cy="88.6" r="2" fill="#228833"/><circle cx="187.9" cy="86.7" r="2" fill="#228833"/><circle cx="198.2" cy="83.8" r="2" fill="#228833"/><circle cx="208.6" cy="86.6" r="2" fill="#228833"/><circle cx="218.9" cy="90.2" r="2" fill="#228833"/><circle cx="229.2" cy="89.0" r="2" fill="#228833"/><circle cx="239.6" cy="94.7" r="2" fill="#228833"/><circle cx="249.9" cy="84.5" r="2" fill="#228833"/><circle cx="260.2" cy="88.1" r="2" fill="#228833"/><circle cx="270.5" cy="93.9" r="2" fill="#228833"/><circle cx="280.9" cy="90.4" r="2" fill="#228833"/><circle cx="291.2" cy="86.8" r="2" fill="#228833"/><circle cx="301.5" cy="90.1" r="2" fill="#228833"/><circle cx="311.8" cy="170.2" r="2" fill="#228833"/><circle cx="322.2" cy="167.0" r="2" fill="#228833"/><circle cx="332.5" cy="172.0" r="2" fill="#228833"/><circle cx="342.8" cy="164.8" r="2" fill="#228833"/><circle cx="353.1" cy="163.7" r="2" fill="#228833"/><circle cx="363.5" cy="173.0" r="2" fill="#228833"/><circle cx="373.8" cy="169.8" r="2" fill="#228833"/><circle cx="384.1" cy="168.0" r="2" fill="#228833"/><circle cx="394.4" cy="168.2" r="2" fill="#228833"/><circle cx="404.8" cy="170.7" r="2" fill="#228833"/><circle cx="415.1" cy="167.7" r="2" fill="#228833"/><circle cx="425.4" cy="170.3" r="2" fill="#228833"/><circle cx="435.8" cy="168.0" r="2" fill="#228833"/><circle cx="446.1" cy="165.6" r="2" fill="#228833"/><circle cx="456.4" cy="170.2" r="2" fill="#228833"/><circle cx="466.7" cy="173.4" r="2" fill="#228833"/><circle cx="477.1" cy="169.9" r="2" fill="#228833"/><circle cx="487.4" cy="173.7" r="2" fill="#228833"/><circle cx="497.7" cy="165.3" r="2" fill="#228833"/><circle cx="508.0" cy="168.0" r="2" fill="#228833"/><circle cx="518.4" cy="167.4" r="2" fill="#228833"/><circle cx="528.7" cy="176.6" r="2" fill="#228833"/><circle cx="539.0" cy="168.4" r="2" fill="#228833"/><circle cx="549.3" cy="164.9" r="2" fill="#228833"/><circle cx="559.7" cy="72.8" r="2" fill="#228833"/><circle cx="570.0" cy="69.3" r="2" fill="#228833"/><rect x="580" y="64" width="10" height="10" fill="#228833"/><text x="594" y="73" font-size="10" fill="#444">chain-200</text><path d="M64.0,115.1 L74.3,111.0 L84.7,102.7 L95.0,106.2 L105.3,105.9 L115.6,101.4 L126.0,100.8 L136.3,101.3 L146.6,105.7 L156.9,112.2 L167.3,105.3 L177.6,103.4 L187.9,109.6 L198.2,110.7 L208.6,114.8 L218.9,110.4 L229.2,114.3 L239.6,115.4 L249.9,103.8 L260.2,107.6 L270.5,103.7 L280.9,107.3 L291.2,102.0 L301.5,101.9 L311.8,179.2 L322.2,173.1 L332.5,184.0 L342.8,177.7 L353.1,177.3 L363.5,174.5 L373.8,185.5 L384.1,181.7 L394.4,182.3 L404.8,184.8 L415.1,180.5 L425.4,179.8 L435.8,179.7 L446.1,175.0 L456.4,175.4 L466.7,181.4 L477.1,180.6 L487.4,175.6 L497.7,175.9 L508.0,184.5 L518.4,179.3 L528.7,178.3 L539.0,178.1 L549.3,181.2 L559.7,95.7 L570.0,80.1" fill="none" stroke="#CCBB44" stroke-width="1.6"/><circle cx="64.0" cy="115.1" r="2" fill="#CCBB44"/><circle cx="74.3" cy="111.0" r="2" fill="#CCBB44"/><circle cx="84.7" cy="102.7" r="2" fill="#CCBB44"/><circle cx="95.0" cy="106.2" r="2" fill="#CCBB44"/><circle cx="105.3" cy="105.9" r="2" fill="#CCBB44"/><circle cx="115.6" cy="101.4" r="2" fill="#CCBB44"/><circle cx="126.0" cy="100.8" r="2" fill="#CCBB44"/><circle cx="136.3" cy="101.3" r="2" fill="#CCBB44"/><circle cx="146.6" cy="105.7" r="2" fill="#CCBB44"/><circle cx="156.9" cy="112.2" r="2" fill="#CCBB44"/><circle cx="167.3" cy="105.3" r="2" fill="#CCBB44"/><circle cx="177.6" cy="103.4" r="2" fill="#CCBB44"/><circle cx="187.9" cy="109.6" r="2" fill="#CCBB44"/><circle cx="198.2" cy="110.7" r="2" fill="#CCBB44"/><circle cx="208.6" cy="114.8" r="2" fill="#CCBB44"/><circle cx="218.9" cy="110.4" r="2" fill="#CCBB44"/><circle cx="229.2" cy="114.3" r="2" fill="#CCBB44"/><circle cx="239.6" cy="115.4" r="2" fill="#CCBB44"/><circle cx="249.9" cy="103.8" r="2" fill="#CCBB44"/><circle cx="260.2" cy="107.6" r="2" fill="#CCBB44"/><circle cx="270.5" cy="103.7" r="2" fill="#CCBB44"/><circle cx="280.9" cy="107.3" r="2" fill="#CCBB44"/><circle cx="291.2" cy="102.0" r="2" fill="#CCBB44"/><circle cx="301.5" cy="101.9" r="2" fill="#CCBB44"/><circle cx="311.8" cy="179.2" r="2" fill="#CCBB44"/><circle cx="322.2" cy="173.1" r="2" fill="#CCBB44"/><circle cx="332.5" cy="184.0" r="2" fill="#CCBB44"/><circle cx="342.8" cy="177.7" r="2" fill="#CCBB44"/><circle cx="353.1" cy="177.3" r="2" fill="#CCBB44"/><circle cx="363.5" cy="174.5" r="2" fill="#CCBB44"/><circle cx="373.8" cy="185.5" r="2" fill="#CCBB44"/><circle cx="384.1" cy="181.7" r="2" fill="#CCBB44"/><circle cx="394.4" cy="182.3" r="2" fill="#CCBB44"/><circle cx="404.8" cy="184.8" r="2" fill="#CCBB44"/><circle cx="415.1" cy="180.5" r="2" fill="#CCBB44"/><circle cx="425.4" cy="179.8" r="2" fill="#CCBB44"/><circle cx="435.8" cy="179.7" r="2" fill="#CCBB44"/><circle cx="446.1" cy="175.0" r="2" fill="#CCBB44"/><circle cx="456.4" cy="175.4" r="2" fill="#CCBB44"/><circle cx="466.7" cy="181.4" r="2" fill="#CCBB44"/><circle cx="477.1" cy="180.6" r="2" fill="#CCBB44"/><circle cx="487.4" cy="175.6" r="2" fill="#CCBB44"/><circle cx="497.7" cy="175.9" r="2" fill="#CCBB44"/><circle cx="508.0" cy="184.5" r="2" fill="#CCBB44"/><circle cx="518.4" cy="179.3" r="2" fill="#CCBB44"/><circle cx="528.7" cy="178.3" r="2" fill="#CCBB44"/><circle cx="539.0" cy="178.1" r="2" fill="#CCBB44"/><circle cx="549.3" cy="181.2" r="2" fill="#CCBB44"/><circle cx="559.7" cy="95.7" r="2" fill="#CCBB44"/><circle cx="570.0" cy="80.1" r="2" fill="#CCBB44"/><rect x="580" y="79" width="10" height="10" fill="#CCBB44"/><text x="594" y="88" font-size="10" fill="#444">chain-1000</text><path d="M64.0,158.1 L74.3,161.5 L84.7,161.0 L95.0,162.6 L105.3,162.9 L115.6,161.0 L126.0,161.2 L136.3,160.5 L146.6,157.8 L156.9,159.4 L167.3,164.5 L177.6,164.2 L187.9,156.3 L198.2,153.2 L208.6,160.8 L218.9,156.3 L229.2,157.3 L239.6,156.2 L249.9,158.4 L260.2,156.0 L270.5,157.0 L280.9,155.2 L291.2,153.3 L301.5,153.6 L311.8,191.7 L322.2,195.4 L332.5,197.7 L342.8,191.0 L353.1,195.0 L363.5,191.7 L373.8,191.0 L384.1,193.0 L394.4,192.5 L404.8,189.4 L415.1,194.7 L425.4,194.4 L435.8,194.4 L446.1,196.7 L456.4,192.4 L466.7,193.7 L477.1,192.5 L487.4,194.7 L497.7,193.5 L508.0,193.8 L518.4,197.4 L528.7,191.5 L539.0,194.3 L549.3,192.6 L559.7,148.2 L570.0,146.2" fill="none" stroke="#66CCEE" stroke-width="1.6"/><circle cx="64.0" cy="158.1" r="2" fill="#66CCEE"/><circle cx="74.3" cy="161.5" r="2" fill="#66CCEE"/><circle cx="84.7" cy="161.0" r="2" fill="#66CCEE"/><circle cx="95.0" cy="162.6" r="2" fill="#66CCEE"/><circle cx="105.3" cy="162.9" r="2" fill="#66CCEE"/><circle cx="115.6" cy="161.0" r="2" fill="#66CCEE"/><circle cx="126.0" cy="161.2" r="2" fill="#66CCEE"/><circle cx="136.3" cy="160.5" r="2" fill="#66CCEE"/><circle cx="146.6" cy="157.8" r="2" fill="#66CCEE"/><circle cx="156.9" cy="159.4" r="2" fill="#66CCEE"/><circle cx="167.3" cy="164.5" r="2" fill="#66CCEE"/><circle cx="177.6" cy="164.2" r="2" fill="#66CCEE"/><circle cx="187.9" cy="156.3" r="2" fill="#66CCEE"/><circle cx="198.2" cy="153.2" r="2" fill="#66CCEE"/><circle cx="208.6" cy="160.8" r="2" fill="#66CCEE"/><circle cx="218.9" cy="156.3" r="2" fill="#66CCEE"/><circle cx="229.2" cy="157.3" r="2" fill="#66CCEE"/><circle cx="239.6" cy="156.2" r="2" fill="#66CCEE"/><circle cx="249.9" cy="158.4" r="2" fill="#66CCEE"/><circle cx="260.2" cy="156.0" r="2" fill="#66CCEE"/><circle cx="270.5" cy="157.0" r="2" fill="#66CCEE"/><circle cx="280.9" cy="155.2" r="2" fill="#66CCEE"/><circle cx="291.2" cy="153.3" r="2" fill="#66CCEE"/><circle cx="301.5" cy="153.6" r="2" fill="#66CCEE"/><circle cx="311.8" cy="191.7" r="2" fill="#66CCEE"/><circle cx="322.2" cy="195.4" r="2" fill="#66CCEE"/><circle cx="332.5" cy="197.7" r="2" fill="#66CCEE"/><circle cx="342.8" cy="191.0" r="2" fill="#66CCEE"/><circle cx="353.1" cy="195.0" r="2" fill="#66CCEE"/><circle cx="363.5" cy="191.7" r="2" fill="#66CCEE"/><circle cx="373.8" cy="191.0" r="2" fill="#66CCEE"/><circle cx="384.1" cy="193.0" r="2" fill="#66CCEE"/><circle cx="394.4" cy="192.5" r="2" fill="#66CCEE"/><circle cx="404.8" cy="189.4" r="2" fill="#66CCEE"/><circle cx="415.1" cy="194.7" r="2" fill="#66CCEE"/><circle cx="425.4" cy="194.4" r="2" fill="#66CCEE"/><circle cx="435.8" cy="194.4" r="2" fill="#66CCEE"/><circle cx="446.1" cy="196.7" r="2" fill="#66CCEE"/><circle cx="456.4" cy="192.4" r="2" fill="#66CCEE"/><circle cx="466.7" cy="193.7" r="2" fill="#66CCEE"/><circle cx="477.1" cy="192.5" r="2" fill="#66CCEE"/><circle cx="487.4" cy="194.7" r="2" fill="#66CCEE"/><circle cx="497.7" cy="193.5" r="2" fill="#66CCEE"/><circle cx="508.0" cy="193.8" r="2" fill="#66CCEE"/><circle cx="518.4" cy="197.4" r="2" fill="#66CCEE"/><circle cx="528.7" cy="191.5" r="2" fill="#66CCEE"/><circle cx="539.0" cy="194.3" r="2" fill="#66CCEE"/><circle cx="549.3" cy="192.6" r="2" fill="#66CCEE"/><circle cx="559.7" cy="148.2" r="2" fill="#66CCEE"/><circle cx="570.0" cy="146.2" r="2" fill="#66CCEE"/><rect x="580" y="94" width="10" height="10" fill="#66CCEE"/><text x="594" y="103" font-size="10" fill="#444">dense-10</text><path d="M64.0,262.6 L74.3,261.4 L84.7,262.5 L95.0,261.6 L105.3,259.7 L115.6,260.8 L126.0,260.8 L136.3,261.7 L146.6,261.1 L156.9,260.3 L167.3,260.8 L177.6,260.4 L187.9,260.9 L198.2,261.3 L208.6,260.7 L218.9,261.1 L229.2,260.9 L239.6,262.0 L249.9,258.5 L260.2,258.9 L270.5,259.3 L280.9,260.1 L291.2,258.6 L301.5,259.6 L311.8,263.4 L322.2,263.4 L332.5,264.2 L342.8,264.7 L353.1,263.1 L363.5,263.8 L373.8,264.3 L384.1,264.3 L394.4,265.6 L404.8,265.3 L415.1,265.4 L425.4,265.6 L435.8,264.1 L446.1,264.4 L456.4,263.0 L466.7,265.0 L477.1,263.7 L487.4,266.0 L497.7,264.0 L508.0,264.6 L518.4,263.7 L528.7,265.4 L539.0,264.0 L549.3,264.7 L559.7,258.1 L570.0,257.6" fill="none" stroke="#AA3377" stroke-width="1.6"/><circle cx="64.0" cy="262.6" r="2" fill="#AA3377"/><circle cx="74.3" cy="261.4" r="2" fill="#AA3377"/><circle cx="84.7" cy="262.5" r="2" fill="#AA3377"/><circle cx="95.0" cy="261.6" r="2" fill="#AA3377"/><circle cx="105.3" cy="259.7" r="2" fill="#AA3377"/><circle cx="115.6" cy="260.8" r="2" fill="#AA3377"/><circle cx="126.0" cy="260.8" r="2" fill="#AA3377"/><circle cx="136.3" cy="261.7" r="2" fill="#AA3377"/><circle cx="146.6" cy="261.1" r="2" fill="#AA3377"/><circle cx="156.9" cy="260.3" r="2" fill="#AA3377"/><circle cx="167.3" cy="260.8" r="2" fill="#AA3377"/><circle cx="177.6" cy="260.4" r="2" fill="#AA3377"/><circle cx="187.9" cy="260.9" r="2" fill="#AA3377"/><circle cx="198.2" cy="261.3" r="2" fill="#AA3377"/><circle cx="208.6" cy="260.7" r="2" fill="#AA3377"/><circle cx="218.9" cy="261.1" r="2" fill="#AA3377"/><circle cx="229.2" cy="260.9" r="2" fill="#AA3377"/><circle cx="239.6" cy="262.0" r="2" fill="#AA3377"/><circle cx="249.9" cy="258.5" r="2" fill="#AA3377"/><circle cx="260.2" cy="258.9" r="2" fill="#AA3377"/><circle cx="270.5" cy="259.3" r="2" fill="#AA3377"/><circle cx="280.9" cy="260.1" r="2" fill="#AA3377"/><circle cx="291.2" cy="258.6" r="2" fill="#AA3377"/><circle cx="301.5" cy="259.6" r="2" fill="#AA3377"/><circle cx="311.8" cy="263.4" r="2" fill="#AA3377"/><circle cx="322.2" cy="263.4" r="2" fill="#AA3377"/><circle cx="332.5" cy="264.2" r="2" fill="#AA3377"/><circle cx="342.8" cy="264.7" r="2" fill="#AA3377"/><circle cx="353.1" cy="263.1" r="2" fill="#AA3377"/><circle cx="363.5" cy="263.8" r="2" fill="#AA3377"/><circle cx="373.8" cy="264.3" r="2" fill="#AA3377"/><circle cx="384.1" cy="264.3" r="2" fill="#AA3377"/><circle cx="394.4" cy="265.6" r="2" fill="#AA3377"/><circle cx="404.8" cy="265.3" r="2" fill="#AA3377"/><circle cx="415.1" cy="265.4" r="2" fill="#AA3377"/><circle cx="425.4" cy="265.6" r="2" fill="#AA3377"/><circle cx="435.8" cy="264.1" r="2" fill="#AA3377"/><circle cx="446.1" cy="264.4" r="2" fill="#AA3377"/><circle cx="456.4" cy="263.0" r="2" fill="#AA3377"/><circle cx="466.7" cy="265.0" r="2" fill="#AA3377"/><circle cx="477.1" cy="263.7" r="2" fill="#AA3377"/><circle cx="487.4" cy="266.0" r="2" fill="#AA3377"/><circle cx="497.7" cy="264.0" r="2" fill="#AA3377"/><circle cx="508.0" cy="264.6" r="2" fill="#AA3377"/><circle cx="518.4" cy="263.7" r="2" fill="#AA3377"/><circle cx="528.7" cy="265.4" r="2" fill="#AA3377"/><circle cx="539.0" cy="264.0" r="2" fill="#AA3377"/><circle cx="549.3" cy="264.7" r="2" fill="#AA3377"/><circle cx="559.7" cy="258.1" r="2" fill="#AA3377"/><circle cx="570.0" cy="257.6" r="2" fill="#AA3377"/><rect x="580" y="109" width="10" height="10" fill="#AA3377"/><text x="594" y="118" font-size="10" fill="#444">dense-50</text><path d="M64.0,299.3 L74.3,299.2 L84.7,299.4 L95.0,299.0 L105.3,299.2 L115.6,299.2 L126.0,299.5 L136.3,299.3 L146.6,299.2 L156.9,299.3 L167.3,299.2 L177.6,299.1 L187.9,299.2 L198.2,299.2 L208.6,299.2 L218.9,299.2 L229.2,299.3 L239.6,299.4 L249.9,298.4 L260.2,298.4 L270.5,298.7 L280.9,299.4 L291.2,298.4 L301.5,298.7 L311.8,299.2 L322.2,299.0 L332.5,299.5 L342.8,299.6 L353.1,299.1 L363.5,299.4 L373.8,299.6 L384.1,299.4 L394.4,299.5 L404.8,299.7 L415.1,299.7 L425.4,299.7 L435.8,299.3 L446.1,299.4 L456.4,299.2 L466.7,299.6 L477.1,299.3 L487.4,299.5 L497.7,299.2 L508.0,299.8 L518.4,299.4 L528.7,299.7 L539.0,299.4 L549.3,299.2 L559.7,299.0 L570.0,298.3" fill="none" stroke="#BBBBBB" stroke-width="1.6"/><circle cx="64.0" cy="299.3" r="2" fill="#BBBBBB"/><circle cx="74.3" cy="299.2" r="2" fill="#BBBBBB"/><circle cx="84.7" cy="299.4" r="2" fill="#BBBBBB"/><circle cx="95.0" cy="299.0" r="2" fill="#BBBBBB"/><circle cx="105.3" cy="299.2" r="2" fill="#BBBBBB"/><circle cx="115.6" cy="299.2" r="2" fill="#BBBBBB"/><circle cx="126.0" cy="299.5" r="2" fill="#BBBBBB"/><circle cx="136.3" cy="299.3" r="2" fill="#BBBBBB"/><circle cx="146.6" cy="299.2" r="2" fill="#BBBBBB"/><circle cx="156.9" cy="299.3" r="2" fill="#BBBBBB"/><circle cx="167.3" cy="299.2" r="2" fill="#BBBBBB"/><circle cx="177.6" cy="299.1" r="2" fill="#BBBBBB"/><circle cx="187.9" cy="299.2" r="2" fill="#BBBBBB"/><circle cx="198.2" cy="299.2" r="2" fill="#BBBBBB"/><circle cx="208.6" cy="299.2" r="2" fill="#BBBBBB"/><circle cx="218.9" cy="299.2" r="2" fill="#BBBBBB"/><circle cx="229.2" cy="299.3" r="2" fill="#BBBBBB"/><circle cx="239.6" cy="299.4" r="2" fill="#BBBBBB"/><circle cx="249.9" cy="298.4" r="2" fill="#BBBBBB"/><circle cx="260.2" cy="298.4" r="2" fill="#BBBBBB"/><circle cx="270.5" cy="298.7" r="2" fill="#BBBBBB"/><circle cx="280.9" cy="299.4" r="2" fill="#BBBBBB"/><circle cx="291.2" cy="298.4" r="2" fill="#BBBBBB"/><circle cx="301.5" cy="298.7" r="2" fill="#BBBBBB"/><circle cx="311.8" cy="299.2" r="2" fill="#BBBBBB"/><circle cx="322.2" cy="299.0" r="2" fill="#BBBBBB"/><circle cx="332.5" cy="299.5" r="2" fill="#BBBBBB"/><circle cx="342.8" cy="299.6" r="2" fill="#BBBBBB"/><circle cx="353.1" cy="299.1" r="2" fill="#BBBBBB"/><circle cx="363.5" cy="299.4" r="2" fill="#BBBBBB"/><circle cx="373.8" cy="299.6" r="2" fill="#BBBBBB"/><circle cx="384.1" cy="299.4" r="2" fill="#BBBBBB"/><circle cx="394.4" cy="299.5" r="2" fill="#BBBBBB"/><circle cx="404.8" cy="299.7" r="2" fill="#BBBBBB"/><circle cx="415.1" cy="299.7" r="2" fill="#BBBBBB"/><circle cx="425.4" cy="299.7" r="2" fill="#BBBBBB"/><circle cx="435.8" cy="299.3" r="2" fill="#BBBBBB"/><circle cx="446.1" cy="299.4" r="2" fill="#BBBBBB"/><circle cx="456.4" cy="299.2" r="2" fill="#BBBBBB"/><circle cx="466.7" cy="299.6" r="2" fill="#BBBBBB"/><circle cx="477.1" cy="299.3" r="2" fill="#BBBBBB"/><circle cx="487.4" cy="299.5" r="2" fill="#BBBBBB"/><circle cx="497.7" cy="299.2" r="2" fill="#BBBBBB"/><circle cx="508.0" cy="299.8" r="2" fill="#BBBBBB"/><circle cx="518.4" cy="299.4" r="2" fill="#BBBBBB"/><circle cx="528.7" cy="299.7" r="2" fill="#BBBBBB"/><circle cx="539.0" cy="299.4" r="2" fill="#BBBBBB"/><circle cx="549.3" cy="299.2" r="2" fill="#BBBBBB"/><circle cx="559.7" cy="299.0" r="2" fill="#BBBBBB"/><circle cx="570.0" cy="298.3" r="2" fill="#BBBBBB"/><rect x="580" y="124" width="10" height="10" fill="#BBBBBB"/><text x="594" y="133" font-size="10" fill="#444">dense-200</text><path d="M64.0,231.6 L74.3,225.6 L84.7,229.1 L95.0,228.5 L105.3,227.3 L115.6,231.4 L126.0,229.5 L136.3,231.4 L146.6,226.9 L156.9,228.7 L167.3,229.3 L177.6,228.1 L187.9,228.3 L198.2,228.7 L208.6,227.6 L218.9,228.6 L229.2,228.3 L239.6,227.5 L249.9,225.6 L260.2,223.9 L270.5,230.1 L280.9,225.4 L291.2,225.0 L301.5,225.5 L311.8,237.1 L322.2,236.6 L332.5,241.7 L342.8,238.1 L353.1,240.2 L363.5,237.6 L373.8,238.8 L384.1,238.1 L394.4,238.5 L404.8,238.1 L415.1,239.0 L425.4,242.7 L435.8,238.7 L446.1,236.6 L456.4,238.3 L466.7,240.0 L477.1,236.7 L487.4,237.2 L497.7,240.6 L508.0,243.3 L518.4,236.7 L528.7,239.4 L539.0,238.7 L549.3,240.0 L559.7,221.2 L570.0,223.7" fill="none" stroke="#222255" stroke-width="1.6"/><circle cx="64.0" cy="231.6" r="2" fill="#222255"/><circle cx="74.3" cy="225.6" r="2" fill="#222255"/><circle cx="84.7" cy="229.1" r="2" fill="#222255"/><circle cx="95.0" cy="228.5" r="2" fill="#222255"/><circle cx="105.3" cy="227.3" r="2" fill="#222255"/><circle cx="115.6" cy="231.4" r="2" fill="#222255"/><circle cx="126.0" cy="229.5" r="2" fill="#222255"/><circle cx="136.3" cy="231.4" r="2" fill="#222255"/><circle cx="146.6" cy="226.9" r="2" fill="#222255"/><circle cx="156.9" cy="228.7" r="2" fill="#222255"/><circle cx="167.3" cy="229.3" r="2" fill="#222255"/><circle cx="177.6" cy="228.1" r="2" fill="#222255"/><circle cx="187.9" cy="228.3" r="2" fill="#222255"/><circle cx="198.2" cy="228.7" r="2" fill="#222255"/><circle cx="208.6" cy="227.6" r="2" fill="#222255"/><circle cx="218.9" cy="228.6" r="2" fill="#222255"/><circle cx="229.2" cy="228.3" r="2" fill="#222255"/><circle cx="239.6" cy="227.5" r="2" fill="#222255"/><circle cx="249.9" cy="225.6" r="2" fill="#222255"/><circle cx="260.2" cy="223.9" r="2" fill="#222255"/><circle cx="270.5" cy="230.1" r="2" fill="#222255"/><circle cx="280.9" cy="225.4" r="2" fill="#222255"/><circle cx="291.2" cy="225.0" r="2" fill="#222255"/><circle cx="301.5" cy="225.5" r="2" fill="#222255"/><circle cx="311.8" cy="237.1" r="2" fill="#222255"/><circle cx="322.2" cy="236.6" r="2" fill="#222255"/><circle cx="332.5" cy="241.7" r="2" fill="#222255"/><circle cx="342.8" cy="238.1" r="2" fill="#222255"/><circle cx="353.1" cy="240.2" r="2" fill="#222255"/><circle cx="363.5" cy="237.6" r="2" fill="#222255"/><circle cx="373.8" cy="238.8" r="2" fill="#222255"/><circle cx="384.1" cy="238.1" r="2" fill="#222255"/><circle cx="394.4" cy="238.5" r="2" fill="#222255"/><circle cx="404.8" cy="238.1" r="2" fill="#222255"/><circle cx="415.1" cy="239.0" r="2" fill="#222255"/><circle cx="425.4" cy="242.7" r="2" fill="#222255"/><circle cx="435.8" cy="238.7" r="2" fill="#222255"/><circle cx="446.1" cy="236.6" r="2" fill="#222255"/><circle cx="456.4" cy="238.3" r="2" fill="#222255"/><circle cx="466.7" cy="240.0" r="2" fill="#222255"/><circle cx="477.1" cy="236.7" r="2" fill="#222255"/><circle cx="487.4" cy="237.2" r="2" fill="#222255"/><circle cx="497.7" cy="240.6" r="2" fill="#222255"/><circle cx="508.0" cy="243.3" r="2" fill="#222255"/><circle cx="518.4" cy="236.7" r="2" fill="#222255"/><circle cx="528.7" cy="239.4" r="2" fill="#222255"/><circle cx="539.0" cy="238.7" r="2" fill="#222255"/><circle cx="549.3" cy="240.0" r="2" fill="#222255"/><circle cx="559.7" cy="221.2" r="2" fill="#222255"/><circle cx="570.0" cy="223.7" r="2" fill="#222255"/><rect x="580" y="139" width="10" height="10" fill="#222255"/><text x="594" y="148" font-size="10" fill="#444">hub-50</text><path d="M64.0,285.1 L74.3,285.2 L84.7,285.5 L95.0,285.3 L105.3,284.6 L115.6,285.7 L126.0,285.2 L136.3,285.7 L146.6,285.2 L156.9,284.8 L167.3,285.2 L177.6,285.0 L187.9,284.8 L198.2,285.2 L208.6,284.8 L218.9,285.1 L229.2,285.6 L239.6,285.1 L249.9,283.8 L260.2,283.7 L270.5,285.0 L280.9,284.8 L291.2,284.0 L301.5,283.9 L311.8,285.8 L322.2,285.1 L332.5,286.2 L342.8,286.1 L353.1,284.7 L363.5,286.0 L373.8,286.0 L384.1,286.4 L394.4,285.8 L404.8,286.7 L415.1,286.8 L425.4,287.0 L435.8,285.5 L446.1,285.8 L456.4,285.9 L466.7,286.6 L477.1,286.1 L487.4,286.4 L497.7,286.5 L508.0,286.7 L518.4,285.8 L528.7,287.2 L539.0,285.9 L549.3,286.7 L559.7,284.7 L570.0,283.3" fill="none" stroke="#225555" stroke-width="1.6"/><circle cx="64.0" cy="285.1" r="2" fill="#225555"/><circle cx="74.3" cy="285.2" r="2" fill="#225555"/><circle cx="84.7" cy="285.5" r="2" fill="#225555"/><circle cx="95.0" cy="285.3" r="2" fill="#225555"/><circle cx="105.3" cy="284.6" r="2" fill="#225555"/><circle cx="115.6" cy="285.7" r="2" fill="#225555"/><circle cx="126.0" cy="285.2" r="2" fill="#225555"/><circle cx="136.3" cy="285.7" r="2" fill="#225555"/><circle cx="146.6" cy="285.2" r="2" fill="#225555"/><circle cx="156.9" cy="284.8" r="2" fill="#225555"/><circle cx="167.3" cy="285.2" r="2" fill="#225555"/><circle cx="177.6" cy="285.0" r="2" fill="#225555"/><circle cx="187.9" cy="284.8" r="2" fill="#225555"/><circle cx="198.2" cy="285.2" r="2" fill="#225555"/><circle cx="208.6" cy="284.8" r="2" fill="#225555"/><circle cx="218.9" cy="285.1" r="2" fill="#225555"/><circle cx="229.2" cy="285.6" r="2" fill="#225555"/><circle cx="239.6" cy="285.1" r="2" fill="#225555"/><circle cx="249.9" cy="283.8" r="2" fill="#225555"/><circle cx="260.2" cy="283.7" r="2" fill="#225555"/><circle cx="270.5" cy="285.0" r="2" fill="#225555"/><circle cx="280.9" cy="284.8" r="2" fill="#225555"/><circle cx="291.2" cy="284.0" r="2" fill="#225555"/><circle cx="301.5" cy="283.9" r="2" fill="#225555"/><circle cx="311.8" cy="285.8" r="2" fill="#225555"/><circle cx="322.2" cy="285.1" r="2" fill="#225555"/><circle cx="332.5" cy="286.2" r="2" fill="#225555"/><circle cx="342.8" cy="286.1" r="2" fill="#225555"/><circle cx="353.1" cy="284.7" r="2" fill="#225555"/><circle cx="363.5" cy="286.0" r="2" fill="#225555"/><circle cx="373.8" cy="286.0" r="2" fill="#225555"/><circle cx="384.1" cy="286.4" r="2" fill="#225555"/><circle cx="394.4" cy="285.8" r="2" fill="#225555"/><circle cx="404.8" cy="286.7" r="2" fill="#225555"/><circle cx="415.1" cy="286.8" r="2" fill="#225555"/><circle cx="425.4" cy="287.0" r="2" fill="#225555"/><circle cx="435.8" cy="285.5" r="2" fill="#225555"/><circle cx="446.1" cy="285.8" r="2" fill="#225555"/><circle cx="456.4" cy="285.9" r="2" fill="#225555"/><circle cx="466.7" cy="286.6" r="2" fill="#225555"/><circle cx="477.1" cy="286.1" r="2" fill="#225555"/><circle cx="487.4" cy="286.4" r="2" fill="#225555"/><circle cx="497.7" cy="286.5" r="2" fill="#225555"/><circle cx="508.0" cy="286.7" r="2" fill="#225555"/><circle cx="518.4" cy="285.8" r="2" fill="#225555"/><circle cx="528.7" cy="287.2" r="2" fill="#225555"/><circle cx="539.0" cy="285.9" r="2" fill="#225555"/><circle cx="549.3" cy="286.7" r="2" fill="#225555"/><circle cx="559.7" cy="284.7" r="2" fill="#225555"/><circle cx="570.0" cy="283.3" r="2" fill="#225555"/><rect x="580" y="154" width="10" height="10" fill="#225555"/><text x="594" y="163" font-size="10" fill="#444">hub-200</text><path d="M64.0,285.1 L74.3,285.3 L84.7,285.8 L95.0,284.9 L105.3,284.9 L115.6,286.0 L126.0,285.1 L136.3,285.7 L146.6,285.2 L156.9,284.9 L167.3,285.1 L177.6,285.1 L187.9,284.7 L198.2,285.1 L208.6,284.7 L218.9,285.2 L229.2,285.5 L239.6,285.1 L249.9,283.6 L260.2,283.5 L270.5,284.9 L280.9,284.7 L291.2,283.5 L301.5,283.8 L311.8,285.7 L322.2,285.0 L332.5,286.2 L342.8,286.2 L353.1,284.9 L363.5,286.0 L373.8,286.2 L384.1,286.5 L394.4,285.9 L404.8,286.5 L415.1,286.9 L425.4,287.2 L435.8,285.7 L446.1,285.8 L456.4,286.1 L466.7,287.0 L477.1,286.1 L487.4,286.2 L497.7,285.9 L508.0,286.4 L518.4,285.8 L528.7,286.8 L539.0,285.9 L549.3,286.4 L559.7,284.7 L570.0,283.3" fill="none" stroke="#552222" stroke-width="1.6"/><circle cx="64.0" cy="285.1" r="2" fill="#552222"/><circle cx="74.3" cy="285.3" r="2" fill="#552222"/><circle cx="84.7" cy="285.8" r="2" fill="#552222"/><circle cx="95.0" cy="284.9" r="2" fill="#552222"/><circle cx="105.3" cy="284.9" r="2" fill="#552222"/><circle cx="115.6" cy="286.0" r="2" fill="#552222"/><circle cx="126.0" cy="285.1" r="2" fill="#552222"/><circle cx="136.3" cy="285.7" r="2" fill="#552222"/><circle cx="146.6" cy="285.2" r="2" fill="#552222"/><circle cx="156.9" cy="284.9" r="2" fill="#552222"/><circle cx="167.3" cy="285.1" r="2" fill="#552222"/><circle cx="177.6" cy="285.1" r="2" fill="#552222"/><circle cx="187.9" cy="284.7" r="2" fill="#552222"/><circle cx="198.2" cy="285.1" r="2" fill="#552222"/><circle cx="208.6" cy="284.7" r="2" fill="#552222"/><circle cx="218.9" cy="285.2" r="2" fill="#552222"/><circle cx="229.2" cy="285.5" r="2" fill="#552222"/><circle cx="239.6" cy="285.1" r="2" fill="#552222"/><circle cx="249.9" cy="283.6" r="2" fill="#552222"/><circle cx="260.2" cy="283.5" r="2" fill="#552222"/><circle cx="270.5" cy="284.9" r="2" fill="#552222"/><circle cx="280.9" cy="284.7" r="2" fill="#552222"/><circle cx="291.2" cy="283.5" r="2" fill="#552222"/><circle cx="301.5" cy="283.8" r="2" fill="#552222"/><circle cx="311.8" cy="285.7" r="2" fill="#552222"/><circle cx="322.2" cy="285.0" r="2" fill="#552222"/><circle cx="332.5" cy="286.2" r="2" fill="#552222"/><circle cx="342.8" cy="286.2" r="2" fill="#552222"/><circle cx="353.1" cy="284.9" r="2" fill="#552222"/><circle cx="363.5" cy="286.0" r="2" fill="#552222"/><circle cx="373.8" cy="286.2" r="2" fill="#552222"/><circle cx="384.1" cy="286.5" r="2" fill="#552222"/><circle cx="394.4" cy="285.9" r="2" fill="#552222"/><circle cx="404.8" cy="286.5" r="2" fill="#552222"/><circle cx="415.1" cy="286.9" r="2" fill="#552222"/><circle cx="425.4" cy="287.2" r="2" fill="#552222"/><circle cx="435.8" cy="285.7" r="2" fill="#552222"/><circle cx="446.1" cy="285.8" r="2" fill="#552222"/><circle cx="456.4" cy="286.1" r="2" fill="#552222"/><circle cx="466.7" cy="287.0" r="2" fill="#552222"/><circle cx="477.1" cy="286.1" r="2" fill="#552222"/><circle cx="487.4" cy="286.2" r="2" fill="#552222"/><circle cx="497.7" cy="285.9" r="2" fill="#552222"/><circle cx="508.0" cy="286.4" r="2" fill="#552222"/><circle cx="518.4" cy="285.8" r="2" fill="#552222"/><circle cx="528.7" cy="286.8" r="2" fill="#552222"/><circle cx="539.0" cy="285.9" r="2" fill="#552222"/><circle cx="549.3" cy="286.4" r="2" fill="#552222"/><circle cx="559.7" cy="284.7" r="2" fill="#552222"/><circle cx="570.0" cy="283.3" r="2" fill="#552222"/><rect x="580" y="169" width="10" height="10" fill="#552222"/><text x="594" y="178" font-size="10" fill="#444">hooked-200</text></svg>