<svg width="960" height="372" xmlns="http://www.w3.org/2000/svg"><rect width="960" height="372" fill="#ffffff"/><text x="64" y="20" font-size="15" font-weight="bold" fill="#333">construct() — ops/sec (log scale) by PR / release, c7g.medium</text><line x1="64" y1="297.45883761488875" x2="810" y2="297.45883761488875" stroke="#eee"/><text x="58" y="301.45883761488875" font-size="10" text-anchor="end" fill="#888">1e0</text><line x1="64" y1="230.7624466848048" x2="810" y2="230.7624466848048" stroke="#eee"/><text x="58" y="234.7624466848048" font-size="10" text-anchor="end" fill="#888">1e1</text><line x1="64" y1="164.06605575472076" x2="810" y2="164.06605575472076" stroke="#eee"/><text x="58" y="168.06605575472076" font-size="10" text-anchor="end" fill="#888">1e2</text><line x1="64" y1="97.36966482463674" x2="810" y2="97.36966482463674" stroke="#eee"/><text x="58" y="101.36966482463674" font-size="10" text-anchor="end" fill="#888">1e3</text><text x="64.0" y="340" font-size="9" text-anchor="middle" fill="#888">598</text><text x="126.2" y="340" font-size="9" text-anchor="middle" fill="#888">600</text><text x="188.3" y="340" font-size="9" text-anchor="middle" fill="#888">602</text><text x="250.5" y="340" font-size="9" text-anchor="middle" fill="#888">604</text><text x="312.7" y="340" font-size="9" text-anchor="middle" fill="#888">611</text><text x="374.8" y="340" font-size="9" text-anchor="middle" fill="#888">616</text><text x="437.0" y="340" font-size="9" text-anchor="middle" fill="#888">618</text><text x="499.2" y="340" font-size="9" text-anchor="middle" fill="#888">634</text><text x="561.3" y="340" font-size="9" text-anchor="middle" fill="#888">649</text><text x="623.5" y="340" font-size="9" text-anchor="middle" fill="#888">674</text><text x="685.7" y="340" font-size="9" text-anchor="middle" fill="#888">679</text><text x="747.8" y="340" font-size="9" text-anchor="middle" fill="#888">681</text><text x="810.0" y="340" font-size="9" text-anchor="end" fill="#a40" transform="rotate(-35 810.0 340)">v5.143.30</text><path d="M64.0,42.7 L95.1,40.8 L126.2,41.1 L157.3,40.9 L188.3,41.9 L219.4,40.5 L250.5,41.0 L281.6,42.0 L312.7,42.2 L343.8,42.0 L374.8,39.8 L405.9,40.5 L437.0,40.4 L468.1,42.1 L499.2,41.2 L530.3,36.2 L561.3,34.8 L592.4,34.7 L623.5,34.7 L654.6,34.0 L685.7,34.5 L716.8,34.0 L747.8,35.1 L778.9,73.7 L810.0,34.2" fill="none" stroke="#4477AA" stroke-width="1.6"/><circle cx="64.0" cy="42.7" r="2" fill="#4477AA"/><circle cx="95.1" cy="40.8" r="2" fill="#4477AA"/><circle cx="126.2" cy="41.1" r="2" fill="#4477AA"/><circle cx="157.3" cy="40.9" r="2" fill="#4477AA"/><circle cx="188.3" cy="41.9" r="2" fill="#4477AA"/><circle cx="219.4" cy="40.5" r="2" fill="#4477AA"/><circle cx="250.5" cy="41.0" r="2" fill="#4477AA"/><circle cx="281.6" cy="42.0" r="2" fill="#4477AA"/><circle cx="312.7" cy="42.2" r="2" fill="#4477AA"/><circle cx="343.8" cy="42.0" r="2" fill="#4477AA"/><circle cx="374.8" cy="39.8" r="2" fill="#4477AA"/><circle cx="405.9" cy="40.5" r="2" fill="#4477AA"/><circle cx="437.0" cy="40.4" r="2" fill="#4477AA"/><circle cx="468.1" cy="42.1" r="2" fill="#4477AA"/><circle cx="499.2" cy="41.2" r="2" fill="#4477AA"/><circle cx="530.3" cy="36.2" r="2" fill="#4477AA"/><circle cx="561.3" cy="34.8" r="2" fill="#4477AA"/><circle cx="592.4" cy="34.7" r="2" fill="#4477AA"/><circle cx="623.5" cy="34.7" r="2" fill="#4477AA"/><circle cx="654.6" cy="34.0" r="2" fill="#4477AA"/><circle cx="685.7" cy="34.5" r="2" fill="#4477AA"/><circle cx="716.8" cy="34.0" r="2" fill="#4477AA"/><circle cx="747.8" cy="35.1" r="2" fill="#4477AA"/><circle cx="778.9" cy="73.7" r="2" fill="#4477AA"/><circle cx="810.0" cy="34.2" r="2" fill="#4477AA"/><rect x="820" y="34" width="10" height="10" fill="#4477AA"/><text x="834" y="43" font-size="10" fill="#444">chain-10</text><path d="M64.0,73.4 L95.1,67.5 L126.2,70.8 L157.3,69.3 L188.3,70.1 L219.4,66.7 L250.5,73.5 L281.6,70.9 L312.7,67.7 L343.8,68.5 L374.8,68.9 L405.9,69.9 L437.0,70.1 L468.1,73.2 L499.2,71.2 L530.3,70.0 L561.3,70.9 L592.4,71.7 L623.5,72.7 L654.6,67.4 L685.7,70.0 L716.8,69.8 L747.8,70.0 L778.9,113.0 L810.0,64.5" fill="none" stroke="#EE6677" stroke-width="1.6"/><circle cx="64.0" cy="73.4" r="2" fill="#EE6677"/><circle cx="95.1" cy="67.5" r="2" fill="#EE6677"/><circle cx="126.2" cy="70.8" r="2" fill="#EE6677"/><circle cx="157.3" cy="69.3" r="2" fill="#EE6677"/><circle cx="188.3" cy="70.1" r="2" fill="#EE6677"/><circle cx="219.4" cy="66.7" r="2" fill="#EE6677"/><circle cx="250.5" cy="73.5" r="2" fill="#EE6677"/><circle cx="281.6" cy="70.9" r="2" fill="#EE6677"/><circle cx="312.7" cy="67.7" r="2" fill="#EE6677"/><circle cx="343.8" cy="68.5" r="2" fill="#EE6677"/><circle cx="374.8" cy="68.9" r="2" fill="#EE6677"/><circle cx="405.9" cy="69.9" r="2" fill="#EE6677"/><circle cx="437.0" cy="70.1" r="2" fill="#EE6677"/><circle cx="468.1" cy="73.2" r="2" fill="#EE6677"/><circle cx="499.2" cy="71.2" r="2" fill="#EE6677"/><circle cx="530.3" cy="70.0" r="2" fill="#EE6677"/><circle cx="561.3" cy="70.9" r="2" fill="#EE6677"/><circle cx="592.4" cy="71.7" r="2" fill="#EE6677"/><circle cx="623.5" cy="72.7" r="2" fill="#EE6677"/><circle cx="654.6" cy="67.4" r="2" fill="#EE6677"/><circle cx="685.7" cy="70.0" r="2" fill="#EE6677"/><circle cx="716.8" cy="69.8" r="2" fill="#EE6677"/><circle cx="747.8" cy="70.0" r="2" fill="#EE6677"/><circle cx="778.9" cy="113.0" r="2" fill="#EE6677"/><circle cx="810.0" cy="64.5" r="2" fill="#EE6677"/><rect x="820" y="49" width="10" height="10" fill="#EE6677"/><text x="834" y="58" font-size="10" fill="#444">chain-50</text><path d="M64.0,109.4 L95.1,104.6 L126.2,105.2 L157.3,106.5 L188.3,105.8 L219.4,106.3 L250.5,105.2 L281.6,105.2 L312.7,108.4 L343.8,109.6 L374.8,109.6 L405.9,109.5 L437.0,105.5 L468.1,109.0 L499.2,110.2 L530.3,108.3 L561.3,108.9 L592.4,109.2 L623.5,109.1 L654.6,109.8 L685.7,108.3 L716.8,108.2 L747.8,109.1 L778.9,156.0 L810.0,102.6" fill="none" stroke="#228833" stroke-width="1.6"/><circle cx="64.0" cy="109.4" r="2" fill="#228833"/><circle cx="95.1" cy="104.6" r="2" fill="#228833"/><circle cx="126.2" cy="105.2" r="2" fill="#228833"/><circle cx="157.3" cy="106.5" r="2" fill="#228833"/><circle cx="188.3" cy="105.8" r="2" fill="#228833"/><circle cx="219.4" cy="106.3" r="2" fill="#228833"/><circle cx="250.5" cy="105.2" r="2" fill="#228833"/><circle cx="281.6" cy="105.2" r="2" fill="#228833"/><circle cx="312.7" cy="108.4" r="2" fill="#228833"/><circle cx="343.8" cy="109.6" r="2" fill="#228833"/><circle cx="374.8" cy="109.6" r="2" fill="#228833"/><circle cx="405.9" cy="109.5" r="2" fill="#228833"/><circle cx="437.0" cy="105.5" r="2" fill="#228833"/><circle cx="468.1" cy="109.0" r="2" fill="#228833"/><circle cx="499.2" cy="110.2" r="2" fill="#228833"/><circle cx="530.3" cy="108.3" r="2" fill="#228833"/><circle cx="561.3" cy="108.9" r="2" fill="#228833"/><circle cx="592.4" cy="109.2" r="2" fill="#228833"/><circle cx="623.5" cy="109.1" r="2" fill="#228833"/><circle cx="654.6" cy="109.8" r="2" fill="#228833"/><circle cx="685.7" cy="108.3" r="2" fill="#228833"/><circle cx="716.8" cy="108.2" r="2" fill="#228833"/><circle cx="747.8" cy="109.1" r="2" fill="#228833"/><circle cx="778.9" cy="156.0" r="2" fill="#228833"/><circle cx="810.0" cy="102.6" r="2" fill="#228833"/><rect x="820" y="64" width="10" height="10" fill="#228833"/><text x="834" y="73" font-size="10" fill="#444">chain-200</text><path d="M64.0,156.5 L95.1,155.6 L126.2,153.4 L157.3,155.4 L188.3,155.5 L219.4,154.9 L250.5,153.9 L281.6,156.9 L312.7,156.5 L343.8,155.6 L374.8,154.9 L405.9,155.8 L437.0,152.3 L468.1,156.5 L499.2,154.9 L530.3,158.3 L561.3,156.2 L592.4,158.3 L623.5,157.6 L654.6,157.7 L685.7,158.1 L716.8,156.7 L747.8,157.8 L778.9,212.2 L810.0,149.7" fill="none" stroke="#CCBB44" stroke-width="1.6"/><circle cx="64.0" cy="156.5" r="2" fill="#CCBB44"/><circle cx="95.1" cy="155.6" r="2" fill="#CCBB44"/><circle cx="126.2" cy="153.4" r="2" fill="#CCBB44"/><circle cx="157.3" cy="155.4" r="2" fill="#CCBB44"/><circle cx="188.3" cy="155.5" r="2" fill="#CCBB44"/><circle cx="219.4" cy="154.9" r="2" fill="#CCBB44"/><circle cx="250.5" cy="153.9" r="2" fill="#CCBB44"/><circle cx="281.6" cy="156.9" r="2" fill="#CCBB44"/><circle cx="312.7" cy="156.5" r="2" fill="#CCBB44"/><circle cx="343.8" cy="155.6" r="2" fill="#CCBB44"/><circle cx="374.8" cy="154.9" r="2" fill="#CCBB44"/><circle cx="405.9" cy="155.8" r="2" fill="#CCBB44"/><circle cx="437.0" cy="152.3" r="2" fill="#CCBB44"/><circle cx="468.1" cy="156.5" r="2" fill="#CCBB44"/><circle cx="499.2" cy="154.9" r="2" fill="#CCBB44"/><circle cx="530.3" cy="158.3" r="2" fill="#CCBB44"/><circle cx="561.3" cy="156.2" r="2" fill="#CCBB44"/><circle cx="592.4" cy="158.3" r="2" fill="#CCBB44"/><circle cx="623.5" cy="157.6" r="2" fill="#CCBB44"/><circle cx="654.6" cy="157.7" r="2" fill="#CCBB44"/><circle cx="685.7" cy="158.1" r="2" fill="#CCBB44"/><circle cx="716.8" cy="156.7" r="2" fill="#CCBB44"/><circle cx="747.8" cy="157.8" r="2" fill="#CCBB44"/><circle cx="778.9" cy="212.2" r="2" fill="#CCBB44"/><circle cx="810.0" cy="149.7" r="2" fill="#CCBB44"/><rect x="820" y="79" width="10" height="10" fill="#CCBB44"/><text x="834" y="88" font-size="10" fill="#444">chain-1000</text><path d="M64.0,79.6 L95.1,80.9 L126.2,80.0 L157.3,79.9 L188.3,79.1 L219.4,78.2 L250.5,80.2 L281.6,81.6 L312.7,80.4 L343.8,79.6 L374.8,78.8 L405.9,79.6 L437.0,83.2 L468.1,80.5 L499.2,80.6 L530.3,80.5 L561.3,78.7 L592.4,80.9 L623.5,79.3 L654.6,77.7 L685.7,78.8 L716.8,79.6 L747.8,79.4 L778.9,160.8 L810.0,75.8" fill="none" stroke="#66CCEE" stroke-width="1.6"/><circle cx="64.0" cy="79.6" r="2" fill="#66CCEE"/><circle cx="95.1" cy="80.9" r="2" fill="#66CCEE"/><circle cx="126.2" cy="80.0" r="2" fill="#66CCEE"/><circle cx="157.3" cy="79.9" r="2" fill="#66CCEE"/><circle cx="188.3" cy="79.1" r="2" fill="#66CCEE"/><circle cx="219.4" cy="78.2" r="2" fill="#66CCEE"/><circle cx="250.5" cy="80.2" r="2" fill="#66CCEE"/><circle cx="281.6" cy="81.6" r="2" fill="#66CCEE"/><circle cx="312.7" cy="80.4" r="2" fill="#66CCEE"/><circle cx="343.8" cy="79.6" r="2" fill="#66CCEE"/><circle cx="374.8" cy="78.8" r="2" fill="#66CCEE"/><circle cx="405.9" cy="79.6" r="2" fill="#66CCEE"/><circle cx="437.0" cy="83.2" r="2" fill="#66CCEE"/><circle cx="468.1" cy="80.5" r="2" fill="#66CCEE"/><circle cx="499.2" cy="80.6" r="2" fill="#66CCEE"/><circle cx="530.3" cy="80.5" r="2" fill="#66CCEE"/><circle cx="561.3" cy="78.7" r="2" fill="#66CCEE"/><circle cx="592.4" cy="80.9" r="2" fill="#66CCEE"/><circle cx="623.5" cy="79.3" r="2" fill="#66CCEE"/><circle cx="654.6" cy="77.7" r="2" fill="#66CCEE"/><circle cx="685.7" cy="78.8" r="2" fill="#66CCEE"/><circle cx="716.8" cy="79.6" r="2" fill="#66CCEE"/><circle cx="747.8" cy="79.4" r="2" fill="#66CCEE"/><circle cx="778.9" cy="160.8" r="2" fill="#66CCEE"/><circle cx="810.0" cy="75.8" r="2" fill="#66CCEE"/><rect x="820" y="94" width="10" height="10" fill="#66CCEE"/><text x="834" y="103" font-size="10" fill="#444">dense-10</text><path d="M64.0,179.3 L95.1,180.3 L126.2,176.3 L157.3,177.9 L188.3,178.7 L219.4,176.5 L250.5,178.9 L281.6,179.9 L312.7,179.3 L343.8,178.9 L374.8,178.4 L405.9,178.4 L437.0,176.5 L468.1,178.9 L499.2,179.3 L530.3,180.3 L561.3,178.4 L592.4,178.9 L623.5,177.9 L654.6,178.6 L685.7,179.3 L716.8,178.4 L747.8,178.9 L778.9,265.6 L810.0,168.8" fill="none" stroke="#AA3377" stroke-width="1.6"/><circle cx="64.0" cy="179.3" r="2" fill="#AA3377"/><circle cx="95.1" cy="180.3" r="2" fill="#AA3377"/><circle cx="126.2" cy="176.3" r="2" fill="#AA3377"/><circle cx="157.3" cy="177.9" r="2" fill="#AA3377"/><circle cx="188.3" cy="178.7" r="2" fill="#AA3377"/><circle cx="219.4" cy="176.5" r="2" fill="#AA3377"/><circle cx="250.5" cy="178.9" r="2" fill="#AA3377"/><circle cx="281.6" cy="179.9" r="2" fill="#AA3377"/><circle cx="312.7" cy="179.3" r="2" fill="#AA3377"/><circle cx="343.8" cy="178.9" r="2" fill="#AA3377"/><circle cx="374.8" cy="178.4" r="2" fill="#AA3377"/><circle cx="405.9" cy="178.4" r="2" fill="#AA3377"/><circle cx="437.0" cy="176.5" r="2" fill="#AA3377"/><circle cx="468.1" cy="178.9" r="2" fill="#AA3377"/><circle cx="499.2" cy="179.3" r="2" fill="#AA3377"/><circle cx="530.3" cy="180.3" r="2" fill="#AA3377"/><circle cx="561.3" cy="178.4" r="2" fill="#AA3377"/><circle cx="592.4" cy="178.9" r="2" fill="#AA3377"/><circle cx="623.5" cy="177.9" r="2" fill="#AA3377"/><circle cx="654.6" cy="178.6" r="2" fill="#AA3377"/><circle cx="685.7" cy="179.3" r="2" fill="#AA3377"/><circle cx="716.8" cy="178.4" r="2" fill="#AA3377"/><circle cx="747.8" cy="178.9" r="2" fill="#AA3377"/><circle cx="778.9" cy="265.6" r="2" fill="#AA3377"/><circle cx="810.0" cy="168.8" r="2" fill="#AA3377"/><rect x="820" y="109" width="10" height="10" fill="#AA3377"/><text x="834" y="118" font-size="10" fill="#444">dense-50</text><path d="M126.2,324.0 L188.3,324.0 L281.6,324.0 L654.6,324.0 L810.0,250.8" fill="none" stroke="#BBBBBB" stroke-width="1.6"/><circle cx="126.2" cy="324.0" r="2" fill="#BBBBBB"/><circle cx="188.3" cy="324.0" r="2" fill="#BBBBBB"/><circle cx="281.6" cy="324.0" r="2" fill="#BBBBBB"/><circle cx="654.6" cy="324.0" r="2" fill="#BBBBBB"/><circle cx="810.0" cy="250.8" r="2" fill="#BBBBBB"/><rect x="820" y="124" width="10" height="10" fill="#BBBBBB"/><text x="834" y="133" font-size="10" fill="#444">dense-200</text><path d="M64.0,88.4 L95.1,91.6 L126.2,89.4 L157.3,86.7 L188.3,89.5 L219.4,90.8 L250.5,87.2 L281.6,88.7 L312.7,88.0 L343.8,88.3 L374.8,89.2 L405.9,88.0 L437.0,86.8 L468.1,89.6 L499.2,89.7 L530.3,93.6 L561.3,88.0 L592.4,86.0 L623.5,89.5 L654.6,89.6 L685.7,91.4 L716.8,90.2 L747.8,87.1 L778.9,162.1 L810.0,81.1" fill="none" stroke="#222255" stroke-width="1.6"/><circle cx="64.0" cy="88.4" r="2" fill="#222255"/><circle cx="95.1" cy="91.6" r="2" fill="#222255"/><circle cx="126.2" cy="89.4" r="2" fill="#222255"/><circle cx="157.3" cy="86.7" r="2" fill="#222255"/><circle cx="188.3" cy="89.5" r="2" fill="#222255"/><circle cx="219.4" cy="90.8" r="2" fill="#222255"/><circle cx="250.5" cy="87.2" r="2" fill="#222255"/><circle cx="281.6" cy="88.7" r="2" fill="#222255"/><circle cx="312.7" cy="88.0" r="2" fill="#222255"/><circle cx="343.8" cy="88.3" r="2" fill="#222255"/><circle cx="374.8" cy="89.2" r="2" fill="#222255"/><circle cx="405.9" cy="88.0" r="2" fill="#222255"/><circle cx="437.0" cy="86.8" r="2" fill="#222255"/><circle cx="468.1" cy="89.6" r="2" fill="#222255"/><circle cx="499.2" cy="89.7" r="2" fill="#222255"/><circle cx="530.3" cy="93.6" r="2" fill="#222255"/><circle cx="561.3" cy="88.0" r="2" fill="#222255"/><circle cx="592.4" cy="86.0" r="2" fill="#222255"/><circle cx="623.5" cy="89.5" r="2" fill="#222255"/><circle cx="654.6" cy="89.6" r="2" fill="#222255"/><circle cx="685.7" cy="91.4" r="2" fill="#222255"/><circle cx="716.8" cy="90.2" r="2" fill="#222255"/><circle cx="747.8" cy="87.1" r="2" fill="#222255"/><circle cx="778.9" cy="162.1" r="2" fill="#222255"/><circle cx="810.0" cy="81.1" r="2" fill="#222255"/><rect x="820" y="139" width="10" height="10" fill="#222255"/><text x="834" y="148" font-size="10" fill="#444">hub-50</text><path d="M64.0,129.7 L95.1,127.6 L126.2,127.5 L157.3,127.4 L188.3,128.4 L219.4,127.2 L250.5,126.8 L281.6,128.0 L312.7,126.4 L343.8,128.5 L374.8,126.9 L405.9,128.7 L437.0,128.2 L468.1,129.1 L499.2,129.3 L530.3,130.8 L561.3,127.0 L592.4,128.7 L623.5,128.5 L654.6,128.7 L685.7,128.4 L716.8,127.9 L747.8,127.5 L778.9,207.9 L810.0,119.3" fill="none" stroke="#225555" stroke-width="1.6"/><circle cx="64.0" cy="129.7" r="2" fill="#225555"/><circle cx="95.1" cy="127.6" r="2" fill="#225555"/><circle cx="126.2" cy="127.5" r="2" fill="#225555"/><circle cx="157.3" cy="127.4" r="2" fill="#225555"/><circle cx="188.3" cy="128.4" r="2" fill="#225555"/><circle cx="219.4" cy="127.2" r="2" fill="#225555"/><circle cx="250.5" cy="126.8" r="2" fill="#225555"/><circle cx="281.6" cy="128.0" r="2" fill="#225555"/><circle cx="312.7" cy="126.4" r="2" fill="#225555"/><circle cx="343.8" cy="128.5" r="2" fill="#225555"/><circle cx="374.8" cy="126.9" r="2" fill="#225555"/><circle cx="405.9" cy="128.7" r="2" fill="#225555"/><circle cx="437.0" cy="128.2" r="2" fill="#225555"/><circle cx="468.1" cy="129.1" r="2" fill="#225555"/><circle cx="499.2" cy="129.3" r="2" fill="#225555"/><circle cx="530.3" cy="130.8" r="2" fill="#225555"/><circle cx="561.3" cy="127.0" r="2" fill="#225555"/><circle cx="592.4" cy="128.7" r="2" fill="#225555"/><circle cx="623.5" cy="128.5" r="2" fill="#225555"/><circle cx="654.6" cy="128.7" r="2" fill="#225555"/><circle cx="685.7" cy="128.4" r="2" fill="#225555"/><circle cx="716.8" cy="127.9" r="2" fill="#225555"/><circle cx="747.8" cy="127.5" r="2" fill="#225555"/><circle cx="778.9" cy="207.9" r="2" fill="#225555"/><circle cx="810.0" cy="119.3" r="2" fill="#225555"/><rect x="820" y="154" width="10" height="10" fill="#225555"/><text x="834" y="163" font-size="10" fill="#444">hub-200</text><path d="M64.0,129.8 L95.1,129.4 L126.2,127.4 L157.3,127.7 L188.3,127.3 L219.4,129.0 L250.5,127.0 L281.6,128.0 L312.7,129.7 L343.8,128.9 L374.8,126.7 L405.9,127.9 L437.0,126.3 L468.1,129.0 L499.2,127.5 L530.3,131.2 L561.3,129.7 L592.4,126.8 L623.5,129.3 L654.6,128.0 L685.7,129.1 L716.8,130.9 L747.8,127.8 L778.9,209.3 L810.0,119.4" fill="none" stroke="#552222" stroke-width="1.6"/><circle cx="64.0" cy="129.8" r="2" fill="#552222"/><circle cx="95.1" cy="129.4" r="2" fill="#552222"/><circle cx="126.2" cy="127.4" r="2" fill="#552222"/><circle cx="157.3" cy="127.7" r="2" fill="#552222"/><circle cx="188.3" cy="127.3" r="2" fill="#552222"/><circle cx="219.4" cy="129.0" r="2" fill="#552222"/><circle cx="250.5" cy="127.0" r="2" fill="#552222"/><circle cx="281.6" cy="128.0" r="2" fill="#552222"/><circle cx="312.7" cy="129.7" r="2" fill="#552222"/><circle cx="343.8" cy="128.9" r="2" fill="#552222"/><circle cx="374.8" cy="126.7" r="2" fill="#552222"/><circle cx="405.9" cy="127.9" r="2" fill="#552222"/><circle cx="437.0" cy="126.3" r="2" fill="#552222"/><circle cx="468.1" cy="129.0" r="2" fill="#552222"/><circle cx="499.2" cy="127.5" r="2" fill="#552222"/><circle cx="530.3" cy="131.2" r="2" fill="#552222"/><circle cx="561.3" cy="129.7" r="2" fill="#552222"/><circle cx="592.4" cy="126.8" r="2" fill="#552222"/><circle cx="623.5" cy="129.3" r="2" fill="#552222"/><circle cx="654.6" cy="128.0" r="2" fill="#552222"/><circle cx="685.7" cy="129.1" r="2" fill="#552222"/><circle cx="716.8" cy="130.9" r="2" fill="#552222"/><circle cx="747.8" cy="127.8" r="2" fill="#552222"/><circle cx="778.9" cy="209.3" r="2" fill="#552222"/><circle cx="810.0" cy="119.4" r="2" fill="#552222"/><rect x="820" y="169" width="10" height="10" fill="#552222"/><text x="834" y="178" font-size="10" fill="#444">hooked-200</text><path d="M64.0,189.2 L95.1,187.2 L126.2,187.6 L157.3,189.2 L188.3,185.8 L219.4,191.3 L250.5,188.5 L281.6,188.0 L312.7,189.2 L343.8,187.8 L374.8,187.8 L405.9,189.2 L437.0,187.8 L468.1,190.6 L499.2,188.5 L530.3,189.9 L561.3,189.9 L592.4,189.2 L623.5,189.9 L654.6,188.2 L685.7,191.3 L716.8,191.3 L747.8,189.2 L778.9,245.6 L810.0,180.9" fill="none" stroke="#555522" stroke-width="1.6"/><circle cx="64.0" cy="189.2" r="2" fill="#555522"/><circle cx="95.1" cy="187.2" r="2" fill="#555522"/><circle cx="126.2" cy="187.6" r="2" fill="#555522"/><circle cx="157.3" cy="189.2" r="2" fill="#555522"/><circle cx="188.3" cy="185.8" r="2" fill="#555522"/><circle cx="219.4" cy="191.3" r="2" fill="#555522"/><circle cx="250.5" cy="188.5" r="2" fill="#555522"/><circle cx="281.6" cy="188.0" r="2" fill="#555522"/><circle cx="312.7" cy="189.2" r="2" fill="#555522"/><circle cx="343.8" cy="187.8" r="2" fill="#555522"/><circle cx="374.8" cy="187.8" r="2" fill="#555522"/><circle cx="405.9" cy="189.2" r="2" fill="#555522"/><circle cx="437.0" cy="187.8" r="2" fill="#555522"/><circle cx="468.1" cy="190.6" r="2" fill="#555522"/><circle cx="499.2" cy="188.5" r="2" fill="#555522"/><circle cx="530.3" cy="189.9" r="2" fill="#555522"/><circle cx="561.3" cy="189.9" r="2" fill="#555522"/><circle cx="592.4" cy="189.2" r="2" fill="#555522"/><circle cx="623.5" cy="189.9" r="2" fill="#555522"/><circle cx="654.6" cy="188.2" r="2" fill="#555522"/><circle cx="685.7" cy="191.3" r="2" fill="#555522"/><circle cx="716.8" cy="191.3" r="2" fill="#555522"/><circle cx="747.8" cy="189.2" r="2" fill="#555522"/><circle cx="778.9" cy="245.6" r="2" fill="#555522"/><circle cx="810.0" cy="180.9" r="2" fill="#555522"/><rect x="820" y="184" width="10" height="10" fill="#555522"/><text x="834" y="193" font-size="10" fill="#444">messy-1000</text><path d="M64.0,245.6 L95.1,245.6 L126.2,246.0 L157.3,245.6 L188.3,244.1 L219.4,245.6 L250.5,245.6 L281.6,244.1 L312.7,245.6 L343.8,245.6 L374.8,245.6 L405.9,245.6 L437.0,245.6 L468.1,245.6 L499.2,245.6 L530.3,245.6 L561.3,245.6 L592.4,245.6 L623.5,245.6 L654.6,245.6 L685.7,245.6 L716.8,245.6 L747.8,245.6 L778.9,297.5 L810.0,228.0" fill="none" stroke="#8855AA" stroke-width="1.6"/><circle cx="64.0" cy="245.6" r="2" fill="#8855AA"/><circle cx="95.1" cy="245.6" r="2" fill="#8855AA"/><circle cx="126.2" cy="246.0" r="2" fill="#8855AA"/><circle cx="157.3" cy="245.6" r="2" fill="#8855AA"/><circle cx="188.3" cy="244.1" r="2" fill="#8855AA"/><circle cx="219.4" cy="245.6" r="2" fill="#8855AA"/><circle cx="250.5" cy="245.6" r="2" fill="#8855AA"/><circle cx="281.6" cy="244.1" r="2" fill="#8855AA"/><circle cx="312.7" cy="245.6" r="2" fill="#8855AA"/><circle cx="343.8" cy="245.6" r="2" fill="#8855AA"/><circle cx="374.8" cy="245.6" r="2" fill="#8855AA"/><circle cx="405.9" cy="245.6" r="2" fill="#8855AA"/><circle cx="437.0" cy="245.6" r="2" fill="#8855AA"/><circle cx="468.1" cy="245.6" r="2" fill="#8855AA"/><circle cx="499.2" cy="245.6" r="2" fill="#8855AA"/><circle cx="530.3" cy="245.6" r="2" fill="#8855AA"/><circle cx="561.3" cy="245.6" r="2" fill="#8855AA"/><circle cx="592.4" cy="245.6" r="2" fill="#8855AA"/><circle cx="623.5" cy="245.6" r="2" fill="#8855AA"/><circle cx="654.6" cy="245.6" r="2" fill="#8855AA"/><circle cx="685.7" cy="245.6" r="2" fill="#8855AA"/><circle cx="716.8" cy="245.6" r="2" fill="#8855AA"/><circle cx="747.8" cy="245.6" r="2" fill="#8855AA"/><circle cx="778.9" cy="297.5" r="2" fill="#8855AA"/><circle cx="810.0" cy="228.0" r="2" fill="#8855AA"/><rect x="820" y="199" width="10" height="10" fill="#8855AA"/><text x="834" y="208" font-size="10" fill="#444">messy-5000</text></svg>