<svg width="960" height="372" xmlns="http://www.w3.org/2000/svg"><rect width="960" height="372" fill="#ffffff"/><text x="64" y="20" font-size="15" font-weight="bold" fill="#333">edges_between() — ops/sec (log scale) by PR / release, c7g.medium</text><line x1="64" y1="297.3805218920668" x2="810" y2="297.3805218920668" stroke="#eee"/><text x="58" y="301.3805218920668" font-size="10" text-anchor="end" fill="#888">1e2</text><line x1="64" y1="218.44769376839338" x2="810" y2="218.44769376839338" stroke="#eee"/><text x="58" y="222.44769376839338" font-size="10" text-anchor="end" fill="#888">1e3</text><line x1="64" y1="139.51486564472" x2="810" y2="139.51486564472" stroke="#eee"/><text x="58" y="143.51486564472" font-size="10" text-anchor="end" fill="#888">1e4</text><line x1="64" y1="60.58203752104663" x2="810" y2="60.58203752104663" stroke="#eee"/><text x="58" y="64.58203752104663" font-size="10" text-anchor="end" fill="#888">1e5</text><text x="64.0" y="340" font-size="9" text-anchor="middle" fill="#888">598</text><text x="126.2" y="340" font-size="9" text-anchor="middle" fill="#888">600</text><text x="188.3" y="340" font-size="9" text-anchor="middle" fill="#888">602</text><text x="250.5" y="340" font-size="9" text-anchor="middle" fill="#888">604</text><text x="312.7" y="340" font-size="9" text-anchor="middle" fill="#888">611</text><text x="374.8" y="340" font-size="9" text-anchor="middle" fill="#888">616</text><text x="437.0" y="340" font-size="9" text-anchor="middle" fill="#888">618</text><text x="499.2" y="340" font-size="9" text-anchor="middle" fill="#888">634</text><text x="561.3" y="340" font-size="9" text-anchor="middle" fill="#888">649</text><text x="623.5" y="340" font-size="9" text-anchor="middle" fill="#888">674</text><text x="685.7" y="340" font-size="9" text-anchor="middle" fill="#888">679</text><text x="747.8" y="340" font-size="9" text-anchor="middle" fill="#888">681</text><text x="810.0" y="340" font-size="9" text-anchor="end" fill="#a40" transform="rotate(-35 810.0 340)">v5.143.30</text><path d="M64.0,62.0 L95.1,61.9 L126.2,61.5 L157.3,61.9 L188.3,62.4 L219.4,63.0 L250.5,61.7 L281.6,61.8 L312.7,62.4 L343.8,62.3 L374.8,62.1 L405.9,62.2 L437.0,61.6 L468.1,62.0 L499.2,62.4 L530.3,38.2 L561.3,34.0 L592.4,36.4 L623.5,37.8 L654.6,34.8 L685.7,37.2 L716.8,35.3 L747.8,36.1 L778.9,42.4 L810.0,43.9" fill="none" stroke="#4477AA" stroke-width="1.6"/><circle cx="64.0" cy="62.0" r="2" fill="#4477AA"/><circle cx="95.1" cy="61.9" r="2" fill="#4477AA"/><circle cx="126.2" cy="61.5" r="2" fill="#4477AA"/><circle cx="157.3" cy="61.9" r="2" fill="#4477AA"/><circle cx="188.3" cy="62.4" r="2" fill="#4477AA"/><circle cx="219.4" cy="63.0" r="2" fill="#4477AA"/><circle cx="250.5" cy="61.7" r="2" fill="#4477AA"/><circle cx="281.6" cy="61.8" r="2" fill="#4477AA"/><circle cx="312.7" cy="62.4" r="2" fill="#4477AA"/><circle cx="343.8" cy="62.3" r="2" fill="#4477AA"/><circle cx="374.8" cy="62.1" r="2" fill="#4477AA"/><circle cx="405.9" cy="62.2" r="2" fill="#4477AA"/><circle cx="437.0" cy="61.6" r="2" fill="#4477AA"/><circle cx="468.1" cy="62.0" r="2" fill="#4477AA"/><circle cx="499.2" cy="62.4" r="2" fill="#4477AA"/><circle cx="530.3" cy="38.2" r="2" fill="#4477AA"/><circle cx="561.3" cy="34.0" r="2" fill="#4477AA"/><circle cx="592.4" cy="36.4" r="2" fill="#4477AA"/><circle cx="623.5" cy="37.8" r="2" fill="#4477AA"/><circle cx="654.6" cy="34.8" r="2" fill="#4477AA"/><circle cx="685.7" cy="37.2" r="2" fill="#4477AA"/><circle cx="716.8" cy="35.3" r="2" fill="#4477AA"/><circle cx="747.8" cy="36.1" r="2" fill="#4477AA"/><circle cx="778.9" cy="42.4" r="2" fill="#4477AA"/><circle cx="810.0" cy="43.9" r="2" fill="#4477AA"/><rect x="820" y="34" width="10" height="10" fill="#4477AA"/><text x="834" y="43" font-size="10" fill="#444">chain-10</text><path d="M64.0,95.2 L95.1,95.3 L126.2,95.3 L157.3,95.3 L188.3,94.9 L219.4,95.1 L250.5,95.1 L281.6,95.2 L312.7,95.3 L343.8,95.4 L374.8,95.7 L405.9,95.2 L437.0,95.0 L468.1,95.1 L499.2,95.1 L530.3,38.9 L561.3,41.1 L592.4,41.3 L623.5,41.4 L654.6,40.1 L685.7,39.3 L716.8,40.2 L747.8,38.8 L778.9,40.2 L810.0,47.0" fill="none" stroke="#EE6677" stroke-width="1.6"/><circle cx="64.0" cy="95.2" r="2" fill="#EE6677"/><circle cx="95.1" cy="95.3" r="2" fill="#EE6677"/><circle cx="126.2" cy="95.3" r="2" fill="#EE6677"/><circle cx="157.3" cy="95.3" r="2" fill="#EE6677"/><circle cx="188.3" cy="94.9" r="2" fill="#EE6677"/><circle cx="219.4" cy="95.1" r="2" fill="#EE6677"/><circle cx="250.5" cy="95.1" r="2" fill="#EE6677"/><circle cx="281.6" cy="95.2" r="2" fill="#EE6677"/><circle cx="312.7" cy="95.3" r="2" fill="#EE6677"/><circle cx="343.8" cy="95.4" r="2" fill="#EE6677"/><circle cx="374.8" cy="95.7" r="2" fill="#EE6677"/><circle cx="405.9" cy="95.2" r="2" fill="#EE6677"/><circle cx="437.0" cy="95.0" r="2" fill="#EE6677"/><circle cx="468.1" cy="95.1" r="2" fill="#EE6677"/><circle cx="499.2" cy="95.1" r="2" fill="#EE6677"/><circle cx="530.3" cy="38.9" r="2" fill="#EE6677"/><circle cx="561.3" cy="41.1" r="2" fill="#EE6677"/><circle cx="592.4" cy="41.3" r="2" fill="#EE6677"/><circle cx="623.5" cy="41.4" r="2" fill="#EE6677"/><circle cx="654.6" cy="40.1" r="2" fill="#EE6677"/><circle cx="685.7" cy="39.3" r="2" fill="#EE6677"/><circle cx="716.8" cy="40.2" r="2" fill="#EE6677"/><circle cx="747.8" cy="38.8" r="2" fill="#EE6677"/><circle cx="778.9" cy="40.2" r="2" fill="#EE6677"/><circle cx="810.0" cy="47.0" r="2" fill="#EE6677"/><rect x="820" y="49" width="10" height="10" fill="#EE6677"/><text x="834" y="58" font-size="10" fill="#444">chain-50</text><path d="M64.0,132.3 L95.1,132.3 L126.2,132.2 L157.3,132.3 L188.3,132.6 L219.4,132.2 L250.5,132.2 L281.6,132.2 L312.7,132.7 L343.8,132.2 L374.8,132.2 L405.9,132.2 L437.0,132.1 L468.1,132.7 L499.2,132.2 L530.3,44.7 L561.3,43.2 L592.4,44.9 L623.5,43.8 L654.6,43.5 L685.7,44.0 L716.8,44.0 L747.8,44.5 L778.9,44.3 L810.0,52.7" fill="none" stroke="#228833" stroke-width="1.6"/><circle cx="64.0" cy="132.3" r="2" fill="#228833"/><circle cx="95.1" cy="132.3" r="2" fill="#228833"/><circle cx="126.2" cy="132.2" r="2" fill="#228833"/><circle cx="157.3" cy="132.3" r="2" fill="#228833"/><circle cx="188.3" cy="132.6" r="2" fill="#228833"/><circle cx="219.4" cy="132.2" r="2" fill="#228833"/><circle cx="250.5" cy="132.2" r="2" fill="#228833"/><circle cx="281.6" cy="132.2" r="2" fill="#228833"/><circle cx="312.7" cy="132.7" r="2" fill="#228833"/><circle cx="343.8" cy="132.2" r="2" fill="#228833"/><circle cx="374.8" cy="132.2" r="2" fill="#228833"/><circle cx="405.9" cy="132.2" r="2" fill="#228833"/><circle cx="437.0" cy="132.1" r="2" fill="#228833"/><circle cx="468.1" cy="132.7" r="2" fill="#228833"/><circle cx="499.2" cy="132.2" r="2" fill="#228833"/><circle cx="530.3" cy="44.7" r="2" fill="#228833"/><circle cx="561.3" cy="43.2" r="2" fill="#228833"/><circle cx="592.4" cy="44.9" r="2" fill="#228833"/><circle cx="623.5" cy="43.8" r="2" fill="#228833"/><circle cx="654.6" cy="43.5" r="2" fill="#228833"/><circle cx="685.7" cy="44.0" r="2" fill="#228833"/><circle cx="716.8" cy="44.0" r="2" fill="#228833"/><circle cx="747.8" cy="44.5" r="2" fill="#228833"/><circle cx="778.9" cy="44.3" r="2" fill="#228833"/><circle cx="810.0" cy="52.7" r="2" fill="#228833"/><rect x="820" y="64" width="10" height="10" fill="#228833"/><text x="834" y="73" font-size="10" fill="#444">chain-200</text><path d="M64.0,178.4 L95.1,178.3 L126.2,178.4 L157.3,178.5 L188.3,178.1 L219.4,178.3 L250.5,179.2 L281.6,178.6 L312.7,178.3 L343.8,178.5 L374.8,178.4 L405.9,178.5 L437.0,178.3 L468.1,178.1 L499.2,179.1 L530.3,49.8 L561.3,49.7 L592.4,50.2 L623.5,49.5 L654.6,47.4 L685.7,48.3 L716.8,49.3 L747.8,50.2 L778.9,49.3 L810.0,55.9" fill="none" stroke="#CCBB44" stroke-width="1.6"/><circle cx="64.0" cy="178.4" r="2" fill="#CCBB44"/><circle cx="95.1" cy="178.3" r="2" fill="#CCBB44"/><circle cx="126.2" cy="178.4" r="2" fill="#CCBB44"/><circle cx="157.3" cy="178.5" r="2" fill="#CCBB44"/><circle cx="188.3" cy="178.1" r="2" fill="#CCBB44"/><circle cx="219.4" cy="178.3" r="2" fill="#CCBB44"/><circle cx="250.5" cy="179.2" r="2" fill="#CCBB44"/><circle cx="281.6" cy="178.6" r="2" fill="#CCBB44"/><circle cx="312.7" cy="178.3" r="2" fill="#CCBB44"/><circle cx="343.8" cy="178.5" r="2" fill="#CCBB44"/><circle cx="374.8" cy="178.4" r="2" fill="#CCBB44"/><circle cx="405.9" cy="178.5" r="2" fill="#CCBB44"/><circle cx="437.0" cy="178.3" r="2" fill="#CCBB44"/><circle cx="468.1" cy="178.1" r="2" fill="#CCBB44"/><circle cx="499.2" cy="179.1" r="2" fill="#CCBB44"/><circle cx="530.3" cy="49.8" r="2" fill="#CCBB44"/><circle cx="561.3" cy="49.7" r="2" fill="#CCBB44"/><circle cx="592.4" cy="50.2" r="2" fill="#CCBB44"/><circle cx="623.5" cy="49.5" r="2" fill="#CCBB44"/><circle cx="654.6" cy="47.4" r="2" fill="#CCBB44"/><circle cx="685.7" cy="48.3" r="2" fill="#CCBB44"/><circle cx="716.8" cy="49.3" r="2" fill="#CCBB44"/><circle cx="747.8" cy="50.2" r="2" fill="#CCBB44"/><circle cx="778.9" cy="49.3" r="2" fill="#CCBB44"/><circle cx="810.0" cy="55.9" r="2" fill="#CCBB44"/><rect x="820" y="79" width="10" height="10" fill="#CCBB44"/><text x="834" y="88" font-size="10" fill="#444">chain-1000</text><path d="M64.0,122.6 L95.1,122.7 L126.2,122.6 L157.3,122.8 L188.3,122.6 L219.4,122.6 L250.5,122.7 L281.6,122.8 L312.7,122.7 L343.8,122.7 L374.8,122.7 L405.9,122.7 L437.0,123.1 L468.1,122.7 L499.2,122.6 L530.3,70.0 L561.3,68.4 L592.4,69.6 L623.5,70.0 L654.6,68.5 L685.7,69.5 L716.8,70.3 L747.8,69.5 L778.9,69.4 L810.0,81.8" fill="none" stroke="#66CCEE" stroke-width="1.6"/><circle cx="64.0" cy="122.6" r="2" fill="#66CCEE"/><circle cx="95.1" cy="122.7" r="2" fill="#66CCEE"/><circle cx="126.2" cy="122.6" r="2" fill="#66CCEE"/><circle cx="157.3" cy="122.8" r="2" fill="#66CCEE"/><circle cx="188.3" cy="122.6" r="2" fill="#66CCEE"/><circle cx="219.4" cy="122.6" r="2" fill="#66CCEE"/><circle cx="250.5" cy="122.7" r="2" fill="#66CCEE"/><circle cx="281.6" cy="122.8" r="2" fill="#66CCEE"/><circle cx="312.7" cy="122.7" r="2" fill="#66CCEE"/><circle cx="343.8" cy="122.7" r="2" fill="#66CCEE"/><circle cx="374.8" cy="122.7" r="2" fill="#66CCEE"/><circle cx="405.9" cy="122.7" r="2" fill="#66CCEE"/><circle cx="437.0" cy="123.1" r="2" fill="#66CCEE"/><circle cx="468.1" cy="122.7" r="2" fill="#66CCEE"/><circle cx="499.2" cy="122.6" r="2" fill="#66CCEE"/><circle cx="530.3" cy="70.0" r="2" fill="#66CCEE"/><circle cx="561.3" cy="68.4" r="2" fill="#66CCEE"/><circle cx="592.4" cy="69.6" r="2" fill="#66CCEE"/><circle cx="623.5" cy="70.0" r="2" fill="#66CCEE"/><circle cx="654.6" cy="68.5" r="2" fill="#66CCEE"/><circle cx="685.7" cy="69.5" r="2" fill="#66CCEE"/><circle cx="716.8" cy="70.3" r="2" fill="#66CCEE"/><circle cx="747.8" cy="69.5" r="2" fill="#66CCEE"/><circle cx="778.9" cy="69.4" r="2" fill="#66CCEE"/><circle cx="810.0" cy="81.8" r="2" fill="#66CCEE"/><rect x="820" y="94" width="10" height="10" fill="#66CCEE"/><text x="834" y="103" font-size="10" fill="#444">dense-10</text><path d="M64.0,227.6 L95.1,227.1 L126.2,227.3 L157.3,227.4 L188.3,227.2 L219.4,227.2 L250.5,227.3 L281.6,227.2 L312.7,227.4 L343.8,227.6 L374.8,227.1 L405.9,227.2 L437.0,227.4 L468.1,227.1 L499.2,227.3 L530.3,108.9 L561.3,108.7 L592.4,108.6 L623.5,108.7 L654.6,108.2 L685.7,108.6 L716.8,110.8 L747.8,109.9 L778.9,112.1 L810.0,129.9" fill="none" stroke="#AA3377" stroke-width="1.6"/><circle cx="64.0" cy="227.6" r="2" fill="#AA3377"/><circle cx="95.1" cy="227.1" r="2" fill="#AA3377"/><circle cx="126.2" cy="227.3" r="2" fill="#AA3377"/><circle cx="157.3" cy="227.4" r="2" fill="#AA3377"/><circle cx="188.3" cy="227.2" r="2" fill="#AA3377"/><circle cx="219.4" cy="227.2" r="2" fill="#AA3377"/><circle cx="250.5" cy="227.3" r="2" fill="#AA3377"/><circle cx="281.6" cy="227.2" r="2" fill="#AA3377"/><circle cx="312.7" cy="227.4" r="2" fill="#AA3377"/><circle cx="343.8" cy="227.6" r="2" fill="#AA3377"/><circle cx="374.8" cy="227.1" r="2" fill="#AA3377"/><circle cx="405.9" cy="227.2" r="2" fill="#AA3377"/><circle cx="437.0" cy="227.4" r="2" fill="#AA3377"/><circle cx="468.1" cy="227.1" r="2" fill="#AA3377"/><circle cx="499.2" cy="227.3" r="2" fill="#AA3377"/><circle cx="530.3" cy="108.9" r="2" fill="#AA3377"/><circle cx="561.3" cy="108.7" r="2" fill="#AA3377"/><circle cx="592.4" cy="108.6" r="2" fill="#AA3377"/><circle cx="623.5" cy="108.7" r="2" fill="#AA3377"/><circle cx="654.6" cy="108.2" r="2" fill="#AA3377"/><circle cx="685.7" cy="108.6" r="2" fill="#AA3377"/><circle cx="716.8" cy="110.8" r="2" fill="#AA3377"/><circle cx="747.8" cy="109.9" r="2" fill="#AA3377"/><circle cx="778.9" cy="112.1" r="2" fill="#AA3377"/><circle cx="810.0" cy="129.9" r="2" fill="#AA3377"/><rect x="820" y="109" width="10" height="10" fill="#AA3377"/><text x="834" y="118" font-size="10" fill="#444">dense-50</text><path d="M64.0,323.3 L95.1,322.5 L126.2,322.2 L157.3,322.5 L188.3,323.4 L219.4,321.8 L250.5,322.5 L281.6,322.8 L312.7,324.0 L343.8,324.0 L374.8,322.5 L405.9,323.3 L437.0,321.8 L468.1,322.5 L499.2,322.5 L530.3,147.8 L561.3,150.3 L592.4,150.3 L623.5,151.4 L654.6,151.6 L685.7,150.2 L716.8,150.8 L747.8,150.6 L778.9,163.9 L810.0,181.7" fill="none" stroke="#BBBBBB" stroke-width="1.6"/><circle cx="64.0" cy="323.3" r="2" fill="#BBBBBB"/><circle cx="95.1" cy="322.5" r="2" fill="#BBBBBB"/><circle cx="126.2" cy="322.2" r="2" fill="#BBBBBB"/><circle cx="157.3" cy="322.5" r="2" fill="#BBBBBB"/><circle cx="188.3" cy="323.4" r="2" fill="#BBBBBB"/><circle cx="219.4" cy="321.8" r="2" fill="#BBBBBB"/><circle cx="250.5" cy="322.5" r="2" fill="#BBBBBB"/><circle cx="281.6" cy="322.8" r="2" fill="#BBBBBB"/><circle cx="312.7" cy="324.0" r="2" fill="#BBBBBB"/><circle cx="343.8" cy="324.0" r="2" fill="#BBBBBB"/><circle cx="374.8" cy="322.5" r="2" fill="#BBBBBB"/><circle cx="405.9" cy="323.3" r="2" fill="#BBBBBB"/><circle cx="437.0" cy="321.8" r="2" fill="#BBBBBB"/><circle cx="468.1" cy="322.5" r="2" fill="#BBBBBB"/><circle cx="499.2" cy="322.5" r="2" fill="#BBBBBB"/><circle cx="530.3" cy="147.8" r="2" fill="#BBBBBB"/><circle cx="561.3" cy="150.3" r="2" fill="#BBBBBB"/><circle cx="592.4" cy="150.3" r="2" fill="#BBBBBB"/><circle cx="623.5" cy="151.4" r="2" fill="#BBBBBB"/><circle cx="654.6" cy="151.6" r="2" fill="#BBBBBB"/><circle cx="685.7" cy="150.2" r="2" fill="#BBBBBB"/><circle cx="716.8" cy="150.8" r="2" fill="#BBBBBB"/><circle cx="747.8" cy="150.6" r="2" fill="#BBBBBB"/><circle cx="778.9" cy="163.9" r="2" fill="#BBBBBB"/><circle cx="810.0" cy="181.7" r="2" fill="#BBBBBB"/><rect x="820" y="124" width="10" height="10" fill="#BBBBBB"/><text x="834" y="133" font-size="10" fill="#444">dense-200</text><path d="M64.0,119.8 L95.1,119.7 L126.2,119.7 L157.3,119.7 L188.3,119.7 L219.4,119.8 L250.5,120.0 L281.6,120.4 L312.7,119.9 L343.8,119.8 L374.8,119.9 L405.9,119.8 L437.0,119.5 L468.1,119.7 L499.2,119.8 L530.3,83.8 L561.3,85.6 L592.4,85.1 L623.5,85.7 L654.6,85.4 L685.7,87.0 L716.8,86.0 L747.8,85.6 L778.9,84.9 L810.0,105.8" fill="none" stroke="#222255" stroke-width="1.6"/><circle cx="64.0" cy="119.8" r="2" fill="#222255"/><circle cx="95.1" cy="119.7" r="2" fill="#222255"/><circle cx="126.2" cy="119.7" r="2" fill="#222255"/><circle cx="157.3" cy="119.7" r="2" fill="#222255"/><circle cx="188.3" cy="119.7" r="2" fill="#222255"/><circle cx="219.4" cy="119.8" r="2" fill="#222255"/><circle cx="250.5" cy="120.0" r="2" fill="#222255"/><circle cx="281.6" cy="120.4" r="2" fill="#222255"/><circle cx="312.7" cy="119.9" r="2" fill="#222255"/><circle cx="343.8" cy="119.8" r="2" fill="#222255"/><circle cx="374.8" cy="119.9" r="2" fill="#222255"/><circle cx="405.9" cy="119.8" r="2" fill="#222255"/><circle cx="437.0" cy="119.5" r="2" fill="#222255"/><circle cx="468.1" cy="119.7" r="2" fill="#222255"/><circle cx="499.2" cy="119.8" r="2" fill="#222255"/><circle cx="530.3" cy="83.8" r="2" fill="#222255"/><circle cx="561.3" cy="85.6" r="2" fill="#222255"/><circle cx="592.4" cy="85.1" r="2" fill="#222255"/><circle cx="623.5" cy="85.7" r="2" fill="#222255"/><circle cx="654.6" cy="85.4" r="2" fill="#222255"/><circle cx="685.7" cy="87.0" r="2" fill="#222255"/><circle cx="716.8" cy="86.0" r="2" fill="#222255"/><circle cx="747.8" cy="85.6" r="2" fill="#222255"/><circle cx="778.9" cy="84.9" r="2" fill="#222255"/><circle cx="810.0" cy="105.8" r="2" fill="#222255"/><rect x="820" y="139" width="10" height="10" fill="#222255"/><text x="834" y="148" font-size="10" fill="#444">hub-50</text><path d="M64.0,163.1 L95.1,163.0 L126.2,163.6 L157.3,163.4 L188.3,163.8 L219.4,163.0 L250.5,163.2 L281.6,163.1 L312.7,163.1 L343.8,162.4 L374.8,163.0 L405.9,163.2 L437.0,163.0 L468.1,163.4 L499.2,163.5 L530.3,118.4 L561.3,118.7 L592.4,118.3 L623.5,118.8 L654.6,118.2 L685.7,118.2 L716.8,117.8 L747.8,118.9 L778.9,119.9 L810.0,149.7" fill="none" stroke="#225555" stroke-width="1.6"/><circle cx="64.0" cy="163.1" r="2" fill="#225555"/><circle cx="95.1" cy="163.0" r="2" fill="#225555"/><circle cx="126.2" cy="163.6" r="2" fill="#225555"/><circle cx="157.3" cy="163.4" r="2" fill="#225555"/><circle cx="188.3" cy="163.8" r="2" fill="#225555"/><circle cx="219.4" cy="163.0" r="2" fill="#225555"/><circle cx="250.5" cy="163.2" r="2" fill="#225555"/><circle cx="281.6" cy="163.1" r="2" fill="#225555"/><circle cx="312.7" cy="163.1" r="2" fill="#225555"/><circle cx="343.8" cy="162.4" r="2" fill="#225555"/><circle cx="374.8" cy="163.0" r="2" fill="#225555"/><circle cx="405.9" cy="163.2" r="2" fill="#225555"/><circle cx="437.0" cy="163.0" r="2" fill="#225555"/><circle cx="468.1" cy="163.4" r="2" fill="#225555"/><circle cx="499.2" cy="163.5" r="2" fill="#225555"/><circle cx="530.3" cy="118.4" r="2" fill="#225555"/><circle cx="561.3" cy="118.7" r="2" fill="#225555"/><circle cx="592.4" cy="118.3" r="2" fill="#225555"/><circle cx="623.5" cy="118.8" r="2" fill="#225555"/><circle cx="654.6" cy="118.2" r="2" fill="#225555"/><circle cx="685.7" cy="118.2" r="2" fill="#225555"/><circle cx="716.8" cy="117.8" r="2" fill="#225555"/><circle cx="747.8" cy="118.9" r="2" fill="#225555"/><circle cx="778.9" cy="119.9" r="2" fill="#225555"/><circle cx="810.0" cy="149.7" r="2" fill="#225555"/><rect x="820" y="154" width="10" height="10" fill="#225555"/><text x="834" y="163" font-size="10" fill="#444">hub-200</text><path d="M64.0,161.9 L95.1,162.0 L126.2,161.9 L157.3,161.9 L188.3,162.1 L219.4,162.1 L250.5,162.0 L281.6,162.5 L312.7,162.1 L343.8,162.4 L374.8,162.0 L405.9,162.0 L437.0,162.3 L468.1,162.2 L499.2,162.3 L530.3,119.1 L561.3,118.9 L592.4,118.2 L623.5,118.5 L654.6,117.7 L685.7,118.5 L716.8,117.7 L747.8,119.2 L778.9,118.3 L810.0,151.7" fill="none" stroke="#552222" stroke-width="1.6"/><circle cx="64.0" cy="161.9" r="2" fill="#552222"/><circle cx="95.1" cy="162.0" r="2" fill="#552222"/><circle cx="126.2" cy="161.9" r="2" fill="#552222"/><circle cx="157.3" cy="161.9" r="2" fill="#552222"/><circle cx="188.3" cy="162.1" r="2" fill="#552222"/><circle cx="219.4" cy="162.1" r="2" fill="#552222"/><circle cx="250.5" cy="162.0" r="2" fill="#552222"/><circle cx="281.6" cy="162.5" r="2" fill="#552222"/><circle cx="312.7" cy="162.1" r="2" fill="#552222"/><circle cx="343.8" cy="162.4" r="2" fill="#552222"/><circle cx="374.8" cy="162.0" r="2" fill="#552222"/><circle cx="405.9" cy="162.0" r="2" fill="#552222"/><circle cx="437.0" cy="162.3" r="2" fill="#552222"/><circle cx="468.1" cy="162.2" r="2" fill="#552222"/><circle cx="499.2" cy="162.3" r="2" fill="#552222"/><circle cx="530.3" cy="119.1" r="2" fill="#552222"/><circle cx="561.3" cy="118.9" r="2" fill="#552222"/><circle cx="592.4" cy="118.2" r="2" fill="#552222"/><circle cx="623.5" cy="118.5" r="2" fill="#552222"/><circle cx="654.6" cy="117.7" r="2" fill="#552222"/><circle cx="685.7" cy="118.5" r="2" fill="#552222"/><circle cx="716.8" cy="117.7" r="2" fill="#552222"/><circle cx="747.8" cy="119.2" r="2" fill="#552222"/><circle cx="778.9" cy="118.3" r="2" fill="#552222"/><circle cx="810.0" cy="151.7" r="2" fill="#552222"/><rect x="820" y="169" width="10" height="10" fill="#552222"/><text x="834" y="178" font-size="10" fill="#444">hooked-200</text><path d="M64.0,221.9 L95.1,222.0 L126.2,221.9 L157.3,222.1 L188.3,222.2 L219.4,222.0 L250.5,221.9 L281.6,222.0 L312.7,222.1 L343.8,223.0 L374.8,221.9 L405.9,221.9 L437.0,222.3 L468.1,221.9 L499.2,221.9 L530.3,49.7 L561.3,44.8 L592.4,46.1 L623.5,43.9 L654.6,47.5 L685.7,44.4 L716.8,46.5 L747.8,46.9 L778.9,49.1 L810.0,62.7" fill="none" stroke="#555522" stroke-width="1.6"/><circle cx="64.0" cy="221.9" r="2" fill="#555522"/><circle cx="95.1" cy="222.0" r="2" fill="#555522"/><circle cx="126.2" cy="221.9" r="2" fill="#555522"/><circle cx="157.3" cy="222.1" r="2" fill="#555522"/><circle cx="188.3" cy="222.2" r="2" fill="#555522"/><circle cx="219.4" cy="222.0" r="2" fill="#555522"/><circle cx="250.5" cy="221.9" r="2" fill="#555522"/><circle cx="281.6" cy="222.0" r="2" fill="#555522"/><circle cx="312.7" cy="222.1" r="2" fill="#555522"/><circle cx="343.8" cy="223.0" r="2" fill="#555522"/><circle cx="374.8" cy="221.9" r="2" fill="#555522"/><circle cx="405.9" cy="221.9" r="2" fill="#555522"/><circle cx="437.0" cy="222.3" r="2" fill="#555522"/><circle cx="468.1" cy="221.9" r="2" fill="#555522"/><circle cx="499.2" cy="221.9" r="2" fill="#555522"/><circle cx="530.3" cy="49.7" r="2" fill="#555522"/><circle cx="561.3" cy="44.8" r="2" fill="#555522"/><circle cx="592.4" cy="46.1" r="2" fill="#555522"/><circle cx="623.5" cy="43.9" r="2" fill="#555522"/><circle cx="654.6" cy="47.5" r="2" fill="#555522"/><circle cx="685.7" cy="44.4" r="2" fill="#555522"/><circle cx="716.8" cy="46.5" r="2" fill="#555522"/><circle cx="747.8" cy="46.9" r="2" fill="#555522"/><circle cx="778.9" cy="49.1" r="2" fill="#555522"/><circle cx="810.0" cy="62.7" r="2" fill="#555522"/><rect x="820" y="184" width="10" height="10" fill="#555522"/><text x="834" y="193" font-size="10" fill="#444">messy-1000</text><path d="M64.0,290.8 L95.1,290.6 L126.2,290.5 L157.3,290.6 L188.3,290.5 L219.4,290.6 L250.5,290.3 L281.6,290.4 L312.7,290.8 L343.8,290.6 L374.8,290.6 L405.9,290.8 L437.0,290.3 L468.1,290.6 L499.2,290.3 L530.3,44.2 L561.3,43.0 L592.4,43.6 L623.5,41.8 L654.6,41.1 L685.7,45.8 L716.8,44.6 L747.8,41.6 L778.9,44.1 L810.0,55.3" fill="none" stroke="#8855AA" stroke-width="1.6"/><circle cx="64.0" cy="290.8" r="2" fill="#8855AA"/><circle cx="95.1" cy="290.6" r="2" fill="#8855AA"/><circle cx="126.2" cy="290.5" r="2" fill="#8855AA"/><circle cx="157.3" cy="290.6" r="2" fill="#8855AA"/><circle cx="188.3" cy="290.5" r="2" fill="#8855AA"/><circle cx="219.4" cy="290.6" r="2" fill="#8855AA"/><circle cx="250.5" cy="290.3" r="2" fill="#8855AA"/><circle cx="281.6" cy="290.4" r="2" fill="#8855AA"/><circle cx="312.7" cy="290.8" r="2" fill="#8855AA"/><circle cx="343.8" cy="290.6" r="2" fill="#8855AA"/><circle cx="374.8" cy="290.6" r="2" fill="#8855AA"/><circle cx="405.9" cy="290.8" r="2" fill="#8855AA"/><circle cx="437.0" cy="290.3" r="2" fill="#8855AA"/><circle cx="468.1" cy="290.6" r="2" fill="#8855AA"/><circle cx="499.2" cy="290.3" r="2" fill="#8855AA"/><circle cx="530.3" cy="44.2" r="2" fill="#8855AA"/><circle cx="561.3" cy="43.0" r="2" fill="#8855AA"/><circle cx="592.4" cy="43.6" r="2" fill="#8855AA"/><circle cx="623.5" cy="41.8" r="2" fill="#8855AA"/><circle cx="654.6" cy="41.1" r="2" fill="#8855AA"/><circle cx="685.7" cy="45.8" r="2" fill="#8855AA"/><circle cx="716.8" cy="44.6" r="2" fill="#8855AA"/><circle cx="747.8" cy="41.6" r="2" fill="#8855AA"/><circle cx="778.9" cy="44.1" r="2" fill="#8855AA"/><circle cx="810.0" cy="55.3" r="2" fill="#8855AA"/><rect x="820" y="199" width="10" height="10" fill="#8855AA"/><text x="834" y="208" font-size="10" fill="#444">messy-5000</text></svg>