<svg width="960" height="372" xmlns="http://www.w3.org/2000/svg"><rect width="960" height="372" fill="#ffffff"/><text x="64" y="20" font-size="15" font-weight="bold" fill="#333">has_state() — ops/sec (log scale) by PR / release, c7g.medium</text><text x="64.0" y="340" font-size="9" text-anchor="middle" fill="#888">598</text><text x="126.2" y="340" font-size="9" text-anchor="middle" fill="#888">600</text><text x="188.3" y="340" font-size="9" text-anchor="middle" fill="#888">602</text><text x="250.5" y="340" font-size="9" text-anchor="middle" fill="#888">604</text><text x="312.7" y="340" font-size="9" text-anchor="middle" fill="#888">611</text><text x="374.8" y="340" font-size="9" text-anchor="middle" fill="#888">616</text><text x="437.0" y="340" font-size="9" text-anchor="middle" fill="#888">618</text><text x="499.2" y="340" font-size="9" text-anchor="middle" fill="#888">634</text><text x="561.3" y="340" font-size="9" text-anchor="middle" fill="#888">649</text><text x="623.5" y="340" font-size="9" text-anchor="middle" fill="#888">674</text><text x="685.7" y="340" font-size="9" text-anchor="middle" fill="#888">679</text><text x="747.8" y="340" font-size="9" text-anchor="middle" fill="#888">681</text><text x="810.0" y="340" font-size="9" text-anchor="end" fill="#a40" transform="rotate(-35 810.0 340)">v5.143.30</text><path d="M64.0,48.6 L95.1,52.0 L126.2,44.7 L157.3,42.7 L188.3,37.7 L219.4,51.3 L250.5,48.8 L281.6,48.0 L312.7,50.8 L343.8,44.3 L374.8,44.4 L405.9,56.8 L437.0,47.2 L468.1,44.0 L499.2,47.2 L530.3,52.8 L561.3,37.8 L592.4,55.3 L623.5,47.2 L654.6,43.4 L685.7,47.1 L716.8,48.4 L747.8,49.4 L778.9,46.1 L810.0,40.1" fill="none" stroke="#4477AA" stroke-width="1.6"/><circle cx="64.0" cy="48.6" r="2" fill="#4477AA"/><circle cx="95.1" cy="52.0" r="2" fill="#4477AA"/><circle cx="126.2" cy="44.7" r="2" fill="#4477AA"/><circle cx="157.3" cy="42.7" r="2" fill="#4477AA"/><circle cx="188.3" cy="37.7" r="2" fill="#4477AA"/><circle cx="219.4" cy="51.3" r="2" fill="#4477AA"/><circle cx="250.5" cy="48.8" r="2" fill="#4477AA"/><circle cx="281.6" cy="48.0" r="2" fill="#4477AA"/><circle cx="312.7" cy="50.8" r="2" fill="#4477AA"/><circle cx="343.8" cy="44.3" r="2" fill="#4477AA"/><circle cx="374.8" cy="44.4" r="2" fill="#4477AA"/><circle cx="405.9" cy="56.8" r="2" fill="#4477AA"/><circle cx="437.0" cy="47.2" r="2" fill="#4477AA"/><circle cx="468.1" cy="44.0" r="2" fill="#4477AA"/><circle cx="499.2" cy="47.2" r="2" fill="#4477AA"/><circle cx="530.3" cy="52.8" r="2" fill="#4477AA"/><circle cx="561.3" cy="37.8" r="2" fill="#4477AA"/><circle cx="592.4" cy="55.3" r="2" fill="#4477AA"/><circle cx="623.5" cy="47.2" r="2" fill="#4477AA"/><circle cx="654.6" cy="43.4" r="2" fill="#4477AA"/><circle cx="685.7" cy="47.1" r="2" fill="#4477AA"/><circle cx="716.8" cy="48.4" r="2" fill="#4477AA"/><circle cx="747.8" cy="49.4" r="2" fill="#4477AA"/><circle cx="778.9" cy="46.1" r="2" fill="#4477AA"/><circle cx="810.0" cy="40.1" r="2" fill="#4477AA"/><rect x="820" y="34" width="10" height="10" fill="#4477AA"/><text x="834" y="43" font-size="10" fill="#444">chain-10</text><path d="M64.0,52.2 L95.1,51.5 L126.2,46.2 L157.3,49.7 L188.3,36.5 L219.4,53.3 L250.5,51.4 L281.6,52.8 L312.7,60.2 L343.8,46.7 L374.8,54.9 L405.9,58.2 L437.0,52.4 L468.1,51.9 L499.2,50.7 L530.3,57.0 L561.3,59.5 L592.4,69.9 L623.5,53.6 L654.6,51.6 L685.7,52.8 L716.8,48.4 L747.8,54.2 L778.9,47.1 L810.0,324.0" fill="none" stroke="#EE6677" stroke-width="1.6"/><circle cx="64.0" cy="52.2" r="2" fill="#EE6677"/><circle cx="95.1" cy="51.5" r="2" fill="#EE6677"/><circle cx="126.2" cy="46.2" r="2" fill="#EE6677"/><circle cx="157.3" cy="49.7" r="2" fill="#EE6677"/><circle cx="188.3" cy="36.5" r="2" fill="#EE6677"/><circle cx="219.4" cy="53.3" r="2" fill="#EE6677"/><circle cx="250.5" cy="51.4" r="2" fill="#EE6677"/><circle cx="281.6" cy="52.8" r="2" fill="#EE6677"/><circle cx="312.7" cy="60.2" r="2" fill="#EE6677"/><circle cx="343.8" cy="46.7" r="2" fill="#EE6677"/><circle cx="374.8" cy="54.9" r="2" fill="#EE6677"/><circle cx="405.9" cy="58.2" r="2" fill="#EE6677"/><circle cx="437.0" cy="52.4" r="2" fill="#EE6677"/><circle cx="468.1" cy="51.9" r="2" fill="#EE6677"/><circle cx="499.2" cy="50.7" r="2" fill="#EE6677"/><circle cx="530.3" cy="57.0" r="2" fill="#EE6677"/><circle cx="561.3" cy="59.5" r="2" fill="#EE6677"/><circle cx="592.4" cy="69.9" r="2" fill="#EE6677"/><circle cx="623.5" cy="53.6" r="2" fill="#EE6677"/><circle cx="654.6" cy="51.6" r="2" fill="#EE6677"/><circle cx="685.7" cy="52.8" r="2" fill="#EE6677"/><circle cx="716.8" cy="48.4" r="2" fill="#EE6677"/><circle cx="747.8" cy="54.2" r="2" fill="#EE6677"/><circle cx="778.9" cy="47.1" r="2" fill="#EE6677"/><circle cx="810.0" cy="324.0" r="2" fill="#EE6677"/><rect x="820" y="49" width="10" height="10" fill="#EE6677"/><text x="834" y="58" font-size="10" fill="#444">chain-50</text><path d="M64.0,59.0 L95.1,53.5 L126.2,56.7 L157.3,56.3 L188.3,43.8 L219.4,55.6 L250.5,54.5 L281.6,59.0 L312.7,60.9 L343.8,51.8 L374.8,59.6 L405.9,61.4 L437.0,63.0 L468.1,56.6 L499.2,56.3 L530.3,62.9 L561.3,61.2 L592.4,66.5 L623.5,56.2 L654.6,52.5 L685.7,56.9 L716.8,68.7 L747.8,57.4 L778.9,53.6 L810.0,59.7" fill="none" stroke="#228833" stroke-width="1.6"/><circle cx="64.0" cy="59.0" r="2" fill="#228833"/><circle cx="95.1" cy="53.5" r="2" fill="#228833"/><circle cx="126.2" cy="56.7" r="2" fill="#228833"/><circle cx="157.3" cy="56.3" r="2" fill="#228833"/><circle cx="188.3" cy="43.8" r="2" fill="#228833"/><circle cx="219.4" cy="55.6" r="2" fill="#228833"/><circle cx="250.5" cy="54.5" r="2" fill="#228833"/><circle cx="281.6" cy="59.0" r="2" fill="#228833"/><circle cx="312.7" cy="60.9" r="2" fill="#228833"/><circle cx="343.8" cy="51.8" r="2" fill="#228833"/><circle cx="374.8" cy="59.6" r="2" fill="#228833"/><circle cx="405.9" cy="61.4" r="2" fill="#228833"/><circle cx="437.0" cy="63.0" r="2" fill="#228833"/><circle cx="468.1" cy="56.6" r="2" fill="#228833"/><circle cx="499.2" cy="56.3" r="2" fill="#228833"/><circle cx="530.3" cy="62.9" r="2" fill="#228833"/><circle cx="561.3" cy="61.2" r="2" fill="#228833"/><circle cx="592.4" cy="66.5" r="2" fill="#228833"/><circle cx="623.5" cy="56.2" r="2" fill="#228833"/><circle cx="654.6" cy="52.5" r="2" fill="#228833"/><circle cx="685.7" cy="56.9" r="2" fill="#228833"/><circle cx="716.8" cy="68.7" r="2" fill="#228833"/><circle cx="747.8" cy="57.4" r="2" fill="#228833"/><circle cx="778.9" cy="53.6" r="2" fill="#228833"/><circle cx="810.0" cy="59.7" r="2" fill="#228833"/><rect x="820" y="64" width="10" height="10" fill="#228833"/><text x="834" y="73" font-size="10" fill="#444">chain-200</text><path d="M64.0,61.3 L95.1,57.3 L126.2,50.0 L157.3,57.7 L188.3,46.0 L219.4,65.2 L250.5,53.4 L281.6,67.2 L312.7,60.2 L343.8,60.4 L374.8,61.8 L405.9,60.6 L437.0,56.3 L468.1,56.8 L499.2,54.3 L530.3,64.2 L561.3,59.3 L592.4,66.0 L623.5,65.1 L654.6,57.9 L685.7,58.8 L716.8,60.1 L747.8,66.8 L778.9,60.4 L810.0,68.2" fill="none" stroke="#CCBB44" stroke-width="1.6"/><circle cx="64.0" cy="61.3" r="2" fill="#CCBB44"/><circle cx="95.1" cy="57.3" r="2" fill="#CCBB44"/><circle cx="126.2" cy="50.0" r="2" fill="#CCBB44"/><circle cx="157.3" cy="57.7" r="2" fill="#CCBB44"/><circle cx="188.3" cy="46.0" r="2" fill="#CCBB44"/><circle cx="219.4" cy="65.2" r="2" fill="#CCBB44"/><circle cx="250.5" cy="53.4" r="2" fill="#CCBB44"/><circle cx="281.6" cy="67.2" r="2" fill="#CCBB44"/><circle cx="312.7" cy="60.2" r="2" fill="#CCBB44"/><circle cx="343.8" cy="60.4" r="2" fill="#CCBB44"/><circle cx="374.8" cy="61.8" r="2" fill="#CCBB44"/><circle cx="405.9" cy="60.6" r="2" fill="#CCBB44"/><circle cx="437.0" cy="56.3" r="2" fill="#CCBB44"/><circle cx="468.1" cy="56.8" r="2" fill="#CCBB44"/><circle cx="499.2" cy="54.3" r="2" fill="#CCBB44"/><circle cx="530.3" cy="64.2" r="2" fill="#CCBB44"/><circle cx="561.3" cy="59.3" r="2" fill="#CCBB44"/><circle cx="592.4" cy="66.0" r="2" fill="#CCBB44"/><circle cx="623.5" cy="65.1" r="2" fill="#CCBB44"/><circle cx="654.6" cy="57.9" r="2" fill="#CCBB44"/><circle cx="685.7" cy="58.8" r="2" fill="#CCBB44"/><circle cx="716.8" cy="60.1" r="2" fill="#CCBB44"/><circle cx="747.8" cy="66.8" r="2" fill="#CCBB44"/><circle cx="778.9" cy="60.4" r="2" fill="#CCBB44"/><circle cx="810.0" cy="68.2" r="2" fill="#CCBB44"/><rect x="820" y="79" width="10" height="10" fill="#CCBB44"/><text x="834" y="88" font-size="10" fill="#444">chain-1000</text><path d="M64.0,48.2 L95.1,46.2 L126.2,43.9 L157.3,41.6 L188.3,37.0 L219.4,50.2 L250.5,43.5 L281.6,49.8 L312.7,44.7 L343.8,44.0 L374.8,45.6 L405.9,43.4 L437.0,51.9 L468.1,47.4 L499.2,50.1 L530.3,57.9 L561.3,45.9 L592.4,57.2 L623.5,53.8 L654.6,48.4 L685.7,54.6 L716.8,53.4 L747.8,47.5 L778.9,47.5 L810.0,46.6" fill="none" stroke="#66CCEE" stroke-width="1.6"/><circle cx="64.0" cy="48.2" r="2" fill="#66CCEE"/><circle cx="95.1" cy="46.2" r="2" fill="#66CCEE"/><circle cx="126.2" cy="43.9" r="2" fill="#66CCEE"/><circle cx="157.3" cy="41.6" r="2" fill="#66CCEE"/><circle cx="188.3" cy="37.0" r="2" fill="#66CCEE"/><circle cx="219.4" cy="50.2" r="2" fill="#66CCEE"/><circle cx="250.5" cy="43.5" r="2" fill="#66CCEE"/><circle cx="281.6" cy="49.8" r="2" fill="#66CCEE"/><circle cx="312.7" cy="44.7" r="2" fill="#66CCEE"/><circle cx="343.8" cy="44.0" r="2" fill="#66CCEE"/><circle cx="374.8" cy="45.6" r="2" fill="#66CCEE"/><circle cx="405.9" cy="43.4" r="2" fill="#66CCEE"/><circle cx="437.0" cy="51.9" r="2" fill="#66CCEE"/><circle cx="468.1" cy="47.4" r="2" fill="#66CCEE"/><circle cx="499.2" cy="50.1" r="2" fill="#66CCEE"/><circle cx="530.3" cy="57.9" r="2" fill="#66CCEE"/><circle cx="561.3" cy="45.9" r="2" fill="#66CCEE"/><circle cx="592.4" cy="57.2" r="2" fill="#66CCEE"/><circle cx="623.5" cy="53.8" r="2" fill="#66CCEE"/><circle cx="654.6" cy="48.4" r="2" fill="#66CCEE"/><circle cx="685.7" cy="54.6" r="2" fill="#66CCEE"/><circle cx="716.8" cy="53.4" r="2" fill="#66CCEE"/><circle cx="747.8" cy="47.5" r="2" fill="#66CCEE"/><circle cx="778.9" cy="47.5" r="2" fill="#66CCEE"/><circle cx="810.0" cy="46.6" r="2" fill="#66CCEE"/><rect x="820" y="94" width="10" height="10" fill="#66CCEE"/><text x="834" y="103" font-size="10" fill="#444">dense-10</text><path d="M64.0,52.9 L95.1,46.3 L126.2,38.9 L157.3,45.9 L188.3,39.0 L219.4,48.7 L250.5,48.8 L281.6,53.6 L312.7,55.2 L343.8,52.9 L374.8,49.6 L405.9,58.6 L437.0,55.1 L468.1,52.7 L499.2,46.9 L530.3,52.7 L561.3,53.8 L592.4,57.6 L623.5,54.3 L654.6,54.2 L685.7,49.4 L716.8,49.8 L747.8,59.6 L778.9,45.6 L810.0,46.3" fill="none" stroke="#AA3377" stroke-width="1.6"/><circle cx="64.0" cy="52.9" r="2" fill="#AA3377"/><circle cx="95.1" cy="46.3" r="2" fill="#AA3377"/><circle cx="126.2" cy="38.9" r="2" fill="#AA3377"/><circle cx="157.3" cy="45.9" r="2" fill="#AA3377"/><circle cx="188.3" cy="39.0" r="2" fill="#AA3377"/><circle cx="219.4" cy="48.7" r="2" fill="#AA3377"/><circle cx="250.5" cy="48.8" r="2" fill="#AA3377"/><circle cx="281.6" cy="53.6" r="2" fill="#AA3377"/><circle cx="312.7" cy="55.2" r="2" fill="#AA3377"/><circle cx="343.8" cy="52.9" r="2" fill="#AA3377"/><circle cx="374.8" cy="49.6" r="2" fill="#AA3377"/><circle cx="405.9" cy="58.6" r="2" fill="#AA3377"/><circle cx="437.0" cy="55.1" r="2" fill="#AA3377"/><circle cx="468.1" cy="52.7" r="2" fill="#AA3377"/><circle cx="499.2" cy="46.9" r="2" fill="#AA3377"/><circle cx="530.3" cy="52.7" r="2" fill="#AA3377"/><circle cx="561.3" cy="53.8" r="2" fill="#AA3377"/><circle cx="592.4" cy="57.6" r="2" fill="#AA3377"/><circle cx="623.5" cy="54.3" r="2" fill="#AA3377"/><circle cx="654.6" cy="54.2" r="2" fill="#AA3377"/><circle cx="685.7" cy="49.4" r="2" fill="#AA3377"/><circle cx="716.8" cy="49.8" r="2" fill="#AA3377"/><circle cx="747.8" cy="59.6" r="2" fill="#AA3377"/><circle cx="778.9" cy="45.6" r="2" fill="#AA3377"/><circle cx="810.0" cy="46.3" r="2" fill="#AA3377"/><rect x="820" y="109" width="10" height="10" fill="#AA3377"/><text x="834" y="118" font-size="10" fill="#444">dense-50</text><path d="M64.0,60.4 L95.1,56.6 L126.2,49.1 L157.3,55.9 L188.3,45.6 L219.4,59.1 L250.5,55.2 L281.6,58.0 L312.7,59.1 L343.8,56.3 L374.8,58.5 L405.9,77.6 L437.0,56.2 L468.1,58.0 L499.2,48.9 L530.3,62.4 L561.3,52.8 L592.4,73.0 L623.5,58.7 L654.6,60.0 L685.7,59.8 L716.8,56.7 L747.8,55.6 L778.9,52.7 L810.0,60.4" fill="none" stroke="#BBBBBB" stroke-width="1.6"/><circle cx="64.0" cy="60.4" r="2" fill="#BBBBBB"/><circle cx="95.1" cy="56.6" r="2" fill="#BBBBBB"/><circle cx="126.2" cy="49.1" r="2" fill="#BBBBBB"/><circle cx="157.3" cy="55.9" r="2" fill="#BBBBBB"/><circle cx="188.3" cy="45.6" r="2" fill="#BBBBBB"/><circle cx="219.4" cy="59.1" r="2" fill="#BBBBBB"/><circle cx="250.5" cy="55.2" r="2" fill="#BBBBBB"/><circle cx="281.6" cy="58.0" r="2" fill="#BBBBBB"/><circle cx="312.7" cy="59.1" r="2" fill="#BBBBBB"/><circle cx="343.8" cy="56.3" r="2" fill="#BBBBBB"/><circle cx="374.8" cy="58.5" r="2" fill="#BBBBBB"/><circle cx="405.9" cy="77.6" r="2" fill="#BBBBBB"/><circle cx="437.0" cy="56.2" r="2" fill="#BBBBBB"/><circle cx="468.1" cy="58.0" r="2" fill="#BBBBBB"/><circle cx="499.2" cy="48.9" r="2" fill="#BBBBBB"/><circle cx="530.3" cy="62.4" r="2" fill="#BBBBBB"/><circle cx="561.3" cy="52.8" r="2" fill="#BBBBBB"/><circle cx="592.4" cy="73.0" r="2" fill="#BBBBBB"/><circle cx="623.5" cy="58.7" r="2" fill="#BBBBBB"/><circle cx="654.6" cy="60.0" r="2" fill="#BBBBBB"/><circle cx="685.7" cy="59.8" r="2" fill="#BBBBBB"/><circle cx="716.8" cy="56.7" r="2" fill="#BBBBBB"/><circle cx="747.8" cy="55.6" r="2" fill="#BBBBBB"/><circle cx="778.9" cy="52.7" r="2" fill="#BBBBBB"/><circle cx="810.0" cy="60.4" r="2" fill="#BBBBBB"/><rect x="820" y="124" width="10" height="10" fill="#BBBBBB"/><text x="834" y="133" font-size="10" fill="#444">dense-200</text><path d="M64.0,49.5 L95.1,42.5 L126.2,44.6 L157.3,43.9 L188.3,55.2 L219.4,57.6 L250.5,42.0 L281.6,49.5 L312.7,56.4 L343.8,36.8 L374.8,51.0 L405.9,59.7 L437.0,70.2 L468.1,52.3 L499.2,43.7 L530.3,53.5 L561.3,61.6 L592.4,62.6 L623.5,55.2 L654.6,51.4 L685.7,59.4 L716.8,56.9 L747.8,56.0 L778.9,46.3 L810.0,46.0" fill="none" stroke="#222255" stroke-width="1.6"/><circle cx="64.0" cy="49.5" r="2" fill="#222255"/><circle cx="95.1" cy="42.5" r="2" fill="#222255"/><circle cx="126.2" cy="44.6" r="2" fill="#222255"/><circle cx="157.3" cy="43.9" r="2" fill="#222255"/><circle cx="188.3" cy="55.2" r="2" fill="#222255"/><circle cx="219.4" cy="57.6" r="2" fill="#222255"/><circle cx="250.5" cy="42.0" r="2" fill="#222255"/><circle cx="281.6" cy="49.5" r="2" fill="#222255"/><circle cx="312.7" cy="56.4" r="2" fill="#222255"/><circle cx="343.8" cy="36.8" r="2" fill="#222255"/><circle cx="374.8" cy="51.0" r="2" fill="#222255"/><circle cx="405.9" cy="59.7" r="2" fill="#222255"/><circle cx="437.0" cy="70.2" r="2" fill="#222255"/><circle cx="468.1" cy="52.3" r="2" fill="#222255"/><circle cx="499.2" cy="43.7" r="2" fill="#222255"/><circle cx="530.3" cy="53.5" r="2" fill="#222255"/><circle cx="561.3" cy="61.6" r="2" fill="#222255"/><circle cx="592.4" cy="62.6" r="2" fill="#222255"/><circle cx="623.5" cy="55.2" r="2" fill="#222255"/><circle cx="654.6" cy="51.4" r="2" fill="#222255"/><circle cx="685.7" cy="59.4" r="2" fill="#222255"/><circle cx="716.8" cy="56.9" r="2" fill="#222255"/><circle cx="747.8" cy="56.0" r="2" fill="#222255"/><circle cx="778.9" cy="46.3" r="2" fill="#222255"/><circle cx="810.0" cy="46.0" r="2" fill="#222255"/><rect x="820" y="139" width="10" height="10" fill="#222255"/><text x="834" y="148" font-size="10" fill="#444">hub-50</text><path d="M64.0,58.5 L95.1,67.2 L126.2,53.6 L157.3,60.0 L188.3,43.1 L219.4,61.8 L250.5,56.4 L281.6,58.3 L312.7,57.8 L343.8,51.7 L374.8,54.7 L405.9,50.0 L437.0,47.0 L468.1,61.5 L499.2,45.9 L530.3,55.5 L561.3,60.1 L592.4,58.3 L623.5,64.5 L654.6,45.8 L685.7,65.2 L716.8,50.9 L747.8,65.7 L778.9,58.0 L810.0,53.3" fill="none" stroke="#225555" stroke-width="1.6"/><circle cx="64.0" cy="58.5" r="2" fill="#225555"/><circle cx="95.1" cy="67.2" r="2" fill="#225555"/><circle cx="126.2" cy="53.6" r="2" fill="#225555"/><circle cx="157.3" cy="60.0" r="2" fill="#225555"/><circle cx="188.3" cy="43.1" r="2" fill="#225555"/><circle cx="219.4" cy="61.8" r="2" fill="#225555"/><circle cx="250.5" cy="56.4" r="2" fill="#225555"/><circle cx="281.6" cy="58.3" r="2" fill="#225555"/><circle cx="312.7" cy="57.8" r="2" fill="#225555"/><circle cx="343.8" cy="51.7" r="2" fill="#225555"/><circle cx="374.8" cy="54.7" r="2" fill="#225555"/><circle cx="405.9" cy="50.0" r="2" fill="#225555"/><circle cx="437.0" cy="47.0" r="2" fill="#225555"/><circle cx="468.1" cy="61.5" r="2" fill="#225555"/><circle cx="499.2" cy="45.9" r="2" fill="#225555"/><circle cx="530.3" cy="55.5" r="2" fill="#225555"/><circle cx="561.3" cy="60.1" r="2" fill="#225555"/><circle cx="592.4" cy="58.3" r="2" fill="#225555"/><circle cx="623.5" cy="64.5" r="2" fill="#225555"/><circle cx="654.6" cy="45.8" r="2" fill="#225555"/><circle cx="685.7" cy="65.2" r="2" fill="#225555"/><circle cx="716.8" cy="50.9" r="2" fill="#225555"/><circle cx="747.8" cy="65.7" r="2" fill="#225555"/><circle cx="778.9" cy="58.0" r="2" fill="#225555"/><circle cx="810.0" cy="53.3" r="2" fill="#225555"/><rect x="820" y="154" width="10" height="10" fill="#225555"/><text x="834" y="163" font-size="10" fill="#444">hub-200</text><path d="M64.0,54.7 L95.1,52.6 L126.2,57.1 L157.3,50.5 L188.3,48.1 L219.4,58.6 L250.5,56.7 L281.6,53.5 L312.7,68.9 L343.8,44.9 L374.8,51.2 L405.9,52.9 L437.0,50.8 L468.1,56.1 L499.2,48.0 L530.3,58.4 L561.3,64.0 L592.4,59.3 L623.5,61.5 L654.6,50.2 L685.7,61.6 L716.8,49.0 L747.8,63.8 L778.9,53.4 L810.0,47.8" fill="none" stroke="#552222" stroke-width="1.6"/><circle cx="64.0" cy="54.7" r="2" fill="#552222"/><circle cx="95.1" cy="52.6" r="2" fill="#552222"/><circle cx="126.2" cy="57.1" r="2" fill="#552222"/><circle cx="157.3" cy="50.5" r="2" fill="#552222"/><circle cx="188.3" cy="48.1" r="2" fill="#552222"/><circle cx="219.4" cy="58.6" r="2" fill="#552222"/><circle cx="250.5" cy="56.7" r="2" fill="#552222"/><circle cx="281.6" cy="53.5" r="2" fill="#552222"/><circle cx="312.7" cy="68.9" r="2" fill="#552222"/><circle cx="343.8" cy="44.9" r="2" fill="#552222"/><circle cx="374.8" cy="51.2" r="2" fill="#552222"/><circle cx="405.9" cy="52.9" r="2" fill="#552222"/><circle cx="437.0" cy="50.8" r="2" fill="#552222"/><circle cx="468.1" cy="56.1" r="2" fill="#552222"/><circle cx="499.2" cy="48.0" r="2" fill="#552222"/><circle cx="530.3" cy="58.4" r="2" fill="#552222"/><circle cx="561.3" cy="64.0" r="2" fill="#552222"/><circle cx="592.4" cy="59.3" r="2" fill="#552222"/><circle cx="623.5" cy="61.5" r="2" fill="#552222"/><circle cx="654.6" cy="50.2" r="2" fill="#552222"/><circle cx="685.7" cy="61.6" r="2" fill="#552222"/><circle cx="716.8" cy="49.0" r="2" fill="#552222"/><circle cx="747.8" cy="63.8" r="2" fill="#552222"/><circle cx="778.9" cy="53.4" r="2" fill="#552222"/><circle cx="810.0" cy="47.8" r="2" fill="#552222"/><rect x="820" y="169" width="10" height="10" fill="#552222"/><text x="834" y="178" font-size="10" fill="#444">hooked-200</text><path d="M64.0,57.0 L95.1,48.5 L126.2,35.9 L157.3,45.5 L188.3,39.5 L219.4,69.6 L250.5,44.9 L281.6,51.5 L312.7,46.9 L343.8,52.4 L374.8,46.8 L405.9,48.5 L437.0,45.6 L468.1,41.0 L499.2,40.1 L530.3,58.3 L561.3,50.5 L592.4,46.2 L623.5,43.7 L654.6,48.8 L685.7,46.2 L716.8,47.6 L747.8,69.5 L778.9,46.7 L810.0,46.8" fill="none" stroke="#555522" stroke-width="1.6"/><circle cx="64.0" cy="57.0" r="2" fill="#555522"/><circle cx="95.1" cy="48.5" r="2" fill="#555522"/><circle cx="126.2" cy="35.9" r="2" fill="#555522"/><circle cx="157.3" cy="45.5" r="2" fill="#555522"/><circle cx="188.3" cy="39.5" r="2" fill="#555522"/><circle cx="219.4" cy="69.6" r="2" fill="#555522"/><circle cx="250.5" cy="44.9" r="2" fill="#555522"/><circle cx="281.6" cy="51.5" r="2" fill="#555522"/><circle cx="312.7" cy="46.9" r="2" fill="#555522"/><circle cx="343.8" cy="52.4" r="2" fill="#555522"/><circle cx="374.8" cy="46.8" r="2" fill="#555522"/><circle cx="405.9" cy="48.5" r="2" fill="#555522"/><circle cx="437.0" cy="45.6" r="2" fill="#555522"/><circle cx="468.1" cy="41.0" r="2" fill="#555522"/><circle cx="499.2" cy="40.1" r="2" fill="#555522"/><circle cx="530.3" cy="58.3" r="2" fill="#555522"/><circle cx="561.3" cy="50.5" r="2" fill="#555522"/><circle cx="592.4" cy="46.2" r="2" fill="#555522"/><circle cx="623.5" cy="43.7" r="2" fill="#555522"/><circle cx="654.6" cy="48.8" r="2" fill="#555522"/><circle cx="685.7" cy="46.2" r="2" fill="#555522"/><circle cx="716.8" cy="47.6" r="2" fill="#555522"/><circle cx="747.8" cy="69.5" r="2" fill="#555522"/><circle cx="778.9" cy="46.7" r="2" fill="#555522"/><circle cx="810.0" cy="46.8" r="2" fill="#555522"/><rect x="820" y="184" width="10" height="10" fill="#555522"/><text x="834" y="193" font-size="10" fill="#444">messy-1000</text><path d="M64.0,50.8 L95.1,42.5 L126.2,41.3 L157.3,40.9 L188.3,40.5 L219.4,51.4 L250.5,37.5 L281.6,47.9 L312.7,48.0 L343.8,37.5 L374.8,58.3 L405.9,44.1 L437.0,37.1 L468.1,47.9 L499.2,42.2 L530.3,72.9 L561.3,48.7 L592.4,54.5 L623.5,34.0 L654.6,40.9 L685.7,56.6 L716.8,44.0 L747.8,51.7 L778.9,43.9 L810.0,51.9" fill="none" stroke="#8855AA" stroke-width="1.6"/><circle cx="64.0" cy="50.8" r="2" fill="#8855AA"/><circle cx="95.1" cy="42.5" r="2" fill="#8855AA"/><circle cx="126.2" cy="41.3" r="2" fill="#8855AA"/><circle cx="157.3" cy="40.9" r="2" fill="#8855AA"/><circle cx="188.3" cy="40.5" r="2" fill="#8855AA"/><circle cx="219.4" cy="51.4" r="2" fill="#8855AA"/><circle cx="250.5" cy="37.5" r="2" fill="#8855AA"/><circle cx="281.6" cy="47.9" r="2" fill="#8855AA"/><circle cx="312.7" cy="48.0" r="2" fill="#8855AA"/><circle cx="343.8" cy="37.5" r="2" fill="#8855AA"/><circle cx="374.8" cy="58.3" r="2" fill="#8855AA"/><circle cx="405.9" cy="44.1" r="2" fill="#8855AA"/><circle cx="437.0" cy="37.1" r="2" fill="#8855AA"/><circle cx="468.1" cy="47.9" r="2" fill="#8855AA"/><circle cx="499.2" cy="42.2" r="2" fill="#8855AA"/><circle cx="530.3" cy="72.9" r="2" fill="#8855AA"/><circle cx="561.3" cy="48.7" r="2" fill="#8855AA"/><circle cx="592.4" cy="54.5" r="2" fill="#8855AA"/><circle cx="623.5" cy="34.0" r="2" fill="#8855AA"/><circle cx="654.6" cy="40.9" r="2" fill="#8855AA"/><circle cx="685.7" cy="56.6" r="2" fill="#8855AA"/><circle cx="716.8" cy="44.0" r="2" fill="#8855AA"/><circle cx="747.8" cy="51.7" r="2" fill="#8855AA"/><circle cx="778.9" cy="43.9" r="2" fill="#8855AA"/><circle cx="810.0" cy="51.9" r="2" fill="#8855AA"/><rect x="820" y="199" width="10" height="10" fill="#8855AA"/><text x="834" y="208" font-size="10" fill="#444">messy-5000</text></svg>