<svg width="960" height="372" xmlns="http://www.w3.org/2000/svg"><rect width="960" height="372" fill="#ffffff"/><text x="64" y="20" font-size="15" font-weight="bold" fill="#333">transition() — ops/sec (log scale) by PR / release, c7g.medium</text><line x1="64" y1="124.25384085364578" x2="810" y2="124.25384085364578" stroke="#eee"/><text x="58" y="128.25384085364578" font-size="10" text-anchor="end" fill="#888">1e5</text><text x="64.0" y="340" font-size="9" text-anchor="middle" fill="#888">598</text><text x="126.2" y="340" font-size="9" text-anchor="middle" fill="#888">600</text><text x="188.3" y="340" font-size="9" text-anchor="middle" fill="#888">602</text><text x="250.5" y="340" font-size="9" text-anchor="middle" fill="#888">604</text><text x="312.7" y="340" font-size="9" text-anchor="middle" fill="#888">611</text><text x="374.8" y="340" font-size="9" text-anchor="middle" fill="#888">616</text><text x="437.0" y="340" font-size="9" text-anchor="middle" fill="#888">618</text><text x="499.2" y="340" font-size="9" text-anchor="middle" fill="#888">634</text><text x="561.3" y="340" font-size="9" text-anchor="middle" fill="#888">649</text><text x="623.5" y="340" font-size="9" text-anchor="middle" fill="#888">674</text><text x="685.7" y="340" font-size="9" text-anchor="middle" fill="#888">679</text><text x="747.8" y="340" font-size="9" text-anchor="middle" fill="#888">681</text><text x="810.0" y="340" font-size="9" text-anchor="end" fill="#a40" transform="rotate(-35 810.0 340)">v5.143.30</text><path d="M64.0,47.0 L95.1,58.7 L126.2,52.6 L157.3,41.7 L188.3,50.9 L219.4,42.5 L250.5,53.1 L281.6,44.7 L312.7,48.1 L343.8,46.8 L374.8,41.5 L405.9,43.1 L437.0,49.2 L468.1,43.1 L499.2,51.4 L530.3,56.2 L561.3,43.7 L592.4,51.6 L623.5,55.5 L654.6,51.2 L685.7,55.0 L716.8,34.0 L747.8,47.8 L778.9,73.3 L810.0,102.4" fill="none" stroke="#4477AA" stroke-width="1.6"/><circle cx="64.0" cy="47.0" r="2" fill="#4477AA"/><circle cx="95.1" cy="58.7" r="2" fill="#4477AA"/><circle cx="126.2" cy="52.6" r="2" fill="#4477AA"/><circle cx="157.3" cy="41.7" r="2" fill="#4477AA"/><circle cx="188.3" cy="50.9" r="2" fill="#4477AA"/><circle cx="219.4" cy="42.5" r="2" fill="#4477AA"/><circle cx="250.5" cy="53.1" r="2" fill="#4477AA"/><circle cx="281.6" cy="44.7" r="2" fill="#4477AA"/><circle cx="312.7" cy="48.1" r="2" fill="#4477AA"/><circle cx="343.8" cy="46.8" r="2" fill="#4477AA"/><circle cx="374.8" cy="41.5" r="2" fill="#4477AA"/><circle cx="405.9" cy="43.1" r="2" fill="#4477AA"/><circle cx="437.0" cy="49.2" r="2" fill="#4477AA"/><circle cx="468.1" cy="43.1" r="2" fill="#4477AA"/><circle cx="499.2" cy="51.4" r="2" fill="#4477AA"/><circle cx="530.3" cy="56.2" r="2" fill="#4477AA"/><circle cx="561.3" cy="43.7" r="2" fill="#4477AA"/><circle cx="592.4" cy="51.6" r="2" fill="#4477AA"/><circle cx="623.5" cy="55.5" r="2" fill="#4477AA"/><circle cx="654.6" cy="51.2" r="2" fill="#4477AA"/><circle cx="685.7" cy="55.0" r="2" fill="#4477AA"/><circle cx="716.8" cy="34.0" r="2" fill="#4477AA"/><circle cx="747.8" cy="47.8" r="2" fill="#4477AA"/><circle cx="778.9" cy="73.3" r="2" fill="#4477AA"/><circle cx="810.0" cy="102.4" r="2" fill="#4477AA"/><rect x="820" y="34" width="10" height="10" fill="#4477AA"/><text x="834" y="43" font-size="10" fill="#444">chain-10</text><path d="M64.0,69.8 L95.1,64.8 L126.2,54.5 L157.3,58.5 L188.3,55.1 L219.4,62.7 L250.5,61.6 L281.6,54.8 L312.7,64.9 L343.8,62.4 L374.8,60.7 L405.9,67.6 L437.0,62.4 L468.1,60.2 L499.2,67.3 L530.3,58.4 L561.3,68.9 L592.4,69.9 L623.5,66.6 L654.6,64.7 L685.7,59.7 L716.8,56.1 L747.8,61.2 L778.9,62.5 L810.0,106.6" fill="none" stroke="#EE6677" stroke-width="1.6"/><circle cx="64.0" cy="69.8" r="2" fill="#EE6677"/><circle cx="95.1" cy="64.8" r="2" fill="#EE6677"/><circle cx="126.2" cy="54.5" r="2" fill="#EE6677"/><circle cx="157.3" cy="58.5" r="2" fill="#EE6677"/><circle cx="188.3" cy="55.1" r="2" fill="#EE6677"/><circle cx="219.4" cy="62.7" r="2" fill="#EE6677"/><circle cx="250.5" cy="61.6" r="2" fill="#EE6677"/><circle cx="281.6" cy="54.8" r="2" fill="#EE6677"/><circle cx="312.7" cy="64.9" r="2" fill="#EE6677"/><circle cx="343.8" cy="62.4" r="2" fill="#EE6677"/><circle cx="374.8" cy="60.7" r="2" fill="#EE6677"/><circle cx="405.9" cy="67.6" r="2" fill="#EE6677"/><circle cx="437.0" cy="62.4" r="2" fill="#EE6677"/><circle cx="468.1" cy="60.2" r="2" fill="#EE6677"/><circle cx="499.2" cy="67.3" r="2" fill="#EE6677"/><circle cx="530.3" cy="58.4" r="2" fill="#EE6677"/><circle cx="561.3" cy="68.9" r="2" fill="#EE6677"/><circle cx="592.4" cy="69.9" r="2" fill="#EE6677"/><circle cx="623.5" cy="66.6" r="2" fill="#EE6677"/><circle cx="654.6" cy="64.7" r="2" fill="#EE6677"/><circle cx="685.7" cy="59.7" r="2" fill="#EE6677"/><circle cx="716.8" cy="56.1" r="2" fill="#EE6677"/><circle cx="747.8" cy="61.2" r="2" fill="#EE6677"/><circle cx="778.9" cy="62.5" r="2" fill="#EE6677"/><circle cx="810.0" cy="106.6" r="2" fill="#EE6677"/><rect x="820" y="49" width="10" height="10" fill="#EE6677"/><text x="834" y="58" font-size="10" fill="#444">chain-50</text><path d="M64.0,78.9 L95.1,78.1 L126.2,77.0 L157.3,77.3 L188.3,74.1 L219.4,74.4 L250.5,84.4 L281.6,79.2 L312.7,78.5 L343.8,77.8 L374.8,80.6 L405.9,82.6 L437.0,75.3 L468.1,82.7 L499.2,82.3 L530.3,79.6 L561.3,81.1 L592.4,82.7 L623.5,79.8 L654.6,78.1 L685.7,80.3 L716.8,60.9 L747.8,78.9 L778.9,76.3 L810.0,128.1" fill="none" stroke="#228833" stroke-width="1.6"/><circle cx="64.0" cy="78.9" r="2" fill="#228833"/><circle cx="95.1" cy="78.1" r="2" fill="#228833"/><circle cx="126.2" cy="77.0" r="2" fill="#228833"/><circle cx="157.3" cy="77.3" r="2" fill="#228833"/><circle cx="188.3" cy="74.1" r="2" fill="#228833"/><circle cx="219.4" cy="74.4" r="2" fill="#228833"/><circle cx="250.5" cy="84.4" r="2" fill="#228833"/><circle cx="281.6" cy="79.2" r="2" fill="#228833"/><circle cx="312.7" cy="78.5" r="2" fill="#228833"/><circle cx="343.8" cy="77.8" r="2" fill="#228833"/><circle cx="374.8" cy="80.6" r="2" fill="#228833"/><circle cx="405.9" cy="82.6" r="2" fill="#228833"/><circle cx="437.0" cy="75.3" r="2" fill="#228833"/><circle cx="468.1" cy="82.7" r="2" fill="#228833"/><circle cx="499.2" cy="82.3" r="2" fill="#228833"/><circle cx="530.3" cy="79.6" r="2" fill="#228833"/><circle cx="561.3" cy="81.1" r="2" fill="#228833"/><circle cx="592.4" cy="82.7" r="2" fill="#228833"/><circle cx="623.5" cy="79.8" r="2" fill="#228833"/><circle cx="654.6" cy="78.1" r="2" fill="#228833"/><circle cx="685.7" cy="80.3" r="2" fill="#228833"/><circle cx="716.8" cy="60.9" r="2" fill="#228833"/><circle cx="747.8" cy="78.9" r="2" fill="#228833"/><circle cx="778.9" cy="76.3" r="2" fill="#228833"/><circle cx="810.0" cy="128.1" r="2" fill="#228833"/><rect x="820" y="64" width="10" height="10" fill="#228833"/><text x="834" y="73" font-size="10" fill="#444">chain-200</text><path d="M64.0,95.0 L95.1,96.2 L126.2,92.5 L157.3,95.8 L188.3,93.7 L219.4,93.9 L250.5,90.7 L281.6,94.8 L312.7,97.8 L343.8,93.6 L374.8,93.8 L405.9,93.5 L437.0,93.8 L468.1,97.3 L499.2,94.4 L530.3,96.3 L561.3,96.4 L592.4,97.6 L623.5,93.9 L654.6,92.6 L685.7,91.8 L716.8,81.7 L747.8,104.4 L778.9,97.0 L810.0,150.2" fill="none" stroke="#CCBB44" stroke-width="1.6"/><circle cx="64.0" cy="95.0" r="2" fill="#CCBB44"/><circle cx="95.1" cy="96.2" r="2" fill="#CCBB44"/><circle cx="126.2" cy="92.5" r="2" fill="#CCBB44"/><circle cx="157.3" cy="95.8" r="2" fill="#CCBB44"/><circle cx="188.3" cy="93.7" r="2" fill="#CCBB44"/><circle cx="219.4" cy="93.9" r="2" fill="#CCBB44"/><circle cx="250.5" cy="90.7" r="2" fill="#CCBB44"/><circle cx="281.6" cy="94.8" r="2" fill="#CCBB44"/><circle cx="312.7" cy="97.8" r="2" fill="#CCBB44"/><circle cx="343.8" cy="93.6" r="2" fill="#CCBB44"/><circle cx="374.8" cy="93.8" r="2" fill="#CCBB44"/><circle cx="405.9" cy="93.5" r="2" fill="#CCBB44"/><circle cx="437.0" cy="93.8" r="2" fill="#CCBB44"/><circle cx="468.1" cy="97.3" r="2" fill="#CCBB44"/><circle cx="499.2" cy="94.4" r="2" fill="#CCBB44"/><circle cx="530.3" cy="96.3" r="2" fill="#CCBB44"/><circle cx="561.3" cy="96.4" r="2" fill="#CCBB44"/><circle cx="592.4" cy="97.6" r="2" fill="#CCBB44"/><circle cx="623.5" cy="93.9" r="2" fill="#CCBB44"/><circle cx="654.6" cy="92.6" r="2" fill="#CCBB44"/><circle cx="685.7" cy="91.8" r="2" fill="#CCBB44"/><circle cx="716.8" cy="81.7" r="2" fill="#CCBB44"/><circle cx="747.8" cy="104.4" r="2" fill="#CCBB44"/><circle cx="778.9" cy="97.0" r="2" fill="#CCBB44"/><circle cx="810.0" cy="150.2" r="2" fill="#CCBB44"/><rect x="820" y="79" width="10" height="10" fill="#CCBB44"/><text x="834" y="88" font-size="10" fill="#444">chain-1000</text><path d="M64.0,54.3 L95.1,70.5 L126.2,65.9 L157.3,46.8 L188.3,54.2 L219.4,47.4 L250.5,65.9 L281.6,50.0 L312.7,56.3 L343.8,54.9 L374.8,43.6 L405.9,48.0 L437.0,61.0 L468.1,47.8 L499.2,59.2 L530.3,63.9 L561.3,47.9 L592.4,60.6 L623.5,67.2 L654.6,56.2 L685.7,65.5 L716.8,43.1 L747.8,55.5 L778.9,84.5 L810.0,94.9" fill="none" stroke="#66CCEE" stroke-width="1.6"/><circle cx="64.0" cy="54.3" r="2" fill="#66CCEE"/><circle cx="95.1" cy="70.5" r="2" fill="#66CCEE"/><circle cx="126.2" cy="65.9" r="2" fill="#66CCEE"/><circle cx="157.3" cy="46.8" r="2" fill="#66CCEE"/><circle cx="188.3" cy="54.2" r="2" fill="#66CCEE"/><circle cx="219.4" cy="47.4" r="2" fill="#66CCEE"/><circle cx="250.5" cy="65.9" r="2" fill="#66CCEE"/><circle cx="281.6" cy="50.0" r="2" fill="#66CCEE"/><circle cx="312.7" cy="56.3" r="2" fill="#66CCEE"/><circle cx="343.8" cy="54.9" r="2" fill="#66CCEE"/><circle cx="374.8" cy="43.6" r="2" fill="#66CCEE"/><circle cx="405.9" cy="48.0" r="2" fill="#66CCEE"/><circle cx="437.0" cy="61.0" r="2" fill="#66CCEE"/><circle cx="468.1" cy="47.8" r="2" fill="#66CCEE"/><circle cx="499.2" cy="59.2" r="2" fill="#66CCEE"/><circle cx="530.3" cy="63.9" r="2" fill="#66CCEE"/><circle cx="561.3" cy="47.9" r="2" fill="#66CCEE"/><circle cx="592.4" cy="60.6" r="2" fill="#66CCEE"/><circle cx="623.5" cy="67.2" r="2" fill="#66CCEE"/><circle cx="654.6" cy="56.2" r="2" fill="#66CCEE"/><circle cx="685.7" cy="65.5" r="2" fill="#66CCEE"/><circle cx="716.8" cy="43.1" r="2" fill="#66CCEE"/><circle cx="747.8" cy="55.5" r="2" fill="#66CCEE"/><circle cx="778.9" cy="84.5" r="2" fill="#66CCEE"/><circle cx="810.0" cy="94.9" r="2" fill="#66CCEE"/><rect x="820" y="94" width="10" height="10" fill="#66CCEE"/><text x="834" y="103" font-size="10" fill="#444">dense-10</text><path d="M64.0,91.8 L95.1,91.0 L126.2,74.9 L157.3,78.1 L188.3,77.8 L219.4,82.8 L250.5,86.2 L281.6,74.4 L312.7,89.1 L343.8,80.3 L374.8,85.1 L405.9,91.0 L437.0,92.3 L468.1,88.2 L499.2,91.5 L530.3,78.3 L561.3,100.1 L592.4,101.6 L623.5,98.1 L654.6,98.3 L685.7,84.6 L716.8,82.7 L747.8,83.0 L778.9,89.2 L810.0,116.3" fill="none" stroke="#AA3377" stroke-width="1.6"/><circle cx="64.0" cy="91.8" r="2" fill="#AA3377"/><circle cx="95.1" cy="91.0" r="2" fill="#AA3377"/><circle cx="126.2" cy="74.9" r="2" fill="#AA3377"/><circle cx="157.3" cy="78.1" r="2" fill="#AA3377"/><circle cx="188.3" cy="77.8" r="2" fill="#AA3377"/><circle cx="219.4" cy="82.8" r="2" fill="#AA3377"/><circle cx="250.5" cy="86.2" r="2" fill="#AA3377"/><circle cx="281.6" cy="74.4" r="2" fill="#AA3377"/><circle cx="312.7" cy="89.1" r="2" fill="#AA3377"/><circle cx="343.8" cy="80.3" r="2" fill="#AA3377"/><circle cx="374.8" cy="85.1" r="2" fill="#AA3377"/><circle cx="405.9" cy="91.0" r="2" fill="#AA3377"/><circle cx="437.0" cy="92.3" r="2" fill="#AA3377"/><circle cx="468.1" cy="88.2" r="2" fill="#AA3377"/><circle cx="499.2" cy="91.5" r="2" fill="#AA3377"/><circle cx="530.3" cy="78.3" r="2" fill="#AA3377"/><circle cx="561.3" cy="100.1" r="2" fill="#AA3377"/><circle cx="592.4" cy="101.6" r="2" fill="#AA3377"/><circle cx="623.5" cy="98.1" r="2" fill="#AA3377"/><circle cx="654.6" cy="98.3" r="2" fill="#AA3377"/><circle cx="685.7" cy="84.6" r="2" fill="#AA3377"/><circle cx="716.8" cy="82.7" r="2" fill="#AA3377"/><circle cx="747.8" cy="83.0" r="2" fill="#AA3377"/><circle cx="778.9" cy="89.2" r="2" fill="#AA3377"/><circle cx="810.0" cy="116.3" r="2" fill="#AA3377"/><rect x="820" y="109" width="10" height="10" fill="#AA3377"/><text x="834" y="118" font-size="10" fill="#444">dense-50</text><path d="M64.0,124.9 L95.1,121.8 L126.2,121.5 L157.3,123.5 L188.3,118.7 L219.4,120.7 L250.5,126.0 L281.6,125.2 L312.7,124.2 L343.8,120.1 L374.8,125.2 L405.9,127.1 L437.0,122.9 L468.1,129.6 L499.2,123.1 L530.3,126.4 L561.3,123.8 L592.4,128.9 L623.5,122.7 L654.6,124.4 L685.7,125.9 L716.8,111.5 L747.8,124.5 L778.9,120.1 L810.0,153.8" fill="none" stroke="#BBBBBB" stroke-width="1.6"/><circle cx="64.0" cy="124.9" r="2" fill="#BBBBBB"/><circle cx="95.1" cy="121.8" r="2" fill="#BBBBBB"/><circle cx="126.2" cy="121.5" r="2" fill="#BBBBBB"/><circle cx="157.3" cy="123.5" r="2" fill="#BBBBBB"/><circle cx="188.3" cy="118.7" r="2" fill="#BBBBBB"/><circle cx="219.4" cy="120.7" r="2" fill="#BBBBBB"/><circle cx="250.5" cy="126.0" r="2" fill="#BBBBBB"/><circle cx="281.6" cy="125.2" r="2" fill="#BBBBBB"/><circle cx="312.7" cy="124.2" r="2" fill="#BBBBBB"/><circle cx="343.8" cy="120.1" r="2" fill="#BBBBBB"/><circle cx="374.8" cy="125.2" r="2" fill="#BBBBBB"/><circle cx="405.9" cy="127.1" r="2" fill="#BBBBBB"/><circle cx="437.0" cy="122.9" r="2" fill="#BBBBBB"/><circle cx="468.1" cy="129.6" r="2" fill="#BBBBBB"/><circle cx="499.2" cy="123.1" r="2" fill="#BBBBBB"/><circle cx="530.3" cy="126.4" r="2" fill="#BBBBBB"/><circle cx="561.3" cy="123.8" r="2" fill="#BBBBBB"/><circle cx="592.4" cy="128.9" r="2" fill="#BBBBBB"/><circle cx="623.5" cy="122.7" r="2" fill="#BBBBBB"/><circle cx="654.6" cy="124.4" r="2" fill="#BBBBBB"/><circle cx="685.7" cy="125.9" r="2" fill="#BBBBBB"/><circle cx="716.8" cy="111.5" r="2" fill="#BBBBBB"/><circle cx="747.8" cy="124.5" r="2" fill="#BBBBBB"/><circle cx="778.9" cy="120.1" r="2" fill="#BBBBBB"/><circle cx="810.0" cy="153.8" r="2" fill="#BBBBBB"/><rect x="820" y="124" width="10" height="10" fill="#BBBBBB"/><text x="834" y="133" font-size="10" fill="#444">dense-200</text><path d="M64.0,82.6 L95.1,76.8 L126.2,74.4 L157.3,69.2 L188.3,68.2 L219.4,79.6 L250.5,70.6 L281.6,64.7 L312.7,88.6 L343.8,72.5 L374.8,73.1 L405.9,80.3 L437.0,82.7 L468.1,74.6 L499.2,79.2 L530.3,62.3 L561.3,88.4 L592.4,82.2 L623.5,82.3 L654.6,78.1 L685.7,79.5 L716.8,73.9 L747.8,70.5 L778.9,75.4 L810.0,100.2" fill="none" stroke="#222255" stroke-width="1.6"/><circle cx="64.0" cy="82.6" r="2" fill="#222255"/><circle cx="95.1" cy="76.8" r="2" fill="#222255"/><circle cx="126.2" cy="74.4" r="2" fill="#222255"/><circle cx="157.3" cy="69.2" r="2" fill="#222255"/><circle cx="188.3" cy="68.2" r="2" fill="#222255"/><circle cx="219.4" cy="79.6" r="2" fill="#222255"/><circle cx="250.5" cy="70.6" r="2" fill="#222255"/><circle cx="281.6" cy="64.7" r="2" fill="#222255"/><circle cx="312.7" cy="88.6" r="2" fill="#222255"/><circle cx="343.8" cy="72.5" r="2" fill="#222255"/><circle cx="374.8" cy="73.1" r="2" fill="#222255"/><circle cx="405.9" cy="80.3" r="2" fill="#222255"/><circle cx="437.0" cy="82.7" r="2" fill="#222255"/><circle cx="468.1" cy="74.6" r="2" fill="#222255"/><circle cx="499.2" cy="79.2" r="2" fill="#222255"/><circle cx="530.3" cy="62.3" r="2" fill="#222255"/><circle cx="561.3" cy="88.4" r="2" fill="#222255"/><circle cx="592.4" cy="82.2" r="2" fill="#222255"/><circle cx="623.5" cy="82.3" r="2" fill="#222255"/><circle cx="654.6" cy="78.1" r="2" fill="#222255"/><circle cx="685.7" cy="79.5" r="2" fill="#222255"/><circle cx="716.8" cy="73.9" r="2" fill="#222255"/><circle cx="747.8" cy="70.5" r="2" fill="#222255"/><circle cx="778.9" cy="75.4" r="2" fill="#222255"/><circle cx="810.0" cy="100.2" r="2" fill="#222255"/><rect x="820" y="139" width="10" height="10" fill="#222255"/><text x="834" y="148" font-size="10" fill="#444">hub-50</text><path d="M64.0,80.8 L95.1,91.2 L126.2,83.7 L157.3,79.8 L188.3,88.3 L219.4,83.2 L250.5,97.6 L281.6,86.4 L312.7,85.9 L343.8,84.8 L374.8,85.8 L405.9,91.8 L437.0,80.7 L468.1,93.3 L499.2,82.2 L530.3,91.9 L561.3,98.6 L592.4,92.5 L623.5,95.4 L654.6,79.6 L685.7,94.3 L716.8,64.6 L747.8,91.8 L778.9,80.8 L810.0,123.0" fill="none" stroke="#225555" stroke-width="1.6"/><circle cx="64.0" cy="80.8" r="2" fill="#225555"/><circle cx="95.1" cy="91.2" r="2" fill="#225555"/><circle cx="126.2" cy="83.7" r="2" fill="#225555"/><circle cx="157.3" cy="79.8" r="2" fill="#225555"/><circle cx="188.3" cy="88.3" r="2" fill="#225555"/><circle cx="219.4" cy="83.2" r="2" fill="#225555"/><circle cx="250.5" cy="97.6" r="2" fill="#225555"/><circle cx="281.6" cy="86.4" r="2" fill="#225555"/><circle cx="312.7" cy="85.9" r="2" fill="#225555"/><circle cx="343.8" cy="84.8" r="2" fill="#225555"/><circle cx="374.8" cy="85.8" r="2" fill="#225555"/><circle cx="405.9" cy="91.8" r="2" fill="#225555"/><circle cx="437.0" cy="80.7" r="2" fill="#225555"/><circle cx="468.1" cy="93.3" r="2" fill="#225555"/><circle cx="499.2" cy="82.2" r="2" fill="#225555"/><circle cx="530.3" cy="91.9" r="2" fill="#225555"/><circle cx="561.3" cy="98.6" r="2" fill="#225555"/><circle cx="592.4" cy="92.5" r="2" fill="#225555"/><circle cx="623.5" cy="95.4" r="2" fill="#225555"/><circle cx="654.6" cy="79.6" r="2" fill="#225555"/><circle cx="685.7" cy="94.3" r="2" fill="#225555"/><circle cx="716.8" cy="64.6" r="2" fill="#225555"/><circle cx="747.8" cy="91.8" r="2" fill="#225555"/><circle cx="778.9" cy="80.8" r="2" fill="#225555"/><circle cx="810.0" cy="123.0" r="2" fill="#225555"/><rect x="820" y="154" width="10" height="10" fill="#225555"/><text x="834" y="163" font-size="10" fill="#444">hub-200</text><path d="M64.0,319.1 L95.1,321.7 L126.2,321.3 L157.3,324.0 L188.3,321.9 L219.4,320.9 L250.5,322.8 L281.6,321.8 L312.7,321.4 L343.8,321.1 L374.8,320.9 L405.9,322.1 L437.0,320.1 L468.1,322.6 L499.2,320.1 L530.3,321.1 L561.3,250.8 L592.4,249.2 L623.5,251.1 L654.6,243.3 L685.7,250.0 L716.8,230.1 L747.8,249.7 L778.9,242.2 L810.0,232.2" fill="none" stroke="#552222" stroke-width="1.6"/><circle cx="64.0" cy="319.1" r="2" fill="#552222"/><circle cx="95.1" cy="321.7" r="2" fill="#552222"/><circle cx="126.2" cy="321.3" r="2" fill="#552222"/><circle cx="157.3" cy="324.0" r="2" fill="#552222"/><circle cx="188.3" cy="321.9" r="2" fill="#552222"/><circle cx="219.4" cy="320.9" r="2" fill="#552222"/><circle cx="250.5" cy="322.8" r="2" fill="#552222"/><circle cx="281.6" cy="321.8" r="2" fill="#552222"/><circle cx="312.7" cy="321.4" r="2" fill="#552222"/><circle cx="343.8" cy="321.1" r="2" fill="#552222"/><circle cx="374.8" cy="320.9" r="2" fill="#552222"/><circle cx="405.9" cy="322.1" r="2" fill="#552222"/><circle cx="437.0" cy="320.1" r="2" fill="#552222"/><circle cx="468.1" cy="322.6" r="2" fill="#552222"/><circle cx="499.2" cy="320.1" r="2" fill="#552222"/><circle cx="530.3" cy="321.1" r="2" fill="#552222"/><circle cx="561.3" cy="250.8" r="2" fill="#552222"/><circle cx="592.4" cy="249.2" r="2" fill="#552222"/><circle cx="623.5" cy="251.1" r="2" fill="#552222"/><circle cx="654.6" cy="243.3" r="2" fill="#552222"/><circle cx="685.7" cy="250.0" r="2" fill="#552222"/><circle cx="716.8" cy="230.1" r="2" fill="#552222"/><circle cx="747.8" cy="249.7" r="2" fill="#552222"/><circle cx="778.9" cy="242.2" r="2" fill="#552222"/><circle cx="810.0" cy="232.2" r="2" fill="#552222"/><rect x="820" y="169" width="10" height="10" fill="#552222"/><text x="834" y="178" font-size="10" fill="#444">hooked-200</text><path d="M64.0,79.8 L95.1,80.7 L126.2,84.9 L157.3,68.6 L188.3,81.2 L219.4,91.9 L250.5,58.7 L281.6,72.3 L312.7,82.2 L343.8,64.3 L374.8,80.1 L405.9,72.5 L437.0,85.1 L468.1,71.0 L499.2,85.5 L530.3,95.3 L561.3,70.5 L592.4,66.3 L623.5,65.5 L654.6,75.8 L685.7,69.2 L716.8,82.1 L747.8,81.7 L778.9,85.4 L810.0,139.4" fill="none" stroke="#555522" stroke-width="1.6"/><circle cx="64.0" cy="79.8" r="2" fill="#555522"/><circle cx="95.1" cy="80.7" r="2" fill="#555522"/><circle cx="126.2" cy="84.9" r="2" fill="#555522"/><circle cx="157.3" cy="68.6" r="2" fill="#555522"/><circle cx="188.3" cy="81.2" r="2" fill="#555522"/><circle cx="219.4" cy="91.9" r="2" fill="#555522"/><circle cx="250.5" cy="58.7" r="2" fill="#555522"/><circle cx="281.6" cy="72.3" r="2" fill="#555522"/><circle cx="312.7" cy="82.2" r="2" fill="#555522"/><circle cx="343.8" cy="64.3" r="2" fill="#555522"/><circle cx="374.8" cy="80.1" r="2" fill="#555522"/><circle cx="405.9" cy="72.5" r="2" fill="#555522"/><circle cx="437.0" cy="85.1" r="2" fill="#555522"/><circle cx="468.1" cy="71.0" r="2" fill="#555522"/><circle cx="499.2" cy="85.5" r="2" fill="#555522"/><circle cx="530.3" cy="95.3" r="2" fill="#555522"/><circle cx="561.3" cy="70.5" r="2" fill="#555522"/><circle cx="592.4" cy="66.3" r="2" fill="#555522"/><circle cx="623.5" cy="65.5" r="2" fill="#555522"/><circle cx="654.6" cy="75.8" r="2" fill="#555522"/><circle cx="685.7" cy="69.2" r="2" fill="#555522"/><circle cx="716.8" cy="82.1" r="2" fill="#555522"/><circle cx="747.8" cy="81.7" r="2" fill="#555522"/><circle cx="778.9" cy="85.4" r="2" fill="#555522"/><circle cx="810.0" cy="139.4" r="2" fill="#555522"/><rect x="820" y="184" width="10" height="10" fill="#555522"/><text x="834" y="193" font-size="10" fill="#444">messy-1000</text><path d="M64.0,84.2 L95.1,79.7 L126.2,71.5 L157.3,63.5 L188.3,56.8 L219.4,56.0 L250.5,62.9 L281.6,78.4 L312.7,65.7 L343.8,88.0 L374.8,79.1 L405.9,81.1 L437.0,76.5 L468.1,91.4 L499.2,74.5 L530.3,76.5 L561.3,67.4 L592.4,75.7 L623.5,80.6 L654.6,75.9 L685.7,92.5 L716.8,66.2 L747.8,45.8 L778.9,79.7 L810.0,129.9" fill="none" stroke="#8855AA" stroke-width="1.6"/><circle cx="64.0" cy="84.2" r="2" fill="#8855AA"/><circle cx="95.1" cy="79.7" r="2" fill="#8855AA"/><circle cx="126.2" cy="71.5" r="2" fill="#8855AA"/><circle cx="157.3" cy="63.5" r="2" fill="#8855AA"/><circle cx="188.3" cy="56.8" r="2" fill="#8855AA"/><circle cx="219.4" cy="56.0" r="2" fill="#8855AA"/><circle cx="250.5" cy="62.9" r="2" fill="#8855AA"/><circle cx="281.6" cy="78.4" r="2" fill="#8855AA"/><circle cx="312.7" cy="65.7" r="2" fill="#8855AA"/><circle cx="343.8" cy="88.0" r="2" fill="#8855AA"/><circle cx="374.8" cy="79.1" r="2" fill="#8855AA"/><circle cx="405.9" cy="81.1" r="2" fill="#8855AA"/><circle cx="437.0" cy="76.5" r="2" fill="#8855AA"/><circle cx="468.1" cy="91.4" r="2" fill="#8855AA"/><circle cx="499.2" cy="74.5" r="2" fill="#8855AA"/><circle cx="530.3" cy="76.5" r="2" fill="#8855AA"/><circle cx="561.3" cy="67.4" r="2" fill="#8855AA"/><circle cx="592.4" cy="75.7" r="2" fill="#8855AA"/><circle cx="623.5" cy="80.6" r="2" fill="#8855AA"/><circle cx="654.6" cy="75.9" r="2" fill="#8855AA"/><circle cx="685.7" cy="92.5" r="2" fill="#8855AA"/><circle cx="716.8" cy="66.2" r="2" fill="#8855AA"/><circle cx="747.8" cy="45.8" r="2" fill="#8855AA"/><circle cx="778.9" cy="79.7" r="2" fill="#8855AA"/><circle cx="810.0" cy="129.9" r="2" fill="#8855AA"/><rect x="820" y="199" width="10" height="10" fill="#8855AA"/><text x="834" y="208" font-size="10" fill="#444">messy-5000</text></svg>